ISO-10303-21;
HEADER;
/* Generated by software containing ST-Developer
 * from STEP Tools, Inc. (www.steptools.com) 
 */

FILE_DESCRIPTION(
/* description */ (''),
/* implementation_level */ '2;1');

FILE_NAME(
/* name */ 'bruh_mag_hook_v2.step',
/* time_stamp */ '2026-03-17T23:34:01-04:00',
/* author */ (''),
/* organization */ (''),
/* preprocessor_version */ 'ST-DEVELOPER v20.1',
/* originating_system */ 'Autodesk Translation Framework v14.24.0.0',
/* authorisation */ '');

FILE_SCHEMA (('AUTOMOTIVE_DESIGN { 1 0 10303 214 3 1 1 }'));
ENDSEC;

DATA;
#10=MECHANICAL_DESIGN_GEOMETRIC_PRESENTATION_REPRESENTATION('',(#19,#20,
#21),#1139);
#11=ITEM_DEFINED_TRANSFORMATION($,$,#699,#754);
#12=(
REPRESENTATION_RELATIONSHIP($,$,#1150,#1149)
REPRESENTATION_RELATIONSHIP_WITH_TRANSFORMATION(#11)
SHAPE_REPRESENTATION_RELATIONSHIP()
);
#13=CONTEXT_DEPENDENT_SHAPE_REPRESENTATION(#12,#1148);
#14=NEXT_ASSEMBLY_USAGE_OCCURRENCE('nut v1:1','nut v1:1','nut v1:1',#1152,
#1153,'nut v1:1');
#15=SHAPE_REPRESENTATION_RELATIONSHIP('SRR','None',#1150,#17);
#16=SHAPE_REPRESENTATION_RELATIONSHIP('SRR','None',#1149,#18);
#17=ADVANCED_BREP_SHAPE_REPRESENTATION('',(#22),#1138);
#18=ADVANCED_BREP_SHAPE_REPRESENTATION('',(#23,#24),#1137);
#19=STYLED_ITEM('',(#1163),#22);
#20=STYLED_ITEM('',(#1163),#23);
#21=STYLED_ITEM('',(#1163),#24);
#22=MANIFOLD_SOLID_BREP('Body1',#683);
#23=MANIFOLD_SOLID_BREP('Body1',#684);
#24=MANIFOLD_SOLID_BREP('Body3',#685);
#25=CYLINDRICAL_SURFACE('',#710,3.);
#26=CYLINDRICAL_SURFACE('',#730,3.);
#27=CYLINDRICAL_SURFACE('',#733,5.);
#28=CYLINDRICAL_SURFACE('',#735,5.);
#29=CYLINDRICAL_SURFACE('',#737,5.);
#30=CYLINDRICAL_SURFACE('',#739,15.5);
#31=CYLINDRICAL_SURFACE('',#741,15.5);
#32=CYLINDRICAL_SURFACE('',#742,3.);
#33=FACE_BOUND('',#96,.T.);
#34=FACE_BOUND('',#102,.T.);
#35=FACE_BOUND('',#105,.T.);
#36=FACE_BOUND('',#110,.T.);
#37=FACE_BOUND('',#113,.T.);
#38=FACE_BOUND('',#127,.T.);
#39=CIRCLE('',#703,3.);
#40=CIRCLE('',#709,3.);
#41=CIRCLE('',#712,5.);
#42=CIRCLE('',#713,5.);
#43=CIRCLE('',#714,5.);
#44=CIRCLE('',#715,15.5);
#45=CIRCLE('',#716,15.5);
#46=CIRCLE('',#719,15.5);
#47=CIRCLE('',#720,15.5);
#48=CIRCLE('',#721,5.);
#49=CIRCLE('',#722,5.);
#50=CIRCLE('',#723,5.);
#51=CIRCLE('',#726,3.);
#52=CIRCLE('',#729,3.);
#53=CIRCLE('',#731,3.);
#54=CIRCLE('',#743,3.);
#55=FACE_OUTER_BOUND('',#93,.T.);
#56=FACE_OUTER_BOUND('',#94,.T.);
#57=FACE_OUTER_BOUND('',#95,.T.);
#58=FACE_OUTER_BOUND('',#97,.T.);
#59=FACE_OUTER_BOUND('',#98,.T.);
#60=FACE_OUTER_BOUND('',#99,.T.);
#61=FACE_OUTER_BOUND('',#100,.T.);
#62=FACE_OUTER_BOUND('',#101,.T.);
#63=FACE_OUTER_BOUND('',#103,.T.);
#64=FACE_OUTER_BOUND('',#104,.T.);
#65=FACE_OUTER_BOUND('',#106,.T.);
#66=FACE_OUTER_BOUND('',#107,.T.);
#67=FACE_OUTER_BOUND('',#108,.T.);
#68=FACE_OUTER_BOUND('',#109,.T.);
#69=FACE_OUTER_BOUND('',#111,.T.);
#70=FACE_OUTER_BOUND('',#112,.T.);
#71=FACE_OUTER_BOUND('',#114,.T.);
#72=FACE_OUTER_BOUND('',#115,.T.);
#73=FACE_OUTER_BOUND('',#116,.T.);
#74=FACE_OUTER_BOUND('',#117,.T.);
#75=FACE_OUTER_BOUND('',#118,.T.);
#76=FACE_OUTER_BOUND('',#119,.T.);
#77=FACE_OUTER_BOUND('',#120,.T.);
#78=FACE_OUTER_BOUND('',#121,.T.);
#79=FACE_OUTER_BOUND('',#122,.T.);
#80=FACE_OUTER_BOUND('',#123,.T.);
#81=FACE_OUTER_BOUND('',#124,.T.);
#82=FACE_OUTER_BOUND('',#125,.T.);
#83=FACE_OUTER_BOUND('',#126,.T.);
#84=FACE_OUTER_BOUND('',#128,.T.);
#85=FACE_OUTER_BOUND('',#129,.T.);
#86=FACE_OUTER_BOUND('',#130,.T.);
#87=FACE_OUTER_BOUND('',#131,.T.);
#88=FACE_OUTER_BOUND('',#132,.T.);
#89=FACE_OUTER_BOUND('',#133,.T.);
#90=FACE_OUTER_BOUND('',#134,.T.);
#91=FACE_OUTER_BOUND('',#135,.T.);
#92=FACE_OUTER_BOUND('',#136,.T.);
#93=EDGE_LOOP('',(#435,#436,#437,#438));
#94=EDGE_LOOP('',(#439,#440,#441,#442));
#95=EDGE_LOOP('',(#443,#444,#445,#446,#447,#448));
#96=EDGE_LOOP('',(#449));
#97=EDGE_LOOP('',(#450,#451,#452,#453));
#98=EDGE_LOOP('',(#454,#455,#456,#457));
#99=EDGE_LOOP('',(#458,#459,#460,#461));
#100=EDGE_LOOP('',(#462,#463,#464,#465));
#101=EDGE_LOOP('',(#466,#467,#468,#469,#470,#471));
#102=EDGE_LOOP('',(#472));
#103=EDGE_LOOP('',(#473,#474,#475,#476));
#104=EDGE_LOOP('',(#477,#478,#479,#480,#481,#482,#483,#484,#485,#486,#487,
#488));
#105=EDGE_LOOP('',(#489,#490,#491,#492));
#106=EDGE_LOOP('',(#493,#494,#495,#496));
#107=EDGE_LOOP('',(#497,#498,#499,#500,#501,#502,#503,#504,#505,#506,#507,
#508));
#108=EDGE_LOOP('',(#509,#510,#511,#512));
#109=EDGE_LOOP('',(#513,#514,#515,#516));
#110=EDGE_LOOP('',(#517));
#111=EDGE_LOOP('',(#518,#519,#520,#521));
#112=EDGE_LOOP('',(#522,#523,#524,#525,#526));
#113=EDGE_LOOP('',(#527));
#114=EDGE_LOOP('',(#528,#529,#530,#531));
#115=EDGE_LOOP('',(#532));
#116=EDGE_LOOP('',(#533,#534,#535,#536));
#117=EDGE_LOOP('',(#537,#538,#539,#540));
#118=EDGE_LOOP('',(#541,#542,#543,#544));
#119=EDGE_LOOP('',(#545,#546,#547,#548));
#120=EDGE_LOOP('',(#549,#550,#551,#552));
#121=EDGE_LOOP('',(#553,#554,#555,#556));
#122=EDGE_LOOP('',(#557,#558,#559,#560));
#123=EDGE_LOOP('',(#561,#562,#563,#564));
#124=EDGE_LOOP('',(#565,#566,#567,#568));
#125=EDGE_LOOP('',(#569,#570,#571,#572));
#126=EDGE_LOOP('',(#573,#574,#575,#576,#577));
#127=EDGE_LOOP('',(#578));
#128=EDGE_LOOP('',(#579,#580,#581,#582));
#129=EDGE_LOOP('',(#583,#584,#585,#586));
#130=EDGE_LOOP('',(#587,#588,#589,#590));
#131=EDGE_LOOP('',(#591,#592,#593,#594));
#132=EDGE_LOOP('',(#595,#596,#597,#598));
#133=EDGE_LOOP('',(#599,#600,#601,#602));
#134=EDGE_LOOP('',(#603,#604,#605,#606));
#135=EDGE_LOOP('',(#607,#608,#609,#610));
#136=EDGE_LOOP('',(#611,#612,#613,#614));
#137=LINE('',#948,#211);
#138=LINE('',#950,#212);
#139=LINE('',#952,#213);
#140=LINE('',#953,#214);
#141=LINE('',#956,#215);
#142=LINE('',#958,#216);
#143=LINE('',#959,#217);
#144=LINE('',#962,#218);
#145=LINE('',#964,#219);
#146=LINE('',#966,#220);
#147=LINE('',#967,#221);
#148=LINE('',#972,#222);
#149=LINE('',#974,#223);
#150=LINE('',#975,#224);
#151=LINE('',#977,#225);
#152=LINE('',#980,#226);
#153=LINE('',#981,#227);
#154=LINE('',#983,#228);
#155=LINE('',#988,#229);
#156=LINE('',#992,#230);
#157=LINE('',#994,#231);
#158=LINE('',#996,#232);
#159=LINE('',#1000,#233);
#160=LINE('',#1004,#234);
#161=LINE('',#1008,#235);
#162=LINE('',#1012,#236);
#163=LINE('',#1016,#237);
#164=LINE('',#1018,#238);
#165=LINE('',#1020,#239);
#166=LINE('',#1021,#240);
#167=LINE('',#1024,#241);
#168=LINE('',#1026,#242);
#169=LINE('',#1027,#243);
#170=LINE('',#1031,#244);
#171=LINE('',#1035,#245);
#172=LINE('',#1039,#246);
#173=LINE('',#1043,#247);
#174=LINE('',#1047,#248);
#175=LINE('',#1051,#249);
#176=LINE('',#1052,#250);
#177=LINE('',#1054,#251);
#178=LINE('',#1055,#252);
#179=LINE('',#1057,#253);
#180=LINE('',#1061,#254);
#181=LINE('',#1064,#255);
#182=LINE('',#1066,#256);
#183=LINE('',#1067,#257);
#184=LINE('',#1072,#258);
#185=LINE('',#1076,#259);
#186=LINE('',#1077,#260);
#187=LINE('',#1079,#261);
#188=LINE('',#1081,#262);
#189=LINE('',#1082,#263);
#190=LINE('',#1084,#264);
#191=LINE('',#1088,#265);
#192=LINE('',#1090,#266);
#193=LINE('',#1095,#267);
#194=LINE('',#1099,#268);
#195=LINE('',#1100,#269);
#196=LINE('',#1101,#270);
#197=LINE('',#1103,#271);
#198=LINE('',#1105,#272);
#199=LINE('',#1110,#273);
#200=LINE('',#1112,#274);
#201=LINE('',#1114,#275);
#202=LINE('',#1115,#276);
#203=LINE('',#1118,#277);
#204=LINE('',#1120,#278);
#205=LINE('',#1121,#279);
#206=LINE('',#1124,#280);
#207=LINE('',#1126,#281);
#208=LINE('',#1127,#282);
#209=LINE('',#1129,#283);
#210=LINE('',#1130,#284);
#211=VECTOR('',#761,1000.);
#212=VECTOR('',#762,1000.);
#213=VECTOR('',#763,1000.);
#214=VECTOR('',#764,1000.);
#215=VECTOR('',#767,1000.);
#216=VECTOR('',#768,1000.);
#217=VECTOR('',#769,1000.);
#218=VECTOR('',#772,1000.);
#219=VECTOR('',#773,1000.);
#220=VECTOR('',#774,1000.);
#221=VECTOR('',#775,1000.);
#222=VECTOR('',#780,1000.);
#223=VECTOR('',#781,1000.);
#224=VECTOR('',#782,1000.);
#225=VECTOR('',#785,1000.);
#226=VECTOR('',#788,1000.);
#227=VECTOR('',#789,1000.);
#228=VECTOR('',#792,1000.);
#229=VECTOR('',#799,3.);
#230=VECTOR('',#802,10.);
#231=VECTOR('',#803,10.);
#232=VECTOR('',#804,10.);
#233=VECTOR('',#807,10.);
#234=VECTOR('',#810,10.);
#235=VECTOR('',#813,10.);
#236=VECTOR('',#816,10.);
#237=VECTOR('',#819,10.);
#238=VECTOR('',#820,10.);
#239=VECTOR('',#821,10.);
#240=VECTOR('',#822,10.);
#241=VECTOR('',#825,1000.);
#242=VECTOR('',#826,1000.);
#243=VECTOR('',#827,1000.);
#244=VECTOR('',#830,10.);
#245=VECTOR('',#833,10.);
#246=VECTOR('',#836,10.);
#247=VECTOR('',#839,10.);
#248=VECTOR('',#842,10.);
#249=VECTOR('',#845,10.);
#250=VECTOR('',#846,10.);
#251=VECTOR('',#849,10.);
#252=VECTOR('',#850,10.);
#253=VECTOR('',#853,10.);
#254=VECTOR('',#858,10.);
#255=VECTOR('',#861,1000.);
#256=VECTOR('',#862,1000.);
#257=VECTOR('',#863,1000.);
#258=VECTOR('',#868,3.);
#259=VECTOR('',#875,10.);
#260=VECTOR('',#876,10.);
#261=VECTOR('',#879,10.);
#262=VECTOR('',#882,10.);
#263=VECTOR('',#883,10.);
#264=VECTOR('',#886,10.);
#265=VECTOR('',#893,10.);
#266=VECTOR('',#896,10.);
#267=VECTOR('',#903,3.);
#268=VECTOR('',#906,1000.);
#269=VECTOR('',#907,1000.);
#270=VECTOR('',#908,1000.);
#271=VECTOR('',#911,1000.);
#272=VECTOR('',#914,1000.);
#273=VECTOR('',#919,10.);
#274=VECTOR('',#920,10.);
#275=VECTOR('',#921,10.);
#276=VECTOR('',#922,10.);
#277=VECTOR('',#925,10.);
#278=VECTOR('',#926,10.);
#279=VECTOR('',#927,10.);
#280=VECTOR('',#930,10.);
#281=VECTOR('',#931,10.);
#282=VECTOR('',#932,10.);
#283=VECTOR('',#935,10.);
#284=VECTOR('',#936,10.);
#285=VERTEX_POINT('',#946);
#286=VERTEX_POINT('',#947);
#287=VERTEX_POINT('',#949);
#288=VERTEX_POINT('',#951);
#289=VERTEX_POINT('',#955);
#290=VERTEX_POINT('',#957);
#291=VERTEX_POINT('',#961);
#292=VERTEX_POINT('',#963);
#293=VERTEX_POINT('',#965);
#294=VERTEX_POINT('',#968);
#295=VERTEX_POINT('',#971);
#296=VERTEX_POINT('',#973);
#297=VERTEX_POINT('',#979);
#298=VERTEX_POINT('',#985);
#299=VERTEX_POINT('',#990);
#300=VERTEX_POINT('',#991);
#301=VERTEX_POINT('',#993);
#302=VERTEX_POINT('',#995);
#303=VERTEX_POINT('',#997);
#304=VERTEX_POINT('',#999);
#305=VERTEX_POINT('',#1001);
#306=VERTEX_POINT('',#1003);
#307=VERTEX_POINT('',#1005);
#308=VERTEX_POINT('',#1007);
#309=VERTEX_POINT('',#1009);
#310=VERTEX_POINT('',#1011);
#311=VERTEX_POINT('',#1014);
#312=VERTEX_POINT('',#1015);
#313=VERTEX_POINT('',#1017);
#314=VERTEX_POINT('',#1019);
#315=VERTEX_POINT('',#1023);
#316=VERTEX_POINT('',#1025);
#317=VERTEX_POINT('',#1029);
#318=VERTEX_POINT('',#1030);
#319=VERTEX_POINT('',#1032);
#320=VERTEX_POINT('',#1034);
#321=VERTEX_POINT('',#1036);
#322=VERTEX_POINT('',#1038);
#323=VERTEX_POINT('',#1040);
#324=VERTEX_POINT('',#1042);
#325=VERTEX_POINT('',#1044);
#326=VERTEX_POINT('',#1046);
#327=VERTEX_POINT('',#1048);
#328=VERTEX_POINT('',#1050);
#329=VERTEX_POINT('',#1058);
#330=VERTEX_POINT('',#1063);
#331=VERTEX_POINT('',#1065);
#332=VERTEX_POINT('',#1068);
#333=VERTEX_POINT('',#1071);
#334=VERTEX_POINT('',#1093);
#335=VERTEX_POINT('',#1097);
#336=VERTEX_POINT('',#1098);
#337=VERTEX_POINT('',#1108);
#338=VERTEX_POINT('',#1109);
#339=VERTEX_POINT('',#1111);
#340=VERTEX_POINT('',#1113);
#341=VERTEX_POINT('',#1117);
#342=VERTEX_POINT('',#1119);
#343=VERTEX_POINT('',#1123);
#344=VERTEX_POINT('',#1125);
#345=EDGE_CURVE('',#285,#286,#137,.T.);
#346=EDGE_CURVE('',#286,#287,#138,.T.);
#347=EDGE_CURVE('',#288,#287,#139,.T.);
#348=EDGE_CURVE('',#285,#288,#140,.T.);
#349=EDGE_CURVE('',#289,#285,#141,.T.);
#350=EDGE_CURVE('',#289,#290,#142,.T.);
#351=EDGE_CURVE('',#290,#286,#143,.T.);
#352=EDGE_CURVE('',#288,#291,#144,.T.);
#353=EDGE_CURVE('',#291,#292,#145,.T.);
#354=EDGE_CURVE('',#292,#293,#146,.T.);
#355=EDGE_CURVE('',#293,#289,#147,.T.);
#356=EDGE_CURVE('',#294,#294,#39,.T.);
#357=EDGE_CURVE('',#291,#295,#148,.T.);
#358=EDGE_CURVE('',#295,#296,#149,.T.);
#359=EDGE_CURVE('',#292,#296,#150,.T.);
#360=EDGE_CURVE('',#287,#295,#151,.T.);
#361=EDGE_CURVE('',#293,#297,#152,.T.);
#362=EDGE_CURVE('',#297,#290,#153,.T.);
#363=EDGE_CURVE('',#296,#297,#154,.T.);
#364=EDGE_CURVE('',#298,#298,#40,.T.);
#365=EDGE_CURVE('',#294,#298,#155,.T.);
#366=EDGE_CURVE('',#299,#300,#156,.T.);
#367=EDGE_CURVE('',#299,#301,#157,.T.);
#368=EDGE_CURVE('',#301,#302,#158,.T.);
#369=EDGE_CURVE('',#303,#302,#41,.T.);
#370=EDGE_CURVE('',#303,#304,#159,.T.);
#371=EDGE_CURVE('',#305,#304,#42,.T.);
#372=EDGE_CURVE('',#305,#306,#160,.T.);
#373=EDGE_CURVE('',#307,#306,#43,.T.);
#374=EDGE_CURVE('',#308,#307,#161,.T.);
#375=EDGE_CURVE('',#309,#308,#44,.T.);
#376=EDGE_CURVE('',#310,#309,#162,.T.);
#377=EDGE_CURVE('',#300,#310,#45,.T.);
#378=EDGE_CURVE('',#311,#312,#163,.T.);
#379=EDGE_CURVE('',#312,#313,#164,.T.);
#380=EDGE_CURVE('',#313,#314,#165,.T.);
#381=EDGE_CURVE('',#314,#311,#166,.T.);
#382=EDGE_CURVE('',#311,#315,#167,.T.);
#383=EDGE_CURVE('',#315,#316,#168,.T.);
#384=EDGE_CURVE('',#312,#316,#169,.T.);
#385=EDGE_CURVE('',#317,#318,#170,.T.);
#386=EDGE_CURVE('',#319,#318,#46,.T.);
#387=EDGE_CURVE('',#319,#320,#171,.T.);
#388=EDGE_CURVE('',#321,#320,#47,.T.);
#389=EDGE_CURVE('',#321,#322,#172,.T.);
#390=EDGE_CURVE('',#323,#322,#48,.T.);
#391=EDGE_CURVE('',#323,#324,#173,.T.);
#392=EDGE_CURVE('',#325,#324,#49,.T.);
#393=EDGE_CURVE('',#325,#326,#174,.T.);
#394=EDGE_CURVE('',#327,#326,#50,.T.);
#395=EDGE_CURVE('',#328,#327,#175,.T.);
#396=EDGE_CURVE('',#328,#317,#176,.T.);
#397=EDGE_CURVE('',#299,#317,#177,.T.);
#398=EDGE_CURVE('',#318,#300,#178,.T.);
#399=EDGE_CURVE('',#328,#301,#179,.T.);
#400=EDGE_CURVE('',#329,#329,#51,.T.);
#401=EDGE_CURVE('',#302,#327,#180,.T.);
#402=EDGE_CURVE('',#330,#314,#181,.T.);
#403=EDGE_CURVE('',#331,#330,#182,.T.);
#404=EDGE_CURVE('',#315,#331,#183,.T.);
#405=EDGE_CURVE('',#332,#332,#52,.T.);
#406=EDGE_CURVE('',#332,#333,#184,.T.);
#407=EDGE_CURVE('',#333,#333,#53,.T.);
#408=EDGE_CURVE('',#322,#307,#185,.T.);
#409=EDGE_CURVE('',#306,#323,#186,.T.);
#410=EDGE_CURVE('',#308,#321,#187,.T.);
#411=EDGE_CURVE('',#304,#325,#188,.T.);
#412=EDGE_CURVE('',#324,#305,#189,.T.);
#413=EDGE_CURVE('',#326,#303,#190,.T.);
#414=EDGE_CURVE('',#310,#319,#191,.T.);
#415=EDGE_CURVE('',#320,#309,#192,.T.);
#416=EDGE_CURVE('',#334,#334,#54,.T.);
#417=EDGE_CURVE('',#334,#329,#193,.T.);
#418=EDGE_CURVE('',#335,#336,#194,.T.);
#419=EDGE_CURVE('',#336,#313,#195,.T.);
#420=EDGE_CURVE('',#316,#335,#196,.T.);
#421=EDGE_CURVE('',#331,#335,#197,.T.);
#422=EDGE_CURVE('',#330,#336,#198,.T.);
#423=EDGE_CURVE('',#337,#338,#199,.T.);
#424=EDGE_CURVE('',#337,#339,#200,.T.);
#425=EDGE_CURVE('',#340,#339,#201,.T.);
#426=EDGE_CURVE('',#338,#340,#202,.T.);
#427=EDGE_CURVE('',#338,#341,#203,.T.);
#428=EDGE_CURVE('',#342,#340,#204,.T.);
#429=EDGE_CURVE('',#341,#342,#205,.T.);
#430=EDGE_CURVE('',#341,#343,#206,.T.);
#431=EDGE_CURVE('',#344,#342,#207,.T.);
#432=EDGE_CURVE('',#343,#344,#208,.T.);
#433=EDGE_CURVE('',#343,#337,#209,.T.);
#434=EDGE_CURVE('',#339,#344,#210,.T.);
#435=ORIENTED_EDGE('',*,*,#345,.T.);
#436=ORIENTED_EDGE('',*,*,#346,.T.);
#437=ORIENTED_EDGE('',*,*,#347,.F.);
#438=ORIENTED_EDGE('',*,*,#348,.F.);
#439=ORIENTED_EDGE('',*,*,#345,.F.);
#440=ORIENTED_EDGE('',*,*,#349,.F.);
#441=ORIENTED_EDGE('',*,*,#350,.T.);
#442=ORIENTED_EDGE('',*,*,#351,.T.);
#443=ORIENTED_EDGE('',*,*,#349,.T.);
#444=ORIENTED_EDGE('',*,*,#348,.T.);
#445=ORIENTED_EDGE('',*,*,#352,.T.);
#446=ORIENTED_EDGE('',*,*,#353,.T.);
#447=ORIENTED_EDGE('',*,*,#354,.T.);
#448=ORIENTED_EDGE('',*,*,#355,.T.);
#449=ORIENTED_EDGE('',*,*,#356,.F.);
#450=ORIENTED_EDGE('',*,*,#353,.F.);
#451=ORIENTED_EDGE('',*,*,#357,.T.);
#452=ORIENTED_EDGE('',*,*,#358,.T.);
#453=ORIENTED_EDGE('',*,*,#359,.F.);
#454=ORIENTED_EDGE('',*,*,#352,.F.);
#455=ORIENTED_EDGE('',*,*,#347,.T.);
#456=ORIENTED_EDGE('',*,*,#360,.T.);
#457=ORIENTED_EDGE('',*,*,#357,.F.);
#458=ORIENTED_EDGE('',*,*,#350,.F.);
#459=ORIENTED_EDGE('',*,*,#355,.F.);
#460=ORIENTED_EDGE('',*,*,#361,.T.);
#461=ORIENTED_EDGE('',*,*,#362,.T.);
#462=ORIENTED_EDGE('',*,*,#361,.F.);
#463=ORIENTED_EDGE('',*,*,#354,.F.);
#464=ORIENTED_EDGE('',*,*,#359,.T.);
#465=ORIENTED_EDGE('',*,*,#363,.T.);
#466=ORIENTED_EDGE('',*,*,#351,.F.);
#467=ORIENTED_EDGE('',*,*,#362,.F.);
#468=ORIENTED_EDGE('',*,*,#363,.F.);
#469=ORIENTED_EDGE('',*,*,#358,.F.);
#470=ORIENTED_EDGE('',*,*,#360,.F.);
#471=ORIENTED_EDGE('',*,*,#346,.F.);
#472=ORIENTED_EDGE('',*,*,#364,.F.);
#473=ORIENTED_EDGE('',*,*,#356,.T.);
#474=ORIENTED_EDGE('',*,*,#365,.T.);
#475=ORIENTED_EDGE('',*,*,#364,.T.);
#476=ORIENTED_EDGE('',*,*,#365,.F.);
#477=ORIENTED_EDGE('',*,*,#366,.F.);
#478=ORIENTED_EDGE('',*,*,#367,.T.);
#479=ORIENTED_EDGE('',*,*,#368,.T.);
#480=ORIENTED_EDGE('',*,*,#369,.F.);
#481=ORIENTED_EDGE('',*,*,#370,.T.);
#482=ORIENTED_EDGE('',*,*,#371,.F.);
#483=ORIENTED_EDGE('',*,*,#372,.T.);
#484=ORIENTED_EDGE('',*,*,#373,.F.);
#485=ORIENTED_EDGE('',*,*,#374,.F.);
#486=ORIENTED_EDGE('',*,*,#375,.F.);
#487=ORIENTED_EDGE('',*,*,#376,.F.);
#488=ORIENTED_EDGE('',*,*,#377,.F.);
#489=ORIENTED_EDGE('',*,*,#378,.T.);
#490=ORIENTED_EDGE('',*,*,#379,.T.);
#491=ORIENTED_EDGE('',*,*,#380,.T.);
#492=ORIENTED_EDGE('',*,*,#381,.T.);
#493=ORIENTED_EDGE('',*,*,#382,.T.);
#494=ORIENTED_EDGE('',*,*,#383,.T.);
#495=ORIENTED_EDGE('',*,*,#384,.F.);
#496=ORIENTED_EDGE('',*,*,#378,.F.);
#497=ORIENTED_EDGE('',*,*,#385,.T.);
#498=ORIENTED_EDGE('',*,*,#386,.F.);
#499=ORIENTED_EDGE('',*,*,#387,.T.);
#500=ORIENTED_EDGE('',*,*,#388,.F.);
#501=ORIENTED_EDGE('',*,*,#389,.T.);
#502=ORIENTED_EDGE('',*,*,#390,.F.);
#503=ORIENTED_EDGE('',*,*,#391,.T.);
#504=ORIENTED_EDGE('',*,*,#392,.F.);
#505=ORIENTED_EDGE('',*,*,#393,.T.);
#506=ORIENTED_EDGE('',*,*,#394,.F.);
#507=ORIENTED_EDGE('',*,*,#395,.F.);
#508=ORIENTED_EDGE('',*,*,#396,.T.);
#509=ORIENTED_EDGE('',*,*,#385,.F.);
#510=ORIENTED_EDGE('',*,*,#397,.F.);
#511=ORIENTED_EDGE('',*,*,#366,.T.);
#512=ORIENTED_EDGE('',*,*,#398,.F.);
#513=ORIENTED_EDGE('',*,*,#396,.F.);
#514=ORIENTED_EDGE('',*,*,#399,.T.);
#515=ORIENTED_EDGE('',*,*,#367,.F.);
#516=ORIENTED_EDGE('',*,*,#397,.T.);
#517=ORIENTED_EDGE('',*,*,#400,.T.);
#518=ORIENTED_EDGE('',*,*,#368,.F.);
#519=ORIENTED_EDGE('',*,*,#399,.F.);
#520=ORIENTED_EDGE('',*,*,#395,.T.);
#521=ORIENTED_EDGE('',*,*,#401,.F.);
#522=ORIENTED_EDGE('',*,*,#402,.F.);
#523=ORIENTED_EDGE('',*,*,#403,.F.);
#524=ORIENTED_EDGE('',*,*,#404,.F.);
#525=ORIENTED_EDGE('',*,*,#382,.F.);
#526=ORIENTED_EDGE('',*,*,#381,.F.);
#527=ORIENTED_EDGE('',*,*,#405,.T.);
#528=ORIENTED_EDGE('',*,*,#405,.F.);
#529=ORIENTED_EDGE('',*,*,#406,.T.);
#530=ORIENTED_EDGE('',*,*,#407,.T.);
#531=ORIENTED_EDGE('',*,*,#406,.F.);
#532=ORIENTED_EDGE('',*,*,#407,.F.);
#533=ORIENTED_EDGE('',*,*,#390,.T.);
#534=ORIENTED_EDGE('',*,*,#408,.T.);
#535=ORIENTED_EDGE('',*,*,#373,.T.);
#536=ORIENTED_EDGE('',*,*,#409,.T.);
#537=ORIENTED_EDGE('',*,*,#408,.F.);
#538=ORIENTED_EDGE('',*,*,#389,.F.);
#539=ORIENTED_EDGE('',*,*,#410,.F.);
#540=ORIENTED_EDGE('',*,*,#374,.T.);
#541=ORIENTED_EDGE('',*,*,#371,.T.);
#542=ORIENTED_EDGE('',*,*,#411,.T.);
#543=ORIENTED_EDGE('',*,*,#392,.T.);
#544=ORIENTED_EDGE('',*,*,#412,.T.);
#545=ORIENTED_EDGE('',*,*,#411,.F.);
#546=ORIENTED_EDGE('',*,*,#370,.F.);
#547=ORIENTED_EDGE('',*,*,#413,.F.);
#548=ORIENTED_EDGE('',*,*,#393,.F.);
#549=ORIENTED_EDGE('',*,*,#394,.T.);
#550=ORIENTED_EDGE('',*,*,#413,.T.);
#551=ORIENTED_EDGE('',*,*,#369,.T.);
#552=ORIENTED_EDGE('',*,*,#401,.T.);
#553=ORIENTED_EDGE('',*,*,#409,.F.);
#554=ORIENTED_EDGE('',*,*,#372,.F.);
#555=ORIENTED_EDGE('',*,*,#412,.F.);
#556=ORIENTED_EDGE('',*,*,#391,.F.);
#557=ORIENTED_EDGE('',*,*,#377,.T.);
#558=ORIENTED_EDGE('',*,*,#414,.T.);
#559=ORIENTED_EDGE('',*,*,#386,.T.);
#560=ORIENTED_EDGE('',*,*,#398,.T.);
#561=ORIENTED_EDGE('',*,*,#414,.F.);
#562=ORIENTED_EDGE('',*,*,#376,.T.);
#563=ORIENTED_EDGE('',*,*,#415,.F.);
#564=ORIENTED_EDGE('',*,*,#387,.F.);
#565=ORIENTED_EDGE('',*,*,#388,.T.);
#566=ORIENTED_EDGE('',*,*,#415,.T.);
#567=ORIENTED_EDGE('',*,*,#375,.T.);
#568=ORIENTED_EDGE('',*,*,#410,.T.);
#569=ORIENTED_EDGE('',*,*,#416,.F.);
#570=ORIENTED_EDGE('',*,*,#417,.T.);
#571=ORIENTED_EDGE('',*,*,#400,.F.);
#572=ORIENTED_EDGE('',*,*,#417,.F.);
#573=ORIENTED_EDGE('',*,*,#418,.T.);
#574=ORIENTED_EDGE('',*,*,#419,.T.);
#575=ORIENTED_EDGE('',*,*,#379,.F.);
#576=ORIENTED_EDGE('',*,*,#384,.T.);
#577=ORIENTED_EDGE('',*,*,#420,.T.);
#578=ORIENTED_EDGE('',*,*,#416,.T.);
#579=ORIENTED_EDGE('',*,*,#421,.T.);
#580=ORIENTED_EDGE('',*,*,#420,.F.);
#581=ORIENTED_EDGE('',*,*,#383,.F.);
#582=ORIENTED_EDGE('',*,*,#404,.T.);
#583=ORIENTED_EDGE('',*,*,#422,.T.);
#584=ORIENTED_EDGE('',*,*,#418,.F.);
#585=ORIENTED_EDGE('',*,*,#421,.F.);
#586=ORIENTED_EDGE('',*,*,#403,.T.);
#587=ORIENTED_EDGE('',*,*,#419,.F.);
#588=ORIENTED_EDGE('',*,*,#422,.F.);
#589=ORIENTED_EDGE('',*,*,#402,.T.);
#590=ORIENTED_EDGE('',*,*,#380,.F.);
#591=ORIENTED_EDGE('',*,*,#423,.F.);
#592=ORIENTED_EDGE('',*,*,#424,.T.);
#593=ORIENTED_EDGE('',*,*,#425,.F.);
#594=ORIENTED_EDGE('',*,*,#426,.F.);
#595=ORIENTED_EDGE('',*,*,#427,.F.);
#596=ORIENTED_EDGE('',*,*,#426,.T.);
#597=ORIENTED_EDGE('',*,*,#428,.F.);
#598=ORIENTED_EDGE('',*,*,#429,.F.);
#599=ORIENTED_EDGE('',*,*,#430,.F.);
#600=ORIENTED_EDGE('',*,*,#429,.T.);
#601=ORIENTED_EDGE('',*,*,#431,.F.);
#602=ORIENTED_EDGE('',*,*,#432,.F.);
#603=ORIENTED_EDGE('',*,*,#433,.F.);
#604=ORIENTED_EDGE('',*,*,#432,.T.);
#605=ORIENTED_EDGE('',*,*,#434,.F.);
#606=ORIENTED_EDGE('',*,*,#424,.F.);
#607=ORIENTED_EDGE('',*,*,#434,.T.);
#608=ORIENTED_EDGE('',*,*,#431,.T.);
#609=ORIENTED_EDGE('',*,*,#428,.T.);
#610=ORIENTED_EDGE('',*,*,#425,.T.);
#611=ORIENTED_EDGE('',*,*,#433,.T.);
#612=ORIENTED_EDGE('',*,*,#423,.T.);
#613=ORIENTED_EDGE('',*,*,#427,.T.);
#614=ORIENTED_EDGE('',*,*,#430,.T.);
#615=PLANE('',#700);
#616=PLANE('',#701);
#617=PLANE('',#702);
#618=PLANE('',#704);
#619=PLANE('',#705);
#620=PLANE('',#706);
#621=PLANE('',#707);
#622=PLANE('',#708);
#623=PLANE('',#711);
#624=PLANE('',#717);
#625=PLANE('',#718);
#626=PLANE('',#724);
#627=PLANE('',#725);
#628=PLANE('',#727);
#629=PLANE('',#728);
#630=PLANE('',#732);
#631=PLANE('',#734);
#632=PLANE('',#736);
#633=PLANE('',#738);
#634=PLANE('',#740);
#635=PLANE('',#744);
#636=PLANE('',#745);
#637=PLANE('',#746);
#638=PLANE('',#747);
#639=PLANE('',#748);
#640=PLANE('',#749);
#641=PLANE('',#750);
#642=PLANE('',#751);
#643=PLANE('',#752);
#644=PLANE('',#753);
#645=ADVANCED_FACE('',(#55),#615,.F.);
#646=ADVANCED_FACE('',(#56),#616,.F.);
#647=ADVANCED_FACE('',(#57,#33),#617,.T.);
#648=ADVANCED_FACE('',(#58),#618,.F.);
#649=ADVANCED_FACE('',(#59),#619,.F.);
#650=ADVANCED_FACE('',(#60),#620,.F.);
#651=ADVANCED_FACE('',(#61),#621,.F.);
#652=ADVANCED_FACE('',(#62,#34),#622,.F.);
#653=ADVANCED_FACE('',(#63),#25,.F.);
#654=ADVANCED_FACE('',(#64,#35),#623,.T.);
#655=ADVANCED_FACE('',(#65),#624,.T.);
#656=ADVANCED_FACE('',(#66),#625,.T.);
#657=ADVANCED_FACE('',(#67),#626,.T.);
#658=ADVANCED_FACE('',(#68,#36),#627,.F.);
#659=ADVANCED_FACE('',(#69),#628,.T.);
#660=ADVANCED_FACE('',(#70,#37),#629,.F.);
#661=ADVANCED_FACE('',(#71),#26,.F.);
#662=ADVANCED_FACE('',(#72),#630,.F.);
#663=ADVANCED_FACE('',(#73),#27,.T.);
#664=ADVANCED_FACE('',(#74),#631,.T.);
#665=ADVANCED_FACE('',(#75),#28,.F.);
#666=ADVANCED_FACE('',(#76),#632,.T.);
#667=ADVANCED_FACE('',(#77),#29,.F.);
#668=ADVANCED_FACE('',(#78),#633,.T.);
#669=ADVANCED_FACE('',(#79),#30,.T.);
#670=ADVANCED_FACE('',(#80),#634,.T.);
#671=ADVANCED_FACE('',(#81),#31,.T.);
#672=ADVANCED_FACE('',(#82),#32,.F.);
#673=ADVANCED_FACE('',(#83,#38),#635,.T.);
#674=ADVANCED_FACE('',(#84),#636,.T.);
#675=ADVANCED_FACE('',(#85),#637,.T.);
#676=ADVANCED_FACE('',(#86),#638,.T.);
#677=ADVANCED_FACE('',(#87),#639,.T.);
#678=ADVANCED_FACE('',(#88),#640,.T.);
#679=ADVANCED_FACE('',(#89),#641,.T.);
#680=ADVANCED_FACE('',(#90),#642,.T.);
#681=ADVANCED_FACE('',(#91),#643,.T.);
#682=ADVANCED_FACE('',(#92),#644,.F.);
#683=CLOSED_SHELL('',(#645,#646,#647,#648,#649,#650,#651,#652,#653));
#684=CLOSED_SHELL('',(#654,#655,#656,#657,#658,#659,#660,#661,#662,#663,
#664,#665,#666,#667,#668,#669,#670,#671,#672,#673,#674,#675,#676));
#685=CLOSED_SHELL('',(#677,#678,#679,#680,#681,#682));
#686=DERIVED_UNIT_ELEMENT(#688,1.);
#687=DERIVED_UNIT_ELEMENT(#1141,-3.);
#688=(
MASS_UNIT()
NAMED_UNIT(*)
SI_UNIT(.KILO.,.GRAM.)
);
#689=DERIVED_UNIT((#686,#687));
#690=MEASURE_REPRESENTATION_ITEM('density measure',
POSITIVE_RATIO_MEASURE(7850.),#689);
#691=PROPERTY_DEFINITION_REPRESENTATION(#696,#693);
#692=PROPERTY_DEFINITION_REPRESENTATION(#697,#694);
#693=REPRESENTATION('material name',(#695),#1138);
#694=REPRESENTATION('density',(#690),#1138);
#695=DESCRIPTIVE_REPRESENTATION_ITEM('Steel','Steel');
#696=PROPERTY_DEFINITION('material property','material name',#1153);
#697=PROPERTY_DEFINITION('material property','density of part',#1153);
#698=AXIS2_PLACEMENT_3D('',#943,#755,#756);
#699=AXIS2_PLACEMENT_3D('',#944,#757,#758);
#700=AXIS2_PLACEMENT_3D('',#945,#759,#760);
#701=AXIS2_PLACEMENT_3D('',#954,#765,#766);
#702=AXIS2_PLACEMENT_3D('',#960,#770,#771);
#703=AXIS2_PLACEMENT_3D('',#969,#776,#777);
#704=AXIS2_PLACEMENT_3D('',#970,#778,#779);
#705=AXIS2_PLACEMENT_3D('',#976,#783,#784);
#706=AXIS2_PLACEMENT_3D('',#978,#786,#787);
#707=AXIS2_PLACEMENT_3D('',#982,#790,#791);
#708=AXIS2_PLACEMENT_3D('',#984,#793,#794);
#709=AXIS2_PLACEMENT_3D('',#986,#795,#796);
#710=AXIS2_PLACEMENT_3D('',#987,#797,#798);
#711=AXIS2_PLACEMENT_3D('',#989,#800,#801);
#712=AXIS2_PLACEMENT_3D('',#998,#805,#806);
#713=AXIS2_PLACEMENT_3D('',#1002,#808,#809);
#714=AXIS2_PLACEMENT_3D('',#1006,#811,#812);
#715=AXIS2_PLACEMENT_3D('',#1010,#814,#815);
#716=AXIS2_PLACEMENT_3D('',#1013,#817,#818);
#717=AXIS2_PLACEMENT_3D('',#1022,#823,#824);
#718=AXIS2_PLACEMENT_3D('',#1028,#828,#829);
#719=AXIS2_PLACEMENT_3D('',#1033,#831,#832);
#720=AXIS2_PLACEMENT_3D('',#1037,#834,#835);
#721=AXIS2_PLACEMENT_3D('',#1041,#837,#838);
#722=AXIS2_PLACEMENT_3D('',#1045,#840,#841);
#723=AXIS2_PLACEMENT_3D('',#1049,#843,#844);
#724=AXIS2_PLACEMENT_3D('',#1053,#847,#848);
#725=AXIS2_PLACEMENT_3D('',#1056,#851,#852);
#726=AXIS2_PLACEMENT_3D('',#1059,#854,#855);
#727=AXIS2_PLACEMENT_3D('',#1060,#856,#857);
#728=AXIS2_PLACEMENT_3D('',#1062,#859,#860);
#729=AXIS2_PLACEMENT_3D('',#1069,#864,#865);
#730=AXIS2_PLACEMENT_3D('',#1070,#866,#867);
#731=AXIS2_PLACEMENT_3D('',#1073,#869,#870);
#732=AXIS2_PLACEMENT_3D('',#1074,#871,#872);
#733=AXIS2_PLACEMENT_3D('',#1075,#873,#874);
#734=AXIS2_PLACEMENT_3D('',#1078,#877,#878);
#735=AXIS2_PLACEMENT_3D('',#1080,#880,#881);
#736=AXIS2_PLACEMENT_3D('',#1083,#884,#885);
#737=AXIS2_PLACEMENT_3D('',#1085,#887,#888);
#738=AXIS2_PLACEMENT_3D('',#1086,#889,#890);
#739=AXIS2_PLACEMENT_3D('',#1087,#891,#892);
#740=AXIS2_PLACEMENT_3D('',#1089,#894,#895);
#741=AXIS2_PLACEMENT_3D('',#1091,#897,#898);
#742=AXIS2_PLACEMENT_3D('',#1092,#899,#900);
#743=AXIS2_PLACEMENT_3D('',#1094,#901,#902);
#744=AXIS2_PLACEMENT_3D('',#1096,#904,#905);
#745=AXIS2_PLACEMENT_3D('',#1102,#909,#910);
#746=AXIS2_PLACEMENT_3D('',#1104,#912,#913);
#747=AXIS2_PLACEMENT_3D('',#1106,#915,#916);
#748=AXIS2_PLACEMENT_3D('',#1107,#917,#918);
#749=AXIS2_PLACEMENT_3D('',#1116,#923,#924);
#750=AXIS2_PLACEMENT_3D('',#1122,#928,#929);
#751=AXIS2_PLACEMENT_3D('',#1128,#933,#934);
#752=AXIS2_PLACEMENT_3D('',#1131,#937,#938);
#753=AXIS2_PLACEMENT_3D('',#1132,#939,#940);
#754=AXIS2_PLACEMENT_3D('',#1133,#941,#942);
#755=DIRECTION('axis',(0.,0.,1.));
#756=DIRECTION('refdir',(1.,0.,0.));
#757=DIRECTION('axis',(0.,0.,1.));
#758=DIRECTION('refdir',(1.,0.,0.));
#759=DIRECTION('center_axis',(1.,-5.55111512312578E-17,0.));
#760=DIRECTION('ref_axis',(0.,0.,-1.));
#761=DIRECTION('',(0.,0.,-1.));
#762=DIRECTION('',(-5.55111512312578E-17,-1.,0.));
#763=DIRECTION('',(0.,0.,-1.));
#764=DIRECTION('',(-5.55111512312578E-17,-1.,0.));
#765=DIRECTION('center_axis',(0.499999999999999,-0.866025403784439,0.));
#766=DIRECTION('ref_axis',(0.866025403784439,0.499999999999999,0.));
#767=DIRECTION('',(-0.866025403784439,-0.499999999999999,0.));
#768=DIRECTION('',(0.,0.,-1.));
#769=DIRECTION('',(-0.866025403784439,-0.499999999999999,0.));
#770=DIRECTION('center_axis',(0.,0.,1.));
#771=DIRECTION('ref_axis',(1.,-5.55111512312578E-17,0.));
#772=DIRECTION('',(0.866025403784439,-0.5,0.));
#773=DIRECTION('',(0.866025403784439,0.5,0.));
#774=DIRECTION('',(-5.45414688263605E-16,1.,0.));
#775=DIRECTION('',(-0.866025403784439,0.5,0.));
#776=DIRECTION('center_axis',(0.,0.,1.));
#777=DIRECTION('ref_axis',(-1.,5.55111512312578E-17,0.));
#778=DIRECTION('center_axis',(-0.5,0.866025403784439,0.));
#779=DIRECTION('ref_axis',(-0.866025403784439,-0.5,0.));
#780=DIRECTION('',(0.,0.,-1.));
#781=DIRECTION('',(0.866025403784439,0.5,0.));
#782=DIRECTION('',(0.,0.,-1.));
#783=DIRECTION('center_axis',(0.5,0.866025403784439,0.));
#784=DIRECTION('ref_axis',(-0.866025403784439,0.5,0.));
#785=DIRECTION('',(0.866025403784439,-0.5,0.));
#786=DIRECTION('center_axis',(-0.5,-0.866025403784439,0.));
#787=DIRECTION('ref_axis',(0.866025403784439,-0.5,0.));
#788=DIRECTION('',(0.,0.,-1.));
#789=DIRECTION('',(-0.866025403784439,0.5,0.));
#790=DIRECTION('center_axis',(-1.,-5.45414688263605E-16,0.));
#791=DIRECTION('ref_axis',(5.45414688263605E-16,-1.,0.));
#792=DIRECTION('',(-5.45414688263605E-16,1.,0.));
#793=DIRECTION('center_axis',(0.,0.,1.));
#794=DIRECTION('ref_axis',(1.,-5.55111512312578E-17,0.));
#795=DIRECTION('center_axis',(0.,0.,-1.));
#796=DIRECTION('ref_axis',(-1.,5.55111512312578E-17,0.));
#797=DIRECTION('center_axis',(0.,0.,-1.));
#798=DIRECTION('ref_axis',(-1.,5.55111512312578E-17,0.));
#799=DIRECTION('',(0.,0.,-1.));
#800=DIRECTION('center_axis',(0.,-1.,0.));
#801=DIRECTION('ref_axis',(1.,0.,0.));
#802=DIRECTION('',(0.,0.,1.));
#803=DIRECTION('',(1.,0.,0.));
#804=DIRECTION('',(0.,0.,1.));
#805=DIRECTION('center_axis',(0.,-1.,0.));
#806=DIRECTION('ref_axis',(-0.707106781186547,0.,0.707106781186547));
#807=DIRECTION('',(1.,0.,0.));
#808=DIRECTION('center_axis',(0.,-1.,0.));
#809=DIRECTION('ref_axis',(0.707106781186547,0.,0.707106781186547));
#810=DIRECTION('',(0.,0.,-1.));
#811=DIRECTION('center_axis',(0.,1.,0.));
#812=DIRECTION('ref_axis',(-0.707106781186547,0.,-0.707106781186548));
#813=DIRECTION('',(0.,0.,-1.));
#814=DIRECTION('center_axis',(0.,1.,0.));
#815=DIRECTION('ref_axis',(0.707106781186548,0.,0.707106781186548));
#816=DIRECTION('',(1.,0.,0.));
#817=DIRECTION('center_axis',(0.,1.,0.));
#818=DIRECTION('ref_axis',(-0.707106781186548,0.,0.707106781186548));
#819=DIRECTION('',(0.,0.,-1.));
#820=DIRECTION('',(-1.,0.,0.));
#821=DIRECTION('',(0.,0.,1.));
#822=DIRECTION('',(1.,0.,0.));
#823=DIRECTION('center_axis',(-1.,-5.45414688263605E-16,0.));
#824=DIRECTION('ref_axis',(5.45414688263605E-16,-1.,0.));
#825=DIRECTION('',(-5.45414688263605E-16,1.,0.));
#826=DIRECTION('',(0.,0.,-1.));
#827=DIRECTION('',(-5.45414688263605E-16,1.,0.));
#828=DIRECTION('center_axis',(-2.22044604925031E-16,1.,0.));
#829=DIRECTION('ref_axis',(-1.,-2.22044604925031E-16,0.));
#830=DIRECTION('',(0.,0.,1.));
#831=DIRECTION('center_axis',(2.22044604925031E-16,-1.,0.));
#832=DIRECTION('ref_axis',(-0.707106781186548,0.,0.707106781186548));
#833=DIRECTION('',(1.,0.,0.));
#834=DIRECTION('center_axis',(2.22044604925031E-16,-1.,0.));
#835=DIRECTION('ref_axis',(0.707106781186548,0.,0.707106781186548));
#836=DIRECTION('',(0.,0.,-1.));
#837=DIRECTION('center_axis',(2.22044604925031E-16,-1.,0.));
#838=DIRECTION('ref_axis',(-0.707106781186547,0.,-0.707106781186548));
#839=DIRECTION('',(0.,0.,1.));
#840=DIRECTION('center_axis',(-2.22044604925031E-16,1.,0.));
#841=DIRECTION('ref_axis',(0.707106781186547,0.,0.707106781186547));
#842=DIRECTION('',(-1.,0.,0.));
#843=DIRECTION('center_axis',(-2.22044604925031E-16,1.,0.));
#844=DIRECTION('ref_axis',(-0.707106781186547,0.,0.707106781186547));
#845=DIRECTION('',(0.,0.,1.));
#846=DIRECTION('',(-1.,-2.22044604925031E-16,0.));
#847=DIRECTION('center_axis',(-1.,0.,0.));
#848=DIRECTION('ref_axis',(0.,-1.,0.));
#849=DIRECTION('',(0.,1.,0.));
#850=DIRECTION('',(0.,-1.,0.));
#851=DIRECTION('center_axis',(0.,0.,1.));
#852=DIRECTION('ref_axis',(1.,0.,0.));
#853=DIRECTION('',(0.,-1.,0.));
#854=DIRECTION('center_axis',(0.,0.,1.));
#855=DIRECTION('ref_axis',(-1.,5.55111512312578E-17,0.));
#856=DIRECTION('center_axis',(1.,0.,0.));
#857=DIRECTION('ref_axis',(0.,1.,0.));
#858=DIRECTION('',(0.,1.,0.));
#859=DIRECTION('center_axis',(0.,0.,1.));
#860=DIRECTION('ref_axis',(1.,-5.55111512312578E-17,0.));
#861=DIRECTION('',(-5.55111512312578E-17,-1.,0.));
#862=DIRECTION('',(-0.866025403784439,-0.499999999999999,0.));
#863=DIRECTION('',(-0.866025403784439,0.5,0.));
#864=DIRECTION('center_axis',(0.,0.,1.));
#865=DIRECTION('ref_axis',(-1.,5.55111512312578E-17,0.));
#866=DIRECTION('center_axis',(0.,0.,1.));
#867=DIRECTION('ref_axis',(-1.,5.55111512312578E-17,0.));
#868=DIRECTION('',(0.,0.,1.));
#869=DIRECTION('center_axis',(0.,0.,1.));
#870=DIRECTION('ref_axis',(-1.,5.55111512312578E-17,0.));
#871=DIRECTION('center_axis',(0.,0.,1.));
#872=DIRECTION('ref_axis',(1.,0.,0.));
#873=DIRECTION('center_axis',(0.,1.,0.));
#874=DIRECTION('ref_axis',(0.707106781186547,0.,-0.707106781186547));
#875=DIRECTION('',(0.,-1.,0.));
#876=DIRECTION('',(0.,1.,0.));
#877=DIRECTION('center_axis',(1.,0.,0.));
#878=DIRECTION('ref_axis',(0.,0.,-1.));
#879=DIRECTION('',(0.,1.,0.));
#880=DIRECTION('center_axis',(0.,1.,0.));
#881=DIRECTION('ref_axis',(0.707106781186547,0.,0.707106781186547));
#882=DIRECTION('',(0.,1.,0.));
#883=DIRECTION('',(0.,-1.,0.));
#884=DIRECTION('center_axis',(0.,0.,-1.));
#885=DIRECTION('ref_axis',(-1.,0.,0.));
#886=DIRECTION('',(0.,-1.,0.));
#887=DIRECTION('center_axis',(0.,-1.,0.));
#888=DIRECTION('ref_axis',(-0.707106781186547,0.,0.707106781186547));
#889=DIRECTION('center_axis',(-1.,0.,0.));
#890=DIRECTION('ref_axis',(0.,0.,1.));
#891=DIRECTION('center_axis',(0.,-1.,0.));
#892=DIRECTION('ref_axis',(-0.707106781186548,0.,0.707106781186548));
#893=DIRECTION('',(0.,1.,0.));
#894=DIRECTION('center_axis',(0.,0.,1.));
#895=DIRECTION('ref_axis',(1.,0.,0.));
#896=DIRECTION('',(0.,-1.,0.));
#897=DIRECTION('center_axis',(0.,1.,0.));
#898=DIRECTION('ref_axis',(0.707106781186548,0.,0.707106781186548));
#899=DIRECTION('center_axis',(0.,0.,-1.));
#900=DIRECTION('ref_axis',(-1.,5.55111512312578E-17,0.));
#901=DIRECTION('center_axis',(0.,0.,-1.));
#902=DIRECTION('ref_axis',(-1.,5.55111512312578E-17,0.));
#903=DIRECTION('',(0.,0.,-1.));
#904=DIRECTION('center_axis',(0.,0.,1.));
#905=DIRECTION('ref_axis',(1.,-5.55111512312578E-17,0.));
#906=DIRECTION('',(-0.866025403784439,-0.499999999999999,0.));
#907=DIRECTION('',(-5.55111512312578E-17,-1.,0.));
#908=DIRECTION('',(-0.866025403784439,0.5,0.));
#909=DIRECTION('center_axis',(-0.5,-0.866025403784439,0.));
#910=DIRECTION('ref_axis',(0.866025403784439,-0.5,0.));
#911=DIRECTION('',(0.,0.,-1.));
#912=DIRECTION('center_axis',(0.499999999999999,-0.866025403784439,0.));
#913=DIRECTION('ref_axis',(0.866025403784439,0.499999999999999,0.));
#914=DIRECTION('',(0.,0.,-1.));
#915=DIRECTION('center_axis',(1.,-5.55111512312578E-17,0.));
#916=DIRECTION('ref_axis',(0.,0.,-1.));
#917=DIRECTION('center_axis',(1.,0.,0.));
#918=DIRECTION('ref_axis',(0.,-1.,1.22464679914735E-16));
#919=DIRECTION('',(0.,1.,-1.22464679914735E-16));
#920=DIRECTION('',(0.,-1.22464679914735E-16,-1.));
#921=DIRECTION('',(0.,-1.,1.22464679914735E-16));
#922=DIRECTION('',(0.,-1.22464679914735E-16,-1.));
#923=DIRECTION('center_axis',(0.,1.,-1.22464679914735E-16));
#924=DIRECTION('ref_axis',(1.,0.,0.));
#925=DIRECTION('',(-1.,0.,0.));
#926=DIRECTION('',(1.,0.,0.));
#927=DIRECTION('',(0.,-1.22464679914735E-16,-1.));
#928=DIRECTION('center_axis',(-1.,0.,0.));
#929=DIRECTION('ref_axis',(0.,1.,-1.22464679914735E-16));
#930=DIRECTION('',(0.,-1.,1.22464679914735E-16));
#931=DIRECTION('',(0.,1.,-1.22464679914735E-16));
#932=DIRECTION('',(0.,-1.22464679914735E-16,-1.));
#933=DIRECTION('center_axis',(2.96059473233375E-16,-1.,1.22464679914735E-16));
#934=DIRECTION('ref_axis',(-1.,-2.96059473233375E-16,3.62568286252504E-32));
#935=DIRECTION('',(1.,2.96059473233375E-16,-3.62568286252504E-32));
#936=DIRECTION('',(-1.,-2.96059473233375E-16,3.62568286252504E-32));
#937=DIRECTION('center_axis',(0.,-1.22464679914735E-16,-1.));
#938=DIRECTION('ref_axis',(-1.,0.,0.));
#939=DIRECTION('center_axis',(0.,-1.22464679914735E-16,-1.));
#940=DIRECTION('ref_axis',(1.,0.,0.));
#941=DIRECTION('',(0.,0.,1.));
#942=DIRECTION('',(1.,0.,0.));
#943=CARTESIAN_POINT('',(0.,0.,0.));
#944=CARTESIAN_POINT('',(0.,0.,0.));
#945=CARTESIAN_POINT('Origin',(-5.,2.88675134594812,11.));
#946=CARTESIAN_POINT('',(-5.,2.88675134594812,11.));
#947=CARTESIAN_POINT('',(-5.,2.88675134594812,5.));
#948=CARTESIAN_POINT('',(-5.,2.88675134594812,11.));
#949=CARTESIAN_POINT('',(-5.,-2.88675134594814,5.));
#950=CARTESIAN_POINT('',(-5.,2.88675134594812,5.));
#951=CARTESIAN_POINT('',(-5.,-2.88675134594814,11.));
#952=CARTESIAN_POINT('',(-5.,-2.88675134594814,11.));
#953=CARTESIAN_POINT('',(-5.,2.88675134594812,11.));
#954=CARTESIAN_POINT('Origin',(1.04096784932222E-15,5.77350269189624,11.));
#955=CARTESIAN_POINT('',(8.75605293376505E-16,5.77350269189624,11.));
#956=CARTESIAN_POINT('',(1.04096784932222E-15,5.77350269189624,11.));
#957=CARTESIAN_POINT('',(5.55111512312578E-16,5.77350269189624,5.));
#958=CARTESIAN_POINT('',(1.04096784932222E-15,5.77350269189624,11.));
#959=CARTESIAN_POINT('',(1.04096784932222E-15,5.77350269189624,5.));
#960=CARTESIAN_POINT('Origin',(0.,0.,11.));
#961=CARTESIAN_POINT('',(-2.54093983031424E-15,-5.77350269189627,11.));
#962=CARTESIAN_POINT('',(-5.,-2.88675134594814,11.));
#963=CARTESIAN_POINT('',(5.,-2.88675134594814,11.));
#964=CARTESIAN_POINT('',(-3.13128483901914E-15,-5.77350269189627,11.));
#965=CARTESIAN_POINT('',(4.99999999999999,2.88675134594812,11.));
#966=CARTESIAN_POINT('',(5.,-2.88675134594814,11.));
#967=CARTESIAN_POINT('',(4.99999999999999,2.88675134594812,11.));
#968=CARTESIAN_POINT('',(3.,2.00860586050433E-16,11.));
#969=CARTESIAN_POINT('Origin',(0.,0.,11.));
#970=CARTESIAN_POINT('Origin',(-3.13128483901914E-15,-5.77350269189627,
11.));
#971=CARTESIAN_POINT('',(-3.09605134262682E-15,-5.77350269189627,5.));
#972=CARTESIAN_POINT('',(-3.13128483901914E-15,-5.77350269189627,11.));
#973=CARTESIAN_POINT('',(5.,-2.88675134594814,5.));
#974=CARTESIAN_POINT('',(-3.13128483901914E-15,-5.77350269189627,5.));
#975=CARTESIAN_POINT('',(5.,-2.88675134594814,11.));
#976=CARTESIAN_POINT('Origin',(-5.,-2.88675134594814,11.));
#977=CARTESIAN_POINT('',(-5.,-2.88675134594814,5.));
#978=CARTESIAN_POINT('Origin',(4.99999999999999,2.88675134594812,11.));
#979=CARTESIAN_POINT('',(4.99999999999999,2.88675134594812,5.));
#980=CARTESIAN_POINT('',(4.99999999999999,2.88675134594812,11.));
#981=CARTESIAN_POINT('',(4.99999999999999,2.88675134594812,5.));
#982=CARTESIAN_POINT('Origin',(5.,-2.88675134594814,11.));
#983=CARTESIAN_POINT('',(5.,-2.88675134594814,5.));
#984=CARTESIAN_POINT('Origin',(0.,0.,5.));
#985=CARTESIAN_POINT('',(3.,-5.3392749343798E-16,5.));
#986=CARTESIAN_POINT('Origin',(0.,0.,5.));
#987=CARTESIAN_POINT('Origin',(0.,0.,11.));
#988=CARTESIAN_POINT('',(3.,-5.3392749343798E-16,11.));
#989=CARTESIAN_POINT('Origin',(0.,2.5,0.));
#990=CARTESIAN_POINT('',(2.5,2.5,0.));
#991=CARTESIAN_POINT('',(2.5,2.5,44.5));
#992=CARTESIAN_POINT('',(2.5,2.5,0.));
#993=CARTESIAN_POINT('',(17.5,2.5,0.));
#994=CARTESIAN_POINT('',(0.,2.5,0.));
#995=CARTESIAN_POINT('',(17.5,2.5,45.));
#996=CARTESIAN_POINT('',(17.5,2.5,0.));
#997=CARTESIAN_POINT('',(22.5,2.5,50.));
#998=CARTESIAN_POINT('Origin',(22.5,2.5,45.));
#999=CARTESIAN_POINT('',(45.,2.5,50.));
#1000=CARTESIAN_POINT('',(20.,2.5,50.));
#1001=CARTESIAN_POINT('',(50.,2.5,45.));
#1002=CARTESIAN_POINT('Origin',(45.,2.5,45.));
#1003=CARTESIAN_POINT('',(50.,2.5,32.));
#1004=CARTESIAN_POINT('',(50.,2.5,50.));
#1005=CARTESIAN_POINT('',(60.,2.5,32.));
#1006=CARTESIAN_POINT('Origin',(55.,2.5,32.));
#1007=CARTESIAN_POINT('',(60.,2.5,44.5));
#1008=CARTESIAN_POINT('',(60.,2.5,60.));
#1009=CARTESIAN_POINT('',(44.5,2.5,60.));
#1010=CARTESIAN_POINT('Origin',(44.5,2.5,44.5));
#1011=CARTESIAN_POINT('',(18.,2.5,60.));
#1012=CARTESIAN_POINT('',(0.,2.5,60.));
#1013=CARTESIAN_POINT('Origin',(18.,2.5,44.5));
#1014=CARTESIAN_POINT('',(15.,2.5,11.));
#1015=CARTESIAN_POINT('',(15.,2.5,5.));
#1016=CARTESIAN_POINT('',(15.,2.5,3.));
#1017=CARTESIAN_POINT('',(5.,2.5,5.));
#1018=CARTESIAN_POINT('',(7.5,2.5,5.));
#1019=CARTESIAN_POINT('',(5.,2.5,11.));
#1020=CARTESIAN_POINT('',(5.,2.5,3.));
#1021=CARTESIAN_POINT('',(2.5,2.5,11.));
#1022=CARTESIAN_POINT('Origin',(15.,7.11324865405186,11.));
#1023=CARTESIAN_POINT('',(15.,12.8867513459481,11.));
#1024=CARTESIAN_POINT('',(15.,7.11324865405186,11.));
#1025=CARTESIAN_POINT('',(15.,12.8867513459481,5.));
#1026=CARTESIAN_POINT('',(15.,12.8867513459481,11.));
#1027=CARTESIAN_POINT('',(15.,7.11324865405186,5.));
#1028=CARTESIAN_POINT('Origin',(20.,17.5,0.));
#1029=CARTESIAN_POINT('',(2.5,17.5,0.));
#1030=CARTESIAN_POINT('',(2.5,17.5,44.5));
#1031=CARTESIAN_POINT('',(2.5,17.5,0.));
#1032=CARTESIAN_POINT('',(18.,17.5,60.));
#1033=CARTESIAN_POINT('Origin',(18.,17.5,44.5));
#1034=CARTESIAN_POINT('',(44.5,17.5,60.));
#1035=CARTESIAN_POINT('',(20.,17.5,60.));
#1036=CARTESIAN_POINT('',(60.,17.5,44.5));
#1037=CARTESIAN_POINT('Origin',(44.5,17.5,44.5));
#1038=CARTESIAN_POINT('',(60.,17.5,32.));
#1039=CARTESIAN_POINT('',(60.,17.5,60.));
#1040=CARTESIAN_POINT('',(50.,17.5,32.));
#1041=CARTESIAN_POINT('Origin',(55.,17.5,32.));
#1042=CARTESIAN_POINT('',(50.,17.5,45.));
#1043=CARTESIAN_POINT('',(50.,17.5,50.));
#1044=CARTESIAN_POINT('',(45.,17.5,50.));
#1045=CARTESIAN_POINT('Origin',(45.,17.5,45.));
#1046=CARTESIAN_POINT('',(22.5,17.5,50.));
#1047=CARTESIAN_POINT('',(20.,17.5,50.));
#1048=CARTESIAN_POINT('',(17.5,17.5,45.));
#1049=CARTESIAN_POINT('Origin',(22.5,17.5,45.));
#1050=CARTESIAN_POINT('',(17.5,17.5,0.));
#1051=CARTESIAN_POINT('',(17.5,17.5,0.));
#1052=CARTESIAN_POINT('',(20.,17.5,0.));
#1053=CARTESIAN_POINT('Origin',(2.5,20.,0.));
#1054=CARTESIAN_POINT('',(2.5,15.,0.));
#1055=CARTESIAN_POINT('',(2.5,15.,44.5));
#1056=CARTESIAN_POINT('Origin',(10.,10.,0.));
#1057=CARTESIAN_POINT('',(17.5,5.,0.));
#1058=CARTESIAN_POINT('',(13.,10.,0.));
#1059=CARTESIAN_POINT('Origin',(10.,10.,0.));
#1060=CARTESIAN_POINT('Origin',(17.5,0.,0.));
#1061=CARTESIAN_POINT('',(17.5,0.,45.));
#1062=CARTESIAN_POINT('Origin',(10.,10.,11.));
#1063=CARTESIAN_POINT('',(5.,12.8867513459481,11.));
#1064=CARTESIAN_POINT('',(5.,12.8867513459481,11.));
#1065=CARTESIAN_POINT('',(10.,15.7735026918962,11.));
#1066=CARTESIAN_POINT('',(10.,15.7735026918962,11.));
#1067=CARTESIAN_POINT('',(15.,12.8867513459481,11.));
#1068=CARTESIAN_POINT('',(13.,10.,11.));
#1069=CARTESIAN_POINT('Origin',(10.,10.,11.));
#1070=CARTESIAN_POINT('Origin',(10.,10.,11.));
#1071=CARTESIAN_POINT('',(13.,10.,16.));
#1072=CARTESIAN_POINT('',(13.,10.,11.));
#1073=CARTESIAN_POINT('Origin',(10.,10.,16.));
#1074=CARTESIAN_POINT('Origin',(31.25,10.,16.));
#1075=CARTESIAN_POINT('Origin',(55.,0.,32.));
#1076=CARTESIAN_POINT('',(60.,0.,32.));
#1077=CARTESIAN_POINT('',(50.,0.,32.));
#1078=CARTESIAN_POINT('Origin',(60.,0.,60.));
#1079=CARTESIAN_POINT('',(60.,5.,44.5));
#1080=CARTESIAN_POINT('Origin',(45.,0.,45.));
#1081=CARTESIAN_POINT('',(45.,0.,50.));
#1082=CARTESIAN_POINT('',(50.,0.,45.));
#1083=CARTESIAN_POINT('Origin',(50.,0.,50.));
#1084=CARTESIAN_POINT('',(22.5,0.,50.));
#1085=CARTESIAN_POINT('Origin',(22.5,0.,45.));
#1086=CARTESIAN_POINT('Origin',(50.,0.,30.));
#1087=CARTESIAN_POINT('Origin',(18.,15.,44.5));
#1088=CARTESIAN_POINT('',(18.,15.,60.));
#1089=CARTESIAN_POINT('Origin',(10.,10.,60.));
#1090=CARTESIAN_POINT('',(44.5,5.,60.));
#1091=CARTESIAN_POINT('Origin',(44.5,5.,44.5));
#1092=CARTESIAN_POINT('Origin',(10.,10.,11.));
#1093=CARTESIAN_POINT('',(13.,10.,5.));
#1094=CARTESIAN_POINT('Origin',(10.,10.,5.));
#1095=CARTESIAN_POINT('',(13.,10.,11.));
#1096=CARTESIAN_POINT('Origin',(10.,10.,5.));
#1097=CARTESIAN_POINT('',(10.,15.7735026918962,5.));
#1098=CARTESIAN_POINT('',(5.,12.8867513459481,5.));
#1099=CARTESIAN_POINT('',(10.,15.7735026918962,5.));
#1100=CARTESIAN_POINT('',(5.,12.8867513459481,5.));
#1101=CARTESIAN_POINT('',(15.,12.8867513459481,5.));
#1102=CARTESIAN_POINT('Origin',(15.,12.8867513459481,11.));
#1103=CARTESIAN_POINT('',(10.,15.7735026918962,11.));
#1104=CARTESIAN_POINT('Origin',(10.,15.7735026918962,11.));
#1105=CARTESIAN_POINT('',(5.,12.8867513459481,11.));
#1106=CARTESIAN_POINT('Origin',(5.,12.8867513459481,11.));
#1107=CARTESIAN_POINT('Origin',(15.,2.5,11.));
#1108=CARTESIAN_POINT('',(15.,-2.88675134594812,11.));
#1109=CARTESIAN_POINT('',(15.,2.5,11.));
#1110=CARTESIAN_POINT('',(15.,-7.5,11.));
#1111=CARTESIAN_POINT('',(15.,-2.88675134594812,6.));
#1112=CARTESIAN_POINT('',(15.,-2.88675134594812,11.));
#1113=CARTESIAN_POINT('',(15.,2.5,6.));
#1114=CARTESIAN_POINT('',(15.,-7.5,6.));
#1115=CARTESIAN_POINT('',(15.,2.5,11.));
#1116=CARTESIAN_POINT('Origin',(5.,2.5,11.));
#1117=CARTESIAN_POINT('',(5.,2.5,11.));
#1118=CARTESIAN_POINT('',(15.,2.5,11.));
#1119=CARTESIAN_POINT('',(5.,2.5,6.));
#1120=CARTESIAN_POINT('',(15.,2.5,6.));
#1121=CARTESIAN_POINT('',(5.,2.5,11.));
#1122=CARTESIAN_POINT('Origin',(5.,-2.88675134594812,11.));
#1123=CARTESIAN_POINT('',(5.,-2.88675134594812,11.));
#1124=CARTESIAN_POINT('',(5.,2.5,11.));
#1125=CARTESIAN_POINT('',(5.,-2.88675134594812,6.));
#1126=CARTESIAN_POINT('',(5.,2.5,6.));
#1127=CARTESIAN_POINT('',(5.,-2.88675134594812,11.));
#1128=CARTESIAN_POINT('Origin',(15.,-2.88675134594812,11.));
#1129=CARTESIAN_POINT('',(2.5,-2.88675134594812,11.));
#1130=CARTESIAN_POINT('',(2.5,-2.88675134594812,6.));
#1131=CARTESIAN_POINT('Origin',(10.,-7.69337567297406,6.));
#1132=CARTESIAN_POINT('Origin',(10.,-7.69337567297406,11.));
#1133=CARTESIAN_POINT('',(10.,10.,0.));
#1134=UNCERTAINTY_MEASURE_WITH_UNIT(LENGTH_MEASURE(0.01),#1140,
'DISTANCE_ACCURACY_VALUE',
'Maximum model space distance between geometric entities at asserted c
onnectivities');
#1135=UNCERTAINTY_MEASURE_WITH_UNIT(LENGTH_MEASURE(0.01),#1140,
'DISTANCE_ACCURACY_VALUE',
'Maximum model space distance between geometric entities at asserted c
onnectivities');
#1136=UNCERTAINTY_MEASURE_WITH_UNIT(LENGTH_MEASURE(0.01),#1140,
'DISTANCE_ACCURACY_VALUE',
'Maximum model space distance between geometric entities at asserted c
onnectivities');
#1137=(
GEOMETRIC_REPRESENTATION_CONTEXT(3)
GLOBAL_UNCERTAINTY_ASSIGNED_CONTEXT((#1134))
GLOBAL_UNIT_ASSIGNED_CONTEXT((#1140,#1142,#1143))
REPRESENTATION_CONTEXT('','3D')
);
#1138=(
GEOMETRIC_REPRESENTATION_CONTEXT(3)
GLOBAL_UNCERTAINTY_ASSIGNED_CONTEXT((#1135))
GLOBAL_UNIT_ASSIGNED_CONTEXT((#1140,#1142,#1143))
REPRESENTATION_CONTEXT('','3D')
);
#1139=(
GEOMETRIC_REPRESENTATION_CONTEXT(3)
GLOBAL_UNCERTAINTY_ASSIGNED_CONTEXT((#1136))
GLOBAL_UNIT_ASSIGNED_CONTEXT((#1140,#1142,#1143))
REPRESENTATION_CONTEXT('','3D')
);
#1140=(
LENGTH_UNIT()
NAMED_UNIT(*)
SI_UNIT(.MILLI.,.METRE.)
);
#1141=(
LENGTH_UNIT()
NAMED_UNIT(*)
SI_UNIT($,.METRE.)
);
#1142=(
NAMED_UNIT(*)
PLANE_ANGLE_UNIT()
SI_UNIT($,.RADIAN.)
);
#1143=(
NAMED_UNIT(*)
SI_UNIT($,.STERADIAN.)
SOLID_ANGLE_UNIT()
);
#1144=SHAPE_DEFINITION_REPRESENTATION(#1146,#1149);
#1145=SHAPE_DEFINITION_REPRESENTATION(#1147,#1150);
#1146=PRODUCT_DEFINITION_SHAPE('',$,#1152);
#1147=PRODUCT_DEFINITION_SHAPE('',$,#1153);
#1148=PRODUCT_DEFINITION_SHAPE($,$,#14);
#1149=SHAPE_REPRESENTATION('',(#698,#754),#1137);
#1150=SHAPE_REPRESENTATION('',(#699),#1138);
#1151=PRODUCT_DEFINITION_CONTEXT('part definition',#1159,'design');
#1152=PRODUCT_DEFINITION('bruh_mag_hook','bruh_mag_hook v2',#1154,#1151);
#1153=PRODUCT_DEFINITION('nut v1','nut v1',#1155,#1151);
#1154=PRODUCT_DEFINITION_FORMATION('',$,#1161);
#1155=PRODUCT_DEFINITION_FORMATION('',$,#1162);
#1156=PRODUCT_RELATED_PRODUCT_CATEGORY('bruh_mag_hook v2',
'bruh_mag_hook v2',(#1161));
#1157=PRODUCT_RELATED_PRODUCT_CATEGORY('nut v1','nut v1',(#1162));
#1158=APPLICATION_PROTOCOL_DEFINITION('international standard',
'automotive_design',2009,#1159);
#1159=APPLICATION_CONTEXT(
'Core Data for Automotive Mechanical Design Process');
#1160=PRODUCT_CONTEXT('part definition',#1159,'mechanical');
#1161=PRODUCT('bruh_mag_hook','bruh_mag_hook v2',$,(#1160));
#1162=PRODUCT('nut v1','nut v1',$,(#1160));
#1163=PRESENTATION_STYLE_ASSIGNMENT((#1164));
#1164=SURFACE_STYLE_USAGE(.BOTH.,#1165);
#1165=SURFACE_SIDE_STYLE('',(#1166));
#1166=SURFACE_STYLE_FILL_AREA(#1167);
#1167=FILL_AREA_STYLE('Steel - Satin',(#1168));
#1168=FILL_AREA_STYLE_COLOUR('Steel - Satin',#1169);
#1169=COLOUR_RGB('Steel - Satin',0.627450980392157,0.627450980392157,0.627450980392157);
ENDSEC;
END-ISO-10303-21;
