  0
SECTION
  2
HEADER
  9
$ACADVER
  1
AC1024
  9
$ACADMAINTVER
 70
     6
  9
$DWGCODEPAGE
  3
ANSI_1252
  9
$INSBASE
 10
0.0
 20
0.0
 30
0.0
  9
$EXTMIN
 10
1.000000000000000E+20
 20
1.000000000000000E+20
 30
1.000000000000000E+20
  9
$EXTMAX
 10
-1.000000000000000E+20
 20
-1.000000000000000E+20
 30
-1.000000000000000E+20
  9
$LIMMIN
 10
0.0
 20
0.0
  9
$LIMMAX
 10
12.0
 20
9.0
  9
$ORTHOMODE
 70
     0
  9
$REGENMODE
 70
     1
  9
$FILLMODE
 70
     1
  9
$QTEXTMODE
 70
     0
  9
$MIRRTEXT
 70
     1
  9
$LTSCALE
 40
1.0
  9
$ATTMODE
 70
     1
  9
$TEXTSIZE
 40
0.2
  9
$TRACEWID
 40
0.05
  9
$TEXTSTYLE
  7
Standard
  9
$CLAYER
  8
0
  9
$CELTYPE
  6
ByLayer
  9
$CECOLOR
 62
   256
  9
$CELTSCALE
 40
1.0
  9
$DISPSILH
 70
     0
  9
$DIMSCALE
 40
1.0
  9
$DIMASZ
 40
0.18
  9
$DIMEXO
 40
0.0625
  9
$DIMDLI
 40
0.38
  9
$DIMRND
 40
0.0
  9
$DIMDLE
 40
0.0
  9
$DIMEXE
 40
0.18
  9
$DIMTP
 40
0.0
  9
$DIMTM
 40
0.0
  9
$DIMTXT
 40
0.18
  9
$DIMCEN
 40
0.09
  9
$DIMTSZ
 40
0.0
  9
$DIMTOL
 70
     0
  9
$DIMLIM
 70
     0
  9
$DIMTIH
 70
     1
  9
$DIMTOH
 70
     1
  9
$DIMSE1
 70
     0
  9
$DIMSE2
 70
     0
  9
$DIMTAD
 70
     0
  9
$DIMZIN
 70
     0
  9
$DIMBLK
  1

  9
$DIMASO
 70
     1
  9
$DIMSHO
 70
     1
  9
$DIMPOST
  1

  9
$DIMAPOST
  1

  9
$DIMALT
 70
     0
  9
$DIMALTD
 70
     2
  9
$DIMALTF
 40
25.4
  9
$DIMLFAC
 40
1.0
  9
$DIMTOFL
 70
     0
  9
$DIMTVP
 40
0.0
  9
$DIMTIX
 70
     0
  9
$DIMSOXD
 70
     0
  9
$DIMSAH
 70
     0
  9
$DIMBLK1
  1

  9
$DIMBLK2
  1

  9
$DIMSTYLE
  2
Standard
  9
$DIMCLRD
 70
     0
  9
$DIMCLRE
 70
     0
  9
$DIMCLRT
 70
     0
  9
$DIMTFAC
 40
1.0
  9
$DIMGAP
 40
0.09
  9
$DIMJUST
 70
     0
  9
$DIMSD1
 70
     0
  9
$DIMSD2
 70
     0
  9
$DIMTOLJ
 70
     1
  9
$DIMTZIN
 70
     0
  9
$DIMALTZ
 70
     0
  9
$DIMALTTZ
 70
     0
  9
$DIMUPT
 70
     0
  9
$DIMDEC
 70
     4
  9
$DIMTDEC
 70
     4
  9
$DIMALTU
 70
     2
  9
$DIMALTTD
 70
     2
  9
$DIMTXSTY
  7
Standard
  9
$DIMAUNIT
 70
     0
  9
$DIMADEC
 70
     0
  9
$DIMALTRND
 40
0.0
  9
$DIMAZIN
 70
     0
  9
$DIMDSEP
 70
    46
  9
$DIMATFIT
 70
     3
  9
$DIMFRAC
 70
     0
  9
$DIMLDRBLK
  1

  9
$DIMLUNIT
 70
     2
  9
$DIMLWD
 70
    -2
  9
$DIMLWE
 70
    -2
  9
$DIMTMOVE
 70
     0
  9
$DIMFXL
 40
1.0
  9
$DIMFXLON
 70
     0
  9
$DIMJOGANG
 40
0.7853981633974483
  9
$DIMTFILL
 70
     0
  9
$DIMTFILLCLR
 70
     0
  9
$DIMARCSYM
 70
     0
  9
$DIMLTYPE
  6

  9
$DIMLTEX1
  6

  9
$DIMLTEX2
  6

  9
$DIMTXTDIRECTION
 70
     0
  9
$LUNITS
 70
     2
  9
$LUPREC
 70
     4
  9
$SKETCHINC
 40
0.1
  9
$FILLETRAD
 40
0.5
  9
$AUNITS
 70
     0
  9
$AUPREC
 70
     0
  9
$MENU
  1
.
  9
$ELEVATION
 40
0.0
  9
$PELEVATION
 40
0.0
  9
$THICKNESS
 40
0.0
  9
$LIMCHECK
 70
     0
  9
$CHAMFERA
 40
0.5
  9
$CHAMFERB
 40
0.5
  9
$CHAMFERC
 40
1.0
  9
$CHAMFERD
 40
0.0
  9
$SKPOLY
 70
     0
  9
$TDCREATE
 40
2459097.415487095
  9
$TDUCREATE
 40
2459097.582153762
  9
$TDUPDATE
 40
2459097.41548713
  9
$TDUUPDATE
 40
2459097.582153796
  9
$TDINDWG
 40
0.0000000116
  9
$TDUSRTIMER
 40
0.0000000116
  9
$USRTIMER
 70
     1
  9
$ANGBASE
 50
0.0
  9
$ANGDIR
 70
     0
  9
$PDMODE
 70
     0
  9
$PDSIZE
 40
0.0
  9
$PLINEWID
 40
0.0
  9
$SPLFRAME
 70
     0
  9
$SPLINETYPE
 70
     6
  9
$SPLINESEGS
 70
     8
  9
$HANDSEED
  5
DC
  9
$SURFTAB1
 70
     6
  9
$SURFTAB2
 70
     6
  9
$SURFTYPE
 70
     6
  9
$SURFU
 70
     6
  9
$SURFV
 70
     6
  9
$UCSBASE
  2

  9
$UCSNAME
  2

  9
$UCSORG
 10
0.0
 20
0.0
 30
0.0
  9
$UCSXDIR
 10
1.0
 20
0.0
 30
0.0
  9
$UCSYDIR
 10
0.0
 20
1.0
 30
0.0
  9
$UCSORTHOREF
  2

  9
$UCSORTHOVIEW
 70
     0
  9
$UCSORGTOP
 10
0.0
 20
0.0
 30
0.0
  9
$UCSORGBOTTOM
 10
0.0
 20
0.0
 30
0.0
  9
$UCSORGLEFT
 10
0.0
 20
0.0
 30
0.0
  9
$UCSORGRIGHT
 10
0.0
 20
0.0
 30
0.0
  9
$UCSORGFRONT
 10
0.0
 20
0.0
 30
0.0
  9
$UCSORGBACK
 10
0.0
 20
0.0
 30
0.0
  9
$PUCSBASE
  2

  9
$PUCSNAME
  2

  9
$PUCSORG
 10
0.0
 20
0.0
 30
0.0
  9
$PUCSXDIR
 10
1.0
 20
0.0
 30
0.0
  9
$PUCSYDIR
 10
0.0
 20
1.0
 30
0.0
  9
$PUCSORTHOREF
  2

  9
$PUCSORTHOVIEW
 70
     0
  9
$PUCSORGTOP
 10
0.0
 20
0.0
 30
0.0
  9
$PUCSORGBOTTOM
 10
0.0
 20
0.0
 30
0.0
  9
$PUCSORGLEFT
 10
0.0
 20
0.0
 30
0.0
  9
$PUCSORGRIGHT
 10
0.0
 20
0.0
 30
0.0
  9
$PUCSORGFRONT
 10
0.0
 20
0.0
 30
0.0
  9
$PUCSORGBACK
 10
0.0
 20
0.0
 30
0.0
  9
$USERI1
 70
     0
  9
$USERI2
 70
     0
  9
$USERI3
 70
     0
  9
$USERI4
 70
     0
  9
$USERI5
 70
     0
  9
$USERR1
 40
0.0
  9
$USERR2
 40
0.0
  9
$USERR3
 40
0.0
  9
$USERR4
 40
0.0
  9
$USERR5
 40
0.0
  9
$WORLDVIEW
 70
     1
  9
$SHADEDGE
 70
     3
  9
$SHADEDIF
 70
    70
  9
$TILEMODE
 70
     1
  9
$MAXACTVP
 70
    64
  9
$PINSBASE
 10
0.0
 20
0.0
 30
0.0
  9
$PLIMCHECK
 70
     0
  9
$PEXTMIN
 10
1.000000000000000E+20
 20
1.000000000000000E+20
 30
1.000000000000000E+20
  9
$PEXTMAX
 10
-1.000000000000000E+20
 20
-1.000000000000000E+20
 30
-1.000000000000000E+20
  9
$PLIMMIN
 10
0.0
 20
0.0
  9
$PLIMMAX
 10
12.0
 20
9.0
  9
$UNITMODE
 70
     0
  9
$VISRETAIN
 70
     1
  9
$PLINEGEN
 70
     0
  9
$PSLTSCALE
 70
     1
  9
$TREEDEPTH
 70
  3020
  9
$CMLSTYLE
  2
Standard
  9
$CMLJUST
 70
     0
  9
$CMLSCALE
 40
1.0
  9
$PROXYGRAPHICS
 70
     1
  9
$MEASUREMENT
 70
     0
  9
$CELWEIGHT
370
    -1
  9
$ENDCAPS
280
     0
  9
$JOINSTYLE
280
     0
  9
$LWDISPLAY
290
     1
  9
$INSUNITS
 70
     4
  9
$HYPERLINKBASE
  1

  9
$STYLESHEET
  1

  9
$XEDIT
290
     1
  9
$CEPSNTYPE
380
     0
  9
$PSTYLEMODE
290
     1
  9
$FINGERPRINTGUID
  2
{BC50034E-B1D6-42B1-8FCB-9C32C3870A75}
  9
$VERSIONGUID
  2
{FAEB1C32-E019-11D5-929B-00C0DF256EC4}
  9
$EXTNAMES
290
     1
  9
$PSVPSCALE
 40
0.0
  9
$OLESTARTUP
290
     0
  9
$SORTENTS
280
   127
  9
$INDEXCTL
280
     0
  9
$HIDETEXT
280
     1
  9
$XCLIPFRAME
280
     2
  9
$HALOGAP
280
     0
  9
$OBSCOLOR
 70
   257
  9
$OBSLTYPE
280
     0
  9
$INTERSECTIONDISPLAY
280
     0
  9
$INTERSECTIONCOLOR
 70
   257
  9
$DIMASSOC
280
     2
  9
$PROJECTNAME
  1

  9
$CAMERADISPLAY
290
     0
  9
$LENSLENGTH
 40
50.0
  9
$CAMERAHEIGHT
 40
0.0
  9
$STEPSPERSEC
 40
2.0
  9
$STEPSIZE
 40
6.0
  9
$3DDWFPREC
 40
2.0
  9
$PSOLWIDTH
 40
0.25
  9
$PSOLHEIGHT
 40
4.0
  9
$LOFTANG1
 40
1.570796326794897
  9
$LOFTANG2
 40
1.570796326794897
  9
$LOFTMAG1
 40
0.0
  9
$LOFTMAG2
 40
0.0
  9
$LOFTPARAM
 70
     7
  9
$LOFTNORMALS
280
     1
  9
$LATITUDE
 40
37.795
  9
$LONGITUDE
 40
-122.394
  9
$NORTHDIRECTION
 40
0.0
  9
$TIMEZONE
 70
 -8000
  9
$LIGHTGLYPHDISPLAY
280
     1
  9
$TILEMODELIGHTSYNCH
280
     1
  9
$CMATERIAL
347
3C
  9
$SOLIDHIST
280
     1
  9
$SHOWHIST
280
     1
  9
$DWFFRAME
280
     2
  9
$DGNFRAME
280
     2
  9
$REALWORLDSCALE
290
     1
  9
$INTERFERECOLOR
 62
   256
  9
$CSHADOW
280
     0
  9
$SHADOWPLANELOCATION
 40
0.0
  0
ENDSEC
  0
SECTION
  2
CLASSES
  0
CLASS
  1
ACDBDICTIONARYWDFLT
  2
AcDbDictionaryWithDefault
  3
ObjectDBX Classes
 90
        0
 91
        4
280
     0
281
     0
  0
CLASS
  1
VISUALSTYLE
  2
AcDbVisualStyle
  3
ObjectDBX Classes
 90
     4095
 91
        4
280
     0
281
     0
  0
CLASS
  1
MATERIAL
  2
AcDbMaterial
  3
ObjectDBX Classes
 90
     1153
 91
        4
280
     0
281
     0
  0
CLASS
  1
SUN
  2
AcDbSun
  3
SCENEOE
 90
     1024
 91
        4
280
     0
281
     0
  0
ENDSEC
  0
SECTION
  2
TABLES
  0
TABLE
  2
VPORT
  5
8
330
0
100
AcDbSymbolTable
 70
     1
  0
VPORT
  5
29
330
8
100
AcDbSymbolTableRecord
100
AcDbViewportTableRecord
  2
*Active
 70
     0
 10
0.0
 20
0.0
 11
1.0
 21
1.0
 12
0.0
 22
0.0
 13
0.0
 23
0.0
 14
0.5
 24
0.5
 15
0.5
 25
0.5
 16
0.0
 26
0.0
 36
1.0
 17
228.59999994285
 27
-101.5999999746
 37
0.0
 40
457.1999998857
 41
1.0
 42
50.0
 43
0.0
 44
0.0
 50
0.0
 51
0.0
 71
     0
 72
   100
 73
     1
 74
     3
 75
     0
 76
     0
 77
     0
 78
     0
281
     0
 65
     1
110
0.0
120
0.0
130
0.0
111
1.0
121
0.0
131
0.0
112
0.0
122
1.0
132
0.0
 79
     0
146
0.0
 60
     3
 61
     5
292
     1
282
     1
141
0.0
142
0.0
 63
   250
361
3F
  0
ENDTAB
  0
TABLE
  2
LTYPE
  5
5
330
0
100
AcDbSymbolTable
 70
     1
  0
LTYPE
  5
14
330
5
100
AcDbSymbolTableRecord
100
AcDbLinetypeTableRecord
  2
ByBlock
 70
     0
  3

 72
    65
 73
     0
 40
0.0
  0
LTYPE
  5
15
330
5
100
AcDbSymbolTableRecord
100
AcDbLinetypeTableRecord
  2
ByLayer
 70
     0
  3

 72
    65
 73
     0
 40
0.0
  0
LTYPE
  5
16
330
5
100
AcDbSymbolTableRecord
100
AcDbLinetypeTableRecord
  2
Continuous
 70
     0
  3
Solid line
 72
    65
 73
     0
 40
0.0
  0
ENDTAB
  0
TABLE
  2
LAYER
  5
2
330
0
100
AcDbSymbolTable
 70
     2
  0
LAYER
  5
10
330
2
100
AcDbSymbolTableRecord
100
AcDbLayerTableRecord
  2
0
 70
     0
 62
     7
  6
Continuous
370
    -3
390
F
347
3E
  0
LAYER
  5
40
330
2
100
AcDbSymbolTableRecord
100
AcDbLayerTableRecord
  2
Layer 1
 70
     0
 62
     7
  6
Continuous
370
    -3
390
F
347
3E
  0
ENDTAB
  0
TABLE
  2
STYLE
  5
3
330
0
100
AcDbSymbolTable
 70
     1
  0
STYLE
  5
11
330
3
100
AcDbSymbolTableRecord
100
AcDbTextStyleTableRecord
  2
Standard
 70
     0
 40
0.0
 41
1.0
 50
0.0
 71
     0
 42
0.2
  3
txt
  4

  0
ENDTAB
  0
TABLE
  2
VIEW
  5
6
330
0
100
AcDbSymbolTable
 70
     0
  0
ENDTAB
  0
TABLE
  2
UCS
  5
7
330
0
100
AcDbSymbolTable
 70
     0
  0
ENDTAB
  0
TABLE
  2
APPID
  5
9
330
0
100
AcDbSymbolTable
 70
     1
  0
APPID
  5
12
330
9
100
AcDbSymbolTableRecord
100
AcDbRegAppTableRecord
  2
ACAD
 70
     0
  0
ENDTAB
  0
TABLE
  2
DIMSTYLE
  5
A
330
0
100
AcDbSymbolTable
 70
     1
100
AcDbDimStyleTable
  0
DIMSTYLE
105
27
330
A
100
AcDbSymbolTableRecord
100
AcDbDimStyleTableRecord
  2
Standard
 70
     0
178
     0
340
11
  0
ENDTAB
  0
TABLE
  2
BLOCK_RECORD
  5
1
330
0
100
AcDbSymbolTable
 70
     1
  0
BLOCK_RECORD
  5
1F
330
1
100
AcDbSymbolTableRecord
100
AcDbBlockTableRecord
  2
*Model_Space
340
22
 70
     0
280
     1
281
     0
  0
BLOCK_RECORD
  5
1B
330
1
100
AcDbSymbolTableRecord
100
AcDbBlockTableRecord
  2
*Paper_Space
340
1E
 70
     0
280
     1
281
     0
  0
BLOCK_RECORD
  5
23
330
1
100
AcDbSymbolTableRecord
100
AcDbBlockTableRecord
  2
*Paper_Space0
340
26
 70
     0
280
     1
281
     0
  0
ENDTAB
  0
ENDSEC
  0
SECTION
  2
BLOCKS
  0
BLOCK
  5
20
330
1F
100
AcDbEntity
  8
0
100
AcDbBlockBegin
  2
*Model_Space
 70
     0
 10
0.0
 20
0.0
 30
0.0
  3
*Model_Space
  1

  0
ENDBLK
  5
21
330
1F
100
AcDbEntity
  8
0
100
AcDbBlockEnd
  0
BLOCK
  5
1C
330
1B
100
AcDbEntity
 67
     1
  8
0
100
AcDbBlockBegin
  2
*Paper_Space
 70
     0
 10
0.0
 20
0.0
 30
0.0
  3
*Paper_Space
  1

  0
ENDBLK
  5
1D
330
1B
100
AcDbEntity
 67
     1
  8
0
100
AcDbBlockEnd
  0
BLOCK
  5
24
330
23
100
AcDbEntity
  8
0
100
AcDbBlockBegin
  2
*Paper_Space0
 70
     0
 10
0.0
 20
0.0
 30
0.0
  3
*Paper_Space0
  1

  0
ENDBLK
  5
25
330
23
100
AcDbEntity
  8
0
100
AcDbBlockEnd
  0
ENDSEC
  0
SECTION
  2
ENTITIES
  0
SPLINE
  5
41
330
1F
100
AcDbEntity
  8
Layer 1
 62
     7
370
    13
100
AcDbSpline
210
0.0
220
0.0
230
1.0
 70
    11
 71
     3
 72
    17
 73
    13
 74
     0
 42
0.0000000001
 43
0.0000000001
 12
1.0
 22
0.0
 32
0.0
 13
1.0
 23
0.0
 33
0.0
 40
0.0
 40
0.0
 40
0.0
 40
0.0
 40
1.0
 40
1.0
 40
1.0
 40
2.0
 40
2.0
 40
2.0
 40
3.0
 40
3.0
 40
3.0
 40
4.0
 40
4.0
 40
4.0
 40
4.0
 10
151.8708332953656
 20
-23.2833333275125
 30
0.0
 10
151.8708332953656
 20
-31.56376926168005
 30
0.0
 10
145.1582136777253
 20
-38.2763888793198
 30
0.0
 10
136.8777777435583
 20
-38.2763888793198
 30
0.0
 10
128.5973418093914
 20
-38.2763888793198
 30
0.0
 10
121.8847221917511
 20
-31.56376926168005
 30
0.0
 10
121.8847221917511
 20
-23.2833333275125
 30
0.0
 10
121.8847221917511
 20
-15.00289739334559
 30
0.0
 10
128.5973418093914
 20
-8.290277775705208
 30
0.0
 10
136.8777777435583
 20
-8.290277775705208
 30
0.0
 10
145.1582136777253
 20
-8.290277775705208
 30
0.0
 10
151.8708332953656
 20
-15.00289739334559
 30
0.0
 10
151.8708332953656
 20
-23.2833333275125
 30
0.0
  0
POLYLINE
  5
42
330
1F
100
AcDbEntity
  8
Layer 1
 62
     7
370
    13
100
AcDb2dPolyline
 66
     1
 10
0.0
 20
0.0
 30
0.0
  0
VERTEX
  5
43
330
42
100
AcDbEntity
  8
Layer 1
 62
     7
370
    13
100
AcDbVertex
100
AcDb2dVertex
 10
116.5930555264073
 20
-25.57638888249479
 30
0.0
  0
VERTEX
  5
44
330
42
100
AcDbEntity
  8
Layer 1
 62
     7
370
    13
100
AcDbVertex
100
AcDb2dVertex
 10
109.5374999726156
 20
-25.57638888249479
 30
0.0
  0
VERTEX
  5
45
330
42
100
AcDbEntity
  8
Layer 1
 62
     7
370
    13
100
AcDbVertex
100
AcDb2dVertex
 10
109.5374999726156
 20
-21.34305555021979
 30
0.0
  0
VERTEX
  5
46
330
42
100
AcDbEntity
  8
Layer 1
 62
     7
370
    13
100
AcDbVertex
100
AcDb2dVertex
 10
116.5930555264073
 20
-21.34305555021979
 30
0.0
  0
VERTEX
  5
47
330
42
100
AcDbEntity
  8
Layer 1
 62
     7
370
    13
100
AcDbVertex
100
AcDb2dVertex
 10
116.5930555264073
 20
-25.57638888249479
 30
0.0
  0
SEQEND
  5
48
330
42
100
AcDbEntity
  8
Layer 1
 62
     7
370
    13
  0
POLYLINE
  5
49
330
1F
100
AcDbEntity
  8
Layer 1
 62
     7
370
    13
100
AcDb2dPolyline
 66
     1
 10
0.0
 20
0.0
 30
0.0
  0
VERTEX
  5
4A
330
49
100
AcDbEntity
  8
Layer 1
 62
     7
370
    13
100
AcDbVertex
100
AcDb2dVertex
 10
164.9236110698802
 20
-25.57638888249479
 30
0.0
  0
VERTEX
  5
4B
330
49
100
AcDbEntity
  8
Layer 1
 62
     7
370
    13
100
AcDbVertex
100
AcDb2dVertex
 10
157.8680555160886
 20
-25.57638888249479
 30
0.0
  0
VERTEX
  5
4C
330
49
100
AcDbEntity
  8
Layer 1
 62
     7
370
    13
100
AcDbVertex
100
AcDb2dVertex
 10
157.8680555160886
 20
-21.34305555021979
 30
0.0
  0
VERTEX
  5
4D
330
49
100
AcDbEntity
  8
Layer 1
 62
     7
370
    13
100
AcDbVertex
100
AcDb2dVertex
 10
164.9236110698802
 20
-21.34305555021979
 30
0.0
  0
VERTEX
  5
4E
330
49
100
AcDbEntity
  8
Layer 1
 62
     7
370
    13
100
AcDbVertex
100
AcDb2dVertex
 10
164.9236110698802
 20
-25.57638888249479
 30
0.0
  0
SEQEND
  5
4F
330
49
100
AcDbEntity
  8
Layer 1
 62
     7
370
    13
  0
SPLINE
  5
50
330
1F
100
AcDbEntity
  8
Layer 1
 62
     7
370
    13
100
AcDbSpline
210
0.0
220
0.0
230
1.0
 70
    11
 71
     3
 72
    17
 73
    13
 74
     0
 42
0.0000000001
 43
0.0000000001
 12
1.0
 22
0.0
 32
0.0
 13
1.0
 23
0.0
 33
0.0
 40
0.0
 40
0.0
 40
0.0
 40
0.0
 40
1.0
 40
1.0
 40
1.0
 40
2.0
 40
2.0
 40
2.0
 40
3.0
 40
3.0
 40
3.0
 40
4.0
 40
4.0
 40
4.0
 40
4.0
 10
67.26901576339944
 20
39.68948103825787
 30
0.0
 10
58.98967393192971
 20
39.55624896847149
 30
0.0
 10
52.16993532717805
 20
46.1599757080371
 30
0.0
 10
52.03670325739265
 20
54.43931753950618
 30
0.0
 10
51.90347118760627
 20
62.71865937097558
 30
0.0
 10
58.50719792717187
 20
69.5383979757266
 30
0.0
 10
66.7865397586416
 20
69.67163004551361
 30
0.0
 10
75.06588159011035
 20
69.80486211529903
 30
0.0
 10
81.88562019486234
 20
63.20113537573341
 30
0.0
 10
82.01885226464807
 20
54.92179354426402
 30
0.0
 10
82.15208433443476
 20
46.64245171279494
 30
0.0
 10
75.5483575948682
 20
39.82271310804392
 30
0.0
 10
67.26901576339944
 20
39.68948103825787
 30
0.0
  0
POLYLINE
  5
51
330
1F
100
AcDbEntity
  8
Layer 1
 62
     7
370
    13
100
AcDb2dPolyline
 66
     1
 10
0.0
 20
0.0
 30
0.0
  0
VERTEX
  5
52
330
51
100
AcDbEntity
  8
Layer 1
 62
     7
370
    13
100
AcDbVertex
100
AcDb2dVertex
 10
64.49251760355618
 20
74.96527775903647
 30
0.0
  0
VERTEX
  5
53
330
51
100
AcDbEntity
  8
Layer 1
 62
     7
370
    13
100
AcDbVertex
100
AcDb2dVertex
 10
64.38194442834896
 20
81.95336151028849
 30
0.0
  0
VERTEX
  5
54
330
51
100
AcDbEntity
  8
Layer 1
 62
     7
370
    13
100
AcDbVertex
100
AcDb2dVertex
 10
68.50470458541675
 20
82.02083331282813
 30
0.0
  0
VERTEX
  5
55
330
51
100
AcDbEntity
  8
Layer 1
 62
     7
370
    13
100
AcDbVertex
100
AcDb2dVertex
 10
68.61527776062397
 20
75.0327495615761
 30
0.0
  0
VERTEX
  5
56
330
51
100
AcDbEntity
  8
Layer 1
 62
     7
370
    13
100
AcDbVertex
100
AcDb2dVertex
 10
64.49251760355618
 20
74.96527775903647
 30
0.0
  0
SEQEND
  5
57
330
51
100
AcDbEntity
  8
Layer 1
 62
     7
370
    13
  0
POLYLINE
  5
58
330
1F
100
AcDbEntity
  8
Layer 1
 62
     7
370
    13
100
AcDb2dPolyline
 66
     1
 10
0.0
 20
0.0
 30
0.0
  0
VERTEX
  5
59
330
58
100
AcDbEntity
  8
Layer 1
 62
     7
370
    13
100
AcDbVertex
100
AcDb2dVertex
 10
65.55085093662493
 20
26.63472221556354
 30
0.0
  0
VERTEX
  5
5A
330
58
100
AcDbEntity
  8
Layer 1
 62
     7
370
    13
100
AcDbVertex
100
AcDb2dVertex
 10
65.44027776141772
 20
33.62280596681558
 30
0.0
  0
VERTEX
  5
5B
330
58
100
AcDbEntity
  8
Layer 1
 62
     7
370
    13
100
AcDbVertex
100
AcDb2dVertex
 10
69.56303791848615
 20
33.69027776935521
 30
0.0
  0
VERTEX
  5
5C
330
58
100
AcDbEntity
  8
Layer 1
 62
     7
370
    13
100
AcDbVertex
100
AcDb2dVertex
 10
69.67361109369271
 20
26.70219401810318
 30
0.0
  0
VERTEX
  5
5D
330
58
100
AcDbEntity
  8
Layer 1
 62
     7
370
    13
100
AcDbVertex
100
AcDb2dVertex
 10
65.55085093662493
 20
26.63472221556354
 30
0.0
  0
SEQEND
  5
5E
330
58
100
AcDbEntity
  8
Layer 1
 62
     7
370
    13
  0
SPLINE
  5
5F
330
1F
100
AcDbEntity
  8
Layer 1
 62
     7
370
    13
100
AcDbSpline
210
0.0
220
0.0
230
1.0
 70
    11
 71
     3
 72
    17
 73
    13
 74
     0
 42
0.0000000001
 43
0.0000000001
 12
1.0
 22
0.0
 32
0.0
 13
1.0
 23
0.0
 33
0.0
 40
0.0
 40
0.0
 40
0.0
 40
0.0
 40
1.0
 40
1.0
 40
1.0
 40
2.0
 40
2.0
 40
2.0
 40
3.0
 40
3.0
 40
3.0
 40
4.0
 40
4.0
 40
4.0
 40
4.0
 10
66.21068243033133
 20
-116.5910744782276
 30
0.0
 10
57.9313405988616
 20
-116.7243065480139
 30
0.0
 10
51.11160199410995
 20
-110.1205798084483
 30
0.0
 10
50.97836992432453
 20
-101.8412379769786
 30
0.0
 10
50.84513785453752
 20
-93.56189614550888
 30
0.0
 10
57.44886459410313
 20
-86.7421575407585
 30
0.0
 10
65.72820642557285
 20
-86.60892547097212
 30
0.0
 10
74.00754825704225
 20
-86.47569340118544
 30
0.0
 10
80.82728686179424
 20
-93.07942014075104
 30
0.0
 10
80.96051893157932
 20
-101.3587619722208
 30
0.0
 10
81.09375100136666
 20
-109.6381038036911
 30
0.0
 10
74.49002426179945
 20
-116.4578424084415
 30
0.0
 10
66.21068243033133
 20
-116.5910744782276
 30
0.0
  0
POLYLINE
  5
60
330
1F
100
AcDbEntity
  8
Layer 1
 62
     7
370
    13
100
AcDb2dPolyline
 66
     1
 10
0.0
 20
0.0
 30
0.0
  0
VERTEX
  5
61
330
60
100
AcDbEntity
  8
Layer 1
 62
     7
370
    13
100
AcDbVertex
100
AcDb2dVertex
 10
63.78696204817701
 20
-81.31527775744897
 30
0.0
  0
VERTEX
  5
62
330
60
100
AcDbEntity
  8
Layer 1
 62
     7
370
    13
100
AcDbVertex
100
AcDb2dVertex
 10
63.6763888729698
 20
-74.32719400619757
 30
0.0
  0
VERTEX
  5
63
330
60
100
AcDbEntity
  8
Layer 1
 62
     7
370
    13
100
AcDbVertex
100
AcDb2dVertex
 10
67.79914903003758
 20
-74.25972220365729
 30
0.0
  0
VERTEX
  5
64
330
60
100
AcDbEntity
  8
Layer 1
 62
     7
370
    13
100
AcDbVertex
100
AcDb2dVertex
 10
67.90972220524479
 20
-81.24780595490932
 30
0.0
  0
VERTEX
  5
65
330
60
100
AcDbEntity
  8
Layer 1
 62
     7
370
    13
100
AcDbVertex
100
AcDb2dVertex
 10
63.78696204817701
 20
-81.31527775744897
 30
0.0
  0
SEQEND
  5
66
330
60
100
AcDbEntity
  8
Layer 1
 62
     7
370
    13
  0
POLYLINE
  5
67
330
1F
100
AcDbEntity
  8
Layer 1
 62
     7
370
    13
100
AcDb2dPolyline
 66
     1
 10
0.0
 20
0.0
 30
0.0
  0
VERTEX
  5
68
330
67
100
AcDbEntity
  8
Layer 1
 62
     7
370
    13
100
AcDbVertex
100
AcDb2dVertex
 10
64.49251760355618
 20
-129.6458333009219
 30
0.0
  0
VERTEX
  5
69
330
67
100
AcDbEntity
  8
Layer 1
 62
     7
370
    13
100
AcDbVertex
100
AcDb2dVertex
 10
64.38194442834896
 20
-122.6577495496698
 30
0.0
  0
VERTEX
  5
6A
330
67
100
AcDbEntity
  8
Layer 1
 62
     7
370
    13
100
AcDbVertex
100
AcDb2dVertex
 10
68.50470458541803
 20
-122.5902777471302
 30
0.0
  0
VERTEX
  5
6B
330
67
100
AcDbEntity
  8
Layer 1
 62
     7
370
    13
100
AcDbVertex
100
AcDb2dVertex
 10
68.61527776062397
 20
-129.5783614983822
 30
0.0
  0
VERTEX
  5
6C
330
67
100
AcDbEntity
  8
Layer 1
 62
     7
370
    13
100
AcDbVertex
100
AcDb2dVertex
 10
64.49251760355618
 20
-129.6458333009219
 30
0.0
  0
SEQEND
  5
6D
330
67
100
AcDbEntity
  8
Layer 1
 62
     7
370
    13
  0
SPLINE
  5
6E
330
1F
100
AcDbEntity
  8
Layer 1
 62
     7
370
    13
100
AcDbSpline
210
0.0
220
0.0
230
1.0
 70
    11
 71
     3
 72
    17
 73
    13
 74
     0
 42
0.0000000001
 43
0.0000000001
 12
1.0
 22
0.0
 32
0.0
 13
1.0
 23
0.0
 33
0.0
 40
0.0
 40
0.0
 40
0.0
 40
0.0
 40
1.0
 40
1.0
 40
1.0
 40
2.0
 40
2.0
 40
2.0
 40
3.0
 40
3.0
 40
3.0
 40
4.0
 40
4.0
 40
4.0
 40
4.0
 10
391.4717934601297
 20
-116.5910744782276
 30
0.0
 10
383.1924516286581
 20
-116.7243065480133
 30
0.0
 10
376.372713023908
 20
-110.1205798084483
 30
0.0
 10
376.23948095412
 20
-101.8412379769783
 30
0.0
 10
376.1062488843359
 20
-93.56189614550888
 30
0.0
 10
382.7099756239022
 20
-86.74215754075786
 30
0.0
 10
390.98931745537
 20
-86.60892547097212
 30
0.0
 10
399.2686592868378
 20
-86.47569340118544
 30
0.0
 10
406.0883978915904
 20
-93.07942014075104
 30
0.0
 10
406.2216299613758
 20
-101.3587619722204
 30
0.0
 10
406.3548620311638
 20
-109.6381038036898
 30
0.0
 10
399.7511352915976
 20
-116.4578424084409
 30
0.0
 10
391.4717934601297
 20
-116.5910744782276
 30
0.0
  0
POLYLINE
  5
6F
330
1F
100
AcDbEntity
  8
Layer 1
 62
     7
370
    13
100
AcDb2dPolyline
 66
     1
 10
0.0
 20
0.0
 30
0.0
  0
VERTEX
  5
70
330
6F
100
AcDbEntity
  8
Layer 1
 62
     7
370
    13
100
AcDbVertex
100
AcDb2dVertex
 10
389.0480730779728
 20
-81.31527775744897
 30
0.0
  0
VERTEX
  5
71
330
6F
100
AcDbEntity
  8
Layer 1
 62
     7
370
    13
100
AcDbVertex
100
AcDb2dVertex
 10
388.9374999027656
 20
-74.32719400619693
 30
0.0
  0
VERTEX
  5
72
330
6F
100
AcDbEntity
  8
Layer 1
 62
     7
370
    13
100
AcDbVertex
100
AcDb2dVertex
 10
393.0602600598334
 20
-74.25972220365729
 30
0.0
  0
VERTEX
  5
73
330
6F
100
AcDbEntity
  8
Layer 1
 62
     7
370
    13
100
AcDbVertex
100
AcDb2dVertex
 10
393.1708332350406
 20
-81.24780595490996
 30
0.0
  0
VERTEX
  5
74
330
6F
100
AcDbEntity
  8
Layer 1
 62
     7
370
    13
100
AcDbVertex
100
AcDb2dVertex
 10
389.0480730779728
 20
-81.31527775744897
 30
0.0
  0
SEQEND
  5
75
330
6F
100
AcDbEntity
  8
Layer 1
 62
     7
370
    13
  0
POLYLINE
  5
76
330
1F
100
AcDbEntity
  8
Layer 1
 62
     7
370
    13
100
AcDb2dPolyline
 66
     1
 10
0.0
 20
0.0
 30
0.0
  0
VERTEX
  5
77
330
76
100
AcDbEntity
  8
Layer 1
 62
     7
370
    13
100
AcDbVertex
100
AcDb2dVertex
 10
389.0480730779728
 20
-129.6458333009219
 30
0.0
  0
VERTEX
  5
78
330
76
100
AcDbEntity
  8
Layer 1
 62
     7
370
    13
100
AcDbVertex
100
AcDb2dVertex
 10
388.9374999027656
 20
-122.6577495496692
 30
0.0
  0
VERTEX
  5
79
330
76
100
AcDbEntity
  8
Layer 1
 62
     7
370
    13
100
AcDbVertex
100
AcDb2dVertex
 10
393.0602600598334
 20
-122.5902777471302
 30
0.0
  0
VERTEX
  5
7A
330
76
100
AcDbEntity
  8
Layer 1
 62
     7
370
    13
100
AcDbVertex
100
AcDb2dVertex
 10
393.1708332350406
 20
-129.5783614983822
 30
0.0
  0
VERTEX
  5
7B
330
76
100
AcDbEntity
  8
Layer 1
 62
     7
370
    13
100
AcDbVertex
100
AcDb2dVertex
 10
389.0480730779728
 20
-129.6458333009219
 30
0.0
  0
SEQEND
  5
7C
330
76
100
AcDbEntity
  8
Layer 1
 62
     7
370
    13
  0
SPLINE
  5
7D
330
1F
100
AcDbEntity
  8
Layer 1
 62
     7
370
    13
100
AcDbSpline
210
0.0
220
0.0
230
1.0
 70
    11
 71
     3
 72
    17
 73
    13
 74
     0
 42
0.0000000001
 43
0.0000000001
 12
1.0
 22
0.0
 32
0.0
 13
1.0
 23
0.0
 33
0.0
 40
0.0
 40
0.0
 40
0.0
 40
0.0
 40
1.0
 40
1.0
 40
1.0
 40
2.0
 40
2.0
 40
2.0
 40
3.0
 40
3.0
 40
3.0
 40
4.0
 40
4.0
 40
4.0
 40
4.0
 10
151.8708332953656
 20
-179.2111110663083
 30
0.0
 10
151.8708332953656
 20
-187.4915470004759
 30
0.0
 10
145.1582136777256
 20
-194.2041666181156
 30
0.0
 10
136.8777777435583
 20
-194.2041666181156
 30
0.0
 10
128.5973418093914
 20
-194.2041666181156
 30
0.0
 10
121.8847221917511
 20
-187.4915470004759
 30
0.0
 10
121.8847221917511
 20
-179.2111110663083
 30
0.0
 10
121.8847221917511
 20
-170.9306751321408
 30
0.0
 10
128.5973418093914
 20
-164.2180555145011
 30
0.0
 10
136.8777777435583
 20
-164.2180555145011
 30
0.0
 10
145.1582136777256
 20
-164.2180555145011
 30
0.0
 10
151.8708332953656
 20
-170.9306751321408
 30
0.0
 10
151.8708332953656
 20
-179.2111110663083
 30
0.0
  0
POLYLINE
  5
7E
330
1F
100
AcDbEntity
  8
Layer 1
 62
     7
370
    13
100
AcDb2dPolyline
 66
     1
 10
0.0
 20
0.0
 30
0.0
  0
VERTEX
  5
7F
330
7E
100
AcDbEntity
  8
Layer 1
 62
     7
370
    13
100
AcDbVertex
100
AcDb2dVertex
 10
116.5930555264073
 20
-181.151388843601
 30
0.0
  0
VERTEX
  5
80
330
7E
100
AcDbEntity
  8
Layer 1
 62
     7
370
    13
100
AcDbVertex
100
AcDb2dVertex
 10
109.5374999726156
 20
-181.151388843601
 30
0.0
  0
VERTEX
  5
81
330
7E
100
AcDbEntity
  8
Layer 1
 62
     7
370
    13
100
AcDbVertex
100
AcDb2dVertex
 10
109.5374999726156
 20
-176.9180555113261
 30
0.0
  0
VERTEX
  5
82
330
7E
100
AcDbEntity
  8
Layer 1
 62
     7
370
    13
100
AcDbVertex
100
AcDb2dVertex
 10
116.5930555264073
 20
-176.9180555113261
 30
0.0
  0
VERTEX
  5
83
330
7E
100
AcDbEntity
  8
Layer 1
 62
     7
370
    13
100
AcDbVertex
100
AcDb2dVertex
 10
116.5930555264073
 20
-181.151388843601
 30
0.0
  0
SEQEND
  5
84
330
7E
100
AcDbEntity
  8
Layer 1
 62
     7
370
    13
  0
POLYLINE
  5
85
330
1F
100
AcDbEntity
  8
Layer 1
 62
     7
370
    13
100
AcDb2dPolyline
 66
     1
 10
0.0
 20
0.0
 30
0.0
  0
VERTEX
  5
86
330
85
100
AcDbEntity
  8
Layer 1
 62
     7
370
    13
100
AcDbVertex
100
AcDb2dVertex
 10
164.9236110698802
 20
-181.151388843601
 30
0.0
  0
VERTEX
  5
87
330
85
100
AcDbEntity
  8
Layer 1
 62
     7
370
    13
100
AcDbVertex
100
AcDb2dVertex
 10
157.8680555160886
 20
-181.151388843601
 30
0.0
  0
VERTEX
  5
88
330
85
100
AcDbEntity
  8
Layer 1
 62
     7
370
    13
100
AcDbVertex
100
AcDb2dVertex
 10
157.8680555160886
 20
-176.9180555113261
 30
0.0
  0
VERTEX
  5
89
330
85
100
AcDbEntity
  8
Layer 1
 62
     7
370
    13
100
AcDbVertex
100
AcDb2dVertex
 10
164.9236110698802
 20
-176.9180555113261
 30
0.0
  0
VERTEX
  5
8A
330
85
100
AcDbEntity
  8
Layer 1
 62
     7
370
    13
100
AcDbVertex
100
AcDb2dVertex
 10
164.9236110698802
 20
-181.151388843601
 30
0.0
  0
SEQEND
  5
8B
330
85
100
AcDbEntity
  8
Layer 1
 62
     7
370
    13
  0
SPLINE
  5
8C
330
1F
100
AcDbEntity
  8
Layer 1
 62
     7
370
    13
100
AcDbSpline
210
0.0
220
0.0
230
1.0
 70
    11
 71
     3
 72
    17
 73
    13
 74
     0
 42
0.0000000001
 43
0.0000000001
 12
1.0
 22
0.0
 32
0.0
 13
1.0
 23
0.0
 33
0.0
 40
0.0
 40
0.0
 40
0.0
 40
0.0
 40
1.0
 40
1.0
 40
1.0
 40
2.0
 40
2.0
 40
2.0
 40
3.0
 40
3.0
 40
3.0
 40
4.0
 40
4.0
 40
4.0
 40
4.0
 10
334.9624999162594
 20
-179.2111110663083
 30
0.0
 10
334.9624999162594
 20
-187.4915470004759
 30
0.0
 10
328.2498802986196
 20
-194.2041666181156
 30
0.0
 10
319.9694443644521
 20
-194.2041666181156
 30
0.0
 10
311.6890084302846
 20
-194.2041666181156
 30
0.0
 10
304.9763888126448
 20
-187.4915470004759
 30
0.0
 10
304.9763888126448
 20
-179.2111110663083
 30
0.0
 10
304.9763888126448
 20
-170.9306751321408
 30
0.0
 10
311.6890084302846
 20
-164.2180555145011
 30
0.0
 10
319.9694443644521
 20
-164.2180555145011
 30
0.0
 10
328.2498802986196
 20
-164.2180555145011
 30
0.0
 10
334.9624999162594
 20
-170.9306751321408
 30
0.0
 10
334.9624999162594
 20
-179.2111110663083
 30
0.0
  0
POLYLINE
  5
8D
330
1F
100
AcDbEntity
  8
Layer 1
 62
     7
370
    13
100
AcDb2dPolyline
 66
     1
 10
0.0
 20
0.0
 30
0.0
  0
VERTEX
  5
8E
330
8D
100
AcDbEntity
  8
Layer 1
 62
     7
370
    13
100
AcDbVertex
100
AcDb2dVertex
 10
299.684722147301
 20
-181.151388843601
 30
0.0
  0
VERTEX
  5
8F
330
8D
100
AcDbEntity
  8
Layer 1
 62
     7
370
    13
100
AcDbVertex
100
AcDb2dVertex
 10
292.6291665935094
 20
-181.151388843601
 30
0.0
  0
VERTEX
  5
90
330
8D
100
AcDbEntity
  8
Layer 1
 62
     7
370
    13
100
AcDbVertex
100
AcDb2dVertex
 10
292.6291665935094
 20
-176.9180555113261
 30
0.0
  0
VERTEX
  5
91
330
8D
100
AcDbEntity
  8
Layer 1
 62
     7
370
    13
100
AcDbVertex
100
AcDb2dVertex
 10
299.684722147301
 20
-176.9180555113261
 30
0.0
  0
VERTEX
  5
92
330
8D
100
AcDbEntity
  8
Layer 1
 62
     7
370
    13
100
AcDbVertex
100
AcDb2dVertex
 10
299.684722147301
 20
-181.151388843601
 30
0.0
  0
SEQEND
  5
93
330
8D
100
AcDbEntity
  8
Layer 1
 62
     7
370
    13
  0
POLYLINE
  5
94
330
1F
100
AcDbEntity
  8
Layer 1
 62
     7
370
    13
100
AcDb2dPolyline
 66
     1
 10
0.0
 20
0.0
 30
0.0
  0
VERTEX
  5
95
330
94
100
AcDbEntity
  8
Layer 1
 62
     7
370
    13
100
AcDbVertex
100
AcDb2dVertex
 10
348.015277690774
 20
-181.151388843601
 30
0.0
  0
VERTEX
  5
96
330
94
100
AcDbEntity
  8
Layer 1
 62
     7
370
    13
100
AcDbVertex
100
AcDb2dVertex
 10
340.9597221369823
 20
-181.151388843601
 30
0.0
  0
VERTEX
  5
97
330
94
100
AcDbEntity
  8
Layer 1
 62
     7
370
    13
100
AcDbVertex
100
AcDb2dVertex
 10
340.9597221369823
 20
-176.9180555113261
 30
0.0
  0
VERTEX
  5
98
330
94
100
AcDbEntity
  8
Layer 1
 62
     7
370
    13
100
AcDbVertex
100
AcDb2dVertex
 10
348.015277690774
 20
-176.9180555113261
 30
0.0
  0
VERTEX
  5
99
330
94
100
AcDbEntity
  8
Layer 1
 62
     7
370
    13
100
AcDbVertex
100
AcDb2dVertex
 10
348.015277690774
 20
-181.151388843601
 30
0.0
  0
SEQEND
  5
9A
330
94
100
AcDbEntity
  8
Layer 1
 62
     7
370
    13
  0
POLYLINE
  5
9B
330
1F
100
AcDbEntity
  8
Layer 1
 62
     7
370
    13
100
AcDb2dPolyline
 66
     1
 10
0.0
 20
0.0
 30
0.0
  0
VERTEX
  5
9C
330
9B
100
AcDbEntity
  8
Layer 1
 62
     7
370
    13
100
AcDbVertex
100
AcDb2dVertex
 10
413.984722118726
 20
84.8430555343448
 30
0.0
  0
VERTEX
  5
9D
330
9B
100
AcDbEntity
  8
Layer 1
 62
     7
370
    13
100
AcDbVertex
100
AcDb2dVertex
 10
413.984722118726
 20
-16.05138888487604
 30
0.0
  0
VERTEX
  5
9E
330
9B
100
AcDbEntity
  8
Layer 1
 62
     7
370
    13
100
AcDbVertex
100
AcDb2dVertex
 10
247.8263888269323
 20
-16.05138888487604
 30
0.0
  0
VERTEX
  5
9F
330
9B
100
AcDbEntity
  8
Layer 1
 62
     7
370
    13
100
AcDbVertex
100
AcDb2dVertex
 10
247.8263888269323
 20
84.8430555343448
 30
0.0
  0
VERTEX
  5
A0
330
9B
100
AcDbEntity
  8
Layer 1
 62
     7
370
    13
100
AcDbVertex
100
AcDb2dVertex
 10
413.984722118726
 20
84.8430555343448
 30
0.0
  0
SEQEND
  5
A1
330
9B
100
AcDbEntity
  8
Layer 1
 62
     7
370
    13
  0
POLYLINE
  5
A2
330
1F
100
AcDbEntity
  8
Layer 1
 62
     7
370
    13
100
AcDb2dPolyline
 66
     1
 10
0.0
 20
0.0
 30
0.0
  0
VERTEX
  5
A3
330
A2
100
AcDbEntity
  8
Layer 1
 62
     7
370
    13
100
AcDbVertex
100
AcDb2dVertex
 10
438.3263887793073
 20
-311.3263888110573
 30
0.0
  0
VERTEX
  5
A4
330
A2
100
AcDbEntity
  8
Layer 1
 62
     7
370
    13
100
AcDbVertex
100
AcDb2dVertex
 10
19.22638888408229
 20
-311.3263888110573
 30
0.0
  0
VERTEX
  5
A5
330
A2
100
AcDbEntity
  8
Layer 1
 62
     7
370
    13
100
AcDbVertex
100
AcDb2dVertex
 10
19.22638888408229
 20
107.7736110841677
 30
0.0
  0
VERTEX
  5
A6
330
A2
100
AcDbEntity
  8
Layer 1
 62
     7
370
    13
100
AcDbVertex
100
AcDb2dVertex
 10
438.3263887793073
 20
107.7736110841677
 30
0.0
  0
VERTEX
  5
A7
330
A2
100
AcDbEntity
  8
Layer 1
 62
     7
370
    13
100
AcDbVertex
100
AcDb2dVertex
 10
438.3263887793073
 20
-311.3263888110573
 30
0.0
  0
SEQEND
  5
A8
330
A2
100
AcDbEntity
  8
Layer 1
 62
     7
370
    13
  0
POLYLINE
  5
A9
330
1F
100
AcDbEntity
  8
Layer 1
 62
     7
370
    13
100
AcDb2dPolyline
 66
     1
 10
0.0
 20
0.0
 30
0.0
  0
VERTEX
  5
AA
330
A9
100
AcDbEntity
  8
Layer 1
 62
     7
370
    13
100
AcDbVertex
100
AcDb2dVertex
 10
270.4041665990657
 20
-155.3986110722615
 30
0.0
  0
VERTEX
  5
AB
330
A9
100
AcDbEntity
  8
Layer 1
 62
     7
370
    13
100
AcDbVertex
100
AcDb2dVertex
 10
186.4430555089448
 20
-155.3986110722615
 30
0.0
  0
VERTEX
  5
AC
330
A9
100
AcDbEntity
  8
Layer 1
 62
     7
370
    13
100
AcDbVertex
100
AcDb2dVertex
 10
186.4430555089448
 20
-71.43749998214062
 30
0.0
  0
VERTEX
  5
AD
330
A9
100
AcDbEntity
  8
Layer 1
 62
     7
370
    13
100
AcDbVertex
100
AcDb2dVertex
 10
270.4041665990657
 20
-71.43749998214062
 30
0.0
  0
VERTEX
  5
AE
330
A9
100
AcDbEntity
  8
Layer 1
 62
     7
370
    13
100
AcDbVertex
100
AcDb2dVertex
 10
270.4041665990657
 20
-155.3986110722615
 30
0.0
  0
SEQEND
  5
AF
330
A9
100
AcDbEntity
  8
Layer 1
 62
     7
370
    13
  0
SPLINE
  5
B0
330
1F
100
AcDbEntity
  8
Layer 1
 62
     7
370
    13
100
AcDbSpline
210
0.0
220
0.0
230
1.0
 70
    11
 71
     3
 72
    17
 73
    13
 74
     0
 42
0.0000000001
 43
0.0000000001
 12
1.0
 22
0.0
 32
0.0
 13
1.0
 23
0.0
 33
0.0
 40
0.0
 40
0.0
 40
0.0
 40
0.0
 40
1.0
 40
1.0
 40
1.0
 40
2.0
 40
2.0
 40
2.0
 40
3.0
 40
3.0
 40
3.0
 40
4.0
 40
4.0
 40
4.0
 40
4.0
 10
342.3708332477406
 20
-43.92083332235313
 30
0.0
 10
342.3708332477406
 20
-50.15551449631456
 30
0.0
 10
337.3166255356358
 20
-55.20972220841979
 30
0.0
 10
331.0819443616739
 20
-55.20972220841979
 30
0.0
 10
324.8472631877129
 20
-55.20972220841979
 30
0.0
 10
319.7930554756073
 20
-50.15551449631456
 30
0.0
 10
319.7930554756073
 20
-43.92083332235313
 30
0.0
 10
319.7930554756073
 20
-37.6861521483917
 30
0.0
 10
324.8472631877129
 20
-32.63194443628646
 30
0.0
 10
331.0819443616739
 20
-32.63194443628646
 30
0.0
 10
337.3166255356358
 20
-32.63194443628646
 30
0.0
 10
342.3708332477406
 20
-37.6861521483917
 30
0.0
 10
342.3708332477406
 20
-43.92083332235313
 30
0.0
  0
SPLINE
  5
B1
330
1F
100
AcDbEntity
  8
Layer 1
 62
     7
370
    13
100
AcDbSpline
210
0.0
220
0.0
230
1.0
 70
    11
 71
     3
 72
    17
 73
    13
 74
     0
 42
0.0000000001
 43
0.0000000001
 12
1.0
 22
0.0
 32
0.0
 13
1.0
 23
0.0
 33
0.0
 40
0.0
 40
0.0
 40
0.0
 40
0.0
 40
1.0
 40
1.0
 40
1.0
 40
2.0
 40
2.0
 40
2.0
 40
3.0
 40
3.0
 40
3.0
 40
4.0
 40
4.0
 40
4.0
 40
4.0
 10
419.981944339449
 20
-16.9333333291
 30
0.0
 10
419.981944339449
 20
-17.81008536918829
 30
0.0
 10
419.2711963799342
 20
-18.52083332870313
 30
0.0
 10
418.3944443398458
 20
-18.52083332870313
 30
0.0
 10
417.5176922997576
 20
-18.52083332870313
 30
0.0
 10
416.8069443402428
 20
-17.81008536918829
 30
0.0
 10
416.8069443402428
 20
-16.9333333291
 30
0.0
 10
416.8069443402428
 20
-16.05658128901171
 30
0.0
 10
417.5176922997576
 20
-15.34583332949687
 30
0.0
 10
418.3944443398458
 20
-15.34583332949687
 30
0.0
 10
419.2711963799342
 20
-15.34583332949687
 30
0.0
 10
419.981944339449
 20
-16.05658128901171
 30
0.0
 10
419.981944339449
 20
-16.9333333291
 30
0.0
  0
SPLINE
  5
B2
330
1F
100
AcDbEntity
  8
Layer 1
 62
     7
370
    13
100
AcDbSpline
210
0.0
220
0.0
230
1.0
 70
    11
 71
     3
 72
    17
 73
    13
 74
     0
 42
0.0000000001
 43
0.0000000001
 12
1.0
 22
0.0
 32
0.0
 13
1.0
 23
0.0
 33
0.0
 40
0.0
 40
0.0
 40
0.0
 40
0.0
 40
1.0
 40
1.0
 40
1.0
 40
2.0
 40
2.0
 40
2.0
 40
3.0
 40
3.0
 40
3.0
 40
4.0
 40
4.0
 40
4.0
 40
4.0
 10
419.981944339449
 20
85.37222220087916
 30
0.0
 10
419.981944339449
 20
84.49547016079087
 30
0.0
 10
419.2711963799342
 20
83.78472220127604
 30
0.0
 10
418.3944443398458
 20
83.78472220127604
 30
0.0
 10
417.5176922997576
 20
83.78472220127604
 30
0.0
 10
416.8069443402428
 20
84.49547016079087
 30
0.0
 10
416.8069443402428
 20
85.37222220087916
 30
0.0
 10
416.8069443402428
 20
86.24897424096746
 30
0.0
 10
417.5176922997576
 20
86.95972220048229
 30
0.0
 10
418.3944443398458
 20
86.95972220048229
 30
0.0
 10
419.2711963799342
 20
86.95972220048229
 30
0.0
 10
419.981944339449
 20
86.24897424096746
 30
0.0
 10
419.981944339449
 20
85.37222220087916
 30
0.0
  0
SPLINE
  5
B3
330
1F
100
AcDbEntity
  8
Layer 1
 62
     7
370
    13
100
AcDbSpline
210
0.0
220
0.0
230
1.0
 70
    11
 71
     3
 72
    17
 73
    13
 74
     0
 42
0.0000000001
 43
0.0000000001
 12
1.0
 22
0.0
 32
0.0
 13
1.0
 23
0.0
 33
0.0
 40
0.0
 40
0.0
 40
0.0
 40
0.0
 40
1.0
 40
1.0
 40
1.0
 40
2.0
 40
2.0
 40
2.0
 40
3.0
 40
3.0
 40
3.0
 40
4.0
 40
4.0
 40
4.0
 40
4.0
 10
245.7097221607948
 20
85.37222220087916
 30
0.0
 10
245.7097221607948
 20
84.49547016079087
 30
0.0
 10
244.9989742012797
 20
83.78472220127604
 30
0.0
 10
244.1222221611917
 20
83.78472220127604
 30
0.0
 10
243.2454701211034
 20
83.78472220127604
 30
0.0
 10
242.5347221615885
 20
84.49547016079087
 30
0.0
 10
242.5347221615885
 20
85.37222220087916
 30
0.0
 10
242.5347221615885
 20
86.24897424096746
 30
0.0
 10
243.2454701211034
 20
86.95972220048229
 30
0.0
 10
244.1222221611917
 20
86.95972220048229
 30
0.0
 10
244.9989742012797
 20
86.95972220048229
 30
0.0
 10
245.7097221607948
 20
86.24897424096746
 30
0.0
 10
245.7097221607948
 20
85.37222220087916
 30
0.0
  0
SPLINE
  5
B4
330
1F
100
AcDbEntity
  8
Layer 1
 62
     7
370
    13
100
AcDbSpline
210
0.0
220
0.0
230
1.0
 70
    11
 71
     3
 72
    17
 73
    13
 74
     0
 42
0.0000000001
 43
0.0000000001
 12
1.0
 22
0.0
 32
0.0
 13
1.0
 23
0.0
 33
0.0
 40
0.0
 40
0.0
 40
0.0
 40
0.0
 40
1.0
 40
1.0
 40
1.0
 40
2.0
 40
2.0
 40
2.0
 40
3.0
 40
3.0
 40
3.0
 40
4.0
 40
4.0
 40
4.0
 40
4.0
 10
245.7097221607948
 20
-16.58055555141042
 30
0.0
 10
245.7097221607948
 20
-17.45730759149871
 30
0.0
 10
244.9989742012797
 20
-18.16805555101354
 30
0.0
 10
244.1222221611917
 20
-18.16805555101354
 30
0.0
 10
243.2454701211034
 20
-18.16805555101354
 30
0.0
 10
242.5347221615885
 20
-17.45730759149871
 30
0.0
 10
242.5347221615885
 20
-16.58055555141042
 30
0.0
 10
242.5347221615885
 20
-15.70380351132213
 30
0.0
 10
243.2454701211034
 20
-14.99305555180729
 30
0.0
 10
244.1222221611917
 20
-14.99305555180729
 30
0.0
 10
244.9989742012797
 20
-14.99305555180729
 30
0.0
 10
245.7097221607948
 20
-15.70380351132213
 30
0.0
 10
245.7097221607948
 20
-16.58055555141042
 30
0.0
  0
POLYLINE
  5
B5
330
1F
100
AcDbEntity
  8
Layer 1
 62
     7
370
    13
100
AcDb2dPolyline
 66
     1
 10
0.0
 20
0.0
 30
0.0
  0
VERTEX
  5
B6
330
B5
100
AcDbEntity
  8
Layer 1
 62
     7
370
    13
100
AcDbVertex
100
AcDb2dVertex
 10
404.8124998987969
 20
-278.8708332636156
 30
0.0
  0
VERTEX
  5
B7
330
B5
100
AcDbEntity
  8
Layer 1
 62
     7
370
    13
100
AcDbVertex
100
AcDb2dVertex
 10
377.648611016699
 20
-278.8708332636156
 30
0.0
  0
VERTEX
  5
B8
330
B5
100
AcDbEntity
  8
Layer 1
 62
     7
370
    13
100
AcDbVertex
100
AcDb2dVertex
 10
377.648611016699
 20
-259.8208332683781
 30
0.0
  0
VERTEX
  5
B9
330
B5
100
AcDbEntity
  8
Layer 1
 62
     7
370
    13
100
AcDbVertex
100
AcDb2dVertex
 10
404.8124998987969
 20
-259.8208332683781
 30
0.0
  0
VERTEX
  5
BA
330
B5
100
AcDbEntity
  8
Layer 1
 62
     7
370
    13
100
AcDbVertex
100
AcDb2dVertex
 10
404.8124998987969
 20
-278.8708332636156
 30
0.0
  0
SEQEND
  5
BB
330
B5
100
AcDbEntity
  8
Layer 1
 62
     7
370
    13
  0
SPLINE
  5
BC
330
1F
100
AcDbEntity
  8
Layer 1
 62
     7
370
    13
100
AcDbSpline
210
0.0
220
0.0
230
1.0
 70
    11
 71
     3
 72
    17
 73
    13
 74
     0
 42
0.0000000001
 43
0.0000000001
 12
1.0
 22
0.0
 32
0.0
 13
1.0
 23
0.0
 33
0.0
 40
0.0
 40
0.0
 40
0.0
 40
0.0
 40
1.0
 40
1.0
 40
1.0
 40
2.0
 40
2.0
 40
2.0
 40
3.0
 40
3.0
 40
3.0
 40
4.0
 40
4.0
 40
4.0
 40
4.0
 10
373.0624999067344
 20
-269.5222221548417
 30
0.0
 10
373.0624999067344
 20
-270.5938079816161
 30
0.0
 10
372.1938079562167
 20
-271.4624999321344
 30
0.0
 10
371.1222221294417
 20
-271.4624999321344
 30
0.0
 10
370.0506363026673
 20
-271.4624999321344
 30
0.0
 10
369.181944352149
 20
-270.5938079816161
 30
0.0
 10
369.181944352149
 20
-269.5222221548417
 30
0.0
 10
369.181944352149
 20
-268.4506363280672
 30
0.0
 10
370.0506363026673
 20
-267.581944377549
 30
0.0
 10
371.1222221294417
 20
-267.581944377549
 30
0.0
 10
372.1938079562167
 20
-267.581944377549
 30
0.0
 10
373.0624999067344
 20
-268.4506363280672
 30
0.0
 10
373.0624999067344
 20
-269.5222221548417
 30
0.0
  0
SPLINE
  5
BD
330
1F
100
AcDbEntity
  8
Layer 1
 62
     7
370
    13
100
AcDbSpline
210
0.0
220
0.0
230
1.0
 70
    11
 71
     3
 72
    17
 73
    13
 74
     0
 42
0.0000000001
 43
0.0000000001
 12
1.0
 22
0.0
 32
0.0
 13
1.0
 23
0.0
 33
0.0
 40
0.0
 40
0.0
 40
0.0
 40
0.0
 40
1.0
 40
1.0
 40
1.0
 40
2.0
 40
2.0
 40
2.0
 40
3.0
 40
3.0
 40
3.0
 40
4.0
 40
4.0
 40
4.0
 40
4.0
 10
412.9263887856573
 20
-269.5222221548417
 30
0.0
 10
412.9263887856573
 20
-270.5938079816161
 30
0.0
 10
412.0576968351397
 20
-271.4624999321344
 30
0.0
 10
410.9861110083646
 20
-271.4624999321344
 30
0.0
 10
409.9145251815902
 20
-271.4624999321344
 30
0.0
 10
409.0458332310719
 20
-270.5938079816161
 30
0.0
 10
409.0458332310719
 20
-269.5222221548417
 30
0.0
 10
409.0458332310719
 20
-268.4506363280672
 30
0.0
 10
409.9145251815902
 20
-267.581944377549
 30
0.0
 10
410.9861110083646
 20
-267.581944377549
 30
0.0
 10
412.0576968351397
 20
-267.581944377549
 30
0.0
 10
412.9263887856573
 20
-268.4506363280672
 30
0.0
 10
412.9263887856573
 20
-269.5222221548417
 30
0.0
  0
SPLINE
  5
BE
330
1F
100
AcDbEntity
  8
Layer 1
 62
     7
370
    13
100
AcDbSpline
210
0.0
220
0.0
230
1.0
 70
    11
 71
     3
 72
    17
 73
    13
 74
     0
 42
0.0000000001
 43
0.0000000001
 12
1.0
 22
0.0
 32
0.0
 13
1.0
 23
0.0
 33
0.0
 40
0.0
 40
0.0
 40
0.0
 40
0.0
 40
1.0
 40
1.0
 40
1.0
 40
2.0
 40
2.0
 40
2.0
 40
3.0
 40
3.0
 40
3.0
 40
4.0
 40
4.0
 40
4.0
 40
4.0
 10
397.4041665673157
 20
-230.8930554978323
 30
0.0
 10
397.4041665673157
 20
-234.2052298714987
 30
0.0
 10
394.7191187202598
 20
-236.8902777185552
 30
0.0
 10
391.4069443465928
 20
-236.8902777185552
 30
0.0
 10
388.094769972927
 20
-236.8902777185552
 30
0.0
 10
385.4097221258698
 20
-234.2052298714987
 30
0.0
 10
385.4097221258698
 20
-230.8930554978323
 30
0.0
 10
385.4097221258698
 20
-227.5808811241659
 30
0.0
 10
388.094769972927
 20
-224.8958332771094
 30
0.0
 10
391.4069443465928
 20
-224.8958332771094
 30
0.0
 10
394.7191187202598
 20
-224.8958332771094
 30
0.0
 10
397.4041665673157
 20
-227.5808811241659
 30
0.0
 10
397.4041665673157
 20
-230.8930554978323
 30
0.0
  0
POLYLINE
  5
BF
330
1F
100
AcDbEntity
  8
Layer 1
 62
     7
370
    13
100
AcDb2dPolyline
 66
     1
 10
0.0
 20
0.0
 30
0.0
  0
VERTEX
  5
C0
330
BF
100
AcDbEntity
  8
Layer 1
 62
     7
370
    13
100
AcDbVertex
100
AcDb2dVertex
 10
457.3763887745448
 20
54.85694443073021
 30
0.0
  0
VERTEX
  5
C1
330
BF
100
AcDbEntity
  8
Layer 1
 62
     7
370
    13
100
AcDbVertex
100
AcDb2dVertex
 10
67.0252854801145
 20
54.85694443073021
 30
0.0
  0
VERTEX
  5
C2
330
BF
100
AcDbEntity
  8
Layer 1
 62
     7
370
    13
100
AcDbVertex
100
AcDb2dVertex
 10
0.1763888888447917
 20
54.85694443073021
 30
0.0
  0
SEQEND
  5
C3
330
BF
100
AcDbEntity
  8
Layer 1
 62
     7
370
    13
  0
POLYLINE
  5
C4
330
1F
100
AcDbEntity
  8
Layer 1
 62
     7
370
    13
100
AcDb2dPolyline
 66
     1
 10
0.0
 20
0.0
 30
0.0
  0
VERTEX
  5
C5
330
C4
100
AcDbEntity
  8
Layer 1
 62
     7
370
    13
100
AcDbVertex
100
AcDb2dVertex
 10
137.0541666324031
 20
-23.45972221635729
 30
0.0
  0
VERTEX
  5
C6
330
C4
100
AcDbEntity
  8
Layer 1
 62
     7
370
    13
100
AcDbVertex
100
AcDb2dVertex
 10
137.0541666324031
 20
54.70759962951205
 30
0.0
  0
VERTEX
  5
C7
330
C4
100
AcDbEntity
  8
Layer 1
 62
     7
370
    13
100
AcDbVertex
100
AcDb2dVertex
 10
137.0541666324031
 20
-330.3763888062948
 30
0.0
  0
SEQEND
  5
C8
330
C4
100
AcDbEntity
  8
Layer 1
 62
     7
370
    13
  0
POLYLINE
  5
C9
330
1F
100
AcDbEntity
  8
Layer 1
 62
     7
370
    13
100
AcDb2dPolyline
 66
     1
 10
0.0
 20
0.0
 30
0.0
  0
VERTEX
  5
CA
330
C9
100
AcDbEntity
  8
Layer 1
 62
     7
370
    13
100
AcDbVertex
100
AcDb2dVertex
 10
0.1763888888447917
 20
-101.7763888634448
 30
0.0
  0
VERTEX
  5
CB
330
C9
100
AcDbEntity
  8
Layer 1
 62
     7
370
    13
100
AcDbVertex
100
AcDb2dVertex
 10
457.3763887745448
 20
-101.7763888634448
 30
0.0
  0
SEQEND
  5
CC
330
C9
100
AcDbEntity
  8
Layer 1
 62
     7
370
    13
  0
POLYLINE
  5
CD
330
1F
100
AcDbEntity
  8
Layer 1
 62
     7
370
    13
100
AcDb2dPolyline
 66
     1
 10
0.0
 20
0.0
 30
0.0
  0
VERTEX
  5
CE
330
CD
100
AcDbEntity
  8
Layer 1
 62
     7
370
    13
100
AcDbVertex
100
AcDb2dVertex
 10
319.7930554756073
 20
-101.7763888634448
 30
0.0
  0
VERTEX
  5
CF
330
CD
100
AcDbEntity
  8
Layer 1
 62
     7
370
    13
100
AcDbVertex
100
AcDb2dVertex
 10
319.7930554756073
 20
-179.1472221774334
 30
0.0
  0
VERTEX
  5
D0
330
CD
100
AcDbEntity
  8
Layer 1
 62
     7
370
    13
100
AcDbVertex
100
AcDb2dVertex
 10
320.0603973893462
 20
-259.4680554906885
 30
0.0
  0
SEQEND
  5
D1
330
CD
100
AcDbEntity
  8
Layer 1
 62
     7
370
    13
  0
POLYLINE
  5
D2
330
1F
100
AcDbEntity
  8
Layer 1
 62
     7
370
    13
100
AcDb2dPolyline
 66
     1
 10
0.0
 20
0.0
 30
0.0
  0
VERTEX
  5
D3
330
D2
100
AcDbEntity
  8
Layer 1
 62
     7
370
    13
100
AcDbVertex
100
AcDb2dVertex
 10
137.0118247186078
 20
-179.1472221774347
 30
0.0
  0
VERTEX
  5
D9
330
D2
100
AcDbEntity
  8
0
100
AcDbVertex
100
AcDb2dVertex
 10
137.0118247186078
 20
-179.1472221774347
 30
0.0
  0
SEQEND
  5
D4
330
D2
100
AcDbEntity
  8
Layer 1
 62
     7
370
    13
  0
POLYLINE
  5
D5
330
1F
100
AcDbEntity
  8
Layer 1
 62
     7
370
    13
100
AcDb2dPolyline
 66
     1
 10
0.0
 20
0.0
 30
0.0
  0
VERTEX
  5
D6
330
D5
100
AcDbEntity
  8
Layer 1
 62
     7
370
    13
100
AcDbVertex
100
AcDb2dVertex
 10
137.4069444100927
 20
-259.4680554906885
 30
0.0
  0
VERTEX
  5
D7
330
D5
100
AcDbEntity
  8
Layer 1
 62
     7
370
    13
100
AcDbVertex
100
AcDb2dVertex
 10
320.1458332532969
 20
-259.4680554906885
 30
0.0
  0
SEQEND
  5
D8
330
D5
100
AcDbEntity
  8
Layer 1
 62
     7
370
    13
  0
ENDSEC
  0
SECTION
  2
OBJECTS
  0
DICTIONARY
  5
C
330
0
100
AcDbDictionary
281
     1
  3
ACAD_GROUP
350
D
  3
ACAD_LAYOUT
350
1A
  3
ACAD_MATERIAL
350
3B
  3
ACAD_MLEADERSTYLE
350
DB
  3
ACAD_MLINESTYLE
350
17
  3
ACAD_PLOTSETTINGS
350
19
  3
ACAD_PLOTSTYLENAME
350
E
  3
ACAD_TABLESTYLE
350
DA
  3
ACAD_VISUALSTYLE
350
2A
  0
SUN
  5
3F
330
29
100
AcDbSun
 90
        1
290
     0
 63
     7
421
 16777215
 40
1.0
291
     1
 91
  2455826
 92
 54000000
292
     0
 70
     2
 71
   256
280
     1
  0
DICTIONARY
  5
D
102
{ACAD_REACTORS
330
C
102
}
330
C
100
AcDbDictionary
281
     1
  0
DICTIONARY
  5
1A
102
{ACAD_REACTORS
330
C
102
}
330
C
100
AcDbDictionary
281
     1
  3
Layout1
350
1E
  3
Layout2
350
26
  3
Model
350
22
  0
DICTIONARY
  5
3B
102
{ACAD_REACTORS
330
C
102
}
330
C
100
AcDbDictionary
281
     1
  3
ByBlock
350
3D
  3
ByLayer
350
3C
  3
Global
350
3E
  0
DICTIONARY
  5
DB
102
{ACAD_REACTORS
330
C
102
}
330
C
100
AcDbDictionary
281
     1
  0
DICTIONARY
  5
17
102
{ACAD_REACTORS
330
C
102
}
330
C
100
AcDbDictionary
281
     1
  3
Standard
350
18
  0
DICTIONARY
  5
19
102
{ACAD_REACTORS
330
C
102
}
330
C
100
AcDbDictionary
281
     1
  0
ACDBDICTIONARYWDFLT
  5
E
102
{ACAD_REACTORS
330
C
102
}
330
C
100
AcDbDictionary
281
     1
  3
Normal
350
F
100
AcDbDictionaryWithDefault
340
F
  0
DICTIONARY
  5
DA
102
{ACAD_REACTORS
330
C
102
}
330
C
100
AcDbDictionary
281
     1
  0
DICTIONARY
  5
2A
102
{ACAD_REACTORS
330
C
102
}
330
C
100
AcDbDictionary
281
     1
  3
2dWireframe
350
2F
  3
3D Hidden
350
31
  3
3dWireframe
350
30
  3
Basic
350
32
  3
Brighten
350
36
  3
ColorChange
350
3A
  3
Conceptual
350
34
  3
Dim
350
35
  3
Facepattern
350
39
  3
Flat
350
2B
  3
FlatWithEdges
350
2C
  3
Gouraud
350
2D
  3
GouraudWithEdges
350
2E
  3
Linepattern
350
38
  3
Realistic
350
33
  3
Thicken
350
37
  0
LAYOUT
  5
1E
102
{ACAD_REACTORS
330
1A
102
}
330
1A
100
AcDbPlotSettings
  1

  2
none_device
  4

  6

 40
0.0
 41
0.0
 42
0.0
 43
0.0
 44
0.0
 45
0.0
 46
0.0
 47
0.0
 48
0.0
 49
0.0
140
0.0
141
0.0
142
1.0
143
1.0
 70
   688
 72
     0
 73
     0
 74
     5
  7

 75
    16
 76
     0
 77
     2
 78
   300
147
1.0
148
0.0
149
0.0
100
AcDbLayout
  1
Layout1
 70
     1
 71
     1
 10
0.0
 20
0.0
 11
12.0
 21
9.0
 12
0.0
 22
0.0
 32
0.0
 14
1.000000000000000E+20
 24
1.000000000000000E+20
 34
1.000000000000000E+20
 15
-1.000000000000000E+20
 25
-1.000000000000000E+20
 35
-1.000000000000000E+20
146
0.0
 13
0.0
 23
0.0
 33
0.0
 16
1.0
 26
0.0
 36
0.0
 17
0.0
 27
1.0
 37
0.0
 76
     0
330
1B
  0
LAYOUT
  5
26
102
{ACAD_REACTORS
330
1A
102
}
330
1A
100
AcDbPlotSettings
  1

  2
none_device
  4

  6

 40
0.0
 41
0.0
 42
0.0
 43
0.0
 44
0.0
 45
0.0
 46
0.0
 47
0.0
 48
0.0
 49
0.0
140
0.0
141
0.0
142
1.0
143
1.0
 70
   688
 72
     0
 73
     0
 74
     5
  7

 75
    16
 76
     0
 77
     2
 78
   300
147
1.0
148
0.0
149
0.0
100
AcDbLayout
  1
Layout2
 70
     1
 71
     2
 10
0.0
 20
0.0
 11
0.0
 21
0.0
 12
0.0
 22
0.0
 32
0.0
 14
0.0
 24
0.0
 34
0.0
 15
0.0
 25
0.0
 35
0.0
146
0.0
 13
0.0
 23
0.0
 33
0.0
 16
1.0
 26
0.0
 36
0.0
 17
0.0
 27
1.0
 37
0.0
 76
     0
330
23
  0
LAYOUT
  5
22
102
{ACAD_REACTORS
330
1A
102
}
330
1A
100
AcDbPlotSettings
  1

  2
none_device
  4

  6

 40
0.0
 41
0.0
 42
0.0
 43
0.0
 44
0.0
 45
0.0
 46
0.0
 47
0.0
 48
0.0
 49
0.0
140
0.0
141
0.0
142
1.0
143
1.0
 70
  1712
 72
     0
 73
     0
 74
     0
  7

 75
     0
 76
     0
 77
     2
 78
   300
147
1.0
148
0.0
149
0.0
100
AcDbLayout
  1
Model
 70
     1
 71
     0
 10
0.0
 20
0.0
 11
12.0
 21
9.0
 12
0.0
 22
0.0
 32
0.0
 14
1.000000000000000E+20
 24
1.000000000000000E+20
 34
1.000000000000000E+20
 15
-1.000000000000000E+20
 25
-1.000000000000000E+20
 35
-1.000000000000000E+20
146
0.0
 13
0.0
 23
0.0
 33
0.0
 16
1.0
 26
0.0
 36
0.0
 17
0.0
 27
1.0
 37
0.0
 76
     0
330
1F
331
29
  0
MATERIAL
  5
3D
102
{ACAD_REACTORS
330
3B
102
}
330
3B
100
AcDbMaterial
  1
ByBlock
 72
     1
 94
      127
  0
MATERIAL
  5
3C
102
{ACAD_REACTORS
330
3B
102
}
330
3B
100
AcDbMaterial
  1
ByLayer
 72
     1
 94
      127
  0
MATERIAL
  5
3E
102
{ACAD_REACTORS
330
3B
102
}
330
3B
100
AcDbMaterial
  1
Global
 72
     1
 94
      127
  0
MLINESTYLE
  5
18
102
{ACAD_REACTORS
330
17
102
}
330
17
100
AcDbMlineStyle
  2
Standard
 70
     0
  3

 62
   256
 51
90.0
 52
90.0
 71
     2
 49
0.5
 62
   256
  6
BYLAYER
 49
-0.5
 62
   256
  6
BYLAYER
  0
ACDBPLACEHOLDER
  5
F
102
{ACAD_REACTORS
330
E
102
}
330
E
  0
VISUALSTYLE
  5
2F
102
{ACAD_REACTORS
330
2A
102
}
330
2A
100
AcDbVisualStyle
  2
2dWireframe
 70
     4
177
     2
291
     0
 71
     0
176
     1
 72
     2
176
     1
 73
     0
176
     1
 90
        0
176
     1
 40
-0.6
176
     1
 41
-30.0
176
     1
 62
     5
 63
     7
421
 16777215
176
     1
 74
     1
176
     1
 91
        4
176
     1
 64
     7
176
     1
 65
   257
176
     1
 75
     1
176
     1
175
     1
176
     1
 42
1.0
176
     1
 92
        0
176
     1
 66
   257
176
     1
 43
1.0
176
     1
 76
     1
176
     1
 77
     6
176
     1
 78
     2
176
     1
 67
     7
176
     1
 79
     5
176
     1
170
     0
176
     1
171
     0
176
     1
290
     0
176
     1
 93
        1
176
     1
 44
0.0
176
     1
173
     0
176
     1
  0
VISUALSTYLE
  5
31
102
{ACAD_REACTORS
330
2A
102
}
330
2A
100
AcDbVisualStyle
  2
3D Hidden
 70
     6
177
     2
291
     0
 71
     1
176
     1
 72
     2
176
     1
 73
     2
176
     1
 90
        0
176
     1
 40
-0.6
176
     1
 41
-30.0
176
     1
 62
     5
 63
     7
421
 16777215
176
     1
 74
     2
176
     1
 91
        2
176
     1
 64
     7
176
     1
 65
   257
176
     1
 75
     2
176
     1
175
     1
176
     1
 42
40.0
176
     1
 92
        0
176
     1
 66
   257
176
     1
 43
1.0
176
     1
 76
     1
176
     1
 77
     6
176
     1
 78
     2
176
     1
 67
     7
176
     1
 79
     3
176
     1
170
     0
176
     1
171
     0
176
     1
290
     0
176
     1
 93
        1
176
     1
 44
0.0
176
     1
173
     0
176
     1
  0
VISUALSTYLE
  5
30
102
{ACAD_REACTORS
330
2A
102
}
330
2A
100
AcDbVisualStyle
  2
3dWireframe
 70
     5
177
     2
291
     0
 71
     0
176
     1
 72
     2
176
     1
 73
     0
176
     1
 90
        0
176
     1
 40
-0.6
176
     1
 41
-30.0
176
     1
 62
     5
 63
     7
421
 16777215
176
     1
 74
     1
176
     1
 91
        4
176
     1
 64
     7
176
     1
 65
   257
176
     1
 75
     1
176
     1
175
     1
176
     1
 42
1.0
176
     1
 92
        0
176
     1
 66
   257
176
     1
 43
1.0
176
     1
 76
     1
176
     1
 77
     6
176
     1
 78
     2
176
     1
 67
     7
176
     1
 79
     5
176
     1
170
     0
176
     1
171
     0
176
     1
290
     0
176
     1
 93
        1
176
     1
 44
0.0
176
     1
173
     0
176
     1
  0
VISUALSTYLE
  5
32
102
{ACAD_REACTORS
330
2A
102
}
330
2A
100
AcDbVisualStyle
  2
Basic
 70
     7
177
     2
291
     1
 71
     1
176
     1
 72
     0
176
     1
 73
     1
176
     1
 90
        0
176
     1
 40
-0.6
176
     1
 41
-30.0
176
     1
 62
     5
 63
     7
421
 16777215
176
     1
 74
     0
176
     1
 91
        4
176
     1
 64
     7
176
     1
 65
   257
176
     1
 75
     1
176
     1
175
     1
176
     1
 42
1.0
176
     1
 92
        8
176
     1
 66
     7
176
     1
 43
1.0
176
     1
 76
     1
176
     1
 77
     6
176
     1
 78
     2
176
     1
 67
     7
176
     1
 79
     5
176
     1
170
     0
176
     1
171
     0
176
     1
290
     0
176
     1
 93
        1
176
     1
 44
0.0
176
     1
173
     0
176
     1
  0
VISUALSTYLE
  5
36
102
{ACAD_REACTORS
330
2A
102
}
330
2A
100
AcDbVisualStyle
  2
Brighten
 70
    12
177
     2
291
     1
 71
     2
176
     1
 72
     2
176
     1
 73
     0
176
     1
 90
        0
176
     1
 40
-0.6
176
     1
 41
-30.0
176
     1
 62
     5
 63
     7
421
 16777215
176
     1
 74
     1
176
     1
 91
        4
176
     1
 64
     7
176
     1
 65
   257
176
     1
 75
     1
176
     1
175
     1
176
     1
 42
1.0
176
     1
 92
        8
176
     1
 66
     7
176
     1
 43
1.0
176
     1
 76
     1
176
     1
 77
     6
176
     1
 78
     2
176
     1
 67
     7
176
     1
 79
     5
176
     1
170
     0
176
     1
171
     0
176
     1
290
     0
176
     1
 93
        1
176
     1
 44
50.0
176
     1
173
     0
176
     1
  0
VISUALSTYLE
  5
3A
102
{ACAD_REACTORS
330
2A
102
}
330
2A
100
AcDbVisualStyle
  2
ColorChange
 70
    16
177
     2
291
     1
 71
     2
176
     1
 72
     2
176
     1
 73
     3
176
     1
 90
        0
176
     1
 40
-0.6
176
     1
 41
-30.0
176
     1
 62
     5
 63
     8
421
  8421504
176
     1
 74
     1
176
     1
 91
        4
176
     1
 64
     7
176
     1
 65
   257
176
     1
 75
     1
176
     1
175
     1
176
     1
 42
1.0
176
     1
 92
        8
176
     1
 66
     8
424
  8421504
176
     1
 43
1.0
176
     1
 76
     1
176
     1
 77
     6
176
     1
 78
     2
176
     1
 67
     7
176
     1
 79
     5
176
     1
170
     0
176
     1
171
     0
176
     1
290
     0
176
     1
 93
        1
176
     1
 44
0.0
176
     1
173
     0
176
     1
  0
VISUALSTYLE
  5
34
102
{ACAD_REACTORS
330
2A
102
}
330
2A
100
AcDbVisualStyle
  2
Conceptual
 70
     9
177
     2
291
     0
 71
     3
176
     1
 72
     2
176
     1
 73
     0
176
     1
 90
        0
176
     1
 40
-0.6
176
     1
 41
-30.0
176
     1
 62
     5
 63
     7
421
 16777215
176
     1
 74
     2
176
     1
 91
        2
176
     1
 64
     7
176
     1
 65
   257
176
     1
 75
     1
176
     1
175
     1
176
     1
 42
40.0
176
     1
 92
        8
176
     1
 66
     7
176
     1
 43
1.0
176
     1
 76
     1
176
     1
 77
     6
176
     1
 78
     2
176
     1
 67
     7
176
     1
 79
     3
176
     1
170
     0
176
     1
171
     0
176
     1
290
     0
176
     1
 93
        1
176
     1
 44
0.0
176
     1
173
     0
176
     1
  0
VISUALSTYLE
  5
35
102
{ACAD_REACTORS
330
2A
102
}
330
2A
100
AcDbVisualStyle
  2
Dim
 70
    11
177
     2
291
     1
 71
     2
176
     1
 72
     2
176
     1
 73
     0
176
     1
 90
        0
176
     1
 40
-0.6
176
     1
 41
-30.0
176
     1
 62
     5
 63
     7
421
 16777215
176
     1
 74
     1
176
     1
 91
        4
176
     1
 64
     7
176
     1
 65
   257
176
     1
 75
     1
176
     1
175
     1
176
     1
 42
1.0
176
     1
 92
        8
176
     1
 66
     7
176
     1
 43
1.0
176
     1
 76
     1
176
     1
 77
     6
176
     1
 78
     2
176
     1
 67
     7
176
     1
 79
     5
176
     1
170
     0
176
     1
171
     0
176
     1
290
     0
176
     1
 93
        1
176
     1
 44
-50.0
176
     1
173
     0
176
     1
  0
VISUALSTYLE
  5
39
102
{ACAD_REACTORS
330
2A
102
}
330
2A
100
AcDbVisualStyle
  2
Facepattern
 70
    15
177
     2
291
     1
 71
     2
176
     1
 72
     2
176
     1
 73
     0
176
     1
 90
        0
176
     1
 40
-0.6
176
     1
 41
-30.0
176
     1
 62
     5
 63
     7
421
 16777215
176
     1
 74
     1
176
     1
 91
        4
176
     1
 64
     7
176
     1
 65
   257
176
     1
 75
     1
176
     1
175
     1
176
     1
 42
1.0
176
     1
 92
        8
176
     1
 66
     7
176
     1
 43
1.0
176
     1
 76
     1
176
     1
 77
     6
176
     1
 78
     2
176
     1
 67
     7
176
     1
 79
     5
176
     1
170
     0
176
     1
171
     0
176
     1
290
     0
176
     1
 93
        1
176
     1
 44
0.0
176
     1
173
     0
176
     1
  0
VISUALSTYLE
  5
2B
102
{ACAD_REACTORS
330
2A
102
}
330
2A
100
AcDbVisualStyle
  2
Flat
 70
     0
177
     2
291
     1
 71
     2
176
     1
 72
     1
176
     1
 73
     1
176
     1
 90
        2
176
     1
 40
-0.6
176
     1
 41
30.0
176
     1
 62
     5
 63
     7
421
 16777215
176
     1
 74
     0
176
     1
 91
        4
176
     1
 64
     7
176
     1
 65
   257
176
     1
 75
     1
176
     1
175
     1
176
     1
 42
1.0
176
     1
 92
        8
176
     1
 66
     7
176
     1
 43
1.0
176
     1
 76
     1
176
     1
 77
     6
176
     1
 78
     2
176
     1
 67
     7
176
     1
 79
     5
176
     1
170
     0
176
     1
171
     0
176
     1
290
     0
176
     1
 93
       13
176
     1
 44
0.0
176
     1
173
     0
176
     1
  0
VISUALSTYLE
  5
2C
102
{ACAD_REACTORS
330
2A
102
}
330
2A
100
AcDbVisualStyle
  2
FlatWithEdges
 70
     1
177
     2
291
     1
 71
     2
176
     1
 72
     1
176
     1
 73
     1
176
     1
 90
        2
176
     1
 40
-0.6
176
     1
 41
30.0
176
     1
 62
     5
 63
     7
421
 16777215
176
     1
 74
     1
176
     1
 91
        4
176
     1
 64
     7
176
     1
 65
   257
176
     1
 75
     1
176
     1
175
     1
176
     1
 42
1.0
176
     1
 92
        0
176
     1
 66
   257
176
     1
 43
1.0
176
     1
 76
     1
176
     1
 77
     6
176
     1
 78
     2
176
     1
 67
     7
176
     1
 79
     5
176
     1
170
     0
176
     1
171
     0
176
     1
290
     0
176
     1
 93
       13
176
     1
 44
0.0
176
     1
173
     0
176
     1
  0
VISUALSTYLE
  5
2D
102
{ACAD_REACTORS
330
2A
102
}
330
2A
100
AcDbVisualStyle
  2
Gouraud
 70
     2
177
     2
291
     1
 71
     2
176
     1
 72
     2
176
     1
 73
     1
176
     1
 90
        2
176
     1
 40
-0.6
176
     1
 41
30.0
176
     1
 62
     5
 63
     7
421
 16777215
176
     1
 74
     0
176
     1
 91
        4
176
     1
 64
     7
176
     1
 65
   257
176
     1
 75
     1
176
     1
175
     1
176
     1
 42
1.0
176
     1
 92
        0
176
     1
 66
     7
176
     1
 43
1.0
176
     1
 76
     1
176
     1
 77
     6
176
     1
 78
     2
176
     1
 67
     7
176
     1
 79
     5
176
     1
170
     0
176
     1
171
     0
176
     1
290
     0
176
     1
 93
       13
176
     1
 44
0.0
176
     1
173
     0
176
     1
  0
VISUALSTYLE
  5
2E
102
{ACAD_REACTORS
330
2A
102
}
330
2A
100
AcDbVisualStyle
  2
GouraudWithEdges
 70
     3
177
     2
291
     1
 71
     2
176
     1
 72
     2
176
     1
 73
     1
176
     1
 90
        2
176
     1
 40
-0.6
176
     1
 41
30.0
176
     1
 62
     5
 63
     7
421
 16777215
176
     1
 74
     1
176
     1
 91
        4
176
     1
 64
     7
176
     1
 65
   257
176
     1
 75
     1
176
     1
175
     1
176
     1
 42
1.0
176
     1
 92
        0
176
     1
 66
   257
176
     1
 43
1.0
176
     1
 76
     1
176
     1
 77
     6
176
     1
 78
     2
176
     1
 67
     7
176
     1
 79
     5
176
     1
170
     0
176
     1
171
     0
176
     1
290
     0
176
     1
 93
       13
176
     1
 44
0.0
176
     1
173
     0
176
     1
  0
VISUALSTYLE
  5
38
102
{ACAD_REACTORS
330
2A
102
}
330
2A
100
AcDbVisualStyle
  2
Linepattern
 70
    14
177
     2
291
     1
 71
     2
176
     1
 72
     2
176
     1
 73
     0
176
     1
 90
        0
176
     1
 40
-0.6
176
     1
 41
-30.0
176
     1
 62
     5
 63
     7
421
 16777215
176
     1
 74
     1
176
     1
 91
        4
176
     1
 64
     7
176
     1
 65
   257
176
     1
 75
     7
176
     1
175
     7
176
     1
 42
1.0
176
     1
 92
        8
176
     1
 66
     7
176
     1
 43
1.0
176
     1
 76
     1
176
     1
 77
     6
176
     1
 78
     2
176
     1
 67
     7
176
     1
 79
     5
176
     1
170
     0
176
     1
171
     0
176
     1
290
     0
176
     1
 93
        1
176
     1
 44
0.0
176
     1
173
     0
176
     1
  0
VISUALSTYLE
  5
33
102
{ACAD_REACTORS
330
2A
102
}
330
2A
100
AcDbVisualStyle
  2
Realistic
 70
     8
177
     2
291
     0
 71
     2
176
     1
 72
     2
176
     1
 73
     0
176
     1
 90
        0
176
     1
 40
-0.6
176
     1
 41
-30.0
176
     1
 62
     5
 63
     7
421
 16777215
176
     1
 74
     1
176
     1
 91
        0
176
     1
 64
     7
176
     1
 65
   257
176
     1
 75
     1
176
     1
175
     1
176
     1
 42
1.0
176
     1
 92
        8
176
     1
 66
     8
424
  7895160
176
     1
 43
1.0
176
     1
 76
     1
176
     1
 77
     6
176
     1
 78
     2
176
     1
 67
     7
176
     1
 79
     5
176
     1
170
     0
176
     1
171
     0
176
     1
290
     0
176
     1
 93
       13
176
     1
 44
0.0
176
     1
173
     0
176
     1
  0
VISUALSTYLE
  5
37
102
{ACAD_REACTORS
330
2A
102
}
330
2A
100
AcDbVisualStyle
  2
Thicken
 70
    13
177
     2
291
     1
 71
     2
176
     1
 72
     2
176
     1
 73
     0
176
     1
 90
        0
176
     1
 40
-0.6
176
     1
 41
-30.0
176
     1
 62
     5
 63
     7
421
 16777215
176
     1
 74
     1
176
     1
 91
        4
176
     1
 64
     7
176
     1
 65
   257
176
     1
 75
     1
176
     1
175
     1
176
     1
 42
1.0
176
     1
 92
       12
176
     1
 66
     7
176
     1
 43
1.0
176
     1
 76
     1
176
     1
 77
     6
176
     1
 78
     2
176
     1
 67
     7
176
     1
 79
     5
176
     1
170
     0
176
     1
171
     0
176
     1
290
     0
176
     1
 93
        1
176
     1
 44
0.0
176
     1
173
     0
176
     1
  0
ENDSEC
  0
EOF
