ISO-10303-21;
HEADER;
/* Generated by software containing ST-Developer
 * from STEP Tools, Inc. (www.steptools.com) 
 */

FILE_DESCRIPTION(
/* description */ (''),
/* implementation_level */ '2;1');

FILE_NAME(
/* name */ 'kitchen_chair_footrest_v6.step',
/* time_stamp */ '2026-03-17T23:35:02-04:00',
/* author */ (''),
/* organization */ (''),
/* preprocessor_version */ 'ST-DEVELOPER v20.1',
/* originating_system */ 'Autodesk Translation Framework v14.24.0.0',
/* authorisation */ '');

FILE_SCHEMA (('AUTOMOTIVE_DESIGN { 1 0 10303 214 3 1 1 }'));
ENDSEC;

DATA;
#10=MECHANICAL_DESIGN_GEOMETRIC_PRESENTATION_REPRESENTATION('',(#13,#14),
#1428);
#11=SHAPE_REPRESENTATION_RELATIONSHIP('SRR','None',#1435,#12);
#12=ADVANCED_BREP_SHAPE_REPRESENTATION('',(#15,#16),#1427);
#13=STYLED_ITEM('',(#1444),#15);
#14=STYLED_ITEM('',(#1444),#16);
#15=MANIFOLD_SOLID_BREP('Body4',#859);
#16=MANIFOLD_SOLID_BREP('Body5',#860);
#17=ELLIPSE('',#899,10.3364875662196,8.);
#18=ELLIPSE('',#901,10.3364875662196,8.);
#19=CONICAL_SURFACE('',#894,31.5,0.88506681588861);
#20=CONICAL_SURFACE('',#896,31.5,0.88506681588861);
#21=FACE_BOUND('',#106,.T.);
#22=FACE_BOUND('',#120,.T.);
#23=FACE_BOUND('',#149,.T.);
#24=PLANE('',#877);
#25=PLANE('',#878);
#26=PLANE('',#885);
#27=PLANE('',#886);
#28=PLANE('',#887);
#29=PLANE('',#892);
#30=PLANE('',#893);
#31=PLANE('',#898);
#32=PLANE('',#900);
#33=PLANE('',#904);
#34=PLANE('',#906);
#35=PLANE('',#908);
#36=PLANE('',#910);
#37=PLANE('',#911);
#38=PLANE('',#912);
#39=PLANE('',#914);
#40=PLANE('',#915);
#41=PLANE('',#916);
#42=PLANE('',#917);
#43=PLANE('',#922);
#44=PLANE('',#923);
#45=PLANE('',#924);
#46=PLANE('',#925);
#47=PLANE('',#926);
#48=PLANE('',#927);
#49=PLANE('',#928);
#50=PLANE('',#929);
#51=PLANE('',#930);
#52=PLANE('',#931);
#53=PLANE('',#932);
#54=PLANE('',#933);
#55=PLANE('',#937);
#56=PLANE('',#941);
#57=PLANE('',#942);
#58=FACE_OUTER_BOUND('',#103,.T.);
#59=FACE_OUTER_BOUND('',#104,.T.);
#60=FACE_OUTER_BOUND('',#105,.T.);
#61=FACE_OUTER_BOUND('',#107,.T.);
#62=FACE_OUTER_BOUND('',#108,.T.);
#63=FACE_OUTER_BOUND('',#109,.T.);
#64=FACE_OUTER_BOUND('',#110,.T.);
#65=FACE_OUTER_BOUND('',#111,.T.);
#66=FACE_OUTER_BOUND('',#112,.T.);
#67=FACE_OUTER_BOUND('',#113,.T.);
#68=FACE_OUTER_BOUND('',#114,.T.);
#69=FACE_OUTER_BOUND('',#115,.T.);
#70=FACE_OUTER_BOUND('',#116,.T.);
#71=FACE_OUTER_BOUND('',#117,.T.);
#72=FACE_OUTER_BOUND('',#118,.T.);
#73=FACE_OUTER_BOUND('',#119,.T.);
#74=FACE_OUTER_BOUND('',#121,.T.);
#75=FACE_OUTER_BOUND('',#122,.T.);
#76=FACE_OUTER_BOUND('',#123,.T.);
#77=FACE_OUTER_BOUND('',#124,.T.);
#78=FACE_OUTER_BOUND('',#125,.T.);
#79=FACE_OUTER_BOUND('',#126,.T.);
#80=FACE_OUTER_BOUND('',#127,.T.);
#81=FACE_OUTER_BOUND('',#128,.T.);
#82=FACE_OUTER_BOUND('',#129,.T.);
#83=FACE_OUTER_BOUND('',#130,.T.);
#84=FACE_OUTER_BOUND('',#131,.T.);
#85=FACE_OUTER_BOUND('',#132,.T.);
#86=FACE_OUTER_BOUND('',#133,.T.);
#87=FACE_OUTER_BOUND('',#134,.T.);
#88=FACE_OUTER_BOUND('',#135,.T.);
#89=FACE_OUTER_BOUND('',#136,.T.);
#90=FACE_OUTER_BOUND('',#137,.T.);
#91=FACE_OUTER_BOUND('',#138,.T.);
#92=FACE_OUTER_BOUND('',#139,.T.);
#93=FACE_OUTER_BOUND('',#140,.T.);
#94=FACE_OUTER_BOUND('',#141,.T.);
#95=FACE_OUTER_BOUND('',#142,.T.);
#96=FACE_OUTER_BOUND('',#143,.T.);
#97=FACE_OUTER_BOUND('',#144,.T.);
#98=FACE_OUTER_BOUND('',#145,.T.);
#99=FACE_OUTER_BOUND('',#146,.T.);
#100=FACE_OUTER_BOUND('',#147,.T.);
#101=FACE_OUTER_BOUND('',#148,.T.);
#102=FACE_OUTER_BOUND('',#150,.T.);
#103=EDGE_LOOP('',(#565,#566,#567,#568));
#104=EDGE_LOOP('',(#569,#570,#571,#572));
#105=EDGE_LOOP('',(#573,#574,#575,#576,#577,#578,#579,#580,#581,#582));
#106=EDGE_LOOP('',(#583,#584,#585,#586));
#107=EDGE_LOOP('',(#587,#588,#589,#590));
#108=EDGE_LOOP('',(#591,#592,#593,#594,#595));
#109=EDGE_LOOP('',(#596,#597,#598,#599));
#110=EDGE_LOOP('',(#600,#601,#602,#603,#604,#605,#606,#607,#608,#609,#610,
#611));
#111=EDGE_LOOP('',(#612,#613,#614,#615));
#112=EDGE_LOOP('',(#616,#617,#618,#619,#620));
#113=EDGE_LOOP('',(#621,#622,#623,#624));
#114=EDGE_LOOP('',(#625,#626,#627,#628));
#115=EDGE_LOOP('',(#629,#630,#631,#632));
#116=EDGE_LOOP('',(#633,#634,#635,#636,#637));
#117=EDGE_LOOP('',(#638,#639,#640,#641,#642));
#118=EDGE_LOOP('',(#643,#644,#645,#646,#647));
#119=EDGE_LOOP('',(#648,#649,#650,#651,#652,#653,#654,#655));
#120=EDGE_LOOP('',(#656,#657,#658,#659,#660,#661,#662,#663,#664,#665,#666,
#667,#668,#669,#670,#671,#672,#673,#674,#675));
#121=EDGE_LOOP('',(#676,#677,#678,#679));
#122=EDGE_LOOP('',(#680,#681,#682,#683,#684));
#123=EDGE_LOOP('',(#685,#686,#687,#688,#689,#690,#691,#692));
#124=EDGE_LOOP('',(#693,#694,#695,#696));
#125=EDGE_LOOP('',(#697,#698,#699,#700));
#126=EDGE_LOOP('',(#701,#702,#703,#704,#705,#706,#707,#708));
#127=EDGE_LOOP('',(#709,#710,#711,#712));
#128=EDGE_LOOP('',(#713,#714,#715,#716));
#129=EDGE_LOOP('',(#717,#718,#719,#720));
#130=EDGE_LOOP('',(#721,#722,#723,#724));
#131=EDGE_LOOP('',(#725,#726,#727,#728));
#132=EDGE_LOOP('',(#729,#730,#731,#732));
#133=EDGE_LOOP('',(#733,#734,#735,#736));
#134=EDGE_LOOP('',(#737,#738,#739,#740));
#135=EDGE_LOOP('',(#741,#742,#743,#744));
#136=EDGE_LOOP('',(#745,#746,#747,#748));
#137=EDGE_LOOP('',(#749,#750,#751,#752,#753,#754,#755,#756));
#138=EDGE_LOOP('',(#757,#758,#759,#760));
#139=EDGE_LOOP('',(#761,#762,#763,#764,#765,#766,#767,#768));
#140=EDGE_LOOP('',(#769,#770,#771,#772));
#141=EDGE_LOOP('',(#773,#774,#775,#776,#777,#778));
#142=EDGE_LOOP('',(#779,#780,#781,#782));
#143=EDGE_LOOP('',(#783,#784,#785,#786,#787,#788));
#144=EDGE_LOOP('',(#789,#790,#791,#792));
#145=EDGE_LOOP('',(#793,#794,#795,#796));
#146=EDGE_LOOP('',(#797));
#147=EDGE_LOOP('',(#798,#799,#800,#801));
#148=EDGE_LOOP('',(#802));
#149=EDGE_LOOP('',(#803));
#150=EDGE_LOOP('',(#804));
#151=LINE('',#1185,#247);
#152=LINE('',#1188,#248);
#153=LINE('',#1191,#249);
#154=LINE('',#1193,#250);
#155=LINE('',#1194,#251);
#156=LINE('',#1197,#252);
#157=LINE('',#1201,#253);
#158=LINE('',#1205,#254);
#159=LINE('',#1209,#255);
#160=LINE('',#1213,#256);
#161=LINE('',#1215,#257);
#162=LINE('',#1217,#258);
#163=LINE('',#1218,#259);
#164=LINE('',#1221,#260);
#165=LINE('',#1224,#261);
#166=LINE('',#1227,#262);
#167=LINE('',#1229,#263);
#168=LINE('',#1230,#264);
#169=LINE('',#1232,#265);
#170=LINE('',#1237,#266);
#171=LINE('',#1239,#267);
#172=LINE('',#1243,#268);
#173=LINE('',#1246,#269);
#174=LINE('',#1248,#270);
#175=LINE('',#1251,#271);
#176=LINE('',#1252,#272);
#177=LINE('',#1255,#273);
#178=LINE('',#1257,#274);
#179=LINE('',#1258,#275);
#180=LINE('',#1262,#276);
#181=LINE('',#1265,#277);
#182=LINE('',#1269,#278);
#183=LINE('',#1274,#279);
#184=LINE('',#1277,#280);
#185=LINE('',#1281,#281);
#186=LINE('',#1285,#282);
#187=LINE('',#1287,#283);
#188=LINE('',#1289,#284);
#189=LINE('',#1291,#285);
#190=LINE('',#1293,#286);
#191=LINE('',#1295,#287);
#192=LINE('',#1297,#288);
#193=LINE('',#1299,#289);
#194=LINE('',#1301,#290);
#195=LINE('',#1303,#291);
#196=LINE('',#1305,#292);
#197=LINE('',#1307,#293);
#198=LINE('',#1309,#294);
#199=LINE('',#1311,#295);
#200=LINE('',#1313,#296);
#201=LINE('',#1315,#297);
#202=LINE('',#1317,#298);
#203=LINE('',#1319,#299);
#204=LINE('',#1321,#300);
#205=LINE('',#1322,#301);
#206=LINE('',#1324,#302);
#207=LINE('',#1328,#303);
#208=LINE('',#1330,#304);
#209=LINE('',#1332,#305);
#210=LINE('',#1333,#306);
#211=LINE('',#1335,#307);
#212=LINE('',#1339,#308);
#213=LINE('',#1340,#309);
#214=LINE('',#1343,#310);
#215=LINE('',#1344,#311);
#216=LINE('',#1347,#312);
#217=LINE('',#1350,#313);
#218=LINE('',#1351,#314);
#219=LINE('',#1355,#315);
#220=LINE('',#1356,#316);
#221=LINE('',#1359,#317);
#222=LINE('',#1360,#318);
#223=LINE('',#1363,#319);
#224=LINE('',#1364,#320);
#225=LINE('',#1370,#321);
#226=LINE('',#1373,#322);
#227=LINE('',#1375,#323);
#228=LINE('',#1376,#324);
#229=LINE('',#1379,#325);
#230=LINE('',#1381,#326);
#231=LINE('',#1382,#327);
#232=LINE('',#1385,#328);
#233=LINE('',#1386,#329);
#234=LINE('',#1388,#330);
#235=LINE('',#1391,#331);
#236=LINE('',#1392,#332);
#237=LINE('',#1394,#333);
#238=LINE('',#1397,#334);
#239=LINE('',#1399,#335);
#240=LINE('',#1400,#336);
#241=LINE('',#1402,#337);
#242=LINE('',#1403,#338);
#243=LINE('',#1405,#339);
#244=LINE('',#1407,#340);
#245=LINE('',#1414,#341);
#246=LINE('',#1421,#342);
#247=VECTOR('',#949,10.);
#248=VECTOR('',#952,10.);
#249=VECTOR('',#955,10.);
#250=VECTOR('',#956,10.);
#251=VECTOR('',#957,10.);
#252=VECTOR('',#960,10.);
#253=VECTOR('',#963,10.);
#254=VECTOR('',#966,10.);
#255=VECTOR('',#969,10.);
#256=VECTOR('',#972,10.);
#257=VECTOR('',#973,10.);
#258=VECTOR('',#974,10.);
#259=VECTOR('',#975,10.);
#260=VECTOR('',#978,10.);
#261=VECTOR('',#981,10.);
#262=VECTOR('',#984,10.);
#263=VECTOR('',#985,10.);
#264=VECTOR('',#986,10.);
#265=VECTOR('',#989,10.);
#266=VECTOR('',#994,10.);
#267=VECTOR('',#995,10.);
#268=VECTOR('',#998,10.);
#269=VECTOR('',#1001,10.);
#270=VECTOR('',#1004,10.);
#271=VECTOR('',#1007,10.);
#272=VECTOR('',#1008,10.);
#273=VECTOR('',#1011,10.);
#274=VECTOR('',#1012,10.);
#275=VECTOR('',#1013,10.);
#276=VECTOR('',#1018,10.);
#277=VECTOR('',#1021,10.);
#278=VECTOR('',#1026,10.);
#279=VECTOR('',#1033,10.);
#280=VECTOR('',#1036,10.);
#281=VECTOR('',#1041,10.);
#282=VECTOR('',#1044,10.);
#283=VECTOR('',#1045,10.);
#284=VECTOR('',#1046,10.);
#285=VECTOR('',#1047,10.);
#286=VECTOR('',#1048,10.);
#287=VECTOR('',#1049,10.);
#288=VECTOR('',#1050,10.);
#289=VECTOR('',#1051,10.);
#290=VECTOR('',#1052,10.);
#291=VECTOR('',#1053,10.);
#292=VECTOR('',#1054,10.);
#293=VECTOR('',#1055,10.);
#294=VECTOR('',#1056,10.);
#295=VECTOR('',#1057,10.);
#296=VECTOR('',#1058,10.);
#297=VECTOR('',#1059,10.);
#298=VECTOR('',#1060,10.);
#299=VECTOR('',#1061,10.);
#300=VECTOR('',#1062,10.);
#301=VECTOR('',#1063,10.);
#302=VECTOR('',#1066,10.);
#303=VECTOR('',#1071,10.);
#304=VECTOR('',#1072,10.);
#305=VECTOR('',#1073,10.);
#306=VECTOR('',#1074,10.);
#307=VECTOR('',#1075,10.);
#308=VECTOR('',#1080,10.);
#309=VECTOR('',#1081,10.);
#310=VECTOR('',#1084,10.);
#311=VECTOR('',#1085,10.);
#312=VECTOR('',#1088,10.);
#313=VECTOR('',#1091,10.);
#314=VECTOR('',#1092,10.);
#315=VECTOR('',#1097,10.);
#316=VECTOR('',#1098,10.);
#317=VECTOR('',#1101,10.);
#318=VECTOR('',#1102,10.);
#319=VECTOR('',#1105,10.);
#320=VECTOR('',#1106,10.);
#321=VECTOR('',#1115,10.);
#322=VECTOR('',#1118,10.);
#323=VECTOR('',#1119,10.);
#324=VECTOR('',#1120,10.);
#325=VECTOR('',#1123,10.);
#326=VECTOR('',#1124,10.);
#327=VECTOR('',#1125,10.);
#328=VECTOR('',#1128,10.);
#329=VECTOR('',#1129,10.);
#330=VECTOR('',#1132,10.);
#331=VECTOR('',#1135,10.);
#332=VECTOR('',#1136,10.);
#333=VECTOR('',#1139,10.);
#334=VECTOR('',#1142,10.);
#335=VECTOR('',#1143,10.);
#336=VECTOR('',#1144,10.);
#337=VECTOR('',#1147,10.);
#338=VECTOR('',#1148,10.);
#339=VECTOR('',#1151,10.);
#340=VECTOR('',#1154,10.);
#341=VECTOR('',#1163,2.95);
#342=VECTOR('',#1172,16.5);
#343=CIRCLE('',#875,50.);
#344=CIRCLE('',#876,50.);
#345=CIRCLE('',#879,50.);
#346=CIRCLE('',#880,8.);
#347=CIRCLE('',#881,8.);
#348=CIRCLE('',#882,50.);
#349=CIRCLE('',#884,50.);
#350=CIRCLE('',#888,50.);
#351=CIRCLE('',#889,59.);
#352=CIRCLE('',#890,59.);
#353=CIRCLE('',#895,4.);
#354=CIRCLE('',#897,4.);
#355=CIRCLE('',#903,8.);
#356=CIRCLE('',#905,8.);
#357=CIRCLE('',#909,2.95);
#358=CIRCLE('',#913,2.95);
#359=CIRCLE('',#919,2.95);
#360=CIRCLE('',#921,2.95);
#361=CIRCLE('',#935,2.95);
#362=CIRCLE('',#936,2.95);
#363=CIRCLE('',#939,16.5);
#364=CIRCLE('',#940,16.5);
#365=VERTEX_POINT('',#1181);
#366=VERTEX_POINT('',#1182);
#367=VERTEX_POINT('',#1184);
#368=VERTEX_POINT('',#1186);
#369=VERTEX_POINT('',#1190);
#370=VERTEX_POINT('',#1192);
#371=VERTEX_POINT('',#1196);
#372=VERTEX_POINT('',#1198);
#373=VERTEX_POINT('',#1200);
#374=VERTEX_POINT('',#1202);
#375=VERTEX_POINT('',#1204);
#376=VERTEX_POINT('',#1206);
#377=VERTEX_POINT('',#1208);
#378=VERTEX_POINT('',#1211);
#379=VERTEX_POINT('',#1212);
#380=VERTEX_POINT('',#1214);
#381=VERTEX_POINT('',#1216);
#382=VERTEX_POINT('',#1220);
#383=VERTEX_POINT('',#1222);
#384=VERTEX_POINT('',#1226);
#385=VERTEX_POINT('',#1228);
#386=VERTEX_POINT('',#1234);
#387=VERTEX_POINT('',#1236);
#388=VERTEX_POINT('',#1238);
#389=VERTEX_POINT('',#1240);
#390=VERTEX_POINT('',#1242);
#391=VERTEX_POINT('',#1244);
#392=VERTEX_POINT('',#1250);
#393=VERTEX_POINT('',#1254);
#394=VERTEX_POINT('',#1256);
#395=VERTEX_POINT('',#1260);
#396=VERTEX_POINT('',#1264);
#397=VERTEX_POINT('',#1268);
#398=VERTEX_POINT('',#1272);
#399=VERTEX_POINT('',#1276);
#400=VERTEX_POINT('',#1280);
#401=VERTEX_POINT('',#1283);
#402=VERTEX_POINT('',#1284);
#403=VERTEX_POINT('',#1286);
#404=VERTEX_POINT('',#1288);
#405=VERTEX_POINT('',#1290);
#406=VERTEX_POINT('',#1292);
#407=VERTEX_POINT('',#1294);
#408=VERTEX_POINT('',#1296);
#409=VERTEX_POINT('',#1298);
#410=VERTEX_POINT('',#1300);
#411=VERTEX_POINT('',#1302);
#412=VERTEX_POINT('',#1304);
#413=VERTEX_POINT('',#1306);
#414=VERTEX_POINT('',#1308);
#415=VERTEX_POINT('',#1310);
#416=VERTEX_POINT('',#1312);
#417=VERTEX_POINT('',#1314);
#418=VERTEX_POINT('',#1316);
#419=VERTEX_POINT('',#1318);
#420=VERTEX_POINT('',#1320);
#421=VERTEX_POINT('',#1327);
#422=VERTEX_POINT('',#1329);
#423=VERTEX_POINT('',#1331);
#424=VERTEX_POINT('',#1334);
#425=VERTEX_POINT('',#1338);
#426=VERTEX_POINT('',#1342);
#427=VERTEX_POINT('',#1346);
#428=VERTEX_POINT('',#1348);
#429=VERTEX_POINT('',#1354);
#430=VERTEX_POINT('',#1358);
#431=VERTEX_POINT('',#1362);
#432=VERTEX_POINT('',#1368);
#433=VERTEX_POINT('',#1372);
#434=VERTEX_POINT('',#1374);
#435=VERTEX_POINT('',#1378);
#436=VERTEX_POINT('',#1380);
#437=VERTEX_POINT('',#1384);
#438=VERTEX_POINT('',#1390);
#439=VERTEX_POINT('',#1396);
#440=VERTEX_POINT('',#1398);
#441=VERTEX_POINT('',#1411);
#442=VERTEX_POINT('',#1413);
#443=VERTEX_POINT('',#1418);
#444=VERTEX_POINT('',#1420);
#445=EDGE_CURVE('',#365,#366,#343,.T.);
#446=EDGE_CURVE('',#366,#367,#151,.T.);
#447=EDGE_CURVE('',#367,#368,#344,.T.);
#448=EDGE_CURVE('',#368,#365,#152,.T.);
#449=EDGE_CURVE('',#369,#368,#153,.T.);
#450=EDGE_CURVE('',#370,#369,#154,.T.);
#451=EDGE_CURVE('',#365,#370,#155,.T.);
#452=EDGE_CURVE('',#367,#371,#156,.T.);
#453=EDGE_CURVE('',#372,#371,#345,.T.);
#454=EDGE_CURVE('',#372,#373,#157,.T.);
#455=EDGE_CURVE('',#374,#373,#346,.T.);
#456=EDGE_CURVE('',#375,#374,#158,.T.);
#457=EDGE_CURVE('',#376,#375,#347,.T.);
#458=EDGE_CURVE('',#376,#377,#159,.T.);
#459=EDGE_CURVE('',#369,#377,#348,.T.);
#460=EDGE_CURVE('',#378,#379,#160,.T.);
#461=EDGE_CURVE('',#379,#380,#161,.T.);
#462=EDGE_CURVE('',#380,#381,#162,.T.);
#463=EDGE_CURVE('',#381,#378,#163,.T.);
#464=EDGE_CURVE('',#371,#382,#164,.T.);
#465=EDGE_CURVE('',#382,#383,#349,.T.);
#466=EDGE_CURVE('',#383,#372,#165,.T.);
#467=EDGE_CURVE('',#384,#383,#166,.T.);
#468=EDGE_CURVE('',#384,#385,#167,.F.);
#469=EDGE_CURVE('',#373,#385,#168,.T.);
#470=EDGE_CURVE('',#382,#366,#169,.T.);
#471=EDGE_CURVE('',#386,#370,#350,.T.);
#472=EDGE_CURVE('',#386,#387,#170,.T.);
#473=EDGE_CURVE('',#388,#387,#171,.T.);
#474=EDGE_CURVE('',#389,#388,#351,.T.);
#475=EDGE_CURVE('',#390,#389,#172,.T.);
#476=EDGE_CURVE('',#391,#390,#352,.T.);
#477=EDGE_CURVE('',#384,#391,#173,.T.);
#478=EDGE_CURVE('',#377,#386,#174,.T.);
#479=EDGE_CURVE('',#392,#376,#175,.T.);
#480=EDGE_CURVE('',#387,#392,#176,.T.);
#481=EDGE_CURVE('',#389,#393,#177,.T.);
#482=EDGE_CURVE('',#394,#393,#178,.T.);
#483=EDGE_CURVE('',#394,#390,#179,.T.);
#484=EDGE_CURVE('',#394,#395,#353,.T.);
#485=EDGE_CURVE('',#395,#391,#180,.T.);
#486=EDGE_CURVE('',#388,#396,#181,.T.);
#487=EDGE_CURVE('',#396,#393,#354,.T.);
#488=EDGE_CURVE('',#397,#395,#182,.T.);
#489=EDGE_CURVE('',#397,#385,#17,.T.);
#490=EDGE_CURVE('',#392,#398,#18,.T.);
#491=EDGE_CURVE('',#396,#398,#183,.T.);
#492=EDGE_CURVE('',#375,#399,#184,.T.);
#493=EDGE_CURVE('',#399,#398,#355,.T.);
#494=EDGE_CURVE('',#399,#400,#185,.T.);
#495=EDGE_CURVE('',#397,#400,#356,.T.);
#496=EDGE_CURVE('',#401,#402,#186,.T.);
#497=EDGE_CURVE('',#402,#403,#187,.T.);
#498=EDGE_CURVE('',#403,#404,#188,.T.);
#499=EDGE_CURVE('',#404,#405,#189,.T.);
#500=EDGE_CURVE('',#405,#406,#190,.T.);
#501=EDGE_CURVE('',#406,#407,#191,.T.);
#502=EDGE_CURVE('',#407,#408,#192,.T.);
#503=EDGE_CURVE('',#408,#409,#193,.T.);
#504=EDGE_CURVE('',#409,#410,#194,.T.);
#505=EDGE_CURVE('',#410,#411,#195,.T.);
#506=EDGE_CURVE('',#411,#412,#196,.T.);
#507=EDGE_CURVE('',#412,#413,#197,.T.);
#508=EDGE_CURVE('',#413,#414,#198,.T.);
#509=EDGE_CURVE('',#414,#415,#199,.T.);
#510=EDGE_CURVE('',#415,#416,#200,.T.);
#511=EDGE_CURVE('',#416,#417,#201,.T.);
#512=EDGE_CURVE('',#417,#418,#202,.T.);
#513=EDGE_CURVE('',#418,#419,#203,.T.);
#514=EDGE_CURVE('',#419,#420,#204,.T.);
#515=EDGE_CURVE('',#401,#420,#205,.T.);
#516=EDGE_CURVE('',#400,#374,#206,.T.);
#517=EDGE_CURVE('',#419,#421,#207,.T.);
#518=EDGE_CURVE('',#418,#422,#208,.T.);
#519=EDGE_CURVE('',#422,#423,#209,.T.);
#520=EDGE_CURVE('',#403,#423,#210,.T.);
#521=EDGE_CURVE('',#424,#402,#211,.T.);
#522=EDGE_CURVE('',#421,#424,#357,.T.);
#523=EDGE_CURVE('',#423,#425,#212,.T.);
#524=EDGE_CURVE('',#404,#425,#213,.T.);
#525=EDGE_CURVE('',#417,#426,#214,.T.);
#526=EDGE_CURVE('',#426,#422,#215,.T.);
#527=EDGE_CURVE('',#427,#416,#216,.T.);
#528=EDGE_CURVE('',#428,#427,#358,.T.);
#529=EDGE_CURVE('',#405,#428,#217,.T.);
#530=EDGE_CURVE('',#425,#426,#218,.T.);
#531=EDGE_CURVE('',#429,#415,#219,.T.);
#532=EDGE_CURVE('',#429,#427,#220,.T.);
#533=EDGE_CURVE('',#430,#428,#221,.T.);
#534=EDGE_CURVE('',#406,#430,#222,.T.);
#535=EDGE_CURVE('',#431,#401,#223,.T.);
#536=EDGE_CURVE('',#424,#431,#224,.T.);
#537=EDGE_CURVE('',#430,#429,#359,.T.);
#538=EDGE_CURVE('',#432,#431,#360,.T.);
#539=EDGE_CURVE('',#421,#432,#225,.T.);
#540=EDGE_CURVE('',#433,#413,#226,.T.);
#541=EDGE_CURVE('',#434,#412,#227,.T.);
#542=EDGE_CURVE('',#434,#433,#228,.T.);
#543=EDGE_CURVE('',#408,#435,#229,.T.);
#544=EDGE_CURVE('',#407,#436,#230,.T.);
#545=EDGE_CURVE('',#435,#436,#231,.T.);
#546=EDGE_CURVE('',#437,#409,#232,.T.);
#547=EDGE_CURVE('',#435,#437,#233,.T.);
#548=EDGE_CURVE('',#420,#432,#234,.T.);
#549=EDGE_CURVE('',#438,#414,#235,.T.);
#550=EDGE_CURVE('',#436,#438,#236,.T.);
#551=EDGE_CURVE('',#433,#438,#237,.T.);
#552=EDGE_CURVE('',#434,#439,#238,.T.);
#553=EDGE_CURVE('',#440,#439,#239,.T.);
#554=EDGE_CURVE('',#437,#440,#240,.T.);
#555=EDGE_CURVE('',#379,#411,#241,.T.);
#556=EDGE_CURVE('',#380,#410,#242,.T.);
#557=EDGE_CURVE('',#381,#440,#243,.T.);
#558=EDGE_CURVE('',#378,#439,#244,.T.);
#559=EDGE_CURVE('',#441,#441,#361,.T.);
#560=EDGE_CURVE('',#441,#442,#245,.T.);
#561=EDGE_CURVE('',#442,#442,#362,.T.);
#562=EDGE_CURVE('',#443,#443,#363,.T.);
#563=EDGE_CURVE('',#443,#444,#246,.T.);
#564=EDGE_CURVE('',#444,#444,#364,.T.);
#565=ORIENTED_EDGE('',*,*,#445,.T.);
#566=ORIENTED_EDGE('',*,*,#446,.T.);
#567=ORIENTED_EDGE('',*,*,#447,.T.);
#568=ORIENTED_EDGE('',*,*,#448,.T.);
#569=ORIENTED_EDGE('',*,*,#448,.F.);
#570=ORIENTED_EDGE('',*,*,#449,.F.);
#571=ORIENTED_EDGE('',*,*,#450,.F.);
#572=ORIENTED_EDGE('',*,*,#451,.F.);
#573=ORIENTED_EDGE('',*,*,#447,.F.);
#574=ORIENTED_EDGE('',*,*,#452,.T.);
#575=ORIENTED_EDGE('',*,*,#453,.F.);
#576=ORIENTED_EDGE('',*,*,#454,.T.);
#577=ORIENTED_EDGE('',*,*,#455,.F.);
#578=ORIENTED_EDGE('',*,*,#456,.F.);
#579=ORIENTED_EDGE('',*,*,#457,.F.);
#580=ORIENTED_EDGE('',*,*,#458,.T.);
#581=ORIENTED_EDGE('',*,*,#459,.F.);
#582=ORIENTED_EDGE('',*,*,#449,.T.);
#583=ORIENTED_EDGE('',*,*,#460,.T.);
#584=ORIENTED_EDGE('',*,*,#461,.T.);
#585=ORIENTED_EDGE('',*,*,#462,.T.);
#586=ORIENTED_EDGE('',*,*,#463,.T.);
#587=ORIENTED_EDGE('',*,*,#453,.T.);
#588=ORIENTED_EDGE('',*,*,#464,.T.);
#589=ORIENTED_EDGE('',*,*,#465,.T.);
#590=ORIENTED_EDGE('',*,*,#466,.T.);
#591=ORIENTED_EDGE('',*,*,#466,.F.);
#592=ORIENTED_EDGE('',*,*,#467,.F.);
#593=ORIENTED_EDGE('',*,*,#468,.T.);
#594=ORIENTED_EDGE('',*,*,#469,.F.);
#595=ORIENTED_EDGE('',*,*,#454,.F.);
#596=ORIENTED_EDGE('',*,*,#446,.F.);
#597=ORIENTED_EDGE('',*,*,#470,.F.);
#598=ORIENTED_EDGE('',*,*,#464,.F.);
#599=ORIENTED_EDGE('',*,*,#452,.F.);
#600=ORIENTED_EDGE('',*,*,#445,.F.);
#601=ORIENTED_EDGE('',*,*,#451,.T.);
#602=ORIENTED_EDGE('',*,*,#471,.F.);
#603=ORIENTED_EDGE('',*,*,#472,.T.);
#604=ORIENTED_EDGE('',*,*,#473,.F.);
#605=ORIENTED_EDGE('',*,*,#474,.F.);
#606=ORIENTED_EDGE('',*,*,#475,.F.);
#607=ORIENTED_EDGE('',*,*,#476,.F.);
#608=ORIENTED_EDGE('',*,*,#477,.F.);
#609=ORIENTED_EDGE('',*,*,#467,.T.);
#610=ORIENTED_EDGE('',*,*,#465,.F.);
#611=ORIENTED_EDGE('',*,*,#470,.T.);
#612=ORIENTED_EDGE('',*,*,#471,.T.);
#613=ORIENTED_EDGE('',*,*,#450,.T.);
#614=ORIENTED_EDGE('',*,*,#459,.T.);
#615=ORIENTED_EDGE('',*,*,#478,.T.);
#616=ORIENTED_EDGE('',*,*,#478,.F.);
#617=ORIENTED_EDGE('',*,*,#458,.F.);
#618=ORIENTED_EDGE('',*,*,#479,.F.);
#619=ORIENTED_EDGE('',*,*,#480,.F.);
#620=ORIENTED_EDGE('',*,*,#472,.F.);
#621=ORIENTED_EDGE('',*,*,#481,.T.);
#622=ORIENTED_EDGE('',*,*,#482,.F.);
#623=ORIENTED_EDGE('',*,*,#483,.T.);
#624=ORIENTED_EDGE('',*,*,#475,.T.);
#625=ORIENTED_EDGE('',*,*,#483,.F.);
#626=ORIENTED_EDGE('',*,*,#484,.T.);
#627=ORIENTED_EDGE('',*,*,#485,.T.);
#628=ORIENTED_EDGE('',*,*,#476,.T.);
#629=ORIENTED_EDGE('',*,*,#486,.T.);
#630=ORIENTED_EDGE('',*,*,#487,.T.);
#631=ORIENTED_EDGE('',*,*,#481,.F.);
#632=ORIENTED_EDGE('',*,*,#474,.T.);
#633=ORIENTED_EDGE('',*,*,#468,.F.);
#634=ORIENTED_EDGE('',*,*,#477,.T.);
#635=ORIENTED_EDGE('',*,*,#485,.F.);
#636=ORIENTED_EDGE('',*,*,#488,.F.);
#637=ORIENTED_EDGE('',*,*,#489,.T.);
#638=ORIENTED_EDGE('',*,*,#490,.T.);
#639=ORIENTED_EDGE('',*,*,#491,.F.);
#640=ORIENTED_EDGE('',*,*,#486,.F.);
#641=ORIENTED_EDGE('',*,*,#473,.T.);
#642=ORIENTED_EDGE('',*,*,#480,.T.);
#643=ORIENTED_EDGE('',*,*,#479,.T.);
#644=ORIENTED_EDGE('',*,*,#457,.T.);
#645=ORIENTED_EDGE('',*,*,#492,.T.);
#646=ORIENTED_EDGE('',*,*,#493,.T.);
#647=ORIENTED_EDGE('',*,*,#490,.F.);
#648=ORIENTED_EDGE('',*,*,#493,.F.);
#649=ORIENTED_EDGE('',*,*,#494,.T.);
#650=ORIENTED_EDGE('',*,*,#495,.F.);
#651=ORIENTED_EDGE('',*,*,#488,.T.);
#652=ORIENTED_EDGE('',*,*,#484,.F.);
#653=ORIENTED_EDGE('',*,*,#482,.T.);
#654=ORIENTED_EDGE('',*,*,#487,.F.);
#655=ORIENTED_EDGE('',*,*,#491,.T.);
#656=ORIENTED_EDGE('',*,*,#496,.T.);
#657=ORIENTED_EDGE('',*,*,#497,.T.);
#658=ORIENTED_EDGE('',*,*,#498,.T.);
#659=ORIENTED_EDGE('',*,*,#499,.T.);
#660=ORIENTED_EDGE('',*,*,#500,.T.);
#661=ORIENTED_EDGE('',*,*,#501,.T.);
#662=ORIENTED_EDGE('',*,*,#502,.T.);
#663=ORIENTED_EDGE('',*,*,#503,.T.);
#664=ORIENTED_EDGE('',*,*,#504,.T.);
#665=ORIENTED_EDGE('',*,*,#505,.T.);
#666=ORIENTED_EDGE('',*,*,#506,.T.);
#667=ORIENTED_EDGE('',*,*,#507,.T.);
#668=ORIENTED_EDGE('',*,*,#508,.T.);
#669=ORIENTED_EDGE('',*,*,#509,.T.);
#670=ORIENTED_EDGE('',*,*,#510,.T.);
#671=ORIENTED_EDGE('',*,*,#511,.T.);
#672=ORIENTED_EDGE('',*,*,#512,.T.);
#673=ORIENTED_EDGE('',*,*,#513,.T.);
#674=ORIENTED_EDGE('',*,*,#514,.T.);
#675=ORIENTED_EDGE('',*,*,#515,.F.);
#676=ORIENTED_EDGE('',*,*,#492,.F.);
#677=ORIENTED_EDGE('',*,*,#456,.T.);
#678=ORIENTED_EDGE('',*,*,#516,.F.);
#679=ORIENTED_EDGE('',*,*,#494,.F.);
#680=ORIENTED_EDGE('',*,*,#495,.T.);
#681=ORIENTED_EDGE('',*,*,#516,.T.);
#682=ORIENTED_EDGE('',*,*,#455,.T.);
#683=ORIENTED_EDGE('',*,*,#469,.T.);
#684=ORIENTED_EDGE('',*,*,#489,.F.);
#685=ORIENTED_EDGE('',*,*,#517,.F.);
#686=ORIENTED_EDGE('',*,*,#513,.F.);
#687=ORIENTED_EDGE('',*,*,#518,.T.);
#688=ORIENTED_EDGE('',*,*,#519,.T.);
#689=ORIENTED_EDGE('',*,*,#520,.F.);
#690=ORIENTED_EDGE('',*,*,#497,.F.);
#691=ORIENTED_EDGE('',*,*,#521,.F.);
#692=ORIENTED_EDGE('',*,*,#522,.F.);
#693=ORIENTED_EDGE('',*,*,#498,.F.);
#694=ORIENTED_EDGE('',*,*,#520,.T.);
#695=ORIENTED_EDGE('',*,*,#523,.T.);
#696=ORIENTED_EDGE('',*,*,#524,.F.);
#697=ORIENTED_EDGE('',*,*,#512,.F.);
#698=ORIENTED_EDGE('',*,*,#525,.T.);
#699=ORIENTED_EDGE('',*,*,#526,.T.);
#700=ORIENTED_EDGE('',*,*,#518,.F.);
#701=ORIENTED_EDGE('',*,*,#527,.F.);
#702=ORIENTED_EDGE('',*,*,#528,.F.);
#703=ORIENTED_EDGE('',*,*,#529,.F.);
#704=ORIENTED_EDGE('',*,*,#499,.F.);
#705=ORIENTED_EDGE('',*,*,#524,.T.);
#706=ORIENTED_EDGE('',*,*,#530,.T.);
#707=ORIENTED_EDGE('',*,*,#525,.F.);
#708=ORIENTED_EDGE('',*,*,#511,.F.);
#709=ORIENTED_EDGE('',*,*,#530,.F.);
#710=ORIENTED_EDGE('',*,*,#523,.F.);
#711=ORIENTED_EDGE('',*,*,#519,.F.);
#712=ORIENTED_EDGE('',*,*,#526,.F.);
#713=ORIENTED_EDGE('',*,*,#527,.T.);
#714=ORIENTED_EDGE('',*,*,#510,.F.);
#715=ORIENTED_EDGE('',*,*,#531,.F.);
#716=ORIENTED_EDGE('',*,*,#532,.T.);
#717=ORIENTED_EDGE('',*,*,#529,.T.);
#718=ORIENTED_EDGE('',*,*,#533,.F.);
#719=ORIENTED_EDGE('',*,*,#534,.F.);
#720=ORIENTED_EDGE('',*,*,#500,.F.);
#721=ORIENTED_EDGE('',*,*,#521,.T.);
#722=ORIENTED_EDGE('',*,*,#496,.F.);
#723=ORIENTED_EDGE('',*,*,#535,.F.);
#724=ORIENTED_EDGE('',*,*,#536,.F.);
#725=ORIENTED_EDGE('',*,*,#528,.T.);
#726=ORIENTED_EDGE('',*,*,#532,.F.);
#727=ORIENTED_EDGE('',*,*,#537,.F.);
#728=ORIENTED_EDGE('',*,*,#533,.T.);
#729=ORIENTED_EDGE('',*,*,#538,.F.);
#730=ORIENTED_EDGE('',*,*,#539,.F.);
#731=ORIENTED_EDGE('',*,*,#522,.T.);
#732=ORIENTED_EDGE('',*,*,#536,.T.);
#733=ORIENTED_EDGE('',*,*,#540,.T.);
#734=ORIENTED_EDGE('',*,*,#507,.F.);
#735=ORIENTED_EDGE('',*,*,#541,.F.);
#736=ORIENTED_EDGE('',*,*,#542,.T.);
#737=ORIENTED_EDGE('',*,*,#543,.F.);
#738=ORIENTED_EDGE('',*,*,#502,.F.);
#739=ORIENTED_EDGE('',*,*,#544,.T.);
#740=ORIENTED_EDGE('',*,*,#545,.F.);
#741=ORIENTED_EDGE('',*,*,#546,.T.);
#742=ORIENTED_EDGE('',*,*,#503,.F.);
#743=ORIENTED_EDGE('',*,*,#543,.T.);
#744=ORIENTED_EDGE('',*,*,#547,.T.);
#745=ORIENTED_EDGE('',*,*,#517,.T.);
#746=ORIENTED_EDGE('',*,*,#539,.T.);
#747=ORIENTED_EDGE('',*,*,#548,.F.);
#748=ORIENTED_EDGE('',*,*,#514,.F.);
#749=ORIENTED_EDGE('',*,*,#531,.T.);
#750=ORIENTED_EDGE('',*,*,#509,.F.);
#751=ORIENTED_EDGE('',*,*,#549,.F.);
#752=ORIENTED_EDGE('',*,*,#550,.F.);
#753=ORIENTED_EDGE('',*,*,#544,.F.);
#754=ORIENTED_EDGE('',*,*,#501,.F.);
#755=ORIENTED_EDGE('',*,*,#534,.T.);
#756=ORIENTED_EDGE('',*,*,#537,.T.);
#757=ORIENTED_EDGE('',*,*,#540,.F.);
#758=ORIENTED_EDGE('',*,*,#551,.T.);
#759=ORIENTED_EDGE('',*,*,#549,.T.);
#760=ORIENTED_EDGE('',*,*,#508,.F.);
#761=ORIENTED_EDGE('',*,*,#545,.T.);
#762=ORIENTED_EDGE('',*,*,#550,.T.);
#763=ORIENTED_EDGE('',*,*,#551,.F.);
#764=ORIENTED_EDGE('',*,*,#542,.F.);
#765=ORIENTED_EDGE('',*,*,#552,.T.);
#766=ORIENTED_EDGE('',*,*,#553,.F.);
#767=ORIENTED_EDGE('',*,*,#554,.F.);
#768=ORIENTED_EDGE('',*,*,#547,.F.);
#769=ORIENTED_EDGE('',*,*,#461,.F.);
#770=ORIENTED_EDGE('',*,*,#555,.T.);
#771=ORIENTED_EDGE('',*,*,#505,.F.);
#772=ORIENTED_EDGE('',*,*,#556,.F.);
#773=ORIENTED_EDGE('',*,*,#462,.F.);
#774=ORIENTED_EDGE('',*,*,#556,.T.);
#775=ORIENTED_EDGE('',*,*,#504,.F.);
#776=ORIENTED_EDGE('',*,*,#546,.F.);
#777=ORIENTED_EDGE('',*,*,#554,.T.);
#778=ORIENTED_EDGE('',*,*,#557,.F.);
#779=ORIENTED_EDGE('',*,*,#463,.F.);
#780=ORIENTED_EDGE('',*,*,#557,.T.);
#781=ORIENTED_EDGE('',*,*,#553,.T.);
#782=ORIENTED_EDGE('',*,*,#558,.F.);
#783=ORIENTED_EDGE('',*,*,#460,.F.);
#784=ORIENTED_EDGE('',*,*,#558,.T.);
#785=ORIENTED_EDGE('',*,*,#552,.F.);
#786=ORIENTED_EDGE('',*,*,#541,.T.);
#787=ORIENTED_EDGE('',*,*,#506,.F.);
#788=ORIENTED_EDGE('',*,*,#555,.F.);
#789=ORIENTED_EDGE('',*,*,#535,.T.);
#790=ORIENTED_EDGE('',*,*,#515,.T.);
#791=ORIENTED_EDGE('',*,*,#548,.T.);
#792=ORIENTED_EDGE('',*,*,#538,.T.);
#793=ORIENTED_EDGE('',*,*,#559,.F.);
#794=ORIENTED_EDGE('',*,*,#560,.T.);
#795=ORIENTED_EDGE('',*,*,#561,.F.);
#796=ORIENTED_EDGE('',*,*,#560,.F.);
#797=ORIENTED_EDGE('',*,*,#559,.T.);
#798=ORIENTED_EDGE('',*,*,#562,.F.);
#799=ORIENTED_EDGE('',*,*,#563,.T.);
#800=ORIENTED_EDGE('',*,*,#564,.F.);
#801=ORIENTED_EDGE('',*,*,#563,.F.);
#802=ORIENTED_EDGE('',*,*,#564,.T.);
#803=ORIENTED_EDGE('',*,*,#561,.T.);
#804=ORIENTED_EDGE('',*,*,#562,.T.);
#805=CYLINDRICAL_SURFACE('',#874,50.);
#806=CYLINDRICAL_SURFACE('',#883,50.);
#807=CYLINDRICAL_SURFACE('',#891,50.);
#808=CYLINDRICAL_SURFACE('',#902,8.);
#809=CYLINDRICAL_SURFACE('',#907,8.);
#810=CYLINDRICAL_SURFACE('',#918,2.95);
#811=CYLINDRICAL_SURFACE('',#920,2.95);
#812=CYLINDRICAL_SURFACE('',#934,2.95);
#813=CYLINDRICAL_SURFACE('',#938,16.5);
#814=ADVANCED_FACE('',(#58),#805,.T.);
#815=ADVANCED_FACE('',(#59),#24,.T.);
#816=ADVANCED_FACE('',(#60,#21),#25,.T.);
#817=ADVANCED_FACE('',(#61),#806,.T.);
#818=ADVANCED_FACE('',(#62),#26,.T.);
#819=ADVANCED_FACE('',(#63),#27,.T.);
#820=ADVANCED_FACE('',(#64),#28,.F.);
#821=ADVANCED_FACE('',(#65),#807,.T.);
#822=ADVANCED_FACE('',(#66),#29,.T.);
#823=ADVANCED_FACE('',(#67),#30,.T.);
#824=ADVANCED_FACE('',(#68),#19,.T.);
#825=ADVANCED_FACE('',(#69),#20,.T.);
#826=ADVANCED_FACE('',(#70),#31,.T.);
#827=ADVANCED_FACE('',(#71),#32,.T.);
#828=ADVANCED_FACE('',(#72),#808,.T.);
#829=ADVANCED_FACE('',(#73,#22),#33,.T.);
#830=ADVANCED_FACE('',(#74),#34,.T.);
#831=ADVANCED_FACE('',(#75),#809,.T.);
#832=ADVANCED_FACE('',(#76),#35,.F.);
#833=ADVANCED_FACE('',(#77),#36,.F.);
#834=ADVANCED_FACE('',(#78),#37,.F.);
#835=ADVANCED_FACE('',(#79),#38,.F.);
#836=ADVANCED_FACE('',(#80),#39,.F.);
#837=ADVANCED_FACE('',(#81),#40,.F.);
#838=ADVANCED_FACE('',(#82),#41,.F.);
#839=ADVANCED_FACE('',(#83),#42,.F.);
#840=ADVANCED_FACE('',(#84),#810,.F.);
#841=ADVANCED_FACE('',(#85),#811,.F.);
#842=ADVANCED_FACE('',(#86),#43,.F.);
#843=ADVANCED_FACE('',(#87),#44,.F.);
#844=ADVANCED_FACE('',(#88),#45,.F.);
#845=ADVANCED_FACE('',(#89),#46,.F.);
#846=ADVANCED_FACE('',(#90),#47,.F.);
#847=ADVANCED_FACE('',(#91),#48,.F.);
#848=ADVANCED_FACE('',(#92),#49,.F.);
#849=ADVANCED_FACE('',(#93),#50,.T.);
#850=ADVANCED_FACE('',(#94),#51,.T.);
#851=ADVANCED_FACE('',(#95),#52,.T.);
#852=ADVANCED_FACE('',(#96),#53,.T.);
#853=ADVANCED_FACE('',(#97),#54,.F.);
#854=ADVANCED_FACE('',(#98),#812,.T.);
#855=ADVANCED_FACE('',(#99),#55,.F.);
#856=ADVANCED_FACE('',(#100),#813,.T.);
#857=ADVANCED_FACE('',(#101,#23),#56,.T.);
#858=ADVANCED_FACE('',(#102),#57,.T.);
#859=CLOSED_SHELL('',(#814,#815,#816,#817,#818,#819,#820,#821,#822,#823,
#824,#825,#826,#827,#828,#829,#830,#831,#832,#833,#834,#835,#836,#837,#838,
#839,#840,#841,#842,#843,#844,#845,#846,#847,#848,#849,#850,#851,#852,#853));
#860=CLOSED_SHELL('',(#854,#855,#856,#857,#858));
#861=DERIVED_UNIT_ELEMENT(#863,1.);
#862=DERIVED_UNIT_ELEMENT(#1430,-3.);
#863=(
MASS_UNIT()
NAMED_UNIT(*)
SI_UNIT(.KILO.,.GRAM.)
);
#864=DERIVED_UNIT((#861,#862));
#865=MEASURE_REPRESENTATION_ITEM('density measure',
POSITIVE_RATIO_MEASURE(1060.),#864);
#866=PROPERTY_DEFINITION_REPRESENTATION(#871,#868);
#867=PROPERTY_DEFINITION_REPRESENTATION(#872,#869);
#868=REPRESENTATION('material name',(#870),#1427);
#869=REPRESENTATION('density',(#865),#1427);
#870=DESCRIPTIVE_REPRESENTATION_ITEM('ABS Plastic','ABS Plastic');
#871=PROPERTY_DEFINITION('material property','material name',#1437);
#872=PROPERTY_DEFINITION('material property','density of part',#1437);
#873=AXIS2_PLACEMENT_3D('',#1179,#943,#944);
#874=AXIS2_PLACEMENT_3D('',#1180,#945,#946);
#875=AXIS2_PLACEMENT_3D('',#1183,#947,#948);
#876=AXIS2_PLACEMENT_3D('',#1187,#950,#951);
#877=AXIS2_PLACEMENT_3D('',#1189,#953,#954);
#878=AXIS2_PLACEMENT_3D('',#1195,#958,#959);
#879=AXIS2_PLACEMENT_3D('',#1199,#961,#962);
#880=AXIS2_PLACEMENT_3D('',#1203,#964,#965);
#881=AXIS2_PLACEMENT_3D('',#1207,#967,#968);
#882=AXIS2_PLACEMENT_3D('',#1210,#970,#971);
#883=AXIS2_PLACEMENT_3D('',#1219,#976,#977);
#884=AXIS2_PLACEMENT_3D('',#1223,#979,#980);
#885=AXIS2_PLACEMENT_3D('',#1225,#982,#983);
#886=AXIS2_PLACEMENT_3D('',#1231,#987,#988);
#887=AXIS2_PLACEMENT_3D('',#1233,#990,#991);
#888=AXIS2_PLACEMENT_3D('',#1235,#992,#993);
#889=AXIS2_PLACEMENT_3D('',#1241,#996,#997);
#890=AXIS2_PLACEMENT_3D('',#1245,#999,#1000);
#891=AXIS2_PLACEMENT_3D('',#1247,#1002,#1003);
#892=AXIS2_PLACEMENT_3D('',#1249,#1005,#1006);
#893=AXIS2_PLACEMENT_3D('',#1253,#1009,#1010);
#894=AXIS2_PLACEMENT_3D('',#1259,#1014,#1015);
#895=AXIS2_PLACEMENT_3D('',#1261,#1016,#1017);
#896=AXIS2_PLACEMENT_3D('',#1263,#1019,#1020);
#897=AXIS2_PLACEMENT_3D('',#1266,#1022,#1023);
#898=AXIS2_PLACEMENT_3D('',#1267,#1024,#1025);
#899=AXIS2_PLACEMENT_3D('',#1270,#1027,#1028);
#900=AXIS2_PLACEMENT_3D('',#1271,#1029,#1030);
#901=AXIS2_PLACEMENT_3D('',#1273,#1031,#1032);
#902=AXIS2_PLACEMENT_3D('',#1275,#1034,#1035);
#903=AXIS2_PLACEMENT_3D('',#1278,#1037,#1038);
#904=AXIS2_PLACEMENT_3D('',#1279,#1039,#1040);
#905=AXIS2_PLACEMENT_3D('',#1282,#1042,#1043);
#906=AXIS2_PLACEMENT_3D('',#1323,#1064,#1065);
#907=AXIS2_PLACEMENT_3D('',#1325,#1067,#1068);
#908=AXIS2_PLACEMENT_3D('',#1326,#1069,#1070);
#909=AXIS2_PLACEMENT_3D('',#1336,#1076,#1077);
#910=AXIS2_PLACEMENT_3D('',#1337,#1078,#1079);
#911=AXIS2_PLACEMENT_3D('',#1341,#1082,#1083);
#912=AXIS2_PLACEMENT_3D('',#1345,#1086,#1087);
#913=AXIS2_PLACEMENT_3D('',#1349,#1089,#1090);
#914=AXIS2_PLACEMENT_3D('',#1352,#1093,#1094);
#915=AXIS2_PLACEMENT_3D('',#1353,#1095,#1096);
#916=AXIS2_PLACEMENT_3D('',#1357,#1099,#1100);
#917=AXIS2_PLACEMENT_3D('',#1361,#1103,#1104);
#918=AXIS2_PLACEMENT_3D('',#1365,#1107,#1108);
#919=AXIS2_PLACEMENT_3D('',#1366,#1109,#1110);
#920=AXIS2_PLACEMENT_3D('',#1367,#1111,#1112);
#921=AXIS2_PLACEMENT_3D('',#1369,#1113,#1114);
#922=AXIS2_PLACEMENT_3D('',#1371,#1116,#1117);
#923=AXIS2_PLACEMENT_3D('',#1377,#1121,#1122);
#924=AXIS2_PLACEMENT_3D('',#1383,#1126,#1127);
#925=AXIS2_PLACEMENT_3D('',#1387,#1130,#1131);
#926=AXIS2_PLACEMENT_3D('',#1389,#1133,#1134);
#927=AXIS2_PLACEMENT_3D('',#1393,#1137,#1138);
#928=AXIS2_PLACEMENT_3D('',#1395,#1140,#1141);
#929=AXIS2_PLACEMENT_3D('',#1401,#1145,#1146);
#930=AXIS2_PLACEMENT_3D('',#1404,#1149,#1150);
#931=AXIS2_PLACEMENT_3D('',#1406,#1152,#1153);
#932=AXIS2_PLACEMENT_3D('',#1408,#1155,#1156);
#933=AXIS2_PLACEMENT_3D('',#1409,#1157,#1158);
#934=AXIS2_PLACEMENT_3D('',#1410,#1159,#1160);
#935=AXIS2_PLACEMENT_3D('',#1412,#1161,#1162);
#936=AXIS2_PLACEMENT_3D('',#1415,#1164,#1165);
#937=AXIS2_PLACEMENT_3D('',#1416,#1166,#1167);
#938=AXIS2_PLACEMENT_3D('',#1417,#1168,#1169);
#939=AXIS2_PLACEMENT_3D('',#1419,#1170,#1171);
#940=AXIS2_PLACEMENT_3D('',#1422,#1173,#1174);
#941=AXIS2_PLACEMENT_3D('',#1423,#1175,#1176);
#942=AXIS2_PLACEMENT_3D('',#1424,#1177,#1178);
#943=DIRECTION('axis',(0.,0.,1.));
#944=DIRECTION('refdir',(1.,0.,0.));
#945=DIRECTION('center_axis',(0.,0.,-1.));
#946=DIRECTION('ref_axis',(0.69471559362435,-0.719284536171303,0.));
#947=DIRECTION('center_axis',(0.,0.,1.));
#948=DIRECTION('ref_axis',(0.69471559362435,-0.719284536171303,0.));
#949=DIRECTION('',(0.,0.,1.));
#950=DIRECTION('center_axis',(0.,0.,-1.));
#951=DIRECTION('ref_axis',(0.69471559362435,-0.719284536171303,0.));
#952=DIRECTION('',(0.,0.,-1.));
#953=DIRECTION('center_axis',(-0.017372865881533,-0.999849080377165,0.));
#954=DIRECTION('ref_axis',(-0.999849080377165,0.017372865881533,0.));
#955=DIRECTION('',(0.999849080377165,-0.017372865881533,0.));
#956=DIRECTION('',(0.,0.,1.));
#957=DIRECTION('',(-0.999849080377165,0.0173728658815329,0.));
#958=DIRECTION('center_axis',(0.,0.,1.));
#959=DIRECTION('ref_axis',(1.,0.,0.));
#960=DIRECTION('',(0.0173728658815331,0.999849080377165,0.));
#961=DIRECTION('center_axis',(0.,0.,-1.));
#962=DIRECTION('ref_axis',(0.719284536171303,0.69471559362435,0.));
#963=DIRECTION('',(-0.999849080377165,0.0173728658815329,0.));
#964=DIRECTION('center_axis',(0.,0.,-1.));
#965=DIRECTION('ref_axis',(-0.374643473070529,0.927168953365918,0.));
#966=DIRECTION('',(0.707106781186548,0.707106781186547,0.));
#967=DIRECTION('center_axis',(0.,0.,-1.));
#968=DIRECTION('ref_axis',(-0.920520394566126,0.390694513895223,0.));
#969=DIRECTION('',(-0.0173728658815329,-0.999849080377165,0.));
#970=DIRECTION('center_axis',(0.,0.,-1.));
#971=DIRECTION('ref_axis',(-0.719284536171303,-0.694715593624351,0.));
#972=DIRECTION('',(-0.707106781186546,0.707106781186549,0.));
#973=DIRECTION('',(0.707106781186547,0.707106781186547,0.));
#974=DIRECTION('',(0.707106781186547,-0.707106781186548,0.));
#975=DIRECTION('',(-0.707106781186538,-0.707106781186557,0.));
#976=DIRECTION('center_axis',(0.,0.,1.));
#977=DIRECTION('ref_axis',(0.719284536171303,0.69471559362435,0.));
#978=DIRECTION('',(0.,0.,-1.));
#979=DIRECTION('center_axis',(0.,0.,1.));
#980=DIRECTION('ref_axis',(0.719284536171303,0.69471559362435,0.));
#981=DIRECTION('',(0.,0.,1.));
#982=DIRECTION('center_axis',(0.0173728658815329,0.999849080377165,0.));
#983=DIRECTION('ref_axis',(0.999849080377165,-0.0173728658815329,0.));
#984=DIRECTION('',(0.999849080377165,-0.0173728658815329,0.));
#985=DIRECTION('',(0.869242498159968,-0.0151035127555103,0.494155201627042));
#986=DIRECTION('',(0.,0.,-1.));
#987=DIRECTION('center_axis',(0.999849080377165,-0.0173728658815331,0.));
#988=DIRECTION('ref_axis',(-0.0173728658815331,-0.999849080377165,0.));
#989=DIRECTION('',(-0.0173728658815331,-0.999849080377165,0.));
#990=DIRECTION('center_axis',(0.,0.,1.));
#991=DIRECTION('ref_axis',(1.,0.,0.));
#992=DIRECTION('center_axis',(0.,0.,1.));
#993=DIRECTION('ref_axis',(-0.719284536171303,-0.694715593624351,0.));
#994=DIRECTION('',(0.0173728658815329,0.999849080377165,0.));
#995=DIRECTION('',(-0.707106781186549,0.707106781186546,0.));
#996=DIRECTION('center_axis',(0.,0.,-1.));
#997=DIRECTION('ref_axis',(1.25607396694703E-14,-1.,0.));
#998=DIRECTION('',(-0.70710678118653,-0.707106781186565,0.));
#999=DIRECTION('center_axis',(0.,0.,-1.));
#1000=DIRECTION('ref_axis',(1.,2.35513868802567E-14,0.));
#1001=DIRECTION('',(0.707106781186564,-0.707106781186531,0.));
#1002=DIRECTION('center_axis',(0.,0.,-1.));
#1003=DIRECTION('ref_axis',(-0.719284536171303,-0.694715593624351,0.));
#1004=DIRECTION('',(0.,0.,-1.));
#1005=DIRECTION('center_axis',(-0.999849080377165,0.0173728658815329,0.));
#1006=DIRECTION('ref_axis',(0.0173728658815329,0.999849080377165,0.));
#1007=DIRECTION('',(0.,0.,1.));
#1008=DIRECTION('',(0.0149724989982391,0.861702349884056,-0.507193143169388));
#1009=DIRECTION('center_axis',(0.447766735594506,-0.447766735594484,-0.773957299203321));
#1010=DIRECTION('ref_axis',(-0.865578422901092,0.,-0.500773395667201));
#1011=DIRECTION('',(-0.547270454615507,0.547270454615481,-0.633237790257263));
#1012=DIRECTION('',(-0.70710678118653,-0.707106781186565,0.));
#1013=DIRECTION('',(0.547270454615507,-0.547270454615481,0.633237790257263));
#1014=DIRECTION('center_axis',(0.,0.,1.));
#1015=DIRECTION('ref_axis',(1.,2.35513868802567E-14,0.));
#1016=DIRECTION('center_axis',(0.,0.,1.));
#1017=DIRECTION('ref_axis',(1.,2.35513868802567E-14,0.));
#1018=DIRECTION('',(0.54727045461548,0.547270454615508,0.633237790257263));
#1019=DIRECTION('center_axis',(0.,0.,1.));
#1020=DIRECTION('ref_axis',(1.25607396694703E-14,-1.,0.));
#1021=DIRECTION('',(0.547270454615493,0.547270454615496,-0.633237790257263));
#1022=DIRECTION('center_axis',(0.,0.,1.));
#1023=DIRECTION('ref_axis',(1.25607396694703E-14,-1.,0.));
#1024=DIRECTION('center_axis',(0.447766735594484,0.447766735594506,-0.773957299203321));
#1025=DIRECTION('ref_axis',(-0.865578422901102,0.,-0.500773395667182));
#1026=DIRECTION('',(0.707106781186564,-0.707106781186531,0.));
#1027=DIRECTION('center_axis',(0.447766735594484,0.447766735594506,-0.773957299203321));
#1028=DIRECTION('ref_axis',(0.547270454615481,0.547270454615507,0.633237790257263));
#1029=DIRECTION('center_axis',(-0.447766735594494,-0.447766735594496,-0.773957299203321));
#1030=DIRECTION('ref_axis',(-0.865578422901098,0.,0.50077339566719));
#1031=DIRECTION('center_axis',(-0.447766735594494,-0.447766735594496,-0.773957299203321));
#1032=DIRECTION('ref_axis',(-0.547270454615493,-0.547270454615496,0.633237790257262));
#1033=DIRECTION('',(-0.707106781186549,0.707106781186546,0.));
#1034=DIRECTION('center_axis',(0.,0.,-1.));
#1035=DIRECTION('ref_axis',(-0.920520394566126,0.390694513895223,0.));
#1036=DIRECTION('',(0.,0.,-1.));
#1037=DIRECTION('center_axis',(0.,0.,1.));
#1038=DIRECTION('ref_axis',(-0.920520394566126,0.390694513895223,0.));
#1039=DIRECTION('center_axis',(0.,0.,-1.));
#1040=DIRECTION('ref_axis',(-1.,0.,0.));
#1041=DIRECTION('',(0.707106781186548,0.707106781186547,0.));
#1042=DIRECTION('center_axis',(0.,0.,1.));
#1043=DIRECTION('ref_axis',(-0.374643473070529,0.927168953365918,0.));
#1044=DIRECTION('',(-0.707106781186548,0.707106781186547,0.));
#1045=DIRECTION('',(0.707106781186547,0.707106781186548,0.));
#1046=DIRECTION('',(-0.707106781186548,0.707106781186547,0.));
#1047=DIRECTION('',(-0.707106781186547,-0.707106781186548,0.));
#1048=DIRECTION('',(-0.707106781186548,0.707106781186547,0.));
#1049=DIRECTION('',(0.707106781186546,0.707106781186549,0.));
#1050=DIRECTION('',(-0.707106781186549,0.707106781186546,0.));
#1051=DIRECTION('',(-0.707106781186547,-0.707106781186548,0.));
#1052=DIRECTION('',(-0.707106781186547,0.707106781186548,0.));
#1053=DIRECTION('',(-0.707106781186547,-0.707106781186547,0.));
#1054=DIRECTION('',(0.707106781186546,-0.707106781186549,0.));
#1055=DIRECTION('',(-0.707106781186547,-0.707106781186548,0.));
#1056=DIRECTION('',(0.707106781186549,-0.707106781186546,0.));
#1057=DIRECTION('',(0.707106781186546,0.707106781186549,0.));
#1058=DIRECTION('',(0.707106781186548,-0.707106781186547,0.));
#1059=DIRECTION('',(-0.707106781186547,-0.707106781186548,0.));
#1060=DIRECTION('',(0.707106781186549,-0.707106781186546,0.));
#1061=DIRECTION('',(0.707106781186547,0.707106781186548,0.));
#1062=DIRECTION('',(0.707106781186548,-0.707106781186547,0.));
#1063=DIRECTION('',(-0.707106781186547,-0.707106781186548,0.));
#1064=DIRECTION('center_axis',(-0.707106781186547,0.707106781186548,0.));
#1065=DIRECTION('ref_axis',(0.707106781186548,0.707106781186547,0.));
#1066=DIRECTION('',(0.,0.,1.));
#1067=DIRECTION('center_axis',(0.,0.,-1.));
#1068=DIRECTION('ref_axis',(-0.374643473070529,0.927168953365918,0.));
#1069=DIRECTION('center_axis',(0.707106781186548,-0.707106781186547,0.));
#1070=DIRECTION('ref_axis',(0.707106781186547,0.707106781186548,0.));
#1071=DIRECTION('',(0.,0.,1.));
#1072=DIRECTION('',(0.,0.,1.));
#1073=DIRECTION('',(0.707106781186547,0.707106781186548,0.));
#1074=DIRECTION('',(0.,0.,1.));
#1075=DIRECTION('',(5.57808895494735E-31,5.57808895494736E-31,-1.));
#1076=DIRECTION('center_axis',(-0.707106781186548,0.707106781186547,0.));
#1077=DIRECTION('ref_axis',(-0.707106781186547,-0.707106781186548,0.));
#1078=DIRECTION('center_axis',(0.707106781186547,0.707106781186548,0.));
#1079=DIRECTION('ref_axis',(-0.707106781186548,0.707106781186547,0.));
#1080=DIRECTION('',(-0.707106781186548,0.707106781186547,0.));
#1081=DIRECTION('',(0.,0.,1.));
#1082=DIRECTION('center_axis',(-0.707106781186546,-0.707106781186549,0.));
#1083=DIRECTION('ref_axis',(0.707106781186549,-0.707106781186546,0.));
#1084=DIRECTION('',(0.,0.,1.));
#1085=DIRECTION('',(0.707106781186549,-0.707106781186546,0.));
#1086=DIRECTION('center_axis',(-0.707106781186548,0.707106781186547,0.));
#1087=DIRECTION('ref_axis',(-0.707106781186547,-0.707106781186548,0.));
#1088=DIRECTION('',(0.,0.,-1.));
#1089=DIRECTION('center_axis',(0.707106781186548,-0.707106781186547,0.));
#1090=DIRECTION('ref_axis',(-0.707106781186547,-0.707106781186548,0.));
#1091=DIRECTION('',(-5.57808895494735E-31,-5.57808895494736E-31,1.));
#1092=DIRECTION('',(-0.707106781186547,-0.707106781186548,0.));
#1093=DIRECTION('center_axis',(0.,0.,1.));
#1094=DIRECTION('ref_axis',(1.,0.,0.));
#1095=DIRECTION('center_axis',(-0.707106781186547,-0.707106781186548,0.));
#1096=DIRECTION('ref_axis',(-3.92523114670944E-17,3.92523114670943E-17,
-1.));
#1097=DIRECTION('',(0.,0.,-1.));
#1098=DIRECTION('',(0.707106781186548,-0.707106781186547,-1.0875654118777E-14));
#1099=DIRECTION('center_axis',(0.707106781186547,0.707106781186548,7.88860905221012E-31));
#1100=DIRECTION('ref_axis',(7.70682254886928E-15,-7.70682254886926E-15,
1.));
#1101=DIRECTION('',(0.707106781186548,-0.707106781186547,-1.0875654118777E-14));
#1102=DIRECTION('',(-5.57808895494735E-31,-5.57808895494737E-31,1.));
#1103=DIRECTION('center_axis',(0.707106781186547,0.707106781186548,7.88860905221012E-31));
#1104=DIRECTION('ref_axis',(7.70682254886928E-15,-7.70682254886926E-15,
1.));
#1105=DIRECTION('',(-7.69024877722666E-15,7.69024877722664E-15,-1.));
#1106=DIRECTION('',(0.707106781186548,-0.707106781186547,-1.0875654118777E-14));
#1107=DIRECTION('center_axis',(0.707106781186548,-0.707106781186547,0.));
#1108=DIRECTION('ref_axis',(-0.707106781186547,-0.707106781186548,0.));
#1109=DIRECTION('center_axis',(0.707106781186549,-0.707106781186546,0.));
#1110=DIRECTION('ref_axis',(-0.707106781186547,-0.707106781186548,0.));
#1111=DIRECTION('center_axis',(0.707106781186548,-0.707106781186547,0.));
#1112=DIRECTION('ref_axis',(-0.707106781186547,-0.707106781186548,0.));
#1113=DIRECTION('center_axis',(-0.707106781186548,0.707106781186547,1.0875654118777E-14));
#1114=DIRECTION('ref_axis',(-0.707106781186547,-0.707106781186548,0.));
#1115=DIRECTION('',(0.707106781186548,-0.707106781186547,-1.0875654118777E-14));
#1116=DIRECTION('center_axis',(-0.707106781186548,0.707106781186547,5.55111512312578E-17));
#1117=DIRECTION('ref_axis',(-0.707106781186547,-0.707106781186548,0.));
#1118=DIRECTION('',(-3.92523114670944E-17,3.92523114670943E-17,-1.));
#1119=DIRECTION('',(0.,0.,-1.));
#1120=DIRECTION('',(-0.707106781186547,-0.707106781186548,0.));
#1121=DIRECTION('center_axis',(0.707106781186546,0.707106781186549,1.84889274661175E-32));
#1122=DIRECTION('ref_axis',(3.92523114670944E-17,-3.92523114670943E-17,
1.));
#1123=DIRECTION('',(3.92523114670944E-17,-3.92523114670943E-17,1.));
#1124=DIRECTION('',(3.92523114670944E-17,-3.92523114670943E-17,1.));
#1125=DIRECTION('',(0.707106781186549,-0.707106781186546,0.));
#1126=DIRECTION('center_axis',(-0.707106781186548,0.707106781186547,5.55111512312578E-17));
#1127=DIRECTION('ref_axis',(-0.707106781186547,-0.707106781186548,0.));
#1128=DIRECTION('',(0.,0.,-1.));
#1129=DIRECTION('',(-0.707106781186547,-0.707106781186548,0.));
#1130=DIRECTION('center_axis',(-0.707106781186547,-0.707106781186548,0.));
#1131=DIRECTION('ref_axis',(-3.92523114670944E-17,3.92523114670943E-17,
-1.));
#1132=DIRECTION('',(7.69024877722666E-15,-7.69024877722664E-15,1.));
#1133=DIRECTION('center_axis',(0.707106781186549,-0.707106781186546,0.));
#1134=DIRECTION('ref_axis',(0.,0.,-1.));
#1135=DIRECTION('',(-3.92523114670944E-17,3.92523114670943E-17,-1.));
#1136=DIRECTION('',(-0.707106781186547,-0.707106781186548,0.));
#1137=DIRECTION('center_axis',(-0.707106781186546,-0.707106781186549,-1.84889274661175E-32));
#1138=DIRECTION('ref_axis',(-3.92523114670944E-17,3.92523114670943E-17,
-1.));
#1139=DIRECTION('',(0.707106781186549,-0.707106781186546,0.));
#1140=DIRECTION('center_axis',(0.,0.,1.));
#1141=DIRECTION('ref_axis',(-0.707106781186547,-0.707106781186548,0.));
#1142=DIRECTION('',(0.707106781186546,-0.707106781186549,0.));
#1143=DIRECTION('',(-0.707106781186538,-0.707106781186557,0.));
#1144=DIRECTION('',(0.707106781186547,-0.707106781186548,0.));
#1145=DIRECTION('center_axis',(0.707106781186548,-0.707106781186548,0.));
#1146=DIRECTION('ref_axis',(-0.707106781186548,-0.707106781186548,0.));
#1147=DIRECTION('',(0.,0.,-1.));
#1148=DIRECTION('',(0.,0.,-1.));
#1149=DIRECTION('center_axis',(-0.707106781186548,-0.707106781186547,0.));
#1150=DIRECTION('ref_axis',(-0.707106781186547,0.707106781186548,0.));
#1151=DIRECTION('',(0.,0.,-1.));
#1152=DIRECTION('center_axis',(-0.707106781186557,0.707106781186538,0.));
#1153=DIRECTION('ref_axis',(0.707106781186538,0.707106781186557,0.));
#1154=DIRECTION('',(0.,0.,-1.));
#1155=DIRECTION('center_axis',(0.707106781186549,0.707106781186546,0.));
#1156=DIRECTION('ref_axis',(0.707106781186546,-0.707106781186549,0.));
#1157=DIRECTION('center_axis',(0.707106781186548,-0.707106781186547,-1.0875654118777E-14));
#1158=DIRECTION('ref_axis',(-1.53804975544533E-14,0.,-1.));
#1159=DIRECTION('center_axis',(0.707106781186548,-0.707106781186547,0.));
#1160=DIRECTION('ref_axis',(-0.707106781186547,-0.707106781186548,0.));
#1161=DIRECTION('center_axis',(0.707106781186548,-0.707106781186547,-5.55111512312578E-17));
#1162=DIRECTION('ref_axis',(-0.707106781186547,-0.707106781186548,0.));
#1163=DIRECTION('',(-0.707106781186548,0.707106781186547,0.));
#1164=DIRECTION('center_axis',(-0.707106781186548,0.707106781186547,5.55111512312578E-17));
#1165=DIRECTION('ref_axis',(-0.707106781186547,-0.707106781186548,0.));
#1166=DIRECTION('center_axis',(-0.707106781186548,0.707106781186547,5.55111512312578E-17));
#1167=DIRECTION('ref_axis',(-0.707106781186547,-0.707106781186548,0.));
#1168=DIRECTION('center_axis',(-0.707106781186548,0.707106781186547,5.55111512312578E-17));
#1169=DIRECTION('ref_axis',(0.499999999999987,0.499999999999988,0.707106781186565));
#1170=DIRECTION('center_axis',(-0.707106781186548,0.707106781186547,5.55111512312578E-17));
#1171=DIRECTION('ref_axis',(0.499999999999987,0.499999999999988,0.707106781186565));
#1172=DIRECTION('',(0.707106781186548,-0.707106781186547,-5.55111512312578E-17));
#1173=DIRECTION('center_axis',(0.707106781186548,-0.707106781186547,-5.55111512312578E-17));
#1174=DIRECTION('ref_axis',(0.499999999999987,0.499999999999988,0.707106781186565));
#1175=DIRECTION('center_axis',(0.707106781186548,-0.707106781186547,-5.55111512312578E-17));
#1176=DIRECTION('ref_axis',(-0.499999999999987,-0.499999999999988,-0.707106781186565));
#1177=DIRECTION('center_axis',(-0.707106781186548,0.707106781186547,5.55111512312578E-17));
#1178=DIRECTION('ref_axis',(0.499999999999987,0.499999999999988,0.707106781186565));
#1179=CARTESIAN_POINT('',(0.,0.,0.));
#1180=CARTESIAN_POINT('Origin',(178.42999268375,-63.0010758714701,5.55111512312578E-16));
#1181=CARTESIAN_POINT('',(177.561349389674,-112.993529890328,-8.));
#1182=CARTESIAN_POINT('',(228.422446702609,-63.8697191655468,-8.));
#1183=CARTESIAN_POINT('Origin',(178.42999268375,-63.0010758714701,-8.));
#1184=CARTESIAN_POINT('',(228.422446702609,-63.8697191655468,0.));
#1185=CARTESIAN_POINT('',(228.422446702609,-63.8697191655468,5.55111512312578E-16));
#1186=CARTESIAN_POINT('',(177.561349389674,-112.993529890328,1.11022302462516E-15));
#1187=CARTESIAN_POINT('Origin',(178.42999268375,-63.0010758714701,0.));
#1188=CARTESIAN_POINT('',(177.561349389674,-112.993529890328,5.55111512312578E-16));
#1189=CARTESIAN_POINT('Origin',(217.55531260476,-113.68844452559,1.11022302462516E-15));
#1190=CARTESIAN_POINT('',(77.5764413519572,-111.256243302175,1.11022302462516E-15));
#1191=CARTESIAN_POINT('',(27.583987333099,-110.387600008098,1.11022302462516E-15));
#1192=CARTESIAN_POINT('',(77.5764413519572,-111.256243302175,-8.));
#1193=CARTESIAN_POINT('',(77.5764413519572,-111.256243302175,5.55111512312578E-16));
#1194=CARTESIAN_POINT('',(162.565657222406,-112.73297241827,-8.));
#1195=CARTESIAN_POINT('Origin',(65.5790986173939,34.5573162616633,0.));
#1196=CARTESIAN_POINT('',(229.812277656747,16.1183041606817,0.));
#1197=CARTESIAN_POINT('',(227.587645751269,-111.91446717583,0.));
#1198=CARTESIAN_POINT('',(180.688466931966,66.9794014736166,0.));
#1199=CARTESIAN_POINT('Origin',(179.819823637889,16.9869474547583,0.));
#1200=CARTESIAN_POINT('',(61.1958345791322,69.0556442950972,0.));
#1201=CARTESIAN_POINT('',(210.683939343281,66.4582154971706,0.));
#1202=CARTESIAN_POINT('',(55.3999974025875,66.7137059015723,0.));
#1203=CARTESIAN_POINT('Origin',(61.0568516520799,61.0568516520799,0.));
#1204=CARTESIAN_POINT('',(32.5095387733752,43.82324727236,0.));
#1205=CARTESIAN_POINT('',(30.2237595580662,41.5374680570509,0.));
#1206=CARTESIAN_POINT('',(30.1676003798502,38.3053759499198,0.));
#1207=CARTESIAN_POINT('Origin',(38.1663930228675,38.1663930228676,0.));
#1208=CARTESIAN_POINT('',(28.4526306271756,-60.3951459892402,0.));
#1209=CARTESIAN_POINT('',(30.2237595580662,41.5374680570509,0.));
#1210=CARTESIAN_POINT('Origin',(78.4450846460339,-61.2637892833168,0.));
#1211=CARTESIAN_POINT('',(57.8009240243417,23.5769558149124,0.));
#1212=CARTESIAN_POINT('',(39.8404117822032,41.5374680570509,2.22044604925031E-15));
#1213=CARTESIAN_POINT('',(134.129048728518,-52.7511688892642,0.));
#1214=CARTESIAN_POINT('',(57.8009240243418,59.4979802991895,2.22044604925031E-15));
#1215=CARTESIAN_POINT('',(-0.84852813742387,0.848528137423852,2.22044604925031E-15));
#1216=CARTESIAN_POINT('',(75.7614362664801,41.5374680570512,0.));
#1217=CARTESIAN_POINT('',(58.6494521617656,58.6494521617656,0.));
#1218=CARTESIAN_POINT('',(58.6494521617656,24.4254839523363,0.));
#1219=CARTESIAN_POINT('Origin',(179.819823637889,16.9869474547583,0.));
#1220=CARTESIAN_POINT('',(229.812277656747,16.1183041606817,-8.));
#1221=CARTESIAN_POINT('',(229.812277656747,16.1183041606817,0.));
#1222=CARTESIAN_POINT('',(180.688466931966,66.9794014736166,-8.));
#1223=CARTESIAN_POINT('Origin',(179.819823637889,16.9869474547583,-8.));
#1224=CARTESIAN_POINT('',(180.688466931966,66.9794014736166,0.));
#1225=CARTESIAN_POINT('Origin',(57.8009240243418,69.1146325233265,0.));
#1226=CARTESIAN_POINT('',(136.958063903485,67.7392385747045,-8.));
#1227=CARTESIAN_POINT('',(210.683939343281,66.4582154971706,-8.));
#1228=CARTESIAN_POINT('',(61.1958345791321,69.0556442950972,-51.0700291193078));
#1229=CARTESIAN_POINT('',(97.2266305484566,68.4295916254845,-30.5869012410759));
#1230=CARTESIAN_POINT('',(61.1958345791321,69.0556442950972,0.));
#1231=CARTESIAN_POINT('Origin',(230.680920950824,66.1107581795399,0.));
#1232=CARTESIAN_POINT('',(227.587645751269,-111.91446717583,-8.));
#1233=CARTESIAN_POINT('Origin',(118.890291521336,-36.223924873094,-8.));
#1234=CARTESIAN_POINT('',(28.4526306271756,-60.3951459892402,-8.));
#1235=CARTESIAN_POINT('Origin',(78.4450846460339,-61.2637892833168,-8.));
#1236=CARTESIAN_POINT('',(28.8953455919181,-34.9158639073212,-8.));
#1237=CARTESIAN_POINT('',(30.2237595580662,41.5374680570509,-8.));
#1238=CARTESIAN_POINT('',(31.6379731204399,-37.6584914358429,-8.));
#1239=CARTESIAN_POINT('',(53.7086018446853,-59.7291201600883,-8.));
#1240=CARTESIAN_POINT('',(115.076573300453,-37.6584914358418,-8.));
#1241=CARTESIAN_POINT('Origin',(73.3572732104461,4.06080865416347,-8.));
#1242=CARTESIAN_POINT('',(136.996883517236,-15.7381812190578,-8.));
#1243=CARTESIAN_POINT('',(128.763013167125,-23.9720515691691,-8.));
#1244=CARTESIAN_POINT('',(136.996883517234,67.7004189609549,-8.));
#1245=CARTESIAN_POINT('Origin',(95.277583427229,25.9811188709475,-8.));
#1246=CARTESIAN_POINT('',(138.298778212955,66.3985242652346,-8.));
#1247=CARTESIAN_POINT('Origin',(78.4450846460339,-61.2637892833168,5.55111512312578E-16));
#1248=CARTESIAN_POINT('',(28.4526306271756,-60.3951459892402,5.55111512312578E-16));
#1249=CARTESIAN_POINT('Origin',(27.0966436993902,-138.435366410839,0.));
#1250=CARTESIAN_POINT('',(30.1676003798502,38.3053759499198,-51.0976088146338));
#1251=CARTESIAN_POINT('',(30.1676003798502,38.3053759499198,0.));
#1252=CARTESIAN_POINT('',(28.2527376978368,-71.8994517805927,13.7683312360118));
#1253=CARTESIAN_POINT('Origin',(109.317576684495,-4.5266150865395,-30.5));
#1254=CARTESIAN_POINT('',(76.1857003351923,1.23238152941735,-53.));
#1255=CARTESIAN_POINT('',(115.076573300453,-37.6584914358418,-8.));
#1256=CARTESIAN_POINT('',(98.1060105519753,23.1526917462014,-53.));
#1257=CARTESIAN_POINT('',(73.3572732104461,-1.59604559532898,-53.));
#1258=CARTESIAN_POINT('',(98.1060105519753,23.1526917462014,-53.));
#1259=CARTESIAN_POINT('Origin',(95.277583427229,25.9811188709475,-30.5));
#1260=CARTESIAN_POINT('',(98.1060105519752,28.8095459956938,-53.));
#1261=CARTESIAN_POINT('Origin',(95.277583427229,25.9811188709475,-53.));
#1262=CARTESIAN_POINT('',(98.1060105519752,28.8095459956938,-53.));
#1263=CARTESIAN_POINT('Origin',(73.3572732104461,4.06080865416347,-30.5));
#1264=CARTESIAN_POINT('',(70.5288460856999,1.23238152941727,-53.));
#1265=CARTESIAN_POINT('',(31.6379731204399,-37.6584914358429,-8.));
#1266=CARTESIAN_POINT('Origin',(73.3572732104461,4.06080865416347,-53.));
#1267=CARTESIAN_POINT('Origin',(118.853341730325,46.9530877826041,-30.5));
#1268=CARTESIAN_POINT('',(58.3357131281179,68.5798434195491,-53.));
#1269=CARTESIAN_POINT('',(85.3780884906171,41.5374680570512,-53.));
#1270=CARTESIAN_POINT('Origin',(61.0568516520799,61.0568516520799,-55.7780733560655));
#1271=CARTESIAN_POINT('Origin',(73.1540383273153,-40.2836836774582,-30.5));
#1272=CARTESIAN_POINT('',(30.7061366959209,41.0550909191961,-53.));
#1273=CARTESIAN_POINT('Origin',(38.1663930228675,38.1663930228676,-55.6448381547205));
#1274=CARTESIAN_POINT('',(57.8009240243419,13.9603035907752,-53.));
#1275=CARTESIAN_POINT('Origin',(38.1663930228675,38.1663930228676,0.));
#1276=CARTESIAN_POINT('',(32.5095387733752,43.82324727236,-53.));
#1277=CARTESIAN_POINT('',(32.5095387733752,43.82324727236,0.));
#1278=CARTESIAN_POINT('Origin',(38.1663930228675,38.1663930228676,-53.));
#1279=CARTESIAN_POINT('Origin',(65.5790986173939,34.5573162616633,-53.));
#1280=CARTESIAN_POINT('',(55.3999974025875,66.7137059015723,-53.));
#1281=CARTESIAN_POINT('',(30.2237595580662,41.5374680570509,-53.));
#1282=CARTESIAN_POINT('Origin',(61.0568516520799,61.0568516520799,-53.));
#1283=CARTESIAN_POINT('',(84.9891797609644,18.521142329429,-53.0000000000003));
#1284=CARTESIAN_POINT('',(79.6854795202176,23.8248425701758,-53.));
#1285=CARTESIAN_POINT('',(67.6423346177746,35.8679874726187,-53.));
#1286=CARTESIAN_POINT('',(81.0643377435314,25.2037007934895,-53.));
#1287=CARTESIAN_POINT('',(76.0666086012264,20.2059716511845,-53.));
#1288=CARTESIAN_POINT('',(77.5288038375986,28.7392346994222,-53.));
#1289=CARTESIAN_POINT('',(75.5617308761401,30.7063076608808,-53.));
#1290=CARTESIAN_POINT('',(76.1499456142849,27.3603764761085,-53.));
#1291=CARTESIAN_POINT('',(75.9958979231077,27.2063287849313,-53.));
#1292=CARTESIAN_POINT('',(73.6754712619797,29.8348508284136,-53.0000000000001));
#1293=CARTESIAN_POINT('',(67.6423346177746,35.8679874726187,-53.));
#1294=CARTESIAN_POINT('',(83.6103215376507,39.7697011040846,-53.));
#1295=CARTESIAN_POINT('',(71.7890119568955,27.9483915233294,-53.));
#1296=CARTESIAN_POINT('',(74.4179333822256,48.9620892595097,-53.));
#1297=CARTESIAN_POINT('',(77.5771848934456,45.8028377482896,-53.));
#1298=CARTESIAN_POINT('',(71.3773742231235,45.9215301004078,-53.));
#1299=CARTESIAN_POINT('',(62.5966238014704,37.1407796787545,-53.));
#1300=CARTESIAN_POINT('',(57.8009240243418,59.4979802991895,-53.));
#1301=CARTESIAN_POINT('',(58.6494521617656,58.6494521617656,-53.));
#1302=CARTESIAN_POINT('',(39.8404117822032,41.5374680570509,-53.));
#1303=CARTESIAN_POINT('',(-0.84852813742387,0.848528137423852,-53.));
#1304=CARTESIAN_POINT('',(53.4168619809851,27.961017858269,-53.));
#1305=CARTESIAN_POINT('',(134.129048728518,-52.7511688892642,-53.));
#1306=CARTESIAN_POINT('',(50.376302821883,24.920458699167,-53.));
#1307=CARTESIAN_POINT('',(62.5966238014704,37.1407796787545,-53.));
#1308=CARTESIAN_POINT('',(59.5686909773081,15.7280705437419,-53.));
#1309=CARTESIAN_POINT('',(53.535554333103,21.761207187947,-53.));
#1310=CARTESIAN_POINT('',(69.5035412529791,25.6629208194129,-53.0000000000001));
#1311=CARTESIAN_POINT('',(71.7890119568955,27.9483915233294,-53.));
#1312=CARTESIAN_POINT('',(71.9780156052843,23.1884464671078,-53.));
#1313=CARTESIAN_POINT('',(63.470404608774,31.6960574636181,-53.));
#1314=CARTESIAN_POINT('',(70.5991573819705,21.8095882437941,-53.));
#1315=CARTESIAN_POINT('',(75.9958979231077,27.2063287849313,-53.));
#1316=CARTESIAN_POINT('',(74.1346912879033,18.2740543378614,-53.));
#1317=CARTESIAN_POINT('',(66.8643174675456,25.544428158219,-53.));
#1318=CARTESIAN_POINT('',(75.513549511217,19.6529125611751,-53.));
#1319=CARTESIAN_POINT('',(76.0666086012264,20.2059716511845,-53.));
#1320=CARTESIAN_POINT('',(80.8172497519638,14.3492123204283,-53.0000000000003));
#1321=CARTESIAN_POINT('',(63.470404608774,31.6960574636181,-53.));
#1322=CARTESIAN_POINT('',(83.1027204558802,16.6346830243447,-53.));
#1323=CARTESIAN_POINT('Origin',(30.2237595580662,41.5374680570509,0.));
#1324=CARTESIAN_POINT('',(55.3999974025875,66.7137059015723,0.));
#1325=CARTESIAN_POINT('Origin',(61.0568516520799,61.0568516520799,0.));
#1326=CARTESIAN_POINT('Origin',(74.1346912879032,18.2740543378614,-53.));
#1327=CARTESIAN_POINT('',(75.513549511217,19.6529125611751,-36.5000000000002));
#1328=CARTESIAN_POINT('',(75.513549511217,19.6529125611751,-44.75));
#1329=CARTESIAN_POINT('',(74.1346912879033,18.2740543378614,-30.));
#1330=CARTESIAN_POINT('',(74.1346912879033,18.2740543378614,-53.));
#1331=CARTESIAN_POINT('',(81.0643377435314,25.2037007934895,-30.));
#1332=CARTESIAN_POINT('',(81.0643377435314,25.2037007934895,-30.));
#1333=CARTESIAN_POINT('',(81.0643377435314,25.2037007934895,-53.));
#1334=CARTESIAN_POINT('',(79.6854795202176,23.8248425701758,-36.5000000000002));
#1335=CARTESIAN_POINT('',(79.6854795202176,23.8248425701758,-53.));
#1336=CARTESIAN_POINT('Origin',(77.5995145157173,21.7388775656754,-36.5));
#1337=CARTESIAN_POINT('Origin',(82.4785513059044,23.7894872311164,-53.));
#1338=CARTESIAN_POINT('',(77.5288038375986,28.7392346994222,-30.));
#1339=CARTESIAN_POINT('',(78.9430173999717,27.3250211370491,-30.));
#1340=CARTESIAN_POINT('',(77.5288038375986,28.7392346994222,-53.));
#1341=CARTESIAN_POINT('Origin',(72.0133709443436,20.395374681421,-53.));
#1342=CARTESIAN_POINT('',(70.5991573819705,21.8095882437941,-30.));
#1343=CARTESIAN_POINT('',(70.5991573819705,21.8095882437941,-53.));
#1344=CARTESIAN_POINT('',(72.0133709443436,20.395374681421,-30.));
#1345=CARTESIAN_POINT('Origin',(77.5288038375986,28.7392346994222,-53.));
#1346=CARTESIAN_POINT('',(71.9780156052843,23.1884464671078,-36.5000000000001));
#1347=CARTESIAN_POINT('',(71.9780156052843,23.1884464671078,-44.75));
#1348=CARTESIAN_POINT('',(76.1499456142849,27.3603764761085,-36.5000000000001));
#1349=CARTESIAN_POINT('Origin',(74.0639806097846,25.2744114716082,-36.5));
#1350=CARTESIAN_POINT('',(76.1499456142849,27.3603764761085,-53.));
#1351=CARTESIAN_POINT('',(74.0639806097846,25.2744114716082,-30.));
#1352=CARTESIAN_POINT('Origin',(77.245961125124,22.0924309562687,-30.));
#1353=CARTESIAN_POINT('Origin',(63.8466870034866,31.3197750689054,-36.5));
#1354=CARTESIAN_POINT('',(69.5035412529791,25.6629208194129,-36.5000000000001));
#1355=CARTESIAN_POINT('',(69.5035412529791,25.6629208194129,-36.5));
#1356=CARTESIAN_POINT('',(63.8466870034866,31.3197750689054,-36.5));
#1357=CARTESIAN_POINT('Origin',(68.0186170124872,35.4917050779061,-53.));
#1358=CARTESIAN_POINT('',(73.6754712619797,29.8348508284136,-36.5000000000001));
#1359=CARTESIAN_POINT('',(68.0186170124874,35.4917050779059,-36.5));
#1360=CARTESIAN_POINT('',(73.6754712619797,29.8348508284136,-44.75));
#1361=CARTESIAN_POINT('Origin',(68.0186170124872,35.4917050779061,-53.));
#1362=CARTESIAN_POINT('',(84.9891797609646,18.5211423294288,-36.5000000000003));
#1363=CARTESIAN_POINT('',(84.9891797609644,18.5211423294289,-48.8750000000003));
#1364=CARTESIAN_POINT('',(68.0186170124874,35.4917050779059,-36.5));
#1365=CARTESIAN_POINT('Origin',(65.932652007987,33.4057400734056,-36.5));
#1366=CARTESIAN_POINT('Origin',(71.5895062574794,27.7488858239133,-36.5));
#1367=CARTESIAN_POINT('Origin',(65.932652007987,33.4057400734056,-36.5));
#1368=CARTESIAN_POINT('',(80.8172497519638,14.3492123204283,-36.5000000000003));
#1369=CARTESIAN_POINT('Origin',(82.9032147564642,16.4351773249286,-36.5));
#1370=CARTESIAN_POINT('',(63.8466870034866,31.3197750689054,-36.5));
#1371=CARTESIAN_POINT('Origin',(62.3971181020543,36.9412739793384,-36.5));
#1372=CARTESIAN_POINT('',(50.376302821883,24.920458699167,-20.));
#1373=CARTESIAN_POINT('',(50.376302821883,24.920458699167,-20.));
#1374=CARTESIAN_POINT('',(53.4168619809851,27.961017858269,-20.));
#1375=CARTESIAN_POINT('',(53.4168619809851,27.961017858269,0.));
#1376=CARTESIAN_POINT('',(74.0643799916323,48.6085358689164,-20.));
#1377=CARTESIAN_POINT('Origin',(77.9534672881583,45.426555353577,-53.));
#1378=CARTESIAN_POINT('',(74.4179333822256,48.9620892595097,-20.));
#1379=CARTESIAN_POINT('',(74.4179333822256,48.9620892595097,-53.));
#1380=CARTESIAN_POINT('',(83.6103215376507,39.7697011040846,-20.));
#1381=CARTESIAN_POINT('',(83.6103215376507,39.7697011040846,-53.));
#1382=CARTESIAN_POINT('',(77.9534672881583,45.426555353577,-20.));
#1383=CARTESIAN_POINT('Origin',(62.3971181020543,36.9412739793384,-36.5));
#1384=CARTESIAN_POINT('',(71.3773742231236,45.9215301004077,-20.));
#1385=CARTESIAN_POINT('',(71.3773742231235,45.9215301004078,0.));
#1386=CARTESIAN_POINT('',(74.0643799916323,48.6085358689164,-20.));
#1387=CARTESIAN_POINT('Origin',(63.8466870034866,31.3197750689054,-36.5));
#1388=CARTESIAN_POINT('',(80.8172497519639,14.3492123204282,-40.6250000000003));
#1389=CARTESIAN_POINT('Origin',(71.5895062574794,27.7488858239133,-36.5));
#1390=CARTESIAN_POINT('',(59.5686909773081,15.7280705437419,-20.));
#1391=CARTESIAN_POINT('',(59.5686909773081,15.7280705437419,-20.));
#1392=CARTESIAN_POINT('',(83.2567681470574,39.4161477134913,-20.));
#1393=CARTESIAN_POINT('Origin',(53.9118367278157,21.3849247932343,-20.));
#1394=CARTESIAN_POINT('',(53.9118367278157,21.3849247932343,-20.));
#1395=CARTESIAN_POINT('Origin',(77.599913897565,45.0730019629837,-20.));
#1396=CARTESIAN_POINT('',(57.8009240243417,23.5769558149124,-20.));
#1397=CARTESIAN_POINT('',(48.8206679032724,32.5572119359817,-20.));
#1398=CARTESIAN_POINT('',(75.7614362664801,41.5374680570511,-20.));
#1399=CARTESIAN_POINT('',(68.5489470983772,34.3249788889481,-20.));
#1400=CARTESIAN_POINT('',(74.9129081290562,42.385996194475,-20.));
#1401=CARTESIAN_POINT('Origin',(56.9523958869179,58.6494521617656,2.22044604925031E-15));
#1402=CARTESIAN_POINT('',(39.8404117822032,41.5374680570509,2.22044604925031E-15));
#1403=CARTESIAN_POINT('',(57.8009240243418,59.4979802991895,2.22044604925031E-15));
#1404=CARTESIAN_POINT('Origin',(74.9129081290562,42.385996194475,0.));
#1405=CARTESIAN_POINT('',(75.7614362664801,41.5374680570512,0.));
#1406=CARTESIAN_POINT('Origin',(58.6494521617656,24.4254839523363,0.));
#1407=CARTESIAN_POINT('',(57.8009240243417,23.5769558149124,0.));
#1408=CARTESIAN_POINT('Origin',(40.6889399196271,40.6889399196271,0.));
#1409=CARTESIAN_POINT('Origin',(82.9032147564642,16.4351773249286,-44.7500000000003));
#1410=CARTESIAN_POINT('Origin',(65.932652007987,33.4057400734056,-36.5));
#1411=CARTESIAN_POINT('',(92.06024757283,11.4500745175633,-36.5));
#1412=CARTESIAN_POINT('Origin',(89.9742825683297,9.36410951306303,-36.5));
#1413=CARTESIAN_POINT('',(73.6754712619797,29.8348508284136,-36.5));
#1414=CARTESIAN_POINT('',(68.0186170124874,35.4917050779059,-36.5));
#1415=CARTESIAN_POINT('Origin',(71.5895062574794,27.7488858239133,-36.5));
#1416=CARTESIAN_POINT('Origin',(89.9742825683297,9.36410951306303,-36.5));
#1417=CARTESIAN_POINT('Origin',(68.7610791327332,30.5773129486594,-36.5));
#1418=CARTESIAN_POINT('',(57.6826520079872,25.1557400734058,-48.1672618895783));
#1419=CARTESIAN_POINT('Origin',(65.932652007987,33.4057400734056,-36.5));
#1420=CARTESIAN_POINT('',(63.3395062574796,19.4988858239134,-48.1672618895783));
#1421=CARTESIAN_POINT('',(60.5110791327334,22.3273129486596,-48.1672618895783));
#1422=CARTESIAN_POINT('Origin',(71.5895062574794,27.7488858239133,-36.5));
#1423=CARTESIAN_POINT('Origin',(71.5895062574794,27.7488858239133,-36.5));
#1424=CARTESIAN_POINT('Origin',(65.932652007987,33.4057400734056,-36.5));
#1425=UNCERTAINTY_MEASURE_WITH_UNIT(LENGTH_MEASURE(0.01),#1429,
'DISTANCE_ACCURACY_VALUE',
'Maximum model space distance between geometric entities at asserted c
onnectivities');
#1426=UNCERTAINTY_MEASURE_WITH_UNIT(LENGTH_MEASURE(0.01),#1429,
'DISTANCE_ACCURACY_VALUE',
'Maximum model space distance between geometric entities at asserted c
onnectivities');
#1427=(
GEOMETRIC_REPRESENTATION_CONTEXT(3)
GLOBAL_UNCERTAINTY_ASSIGNED_CONTEXT((#1425))
GLOBAL_UNIT_ASSIGNED_CONTEXT((#1429,#1431,#1432))
REPRESENTATION_CONTEXT('','3D')
);
#1428=(
GEOMETRIC_REPRESENTATION_CONTEXT(3)
GLOBAL_UNCERTAINTY_ASSIGNED_CONTEXT((#1426))
GLOBAL_UNIT_ASSIGNED_CONTEXT((#1429,#1431,#1432))
REPRESENTATION_CONTEXT('','3D')
);
#1429=(
LENGTH_UNIT()
NAMED_UNIT(*)
SI_UNIT(.MILLI.,.METRE.)
);
#1430=(
LENGTH_UNIT()
NAMED_UNIT(*)
SI_UNIT($,.METRE.)
);
#1431=(
NAMED_UNIT(*)
PLANE_ANGLE_UNIT()
SI_UNIT($,.RADIAN.)
);
#1432=(
NAMED_UNIT(*)
SI_UNIT($,.STERADIAN.)
SOLID_ANGLE_UNIT()
);
#1433=SHAPE_DEFINITION_REPRESENTATION(#1434,#1435);
#1434=PRODUCT_DEFINITION_SHAPE('',$,#1437);
#1435=SHAPE_REPRESENTATION('',(#873),#1427);
#1436=PRODUCT_DEFINITION_CONTEXT('part definition',#1441,'design');
#1437=PRODUCT_DEFINITION('kitchen_chair_footrest',
'kitchen_chair_footrest v6',#1438,#1436);
#1438=PRODUCT_DEFINITION_FORMATION('',$,#1443);
#1439=PRODUCT_RELATED_PRODUCT_CATEGORY('kitchen_chair_footrest v6',
'kitchen_chair_footrest v6',(#1443));
#1440=APPLICATION_PROTOCOL_DEFINITION('international standard',
'automotive_design',2009,#1441);
#1441=APPLICATION_CONTEXT(
'Core Data for Automotive Mechanical Design Process');
#1442=PRODUCT_CONTEXT('part definition',#1441,'mechanical');
#1443=PRODUCT('kitchen_chair_footrest','kitchen_chair_footrest v6',$,(#1442));
#1444=PRESENTATION_STYLE_ASSIGNMENT((#1445));
#1445=SURFACE_STYLE_USAGE(.BOTH.,#1446);
#1446=SURFACE_SIDE_STYLE('',(#1447));
#1447=SURFACE_STYLE_FILL_AREA(#1448);
#1448=FILL_AREA_STYLE('Plastic - Matte (Gray)',(#1449));
#1449=FILL_AREA_STYLE_COLOUR('Plastic - Matte (Gray)',#1450);
#1450=COLOUR_RGB('Plastic - Matte (Gray)',0.701960784313725,0.701960784313725,
0.701960784313725);
ENDSEC;
END-ISO-10303-21;
