ISO-10303-21;
HEADER;
/* Generated by software containing ST-Developer
 * from STEP Tools, Inc. (www.steptools.com) 
 */

FILE_DESCRIPTION(
/* description */ (''),
/* implementation_level */ '2;1');

FILE_NAME(
/* name */ 'timer_indicator_disk_v2.step',
/* time_stamp */ '2026-03-17T23:35:58-04:00',
/* author */ (''),
/* organization */ (''),
/* preprocessor_version */ 'ST-DEVELOPER v20.1',
/* originating_system */ 'Autodesk Translation Framework v14.24.0.0',
/* authorisation */ '');

FILE_SCHEMA (('AUTOMOTIVE_DESIGN { 1 0 10303 214 3 1 1 }'));
ENDSEC;

DATA;
#10=MECHANICAL_DESIGN_GEOMETRIC_PRESENTATION_REPRESENTATION('',(#13),#951);
#11=SHAPE_REPRESENTATION_RELATIONSHIP('SRR','None',#958,#12);
#12=ADVANCED_BREP_SHAPE_REPRESENTATION('',(#14),#950);
#13=STYLED_ITEM('',(#967),#14);
#14=MANIFOLD_SOLID_BREP('Body1',#551);
#15=FACE_BOUND('',#103,.T.);
#16=FACE_BOUND('',#104,.T.);
#17=FACE_BOUND('',#105,.T.);
#18=FACE_BOUND('',#125,.T.);
#19=FACE_BOUND('',#126,.T.);
#20=FACE_BOUND('',#127,.T.);
#21=CIRCLE('',#567,1.99999999999659);
#22=CIRCLE('',#568,1.99999999999659);
#23=CIRCLE('',#571,65.);
#24=CIRCLE('',#572,65.);
#25=CIRCLE('',#574,3.);
#26=CIRCLE('',#575,3.);
#27=CIRCLE('',#578,3.);
#28=CIRCLE('',#579,3.);
#29=CIRCLE('',#581,12.5000000000079);
#30=CIRCLE('',#582,12.5000000000079);
#31=CIRCLE('',#584,3.);
#32=CIRCLE('',#585,4.9910618462024);
#33=CIRCLE('',#586,4.7910618462024);
#34=CIRCLE('',#587,3.);
#35=CIRCLE('',#588,16.5000000000079);
#36=CIRCLE('',#589,2.00000000000791);
#37=CIRCLE('',#590,1.125);
#38=CIRCLE('',#591,1.125);
#39=CIRCLE('',#592,2.125);
#40=CIRCLE('',#593,2.125);
#41=CIRCLE('',#595,3.);
#42=CIRCLE('',#598,3.);
#43=CIRCLE('',#602,2.125);
#44=CIRCLE('',#605,2.125);
#45=CIRCLE('',#607,1.125);
#46=CIRCLE('',#609,1.125);
#47=CIRCLE('',#611,16.5000000000079);
#48=CIRCLE('',#613,2.00000000000791);
#49=CIRCLE('',#616,4.9910618462024);
#50=CIRCLE('',#621,4.7910618462024);
#51=CYLINDRICAL_SURFACE('',#566,1.99999999999659);
#52=CYLINDRICAL_SURFACE('',#570,65.);
#53=CYLINDRICAL_SURFACE('',#573,3.);
#54=CYLINDRICAL_SURFACE('',#577,3.);
#55=CYLINDRICAL_SURFACE('',#580,12.5000000000079);
#56=CYLINDRICAL_SURFACE('',#594,3.);
#57=CYLINDRICAL_SURFACE('',#597,3.);
#58=CYLINDRICAL_SURFACE('',#601,2.125);
#59=CYLINDRICAL_SURFACE('',#604,2.125);
#60=CYLINDRICAL_SURFACE('',#606,1.125);
#61=CYLINDRICAL_SURFACE('',#608,1.125);
#62=CYLINDRICAL_SURFACE('',#610,16.5000000000079);
#63=CYLINDRICAL_SURFACE('',#612,2.00000000000791);
#64=CYLINDRICAL_SURFACE('',#615,4.9910618462024);
#65=CYLINDRICAL_SURFACE('',#620,4.7910618462024);
#66=FACE_OUTER_BOUND('',#94,.T.);
#67=FACE_OUTER_BOUND('',#95,.T.);
#68=FACE_OUTER_BOUND('',#96,.T.);
#69=FACE_OUTER_BOUND('',#97,.T.);
#70=FACE_OUTER_BOUND('',#98,.T.);
#71=FACE_OUTER_BOUND('',#99,.T.);
#72=FACE_OUTER_BOUND('',#100,.T.);
#73=FACE_OUTER_BOUND('',#101,.T.);
#74=FACE_OUTER_BOUND('',#102,.T.);
#75=FACE_OUTER_BOUND('',#106,.T.);
#76=FACE_OUTER_BOUND('',#107,.T.);
#77=FACE_OUTER_BOUND('',#108,.T.);
#78=FACE_OUTER_BOUND('',#109,.T.);
#79=FACE_OUTER_BOUND('',#110,.T.);
#80=FACE_OUTER_BOUND('',#111,.T.);
#81=FACE_OUTER_BOUND('',#112,.T.);
#82=FACE_OUTER_BOUND('',#113,.T.);
#83=FACE_OUTER_BOUND('',#114,.T.);
#84=FACE_OUTER_BOUND('',#115,.T.);
#85=FACE_OUTER_BOUND('',#116,.T.);
#86=FACE_OUTER_BOUND('',#117,.T.);
#87=FACE_OUTER_BOUND('',#118,.T.);
#88=FACE_OUTER_BOUND('',#119,.T.);
#89=FACE_OUTER_BOUND('',#120,.T.);
#90=FACE_OUTER_BOUND('',#121,.T.);
#91=FACE_OUTER_BOUND('',#122,.T.);
#92=FACE_OUTER_BOUND('',#123,.T.);
#93=FACE_OUTER_BOUND('',#124,.T.);
#94=EDGE_LOOP('',(#354,#355,#356,#357));
#95=EDGE_LOOP('',(#358,#359,#360,#361));
#96=EDGE_LOOP('',(#362,#363,#364,#365));
#97=EDGE_LOOP('',(#366,#367,#368,#369));
#98=EDGE_LOOP('',(#370,#371,#372,#373));
#99=EDGE_LOOP('',(#374,#375,#376,#377));
#100=EDGE_LOOP('',(#378,#379,#380,#381));
#101=EDGE_LOOP('',(#382,#383,#384,#385));
#102=EDGE_LOOP('',(#386,#387,#388,#389,#390,#391,#392,#393,#394,#395,#396,
#397,#398,#399,#400,#401,#402,#403,#404,#405));
#103=EDGE_LOOP('',(#406));
#104=EDGE_LOOP('',(#407));
#105=EDGE_LOOP('',(#408,#409,#410,#411));
#106=EDGE_LOOP('',(#412,#413,#414,#415));
#107=EDGE_LOOP('',(#416,#417,#418,#419));
#108=EDGE_LOOP('',(#420,#421,#422,#423));
#109=EDGE_LOOP('',(#424,#425,#426,#427));
#110=EDGE_LOOP('',(#428,#429,#430,#431));
#111=EDGE_LOOP('',(#432,#433,#434,#435));
#112=EDGE_LOOP('',(#436,#437,#438,#439));
#113=EDGE_LOOP('',(#440,#441,#442,#443));
#114=EDGE_LOOP('',(#444,#445,#446,#447));
#115=EDGE_LOOP('',(#448,#449,#450,#451));
#116=EDGE_LOOP('',(#452,#453,#454,#455));
#117=EDGE_LOOP('',(#456,#457,#458,#459));
#118=EDGE_LOOP('',(#460,#461,#462,#463));
#119=EDGE_LOOP('',(#464,#465,#466,#467));
#120=EDGE_LOOP('',(#468,#469,#470,#471));
#121=EDGE_LOOP('',(#472,#473,#474,#475));
#122=EDGE_LOOP('',(#476,#477,#478,#479));
#123=EDGE_LOOP('',(#480,#481,#482,#483));
#124=EDGE_LOOP('',(#484,#485,#486,#487,#488,#489,#490,#491,#492,#493,#494,
#495,#496,#497,#498,#499,#500,#501,#502,#503));
#125=EDGE_LOOP('',(#504));
#126=EDGE_LOOP('',(#505));
#127=EDGE_LOOP('',(#506,#507,#508,#509));
#128=LINE('',#793,#176);
#129=LINE('',#795,#177);
#130=LINE('',#797,#178);
#131=LINE('',#798,#179);
#132=LINE('',#804,#180);
#133=LINE('',#807,#181);
#134=LINE('',#809,#182);
#135=LINE('',#810,#183);
#136=LINE('',#815,#184);
#137=LINE('',#822,#185);
#138=LINE('',#825,#186);
#139=LINE('',#828,#187);
#140=LINE('',#830,#188);
#141=LINE('',#831,#189);
#142=LINE('',#837,#190);
#143=LINE('',#840,#191);
#144=LINE('',#845,#192);
#145=LINE('',#849,#193);
#146=LINE('',#853,#194);
#147=LINE('',#856,#195);
#148=LINE('',#858,#196);
#149=LINE('',#860,#197);
#150=LINE('',#864,#198);
#151=LINE('',#877,#199);
#152=LINE('',#880,#200);
#153=LINE('',#883,#201);
#154=LINE('',#887,#202);
#155=LINE('',#888,#203);
#156=LINE('',#893,#204);
#157=LINE('',#894,#205);
#158=LINE('',#897,#206);
#159=LINE('',#898,#207);
#160=LINE('',#901,#208);
#161=LINE('',#903,#209);
#162=LINE('',#904,#210);
#163=LINE('',#908,#211);
#164=LINE('',#911,#212);
#165=LINE('',#912,#213);
#166=LINE('',#918,#214);
#167=LINE('',#922,#215);
#168=LINE('',#926,#216);
#169=LINE('',#930,#217);
#170=LINE('',#934,#218);
#171=LINE('',#936,#219);
#172=LINE('',#939,#220);
#173=LINE('',#940,#221);
#174=LINE('',#943,#222);
#175=LINE('',#944,#223);
#176=VECTOR('',#627,10.);
#177=VECTOR('',#628,10.);
#178=VECTOR('',#629,10.);
#179=VECTOR('',#630,10.);
#180=VECTOR('',#637,10.);
#181=VECTOR('',#640,10.);
#182=VECTOR('',#641,10.);
#183=VECTOR('',#642,10.);
#184=VECTOR('',#647,10.);
#185=VECTOR('',#654,10.);
#186=VECTOR('',#657,10.);
#187=VECTOR('',#660,10.);
#188=VECTOR('',#661,10.);
#189=VECTOR('',#662,10.);
#190=VECTOR('',#667,10.);
#191=VECTOR('',#670,10.);
#192=VECTOR('',#675,10.);
#193=VECTOR('',#680,10.);
#194=VECTOR('',#683,10.);
#195=VECTOR('',#686,10.);
#196=VECTOR('',#687,10.);
#197=VECTOR('',#688,10.);
#198=VECTOR('',#691,10.);
#199=VECTOR('',#704,10.);
#200=VECTOR('',#707,10.);
#201=VECTOR('',#710,10.);
#202=VECTOR('',#715,10.);
#203=VECTOR('',#716,10.);
#204=VECTOR('',#721,10.);
#205=VECTOR('',#722,10.);
#206=VECTOR('',#725,10.);
#207=VECTOR('',#726,10.);
#208=VECTOR('',#729,10.);
#209=VECTOR('',#730,10.);
#210=VECTOR('',#731,10.);
#211=VECTOR('',#736,10.);
#212=VECTOR('',#739,10.);
#213=VECTOR('',#740,10.);
#214=VECTOR('',#749,1.125);
#215=VECTOR('',#754,1.125);
#216=VECTOR('',#759,10.);
#217=VECTOR('',#766,10.);
#218=VECTOR('',#771,10.);
#219=VECTOR('',#774,10.);
#220=VECTOR('',#777,10.);
#221=VECTOR('',#778,10.);
#222=VECTOR('',#781,10.);
#223=VECTOR('',#782,10.);
#224=VERTEX_POINT('',#791);
#225=VERTEX_POINT('',#792);
#226=VERTEX_POINT('',#794);
#227=VERTEX_POINT('',#796);
#228=VERTEX_POINT('',#800);
#229=VERTEX_POINT('',#802);
#230=VERTEX_POINT('',#806);
#231=VERTEX_POINT('',#808);
#232=VERTEX_POINT('',#812);
#233=VERTEX_POINT('',#814);
#234=VERTEX_POINT('',#818);
#235=VERTEX_POINT('',#819);
#236=VERTEX_POINT('',#821);
#237=VERTEX_POINT('',#823);
#238=VERTEX_POINT('',#827);
#239=VERTEX_POINT('',#829);
#240=VERTEX_POINT('',#833);
#241=VERTEX_POINT('',#834);
#242=VERTEX_POINT('',#836);
#243=VERTEX_POINT('',#838);
#244=VERTEX_POINT('',#842);
#245=VERTEX_POINT('',#844);
#246=VERTEX_POINT('',#848);
#247=VERTEX_POINT('',#850);
#248=VERTEX_POINT('',#852);
#249=VERTEX_POINT('',#854);
#250=VERTEX_POINT('',#857);
#251=VERTEX_POINT('',#859);
#252=VERTEX_POINT('',#861);
#253=VERTEX_POINT('',#863);
#254=VERTEX_POINT('',#866);
#255=VERTEX_POINT('',#869);
#256=VERTEX_POINT('',#871);
#257=VERTEX_POINT('',#873);
#258=VERTEX_POINT('',#874);
#259=VERTEX_POINT('',#876);
#260=VERTEX_POINT('',#878);
#261=VERTEX_POINT('',#882);
#262=VERTEX_POINT('',#886);
#263=VERTEX_POINT('',#890);
#264=VERTEX_POINT('',#891);
#265=VERTEX_POINT('',#896);
#266=VERTEX_POINT('',#900);
#267=VERTEX_POINT('',#902);
#268=VERTEX_POINT('',#906);
#269=VERTEX_POINT('',#910);
#270=VERTEX_POINT('',#916);
#271=VERTEX_POINT('',#920);
#272=VERTEX_POINT('',#924);
#273=VERTEX_POINT('',#932);
#274=VERTEX_POINT('',#938);
#275=VERTEX_POINT('',#942);
#276=EDGE_CURVE('',#224,#225,#128,.T.);
#277=EDGE_CURVE('',#226,#225,#129,.T.);
#278=EDGE_CURVE('',#227,#226,#130,.T.);
#279=EDGE_CURVE('',#224,#227,#131,.T.);
#280=EDGE_CURVE('',#228,#224,#21,.T.);
#281=EDGE_CURVE('',#229,#227,#22,.T.);
#282=EDGE_CURVE('',#228,#229,#132,.T.);
#283=EDGE_CURVE('',#230,#228,#133,.T.);
#284=EDGE_CURVE('',#231,#229,#134,.T.);
#285=EDGE_CURVE('',#230,#231,#135,.T.);
#286=EDGE_CURVE('',#225,#232,#23,.T.);
#287=EDGE_CURVE('',#232,#233,#136,.T.);
#288=EDGE_CURVE('',#226,#233,#24,.T.);
#289=EDGE_CURVE('',#234,#235,#25,.T.);
#290=EDGE_CURVE('',#235,#236,#137,.T.);
#291=EDGE_CURVE('',#236,#237,#26,.T.);
#292=EDGE_CURVE('',#237,#234,#138,.T.);
#293=EDGE_CURVE('',#235,#238,#139,.T.);
#294=EDGE_CURVE('',#239,#238,#140,.T.);
#295=EDGE_CURVE('',#236,#239,#141,.T.);
#296=EDGE_CURVE('',#240,#241,#27,.T.);
#297=EDGE_CURVE('',#241,#242,#142,.T.);
#298=EDGE_CURVE('',#242,#243,#28,.T.);
#299=EDGE_CURVE('',#243,#240,#143,.T.);
#300=EDGE_CURVE('',#243,#244,#29,.T.);
#301=EDGE_CURVE('',#244,#245,#144,.T.);
#302=EDGE_CURVE('',#240,#245,#30,.T.);
#303=EDGE_CURVE('',#242,#246,#145,.T.);
#304=EDGE_CURVE('',#247,#246,#31,.T.);
#305=EDGE_CURVE('',#247,#248,#146,.T.);
#306=EDGE_CURVE('',#248,#249,#32,.T.);
#307=EDGE_CURVE('',#249,#232,#147,.T.);
#308=EDGE_CURVE('',#250,#230,#148,.T.);
#309=EDGE_CURVE('',#251,#250,#149,.T.);
#310=EDGE_CURVE('',#252,#251,#33,.T.);
#311=EDGE_CURVE('',#253,#252,#150,.T.);
#312=EDGE_CURVE('',#238,#253,#34,.T.);
#313=EDGE_CURVE('',#234,#254,#35,.T.);
#314=EDGE_CURVE('',#254,#244,#36,.T.);
#315=EDGE_CURVE('',#255,#255,#37,.T.);
#316=EDGE_CURVE('',#256,#256,#38,.T.);
#317=EDGE_CURVE('',#257,#258,#39,.T.);
#318=EDGE_CURVE('',#259,#257,#151,.T.);
#319=EDGE_CURVE('',#260,#259,#40,.T.);
#320=EDGE_CURVE('',#258,#260,#152,.T.);
#321=EDGE_CURVE('',#253,#261,#153,.T.);
#322=EDGE_CURVE('',#261,#239,#41,.T.);
#323=EDGE_CURVE('',#252,#262,#154,.T.);
#324=EDGE_CURVE('',#261,#262,#155,.T.);
#325=EDGE_CURVE('',#263,#264,#42,.T.);
#326=EDGE_CURVE('',#264,#247,#156,.T.);
#327=EDGE_CURVE('',#246,#263,#157,.T.);
#328=EDGE_CURVE('',#265,#264,#158,.T.);
#329=EDGE_CURVE('',#248,#265,#159,.T.);
#330=EDGE_CURVE('',#257,#266,#160,.T.);
#331=EDGE_CURVE('',#267,#266,#161,.T.);
#332=EDGE_CURVE('',#259,#267,#162,.T.);
#333=EDGE_CURVE('',#268,#267,#43,.T.);
#334=EDGE_CURVE('',#260,#268,#163,.T.);
#335=EDGE_CURVE('',#269,#268,#164,.T.);
#336=EDGE_CURVE('',#258,#269,#165,.T.);
#337=EDGE_CURVE('',#266,#269,#44,.T.);
#338=EDGE_CURVE('',#270,#270,#45,.T.);
#339=EDGE_CURVE('',#270,#256,#166,.T.);
#340=EDGE_CURVE('',#271,#271,#46,.T.);
#341=EDGE_CURVE('',#271,#255,#167,.T.);
#342=EDGE_CURVE('',#272,#237,#47,.T.);
#343=EDGE_CURVE('',#254,#272,#168,.T.);
#344=EDGE_CURVE('',#245,#272,#48,.T.);
#345=EDGE_CURVE('',#263,#241,#169,.T.);
#346=EDGE_CURVE('',#273,#265,#49,.T.);
#347=EDGE_CURVE('',#249,#273,#170,.T.);
#348=EDGE_CURVE('',#233,#273,#171,.T.);
#349=EDGE_CURVE('',#274,#231,#172,.T.);
#350=EDGE_CURVE('',#250,#274,#173,.T.);
#351=EDGE_CURVE('',#275,#274,#174,.T.);
#352=EDGE_CURVE('',#251,#275,#175,.T.);
#353=EDGE_CURVE('',#262,#275,#50,.T.);
#354=ORIENTED_EDGE('',*,*,#276,.T.);
#355=ORIENTED_EDGE('',*,*,#277,.F.);
#356=ORIENTED_EDGE('',*,*,#278,.F.);
#357=ORIENTED_EDGE('',*,*,#279,.F.);
#358=ORIENTED_EDGE('',*,*,#280,.T.);
#359=ORIENTED_EDGE('',*,*,#279,.T.);
#360=ORIENTED_EDGE('',*,*,#281,.F.);
#361=ORIENTED_EDGE('',*,*,#282,.F.);
#362=ORIENTED_EDGE('',*,*,#283,.T.);
#363=ORIENTED_EDGE('',*,*,#282,.T.);
#364=ORIENTED_EDGE('',*,*,#284,.F.);
#365=ORIENTED_EDGE('',*,*,#285,.F.);
#366=ORIENTED_EDGE('',*,*,#277,.T.);
#367=ORIENTED_EDGE('',*,*,#286,.T.);
#368=ORIENTED_EDGE('',*,*,#287,.T.);
#369=ORIENTED_EDGE('',*,*,#288,.F.);
#370=ORIENTED_EDGE('',*,*,#289,.T.);
#371=ORIENTED_EDGE('',*,*,#290,.T.);
#372=ORIENTED_EDGE('',*,*,#291,.T.);
#373=ORIENTED_EDGE('',*,*,#292,.T.);
#374=ORIENTED_EDGE('',*,*,#290,.F.);
#375=ORIENTED_EDGE('',*,*,#293,.T.);
#376=ORIENTED_EDGE('',*,*,#294,.F.);
#377=ORIENTED_EDGE('',*,*,#295,.F.);
#378=ORIENTED_EDGE('',*,*,#296,.T.);
#379=ORIENTED_EDGE('',*,*,#297,.T.);
#380=ORIENTED_EDGE('',*,*,#298,.T.);
#381=ORIENTED_EDGE('',*,*,#299,.T.);
#382=ORIENTED_EDGE('',*,*,#299,.F.);
#383=ORIENTED_EDGE('',*,*,#300,.T.);
#384=ORIENTED_EDGE('',*,*,#301,.T.);
#385=ORIENTED_EDGE('',*,*,#302,.F.);
#386=ORIENTED_EDGE('',*,*,#298,.F.);
#387=ORIENTED_EDGE('',*,*,#303,.T.);
#388=ORIENTED_EDGE('',*,*,#304,.F.);
#389=ORIENTED_EDGE('',*,*,#305,.T.);
#390=ORIENTED_EDGE('',*,*,#306,.T.);
#391=ORIENTED_EDGE('',*,*,#307,.T.);
#392=ORIENTED_EDGE('',*,*,#286,.F.);
#393=ORIENTED_EDGE('',*,*,#276,.F.);
#394=ORIENTED_EDGE('',*,*,#280,.F.);
#395=ORIENTED_EDGE('',*,*,#283,.F.);
#396=ORIENTED_EDGE('',*,*,#308,.F.);
#397=ORIENTED_EDGE('',*,*,#309,.F.);
#398=ORIENTED_EDGE('',*,*,#310,.F.);
#399=ORIENTED_EDGE('',*,*,#311,.F.);
#400=ORIENTED_EDGE('',*,*,#312,.F.);
#401=ORIENTED_EDGE('',*,*,#293,.F.);
#402=ORIENTED_EDGE('',*,*,#289,.F.);
#403=ORIENTED_EDGE('',*,*,#313,.T.);
#404=ORIENTED_EDGE('',*,*,#314,.T.);
#405=ORIENTED_EDGE('',*,*,#300,.F.);
#406=ORIENTED_EDGE('',*,*,#315,.F.);
#407=ORIENTED_EDGE('',*,*,#316,.F.);
#408=ORIENTED_EDGE('',*,*,#317,.F.);
#409=ORIENTED_EDGE('',*,*,#318,.F.);
#410=ORIENTED_EDGE('',*,*,#319,.F.);
#411=ORIENTED_EDGE('',*,*,#320,.F.);
#412=ORIENTED_EDGE('',*,*,#312,.T.);
#413=ORIENTED_EDGE('',*,*,#321,.T.);
#414=ORIENTED_EDGE('',*,*,#322,.T.);
#415=ORIENTED_EDGE('',*,*,#294,.T.);
#416=ORIENTED_EDGE('',*,*,#321,.F.);
#417=ORIENTED_EDGE('',*,*,#311,.T.);
#418=ORIENTED_EDGE('',*,*,#323,.T.);
#419=ORIENTED_EDGE('',*,*,#324,.F.);
#420=ORIENTED_EDGE('',*,*,#325,.T.);
#421=ORIENTED_EDGE('',*,*,#326,.T.);
#422=ORIENTED_EDGE('',*,*,#304,.T.);
#423=ORIENTED_EDGE('',*,*,#327,.T.);
#424=ORIENTED_EDGE('',*,*,#326,.F.);
#425=ORIENTED_EDGE('',*,*,#328,.F.);
#426=ORIENTED_EDGE('',*,*,#329,.F.);
#427=ORIENTED_EDGE('',*,*,#305,.F.);
#428=ORIENTED_EDGE('',*,*,#318,.T.);
#429=ORIENTED_EDGE('',*,*,#330,.T.);
#430=ORIENTED_EDGE('',*,*,#331,.F.);
#431=ORIENTED_EDGE('',*,*,#332,.F.);
#432=ORIENTED_EDGE('',*,*,#319,.T.);
#433=ORIENTED_EDGE('',*,*,#332,.T.);
#434=ORIENTED_EDGE('',*,*,#333,.F.);
#435=ORIENTED_EDGE('',*,*,#334,.F.);
#436=ORIENTED_EDGE('',*,*,#320,.T.);
#437=ORIENTED_EDGE('',*,*,#334,.T.);
#438=ORIENTED_EDGE('',*,*,#335,.F.);
#439=ORIENTED_EDGE('',*,*,#336,.F.);
#440=ORIENTED_EDGE('',*,*,#317,.T.);
#441=ORIENTED_EDGE('',*,*,#336,.T.);
#442=ORIENTED_EDGE('',*,*,#337,.F.);
#443=ORIENTED_EDGE('',*,*,#330,.F.);
#444=ORIENTED_EDGE('',*,*,#338,.F.);
#445=ORIENTED_EDGE('',*,*,#339,.T.);
#446=ORIENTED_EDGE('',*,*,#316,.T.);
#447=ORIENTED_EDGE('',*,*,#339,.F.);
#448=ORIENTED_EDGE('',*,*,#340,.F.);
#449=ORIENTED_EDGE('',*,*,#341,.T.);
#450=ORIENTED_EDGE('',*,*,#315,.T.);
#451=ORIENTED_EDGE('',*,*,#341,.F.);
#452=ORIENTED_EDGE('',*,*,#292,.F.);
#453=ORIENTED_EDGE('',*,*,#342,.F.);
#454=ORIENTED_EDGE('',*,*,#343,.F.);
#455=ORIENTED_EDGE('',*,*,#313,.F.);
#456=ORIENTED_EDGE('',*,*,#314,.F.);
#457=ORIENTED_EDGE('',*,*,#343,.T.);
#458=ORIENTED_EDGE('',*,*,#344,.F.);
#459=ORIENTED_EDGE('',*,*,#301,.F.);
#460=ORIENTED_EDGE('',*,*,#297,.F.);
#461=ORIENTED_EDGE('',*,*,#345,.F.);
#462=ORIENTED_EDGE('',*,*,#327,.F.);
#463=ORIENTED_EDGE('',*,*,#303,.F.);
#464=ORIENTED_EDGE('',*,*,#306,.F.);
#465=ORIENTED_EDGE('',*,*,#329,.T.);
#466=ORIENTED_EDGE('',*,*,#346,.F.);
#467=ORIENTED_EDGE('',*,*,#347,.F.);
#468=ORIENTED_EDGE('',*,*,#307,.F.);
#469=ORIENTED_EDGE('',*,*,#347,.T.);
#470=ORIENTED_EDGE('',*,*,#348,.F.);
#471=ORIENTED_EDGE('',*,*,#287,.F.);
#472=ORIENTED_EDGE('',*,*,#308,.T.);
#473=ORIENTED_EDGE('',*,*,#285,.T.);
#474=ORIENTED_EDGE('',*,*,#349,.F.);
#475=ORIENTED_EDGE('',*,*,#350,.F.);
#476=ORIENTED_EDGE('',*,*,#309,.T.);
#477=ORIENTED_EDGE('',*,*,#350,.T.);
#478=ORIENTED_EDGE('',*,*,#351,.F.);
#479=ORIENTED_EDGE('',*,*,#352,.F.);
#480=ORIENTED_EDGE('',*,*,#310,.T.);
#481=ORIENTED_EDGE('',*,*,#352,.T.);
#482=ORIENTED_EDGE('',*,*,#353,.F.);
#483=ORIENTED_EDGE('',*,*,#323,.F.);
#484=ORIENTED_EDGE('',*,*,#296,.F.);
#485=ORIENTED_EDGE('',*,*,#302,.T.);
#486=ORIENTED_EDGE('',*,*,#344,.T.);
#487=ORIENTED_EDGE('',*,*,#342,.T.);
#488=ORIENTED_EDGE('',*,*,#291,.F.);
#489=ORIENTED_EDGE('',*,*,#295,.T.);
#490=ORIENTED_EDGE('',*,*,#322,.F.);
#491=ORIENTED_EDGE('',*,*,#324,.T.);
#492=ORIENTED_EDGE('',*,*,#353,.T.);
#493=ORIENTED_EDGE('',*,*,#351,.T.);
#494=ORIENTED_EDGE('',*,*,#349,.T.);
#495=ORIENTED_EDGE('',*,*,#284,.T.);
#496=ORIENTED_EDGE('',*,*,#281,.T.);
#497=ORIENTED_EDGE('',*,*,#278,.T.);
#498=ORIENTED_EDGE('',*,*,#288,.T.);
#499=ORIENTED_EDGE('',*,*,#348,.T.);
#500=ORIENTED_EDGE('',*,*,#346,.T.);
#501=ORIENTED_EDGE('',*,*,#328,.T.);
#502=ORIENTED_EDGE('',*,*,#325,.F.);
#503=ORIENTED_EDGE('',*,*,#345,.T.);
#504=ORIENTED_EDGE('',*,*,#340,.T.);
#505=ORIENTED_EDGE('',*,*,#338,.T.);
#506=ORIENTED_EDGE('',*,*,#337,.T.);
#507=ORIENTED_EDGE('',*,*,#335,.T.);
#508=ORIENTED_EDGE('',*,*,#333,.T.);
#509=ORIENTED_EDGE('',*,*,#331,.T.);
#510=PLANE('',#565);
#511=PLANE('',#569);
#512=PLANE('',#576);
#513=PLANE('',#583);
#514=PLANE('',#596);
#515=PLANE('',#599);
#516=PLANE('',#600);
#517=PLANE('',#603);
#518=PLANE('',#614);
#519=PLANE('',#617);
#520=PLANE('',#618);
#521=PLANE('',#619);
#522=PLANE('',#622);
#523=ADVANCED_FACE('',(#66),#510,.T.);
#524=ADVANCED_FACE('',(#67),#51,.T.);
#525=ADVANCED_FACE('',(#68),#511,.T.);
#526=ADVANCED_FACE('',(#69),#52,.T.);
#527=ADVANCED_FACE('',(#70),#53,.F.);
#528=ADVANCED_FACE('',(#71),#512,.T.);
#529=ADVANCED_FACE('',(#72),#54,.T.);
#530=ADVANCED_FACE('',(#73),#55,.T.);
#531=ADVANCED_FACE('',(#74,#15,#16,#17),#513,.F.);
#532=ADVANCED_FACE('',(#75),#56,.F.);
#533=ADVANCED_FACE('',(#76),#514,.T.);
#534=ADVANCED_FACE('',(#77),#57,.T.);
#535=ADVANCED_FACE('',(#78),#515,.T.);
#536=ADVANCED_FACE('',(#79),#516,.T.);
#537=ADVANCED_FACE('',(#80),#58,.F.);
#538=ADVANCED_FACE('',(#81),#517,.T.);
#539=ADVANCED_FACE('',(#82),#59,.F.);
#540=ADVANCED_FACE('',(#83),#60,.F.);
#541=ADVANCED_FACE('',(#84),#61,.F.);
#542=ADVANCED_FACE('',(#85),#62,.F.);
#543=ADVANCED_FACE('',(#86),#63,.F.);
#544=ADVANCED_FACE('',(#87),#518,.T.);
#545=ADVANCED_FACE('',(#88),#64,.F.);
#546=ADVANCED_FACE('',(#89),#519,.T.);
#547=ADVANCED_FACE('',(#90),#520,.T.);
#548=ADVANCED_FACE('',(#91),#521,.T.);
#549=ADVANCED_FACE('',(#92),#65,.T.);
#550=ADVANCED_FACE('',(#93,#18,#19,#20),#522,.T.);
#551=CLOSED_SHELL('',(#523,#524,#525,#526,#527,#528,#529,#530,#531,#532,
#533,#534,#535,#536,#537,#538,#539,#540,#541,#542,#543,#544,#545,#546,#547,
#548,#549,#550));
#552=DERIVED_UNIT_ELEMENT(#554,1.);
#553=DERIVED_UNIT_ELEMENT(#953,-3.);
#554=(
MASS_UNIT()
NAMED_UNIT(*)
SI_UNIT(.KILO.,.GRAM.)
);
#555=DERIVED_UNIT((#552,#553));
#556=MEASURE_REPRESENTATION_ITEM('density measure',
POSITIVE_RATIO_MEASURE(1060.),#555);
#557=PROPERTY_DEFINITION_REPRESENTATION(#562,#559);
#558=PROPERTY_DEFINITION_REPRESENTATION(#563,#560);
#559=REPRESENTATION('material name',(#561),#950);
#560=REPRESENTATION('density',(#556),#950);
#561=DESCRIPTIVE_REPRESENTATION_ITEM('ABS Plastic','ABS Plastic');
#562=PROPERTY_DEFINITION('material property','material name',#960);
#563=PROPERTY_DEFINITION('material property','density of part',#960);
#564=AXIS2_PLACEMENT_3D('',#789,#623,#624);
#565=AXIS2_PLACEMENT_3D('',#790,#625,#626);
#566=AXIS2_PLACEMENT_3D('',#799,#631,#632);
#567=AXIS2_PLACEMENT_3D('',#801,#633,#634);
#568=AXIS2_PLACEMENT_3D('',#803,#635,#636);
#569=AXIS2_PLACEMENT_3D('',#805,#638,#639);
#570=AXIS2_PLACEMENT_3D('',#811,#643,#644);
#571=AXIS2_PLACEMENT_3D('',#813,#645,#646);
#572=AXIS2_PLACEMENT_3D('',#816,#648,#649);
#573=AXIS2_PLACEMENT_3D('',#817,#650,#651);
#574=AXIS2_PLACEMENT_3D('',#820,#652,#653);
#575=AXIS2_PLACEMENT_3D('',#824,#655,#656);
#576=AXIS2_PLACEMENT_3D('',#826,#658,#659);
#577=AXIS2_PLACEMENT_3D('',#832,#663,#664);
#578=AXIS2_PLACEMENT_3D('',#835,#665,#666);
#579=AXIS2_PLACEMENT_3D('',#839,#668,#669);
#580=AXIS2_PLACEMENT_3D('',#841,#671,#672);
#581=AXIS2_PLACEMENT_3D('',#843,#673,#674);
#582=AXIS2_PLACEMENT_3D('',#846,#676,#677);
#583=AXIS2_PLACEMENT_3D('',#847,#678,#679);
#584=AXIS2_PLACEMENT_3D('',#851,#681,#682);
#585=AXIS2_PLACEMENT_3D('',#855,#684,#685);
#586=AXIS2_PLACEMENT_3D('',#862,#689,#690);
#587=AXIS2_PLACEMENT_3D('',#865,#692,#693);
#588=AXIS2_PLACEMENT_3D('',#867,#694,#695);
#589=AXIS2_PLACEMENT_3D('',#868,#696,#697);
#590=AXIS2_PLACEMENT_3D('',#870,#698,#699);
#591=AXIS2_PLACEMENT_3D('',#872,#700,#701);
#592=AXIS2_PLACEMENT_3D('',#875,#702,#703);
#593=AXIS2_PLACEMENT_3D('',#879,#705,#706);
#594=AXIS2_PLACEMENT_3D('',#881,#708,#709);
#595=AXIS2_PLACEMENT_3D('',#884,#711,#712);
#596=AXIS2_PLACEMENT_3D('',#885,#713,#714);
#597=AXIS2_PLACEMENT_3D('',#889,#717,#718);
#598=AXIS2_PLACEMENT_3D('',#892,#719,#720);
#599=AXIS2_PLACEMENT_3D('',#895,#723,#724);
#600=AXIS2_PLACEMENT_3D('',#899,#727,#728);
#601=AXIS2_PLACEMENT_3D('',#905,#732,#733);
#602=AXIS2_PLACEMENT_3D('',#907,#734,#735);
#603=AXIS2_PLACEMENT_3D('',#909,#737,#738);
#604=AXIS2_PLACEMENT_3D('',#913,#741,#742);
#605=AXIS2_PLACEMENT_3D('',#914,#743,#744);
#606=AXIS2_PLACEMENT_3D('',#915,#745,#746);
#607=AXIS2_PLACEMENT_3D('',#917,#747,#748);
#608=AXIS2_PLACEMENT_3D('',#919,#750,#751);
#609=AXIS2_PLACEMENT_3D('',#921,#752,#753);
#610=AXIS2_PLACEMENT_3D('',#923,#755,#756);
#611=AXIS2_PLACEMENT_3D('',#925,#757,#758);
#612=AXIS2_PLACEMENT_3D('',#927,#760,#761);
#613=AXIS2_PLACEMENT_3D('',#928,#762,#763);
#614=AXIS2_PLACEMENT_3D('',#929,#764,#765);
#615=AXIS2_PLACEMENT_3D('',#931,#767,#768);
#616=AXIS2_PLACEMENT_3D('',#933,#769,#770);
#617=AXIS2_PLACEMENT_3D('',#935,#772,#773);
#618=AXIS2_PLACEMENT_3D('',#937,#775,#776);
#619=AXIS2_PLACEMENT_3D('',#941,#779,#780);
#620=AXIS2_PLACEMENT_3D('',#945,#783,#784);
#621=AXIS2_PLACEMENT_3D('',#946,#785,#786);
#622=AXIS2_PLACEMENT_3D('',#947,#787,#788);
#623=DIRECTION('axis',(0.,0.,1.));
#624=DIRECTION('refdir',(1.,0.,0.));
#625=DIRECTION('center_axis',(0.999974886663081,-0.0070870334526212,0.));
#626=DIRECTION('ref_axis',(0.0070870334526212,0.999974886663081,0.));
#627=DIRECTION('',(0.0070870334526212,0.999974886663081,0.));
#628=DIRECTION('',(0.,0.,-1.));
#629=DIRECTION('',(0.0070870334526212,0.999974886663081,0.));
#630=DIRECTION('',(0.,0.,1.));
#631=DIRECTION('center_axis',(0.,0.,1.));
#632=DIRECTION('ref_axis',(-0.99997488666308,0.00708703345275163,0.));
#633=DIRECTION('center_axis',(0.,0.,1.));
#634=DIRECTION('ref_axis',(-0.99997488666308,0.00708703345275163,0.));
#635=DIRECTION('center_axis',(0.,0.,1.));
#636=DIRECTION('ref_axis',(-0.99997488666308,0.00708703345275163,0.));
#637=DIRECTION('',(0.,0.,1.));
#638=DIRECTION('center_axis',(-0.99997488666308,0.00708703345277543,0.));
#639=DIRECTION('ref_axis',(-0.00708703345277543,-0.99997488666308,0.));
#640=DIRECTION('',(-0.00708703345277543,-0.99997488666308,0.));
#641=DIRECTION('',(-0.00708703345277543,-0.99997488666308,0.));
#642=DIRECTION('',(0.,0.,1.));
#643=DIRECTION('center_axis',(0.,0.,1.));
#644=DIRECTION('ref_axis',(-0.0301236373223801,0.999546180261057,0.));
#645=DIRECTION('center_axis',(0.,0.,1.));
#646=DIRECTION('ref_axis',(1.,0.,0.));
#647=DIRECTION('',(0.,0.,1.));
#648=DIRECTION('center_axis',(0.,0.,1.));
#649=DIRECTION('ref_axis',(1.,0.,0.));
#650=DIRECTION('center_axis',(0.,0.,1.));
#651=DIRECTION('ref_axis',(0.957201276916242,-0.289423073492621,0.));
#652=DIRECTION('center_axis',(0.,0.,-1.));
#653=DIRECTION('ref_axis',(0.957201276916242,-0.289423073492621,0.));
#654=DIRECTION('',(0.,0.,1.));
#655=DIRECTION('center_axis',(0.,0.,1.));
#656=DIRECTION('ref_axis',(0.957201276916242,-0.289423073492621,0.));
#657=DIRECTION('',(0.,0.,-1.));
#658=DIRECTION('center_axis',(-0.844399315538117,0.535714285714652,0.));
#659=DIRECTION('ref_axis',(-0.535714285714652,-0.844399315538117,0.));
#660=DIRECTION('',(-0.535714285714652,-0.844399315538117,0.));
#661=DIRECTION('',(0.,0.,-1.));
#662=DIRECTION('',(-0.535714285714652,-0.844399315538117,0.));
#663=DIRECTION('center_axis',(0.,0.,1.));
#664=DIRECTION('ref_axis',(0.971415109396682,-0.237387205290919,0.));
#665=DIRECTION('center_axis',(0.,0.,-1.));
#666=DIRECTION('ref_axis',(0.971415109396682,-0.237387205290919,0.));
#667=DIRECTION('',(0.,0.,-1.));
#668=DIRECTION('center_axis',(0.,0.,1.));
#669=DIRECTION('ref_axis',(0.971415109396682,-0.237387205290919,0.));
#670=DIRECTION('',(0.,0.,1.));
#671=DIRECTION('center_axis',(0.,0.,1.));
#672=DIRECTION('ref_axis',(1.,2.04107799857447E-16,0.));
#673=DIRECTION('center_axis',(0.,0.,1.));
#674=DIRECTION('ref_axis',(1.,2.04107799857447E-16,0.));
#675=DIRECTION('',(0.,0.,1.));
#676=DIRECTION('center_axis',(0.,0.,1.));
#677=DIRECTION('ref_axis',(1.,2.04107799857447E-16,0.));
#678=DIRECTION('center_axis',(0.,0.,1.));
#679=DIRECTION('ref_axis',(1.,0.,0.));
#680=DIRECTION('',(-0.535714285714273,-0.844399315538357,0.));
#681=DIRECTION('center_axis',(0.,0.,1.));
#682=DIRECTION('ref_axis',(0.481812055829722,-0.87627458188466,0.));
#683=DIRECTION('',(-1.,-8.23945106898087E-16,0.));
#684=DIRECTION('center_axis',(0.,0.,1.));
#685=DIRECTION('ref_axis',(4.44884499065025E-16,1.,0.));
#686=DIRECTION('',(-3.14038362547573E-13,-1.,0.));
#687=DIRECTION('',(-4.65962883500935E-13,-1.,0.));
#688=DIRECTION('',(1.,-5.47269727601058E-13,0.));
#689=DIRECTION('center_axis',(0.,0.,1.));
#690=DIRECTION('ref_axis',(-3.47591951512325E-16,1.,0.));
#691=DIRECTION('',(-1.,2.44249065417534E-15,0.));
#692=DIRECTION('center_axis',(0.,0.,-1.));
#693=DIRECTION('ref_axis',(0.481812055829525,-0.876274581884769,0.));
#694=DIRECTION('center_axis',(0.,0.,1.));
#695=DIRECTION('ref_axis',(0.997196096121935,-0.0748327861246127,0.));
#696=DIRECTION('center_axis',(0.,0.,1.));
#697=DIRECTION('ref_axis',(-1.,-1.18983834399416E-16,0.));
#698=DIRECTION('center_axis',(0.,0.,-1.));
#699=DIRECTION('ref_axis',(1.,0.,0.));
#700=DIRECTION('center_axis',(0.,0.,-1.));
#701=DIRECTION('ref_axis',(1.,0.,0.));
#702=DIRECTION('center_axis',(0.,0.,-1.));
#703=DIRECTION('ref_axis',(-1.,-2.61228946970625E-16,0.));
#704=DIRECTION('',(8.5401771125012E-16,-1.,0.));
#705=DIRECTION('center_axis',(0.,0.,-1.));
#706=DIRECTION('ref_axis',(1.,1.95921710227969E-16,0.));
#707=DIRECTION('',(-8.5401771125012E-16,1.,0.));
#708=DIRECTION('center_axis',(0.,0.,1.));
#709=DIRECTION('ref_axis',(0.481812055829525,-0.876274581884769,0.));
#710=DIRECTION('',(0.,0.,1.));
#711=DIRECTION('center_axis',(0.,0.,1.));
#712=DIRECTION('ref_axis',(0.481812055829525,-0.876274581884769,0.));
#713=DIRECTION('center_axis',(2.44249065417534E-15,1.,0.));
#714=DIRECTION('ref_axis',(-1.,2.44249065417534E-15,0.));
#715=DIRECTION('',(0.,0.,1.));
#716=DIRECTION('',(-1.,2.44249065417534E-15,0.));
#717=DIRECTION('center_axis',(0.,0.,1.));
#718=DIRECTION('ref_axis',(0.481812055829722,-0.87627458188466,0.));
#719=DIRECTION('center_axis',(0.,0.,-1.));
#720=DIRECTION('ref_axis',(0.481812055829722,-0.87627458188466,0.));
#721=DIRECTION('',(0.,0.,-1.));
#722=DIRECTION('',(0.,0.,1.));
#723=DIRECTION('center_axis',(8.23945106898087E-16,-1.,0.));
#724=DIRECTION('ref_axis',(1.,8.23945106898087E-16,0.));
#725=DIRECTION('',(1.,8.23945106898087E-16,0.));
#726=DIRECTION('',(0.,0.,1.));
#727=DIRECTION('center_axis',(-1.,-8.5401771125012E-16,0.));
#728=DIRECTION('ref_axis',(8.5401771125012E-16,-1.,0.));
#729=DIRECTION('',(0.,0.,1.));
#730=DIRECTION('',(8.5401771125012E-16,-1.,0.));
#731=DIRECTION('',(0.,0.,1.));
#732=DIRECTION('center_axis',(0.,0.,1.));
#733=DIRECTION('ref_axis',(1.,1.95921710227969E-16,0.));
#734=DIRECTION('center_axis',(0.,0.,-1.));
#735=DIRECTION('ref_axis',(1.,1.95921710227969E-16,0.));
#736=DIRECTION('',(0.,0.,1.));
#737=DIRECTION('center_axis',(1.,8.5401771125012E-16,0.));
#738=DIRECTION('ref_axis',(-8.5401771125012E-16,1.,0.));
#739=DIRECTION('',(-8.5401771125012E-16,1.,0.));
#740=DIRECTION('',(0.,0.,1.));
#741=DIRECTION('center_axis',(0.,0.,1.));
#742=DIRECTION('ref_axis',(-1.,-2.61228946970625E-16,0.));
#743=DIRECTION('center_axis',(0.,0.,-1.));
#744=DIRECTION('ref_axis',(-1.,-2.61228946970625E-16,0.));
#745=DIRECTION('center_axis',(0.,0.,1.));
#746=DIRECTION('ref_axis',(1.,0.,0.));
#747=DIRECTION('center_axis',(0.,0.,-1.));
#748=DIRECTION('ref_axis',(1.,0.,0.));
#749=DIRECTION('',(0.,0.,-1.));
#750=DIRECTION('center_axis',(0.,0.,1.));
#751=DIRECTION('ref_axis',(1.,0.,0.));
#752=DIRECTION('center_axis',(0.,0.,-1.));
#753=DIRECTION('ref_axis',(1.,0.,0.));
#754=DIRECTION('',(0.,0.,-1.));
#755=DIRECTION('center_axis',(0.,0.,1.));
#756=DIRECTION('ref_axis',(0.0109471267513991,0.999940078412646,0.));
#757=DIRECTION('center_axis',(0.,0.,-1.));
#758=DIRECTION('ref_axis',(0.997196096121935,-0.0748327861246127,0.));
#759=DIRECTION('',(0.,0.,1.));
#760=DIRECTION('center_axis',(0.,0.,1.));
#761=DIRECTION('ref_axis',(-1.,-1.18983834399416E-16,0.));
#762=DIRECTION('center_axis',(0.,0.,-1.));
#763=DIRECTION('ref_axis',(-1.,-1.18983834399416E-16,0.));
#764=DIRECTION('center_axis',(0.844399315538357,-0.535714285714274,0.));
#765=DIRECTION('ref_axis',(0.535714285714274,0.844399315538357,0.));
#766=DIRECTION('',(0.535714285714273,0.844399315538357,0.));
#767=DIRECTION('center_axis',(0.,0.,1.));
#768=DIRECTION('ref_axis',(-0.999695350540568,-0.0246821009553504,0.));
#769=DIRECTION('center_axis',(0.,0.,-1.));
#770=DIRECTION('ref_axis',(4.44884499065025E-16,1.,0.));
#771=DIRECTION('',(0.,0.,1.));
#772=DIRECTION('center_axis',(1.,-3.14038362547573E-13,0.));
#773=DIRECTION('ref_axis',(3.14038362547573E-13,1.,0.));
#774=DIRECTION('',(3.14038362547573E-13,1.,0.));
#775=DIRECTION('center_axis',(-1.,4.65962883500935E-13,0.));
#776=DIRECTION('ref_axis',(-4.65962883500935E-13,-1.,0.));
#777=DIRECTION('',(-4.65962883500935E-13,-1.,0.));
#778=DIRECTION('',(0.,0.,1.));
#779=DIRECTION('center_axis',(-5.47269727601058E-13,-1.,0.));
#780=DIRECTION('ref_axis',(1.,-5.47269727601058E-13,0.));
#781=DIRECTION('',(1.,-5.47269727601058E-13,0.));
#782=DIRECTION('',(0.,0.,1.));
#783=DIRECTION('center_axis',(0.,0.,1.));
#784=DIRECTION('ref_axis',(-3.47591951512325E-16,1.,0.));
#785=DIRECTION('center_axis',(0.,0.,1.));
#786=DIRECTION('ref_axis',(-3.47591951512325E-16,1.,0.));
#787=DIRECTION('center_axis',(0.,0.,1.));
#788=DIRECTION('ref_axis',(1.,0.,0.));
#789=CARTESIAN_POINT('',(0.,0.,0.));
#790=CARTESIAN_POINT('Origin',(3.99971536576686,-73.0283235662919,0.));
#791=CARTESIAN_POINT('',(3.99971536576686,-73.0283235662919,0.));
#792=CARTESIAN_POINT('',(4.05751220406324,-64.8732348100037,0.));
#793=CARTESIAN_POINT('',(3.99971536576686,-73.0283235662919,0.));
#794=CARTESIAN_POINT('',(4.05751220406324,-64.8732348100037,0.4));
#795=CARTESIAN_POINT('',(4.05751220406324,-64.8732348100037,0.));
#796=CARTESIAN_POINT('',(3.99971536576686,-73.0283235662919,0.4));
#797=CARTESIAN_POINT('',(3.99971536576686,-73.0283235662919,0.4));
#798=CARTESIAN_POINT('',(3.99971536576686,-73.0283235662919,0.));
#799=CARTESIAN_POINT('Origin',(1.9997655924407,-73.0141494993864,0.));
#800=CARTESIAN_POINT('',(-0.000184180882050189,-72.9999754324809,0.));
#801=CARTESIAN_POINT('Origin',(1.9997655924407,-73.0141494993864,0.));
#802=CARTESIAN_POINT('',(-0.000184180882050189,-72.9999754324809,0.4));
#803=CARTESIAN_POINT('Origin',(1.9997655924407,-73.0141494993864,0.4));
#804=CARTESIAN_POINT('',(-0.000184180882050189,-72.9999754324809,0.));
#805=CARTESIAN_POINT('Origin',(0.0565135106083822,-64.9999754324809,0.));
#806=CARTESIAN_POINT('',(0.0565135106083822,-64.9999754324809,0.));
#807=CARTESIAN_POINT('',(0.0565135106083822,-64.9999754324809,0.));
#808=CARTESIAN_POINT('',(0.0565135106083825,-64.9999754324809,0.4));
#809=CARTESIAN_POINT('',(0.0565135106083822,-64.9999754324809,0.4));
#810=CARTESIAN_POINT('',(0.0565135106083822,-64.9999754324809,0.));
#811=CARTESIAN_POINT('Origin',(0.,0.,0.));
#812=CARTESIAN_POINT('',(-0.143486489383766,-64.9998416277099,0.));
#813=CARTESIAN_POINT('Origin',(0.,0.,0.));
#814=CARTESIAN_POINT('',(-0.143486489383766,-64.9998416277099,0.4));
#815=CARTESIAN_POINT('',(-0.143486489383766,-64.9998416277099,0.));
#816=CARTESIAN_POINT('Origin',(0.,0.,0.4));
#817=CARTESIAN_POINT('Origin',(13.4967643312369,-0.295554711119223,0.));
#818=CARTESIAN_POINT('',(16.4960452937322,-0.361233535812345,0.));
#819=CARTESIAN_POINT('',(16.0299622778513,-1.90269756826318,0.));
#820=CARTESIAN_POINT('Origin',(13.4967643312369,-0.295554711119223,0.));
#821=CARTESIAN_POINT('',(16.0299622778513,-1.90269756826318,0.4));
#822=CARTESIAN_POINT('',(16.0299622778513,-1.90269756826318,0.));
#823=CARTESIAN_POINT('',(16.4960452937322,-0.361233535812345,0.4));
#824=CARTESIAN_POINT('Origin',(13.4967643312369,-0.295554711119223,0.4));
#825=CARTESIAN_POINT('',(16.4960452937322,-0.361233535812345,0.));
#826=CARTESIAN_POINT('Origin',(16.4537355860198,-1.2347409710567,0.));
#827=CARTESIAN_POINT('',(10.493882487681,-10.628733274681,0.));
#828=CARTESIAN_POINT('',(16.4537355860198,-1.2347409710567,0.));
#829=CARTESIAN_POINT('',(10.493882487681,-10.628733274681,0.4));
#830=CARTESIAN_POINT('',(10.493882487681,-10.628733274681,0.));
#831=CARTESIAN_POINT('',(16.4537355860198,-1.2347409710567,0.4));
#832=CARTESIAN_POINT('Origin',(9.46488831209637,0.816020367204068,0.));
#833=CARTESIAN_POINT('',(12.4538004106506,1.07371100947882,0.4));
#834=CARTESIAN_POINT('',(11.9980862587114,-0.791122489938752,0.4));
#835=CARTESIAN_POINT('Origin',(9.46488831209637,0.816020367204068,0.4));
#836=CARTESIAN_POINT('',(11.9980862587114,-0.791122489938752,0.));
#837=CARTESIAN_POINT('',(11.9980862587114,-0.791122489938752,0.));
#838=CARTESIAN_POINT('',(12.4538004106506,1.07371100947882,0.));
#839=CARTESIAN_POINT('Origin',(9.46488831209637,0.816020367204068,0.));
#840=CARTESIAN_POINT('',(12.4538004106506,1.07371100947882,0.));
#841=CARTESIAN_POINT('Origin',(0.,0.,0.));
#842=CARTESIAN_POINT('',(-12.4999999999921,-1.33958063631015E-15,0.));
#843=CARTESIAN_POINT('Origin',(0.,0.,0.));
#844=CARTESIAN_POINT('',(-12.4999999999921,-1.33958063631015E-15,0.4));
#845=CARTESIAN_POINT('',(-12.4999999999921,-1.33958063631015E-15,0.));
#846=CARTESIAN_POINT('Origin',(0.,0.,0.4));
#847=CARTESIAN_POINT('Origin',(0.,1.22837595561975E-5,0.));
#848=CARTESIAN_POINT('',(5.88367370231565,-10.4287332746798,0.));
#849=CARTESIAN_POINT('',(12.5000000000079,2.5513474982197E-15,0.));
#850=CARTESIAN_POINT('',(3.35047575570058,-11.821590417537,0.));
#851=CARTESIAN_POINT('Origin',(3.35047575570058,-8.82159041753699,0.));
#852=CARTESIAN_POINT('',(-0.3897912146267,-11.821590417537,0.));
#853=CARTESIAN_POINT('',(5.00000000000808,-11.821590417537,0.));
#854=CARTESIAN_POINT('',(-0.143486489370199,-21.7976329392219,0.));
#855=CARTESIAN_POINT('Origin',(-0.389791214626703,-16.8126522637394,0.));
#856=CARTESIAN_POINT('',(-0.143486489370199,-21.7976329392219,0.));
#857=CARTESIAN_POINT('',(0.0565135106286032,-21.603714109942,0.));
#858=CARTESIAN_POINT('',(0.0565135106286032,-21.603714109942,0.));
#859=CARTESIAN_POINT('',(-0.3897912146267,-21.6037141099418,0.));
#860=CARTESIAN_POINT('',(-0.3897912146267,-21.6037141099418,0.));
#861=CARTESIAN_POINT('',(-0.389791214626704,-12.021590417537,0.));
#862=CARTESIAN_POINT('Origin',(-0.389791214626703,-16.8126522637394,0.));
#863=CARTESIAN_POINT('',(7.96068454106667,-12.021590417537,0.));
#864=CARTESIAN_POINT('',(9.6102087853733,-12.021590417537,0.));
#865=CARTESIAN_POINT('Origin',(7.96068454106667,-9.02159041753702,0.));
#866=CARTESIAN_POINT('',(-16.5000000000079,-1.57058661407925E-15,0.));
#867=CARTESIAN_POINT('Origin',(0.,0.,0.));
#868=CARTESIAN_POINT('Origin',(-14.5,-1.33261894527948E-15,0.));
#869=CARTESIAN_POINT('',(-8.375,-2.90707823511237E-15,0.));
#870=CARTESIAN_POINT('Origin',(-7.25,-2.76930547020829E-15,0.));
#871=CARTESIAN_POINT('',(6.125,-8.35384066561231E-16,0.));
#872=CARTESIAN_POINT('Origin',(7.25,-6.97611301657153E-16,0.));
#873=CARTESIAN_POINT('',(2.125,-0.975,0.));
#874=CARTESIAN_POINT('',(-2.125,-0.975000000000001,0.));
#875=CARTESIAN_POINT('Origin',(0.,-0.975000000000001,0.));
#876=CARTESIAN_POINT('',(2.125,0.975000000000001,0.));
#877=CARTESIAN_POINT('',(2.125,-0.975,0.));
#878=CARTESIAN_POINT('',(-2.125,0.975,0.));
#879=CARTESIAN_POINT('Origin',(0.,0.975000000000001,0.));
#880=CARTESIAN_POINT('',(-2.125,0.975,0.));
#881=CARTESIAN_POINT('Origin',(7.96068454106667,-9.02159041753702,0.));
#882=CARTESIAN_POINT('',(7.96068454106667,-12.021590417537,0.4));
#883=CARTESIAN_POINT('',(7.96068454106667,-12.021590417537,0.));
#884=CARTESIAN_POINT('Origin',(7.96068454106667,-9.02159041753702,0.4));
#885=CARTESIAN_POINT('Origin',(9.6102087853733,-12.021590417537,0.));
#886=CARTESIAN_POINT('',(-0.389791214626705,-12.021590417537,0.4));
#887=CARTESIAN_POINT('',(-0.389791214626704,-12.021590417537,0.));
#888=CARTESIAN_POINT('',(9.6102087853733,-12.021590417537,0.4));
#889=CARTESIAN_POINT('Origin',(3.35047575570058,-8.82159041753699,0.));
#890=CARTESIAN_POINT('',(5.88367370231565,-10.4287332746798,0.4));
#891=CARTESIAN_POINT('',(3.35047575570058,-11.821590417537,0.4));
#892=CARTESIAN_POINT('Origin',(3.35047575570058,-8.82159041753699,0.4));
#893=CARTESIAN_POINT('',(3.35047575570058,-11.821590417537,0.));
#894=CARTESIAN_POINT('',(5.88367370231565,-10.4287332746798,0.));
#895=CARTESIAN_POINT('Origin',(-0.3897912146267,-11.821590417537,0.));
#896=CARTESIAN_POINT('',(-0.3897912146267,-11.821590417537,0.4));
#897=CARTESIAN_POINT('',(5.00000000000808,-11.821590417537,0.4));
#898=CARTESIAN_POINT('',(-0.3897912146267,-11.821590417537,0.));
#899=CARTESIAN_POINT('Origin',(2.125,0.975000000000001,0.));
#900=CARTESIAN_POINT('',(2.125,-0.975,0.4));
#901=CARTESIAN_POINT('',(2.125,-0.975,0.));
#902=CARTESIAN_POINT('',(2.125,0.975000000000001,0.4));
#903=CARTESIAN_POINT('',(2.125,-0.975,0.4));
#904=CARTESIAN_POINT('',(2.125,0.975000000000001,0.));
#905=CARTESIAN_POINT('Origin',(0.,0.975000000000001,0.));
#906=CARTESIAN_POINT('',(-2.125,0.975,0.4));
#907=CARTESIAN_POINT('Origin',(0.,0.975000000000001,0.4));
#908=CARTESIAN_POINT('',(-2.125,0.975,0.));
#909=CARTESIAN_POINT('Origin',(-2.125,-0.975000000000001,0.));
#910=CARTESIAN_POINT('',(-2.125,-0.975000000000001,0.4));
#911=CARTESIAN_POINT('',(-2.125,0.975,0.4));
#912=CARTESIAN_POINT('',(-2.125,-0.975000000000001,0.));
#913=CARTESIAN_POINT('Origin',(0.,-0.975000000000001,0.));
#914=CARTESIAN_POINT('Origin',(0.,-0.975000000000001,0.4));
#915=CARTESIAN_POINT('Origin',(7.25,-6.97611301657153E-16,0.));
#916=CARTESIAN_POINT('',(6.125,-8.35384066561231E-16,0.4));
#917=CARTESIAN_POINT('Origin',(7.25,-6.97611301657153E-16,0.4));
#918=CARTESIAN_POINT('',(6.125,-8.35384066561231E-16,0.));
#919=CARTESIAN_POINT('Origin',(-7.25,-2.76930547020829E-15,0.));
#920=CARTESIAN_POINT('',(-8.375,-2.90707823511237E-15,0.4));
#921=CARTESIAN_POINT('Origin',(-7.25,-2.76930547020829E-15,0.4));
#922=CARTESIAN_POINT('',(-8.375,-2.90707823511237E-15,0.));
#923=CARTESIAN_POINT('Origin',(0.,0.,0.));
#924=CARTESIAN_POINT('',(-16.5000000000079,-1.57058661407925E-15,0.4));
#925=CARTESIAN_POINT('Origin',(0.,0.,0.4));
#926=CARTESIAN_POINT('',(-16.5000000000079,-1.57058661407925E-15,0.));
#927=CARTESIAN_POINT('Origin',(-14.5,-1.33261894527948E-15,0.));
#928=CARTESIAN_POINT('Origin',(-14.5,-1.33261894527948E-15,0.4));
#929=CARTESIAN_POINT('Origin',(5.00000000000808,-11.821590417537,0.));
#930=CARTESIAN_POINT('',(12.5000000000079,2.5513474982197E-15,0.4));
#931=CARTESIAN_POINT('Origin',(-0.389791214626703,-16.8126522637394,0.));
#932=CARTESIAN_POINT('',(-0.143486489370199,-21.7976329392219,0.4));
#933=CARTESIAN_POINT('Origin',(-0.389791214626703,-16.8126522637394,0.4));
#934=CARTESIAN_POINT('',(-0.143486489370199,-21.7976329392219,0.));
#935=CARTESIAN_POINT('Origin',(-0.143486489383766,-64.9998416277099,0.));
#936=CARTESIAN_POINT('',(-0.143486489370199,-21.7976329392219,0.4));
#937=CARTESIAN_POINT('Origin',(0.0565135106286032,-21.603714109942,0.));
#938=CARTESIAN_POINT('',(0.056513510628603,-21.603714109942,0.4));
#939=CARTESIAN_POINT('',(0.0565135106286032,-21.603714109942,0.4));
#940=CARTESIAN_POINT('',(0.0565135106286032,-21.603714109942,0.));
#941=CARTESIAN_POINT('Origin',(-0.3897912146267,-21.6037141099418,0.));
#942=CARTESIAN_POINT('',(-0.3897912146267,-21.6037141099418,0.4));
#943=CARTESIAN_POINT('',(-0.3897912146267,-21.6037141099418,0.4));
#944=CARTESIAN_POINT('',(-0.3897912146267,-21.6037141099418,0.));
#945=CARTESIAN_POINT('Origin',(-0.389791214626703,-16.8126522637394,0.));
#946=CARTESIAN_POINT('Origin',(-0.389791214626703,-16.8126522637394,0.4));
#947=CARTESIAN_POINT('Origin',(0.,1.22837595561975E-5,0.4));
#948=UNCERTAINTY_MEASURE_WITH_UNIT(LENGTH_MEASURE(0.01),#952,
'DISTANCE_ACCURACY_VALUE',
'Maximum model space distance between geometric entities at asserted c
onnectivities');
#949=UNCERTAINTY_MEASURE_WITH_UNIT(LENGTH_MEASURE(0.01),#952,
'DISTANCE_ACCURACY_VALUE',
'Maximum model space distance between geometric entities at asserted c
onnectivities');
#950=(
GEOMETRIC_REPRESENTATION_CONTEXT(3)
GLOBAL_UNCERTAINTY_ASSIGNED_CONTEXT((#948))
GLOBAL_UNIT_ASSIGNED_CONTEXT((#952,#954,#955))
REPRESENTATION_CONTEXT('','3D')
);
#951=(
GEOMETRIC_REPRESENTATION_CONTEXT(3)
GLOBAL_UNCERTAINTY_ASSIGNED_CONTEXT((#949))
GLOBAL_UNIT_ASSIGNED_CONTEXT((#952,#954,#955))
REPRESENTATION_CONTEXT('','3D')
);
#952=(
LENGTH_UNIT()
NAMED_UNIT(*)
SI_UNIT(.MILLI.,.METRE.)
);
#953=(
LENGTH_UNIT()
NAMED_UNIT(*)
SI_UNIT($,.METRE.)
);
#954=(
NAMED_UNIT(*)
PLANE_ANGLE_UNIT()
SI_UNIT($,.RADIAN.)
);
#955=(
NAMED_UNIT(*)
SI_UNIT($,.STERADIAN.)
SOLID_ANGLE_UNIT()
);
#956=SHAPE_DEFINITION_REPRESENTATION(#957,#958);
#957=PRODUCT_DEFINITION_SHAPE('',$,#960);
#958=SHAPE_REPRESENTATION('',(#564),#950);
#959=PRODUCT_DEFINITION_CONTEXT('part definition',#964,'design');
#960=PRODUCT_DEFINITION('timer_indicator_disk',
'timer_indicator_disk v2',#961,#959);
#961=PRODUCT_DEFINITION_FORMATION('',$,#966);
#962=PRODUCT_RELATED_PRODUCT_CATEGORY('timer_indicator_disk v2',
'timer_indicator_disk v2',(#966));
#963=APPLICATION_PROTOCOL_DEFINITION('international standard',
'automotive_design',2009,#964);
#964=APPLICATION_CONTEXT(
'Core Data for Automotive Mechanical Design Process');
#965=PRODUCT_CONTEXT('part definition',#964,'mechanical');
#966=PRODUCT('timer_indicator_disk','timer_indicator_disk v2',$,(#965));
#967=PRESENTATION_STYLE_ASSIGNMENT((#968));
#968=SURFACE_STYLE_USAGE(.BOTH.,#969);
#969=SURFACE_SIDE_STYLE('',(#970));
#970=SURFACE_STYLE_FILL_AREA(#971);
#971=FILL_AREA_STYLE('Plastic - Matte (Gray)',(#972));
#972=FILL_AREA_STYLE_COLOUR('Plastic - Matte (Gray)',#973);
#973=COLOUR_RGB('Plastic - Matte (Gray)',0.701960784313725,0.701960784313725,
0.701960784313725);
ENDSEC;
END-ISO-10303-21;
