ISO-10303-21;
HEADER;
/* Generated by software containing ST-Developer
 * from STEP Tools, Inc. (www.steptools.com) 
 */

FILE_DESCRIPTION(
/* description */ (''),
/* implementation_level */ '2;1');

FILE_NAME(
/* name */ 'candle_legs_v2.step',
/* time_stamp */ '2026-03-17T23:34:23-04:00',
/* author */ (''),
/* organization */ (''),
/* preprocessor_version */ 'ST-DEVELOPER v20.1',
/* originating_system */ 'Autodesk Translation Framework v14.24.0.0',
/* authorisation */ '');

FILE_SCHEMA (('AUTOMOTIVE_DESIGN { 1 0 10303 214 3 1 1 }'));
ENDSEC;

DATA;
#10=MECHANICAL_DESIGN_GEOMETRIC_PRESENTATION_REPRESENTATION('',(#13),#638);
#11=SHAPE_REPRESENTATION_RELATIONSHIP('SRR','None',#645,#12);
#12=ADVANCED_BREP_SHAPE_REPRESENTATION('',(#14),#637);
#13=STYLED_ITEM('',(#654),#14);
#14=MANIFOLD_SOLID_BREP('Body1',#378);
#15=FACE_BOUND('',#63,.T.);
#16=FACE_BOUND('',#64,.T.);
#17=FACE_BOUND('',#65,.T.);
#18=FACE_BOUND('',#68,.T.);
#19=FACE_BOUND('',#69,.T.);
#20=FACE_BOUND('',#70,.T.);
#21=PLANE('',#401);
#22=PLANE('',#411);
#23=PLANE('',#412);
#24=PLANE('',#416);
#25=PLANE('',#417);
#26=PLANE('',#418);
#27=PLANE('',#419);
#28=PLANE('',#420);
#29=PLANE('',#421);
#30=PLANE('',#422);
#31=PLANE('',#423);
#32=PLANE('',#424);
#33=FACE_OUTER_BOUND('',#52,.T.);
#34=FACE_OUTER_BOUND('',#53,.T.);
#35=FACE_OUTER_BOUND('',#54,.T.);
#36=FACE_OUTER_BOUND('',#55,.T.);
#37=FACE_OUTER_BOUND('',#56,.T.);
#38=FACE_OUTER_BOUND('',#57,.T.);
#39=FACE_OUTER_BOUND('',#58,.T.);
#40=FACE_OUTER_BOUND('',#59,.T.);
#41=FACE_OUTER_BOUND('',#60,.T.);
#42=FACE_OUTER_BOUND('',#61,.T.);
#43=FACE_OUTER_BOUND('',#62,.T.);
#44=FACE_OUTER_BOUND('',#66,.T.);
#45=FACE_OUTER_BOUND('',#67,.T.);
#46=FACE_OUTER_BOUND('',#71,.T.);
#47=FACE_OUTER_BOUND('',#72,.T.);
#48=FACE_OUTER_BOUND('',#73,.T.);
#49=FACE_OUTER_BOUND('',#74,.T.);
#50=FACE_OUTER_BOUND('',#75,.T.);
#51=FACE_OUTER_BOUND('',#76,.T.);
#52=EDGE_LOOP('',(#250,#251,#252,#253));
#53=EDGE_LOOP('',(#254,#255,#256,#257));
#54=EDGE_LOOP('',(#258,#259,#260,#261));
#55=EDGE_LOOP('',(#262,#263,#264,#265));
#56=EDGE_LOOP('',(#266,#267,#268,#269));
#57=EDGE_LOOP('',(#270,#271,#272,#273));
#58=EDGE_LOOP('',(#274,#275,#276,#277));
#59=EDGE_LOOP('',(#278,#279,#280,#281,#282,#283));
#60=EDGE_LOOP('',(#284,#285,#286,#287));
#61=EDGE_LOOP('',(#288,#289,#290,#291));
#62=EDGE_LOOP('',(#292,#293,#294,#295,#296,#297,#298,#299));
#63=EDGE_LOOP('',(#300));
#64=EDGE_LOOP('',(#301));
#65=EDGE_LOOP('',(#302));
#66=EDGE_LOOP('',(#303,#304,#305,#306,#307,#308));
#67=EDGE_LOOP('',(#309,#310,#311,#312,#313,#314,#315,#316,#317,#318));
#68=EDGE_LOOP('',(#319));
#69=EDGE_LOOP('',(#320));
#70=EDGE_LOOP('',(#321));
#71=EDGE_LOOP('',(#322,#323,#324,#325,#326,#327,#328,#329,#330,#331));
#72=EDGE_LOOP('',(#332,#333,#334,#335));
#73=EDGE_LOOP('',(#336,#337,#338,#339));
#74=EDGE_LOOP('',(#340,#341,#342,#343));
#75=EDGE_LOOP('',(#344,#345,#346,#347));
#76=EDGE_LOOP('',(#348,#349,#350,#351));
#77=LINE('',#535,#114);
#78=LINE('',#541,#115);
#79=LINE('',#548,#116);
#80=LINE('',#551,#117);
#81=LINE('',#554,#118);
#82=LINE('',#556,#119);
#83=LINE('',#557,#120);
#84=LINE('',#562,#121);
#85=LINE('',#568,#122);
#86=LINE('',#575,#123);
#87=LINE('',#578,#124);
#88=LINE('',#580,#125);
#89=LINE('',#582,#126);
#90=LINE('',#584,#127);
#91=LINE('',#585,#128);
#92=LINE('',#588,#129);
#93=LINE('',#590,#130);
#94=LINE('',#591,#131);
#95=LINE('',#596,#132);
#96=LINE('',#599,#133);
#97=LINE('',#602,#134);
#98=LINE('',#604,#135);
#99=LINE('',#605,#136);
#100=LINE('',#608,#137);
#101=LINE('',#610,#138);
#102=LINE('',#612,#139);
#103=LINE('',#614,#140);
#104=LINE('',#615,#141);
#105=LINE('',#618,#142);
#106=LINE('',#620,#143);
#107=LINE('',#622,#144);
#108=LINE('',#624,#145);
#109=LINE('',#625,#146);
#110=LINE('',#627,#147);
#111=LINE('',#628,#148);
#112=LINE('',#631,#149);
#113=LINE('',#632,#150);
#114=VECTOR('',#431,3.5);
#115=VECTOR('',#438,3.5);
#116=VECTOR('',#445,30.);
#117=VECTOR('',#448,30.);
#118=VECTOR('',#451,10.);
#119=VECTOR('',#452,30.);
#120=VECTOR('',#453,10.);
#121=VECTOR('',#458,30.);
#122=VECTOR('',#465,8.25);
#123=VECTOR('',#472,10.);
#124=VECTOR('',#475,10.);
#125=VECTOR('',#478,10.);
#126=VECTOR('',#479,10.);
#127=VECTOR('',#480,10.);
#128=VECTOR('',#481,10.);
#129=VECTOR('',#484,10.);
#130=VECTOR('',#485,10.);
#131=VECTOR('',#486,10.);
#132=VECTOR('',#491,10.);
#133=VECTOR('',#496,10.);
#134=VECTOR('',#499,10.);
#135=VECTOR('',#500,10.);
#136=VECTOR('',#501,10.);
#137=VECTOR('',#504,10.);
#138=VECTOR('',#505,10.);
#139=VECTOR('',#506,10.);
#140=VECTOR('',#507,10.);
#141=VECTOR('',#508,10.);
#142=VECTOR('',#511,10.);
#143=VECTOR('',#512,10.);
#144=VECTOR('',#513,10.);
#145=VECTOR('',#514,10.);
#146=VECTOR('',#515,10.);
#147=VECTOR('',#518,10.);
#148=VECTOR('',#519,10.);
#149=VECTOR('',#524,10.);
#150=VECTOR('',#525,10.);
#151=CIRCLE('',#393,3.5);
#152=CIRCLE('',#394,3.5);
#153=CIRCLE('',#396,3.5);
#154=CIRCLE('',#397,3.5);
#155=CIRCLE('',#399,30.);
#156=CIRCLE('',#400,30.);
#157=CIRCLE('',#403,30.);
#158=CIRCLE('',#404,30.);
#159=CIRCLE('',#406,8.25);
#160=CIRCLE('',#407,8.25);
#161=CIRCLE('',#409,37.5);
#162=CIRCLE('',#410,37.5);
#163=CIRCLE('',#414,37.5);
#164=CIRCLE('',#415,37.5);
#165=VERTEX_POINT('',#532);
#166=VERTEX_POINT('',#534);
#167=VERTEX_POINT('',#538);
#168=VERTEX_POINT('',#540);
#169=VERTEX_POINT('',#544);
#170=VERTEX_POINT('',#545);
#171=VERTEX_POINT('',#547);
#172=VERTEX_POINT('',#549);
#173=VERTEX_POINT('',#553);
#174=VERTEX_POINT('',#555);
#175=VERTEX_POINT('',#559);
#176=VERTEX_POINT('',#561);
#177=VERTEX_POINT('',#565);
#178=VERTEX_POINT('',#567);
#179=VERTEX_POINT('',#571);
#180=VERTEX_POINT('',#572);
#181=VERTEX_POINT('',#574);
#182=VERTEX_POINT('',#576);
#183=VERTEX_POINT('',#581);
#184=VERTEX_POINT('',#583);
#185=VERTEX_POINT('',#587);
#186=VERTEX_POINT('',#589);
#187=VERTEX_POINT('',#593);
#188=VERTEX_POINT('',#595);
#189=VERTEX_POINT('',#601);
#190=VERTEX_POINT('',#603);
#191=VERTEX_POINT('',#607);
#192=VERTEX_POINT('',#609);
#193=VERTEX_POINT('',#611);
#194=VERTEX_POINT('',#613);
#195=VERTEX_POINT('',#617);
#196=VERTEX_POINT('',#619);
#197=VERTEX_POINT('',#621);
#198=VERTEX_POINT('',#623);
#199=EDGE_CURVE('',#165,#165,#151,.T.);
#200=EDGE_CURVE('',#165,#166,#77,.T.);
#201=EDGE_CURVE('',#166,#166,#152,.T.);
#202=EDGE_CURVE('',#167,#167,#153,.T.);
#203=EDGE_CURVE('',#167,#168,#78,.T.);
#204=EDGE_CURVE('',#168,#168,#154,.T.);
#205=EDGE_CURVE('',#169,#170,#155,.F.);
#206=EDGE_CURVE('',#169,#171,#79,.T.);
#207=EDGE_CURVE('',#171,#172,#156,.T.);
#208=EDGE_CURVE('',#172,#170,#80,.T.);
#209=EDGE_CURVE('',#172,#173,#81,.T.);
#210=EDGE_CURVE('',#174,#173,#82,.T.);
#211=EDGE_CURVE('',#174,#170,#83,.T.);
#212=EDGE_CURVE('',#175,#173,#157,.F.);
#213=EDGE_CURVE('',#175,#176,#84,.T.);
#214=EDGE_CURVE('',#176,#174,#158,.T.);
#215=EDGE_CURVE('',#177,#177,#159,.T.);
#216=EDGE_CURVE('',#177,#178,#85,.T.);
#217=EDGE_CURVE('',#178,#178,#160,.T.);
#218=EDGE_CURVE('',#179,#180,#161,.T.);
#219=EDGE_CURVE('',#179,#181,#86,.T.);
#220=EDGE_CURVE('',#181,#182,#162,.T.);
#221=EDGE_CURVE('',#182,#180,#87,.T.);
#222=EDGE_CURVE('',#175,#180,#88,.T.);
#223=EDGE_CURVE('',#182,#183,#89,.T.);
#224=EDGE_CURVE('',#183,#184,#90,.T.);
#225=EDGE_CURVE('',#176,#184,#91,.T.);
#226=EDGE_CURVE('',#185,#179,#92,.T.);
#227=EDGE_CURVE('',#186,#185,#93,.T.);
#228=EDGE_CURVE('',#186,#181,#94,.T.);
#229=EDGE_CURVE('',#187,#185,#163,.T.);
#230=EDGE_CURVE('',#187,#188,#95,.T.);
#231=EDGE_CURVE('',#188,#186,#164,.T.);
#232=EDGE_CURVE('',#187,#171,#96,.T.);
#233=EDGE_CURVE('',#189,#169,#97,.T.);
#234=EDGE_CURVE('',#190,#189,#98,.T.);
#235=EDGE_CURVE('',#188,#190,#99,.T.);
#236=EDGE_CURVE('',#184,#191,#100,.T.);
#237=EDGE_CURVE('',#192,#191,#101,.T.);
#238=EDGE_CURVE('',#193,#192,#102,.T.);
#239=EDGE_CURVE('',#193,#194,#103,.T.);
#240=EDGE_CURVE('',#194,#189,#104,.T.);
#241=EDGE_CURVE('',#195,#190,#105,.T.);
#242=EDGE_CURVE('',#196,#195,#106,.T.);
#243=EDGE_CURVE('',#197,#196,#107,.T.);
#244=EDGE_CURVE('',#197,#198,#108,.T.);
#245=EDGE_CURVE('',#183,#198,#109,.T.);
#246=EDGE_CURVE('',#196,#193,#110,.T.);
#247=EDGE_CURVE('',#195,#194,#111,.T.);
#248=EDGE_CURVE('',#197,#192,#112,.T.);
#249=EDGE_CURVE('',#198,#191,#113,.T.);
#250=ORIENTED_EDGE('',*,*,#199,.F.);
#251=ORIENTED_EDGE('',*,*,#200,.T.);
#252=ORIENTED_EDGE('',*,*,#201,.F.);
#253=ORIENTED_EDGE('',*,*,#200,.F.);
#254=ORIENTED_EDGE('',*,*,#202,.F.);
#255=ORIENTED_EDGE('',*,*,#203,.T.);
#256=ORIENTED_EDGE('',*,*,#204,.F.);
#257=ORIENTED_EDGE('',*,*,#203,.F.);
#258=ORIENTED_EDGE('',*,*,#205,.F.);
#259=ORIENTED_EDGE('',*,*,#206,.T.);
#260=ORIENTED_EDGE('',*,*,#207,.T.);
#261=ORIENTED_EDGE('',*,*,#208,.T.);
#262=ORIENTED_EDGE('',*,*,#208,.F.);
#263=ORIENTED_EDGE('',*,*,#209,.T.);
#264=ORIENTED_EDGE('',*,*,#210,.F.);
#265=ORIENTED_EDGE('',*,*,#211,.T.);
#266=ORIENTED_EDGE('',*,*,#212,.F.);
#267=ORIENTED_EDGE('',*,*,#213,.T.);
#268=ORIENTED_EDGE('',*,*,#214,.T.);
#269=ORIENTED_EDGE('',*,*,#210,.T.);
#270=ORIENTED_EDGE('',*,*,#215,.F.);
#271=ORIENTED_EDGE('',*,*,#216,.T.);
#272=ORIENTED_EDGE('',*,*,#217,.F.);
#273=ORIENTED_EDGE('',*,*,#216,.F.);
#274=ORIENTED_EDGE('',*,*,#218,.F.);
#275=ORIENTED_EDGE('',*,*,#219,.T.);
#276=ORIENTED_EDGE('',*,*,#220,.T.);
#277=ORIENTED_EDGE('',*,*,#221,.T.);
#278=ORIENTED_EDGE('',*,*,#222,.T.);
#279=ORIENTED_EDGE('',*,*,#221,.F.);
#280=ORIENTED_EDGE('',*,*,#223,.T.);
#281=ORIENTED_EDGE('',*,*,#224,.T.);
#282=ORIENTED_EDGE('',*,*,#225,.F.);
#283=ORIENTED_EDGE('',*,*,#213,.F.);
#284=ORIENTED_EDGE('',*,*,#219,.F.);
#285=ORIENTED_EDGE('',*,*,#226,.F.);
#286=ORIENTED_EDGE('',*,*,#227,.F.);
#287=ORIENTED_EDGE('',*,*,#228,.T.);
#288=ORIENTED_EDGE('',*,*,#229,.F.);
#289=ORIENTED_EDGE('',*,*,#230,.T.);
#290=ORIENTED_EDGE('',*,*,#231,.T.);
#291=ORIENTED_EDGE('',*,*,#227,.T.);
#292=ORIENTED_EDGE('',*,*,#218,.T.);
#293=ORIENTED_EDGE('',*,*,#222,.F.);
#294=ORIENTED_EDGE('',*,*,#212,.T.);
#295=ORIENTED_EDGE('',*,*,#209,.F.);
#296=ORIENTED_EDGE('',*,*,#207,.F.);
#297=ORIENTED_EDGE('',*,*,#232,.F.);
#298=ORIENTED_EDGE('',*,*,#229,.T.);
#299=ORIENTED_EDGE('',*,*,#226,.T.);
#300=ORIENTED_EDGE('',*,*,#201,.T.);
#301=ORIENTED_EDGE('',*,*,#204,.T.);
#302=ORIENTED_EDGE('',*,*,#217,.T.);
#303=ORIENTED_EDGE('',*,*,#206,.F.);
#304=ORIENTED_EDGE('',*,*,#233,.F.);
#305=ORIENTED_EDGE('',*,*,#234,.F.);
#306=ORIENTED_EDGE('',*,*,#235,.F.);
#307=ORIENTED_EDGE('',*,*,#230,.F.);
#308=ORIENTED_EDGE('',*,*,#232,.T.);
#309=ORIENTED_EDGE('',*,*,#225,.T.);
#310=ORIENTED_EDGE('',*,*,#236,.T.);
#311=ORIENTED_EDGE('',*,*,#237,.F.);
#312=ORIENTED_EDGE('',*,*,#238,.F.);
#313=ORIENTED_EDGE('',*,*,#239,.T.);
#314=ORIENTED_EDGE('',*,*,#240,.T.);
#315=ORIENTED_EDGE('',*,*,#233,.T.);
#316=ORIENTED_EDGE('',*,*,#205,.T.);
#317=ORIENTED_EDGE('',*,*,#211,.F.);
#318=ORIENTED_EDGE('',*,*,#214,.F.);
#319=ORIENTED_EDGE('',*,*,#199,.T.);
#320=ORIENTED_EDGE('',*,*,#202,.T.);
#321=ORIENTED_EDGE('',*,*,#215,.T.);
#322=ORIENTED_EDGE('',*,*,#235,.T.);
#323=ORIENTED_EDGE('',*,*,#241,.F.);
#324=ORIENTED_EDGE('',*,*,#242,.F.);
#325=ORIENTED_EDGE('',*,*,#243,.F.);
#326=ORIENTED_EDGE('',*,*,#244,.T.);
#327=ORIENTED_EDGE('',*,*,#245,.F.);
#328=ORIENTED_EDGE('',*,*,#223,.F.);
#329=ORIENTED_EDGE('',*,*,#220,.F.);
#330=ORIENTED_EDGE('',*,*,#228,.F.);
#331=ORIENTED_EDGE('',*,*,#231,.F.);
#332=ORIENTED_EDGE('',*,*,#246,.F.);
#333=ORIENTED_EDGE('',*,*,#242,.T.);
#334=ORIENTED_EDGE('',*,*,#247,.T.);
#335=ORIENTED_EDGE('',*,*,#239,.F.);
#336=ORIENTED_EDGE('',*,*,#247,.F.);
#337=ORIENTED_EDGE('',*,*,#241,.T.);
#338=ORIENTED_EDGE('',*,*,#234,.T.);
#339=ORIENTED_EDGE('',*,*,#240,.F.);
#340=ORIENTED_EDGE('',*,*,#248,.T.);
#341=ORIENTED_EDGE('',*,*,#237,.T.);
#342=ORIENTED_EDGE('',*,*,#249,.F.);
#343=ORIENTED_EDGE('',*,*,#244,.F.);
#344=ORIENTED_EDGE('',*,*,#224,.F.);
#345=ORIENTED_EDGE('',*,*,#245,.T.);
#346=ORIENTED_EDGE('',*,*,#249,.T.);
#347=ORIENTED_EDGE('',*,*,#236,.F.);
#348=ORIENTED_EDGE('',*,*,#248,.F.);
#349=ORIENTED_EDGE('',*,*,#243,.T.);
#350=ORIENTED_EDGE('',*,*,#246,.T.);
#351=ORIENTED_EDGE('',*,*,#238,.T.);
#352=CYLINDRICAL_SURFACE('',#392,3.5);
#353=CYLINDRICAL_SURFACE('',#395,3.5);
#354=CYLINDRICAL_SURFACE('',#398,30.);
#355=CYLINDRICAL_SURFACE('',#402,30.);
#356=CYLINDRICAL_SURFACE('',#405,8.25);
#357=CYLINDRICAL_SURFACE('',#408,37.5);
#358=CYLINDRICAL_SURFACE('',#413,37.5);
#359=ADVANCED_FACE('',(#33),#352,.F.);
#360=ADVANCED_FACE('',(#34),#353,.F.);
#361=ADVANCED_FACE('',(#35),#354,.F.);
#362=ADVANCED_FACE('',(#36),#21,.T.);
#363=ADVANCED_FACE('',(#37),#355,.F.);
#364=ADVANCED_FACE('',(#38),#356,.F.);
#365=ADVANCED_FACE('',(#39),#357,.F.);
#366=ADVANCED_FACE('',(#40),#22,.T.);
#367=ADVANCED_FACE('',(#41),#23,.T.);
#368=ADVANCED_FACE('',(#42),#358,.F.);
#369=ADVANCED_FACE('',(#43,#15,#16,#17),#24,.T.);
#370=ADVANCED_FACE('',(#44),#25,.T.);
#371=ADVANCED_FACE('',(#45,#18,#19,#20),#26,.T.);
#372=ADVANCED_FACE('',(#46),#27,.T.);
#373=ADVANCED_FACE('',(#47),#28,.T.);
#374=ADVANCED_FACE('',(#48),#29,.T.);
#375=ADVANCED_FACE('',(#49),#30,.T.);
#376=ADVANCED_FACE('',(#50),#31,.T.);
#377=ADVANCED_FACE('',(#51),#32,.F.);
#378=CLOSED_SHELL('',(#359,#360,#361,#362,#363,#364,#365,#366,#367,#368,
#369,#370,#371,#372,#373,#374,#375,#376,#377));
#379=DERIVED_UNIT_ELEMENT(#381,1.);
#380=DERIVED_UNIT_ELEMENT(#640,-3.);
#381=(
MASS_UNIT()
NAMED_UNIT(*)
SI_UNIT(.KILO.,.GRAM.)
);
#382=DERIVED_UNIT((#379,#380));
#383=MEASURE_REPRESENTATION_ITEM('density measure',
POSITIVE_RATIO_MEASURE(7850.),#382);
#384=PROPERTY_DEFINITION_REPRESENTATION(#389,#386);
#385=PROPERTY_DEFINITION_REPRESENTATION(#390,#387);
#386=REPRESENTATION('material name',(#388),#637);
#387=REPRESENTATION('density',(#383),#637);
#388=DESCRIPTIVE_REPRESENTATION_ITEM('Steel','Steel');
#389=PROPERTY_DEFINITION('material property','material name',#647);
#390=PROPERTY_DEFINITION('material property','density of part',#647);
#391=AXIS2_PLACEMENT_3D('',#530,#425,#426);
#392=AXIS2_PLACEMENT_3D('',#531,#427,#428);
#393=AXIS2_PLACEMENT_3D('',#533,#429,#430);
#394=AXIS2_PLACEMENT_3D('',#536,#432,#433);
#395=AXIS2_PLACEMENT_3D('',#537,#434,#435);
#396=AXIS2_PLACEMENT_3D('',#539,#436,#437);
#397=AXIS2_PLACEMENT_3D('',#542,#439,#440);
#398=AXIS2_PLACEMENT_3D('',#543,#441,#442);
#399=AXIS2_PLACEMENT_3D('',#546,#443,#444);
#400=AXIS2_PLACEMENT_3D('',#550,#446,#447);
#401=AXIS2_PLACEMENT_3D('',#552,#449,#450);
#402=AXIS2_PLACEMENT_3D('',#558,#454,#455);
#403=AXIS2_PLACEMENT_3D('',#560,#456,#457);
#404=AXIS2_PLACEMENT_3D('',#563,#459,#460);
#405=AXIS2_PLACEMENT_3D('',#564,#461,#462);
#406=AXIS2_PLACEMENT_3D('',#566,#463,#464);
#407=AXIS2_PLACEMENT_3D('',#569,#466,#467);
#408=AXIS2_PLACEMENT_3D('',#570,#468,#469);
#409=AXIS2_PLACEMENT_3D('',#573,#470,#471);
#410=AXIS2_PLACEMENT_3D('',#577,#473,#474);
#411=AXIS2_PLACEMENT_3D('',#579,#476,#477);
#412=AXIS2_PLACEMENT_3D('',#586,#482,#483);
#413=AXIS2_PLACEMENT_3D('',#592,#487,#488);
#414=AXIS2_PLACEMENT_3D('',#594,#489,#490);
#415=AXIS2_PLACEMENT_3D('',#597,#492,#493);
#416=AXIS2_PLACEMENT_3D('',#598,#494,#495);
#417=AXIS2_PLACEMENT_3D('',#600,#497,#498);
#418=AXIS2_PLACEMENT_3D('',#606,#502,#503);
#419=AXIS2_PLACEMENT_3D('',#616,#509,#510);
#420=AXIS2_PLACEMENT_3D('',#626,#516,#517);
#421=AXIS2_PLACEMENT_3D('',#629,#520,#521);
#422=AXIS2_PLACEMENT_3D('',#630,#522,#523);
#423=AXIS2_PLACEMENT_3D('',#633,#526,#527);
#424=AXIS2_PLACEMENT_3D('',#634,#528,#529);
#425=DIRECTION('axis',(0.,0.,1.));
#426=DIRECTION('refdir',(1.,0.,0.));
#427=DIRECTION('center_axis',(0.,0.,1.));
#428=DIRECTION('ref_axis',(-1.,0.,0.));
#429=DIRECTION('center_axis',(0.,0.,1.));
#430=DIRECTION('ref_axis',(-1.,0.,0.));
#431=DIRECTION('',(0.,0.,1.));
#432=DIRECTION('center_axis',(0.,0.,-1.));
#433=DIRECTION('ref_axis',(-1.,0.,0.));
#434=DIRECTION('center_axis',(0.,0.,1.));
#435=DIRECTION('ref_axis',(-1.,0.,0.));
#436=DIRECTION('center_axis',(0.,0.,1.));
#437=DIRECTION('ref_axis',(-1.,0.,0.));
#438=DIRECTION('',(0.,0.,1.));
#439=DIRECTION('center_axis',(0.,0.,-1.));
#440=DIRECTION('ref_axis',(-1.,0.,0.));
#441=DIRECTION('center_axis',(0.,0.,-1.));
#442=DIRECTION('ref_axis',(0.,-1.,0.));
#443=DIRECTION('center_axis',(0.,0.,-1.));
#444=DIRECTION('ref_axis',(0.,-1.,0.));
#445=DIRECTION('',(0.,0.,1.));
#446=DIRECTION('center_axis',(0.,0.,1.));
#447=DIRECTION('ref_axis',(0.,-1.,0.));
#448=DIRECTION('',(0.,0.,-1.));
#449=DIRECTION('center_axis',(0.,1.,0.));
#450=DIRECTION('ref_axis',(0.,0.,1.));
#451=DIRECTION('',(1.,0.,0.));
#452=DIRECTION('',(0.,0.,1.));
#453=DIRECTION('',(-1.,0.,0.));
#454=DIRECTION('center_axis',(0.,0.,1.));
#455=DIRECTION('ref_axis',(0.,-1.,0.));
#456=DIRECTION('center_axis',(0.,0.,1.));
#457=DIRECTION('ref_axis',(0.,-1.,0.));
#458=DIRECTION('',(0.,0.,-1.));
#459=DIRECTION('center_axis',(0.,0.,-1.));
#460=DIRECTION('ref_axis',(0.,-1.,0.));
#461=DIRECTION('center_axis',(0.,0.,1.));
#462=DIRECTION('ref_axis',(-1.,0.,0.));
#463=DIRECTION('center_axis',(0.,0.,1.));
#464=DIRECTION('ref_axis',(-1.,0.,0.));
#465=DIRECTION('',(0.,0.,1.));
#466=DIRECTION('center_axis',(0.,0.,-1.));
#467=DIRECTION('ref_axis',(-1.,0.,0.));
#468=DIRECTION('center_axis',(0.,0.,1.));
#469=DIRECTION('ref_axis',(0.707106781186548,-0.707106781186548,0.));
#470=DIRECTION('center_axis',(0.,0.,1.));
#471=DIRECTION('ref_axis',(0.707106781186548,-0.707106781186548,0.));
#472=DIRECTION('',(0.,0.,1.));
#473=DIRECTION('center_axis',(0.,0.,1.));
#474=DIRECTION('ref_axis',(0.707106781186548,-0.707106781186548,0.));
#475=DIRECTION('',(0.,0.,-1.));
#476=DIRECTION('center_axis',(-1.,0.,0.));
#477=DIRECTION('ref_axis',(0.,0.,1.));
#478=DIRECTION('',(0.,-1.,0.));
#479=DIRECTION('',(0.,1.,0.));
#480=DIRECTION('',(0.,0.,-1.));
#481=DIRECTION('',(0.,1.,0.));
#482=DIRECTION('center_axis',(0.,1.,0.));
#483=DIRECTION('ref_axis',(0.,0.,1.));
#484=DIRECTION('',(1.,0.,0.));
#485=DIRECTION('',(0.,0.,-1.));
#486=DIRECTION('',(1.,0.,0.));
#487=DIRECTION('center_axis',(0.,0.,-1.));
#488=DIRECTION('ref_axis',(-0.707106781186548,-0.707106781186548,0.));
#489=DIRECTION('center_axis',(0.,0.,1.));
#490=DIRECTION('ref_axis',(-0.707106781186548,-0.707106781186548,0.));
#491=DIRECTION('',(0.,0.,1.));
#492=DIRECTION('center_axis',(0.,0.,1.));
#493=DIRECTION('ref_axis',(-0.707106781186548,-0.707106781186548,0.));
#494=DIRECTION('center_axis',(0.,0.,1.));
#495=DIRECTION('ref_axis',(1.,0.,0.));
#496=DIRECTION('',(0.,1.,0.));
#497=DIRECTION('center_axis',(1.,0.,0.));
#498=DIRECTION('ref_axis',(0.,0.,-1.));
#499=DIRECTION('',(0.,-1.,0.));
#500=DIRECTION('',(0.,0.,-1.));
#501=DIRECTION('',(0.,1.,0.));
#502=DIRECTION('center_axis',(0.,0.,-1.));
#503=DIRECTION('ref_axis',(-1.,0.,0.));
#504=DIRECTION('',(1.,0.,0.));
#505=DIRECTION('',(0.,1.,0.));
#506=DIRECTION('',(1.,0.,0.));
#507=DIRECTION('',(0.,1.,0.));
#508=DIRECTION('',(1.,0.,0.));
#509=DIRECTION('center_axis',(0.,0.,1.));
#510=DIRECTION('ref_axis',(1.,0.,0.));
#511=DIRECTION('',(1.,0.,0.));
#512=DIRECTION('',(0.,1.,0.));
#513=DIRECTION('',(-1.,0.,0.));
#514=DIRECTION('',(0.,1.,0.));
#515=DIRECTION('',(1.,0.,0.));
#516=DIRECTION('center_axis',(-1.,0.,0.));
#517=DIRECTION('ref_axis',(0.,0.,1.));
#518=DIRECTION('',(0.,0.,-1.));
#519=DIRECTION('',(0.,0.,-1.));
#520=DIRECTION('center_axis',(0.,1.,0.));
#521=DIRECTION('ref_axis',(0.,0.,1.));
#522=DIRECTION('center_axis',(1.,0.,0.));
#523=DIRECTION('ref_axis',(0.,0.,-1.));
#524=DIRECTION('',(0.,0.,-1.));
#525=DIRECTION('',(0.,0.,-1.));
#526=DIRECTION('center_axis',(0.,1.,0.));
#527=DIRECTION('ref_axis',(0.,0.,1.));
#528=DIRECTION('center_axis',(0.,1.,0.));
#529=DIRECTION('ref_axis',(1.,0.,0.));
#530=CARTESIAN_POINT('',(0.,0.,0.));
#531=CARTESIAN_POINT('Origin',(105.00000057742,12.5,0.));
#532=CARTESIAN_POINT('',(108.50000057742,12.5,0.));
#533=CARTESIAN_POINT('Origin',(105.00000057742,12.5,0.));
#534=CARTESIAN_POINT('',(108.50000057742,12.5,2.));
#535=CARTESIAN_POINT('',(108.50000057742,12.5,0.));
#536=CARTESIAN_POINT('Origin',(105.00000057742,12.5,2.));
#537=CARTESIAN_POINT('Origin',(45.00000057742,12.5,0.));
#538=CARTESIAN_POINT('',(48.50000057742,12.5,0.));
#539=CARTESIAN_POINT('Origin',(45.00000057742,12.5,0.));
#540=CARTESIAN_POINT('',(48.50000057742,12.5,2.));
#541=CARTESIAN_POINT('',(48.50000057742,12.5,0.));
#542=CARTESIAN_POINT('Origin',(45.00000057742,12.5,2.));
#543=CARTESIAN_POINT('Origin',(35.0000000745058,55.,12.5000001862645));
#544=CARTESIAN_POINT('',(5.00000007450581,55.,0.));
#545=CARTESIAN_POINT('',(35.0000000745058,25.,0.));
#546=CARTESIAN_POINT('Origin',(35.0000000745058,55.,0.));
#547=CARTESIAN_POINT('',(5.00000007450581,55.,2.));
#548=CARTESIAN_POINT('',(5.00000007450581,55.,12.5000001862645));
#549=CARTESIAN_POINT('',(35.0000000745058,25.,2.));
#550=CARTESIAN_POINT('Origin',(35.0000000745058,55.,2.));
#551=CARTESIAN_POINT('',(35.0000000745058,25.,12.5000001862645));
#552=CARTESIAN_POINT('Origin',(75.0000011175871,25.,12.5000001862645));
#553=CARTESIAN_POINT('',(115.,25.,2.));
#554=CARTESIAN_POINT('',(150.000002235174,25.,2.));
#555=CARTESIAN_POINT('',(115.,25.,0.));
#556=CARTESIAN_POINT('',(115.,25.,12.5000001862645));
#557=CARTESIAN_POINT('',(0.,25.,0.));
#558=CARTESIAN_POINT('Origin',(115.,55.,12.5000001862645));
#559=CARTESIAN_POINT('',(145.,55.,2.));
#560=CARTESIAN_POINT('Origin',(115.,55.,2.));
#561=CARTESIAN_POINT('',(145.,55.,0.));
#562=CARTESIAN_POINT('',(145.,55.,12.5000001862645));
#563=CARTESIAN_POINT('Origin',(115.,55.,0.));
#564=CARTESIAN_POINT('Origin',(75.00000057742,12.5,0.));
#565=CARTESIAN_POINT('',(83.25000057742,12.5,0.));
#566=CARTESIAN_POINT('Origin',(75.00000057742,12.5,0.));
#567=CARTESIAN_POINT('',(83.25000057742,12.5,2.));
#568=CARTESIAN_POINT('',(83.25000057742,12.5,0.));
#569=CARTESIAN_POINT('Origin',(75.00000057742,12.5,2.));
#570=CARTESIAN_POINT('Origin',(107.5,41.5,7.25000009313226));
#571=CARTESIAN_POINT('',(107.5,4.,2.));
#572=CARTESIAN_POINT('',(145.,41.5,2.));
#573=CARTESIAN_POINT('Origin',(107.5,41.5,2.));
#574=CARTESIAN_POINT('',(107.5,4.,25.));
#575=CARTESIAN_POINT('',(107.5,4.,7.25000009313226));
#576=CARTESIAN_POINT('',(145.,41.5,25.));
#577=CARTESIAN_POINT('Origin',(107.5,41.5,25.));
#578=CARTESIAN_POINT('',(145.,41.5,7.25000009313226));
#579=CARTESIAN_POINT('Origin',(145.,0.,2.));
#580=CARTESIAN_POINT('',(145.,0.,2.));
#581=CARTESIAN_POINT('',(145.,90.,25.));
#582=CARTESIAN_POINT('',(145.,0.,25.));
#583=CARTESIAN_POINT('',(145.,90.,0.));
#584=CARTESIAN_POINT('',(145.,90.,2.));
#585=CARTESIAN_POINT('',(145.,0.,0.));
#586=CARTESIAN_POINT('Origin',(75.0000011175871,4.,12.5000001862645));
#587=CARTESIAN_POINT('',(42.5000000745058,4.,2.));
#588=CARTESIAN_POINT('',(37.5000005587935,4.,2.));
#589=CARTESIAN_POINT('',(42.5000000745058,4.,25.));
#590=CARTESIAN_POINT('',(42.5000000745058,4.,18.7500002793968));
#591=CARTESIAN_POINT('',(150.,4.,25.));
#592=CARTESIAN_POINT('Origin',(42.5000000745058,41.5,18.7500002793968));
#593=CARTESIAN_POINT('',(5.00000007450581,41.5,2.));
#594=CARTESIAN_POINT('Origin',(42.5000000745058,41.5,2.));
#595=CARTESIAN_POINT('',(5.00000007450581,41.5,25.000000372529));
#596=CARTESIAN_POINT('',(5.00000007450581,41.5,18.7500002793968));
#597=CARTESIAN_POINT('Origin',(42.5000000745058,41.5,25.));
#598=CARTESIAN_POINT('Origin',(0.,0.,2.));
#599=CARTESIAN_POINT('',(5.00000007450581,0.,2.));
#600=CARTESIAN_POINT('Origin',(5.00000007450581,0.,25.000000372529));
#601=CARTESIAN_POINT('',(5.00000007450581,90.,0.));
#602=CARTESIAN_POINT('',(5.00000007450581,0.,0.));
#603=CARTESIAN_POINT('',(5.00000007450581,90.,25.000000372529));
#604=CARTESIAN_POINT('',(5.00000007450581,90.,0.));
#605=CARTESIAN_POINT('',(5.00000007450581,0.,25.000000372529));
#606=CARTESIAN_POINT('Origin',(150.000002235174,0.,0.));
#607=CARTESIAN_POINT('',(150.000002235174,90.,0.));
#608=CARTESIAN_POINT('',(150.000002235174,90.,0.));
#609=CARTESIAN_POINT('',(150.000002235174,0.,0.));
#610=CARTESIAN_POINT('',(150.000002235174,0.,0.));
#611=CARTESIAN_POINT('',(0.,0.,0.));
#612=CARTESIAN_POINT('',(0.,0.,0.));
#613=CARTESIAN_POINT('',(0.,90.,0.));
#614=CARTESIAN_POINT('',(0.,0.,0.));
#615=CARTESIAN_POINT('',(150.000002235174,90.,0.));
#616=CARTESIAN_POINT('Origin',(5.00000007450581,0.,25.));
#617=CARTESIAN_POINT('',(0.,90.,25.000000372529));
#618=CARTESIAN_POINT('',(5.00000007450581,90.,25.000000372529));
#619=CARTESIAN_POINT('',(0.,0.,25.000000372529));
#620=CARTESIAN_POINT('',(0.,0.,25.000000372529));
#621=CARTESIAN_POINT('',(150.,0.,25.));
#622=CARTESIAN_POINT('',(5.00000007450581,0.,25.000000372529));
#623=CARTESIAN_POINT('',(150.,90.,25.));
#624=CARTESIAN_POINT('',(150.,0.,25.));
#625=CARTESIAN_POINT('',(145.,90.,25.));
#626=CARTESIAN_POINT('Origin',(0.,0.,2.));
#627=CARTESIAN_POINT('',(0.,0.,2.));
#628=CARTESIAN_POINT('',(0.,90.,2.));
#629=CARTESIAN_POINT('Origin',(75.0000011175871,90.,12.5000001862645));
#630=CARTESIAN_POINT('Origin',(150.,0.,25.));
#631=CARTESIAN_POINT('',(150.,0.,25.));
#632=CARTESIAN_POINT('',(150.,90.,25.));
#633=CARTESIAN_POINT('Origin',(75.0000011175871,90.,12.5000001862645));
#634=CARTESIAN_POINT('Origin',(75.0000011175871,0.,12.5000001862645));
#635=UNCERTAINTY_MEASURE_WITH_UNIT(LENGTH_MEASURE(0.01),#639,
'DISTANCE_ACCURACY_VALUE',
'Maximum model space distance between geometric entities at asserted c
onnectivities');
#636=UNCERTAINTY_MEASURE_WITH_UNIT(LENGTH_MEASURE(0.01),#639,
'DISTANCE_ACCURACY_VALUE',
'Maximum model space distance between geometric entities at asserted c
onnectivities');
#637=(
GEOMETRIC_REPRESENTATION_CONTEXT(3)
GLOBAL_UNCERTAINTY_ASSIGNED_CONTEXT((#635))
GLOBAL_UNIT_ASSIGNED_CONTEXT((#639,#641,#642))
REPRESENTATION_CONTEXT('','3D')
);
#638=(
GEOMETRIC_REPRESENTATION_CONTEXT(3)
GLOBAL_UNCERTAINTY_ASSIGNED_CONTEXT((#636))
GLOBAL_UNIT_ASSIGNED_CONTEXT((#639,#641,#642))
REPRESENTATION_CONTEXT('','3D')
);
#639=(
LENGTH_UNIT()
NAMED_UNIT(*)
SI_UNIT(.MILLI.,.METRE.)
);
#640=(
LENGTH_UNIT()
NAMED_UNIT(*)
SI_UNIT($,.METRE.)
);
#641=(
NAMED_UNIT(*)
PLANE_ANGLE_UNIT()
SI_UNIT($,.RADIAN.)
);
#642=(
NAMED_UNIT(*)
SI_UNIT($,.STERADIAN.)
SOLID_ANGLE_UNIT()
);
#643=SHAPE_DEFINITION_REPRESENTATION(#644,#645);
#644=PRODUCT_DEFINITION_SHAPE('',$,#647);
#645=SHAPE_REPRESENTATION('',(#391),#637);
#646=PRODUCT_DEFINITION_CONTEXT('part definition',#651,'design');
#647=PRODUCT_DEFINITION('candle_legs','candle_legs v2',#648,#646);
#648=PRODUCT_DEFINITION_FORMATION('',$,#653);
#649=PRODUCT_RELATED_PRODUCT_CATEGORY('candle_legs v2','candle_legs v2',
(#653));
#650=APPLICATION_PROTOCOL_DEFINITION('international standard',
'automotive_design',2009,#651);
#651=APPLICATION_CONTEXT(
'Core Data for Automotive Mechanical Design Process');
#652=PRODUCT_CONTEXT('part definition',#651,'mechanical');
#653=PRODUCT('candle_legs','candle_legs v2',$,(#652));
#654=PRESENTATION_STYLE_ASSIGNMENT((#655));
#655=SURFACE_STYLE_USAGE(.BOTH.,#656);
#656=SURFACE_SIDE_STYLE('',(#657));
#657=SURFACE_STYLE_FILL_AREA(#658);
#658=FILL_AREA_STYLE('Steel - Satin',(#659));
#659=FILL_AREA_STYLE_COLOUR('Steel - Satin',#660);
#660=COLOUR_RGB('Steel - Satin',0.627450980392157,0.627450980392157,0.627450980392157);
ENDSEC;
END-ISO-10303-21;
