  0
SECTION
  2
HEADER
  9
$ACADVER
  1
AC1014
  9
$HANDSEED
  5
FFFF
  9
$MEASUREMENT
 70
     1
  0
ENDSEC
  0
SECTION
  2
TABLES
  0
TABLE
  2
VPORT
  5
8
330
0
100
AcDbSymbolTable
 70
     4
  0
VPORT
  5
2E
330
8
100
AcDbSymbolTableRecord
100
AcDbViewportTableRecord
  2
*ACTIVE
 70
     0
 10
0.0
 20
0.0
 11
1.0
 21
1.0
 12
210.0
 22
148.5
 13
0.0
 23
0.0
 14
10.0
 24
10.0
 15
10.0
 25
10.0
 16
0.0
 26
0.0
 36
1.0
 17
0.0
 27
0.0
 37
0.0
 40
341.0
 41
1.24
 42
50.0
 43
0.0
 44
0.0
 50
0.0
 51
0.0
 71
     0
 72
   100
 73
     1
 74
     3
 75
     0
 76
     0
 77
     0
 78
     0
  0
ENDTAB
  0
TABLE
  2
LTYPE
  5
5
330
0
100
AcDbSymbolTable
 70
     1
  0
LTYPE
  5
14
330
5
100
AcDbSymbolTableRecord
100
AcDbLinetypeTableRecord
  2
BYBLOCK
 70
     0
  3

 72
    65
 73
     0
 40
0.0
  0
LTYPE
  5
15
330
5
100
AcDbSymbolTableRecord
100
AcDbLinetypeTableRecord
  2
BYLAYER
 70
     0
  3

 72
    65
 73
     0
 40
0.0
  0
LTYPE
  5
16
330
5
100
AcDbSymbolTableRecord
100
AcDbLinetypeTableRecord
  2
CONTINUOUS
 70
     0
  3
Solid line
 72
    65
 73
     0
 40
0.0
  0
ENDTAB
  0
TABLE
  2
LAYER
  5
2
100
AcDbSymbolTable
 70
2
  0
LAYER
  5
50
100
AcDbSymbolTableRecord
100
AcDbLayerTableRecord
  2
0
 70
0
  6
CONTINUOUS
  0
LAYER
  5
51
100
AcDbSymbolTableRecord
100
AcDbLayerTableRecord
  2
Layer_1
 70
0
  6
CONTINUOUS
  0
ENDTAB
  0
TABLE
  2
STYLE
  5
3
330
0
100
AcDbSymbolTable
 70
     1
  0
STYLE
  5
11
330
3
100
AcDbSymbolTableRecord
100
AcDbTextStyleTableRecord
  2
STANDARD
 70
     0
 40
0.0
 41
1.0
 50
0.0
 71
     0
 42
2.5
  3
txt
  4

  0
ENDTAB
  0
TABLE
  2
VIEW
  5
6
330
0
100
AcDbSymbolTable
 70
     0
  0
ENDTAB
  0
TABLE
  2
UCS
  5
7
330
0
100
AcDbSymbolTable
 70
     0
  0
ENDTAB
  0
TABLE
  2
APPID
  5
9
330
0
100
AcDbSymbolTable
 70
     2
  0
APPID
  5
12
330
9
100
AcDbSymbolTableRecord
100
AcDbRegAppTableRecord
  2
ACAD
 70
     0
  0
ENDTAB
  0
TABLE
  2
DIMSTYLE
  5
A
330
0
100
AcDbSymbolTable
 70
     1
  0
DIMSTYLE
105
27
330
A
100
AcDbSymbolTableRecord
100
AcDbDimStyleTableRecord
  2
ISO-25
 70
     0
  3

  4

  5

  6

  7

 40
1.0
 41
2.5
 42
0.625
 43
3.75
 44
1.25
 45
0.0
 46
0.0
 47
0.0
 48
0.0
140
2.5
141
2.5
142
0.0
143
0.03937007874016
144
1.0
145
0.0
146
1.0
147
0.625
 71
     0
 72
     0
 73
     0
 74
     0
 75
     0
 76
     0
 77
     1
 78
     8
170
     0
171
     3
172
     1
173
     0
174
     0
175
     0
176
     0
177
     0
178
     0
270
     2
271
     2
272
     2
273
     2
274
     3
340
11
275
     0
280
     0
281
     0
282
     0
283
     0
284
     8
285
     0
286
     0
287
     3
288
     0
  0
ENDTAB
  0
TABLE
  2
BLOCK_RECORD
  5
1
330
0
100
AcDbSymbolTable
 70
     1
  0
BLOCK_RECORD
  5
1F
330
1
100
AcDbSymbolTableRecord
100
AcDbBlockTableRecord
  2
*MODEL_SPACE
  0
BLOCK_RECORD
  5
1B
330
1
100
AcDbSymbolTableRecord
100
AcDbBlockTableRecord
  2
*PAPER_SPACE
  0
ENDTAB
  0
ENDSEC
  0
SECTION
  2
BLOCKS
  0
BLOCK
  5
20
330
1F
100
AcDbEntity
  8
0
100
AcDbBlockBegin
  2
*MODEL_SPACE
 70
     0
 10
0.0
 20
0.0
 30
0.0
  3
*MODEL_SPACE
  1

  0
ENDBLK
  5
21
330
1F
100
AcDbEntity
  8
0
100
AcDbBlockEnd
  0
BLOCK
  5
1C
330
1B
100
AcDbEntity
 67
     1
  8
0
100
AcDbBlockBegin
  2
*PAPER_SPACE
  1

  0
ENDBLK
  5
1D
330
1B
100
AcDbEntity
 67
     1
  8
0
100
AcDbBlockEnd
  0
ENDSEC
  0
SECTION
  2
ENTITIES
  0
LWPOLYLINE
  5
100
100
AcDbEntity
  8
Layer_1
 62
7
100
AcDbPolyline
 90
4
 70
1
 10
132.066500
 20
245.066480
 30
0.0
 10
140.066500
 20
245.066480
 30
0.0
 10
140.066500
 20
253.066480
 30
0.0
 10
132.066500
 20
253.066480
 30
0.0
  0
LWPOLYLINE
  5
101
100
AcDbEntity
  8
Layer_1
 62
7
100
AcDbPolyline
 90
4
 70
1
 10
0.066500
 20
0.066500
 30
0.0
 10
8.066500
 20
0.066500
 30
0.0
 10
8.066500
 20
8.066500
 30
0.0
 10
0.066500
 20
8.066500
 30
0.0
  0
LWPOLYLINE
  5
102
100
AcDbEntity
  8
Layer_1
 62
7
100
AcDbPolyline
 90
4
 70
1
 10
0.066500
 20
245.066480
 30
0.0
 10
8.066500
 20
245.066480
 30
0.0
 10
8.066500
 20
253.066480
 30
0.0
 10
0.066500
 20
253.066480
 30
0.0
  0
LWPOLYLINE
  5
103
100
AcDbEntity
  8
Layer_1
 62
7
100
AcDbPolyline
 90
4
 70
1
 10
132.066500
 20
0.066500
 30
0.0
 10
140.066500
 20
0.066500
 30
0.0
 10
140.066500
 20
8.066500
 30
0.0
 10
132.066500
 20
8.066500
 30
0.0
  0
LWPOLYLINE
  5
104
100
AcDbEntity
  8
Layer_1
 62
7
100
AcDbPolyline
 90
12
 70
1
 10
8.066480
 20
0.066490
 30
0.0
 10
0.066480
 20
0.066460
 30
0.0
 10
0.066480
 20
8.066490
 30
0.0
 10
0.066480
 20
245.066490
 30
0.0
 10
0.066480
 20
253.066460
 30
0.0
 10
8.066480
 20
253.066490
 30
0.0
 10
132.066480
 20
253.066490
 30
0.0
 10
140.066480
 20
253.066430
 30
0.0
 10
140.066480
 20
245.066490
 30
0.0
 10
140.066480
 20
8.066490
 30
0.0
 10
140.066480
 20
0.066430
 30
0.0
 10
132.066480
 20
0.066490
 30
0.0
  0
LWPOLYLINE
  5
105
100
AcDbEntity
  8
Layer_1
 62
7
100
AcDbPolyline
 90
4
 70
1
 10
272.066500
 20
245.066500
 30
0.0
 10
280.066498
 20
245.066500
 30
0.0
 10
280.066498
 20
253.066500
 30
0.0
 10
272.066500
 20
253.066500
 30
0.0
  0
LWPOLYLINE
  5
106
100
AcDbEntity
  8
Layer_1
 62
7
100
AcDbPolyline
 90
4
 70
1
 10
140.066500
 20
0.066500
 30
0.0
 10
148.066500
 20
0.066500
 30
0.0
 10
148.066500
 20
8.066500
 30
0.0
 10
140.066500
 20
8.066500
 30
0.0
  0
LWPOLYLINE
  5
107
100
AcDbEntity
  8
Layer_1
 62
7
100
AcDbPolyline
 90
4
 70
1
 10
140.066500
 20
245.066500
 30
0.0
 10
148.066500
 20
245.066500
 30
0.0
 10
148.066500
 20
253.066500
 30
0.0
 10
140.066500
 20
253.066500
 30
0.0
  0
LWPOLYLINE
  5
108
100
AcDbEntity
  8
Layer_1
 62
7
100
AcDbPolyline
 90
4
 70
1
 10
272.066500
 20
0.066500
 30
0.0
 10
280.066498
 20
0.066500
 30
0.0
 10
280.066498
 20
8.066500
 30
0.0
 10
272.066500
 20
8.066500
 30
0.0
  0
LWPOLYLINE
  5
109
100
AcDbEntity
  8
Layer_1
 62
7
100
AcDbPolyline
 90
12
 70
1
 10
148.066480
 20
0.066490
 30
0.0
 10
140.066480
 20
0.066460
 30
0.0
 10
140.066480
 20
8.066490
 30
0.0
 10
140.066480
 20
245.066490
 30
0.0
 10
140.066480
 20
253.066460
 30
0.0
 10
148.066480
 20
253.066490
 30
0.0
 10
272.066480
 20
253.066490
 30
0.0
 10
280.066478
 20
253.066430
 30
0.0
 10
280.066478
 20
245.066490
 30
0.0
 10
280.066478
 20
8.066490
 30
0.0
 10
280.066478
 20
0.066430
 30
0.0
 10
272.066480
 20
0.066490
 30
0.0
  0
LWPOLYLINE
  5
10a
100
AcDbEntity
  8
Layer_1
 62
7
100
AcDbPolyline
 90
4
 70
1
 10
412.066482
 20
245.066500
 30
0.0
 10
420.066482
 20
245.066500
 30
0.0
 10
420.066482
 20
253.066500
 30
0.0
 10
412.066482
 20
253.066500
 30
0.0
  0
LWPOLYLINE
  5
10b
100
AcDbEntity
  8
Layer_1
 62
7
100
AcDbPolyline
 90
4
 70
1
 10
280.066482
 20
0.066500
 30
0.0
 10
288.066482
 20
0.066500
 30
0.0
 10
288.066482
 20
8.066500
 30
0.0
 10
280.066482
 20
8.066500
 30
0.0
  0
LWPOLYLINE
  5
10c
100
AcDbEntity
  8
Layer_1
 62
7
100
AcDbPolyline
 90
4
 70
1
 10
280.066482
 20
245.066500
 30
0.0
 10
288.066482
 20
245.066500
 30
0.0
 10
288.066482
 20
253.066500
 30
0.0
 10
280.066482
 20
253.066500
 30
0.0
  0
LWPOLYLINE
  5
10d
100
AcDbEntity
  8
Layer_1
 62
7
100
AcDbPolyline
 90
4
 70
1
 10
412.066482
 20
0.066500
 30
0.0
 10
420.066482
 20
0.066500
 30
0.0
 10
420.066482
 20
8.066500
 30
0.0
 10
412.066482
 20
8.066500
 30
0.0
  0
LWPOLYLINE
  5
10e
100
AcDbEntity
  8
Layer_1
 62
7
100
AcDbPolyline
 90
12
 70
1
 10
288.066478
 20
0.066490
 30
0.0
 10
280.066478
 20
0.066460
 30
0.0
 10
280.066478
 20
8.066490
 30
0.0
 10
280.066478
 20
245.066490
 30
0.0
 10
280.066478
 20
253.066460
 30
0.0
 10
288.066478
 20
253.066490
 30
0.0
 10
412.066480
 20
253.066490
 30
0.0
 10
420.066480
 20
253.066430
 30
0.0
 10
420.066480
 20
245.066490
 30
0.0
 10
420.066480
 20
8.066490
 30
0.0
 10
420.066470
 20
0.066430
 30
0.0
 10
412.066480
 20
0.066490
 30
0.0
  0
LWPOLYLINE
  5
10f
100
AcDbEntity
  8
Layer_1
 62
7
100
AcDbPolyline
 90
4
 70
1
 10
552.066480
 20
8.066500
 30
0.0
 10
560.066480
 20
8.066500
 30
0.0
 10
560.066480
 20
0.066500
 30
0.0
 10
552.066480
 20
0.066500
 30
0.0
  0
LWPOLYLINE
  5
110
100
AcDbEntity
  8
Layer_1
 62
7
100
AcDbPolyline
 90
4
 70
1
 10
420.066479
 20
253.066510
 30
0.0
 10
428.066479
 20
253.066510
 30
0.0
 10
428.066479
 20
245.066510
 30
0.0
 10
420.066479
 20
245.066510
 30
0.0
  0
LWPOLYLINE
  5
111
100
AcDbEntity
  8
Layer_1
 62
7
100
AcDbPolyline
 90
4
 70
1
 10
420.066479
 20
8.066500
 30
0.0
 10
428.066479
 20
8.066500
 30
0.0
 10
428.066479
 20
0.066500
 30
0.0
 10
420.066479
 20
0.066500
 30
0.0
  0
LWPOLYLINE
  5
112
100
AcDbEntity
  8
Layer_1
 62
7
100
AcDbPolyline
 90
4
 70
1
 10
552.066480
 20
253.066510
 30
0.0
 10
560.066480
 20
253.066510
 30
0.0
 10
560.066480
 20
245.066510
 30
0.0
 10
552.066480
 20
245.066510
 30
0.0
  0
SPLINE
  5
113
100
AcDbEntity
  8
Layer_1
 62
7
100
AcDbSpline
 70
0
 71
3
 72
25
 73
21
 74
19
 40
0.000000
 40
0.000000
 40
0.000000
 40
0.000000
 40
4.278025
 40
8.429166
 40
12.707191
 40
16.985215
 40
21.136355
 40
25.414379
 40
27.556219
 40
29.680333
 40
31.822172
 40
33.964012
 40
36.088126
 40
38.229965
 40
40.371805
 40
42.495920
 40
44.637760
 40
46.779600
 40
48.903715
 40
51.045555
 40
51.045555
 40
51.045555
 40
51.045555
 10
477.315849
 20
126.566535
 30
0.0
 10
477.090965
 20
125.124181
 30
0.0
 10
476.647868
 20
122.282251
 30
0.0
 10
473.390509
 20
119.153621
 30
0.0
 10
469.141282
 20
117.993997
 30
0.0
 10
464.847958
 20
119.154555
 30
0.0
 10
461.720276
 20
122.278603
 30
0.0
 10
460.759874
 20
125.857482
 30
0.0
 10
461.140733
 20
128.707644
 30
0.0
 10
461.966623
 20
130.704547
 30
0.0
 10
463.281524
 20
132.418846
 30
0.0
 10
464.996087
 20
133.733629
 30
0.0
 10
466.991820
 20
134.560255
 30
0.0
 10
469.133823
 20
134.843050
 30
0.0
 10
471.276040
 20
134.560260
 30
0.0
 10
473.271134
 20
133.733612
 30
0.0
 10
474.988057
 20
132.418915
 30
0.0
 10
476.294174
 20
130.704294
 30
0.0
 10
477.152671
 20
128.708587
 30
0.0
 10
477.261306
 20
127.282527
 30
0.0
 10
477.315849
 20
126.566535
 30
0.0
 11
477.315849
 21
126.566535
 31
0.0
 11
476.198765
 21
122.436932
 31
0.0
 11
473.263463
 21
119.501634
 31
0.0
 11
469.133859
 21
118.384555
 31
0.0
 11
465.004255
 21
119.501635
 31
0.0
 11
462.068955
 21
122.436933
 31
0.0
 11
460.951872
 21
126.566535
 31
0.0
 11
461.232190
 21
128.689951
 31
0.0
 11
462.045053
 21
130.652378
 31
0.0
 11
463.348319
 21
132.352076
 31
0.0
 11
465.048016
 21
133.655342
 31
0.0
 11
467.010442
 21
134.468206
 31
0.0
 11
469.133859
 21
134.748525
 31
0.0
 11
471.257275
 21
134.468207
 31
0.0
 11
473.219702
 21
133.655343
 31
0.0
 11
474.919400
 21
132.352077
 31
0.0
 11
476.222667
 21
130.652379
 31
0.0
 11
477.035530
 21
128.689952
 31
0.0
 11
477.315849
 21
126.566535
 31
0.0
  0
LWPOLYLINE
  5
114
100
AcDbEntity
  8
Layer_1
 62
7
100
AcDbPolyline
 90
1
 70
1
 10
477.315849
 20
126.566535
 30
0.0
  0
LWPOLYLINE
  5
115
100
AcDbEntity
  8
Layer_1
 62
7
100
AcDbPolyline
 90
1
 70
1
 10
519.181089
 20
126.566535
 30
0.0
  0
LWPOLYLINE
  5
116
100
AcDbEntity
  8
Layer_1
 62
7
100
AcDbPolyline
 90
4
 70
1
 10
440.128645
 20
144.190840
 30
0.0
 10
440.128645
 20
253.066510
 30
0.0
 10
540.004310
 20
253.066510
 30
0.0
 10
540.004310
 20
144.190840
 30
0.0
  0
LWPOLYLINE
  5
117
100
AcDbEntity
  8
Layer_1
 62
7
100
AcDbPolyline
 90
4
 70
1
 10
440.128645
 20
0.066510
 30
0.0
 10
440.128645
 20
108.942180
 30
0.0
 10
540.004310
 20
108.942180
 30
0.0
 10
540.004310
 20
0.066510
 30
0.0
  0
SPLINE
  5
118
100
AcDbEntity
  8
Layer_1
 62
7
100
AcDbSpline
 70
0
 71
3
 72
22
 73
18
 74
16
 40
0.000000
 40
0.000000
 40
0.000000
 40
0.000000
 40
1.944558
 40
3.831440
 40
5.775998
 40
7.720552
 40
9.607431
 40
11.551986
 40
13.496543
 40
15.383426
 40
17.327983
 40
18.301548
 40
19.267056
 40
20.240621
 40
21.214185
 40
22.179693
 40
23.153258
 40
23.153258
 40
23.153258
 40
23.153258
 10
519.181089
 20
126.566535
 30
0.0
 10
519.078869
 20
125.910922
 30
0.0
 10
518.877463
 20
124.619141
 30
0.0
 10
517.396830
 20
123.196997
 30
0.0
 10
515.465414
 20
122.670052
 30
0.0
 10
513.513716
 20
123.197004
 30
0.0
 10
512.092738
 20
124.619134
 30
0.0
 10
511.565327
 20
126.566575
 30
0.0
 10
512.092931
 20
128.513789
 30
0.0
 10
513.512944
 20
129.936596
 30
0.0
 10
515.139669
 20
130.372865
 30
0.0
 10
516.435289
 20
130.199785
 30
0.0
 10
517.342697
 20
129.824373
 30
0.0
 10
518.122970
 20
129.226692
 30
0.0
 10
518.716700
 20
128.447342
 30
0.0
 10
519.106916
 20
127.540195
 30
0.0
 10
519.156296
 20
126.891986
 30
0.0
 10
519.181089
 20
126.566535
 30
0.0
 11
519.181089
 21
126.566535
 31
0.0
 11
518.673322
 21
124.689443
 31
0.0
 11
517.339093
 21
123.355217
 31
0.0
 11
515.461999
 21
122.847455
 31
0.0
 11
513.584909
 21
123.355220
 31
0.0
 11
512.250683
 21
124.689445
 31
0.0
 11
511.742919
 21
126.566535
 31
0.0
 11
512.250680
 21
128.443629
 31
0.0
 11
513.584906
 21
129.777858
 31
0.0
 11
515.461999
 21
130.285625
 31
0.0
 11
516.427189
 21
130.158208
 31
0.0
 11
517.319203
 21
129.788725
 31
0.0
 11
518.091794
 21
129.196330
 31
0.0
 11
518.684188
 21
128.423739
 31
0.0
 11
519.053672
 21
127.531726
 31
0.0
 11
519.181089
 21
126.566535
 31
0.0
  0
LWPOLYLINE
  5
119
100
AcDbEntity
  8
Layer_1
 62
7
100
AcDbPolyline
 90
12
 70
1
 10
428.066480
 20
253.066510
 30
0.0
 10
420.066480
 20
253.066540
 30
0.0
 10
420.066480
 20
245.066510
 30
0.0
 10
420.066480
 20
8.066510
 30
0.0
 10
420.066480
 20
0.066540
 30
0.0
 10
428.066480
 20
0.066510
 30
0.0
 10
552.066480
 20
0.066510
 30
0.0
 10
560.066480
 20
0.066570
 30
0.0
 10
560.066480
 20
8.066510
 30
0.0
 10
560.066480
 20
245.066510
 30
0.0
 10
560.066470
 20
253.066570
 30
0.0
 10
552.066480
 20
253.066510
 30
0.0
  0
ENDSEC
  0
SECTION
  2
OBJECTS
  0
DICTIONARY
  5
C
330
0
100
AcDbDictionary
  3
ACAD_GROUP
350
D
  3
ACAD_MLINESTYLE
350
17
  0
DICTIONARY
  5
D
330
C
100
AcDbDictionary
  0
DICTIONARY
  5
1A
330
C
100
AcDbDictionary
  0
DICTIONARY
  5
17
330
C
100
AcDbDictionary
  3
STANDARD
350
18
  0
DICTIONARY
  5
19
330
C
100
AcDbDictionary
  0
ENDSEC
  0
EOF
