0
SECTION
2
HEADER
9
$INSUNITS
70
4
9
$ACADVER
1
AC1014
9
$HANDSEED
5
FFFF
0
ENDSEC
0
SECTION
2
TABLES
0
TABLE
2
VPORT
5
8
100
AcDbSymbolTable
0
ENDTAB
0
TABLE
2
LTYPE
5
5
100
AcDbSymbolTable
0
LTYPE
5
14
100
AcDbSymbolTableRecord
100
AcDbLinetypeTableRecord
2
BYBLOCK
70
0
0
LTYPE
5
15
100
AcDbSymbolTableRecord
100
AcDbLinetypeTableRecord
2
BYLAYER
70
0
0
ENDTAB
0
TABLE
2
LAYER
5
2
100
AcDbSymbolTable
70
2
0
LAYER
5
50
100
AcDbSymbolTableRecord
100
AcDbLayerTableRecord
2
0
70
0
6
CONTINUOUS
0
ENDTAB
0
TABLE
2
STYLE
5
3
100
AcDbSymbolTable
70
1
0
STYLE
5
11
100
AcDbSymbolTableRecord
100
AcDbTextStyleTableRecord
2
STANDARD
70
0
0
ENDTAB
0
TABLE
2
VIEW
5
6
100
AcDbSymbolTable
70
0
0
ENDTAB
0
TABLE
2
UCS
5
7
100
AcDbSymbolTable
70
0
0
ENDTAB
0
TABLE
2
APPID
5
9
100
AcDbSymbolTable
70
2
0
APPID
5
12
100
AcDbSymbolTableRecord
100
AcDbRegAppTableRecord
2
ACAD
70
0
0
ENDTAB
0
TABLE
2
DIMSTYLE
5
A
100
AcDbSymbolTable
70
1
0
ENDTAB
0
TABLE
2
BLOCK_RECORD
5
1
100
AcDbSymbolTable
70
1
0
BLOCK_RECORD
5
1F
100
AcDbSymbolTableRecord
100
AcDbBlockTableRecord
2
*MODEL_SPACE
0
BLOCK_RECORD
5
1B
100
AcDbSymbolTableRecord
100
AcDbBlockTableRecord
2
*PAPER_SPACE
0
ENDTAB
0
ENDSEC
0
SECTION
2
BLOCKS
0
BLOCK
5
20
100
AcDbEntity
100
AcDbBlockBegin
2
*MODEL_SPACE
0
ENDBLK
5
21
100
AcDbEntity
100
AcDbBlockEnd
0
BLOCK
5
1C
100
AcDbEntity
100
AcDbBlockBegin
2
*PAPER_SPACE
0
ENDBLK
5
1D
100
AcDbEntity
100
AcDbBlockEnd
0
ENDSEC
0
SECTION
2
ENTITIES
0
LWPOLYLINE
5
100
100
AcDbEntity
8
0
100
AcDbPolyline
90
8
70
1
43
0.0
10
9.1914124914644901
20
-16.258733177500563
42
-0.26309525411909251
10
-9.1914124914644937
20
-16.258733177500552
10
-47.800000000000004
20
5.5675339510375803
10
-47.800000000000004
20
19.007408701890199
10
-25.977344693697901
20
31.800000000000001
10
25.977344693697901
20
31.800000000000001
10
47.800000000000004
20
19.007408701890203
10
47.800000000000004
20
5.5675339510375803
0
CIRCLE
5
101
100
AcDbEntity
8
0
100
AcDbCircle
10
0
20
0
30
0
40
7.3795913244305398
210
0
220
0
230
1
0
CIRCLE
5
102
100
AcDbEntity
8
0
100
AcDbCircle
10
18.414999999999999
20
8.8817841970012507e-15
30
0
40
2.4384000000000001
210
0
220
0
230
1
0
CIRCLE
5
103
100
AcDbEntity
8
0
100
AcDbCircle
10
-18.414999999999999
20
4.5774036134456607e-15
30
0
40
2.4384000000000001
210
0
220
0
230
1
0
CIRCLE
5
104
100
AcDbEntity
8
0
100
AcDbCircle
10
31.750000000000004
20
6.3499999999999899
30
0
40
2.4384000000000001
210
0
220
0
230
1
0
CIRCLE
5
105
100
AcDbEntity
8
0
100
AcDbCircle
10
-31.750000000000004
20
6.3499999999999899
30
0
40
2.4384000000000001
210
0
220
0
230
1
0
LINE
5
106
100
AcDbEntity
8
0
100
AcDbLine
10
48.799999999999997
20
1.5187672570494701
30
0
11
47.390554608883299
21
1.5187672570494801
31
0
0
LINE
5
107
100
AcDbEntity
8
0
100
AcDbLine
10
47.390554608883299
20
1.5187672570494801
30
0
11
10.826772744452899
21
-19.151527143806899
31
0
0
ARC
5
108
100
AcDbEntity
8
0
100
AcDbCircle
10
0
20
1.45935191862781e-14
30
0
40
22
210
0
220
0
230
1
100
AcDbArc
50
240.5195841955518
51
299.48041564903485
0
LINE
5
109
100
AcDbEntity
8
0
100
AcDbLine
10
-10.826772796400924
20
-19.151527114439531
30
0
11
-47.390554608883299
21
1.5187672570494781
31
0
0
LINE
5
110
100
AcDbEntity
8
0
100
AcDbLine
10
-47.390554608883299
20
1.5187672570494781
30
0
11
-48.799999999999997
21
1.5187672570494701
31
0
0
LINE
5
111
100
AcDbEntity
8
0
100
AcDbLine
10
-48.799999999999997
20
1.5187672570494701
30
0
11
-48.799999999999997
21
-34.811793783388801
31
0
0
LINE
5
112
100
AcDbEntity
8
0
100
AcDbLine
10
-48.799999999999997
20
-34.811793783388801
30
0
11
-32.593510776532582
21
-57.648752489694097
31
0
0
LINE
5
113
100
AcDbEntity
8
0
100
AcDbLine
10
-32.593510776532582
20
-57.648752489694097
30
0
11
32.593510776532597
21
-57.648752489694104
31
0
0
LINE
5
114
100
AcDbEntity
8
0
100
AcDbLine
10
32.593510776532597
20
-57.648752489694104
30
0
11
48.799999999999997
21
-34.811793783388801
31
0
0
LINE
5
115
100
AcDbEntity
8
0
100
AcDbLine
10
48.799999999999997
20
-34.811793783388801
30
0
11
48.799999999999997
21
1.5187672570494701
31
0
0
LINE
5
116
100
AcDbEntity
8
0
100
AcDbLine
10
48.799999999999997
20
-48.646561263152108
30
0
11
48.799999999999997
21
-37.308595890443101
31
0
0
LINE
5
117
100
AcDbEntity
8
0
100
AcDbLine
10
48.799999999999997
20
-37.308595890443101
30
0
11
-48.799999999999997
21
-37.308595890443101
31
0
0
LINE
5
118
100
AcDbEntity
8
0
100
AcDbLine
10
-48.799999999999997
20
-37.308595890443101
30
0
11
-48.799999999999997
21
-48.646561263152002
31
0
0
LINE
5
119
100
AcDbEntity
8
0
100
AcDbLine
10
-48.799999999999997
20
-48.646561263152002
30
0
11
-23.958429200107702
21
-83.651423743511401
31
0
0
LINE
5
120
100
AcDbEntity
8
0
100
AcDbLine
10
-23.958429200107702
20
-83.651423743511401
30
0
11
23.958429200107702
21
-83.651423743511401
31
0
0
LINE
5
121
100
AcDbEntity
8
0
100
AcDbLine
10
23.958429200107702
20
-83.651423743511401
30
0
11
48.799999999999997
21
-48.646561263152108
31
0
0
ARC
5
122
100
AcDbEntity
8
0
100
AcDbCircle
10
1.1102230246251565e-15
20
1.1102230246251565e-14
30
0
40
18.676950182655819
210
0
220
0
230
1
100
AcDbArc
50
240.51958761464812
51
299.48041238535188
0
LINE
5
123
100
AcDbEntity
8
0
100
AcDbLine
10
9.1914124914644919
20
-16.258733177500556
30
0
11
47.800000000000004
21
5.5675339510375803
31
0
0
LINE
5
124
100
AcDbEntity
8
0
100
AcDbLine
10
47.800000000000004
20
5.5675339510375803
30
0
11
47.800000000000004
21
19.007408701890203
31
0
0
LINE
5
125
100
AcDbEntity
8
0
100
AcDbLine
10
47.800000000000004
20
19.007408701890203
30
0
11
25.977344693697901
21
31.800000000000001
31
0
0
LINE
5
126
100
AcDbEntity
8
0
100
AcDbLine
10
25.977344693697901
20
31.800000000000001
30
0
11
-25.977344693697901
21
31.800000000000001
31
0
0
LINE
5
127
100
AcDbEntity
8
0
100
AcDbLine
10
-25.977344693697901
20
31.800000000000001
30
0
11
-47.800000000000004
21
19.007408701890199
31
0
0
LINE
5
128
100
AcDbEntity
8
0
100
AcDbLine
10
-47.800000000000004
20
19.007408701890199
30
0
11
-47.800000000000004
21
5.5675339510375803
31
0
0
LINE
5
129
100
AcDbEntity
8
0
100
AcDbLine
10
-47.800000000000004
20
5.5675339510375803
30
0
11
-9.1914124914644866
21
-16.258733177500559
31
0
0
CIRCLE
5
130
100
AcDbEntity
8
0
100
AcDbCircle
10
0
20
0
30
0
40
7.3795913244305389
210
0
220
-0
230
1
0
CIRCLE
5
131
100
AcDbEntity
8
0
100
AcDbCircle
10
18.414999999999999
20
8.8817841970012507e-15
30
0
40
2.4384000000000001
210
0
220
-0
230
1
0
CIRCLE
5
132
100
AcDbEntity
8
0
100
AcDbCircle
10
-18.414999999999999
20
4.5774036134456607e-15
30
0
40
2.4384000000000001
210
0
220
-0
230
1
0
CIRCLE
5
133
100
AcDbEntity
8
0
100
AcDbCircle
10
31.750000000000004
20
6.3499999999999899
30
0
40
2.4384000000000001
210
0
220
-0
230
1
0
CIRCLE
5
134
100
AcDbEntity
8
0
100
AcDbCircle
10
-31.750000000000004
20
6.3499999999999899
30
0
40
2.4384000000000001
210
0
220
-0
230
1
0
LINE
5
135
100
AcDbEntity
8
0
100
AcDbLine
10
-50.799999999999997
20
19.007408701890192
30
0
11
-47.800000000000004
21
19.007408701890199
31
0
0
LINE
5
136
100
AcDbEntity
8
0
100
AcDbLine
10
-50.799999999999997
20
19.007408701890192
30
0
11
-50.799999999999997
21
5.5675339510375892
31
0
0
LINE
5
137
100
AcDbEntity
8
0
100
AcDbLine
10
-47.800000000000004
20
5.5675339510375803
30
0
11
-50.799999999999997
21
5.5675339510375892
31
0
0
LINE
5
138
100
AcDbEntity
8
0
100
AcDbLine
10
-47.800000000000004
20
5.5675339510375803
30
0
11
-47.800000000000004
21
19.007408701890199
31
0
0
LINE
5
139
100
AcDbEntity
8
0
100
AcDbLine
10
50.799999999999997
20
19.007408701890192
30
0
11
47.800000000000004
21
19.007408701890203
31
0
0
LINE
5
140
100
AcDbEntity
8
0
100
AcDbLine
10
47.800000000000004
20
19.007408701890203
30
0
11
47.800000000000004
21
5.5675339510375803
31
0
0
LINE
5
141
100
AcDbEntity
8
0
100
AcDbLine
10
47.800000000000004
20
5.5675339510375803
30
0
11
50.799999999999997
21
5.5675339510375901
31
0
0
LINE
5
142
100
AcDbEntity
8
0
100
AcDbLine
10
50.799999999999997
20
5.5675339510375901
30
0
11
50.799999999999997
21
19.007408701890192
31
0
0
LINE
5
143
100
AcDbEntity
8
0
100
AcDbLine
10
50.799999999999997
20
1.5187672570494701
30
0
11
48.799999999999997
21
1.5187672570494701
31
0
0
LINE
5
144
100
AcDbEntity
8
0
100
AcDbLine
10
48.799999999999997
20
1.5187672570494701
30
0
11
48.799999999999997
21
-34.811793783388801
31
0
0
LINE
5
145
100
AcDbEntity
8
0
100
AcDbLine
10
50.799999999999997
20
-34.811793783388794
30
0
11
48.799999999999997
21
-34.811793783388801
31
0
0
LINE
5
146
100
AcDbEntity
8
0
100
AcDbLine
10
50.799999999999997
20
-34.811793783388794
30
0
11
50.799999999999997
21
1.5187672570494701
31
0
0
ELLIPSE
5
147
100
AcDbEntity
8
0
100
AcDbEllipse
10
48.799999999999997
20
-48.505816110200797
30
0
11
2.0000000000000102
21
1.7987340102205087e-14
31
0.0
40
0.07037257647563222
41
4.7123889803846932
42
6.2831853071795862
0
LINE
5
148
100
AcDbEntity
8
0
100
AcDbLine
10
50.800000000000011
20
-48.505816110200783
30
0
11
50.799999999999997
21
-37.167850737491797
31
0
0
ELLIPSE
5
149
100
AcDbEntity
8
0
100
AcDbEllipse
10
48.799999999999997
20
-37.167850737491797
30
0
11
1.9999999999999996
21
0
31
0.0
40
0.070372576475632526
41
4.7123889803846897
42
6.2831853071795862
0
LINE
5
150
100
AcDbEntity
8
0
100
AcDbLine
10
48.799999999999997
20
-37.308595890443101
30
0
11
48.799999999999997
21
-48.646561263152108
31
0
0
ELLIPSE
5
151
100
AcDbEntity
8
0
100
AcDbEllipse
10
48.799999999999997
20
-48.505816110200797
30
0
11
1.6310272569330722
21
-1.1574757393316621
31
0.0
40
0.057437451020046444
41
4.7531275229187857
42
6.2831853071795436
0
LINE
5
152
100
AcDbEntity
8
0
100
AcDbLine
10
48.799999999999997
20
-48.646561263152108
30
0
11
23.958429200107702
21
-83.651423743511401
31
0
0
ELLIPSE
5
153
100
AcDbEntity
8
0
100
AcDbEllipse
10
23.958429200107702
20
-83.510678590560104
30
0
11
1.631027256933071
21
-1.1574757393316639
31
0.0
40
0.057437451020047069
41
4.7531275229187901
42
6.2831853071803252
0
LINE
5
154
100
AcDbEntity
8
0
100
AcDbLine
10
25.589456457040818
20
-84.668154329891706
30
0
11
50.431027256933078
21
-49.663291849532463
31
0
0
LINE
5
155
100
AcDbEntity
8
0
100
AcDbLine
10
23.958429200107702
20
-85.510678590560104
30
0
11
-23.958429200107702
21
-85.510678590560104
31
0
0
LINE
5
156
100
AcDbEntity
8
0
100
AcDbLine
10
23.958429200107702
20
-83.651423743511401
30
0
11
-23.958429200107702
21
-83.651423743511401
31
0
0
LINE
5
157
100
AcDbEntity
8
0
100
AcDbLine
10
-23.958429200107702
20
-85.510678590560104
30
0
11
-23.958429200107702
21
-83.651423743511401
31
0
0
LINE
5
158
100
AcDbEntity
8
0
100
AcDbLine
10
-23.958429200107702
20
-85.510678590560104
30
0
11
23.958429200107702
21
-85.510678590560104
31
0
0
LINE
5
159
100
AcDbEntity
8
0
100
AcDbLine
10
23.958429200107702
20
-85.510678590560104
30
0
11
23.958429200107702
21
-83.651423743511401
31
0
0
ELLIPSE
5
160
100
AcDbEntity
8
0
100
AcDbEllipse
10
-48.799999999999997
20
-48.505816110200797
30
0
11
-1.6310272569330728
21
-1.1574757393316621
31
0.0
40
0.057437451020046493
41
6.8212102632969618e-13
42
1.5300577842607992
0
LINE
5
161
100
AcDbEntity
8
0
100
AcDbLine
10
-50.431027256933028
20
-49.663291849532527
30
0
11
-25.589456457040704
21
-84.668154329891806
31
0
0
ELLIPSE
5
162
100
AcDbEntity
8
0
100
AcDbEllipse
10
-23.958429200107702
20
-83.510678590560104
30
0
11
-1.631027256933071
21
-1.1574757393316639
31
0.0
40
0.057437451020047069
41
6.8212102632971072e-13
42
1.5300577842607963
0
LINE
5
163
100
AcDbEntity
8
0
100
AcDbLine
10
-23.958429200107702
20
-83.651423743511401
30
0
11
-48.799999999999997
21
-48.646561263152002
31
0
0
ARC
5
164
100
AcDbEntity
8
0
100
AcDbCircle
10
-23.958429200107666
20
-83.510678590560047
30
0
40
2.0000000000000235
210
0
220
0
230
1
100
AcDbArc
50
215.36181999455493
51
269.99999999999898
0
LINE
5
165
100
AcDbEntity
8
0
100
AcDbLine
10
-23.958429200107702
20
-85.510678590560104
30
0
11
-23.958429200107702
21
-83.651423743511401
31
0
0
ELLIPSE
5
166
100
AcDbEntity
8
0
100
AcDbEllipse
10
-23.958429200107702
20
-83.510678590560104
30
0
11
-1.631027256933071
21
-1.1574757393316639
31
0.0
40
0.057437451020047069
41
6.8212102632971072e-13
42
1.5300577842607963
0
ARC
5
167
100
AcDbEntity
8
0
100
AcDbCircle
10
23.958429200107702
20
-83.510678590560104
30
0
40
1.9999999999999929
210
-0
220
0
230
1
100
AcDbArc
50
270
51
324.63818000545001
0
ELLIPSE
5
168
100
AcDbEntity
8
0
100
AcDbEllipse
10
23.958429200107702
20
-83.510678590560104
30
0
11
1.631027256933071
21
-1.1574757393316639
31
0.0
40
0.057437451020047069
41
4.7531275229187901
42
6.2831853071803252
0
LINE
5
169
100
AcDbEntity
8
0
100
AcDbLine
10
23.958429200107702
20
-85.510678590560104
30
0
11
23.958429200107702
21
-83.651423743511401
31
0
0
ELLIPSE
5
170
100
AcDbEntity
8
0
100
AcDbEllipse
10
-48.799999999999997
20
-37.167850737491797
30
0
11
-1.9999999999999996
21
0
31
0.0
40
0.070372576475632512
41
6.2831853071795294
42
7.8539816339744863
0
LINE
5
171
100
AcDbEntity
8
0
100
AcDbLine
10
-50.799999999999997
20
-37.167850737491797
30
0
11
-50.799999999999997
21
-48.505816110200797
31
0
0
ELLIPSE
5
172
100
AcDbEntity
8
0
100
AcDbEllipse
10
-48.799999999999997
20
-48.505816110200797
30
0
11
-1.9999999999999996
21
1.3878543595325583e-31
31
0.0
40
0.070372576475632512
41
6.2831853071795294
42
7.8539816339744863
0
LINE
5
173
100
AcDbEntity
8
0
100
AcDbLine
10
-48.799999999999997
20
-48.646561263152002
30
0
11
-48.799999999999997
21
-37.308595890443101
31
0
0
LINE
5
174
100
AcDbEntity
8
0
100
AcDbLine
10
-50.431027256933078
20
-35.969269522720467
30
0
11
-48.799999999999997
21
-34.811793783388801
31
0
0
LINE
5
175
100
AcDbEntity
8
0
100
AcDbLine
10
-50.431027256933078
20
-35.969269522720467
30
0
11
-34.224538033465684
21
-58.806228229025791
31
0
0
LINE
5
176
100
AcDbEntity
8
0
100
AcDbLine
10
-34.224538033465684
20
-58.806228229025791
30
0
11
-32.593510776532582
21
-57.648752489694097
31
0
0
LINE
5
177
100
AcDbEntity
8
0
100
AcDbLine
10
-32.593510776532582
20
-57.648752489694097
30
0
11
-48.799999999999997
21
-34.811793783388801
31
0
0
LINE
5
178
100
AcDbEntity
8
0
100
AcDbLine
10
-48.799999999999997
20
1.5187672570494701
30
0
11
-50.799999999999997
21
1.5187672570494701
31
0
0
LINE
5
179
100
AcDbEntity
8
0
100
AcDbLine
10
-50.799999999999997
20
1.5187672570494701
30
0
11
-50.799999999999997
21
-34.811793783388801
31
0
0
LINE
5
180
100
AcDbEntity
8
0
100
AcDbLine
10
-50.799999999999997
20
-34.811793783388801
30
0
11
-48.799999999999997
21
-34.811793783388801
31
0
0
LINE
5
181
100
AcDbEntity
8
0
100
AcDbLine
10
-48.799999999999997
20
-34.811793783388801
30
0
11
-48.799999999999997
21
1.5187672570494701
31
0
0
LINE
5
182
100
AcDbEntity
8
0
100
AcDbLine
10
-49.23017701126674
20
3.037687048358066
30
0
11
-47.800000000000004
21
5.5675339510375803
31
0
0
LINE
5
183
100
AcDbEntity
8
0
100
AcDbLine
10
-49.23017701126674
20
3.037687048358066
30
0
11
-10.621589502731199
21
-18.7885800801801
31
0
0
LINE
5
184
100
AcDbEntity
8
0
100
AcDbLine
10
-10.621589502731199
20
-18.7885800801801
30
0
11
-9.1914124914644866
21
-16.258733177500559
31
0
0
LINE
5
185
100
AcDbEntity
8
0
100
AcDbLine
10
-9.1914124914644866
20
-16.258733177500559
30
0
11
-47.800000000000004
21
5.5675339510375803
31
0
0
LINE
5
186
100
AcDbEntity
8
0
100
AcDbLine
10
-49.23017701126674
20
3.037687048358066
30
0
11
-47.800000000000004
21
5.5675339510375803
31
0
0
LINE
5
187
100
AcDbEntity
8
0
100
AcDbLine
10
-47.800000000000004
20
5.5675339510375803
30
0
11
-50.799999999999997
21
5.5675339510375892
31
0
0
ELLIPSE
5
188
100
AcDbEntity
8
0
100
AcDbEllipse
10
-47.800000000000004
20
5.5675339510375803
30
0
11
-3.0000000000000004
21
-3.7470027081099033e-15
31
0.0
40
0.95930864474890465
41
6.2831853071795818
42
7.3570555412348746
0
LINE
5
189
100
AcDbEntity
8
0
100
AcDbLine
10
-50.799999999999997
20
5.5675339510375892
30
0
11
-50.799999999999997
21
2.0971355949308101
31
0
0
ELLIPSE
5
190
100
AcDbEntity
8
0
100
AcDbEllipse
10
-47.800000000000004
20
2.74457238380558
30
0
11
-2.7495419279145583
21
-1.6041153579441279
31
0.0
40
0.7480808586887544
41
5.8716655535726607
42
6.9455357876279482
0
LINE
5
191
100
AcDbEntity
8
0
100
AcDbLine
10
-49.230177011266754
20
0.21472548112606432
30
0
11
-49.23017701126674
21
3.037687048358066
31
0
0
ELLIPSE
5
192
100
AcDbEntity
8
0
100
AcDbEllipse
10
-47.800000000000004
20
5.5675339510375803
30
0
11
-3.0000000000000004
21
-3.7470027081099033e-15
31
0.0
40
0.95930864474890465
41
6.2831853071795818
42
7.3570555412348746
0
LINE
5
193
100
AcDbEntity
8
0
100
AcDbLine
10
-49.23017701126674
20
3.037687048358066
30
0
11
-49.230177011266754
21
0.21472548112606432
31
0
0
LINE
5
194
100
AcDbEntity
8
0
100
AcDbLine
10
-49.230177011266754
20
0.21472548112606432
30
0
11
-11.830967339652503
21
-20.927854275473301
31
0
0
LINE
5
195
100
AcDbEntity
8
0
100
AcDbLine
10
-11.830967339652503
20
-20.927854275473301
30
0
11
-10.621589502731199
21
-18.7885800801801
31
0
0
LINE
5
196
100
AcDbEntity
8
0
100
AcDbLine
10
-10.621589502731199
20
-18.7885800801801
30
0
11
-49.23017701126674
21
3.037687048358066
31
0
0
ARC
5
197
100
AcDbEntity
8
0
100
AcDbCircle
10
-47.800000000000004
20
19.007408701890199
30
0
40
3.0000000000000004
210
0
220
0
230
1
100
AcDbArc
50
120.37912651254939
51
180
0
LINE
5
198
100
AcDbEntity
8
0
100
AcDbLine
10
-50.799999999999997
20
19.007408701890192
30
0
11
-47.800000000000004
21
19.007408701890199
31
0
0
LINE
5
199
100
AcDbEntity
8
0
100
AcDbLine
10
-47.800000000000004
20
19.007408701890199
30
0
11
-49.317158521775994
21
21.595502598912194
31
0
0
LINE
5
200
100
AcDbEntity
8
0
100
AcDbLine
10
-27.494503215473834
20
34.388093897022046
30
0
11
-25.977344693697901
21
31.800000000000001
31
0
0
LINE
5
201
100
AcDbEntity
8
0
100
AcDbLine
10
-27.494503215473834
20
34.388093897022046
30
0
11
-49.317158521775994
21
21.595502598912194
31
0
0
LINE
5
202
100
AcDbEntity
8
0
100
AcDbLine
10
-47.800000000000004
20
19.007408701890199
30
0
11
-49.317158521775994
21
21.595502598912194
31
0
0
LINE
5
203
100
AcDbEntity
8
0
100
AcDbLine
10
-47.800000000000004
20
19.007408701890199
30
0
11
-25.977344693697901
21
31.800000000000001
31
0
0
LINE
5
204
100
AcDbEntity
8
0
100
AcDbLine
10
25.977344693697901
20
34.799999999999997
30
0
11
-25.977344693697901
21
34.799999999999997
31
0
0
LINE
5
205
100
AcDbEntity
8
0
100
AcDbLine
10
-25.977344693697901
20
31.800000000000001
30
0
11
-25.977344693697901
21
34.799999999999997
31
0
0
LINE
5
206
100
AcDbEntity
8
0
100
AcDbLine
10
-25.977344693697901
20
31.800000000000001
30
0
11
25.977344693697901
21
31.800000000000001
31
0
0
LINE
5
207
100
AcDbEntity
8
0
100
AcDbLine
10
25.977344693697901
20
31.800000000000001
30
0
11
25.977344693697901
21
34.799999999999997
31
0
0
ARC
5
208
100
AcDbEntity
8
0
100
AcDbCircle
10
-25.977344693697901
20
31.800000000000001
30
0
40
2.9999999999999982
210
0
220
-0
230
1
100
AcDbArc
50
90
51
120.37912651254797
0
LINE
5
209
100
AcDbEntity
8
0
100
AcDbLine
10
-27.494503215473834
20
34.388093897022046
30
0
11
-25.977344693697901
21
31.800000000000001
31
0
0
LINE
5
210
100
AcDbEntity
8
0
100
AcDbLine
10
-25.977344693697901
20
31.800000000000001
30
0
11
-25.977344693697901
21
34.799999999999997
31
0
0
LINE
5
211
100
AcDbEntity
8
0
100
AcDbLine
10
27.494503215473834
20
34.388093897022046
30
0
11
25.977344693697901
21
31.800000000000001
31
0
0
LINE
5
212
100
AcDbEntity
8
0
100
AcDbLine
10
25.977344693697901
20
31.800000000000001
30
0
11
47.800000000000004
21
19.007408701890203
31
0
0
LINE
5
213
100
AcDbEntity
8
0
100
AcDbLine
10
47.800000000000004
20
19.007408701890203
30
0
11
49.317158521775923
21
21.595502598912233
31
0
0
LINE
5
214
100
AcDbEntity
8
0
100
AcDbLine
10
49.317158521775923
20
21.595502598912233
30
0
11
27.494503215473834
21
34.388093897022046
31
0
0
ARC
5
215
100
AcDbEntity
8
0
100
AcDbCircle
10
25.977344693697901
20
31.800000000000001
30
0
40
3.0000000000000115
210
0
220
-0
230
1
100
AcDbArc
50
59.620873487452023
51
90
0
LINE
5
216
100
AcDbEntity
8
0
100
AcDbLine
10
25.977344693697901
20
31.800000000000001
30
0
11
25.977344693697901
21
34.799999999999997
31
0
0
LINE
5
217
100
AcDbEntity
8
0
100
AcDbLine
10
27.494503215473834
20
34.388093897022046
30
0
11
25.977344693697901
21
31.800000000000001
31
0
0
ARC
5
218
100
AcDbEntity
8
0
100
AcDbCircle
10
47.800000000000004
20
19.007408701890203
30
0
40
2.9999999999999982
210
-0
220
0
230
1
100
AcDbArc
50
0
51
59.62087348745213
0
LINE
5
219
100
AcDbEntity
8
0
100
AcDbLine
10
47.800000000000004
20
19.007408701890203
30
0
11
49.317158521775923
21
21.595502598912233
31
0
0
LINE
5
220
100
AcDbEntity
8
0
100
AcDbLine
10
50.799999999999997
20
19.007408701890192
30
0
11
47.800000000000004
21
19.007408701890203
31
0
0
LINE
5
221
100
AcDbEntity
8
0
100
AcDbLine
10
49.23017701126674
20
3.037687048358066
30
0
11
47.800000000000004
21
5.5675339510375803
31
0
0
LINE
5
222
100
AcDbEntity
8
0
100
AcDbLine
10
49.23017701126674
20
3.037687048358066
30
0
11
47.800000000000004
21
5.5675339510375803
31
0
0
ELLIPSE
5
223
100
AcDbEntity
8
0
100
AcDbEllipse
10
47.800000000000004
20
5.5675339510375803
30
0
11
3.0000000000000004
21
-3.7470027081099033e-15
31
0.0
40
0.95930864474890465
41
5.2093150731242979
42
6.2831853071795907
0
LINE
5
224
100
AcDbEntity
8
0
100
AcDbLine
10
47.800000000000004
20
5.5675339510375803
30
0
11
50.799999999999997
21
5.5675339510375901
31
0
0
LINE
5
225
100
AcDbEntity
8
0
100
AcDbLine
10
49.23017701126674
20
3.037687048358066
30
0
11
49.230177011266704
21
0.21472548112605683
31
0
0
ELLIPSE
5
226
100
AcDbEntity
8
0
100
AcDbEllipse
10
47.800000000000004
20
2.74457238380558
30
0
11
2.7495419279145583
21
-1.6041153579441279
31
0.0
40
0.74808085868875429
41
5.6208348267312065
42
6.6947050607865268
0
LINE
5
227
100
AcDbEntity
8
0
100
AcDbLine
10
50.799999999999997
20
2.0971355949308506
30
0
11
50.799999999999997
21
5.5675339510375901
31
0
0
ELLIPSE
5
228
100
AcDbEntity
8
0
100
AcDbEllipse
10
47.800000000000004
20
5.5675339510375803
30
0
11
3.0000000000000004
21
-3.7470027081099033e-15
31
0.0
40
0.95930864474890465
41
5.2093150731242979
42
6.2831853071795907
0
LINE
5
229
100
AcDbEntity
8
0
100
AcDbLine
10
10.621589502731201
20
-18.7885800801801
30
0
11
11.830967339652501
21
-20.927854275473301
31
0
0
LINE
5
230
100
AcDbEntity
8
0
100
AcDbLine
10
11.830967339652501
20
-20.927854275473301
30
0
11
49.230177011266704
21
0.21472548112605683
31
0
0
LINE
5
231
100
AcDbEntity
8
0
100
AcDbLine
10
49.230177011266704
20
0.21472548112605683
30
0
11
49.23017701126674
21
3.037687048358066
31
0
0
LINE
5
232
100
AcDbEntity
8
0
100
AcDbLine
10
49.23017701126674
20
3.037687048358066
30
0
11
10.621589502731201
21
-18.7885800801801
31
0
0
LINE
5
233
100
AcDbEntity
8
0
100
AcDbLine
10
49.23017701126674
20
3.037687048358066
30
0
11
47.800000000000004
21
5.5675339510375803
31
0
0
LINE
5
234
100
AcDbEntity
8
0
100
AcDbLine
10
47.800000000000004
20
5.5675339510375803
30
0
11
9.1914124914644919
21
-16.258733177500556
31
0
0
LINE
5
235
100
AcDbEntity
8
0
100
AcDbLine
10
10.621589502731201
20
-18.7885800801801
30
0
11
9.1914124914644919
21
-16.258733177500556
31
0
0
LINE
5
236
100
AcDbEntity
8
0
100
AcDbLine
10
10.621589502731201
20
-18.7885800801801
30
0
11
49.23017701126674
21
3.037687048358066
31
0
0
ARC
5
237
100
AcDbEntity
8
0
100
AcDbCircle
10
1.1102230246251565e-15
20
1.1102230246251565e-14
30
0
40
18.676950182655819
210
0
220
0
230
1
100
AcDbArc
50
240.51958761464812
51
299.48041238535188
0
LINE
5
238
100
AcDbEntity
8
0
100
AcDbLine
10
-10.621589502731199
20
-18.7885800801801
30
0
11
-9.1914124914644866
21
-16.258733177500559
31
0
0
ARC
5
239
100
AcDbEntity
8
0
100
AcDbCircle
10
2.2204460492503131e-15
20
-4.4408920985006262e-15
30
0
40
21.583069869549835
210
0
220
0
230
1
100
AcDbArc
50
240.51958761464815
51
299.48041238535177
0
LINE
5
240
100
AcDbEntity
8
0
100
AcDbLine
10
10.621589502731201
20
-18.7885800801801
30
0
11
9.1914124914644919
21
-16.258733177500556
31
0
0
LINE
5
241
100
AcDbEntity
8
0
100
AcDbLine
10
5.7062826868275902
20
-2.9605251160931099
30
0
11
-3.0990408414389403
21
5.6322568236986399
31
0
0
ARC
5
242
100
AcDbEntity
8
0
100
AcDbCircle
10
0
20
0
30
0
40
6.4285590193297963
210
0
220
0
230
1
100
AcDbArc
50
118.82094280626903
51
152.57887975110859
0
LINE
5
243
100
AcDbEntity
8
0
100
AcDbLine
10
-5.7062826868275867
20
2.9605251160931156
30
0
11
3.0990408414389305
21
-5.6322568236986399
31
0
0
ARC
5
244
100
AcDbEntity
8
0
100
AcDbCircle
10
0
20
0
30
0
40
6.428559019329791
210
-0
220
0
230
1
100
AcDbArc
50
298.82094280626893
51
332.57887975110862
0
LINE
5
245
100
AcDbEntity
8
0
100
AcDbLine
10
3.0990408414389305
20
-5.6322568236986399
30
0
11
-5.7062826868275867
21
2.9605251160931156
31
0
0
ARC
5
246
100
AcDbEntity
8
0
100
AcDbCircle
10
0
20
0
30
0
40
6.4285590193297928
210
0
220
0
230
1
100
AcDbArc
50
152.57887975110859
51
298.82094280626893
0
ARC
5
247
100
AcDbEntity
8
0
100
AcDbCircle
10
0
20
0
30
0
40
6.4285590193297928
210
-0
220
0
230
1
100
AcDbArc
50
-27.421120248891356
51
118.82094280626903
0
LINE
5
248
100
AcDbEntity
8
0
100
AcDbLine
10
-3.0990408414389403
20
5.6322568236986399
30
0
11
5.7062826868275902
21
-2.9605251160931099
31
0
0
ARC
5
249
100
AcDbEntity
8
0
100
AcDbCircle
10
0
20
0
30
0
40
6.4285590193297928
210
-0
220
0
230
1
100
AcDbArc
50
-27.421120248891356
51
118.82094280626903
0
LINE
5
250
100
AcDbEntity
8
0
100
AcDbLine
10
48.799999999999997
20
-34.811793783388801
30
0
11
50.431027256933078
21
-35.969269522720367
31
0
0
LINE
5
251
100
AcDbEntity
8
0
100
AcDbLine
10
48.799999999999997
20
-34.811793783388801
30
0
11
32.593510776532597
21
-57.648752489694104
31
0
0
LINE
5
252
100
AcDbEntity
8
0
100
AcDbLine
10
32.593510776532597
20
-57.648752489694104
30
0
11
34.22453803346567
21
-58.80622822902577
31
0
0
LINE
5
253
100
AcDbEntity
8
0
100
AcDbLine
10
34.22453803346567
20
-58.80622822902577
30
0
11
50.431027256933078
21
-35.969269522720367
31
0
0
ARC
5
254
100
AcDbEntity
8
0
100
AcDbCircle
10
48.799999999999997
20
-34.811793783388801
30
0
40
1.9999999999999454
210
0
220
0
230
1
100
AcDbArc
50
-35.361819994549762
51
0
0
LINE
5
255
100
AcDbEntity
8
0
100
AcDbLine
10
50.799999999999997
20
-34.811793783388794
30
0
11
48.799999999999997
21
-34.811793783388801
31
0
0
LINE
5
256
100
AcDbEntity
8
0
100
AcDbLine
10
48.799999999999997
20
-34.811793783388801
30
0
11
50.431027256933078
21
-35.969269522720367
31
0
0
ELLIPSE
5
257
100
AcDbEntity
8
0
100
AcDbEllipse
10
48.799999999999997
20
-37.167850737491797
30
0
11
1.9999999999999996
21
0
31
0.0
40
0.070372576475632526
41
4.7123889803846897
42
6.2831853071795862
0
LINE
5
258
100
AcDbEntity
8
0
100
AcDbLine
10
50.799999999999997
20
-37.167850737491797
30
0
11
50.799999999999997
21
-33.449341043394398
31
0
0
ARC
5
259
100
AcDbEntity
8
0
100
AcDbCircle
10
48.799999999999997
20
-33.449341043394398
30
0
40
2.0000000000000018
210
-0
220
0
230
1
100
AcDbArc
50
-90
51
0
0
LINE
5
260
100
AcDbEntity
8
0
100
AcDbLine
10
48.799999999999997
20
-35.449341043394405
30
0
11
48.799999999999997
21
-37.308595890443101
31
0
0
ELLIPSE
5
261
100
AcDbEntity
8
0
100
AcDbEllipse
10
48.799999999999997
20
-48.505816110200797
30
0
11
2.0000000000000102
21
1.7987340102205087e-14
31
0.0
40
0.07037257647563222
41
4.7123889803846932
42
6.2831853071795862
0
ELLIPSE
5
262
100
AcDbEntity
8
0
100
AcDbEllipse
10
48.799999999999997
20
-48.505816110200797
30
0
11
1.6310272569330722
21
-1.1574757393316621
31
0.0
40
0.057437451020046444
41
4.7531275229187857
42
6.2831853071795436
0
ARC
5
263
100
AcDbEntity
8
0
100
AcDbCircle
10
48.799999999999997
20
-48.505816110200797
30
0
40
2.0000000000000049
210
-0
220
0
230
1
100
AcDbArc
50
-35.36181999455205
51
0
0
ELLIPSE
5
264
100
AcDbEntity
8
0
100
AcDbEllipse
10
-48.799999999999997
20
-48.505816110200797
30
0
11
-1.9999999999999996
21
1.3878543595325583e-31
31
0.0
40
0.070372576475632512
41
6.2831853071795294
42
7.8539816339744863
0
ARC
5
265
100
AcDbEntity
8
0
100
AcDbCircle
10
-48.799999999999997
20
-48.505816110200797
30
0
40
2.0000000000000018
210
0
220
0
230
1
100
AcDbArc
50
180
51
215.36181999455439
0
ELLIPSE
5
266
100
AcDbEntity
8
0
100
AcDbEllipse
10
-48.799999999999997
20
-48.505816110200797
30
0
11
-1.6310272569330728
21
-1.1574757393316621
31
0.0
40
0.057437451020046493
41
6.8212102632969618e-13
42
1.5300577842607992
0
ARC
5
267
100
AcDbEntity
8
0
100
AcDbCircle
10
-48.799999999999997
20
-34.811793783388801
30
0
40
2.0000000000000018
210
0
220
0
230
1
100
AcDbArc
50
180
51
215.36181999455206
0
LINE
5
268
100
AcDbEntity
8
0
100
AcDbLine
10
-50.431027256933078
20
-35.969269522720467
30
0
11
-48.799999999999997
21
-34.811793783388801
31
0
0
LINE
5
269
100
AcDbEntity
8
0
100
AcDbLine
10
-50.799999999999997
20
-34.811793783388801
30
0
11
-48.799999999999997
21
-34.811793783388801
31
0
0
ARC
5
270
100
AcDbEntity
8
0
100
AcDbCircle
10
-48.79999999999999
20
-33.449341043394398
30
0
40
2.0000000000000107
210
0
220
0
230
1
100
AcDbArc
50
180
51
269.99999999999937
0
LINE
5
271
100
AcDbEntity
8
0
100
AcDbLine
10
-50.799999999999997
20
-33.449341043394398
30
0
11
-50.799999999999997
21
-37.167850737491797
31
0
0
ELLIPSE
5
272
100
AcDbEntity
8
0
100
AcDbEllipse
10
-48.799999999999997
20
-37.167850737491797
30
0
11
-1.9999999999999996
21
0
31
0.0
40
0.070372576475632512
41
6.2831853071795294
42
7.8539816339744863
0
LINE
5
273
100
AcDbEntity
8
0
100
AcDbLine
10
-48.799999999999997
20
-37.308595890443101
30
0
11
-48.800000000000011
21
-35.449341043394405
31
0
0
CIRCLE
5
274
100
AcDbEntity
8
0
100
AcDbCircle
10
-18.414999999999999
20
4.5774036134456607e-15
30
0
40
1.9384000000000001
210
0
220
-0
230
1
0
CIRCLE
5
275
100
AcDbEntity
8
0
100
AcDbCircle
10
-31.750000000000004
20
6.3499999999999899
30
0
40
2.4384000000000001
210
0
220
-0
230
1
0
CIRCLE
5
276
100
AcDbEntity
8
0
100
AcDbCircle
10
-31.750000000000004
20
6.3499999999999899
30
0
40
2.4384000000000001
210
0
220
-0
230
1
0
CIRCLE
5
277
100
AcDbEntity
8
0
100
AcDbCircle
10
18.414999999999999
20
8.8817841970012507e-15
30
0
40
1.9384000000000001
210
0
220
-0
230
1
0
CIRCLE
5
278
100
AcDbEntity
8
0
100
AcDbCircle
10
31.750000000000004
20
6.3499999999999899
30
0
40
2.4384000000000001
210
0
220
-0
230
1
0
CIRCLE
5
279
100
AcDbEntity
8
0
100
AcDbCircle
10
31.750000000000004
20
6.3499999999999899
30
0
40
2.4384000000000001
210
0
220
-0
230
1
0
ENDSEC
0
SECTION
2
OBJECTS
0
DICTIONARY
5
C
100
AcDbDictionary
3
ACAD_GROUP
350
D
3
ACAD_MLINESTYLE
350
17
0
DICTIONARY
5
D
100
AcDbDictionary
0
DICTIONARY
5
1A
330
C
100
AcDbDictionary
0
DICTIONARY
5
17
100
AcDbDictionary
0
ENDSEC
0
EOF
