ISO-10303-21;
HEADER;
/* Generated by software containing ST-Developer
 * from STEP Tools, Inc. (www.steptools.com) 
 */

FILE_DESCRIPTION(
/* description */ (''),
/* implementation_level */ '2;1');

FILE_NAME(
/* name */ 'bruh_couch_arm_cupholder_insert.step',
/* time_stamp */ '2023-09-18T23:56:14-04:00',
/* author */ (''),
/* organization */ (''),
/* preprocessor_version */ 'ST-DEVELOPER v20',
/* originating_system */ 'Autodesk Translation Framework v12.9.0.99',
/* authorisation */ '');

FILE_SCHEMA (('AUTOMOTIVE_DESIGN { 1 0 10303 214 3 1 1 }'));
ENDSEC;

DATA;
#10=MECHANICAL_DESIGN_GEOMETRIC_PRESENTATION_REPRESENTATION('',(#13),#559);
#11=SHAPE_REPRESENTATION_RELATIONSHIP('SRR','None',#566,#12);
#12=ADVANCED_BREP_SHAPE_REPRESENTATION('',(#14),#558);
#13=STYLED_ITEM('',(#576),#14);
#14=MANIFOLD_SOLID_BREP('insert',#319);
#15=CIRCLE('',#335,39.);
#16=CIRCLE('',#336,39.);
#17=CIRCLE('',#339,45.5);
#18=CIRCLE('',#340,2.99999999999999);
#19=CIRCLE('',#341,3.);
#20=CIRCLE('',#344,39.);
#21=CIRCLE('',#345,39.);
#22=CIRCLE('',#348,3.00000000000001);
#23=CIRCLE('',#349,45.5);
#24=CIRCLE('',#350,2.99999999999998);
#25=CIRCLE('',#353,3.);
#26=CIRCLE('',#356,2.99999999999998);
#27=CIRCLE('',#358,45.5);
#28=CIRCLE('',#360,3.00000000000001);
#29=CIRCLE('',#363,2.99999999999999);
#30=CIRCLE('',#365,45.5);
#31=CYLINDRICAL_SURFACE('',#334,39.);
#32=CYLINDRICAL_SURFACE('',#343,39.);
#33=CYLINDRICAL_SURFACE('',#352,3.);
#34=CYLINDRICAL_SURFACE('',#355,2.99999999999998);
#35=CYLINDRICAL_SURFACE('',#357,45.5);
#36=CYLINDRICAL_SURFACE('',#359,3.00000000000001);
#37=CYLINDRICAL_SURFACE('',#362,2.99999999999999);
#38=CYLINDRICAL_SURFACE('',#364,45.5);
#39=FACE_OUTER_BOUND('',#57,.T.);
#40=FACE_OUTER_BOUND('',#58,.T.);
#41=FACE_OUTER_BOUND('',#59,.T.);
#42=FACE_OUTER_BOUND('',#60,.T.);
#43=FACE_OUTER_BOUND('',#61,.T.);
#44=FACE_OUTER_BOUND('',#62,.T.);
#45=FACE_OUTER_BOUND('',#63,.T.);
#46=FACE_OUTER_BOUND('',#64,.T.);
#47=FACE_OUTER_BOUND('',#65,.T.);
#48=FACE_OUTER_BOUND('',#66,.T.);
#49=FACE_OUTER_BOUND('',#67,.T.);
#50=FACE_OUTER_BOUND('',#68,.T.);
#51=FACE_OUTER_BOUND('',#69,.T.);
#52=FACE_OUTER_BOUND('',#70,.T.);
#53=FACE_OUTER_BOUND('',#71,.T.);
#54=FACE_OUTER_BOUND('',#72,.T.);
#55=FACE_OUTER_BOUND('',#73,.T.);
#56=FACE_OUTER_BOUND('',#74,.T.);
#57=EDGE_LOOP('',(#203,#204,#205,#206));
#58=EDGE_LOOP('',(#207,#208,#209,#210));
#59=EDGE_LOOP('',(#211,#212,#213,#214));
#60=EDGE_LOOP('',(#215,#216,#217,#218,#219,#220));
#61=EDGE_LOOP('',(#221,#222,#223,#224));
#62=EDGE_LOOP('',(#225,#226,#227,#228));
#63=EDGE_LOOP('',(#229,#230,#231,#232));
#64=EDGE_LOOP('',(#233,#234,#235,#236,#237,#238));
#65=EDGE_LOOP('',(#239,#240,#241,#242,#243,#244,#245,#246));
#66=EDGE_LOOP('',(#247,#248,#249,#250,#251));
#67=EDGE_LOOP('',(#252,#253,#254,#255));
#68=EDGE_LOOP('',(#256,#257,#258,#259,#260));
#69=EDGE_LOOP('',(#261,#262,#263,#264));
#70=EDGE_LOOP('',(#265,#266,#267,#268,#269));
#71=EDGE_LOOP('',(#270,#271,#272,#273));
#72=EDGE_LOOP('',(#274,#275,#276,#277,#278));
#73=EDGE_LOOP('',(#279,#280,#281,#282));
#74=EDGE_LOOP('',(#283,#284,#285,#286,#287,#288,#289,#290));
#75=LINE('',#469,#103);
#76=LINE('',#471,#104);
#77=LINE('',#473,#105);
#78=LINE('',#474,#106);
#79=LINE('',#480,#107);
#80=LINE('',#483,#108);
#81=LINE('',#485,#109);
#82=LINE('',#486,#110);
#83=LINE('',#496,#111);
#84=LINE('',#498,#112);
#85=LINE('',#500,#113);
#86=LINE('',#501,#114);
#87=LINE('',#506,#115);
#88=LINE('',#510,#116);
#89=LINE('',#512,#117);
#90=LINE('',#513,#118);
#91=LINE('',#521,#119);
#92=LINE('',#522,#120);
#93=LINE('',#527,#121);
#94=LINE('',#528,#122);
#95=LINE('',#531,#123);
#96=LINE('',#532,#124);
#97=LINE('',#536,#125);
#98=LINE('',#540,#126);
#99=LINE('',#544,#127);
#100=LINE('',#547,#128);
#101=LINE('',#548,#129);
#102=LINE('',#552,#130);
#103=VECTOR('',#371,10.);
#104=VECTOR('',#372,10.);
#105=VECTOR('',#373,10.);
#106=VECTOR('',#374,10.);
#107=VECTOR('',#381,10.);
#108=VECTOR('',#384,10.);
#109=VECTOR('',#385,10.);
#110=VECTOR('',#386,10.);
#111=VECTOR('',#397,10.);
#112=VECTOR('',#398,10.);
#113=VECTOR('',#399,10.);
#114=VECTOR('',#400,10.);
#115=VECTOR('',#405,10.);
#116=VECTOR('',#410,10.);
#117=VECTOR('',#411,10.);
#118=VECTOR('',#412,10.);
#119=VECTOR('',#423,10.);
#120=VECTOR('',#424,10.);
#121=VECTOR('',#429,10.);
#122=VECTOR('',#430,10.);
#123=VECTOR('',#433,10.);
#124=VECTOR('',#434,10.);
#125=VECTOR('',#439,10.);
#126=VECTOR('',#444,10.);
#127=VECTOR('',#449,10.);
#128=VECTOR('',#452,10.);
#129=VECTOR('',#453,10.);
#130=VECTOR('',#458,10.);
#131=VERTEX_POINT('',#467);
#132=VERTEX_POINT('',#468);
#133=VERTEX_POINT('',#470);
#134=VERTEX_POINT('',#472);
#135=VERTEX_POINT('',#476);
#136=VERTEX_POINT('',#478);
#137=VERTEX_POINT('',#482);
#138=VERTEX_POINT('',#484);
#139=VERTEX_POINT('',#488);
#140=VERTEX_POINT('',#489);
#141=VERTEX_POINT('',#494);
#142=VERTEX_POINT('',#495);
#143=VERTEX_POINT('',#497);
#144=VERTEX_POINT('',#499);
#145=VERTEX_POINT('',#503);
#146=VERTEX_POINT('',#505);
#147=VERTEX_POINT('',#509);
#148=VERTEX_POINT('',#511);
#149=VERTEX_POINT('',#515);
#150=VERTEX_POINT('',#517);
#151=VERTEX_POINT('',#524);
#152=VERTEX_POINT('',#525);
#153=VERTEX_POINT('',#530);
#154=VERTEX_POINT('',#534);
#155=VERTEX_POINT('',#538);
#156=VERTEX_POINT('',#542);
#157=VERTEX_POINT('',#546);
#158=VERTEX_POINT('',#550);
#159=EDGE_CURVE('',#131,#132,#75,.T.);
#160=EDGE_CURVE('',#131,#133,#76,.T.);
#161=EDGE_CURVE('',#134,#133,#77,.T.);
#162=EDGE_CURVE('',#132,#134,#78,.T.);
#163=EDGE_CURVE('',#132,#135,#15,.T.);
#164=EDGE_CURVE('',#136,#134,#16,.T.);
#165=EDGE_CURVE('',#135,#136,#79,.T.);
#166=EDGE_CURVE('',#135,#137,#80,.T.);
#167=EDGE_CURVE('',#138,#136,#81,.T.);
#168=EDGE_CURVE('',#137,#138,#82,.T.);
#169=EDGE_CURVE('',#139,#140,#17,.T.);
#170=EDGE_CURVE('',#140,#138,#18,.T.);
#171=EDGE_CURVE('',#133,#139,#19,.T.);
#172=EDGE_CURVE('',#141,#142,#83,.T.);
#173=EDGE_CURVE('',#141,#143,#84,.T.);
#174=EDGE_CURVE('',#144,#143,#85,.T.);
#175=EDGE_CURVE('',#142,#144,#86,.T.);
#176=EDGE_CURVE('',#145,#141,#20,.T.);
#177=EDGE_CURVE('',#145,#146,#87,.T.);
#178=EDGE_CURVE('',#143,#146,#21,.T.);
#179=EDGE_CURVE('',#147,#145,#88,.T.);
#180=EDGE_CURVE('',#147,#148,#89,.T.);
#181=EDGE_CURVE('',#146,#148,#90,.T.);
#182=EDGE_CURVE('',#148,#149,#22,.T.);
#183=EDGE_CURVE('',#149,#150,#23,.T.);
#184=EDGE_CURVE('',#150,#144,#24,.T.);
#185=EDGE_CURVE('',#137,#147,#91,.T.);
#186=EDGE_CURVE('',#142,#131,#92,.T.);
#187=EDGE_CURVE('',#151,#152,#25,.T.);
#188=EDGE_CURVE('',#151,#139,#93,.T.);
#189=EDGE_CURVE('',#152,#131,#94,.T.);
#190=EDGE_CURVE('',#153,#152,#95,.T.);
#191=EDGE_CURVE('',#153,#142,#96,.T.);
#192=EDGE_CURVE('',#153,#154,#26,.T.);
#193=EDGE_CURVE('',#154,#150,#97,.T.);
#194=EDGE_CURVE('',#155,#154,#27,.T.);
#195=EDGE_CURVE('',#155,#149,#98,.T.);
#196=EDGE_CURVE('',#155,#156,#28,.T.);
#197=EDGE_CURVE('',#156,#147,#99,.T.);
#198=EDGE_CURVE('',#157,#156,#100,.T.);
#199=EDGE_CURVE('',#157,#137,#101,.T.);
#200=EDGE_CURVE('',#157,#158,#29,.T.);
#201=EDGE_CURVE('',#158,#140,#102,.T.);
#202=EDGE_CURVE('',#151,#158,#30,.T.);
#203=ORIENTED_EDGE('',*,*,#159,.F.);
#204=ORIENTED_EDGE('',*,*,#160,.T.);
#205=ORIENTED_EDGE('',*,*,#161,.F.);
#206=ORIENTED_EDGE('',*,*,#162,.F.);
#207=ORIENTED_EDGE('',*,*,#163,.F.);
#208=ORIENTED_EDGE('',*,*,#162,.T.);
#209=ORIENTED_EDGE('',*,*,#164,.F.);
#210=ORIENTED_EDGE('',*,*,#165,.F.);
#211=ORIENTED_EDGE('',*,*,#166,.F.);
#212=ORIENTED_EDGE('',*,*,#165,.T.);
#213=ORIENTED_EDGE('',*,*,#167,.F.);
#214=ORIENTED_EDGE('',*,*,#168,.F.);
#215=ORIENTED_EDGE('',*,*,#169,.T.);
#216=ORIENTED_EDGE('',*,*,#170,.T.);
#217=ORIENTED_EDGE('',*,*,#167,.T.);
#218=ORIENTED_EDGE('',*,*,#164,.T.);
#219=ORIENTED_EDGE('',*,*,#161,.T.);
#220=ORIENTED_EDGE('',*,*,#171,.T.);
#221=ORIENTED_EDGE('',*,*,#172,.F.);
#222=ORIENTED_EDGE('',*,*,#173,.T.);
#223=ORIENTED_EDGE('',*,*,#174,.F.);
#224=ORIENTED_EDGE('',*,*,#175,.F.);
#225=ORIENTED_EDGE('',*,*,#176,.F.);
#226=ORIENTED_EDGE('',*,*,#177,.T.);
#227=ORIENTED_EDGE('',*,*,#178,.F.);
#228=ORIENTED_EDGE('',*,*,#173,.F.);
#229=ORIENTED_EDGE('',*,*,#179,.F.);
#230=ORIENTED_EDGE('',*,*,#180,.T.);
#231=ORIENTED_EDGE('',*,*,#181,.F.);
#232=ORIENTED_EDGE('',*,*,#177,.F.);
#233=ORIENTED_EDGE('',*,*,#174,.T.);
#234=ORIENTED_EDGE('',*,*,#178,.T.);
#235=ORIENTED_EDGE('',*,*,#181,.T.);
#236=ORIENTED_EDGE('',*,*,#182,.T.);
#237=ORIENTED_EDGE('',*,*,#183,.T.);
#238=ORIENTED_EDGE('',*,*,#184,.T.);
#239=ORIENTED_EDGE('',*,*,#159,.T.);
#240=ORIENTED_EDGE('',*,*,#163,.T.);
#241=ORIENTED_EDGE('',*,*,#166,.T.);
#242=ORIENTED_EDGE('',*,*,#185,.T.);
#243=ORIENTED_EDGE('',*,*,#179,.T.);
#244=ORIENTED_EDGE('',*,*,#176,.T.);
#245=ORIENTED_EDGE('',*,*,#172,.T.);
#246=ORIENTED_EDGE('',*,*,#186,.T.);
#247=ORIENTED_EDGE('',*,*,#187,.F.);
#248=ORIENTED_EDGE('',*,*,#188,.T.);
#249=ORIENTED_EDGE('',*,*,#171,.F.);
#250=ORIENTED_EDGE('',*,*,#160,.F.);
#251=ORIENTED_EDGE('',*,*,#189,.F.);
#252=ORIENTED_EDGE('',*,*,#190,.T.);
#253=ORIENTED_EDGE('',*,*,#189,.T.);
#254=ORIENTED_EDGE('',*,*,#186,.F.);
#255=ORIENTED_EDGE('',*,*,#191,.F.);
#256=ORIENTED_EDGE('',*,*,#192,.F.);
#257=ORIENTED_EDGE('',*,*,#191,.T.);
#258=ORIENTED_EDGE('',*,*,#175,.T.);
#259=ORIENTED_EDGE('',*,*,#184,.F.);
#260=ORIENTED_EDGE('',*,*,#193,.F.);
#261=ORIENTED_EDGE('',*,*,#194,.T.);
#262=ORIENTED_EDGE('',*,*,#193,.T.);
#263=ORIENTED_EDGE('',*,*,#183,.F.);
#264=ORIENTED_EDGE('',*,*,#195,.F.);
#265=ORIENTED_EDGE('',*,*,#196,.F.);
#266=ORIENTED_EDGE('',*,*,#195,.T.);
#267=ORIENTED_EDGE('',*,*,#182,.F.);
#268=ORIENTED_EDGE('',*,*,#180,.F.);
#269=ORIENTED_EDGE('',*,*,#197,.F.);
#270=ORIENTED_EDGE('',*,*,#198,.T.);
#271=ORIENTED_EDGE('',*,*,#197,.T.);
#272=ORIENTED_EDGE('',*,*,#185,.F.);
#273=ORIENTED_EDGE('',*,*,#199,.F.);
#274=ORIENTED_EDGE('',*,*,#200,.F.);
#275=ORIENTED_EDGE('',*,*,#199,.T.);
#276=ORIENTED_EDGE('',*,*,#168,.T.);
#277=ORIENTED_EDGE('',*,*,#170,.F.);
#278=ORIENTED_EDGE('',*,*,#201,.F.);
#279=ORIENTED_EDGE('',*,*,#202,.T.);
#280=ORIENTED_EDGE('',*,*,#201,.T.);
#281=ORIENTED_EDGE('',*,*,#169,.F.);
#282=ORIENTED_EDGE('',*,*,#188,.F.);
#283=ORIENTED_EDGE('',*,*,#190,.F.);
#284=ORIENTED_EDGE('',*,*,#192,.T.);
#285=ORIENTED_EDGE('',*,*,#194,.F.);
#286=ORIENTED_EDGE('',*,*,#196,.T.);
#287=ORIENTED_EDGE('',*,*,#198,.F.);
#288=ORIENTED_EDGE('',*,*,#200,.T.);
#289=ORIENTED_EDGE('',*,*,#202,.F.);
#290=ORIENTED_EDGE('',*,*,#187,.T.);
#291=PLANE('',#333);
#292=PLANE('',#337);
#293=PLANE('',#338);
#294=PLANE('',#342);
#295=PLANE('',#346);
#296=PLANE('',#347);
#297=PLANE('',#351);
#298=PLANE('',#354);
#299=PLANE('',#361);
#300=PLANE('',#366);
#301=ADVANCED_FACE('',(#39),#291,.T.);
#302=ADVANCED_FACE('',(#40),#31,.F.);
#303=ADVANCED_FACE('',(#41),#292,.T.);
#304=ADVANCED_FACE('',(#42),#293,.T.);
#305=ADVANCED_FACE('',(#43),#294,.T.);
#306=ADVANCED_FACE('',(#44),#32,.F.);
#307=ADVANCED_FACE('',(#45),#295,.T.);
#308=ADVANCED_FACE('',(#46),#296,.T.);
#309=ADVANCED_FACE('',(#47),#297,.T.);
#310=ADVANCED_FACE('',(#48),#33,.F.);
#311=ADVANCED_FACE('',(#49),#298,.T.);
#312=ADVANCED_FACE('',(#50),#34,.F.);
#313=ADVANCED_FACE('',(#51),#35,.T.);
#314=ADVANCED_FACE('',(#52),#36,.F.);
#315=ADVANCED_FACE('',(#53),#299,.T.);
#316=ADVANCED_FACE('',(#54),#37,.F.);
#317=ADVANCED_FACE('',(#55),#38,.T.);
#318=ADVANCED_FACE('',(#56),#300,.F.);
#319=CLOSED_SHELL('',(#301,#302,#303,#304,#305,#306,#307,#308,#309,#310,
#311,#312,#313,#314,#315,#316,#317,#318));
#320=DERIVED_UNIT_ELEMENT(#322,1.);
#321=DERIVED_UNIT_ELEMENT(#561,-3.);
#322=(
MASS_UNIT()
NAMED_UNIT(*)
SI_UNIT(.KILO.,.GRAM.)
);
#323=DERIVED_UNIT((#320,#321));
#324=MEASURE_REPRESENTATION_ITEM('density measure',
POSITIVE_RATIO_MEASURE(7850.),#323);
#325=PROPERTY_DEFINITION_REPRESENTATION(#330,#327);
#326=PROPERTY_DEFINITION_REPRESENTATION(#331,#328);
#327=REPRESENTATION('material name',(#329),#558);
#328=REPRESENTATION('density',(#324),#558);
#329=DESCRIPTIVE_REPRESENTATION_ITEM('Steel','Steel');
#330=PROPERTY_DEFINITION('material property','material name',#568);
#331=PROPERTY_DEFINITION('material property','density of part',#568);
#332=AXIS2_PLACEMENT_3D('',#465,#367,#368);
#333=AXIS2_PLACEMENT_3D('',#466,#369,#370);
#334=AXIS2_PLACEMENT_3D('',#475,#375,#376);
#335=AXIS2_PLACEMENT_3D('',#477,#377,#378);
#336=AXIS2_PLACEMENT_3D('',#479,#379,#380);
#337=AXIS2_PLACEMENT_3D('',#481,#382,#383);
#338=AXIS2_PLACEMENT_3D('',#487,#387,#388);
#339=AXIS2_PLACEMENT_3D('',#490,#389,#390);
#340=AXIS2_PLACEMENT_3D('',#491,#391,#392);
#341=AXIS2_PLACEMENT_3D('',#492,#393,#394);
#342=AXIS2_PLACEMENT_3D('',#493,#395,#396);
#343=AXIS2_PLACEMENT_3D('',#502,#401,#402);
#344=AXIS2_PLACEMENT_3D('',#504,#403,#404);
#345=AXIS2_PLACEMENT_3D('',#507,#406,#407);
#346=AXIS2_PLACEMENT_3D('',#508,#408,#409);
#347=AXIS2_PLACEMENT_3D('',#514,#413,#414);
#348=AXIS2_PLACEMENT_3D('',#516,#415,#416);
#349=AXIS2_PLACEMENT_3D('',#518,#417,#418);
#350=AXIS2_PLACEMENT_3D('',#519,#419,#420);
#351=AXIS2_PLACEMENT_3D('',#520,#421,#422);
#352=AXIS2_PLACEMENT_3D('',#523,#425,#426);
#353=AXIS2_PLACEMENT_3D('',#526,#427,#428);
#354=AXIS2_PLACEMENT_3D('',#529,#431,#432);
#355=AXIS2_PLACEMENT_3D('',#533,#435,#436);
#356=AXIS2_PLACEMENT_3D('',#535,#437,#438);
#357=AXIS2_PLACEMENT_3D('',#537,#440,#441);
#358=AXIS2_PLACEMENT_3D('',#539,#442,#443);
#359=AXIS2_PLACEMENT_3D('',#541,#445,#446);
#360=AXIS2_PLACEMENT_3D('',#543,#447,#448);
#361=AXIS2_PLACEMENT_3D('',#545,#450,#451);
#362=AXIS2_PLACEMENT_3D('',#549,#454,#455);
#363=AXIS2_PLACEMENT_3D('',#551,#456,#457);
#364=AXIS2_PLACEMENT_3D('',#553,#459,#460);
#365=AXIS2_PLACEMENT_3D('',#554,#461,#462);
#366=AXIS2_PLACEMENT_3D('',#555,#463,#464);
#367=DIRECTION('axis',(0.,0.,1.));
#368=DIRECTION('refdir',(1.,0.,0.));
#369=DIRECTION('center_axis',(1.,0.,0.));
#370=DIRECTION('ref_axis',(0.,1.,0.));
#371=DIRECTION('',(0.,-1.,0.));
#372=DIRECTION('',(0.,0.,1.));
#373=DIRECTION('',(0.,1.,0.));
#374=DIRECTION('',(0.,0.,1.));
#375=DIRECTION('center_axis',(0.,0.,1.));
#376=DIRECTION('ref_axis',(-1.,1.22464679914735E-16,0.));
#377=DIRECTION('center_axis',(0.,0.,1.));
#378=DIRECTION('ref_axis',(1.,0.,0.));
#379=DIRECTION('center_axis',(0.,0.,-1.));
#380=DIRECTION('ref_axis',(1.,0.,0.));
#381=DIRECTION('',(0.,0.,1.));
#382=DIRECTION('center_axis',(1.,0.,0.));
#383=DIRECTION('ref_axis',(0.,1.,0.));
#384=DIRECTION('',(0.,-1.,0.));
#385=DIRECTION('',(0.,1.,0.));
#386=DIRECTION('',(0.,0.,1.));
#387=DIRECTION('center_axis',(0.,0.,1.));
#388=DIRECTION('ref_axis',(1.,0.,0.));
#389=DIRECTION('center_axis',(0.,0.,1.));
#390=DIRECTION('ref_axis',(-0.298969072164949,0.954262801270609,0.));
#391=DIRECTION('center_axis',(0.,0.,-1.));
#392=DIRECTION('ref_axis',(0.965451731219519,0.260581953874847,0.));
#393=DIRECTION('center_axis',(0.,0.,-1.));
#394=DIRECTION('ref_axis',(0.298969072164948,-0.954262801270609,0.));
#395=DIRECTION('center_axis',(-1.,0.,0.));
#396=DIRECTION('ref_axis',(0.,-1.,0.));
#397=DIRECTION('',(0.,1.,0.));
#398=DIRECTION('',(0.,0.,1.));
#399=DIRECTION('',(0.,-1.,0.));
#400=DIRECTION('',(0.,0.,1.));
#401=DIRECTION('center_axis',(0.,0.,1.));
#402=DIRECTION('ref_axis',(1.,0.,0.));
#403=DIRECTION('center_axis',(0.,0.,1.));
#404=DIRECTION('ref_axis',(1.,0.,0.));
#405=DIRECTION('',(0.,0.,1.));
#406=DIRECTION('center_axis',(0.,0.,-1.));
#407=DIRECTION('ref_axis',(1.,0.,0.));
#408=DIRECTION('center_axis',(-1.,0.,0.));
#409=DIRECTION('ref_axis',(0.,-1.,0.));
#410=DIRECTION('',(0.,1.,0.));
#411=DIRECTION('',(0.,0.,1.));
#412=DIRECTION('',(0.,-1.,0.));
#413=DIRECTION('center_axis',(0.,0.,1.));
#414=DIRECTION('ref_axis',(1.,0.,0.));
#415=DIRECTION('center_axis',(0.,0.,-1.));
#416=DIRECTION('ref_axis',(-0.298969072164952,0.954262801270608,0.));
#417=DIRECTION('center_axis',(0.,0.,1.));
#418=DIRECTION('ref_axis',(0.298969072164948,-0.954262801270609,0.));
#419=DIRECTION('center_axis',(0.,0.,-1.));
#420=DIRECTION('ref_axis',(-0.96545173121952,-0.260581953874844,0.));
#421=DIRECTION('center_axis',(0.,0.,1.));
#422=DIRECTION('ref_axis',(1.,0.,0.));
#423=DIRECTION('',(1.,-7.52245014435787E-17,0.));
#424=DIRECTION('',(-1.,0.,0.));
#425=DIRECTION('center_axis',(0.,0.,1.));
#426=DIRECTION('ref_axis',(0.298969072164948,-0.954262801270609,0.));
#427=DIRECTION('center_axis',(0.,0.,1.));
#428=DIRECTION('ref_axis',(0.298969072164948,-0.954262801270609,0.));
#429=DIRECTION('',(0.,0.,1.));
#430=DIRECTION('',(0.,0.,1.));
#431=DIRECTION('center_axis',(0.,1.,0.));
#432=DIRECTION('ref_axis',(-1.,0.,0.));
#433=DIRECTION('',(-1.,0.,0.));
#434=DIRECTION('',(0.,0.,1.));
#435=DIRECTION('center_axis',(0.,0.,1.));
#436=DIRECTION('ref_axis',(-0.96545173121952,-0.260581953874844,0.));
#437=DIRECTION('center_axis',(0.,0.,1.));
#438=DIRECTION('ref_axis',(-0.96545173121952,-0.260581953874844,0.));
#439=DIRECTION('',(0.,0.,1.));
#440=DIRECTION('center_axis',(0.,0.,1.));
#441=DIRECTION('ref_axis',(0.298969072164948,-0.954262801270609,0.));
#442=DIRECTION('center_axis',(0.,0.,1.));
#443=DIRECTION('ref_axis',(0.298969072164948,-0.954262801270609,0.));
#444=DIRECTION('',(0.,0.,1.));
#445=DIRECTION('center_axis',(0.,0.,1.));
#446=DIRECTION('ref_axis',(-0.298969072164952,0.954262801270608,0.));
#447=DIRECTION('center_axis',(0.,0.,1.));
#448=DIRECTION('ref_axis',(-0.298969072164952,0.954262801270608,0.));
#449=DIRECTION('',(0.,0.,1.));
#450=DIRECTION('center_axis',(-7.52245014435787E-17,-1.,0.));
#451=DIRECTION('ref_axis',(1.,-7.52245014435787E-17,0.));
#452=DIRECTION('',(1.,-7.52245014435787E-17,0.));
#453=DIRECTION('',(0.,0.,1.));
#454=DIRECTION('center_axis',(0.,0.,1.));
#455=DIRECTION('ref_axis',(0.965451731219519,0.260581953874847,0.));
#456=DIRECTION('center_axis',(0.,0.,1.));
#457=DIRECTION('ref_axis',(0.965451731219519,0.260581953874847,0.));
#458=DIRECTION('',(0.,0.,1.));
#459=DIRECTION('center_axis',(0.,0.,1.));
#460=DIRECTION('ref_axis',(-0.298969072164949,0.954262801270609,0.));
#461=DIRECTION('center_axis',(0.,0.,1.));
#462=DIRECTION('ref_axis',(-0.298969072164949,0.954262801270609,0.));
#463=DIRECTION('center_axis',(0.,0.,1.));
#464=DIRECTION('ref_axis',(1.,0.,0.));
#465=CARTESIAN_POINT('',(0.,0.,0.));
#466=CARTESIAN_POINT('Origin',(81.8963551936586,81.7890773348476,0.));
#467=CARTESIAN_POINT('',(81.8963551936586,92.,3.));
#468=CARTESIAN_POINT('',(81.8963551936586,81.7890773348476,3.));
#469=CARTESIAN_POINT('',(81.8963551936586,64.1445386674238,3.));
#470=CARTESIAN_POINT('',(81.8963551936586,92.,48.));
#471=CARTESIAN_POINT('',(81.8963551936586,92.,0.));
#472=CARTESIAN_POINT('',(81.8963551936586,81.7890773348476,48.));
#473=CARTESIAN_POINT('',(81.8963551936586,92.,48.));
#474=CARTESIAN_POINT('',(81.8963551936586,81.7890773348476,0.));
#475=CARTESIAN_POINT('Origin',(98.5,46.5,0.));
#476=CARTESIAN_POINT('',(81.8963551936586,11.2109226651525,3.));
#477=CARTESIAN_POINT('Origin',(98.5,46.5,3.));
#478=CARTESIAN_POINT('',(81.8963551936586,11.2109226651525,48.));
#479=CARTESIAN_POINT('Origin',(98.5,46.5,48.));
#480=CARTESIAN_POINT('',(81.8963551936586,11.2109226651525,0.));
#481=CARTESIAN_POINT('Origin',(81.8963551936586,1.,0.));
#482=CARTESIAN_POINT('',(81.8963551936586,0.999999999999996,3.));
#483=CARTESIAN_POINT('',(81.8963551936586,23.75,3.));
#484=CARTESIAN_POINT('',(81.8963551936586,0.999999999999996,48.));
#485=CARTESIAN_POINT('',(81.8963551936586,1.,48.));
#486=CARTESIAN_POINT('',(81.8963551936586,1.,0.));
#487=CARTESIAN_POINT('Origin',(98.5,46.5,48.));
#488=CARTESIAN_POINT('',(79.8969072164949,89.9189574578127,48.));
#489=CARTESIAN_POINT('',(79.8969072164948,3.0810425421873,48.));
#490=CARTESIAN_POINT('Origin',(93.5,46.5,48.));
#491=CARTESIAN_POINT('Origin',(79.,0.218254138375462,48.));
#492=CARTESIAN_POINT('Origin',(79.,92.7817458616245,48.));
#493=CARTESIAN_POINT('Origin',(115.103644806341,92.,0.));
#494=CARTESIAN_POINT('',(115.103644806341,81.7890773348475,3.));
#495=CARTESIAN_POINT('',(115.103644806341,92.,3.));
#496=CARTESIAN_POINT('',(115.103644806341,69.25,3.));
#497=CARTESIAN_POINT('',(115.103644806341,81.7890773348475,48.));
#498=CARTESIAN_POINT('',(115.103644806341,81.7890773348475,0.));
#499=CARTESIAN_POINT('',(115.103644806341,92.,48.));
#500=CARTESIAN_POINT('',(115.103644806341,92.,48.));
#501=CARTESIAN_POINT('',(115.103644806341,92.,0.));
#502=CARTESIAN_POINT('Origin',(98.5,46.5,0.));
#503=CARTESIAN_POINT('',(115.103644806341,11.2109226651525,3.));
#504=CARTESIAN_POINT('Origin',(98.5,46.5,3.));
#505=CARTESIAN_POINT('',(115.103644806341,11.2109226651525,48.));
#506=CARTESIAN_POINT('',(115.103644806341,11.2109226651525,0.));
#507=CARTESIAN_POINT('Origin',(98.5,46.5,48.));
#508=CARTESIAN_POINT('Origin',(115.103644806341,11.2109226651525,0.));
#509=CARTESIAN_POINT('',(115.103644806341,0.999999999999996,3.));
#510=CARTESIAN_POINT('',(115.103644806341,28.8554613325762,3.));
#511=CARTESIAN_POINT('',(115.103644806341,0.999999999999996,48.));
#512=CARTESIAN_POINT('',(115.103644806341,0.999999999999999,0.));
#513=CARTESIAN_POINT('',(115.103644806341,0.999999999999999,48.));
#514=CARTESIAN_POINT('Origin',(98.5,46.5,48.));
#515=CARTESIAN_POINT('',(117.103092783505,3.0810425421873,48.));
#516=CARTESIAN_POINT('Origin',(118.,0.218254138375462,48.));
#517=CARTESIAN_POINT('',(117.103092783505,89.9189574578127,48.));
#518=CARTESIAN_POINT('Origin',(103.5,46.5,48.));
#519=CARTESIAN_POINT('Origin',(118.,92.7817458616245,48.));
#520=CARTESIAN_POINT('Origin',(98.5,46.5,3.));
#521=CARTESIAN_POINT('',(81.8963551936586,1.,3.));
#522=CARTESIAN_POINT('',(115.103644806341,92.,3.));
#523=CARTESIAN_POINT('Origin',(79.,92.7817458616245,0.));
#524=CARTESIAN_POINT('',(79.8969072164949,89.9189574578127,0.));
#525=CARTESIAN_POINT('',(81.8963551936586,92.,0.));
#526=CARTESIAN_POINT('Origin',(79.,92.7817458616245,0.));
#527=CARTESIAN_POINT('',(79.8969072164949,89.9189574578127,0.));
#528=CARTESIAN_POINT('',(81.8963551936586,92.,0.));
#529=CARTESIAN_POINT('Origin',(115.103644806341,92.,0.));
#530=CARTESIAN_POINT('',(115.103644806341,92.,0.));
#531=CARTESIAN_POINT('',(115.103644806341,92.,0.));
#532=CARTESIAN_POINT('',(115.103644806341,92.,0.));
#533=CARTESIAN_POINT('Origin',(118.,92.7817458616245,0.));
#534=CARTESIAN_POINT('',(117.103092783505,89.9189574578127,0.));
#535=CARTESIAN_POINT('Origin',(118.,92.7817458616245,0.));
#536=CARTESIAN_POINT('',(117.103092783505,89.9189574578127,0.));
#537=CARTESIAN_POINT('Origin',(103.5,46.5,0.));
#538=CARTESIAN_POINT('',(117.103092783505,3.0810425421873,0.));
#539=CARTESIAN_POINT('Origin',(103.5,46.5,0.));
#540=CARTESIAN_POINT('',(117.103092783505,3.0810425421873,0.));
#541=CARTESIAN_POINT('Origin',(118.,0.218254138375462,0.));
#542=CARTESIAN_POINT('',(115.103644806341,0.999999999999999,0.));
#543=CARTESIAN_POINT('Origin',(118.,0.218254138375462,0.));
#544=CARTESIAN_POINT('',(115.103644806341,0.999999999999999,0.));
#545=CARTESIAN_POINT('Origin',(81.8963551936586,1.,0.));
#546=CARTESIAN_POINT('',(81.8963551936586,1.,0.));
#547=CARTESIAN_POINT('',(81.8963551936586,1.,0.));
#548=CARTESIAN_POINT('',(81.8963551936586,1.,0.));
#549=CARTESIAN_POINT('Origin',(79.,0.218254138375462,0.));
#550=CARTESIAN_POINT('',(79.8969072164948,3.0810425421873,0.));
#551=CARTESIAN_POINT('Origin',(79.,0.218254138375462,0.));
#552=CARTESIAN_POINT('',(79.8969072164948,3.0810425421873,0.));
#553=CARTESIAN_POINT('Origin',(93.5,46.5,0.));
#554=CARTESIAN_POINT('Origin',(93.5,46.5,0.));
#555=CARTESIAN_POINT('Origin',(98.5,46.5,0.));
#556=UNCERTAINTY_MEASURE_WITH_UNIT(LENGTH_MEASURE(0.01),#560,
'DISTANCE_ACCURACY_VALUE',
'Maximum model space distance between geometric entities at asserted c
onnectivities');
#557=UNCERTAINTY_MEASURE_WITH_UNIT(LENGTH_MEASURE(0.01),#560,
'DISTANCE_ACCURACY_VALUE',
'Maximum model space distance between geometric entities at asserted c
onnectivities');
#558=(
GEOMETRIC_REPRESENTATION_CONTEXT(3)
GLOBAL_UNCERTAINTY_ASSIGNED_CONTEXT((#556))
GLOBAL_UNIT_ASSIGNED_CONTEXT((#560,#562,#563))
REPRESENTATION_CONTEXT('','3D')
);
#559=(
GEOMETRIC_REPRESENTATION_CONTEXT(3)
GLOBAL_UNCERTAINTY_ASSIGNED_CONTEXT((#557))
GLOBAL_UNIT_ASSIGNED_CONTEXT((#560,#562,#563))
REPRESENTATION_CONTEXT('','3D')
);
#560=(
LENGTH_UNIT()
NAMED_UNIT(*)
SI_UNIT(.MILLI.,.METRE.)
);
#561=(
LENGTH_UNIT()
NAMED_UNIT(*)
SI_UNIT($,.METRE.)
);
#562=(
NAMED_UNIT(*)
PLANE_ANGLE_UNIT()
SI_UNIT($,.RADIAN.)
);
#563=(
NAMED_UNIT(*)
SI_UNIT($,.STERADIAN.)
SOLID_ANGLE_UNIT()
);
#564=SHAPE_DEFINITION_REPRESENTATION(#565,#566);
#565=PRODUCT_DEFINITION_SHAPE('',$,#568);
#566=SHAPE_REPRESENTATION('',(#332),#558);
#567=PRODUCT_DEFINITION_CONTEXT('part definition',#572,'design');
#568=PRODUCT_DEFINITION('bruh_couch_arm_cupholder',
'bruh_couch_arm_cupholder v5',#569,#567);
#569=PRODUCT_DEFINITION_FORMATION('',$,#574);
#570=PRODUCT_RELATED_PRODUCT_CATEGORY('bruh_couch_arm_cupholder v5',
'bruh_couch_arm_cupholder v5',(#574));
#571=APPLICATION_PROTOCOL_DEFINITION('international standard',
'automotive_design',2009,#572);
#572=APPLICATION_CONTEXT(
'Core Data for Automotive Mechanical Design Process');
#573=PRODUCT_CONTEXT('part definition',#572,'mechanical');
#574=PRODUCT('bruh_couch_arm_cupholder','bruh_couch_arm_cupholder v5',$,
(#573));
#575=PRESENTATION_STYLE_ASSIGNMENT((#577));
#576=PRESENTATION_STYLE_ASSIGNMENT((#578));
#577=SURFACE_STYLE_USAGE(.BOTH.,#579);
#578=SURFACE_STYLE_USAGE(.BOTH.,#580);
#579=SURFACE_SIDE_STYLE('',(#581));
#580=SURFACE_SIDE_STYLE('',(#582));
#581=SURFACE_STYLE_FILL_AREA(#583);
#582=SURFACE_STYLE_FILL_AREA(#584);
#583=FILL_AREA_STYLE('Steel - Satin',(#585));
#584=FILL_AREA_STYLE('Steel - Satin (1)',(#586));
#585=FILL_AREA_STYLE_COLOUR('Steel - Satin',#587);
#586=FILL_AREA_STYLE_COLOUR('Steel - Satin (1)',#588);
#587=COLOUR_RGB('Steel - Satin',0.627450980392157,0.627450980392157,0.627450980392157);
#588=COLOUR_RGB('Steel - Satin (1)',0.282352941176471,0.713725490196078,
1.);
ENDSEC;
END-ISO-10303-21;
