ISO-10303-21;
HEADER;
/* Generated by software containing ST-Developer
 * from STEP Tools, Inc. (www.steptools.com) 
 */

FILE_DESCRIPTION(
/* description */ (''),
/* implementation_level */ '2;1');

FILE_NAME(
/* name */ 'dewalt_gyro_screwdriver_holder_v4.step',
/* time_stamp */ '2026-03-17T23:34:31-04:00',
/* author */ (''),
/* organization */ (''),
/* preprocessor_version */ 'ST-DEVELOPER v20.1',
/* originating_system */ 'Autodesk Translation Framework v14.24.0.0',
/* authorisation */ '');

FILE_SCHEMA (('AUTOMOTIVE_DESIGN { 1 0 10303 214 3 1 1 }'));
ENDSEC;

DATA;
#10=MECHANICAL_DESIGN_GEOMETRIC_PRESENTATION_REPRESENTATION('',(#15,#16),
#755);
#11=SHAPE_REPRESENTATION_RELATIONSHIP('SRR','None',#762,#12);
#12=ADVANCED_BREP_SHAPE_REPRESENTATION('',(#17,#18),#754);
#13=TOROIDAL_SURFACE('',#477,11.,1.);
#14=TOROIDAL_SURFACE('',#487,11.,1.);
#15=STYLED_ITEM('',(#771),#17);
#16=STYLED_ITEM('',(#771),#18);
#17=MANIFOLD_SOLID_BREP('Body1',#430);
#18=MANIFOLD_SOLID_BREP('Body2',#431);
#19=FACE_BOUND('',#67,.T.);
#20=FACE_BOUND('',#70,.T.);
#21=FACE_BOUND('',#76,.T.);
#22=FACE_BOUND('',#77,.T.);
#23=FACE_BOUND('',#85,.T.);
#24=FACE_BOUND('',#86,.T.);
#25=FACE_BOUND('',#90,.T.);
#26=FACE_BOUND('',#93,.T.);
#27=PLANE('',#448);
#28=PLANE('',#453);
#29=PLANE('',#462);
#30=PLANE('',#463);
#31=PLANE('',#469);
#32=PLANE('',#474);
#33=PLANE('',#475);
#34=PLANE('',#476);
#35=PLANE('',#485);
#36=PLANE('',#490);
#37=PLANE('',#492);
#38=PLANE('',#493);
#39=PLANE('',#494);
#40=FACE_OUTER_BOUND('',#65,.T.);
#41=FACE_OUTER_BOUND('',#66,.T.);
#42=FACE_OUTER_BOUND('',#68,.T.);
#43=FACE_OUTER_BOUND('',#69,.T.);
#44=FACE_OUTER_BOUND('',#71,.T.);
#45=FACE_OUTER_BOUND('',#72,.T.);
#46=FACE_OUTER_BOUND('',#73,.T.);
#47=FACE_OUTER_BOUND('',#74,.T.);
#48=FACE_OUTER_BOUND('',#75,.T.);
#49=FACE_OUTER_BOUND('',#78,.T.);
#50=FACE_OUTER_BOUND('',#79,.T.);
#51=FACE_OUTER_BOUND('',#80,.T.);
#52=FACE_OUTER_BOUND('',#81,.T.);
#53=FACE_OUTER_BOUND('',#82,.T.);
#54=FACE_OUTER_BOUND('',#83,.T.);
#55=FACE_OUTER_BOUND('',#84,.T.);
#56=FACE_OUTER_BOUND('',#87,.T.);
#57=FACE_OUTER_BOUND('',#88,.T.);
#58=FACE_OUTER_BOUND('',#89,.T.);
#59=FACE_OUTER_BOUND('',#91,.T.);
#60=FACE_OUTER_BOUND('',#92,.T.);
#61=FACE_OUTER_BOUND('',#94,.T.);
#62=FACE_OUTER_BOUND('',#95,.T.);
#63=FACE_OUTER_BOUND('',#96,.T.);
#64=FACE_OUTER_BOUND('',#97,.T.);
#65=EDGE_LOOP('',(#281,#282,#283,#284));
#66=EDGE_LOOP('',(#285));
#67=EDGE_LOOP('',(#286));
#68=EDGE_LOOP('',(#287,#288,#289,#290));
#69=EDGE_LOOP('',(#291));
#70=EDGE_LOOP('',(#292));
#71=EDGE_LOOP('',(#293,#294,#295,#296));
#72=EDGE_LOOP('',(#297,#298,#299,#300));
#73=EDGE_LOOP('',(#301,#302,#303,#304));
#74=EDGE_LOOP('',(#305,#306,#307,#308));
#75=EDGE_LOOP('',(#309,#310,#311,#312,#313,#314,#315,#316));
#76=EDGE_LOOP('',(#317));
#77=EDGE_LOOP('',(#318));
#78=EDGE_LOOP('',(#319,#320,#321,#322));
#79=EDGE_LOOP('',(#323,#324,#325,#326));
#80=EDGE_LOOP('',(#327,#328,#329,#330));
#81=EDGE_LOOP('',(#331,#332,#333,#334));
#82=EDGE_LOOP('',(#335,#336,#337,#338));
#83=EDGE_LOOP('',(#339,#340,#341,#342));
#84=EDGE_LOOP('',(#343,#344,#345,#346,#347,#348,#349,#350));
#85=EDGE_LOOP('',(#351));
#86=EDGE_LOOP('',(#352));
#87=EDGE_LOOP('',(#353,#354,#355,#356,#357));
#88=EDGE_LOOP('',(#358,#359,#360,#361,#362,#363));
#89=EDGE_LOOP('',(#364,#365,#366,#367));
#90=EDGE_LOOP('',(#368));
#91=EDGE_LOOP('',(#369,#370,#371,#372,#373));
#92=EDGE_LOOP('',(#374,#375,#376,#377));
#93=EDGE_LOOP('',(#378));
#94=EDGE_LOOP('',(#379,#380,#381,#382));
#95=EDGE_LOOP('',(#383,#384,#385,#386));
#96=EDGE_LOOP('',(#387,#388,#389,#390));
#97=EDGE_LOOP('',(#391,#392,#393,#394));
#98=LINE('',#636,#129);
#99=LINE('',#645,#130);
#100=LINE('',#652,#131);
#101=LINE('',#656,#132);
#102=LINE('',#663,#133);
#103=LINE('',#666,#134);
#104=LINE('',#669,#135);
#105=LINE('',#671,#136);
#106=LINE('',#672,#137);
#107=LINE('',#675,#138);
#108=LINE('',#679,#139);
#109=LINE('',#683,#140);
#110=LINE('',#689,#141);
#111=LINE('',#690,#142);
#112=LINE('',#693,#143);
#113=LINE('',#694,#144);
#114=LINE('',#698,#145);
#115=LINE('',#702,#146);
#116=LINE('',#704,#147);
#117=LINE('',#706,#148);
#118=LINE('',#720,#149);
#119=LINE('',#727,#150);
#120=LINE('',#729,#151);
#121=LINE('',#730,#152);
#122=LINE('',#740,#153);
#123=LINE('',#742,#154);
#124=LINE('',#743,#155);
#125=LINE('',#745,#156);
#126=LINE('',#746,#157);
#127=LINE('',#748,#158);
#128=LINE('',#750,#159);
#129=VECTOR('',#502,4.);
#130=VECTOR('',#513,4.);
#131=VECTOR('',#522,1.5);
#132=VECTOR('',#527,1.5);
#133=VECTOR('',#534,10.);
#134=VECTOR('',#537,10.);
#135=VECTOR('',#540,10.);
#136=VECTOR('',#541,10.);
#137=VECTOR('',#542,10.);
#138=VECTOR('',#545,10.);
#139=VECTOR('',#548,10.);
#140=VECTOR('',#551,10.);
#141=VECTOR('',#558,10.);
#142=VECTOR('',#559,10.);
#143=VECTOR('',#562,10.);
#144=VECTOR('',#563,10.);
#145=VECTOR('',#568,10.);
#146=VECTOR('',#573,10.);
#147=VECTOR('',#576,10.);
#148=VECTOR('',#579,10.);
#149=VECTOR('',#596,10.);
#150=VECTOR('',#603,10.);
#151=VECTOR('',#604,10.);
#152=VECTOR('',#605,10.);
#153=VECTOR('',#616,10.);
#154=VECTOR('',#617,10.);
#155=VECTOR('',#618,10.);
#156=VECTOR('',#621,10.);
#157=VECTOR('',#622,10.);
#158=VECTOR('',#625,10.);
#159=VECTOR('',#628,10.);
#160=CIRCLE('',#446,4.);
#161=CIRCLE('',#447,4.);
#162=CIRCLE('',#449,1.5);
#163=CIRCLE('',#451,4.);
#164=CIRCLE('',#452,4.);
#165=CIRCLE('',#454,1.5);
#166=CIRCLE('',#456,1.5);
#167=CIRCLE('',#458,1.5);
#168=CIRCLE('',#460,6.);
#169=CIRCLE('',#461,6.);
#170=CIRCLE('',#464,6.);
#171=CIRCLE('',#465,6.);
#172=CIRCLE('',#466,6.);
#173=CIRCLE('',#468,6.);
#174=CIRCLE('',#471,6.);
#175=CIRCLE('',#473,6.);
#176=CIRCLE('',#478,11.);
#177=CIRCLE('',#479,1.);
#178=CIRCLE('',#480,10.);
#179=CIRCLE('',#481,10.);
#180=CIRCLE('',#483,10.);
#181=CIRCLE('',#484,10.);
#182=CIRCLE('',#486,12.);
#183=CIRCLE('',#488,11.);
#184=CIRCLE('',#489,1.);
#185=CIRCLE('',#491,12.);
#186=VERTEX_POINT('',#633);
#187=VERTEX_POINT('',#635);
#188=VERTEX_POINT('',#639);
#189=VERTEX_POINT('',#642);
#190=VERTEX_POINT('',#644);
#191=VERTEX_POINT('',#648);
#192=VERTEX_POINT('',#651);
#193=VERTEX_POINT('',#655);
#194=VERTEX_POINT('',#659);
#195=VERTEX_POINT('',#660);
#196=VERTEX_POINT('',#662);
#197=VERTEX_POINT('',#664);
#198=VERTEX_POINT('',#668);
#199=VERTEX_POINT('',#670);
#200=VERTEX_POINT('',#674);
#201=VERTEX_POINT('',#676);
#202=VERTEX_POINT('',#678);
#203=VERTEX_POINT('',#680);
#204=VERTEX_POINT('',#682);
#205=VERTEX_POINT('',#686);
#206=VERTEX_POINT('',#687);
#207=VERTEX_POINT('',#692);
#208=VERTEX_POINT('',#696);
#209=VERTEX_POINT('',#700);
#210=VERTEX_POINT('',#709);
#211=VERTEX_POINT('',#711);
#212=VERTEX_POINT('',#713);
#213=VERTEX_POINT('',#717);
#214=VERTEX_POINT('',#718);
#215=VERTEX_POINT('',#723);
#216=VERTEX_POINT('',#724);
#217=VERTEX_POINT('',#726);
#218=VERTEX_POINT('',#728);
#219=VERTEX_POINT('',#732);
#220=VERTEX_POINT('',#736);
#221=VERTEX_POINT('',#737);
#222=VERTEX_POINT('',#739);
#223=VERTEX_POINT('',#741);
#224=EDGE_CURVE('',#186,#186,#160,.T.);
#225=EDGE_CURVE('',#186,#187,#98,.T.);
#226=EDGE_CURVE('',#187,#187,#161,.T.);
#227=EDGE_CURVE('',#188,#188,#162,.T.);
#228=EDGE_CURVE('',#189,#189,#163,.T.);
#229=EDGE_CURVE('',#189,#190,#99,.T.);
#230=EDGE_CURVE('',#190,#190,#164,.T.);
#231=EDGE_CURVE('',#191,#191,#165,.T.);
#232=EDGE_CURVE('',#191,#192,#100,.T.);
#233=EDGE_CURVE('',#192,#192,#166,.T.);
#234=EDGE_CURVE('',#188,#193,#101,.T.);
#235=EDGE_CURVE('',#193,#193,#167,.T.);
#236=EDGE_CURVE('',#194,#195,#168,.T.);
#237=EDGE_CURVE('',#195,#196,#102,.T.);
#238=EDGE_CURVE('',#196,#197,#169,.T.);
#239=EDGE_CURVE('',#197,#194,#103,.T.);
#240=EDGE_CURVE('',#197,#198,#104,.T.);
#241=EDGE_CURVE('',#199,#198,#105,.T.);
#242=EDGE_CURVE('',#194,#199,#106,.T.);
#243=EDGE_CURVE('',#200,#196,#107,.T.);
#244=EDGE_CURVE('',#201,#200,#170,.T.);
#245=EDGE_CURVE('',#202,#201,#108,.T.);
#246=EDGE_CURVE('',#203,#202,#171,.T.);
#247=EDGE_CURVE('',#204,#203,#109,.T.);
#248=EDGE_CURVE('',#198,#204,#172,.T.);
#249=EDGE_CURVE('',#205,#206,#173,.T.);
#250=EDGE_CURVE('',#206,#201,#110,.T.);
#251=EDGE_CURVE('',#200,#205,#111,.T.);
#252=EDGE_CURVE('',#207,#206,#112,.T.);
#253=EDGE_CURVE('',#202,#207,#113,.T.);
#254=EDGE_CURVE('',#207,#208,#174,.T.);
#255=EDGE_CURVE('',#208,#203,#114,.T.);
#256=EDGE_CURVE('',#209,#199,#175,.T.);
#257=EDGE_CURVE('',#204,#209,#115,.T.);
#258=EDGE_CURVE('',#209,#208,#116,.T.);
#259=EDGE_CURVE('',#205,#195,#117,.T.);
#260=EDGE_CURVE('',#210,#210,#176,.T.);
#261=EDGE_CURVE('',#210,#211,#177,.T.);
#262=EDGE_CURVE('',#211,#212,#178,.T.);
#263=EDGE_CURVE('',#212,#211,#179,.T.);
#264=EDGE_CURVE('',#213,#214,#180,.T.);
#265=EDGE_CURVE('',#213,#212,#118,.T.);
#266=EDGE_CURVE('',#214,#213,#181,.T.);
#267=EDGE_CURVE('',#215,#216,#182,.T.);
#268=EDGE_CURVE('',#215,#217,#119,.T.);
#269=EDGE_CURVE('',#217,#218,#120,.T.);
#270=EDGE_CURVE('',#218,#216,#121,.T.);
#271=EDGE_CURVE('',#219,#219,#183,.T.);
#272=EDGE_CURVE('',#219,#214,#184,.T.);
#273=EDGE_CURVE('',#220,#221,#185,.T.);
#274=EDGE_CURVE('',#221,#222,#122,.T.);
#275=EDGE_CURVE('',#222,#223,#123,.T.);
#276=EDGE_CURVE('',#223,#220,#124,.T.);
#277=EDGE_CURVE('',#215,#220,#125,.T.);
#278=EDGE_CURVE('',#217,#223,#126,.T.);
#279=EDGE_CURVE('',#218,#222,#127,.T.);
#280=EDGE_CURVE('',#216,#221,#128,.T.);
#281=ORIENTED_EDGE('',*,*,#224,.F.);
#282=ORIENTED_EDGE('',*,*,#225,.T.);
#283=ORIENTED_EDGE('',*,*,#226,.T.);
#284=ORIENTED_EDGE('',*,*,#225,.F.);
#285=ORIENTED_EDGE('',*,*,#226,.F.);
#286=ORIENTED_EDGE('',*,*,#227,.F.);
#287=ORIENTED_EDGE('',*,*,#228,.F.);
#288=ORIENTED_EDGE('',*,*,#229,.T.);
#289=ORIENTED_EDGE('',*,*,#230,.T.);
#290=ORIENTED_EDGE('',*,*,#229,.F.);
#291=ORIENTED_EDGE('',*,*,#230,.F.);
#292=ORIENTED_EDGE('',*,*,#231,.F.);
#293=ORIENTED_EDGE('',*,*,#231,.T.);
#294=ORIENTED_EDGE('',*,*,#232,.T.);
#295=ORIENTED_EDGE('',*,*,#233,.F.);
#296=ORIENTED_EDGE('',*,*,#232,.F.);
#297=ORIENTED_EDGE('',*,*,#227,.T.);
#298=ORIENTED_EDGE('',*,*,#234,.T.);
#299=ORIENTED_EDGE('',*,*,#235,.F.);
#300=ORIENTED_EDGE('',*,*,#234,.F.);
#301=ORIENTED_EDGE('',*,*,#236,.T.);
#302=ORIENTED_EDGE('',*,*,#237,.T.);
#303=ORIENTED_EDGE('',*,*,#238,.T.);
#304=ORIENTED_EDGE('',*,*,#239,.T.);
#305=ORIENTED_EDGE('',*,*,#239,.F.);
#306=ORIENTED_EDGE('',*,*,#240,.T.);
#307=ORIENTED_EDGE('',*,*,#241,.F.);
#308=ORIENTED_EDGE('',*,*,#242,.F.);
#309=ORIENTED_EDGE('',*,*,#238,.F.);
#310=ORIENTED_EDGE('',*,*,#243,.F.);
#311=ORIENTED_EDGE('',*,*,#244,.F.);
#312=ORIENTED_EDGE('',*,*,#245,.F.);
#313=ORIENTED_EDGE('',*,*,#246,.F.);
#314=ORIENTED_EDGE('',*,*,#247,.F.);
#315=ORIENTED_EDGE('',*,*,#248,.F.);
#316=ORIENTED_EDGE('',*,*,#240,.F.);
#317=ORIENTED_EDGE('',*,*,#233,.T.);
#318=ORIENTED_EDGE('',*,*,#235,.T.);
#319=ORIENTED_EDGE('',*,*,#249,.T.);
#320=ORIENTED_EDGE('',*,*,#250,.T.);
#321=ORIENTED_EDGE('',*,*,#244,.T.);
#322=ORIENTED_EDGE('',*,*,#251,.T.);
#323=ORIENTED_EDGE('',*,*,#250,.F.);
#324=ORIENTED_EDGE('',*,*,#252,.F.);
#325=ORIENTED_EDGE('',*,*,#253,.F.);
#326=ORIENTED_EDGE('',*,*,#245,.T.);
#327=ORIENTED_EDGE('',*,*,#254,.T.);
#328=ORIENTED_EDGE('',*,*,#255,.T.);
#329=ORIENTED_EDGE('',*,*,#246,.T.);
#330=ORIENTED_EDGE('',*,*,#253,.T.);
#331=ORIENTED_EDGE('',*,*,#256,.T.);
#332=ORIENTED_EDGE('',*,*,#241,.T.);
#333=ORIENTED_EDGE('',*,*,#248,.T.);
#334=ORIENTED_EDGE('',*,*,#257,.T.);
#335=ORIENTED_EDGE('',*,*,#255,.F.);
#336=ORIENTED_EDGE('',*,*,#258,.F.);
#337=ORIENTED_EDGE('',*,*,#257,.F.);
#338=ORIENTED_EDGE('',*,*,#247,.T.);
#339=ORIENTED_EDGE('',*,*,#237,.F.);
#340=ORIENTED_EDGE('',*,*,#259,.F.);
#341=ORIENTED_EDGE('',*,*,#251,.F.);
#342=ORIENTED_EDGE('',*,*,#243,.T.);
#343=ORIENTED_EDGE('',*,*,#236,.F.);
#344=ORIENTED_EDGE('',*,*,#242,.T.);
#345=ORIENTED_EDGE('',*,*,#256,.F.);
#346=ORIENTED_EDGE('',*,*,#258,.T.);
#347=ORIENTED_EDGE('',*,*,#254,.F.);
#348=ORIENTED_EDGE('',*,*,#252,.T.);
#349=ORIENTED_EDGE('',*,*,#249,.F.);
#350=ORIENTED_EDGE('',*,*,#259,.T.);
#351=ORIENTED_EDGE('',*,*,#224,.T.);
#352=ORIENTED_EDGE('',*,*,#228,.T.);
#353=ORIENTED_EDGE('',*,*,#260,.T.);
#354=ORIENTED_EDGE('',*,*,#261,.T.);
#355=ORIENTED_EDGE('',*,*,#262,.T.);
#356=ORIENTED_EDGE('',*,*,#263,.T.);
#357=ORIENTED_EDGE('',*,*,#261,.F.);
#358=ORIENTED_EDGE('',*,*,#264,.F.);
#359=ORIENTED_EDGE('',*,*,#265,.T.);
#360=ORIENTED_EDGE('',*,*,#262,.F.);
#361=ORIENTED_EDGE('',*,*,#263,.F.);
#362=ORIENTED_EDGE('',*,*,#265,.F.);
#363=ORIENTED_EDGE('',*,*,#266,.F.);
#364=ORIENTED_EDGE('',*,*,#267,.F.);
#365=ORIENTED_EDGE('',*,*,#268,.T.);
#366=ORIENTED_EDGE('',*,*,#269,.T.);
#367=ORIENTED_EDGE('',*,*,#270,.T.);
#368=ORIENTED_EDGE('',*,*,#260,.F.);
#369=ORIENTED_EDGE('',*,*,#271,.T.);
#370=ORIENTED_EDGE('',*,*,#272,.T.);
#371=ORIENTED_EDGE('',*,*,#266,.T.);
#372=ORIENTED_EDGE('',*,*,#264,.T.);
#373=ORIENTED_EDGE('',*,*,#272,.F.);
#374=ORIENTED_EDGE('',*,*,#273,.T.);
#375=ORIENTED_EDGE('',*,*,#274,.T.);
#376=ORIENTED_EDGE('',*,*,#275,.T.);
#377=ORIENTED_EDGE('',*,*,#276,.T.);
#378=ORIENTED_EDGE('',*,*,#271,.F.);
#379=ORIENTED_EDGE('',*,*,#268,.F.);
#380=ORIENTED_EDGE('',*,*,#277,.T.);
#381=ORIENTED_EDGE('',*,*,#276,.F.);
#382=ORIENTED_EDGE('',*,*,#278,.F.);
#383=ORIENTED_EDGE('',*,*,#269,.F.);
#384=ORIENTED_EDGE('',*,*,#278,.T.);
#385=ORIENTED_EDGE('',*,*,#275,.F.);
#386=ORIENTED_EDGE('',*,*,#279,.F.);
#387=ORIENTED_EDGE('',*,*,#270,.F.);
#388=ORIENTED_EDGE('',*,*,#279,.T.);
#389=ORIENTED_EDGE('',*,*,#274,.F.);
#390=ORIENTED_EDGE('',*,*,#280,.F.);
#391=ORIENTED_EDGE('',*,*,#267,.T.);
#392=ORIENTED_EDGE('',*,*,#280,.T.);
#393=ORIENTED_EDGE('',*,*,#273,.F.);
#394=ORIENTED_EDGE('',*,*,#277,.F.);
#395=CYLINDRICAL_SURFACE('',#445,4.);
#396=CYLINDRICAL_SURFACE('',#450,4.);
#397=CYLINDRICAL_SURFACE('',#455,1.5);
#398=CYLINDRICAL_SURFACE('',#457,1.5);
#399=CYLINDRICAL_SURFACE('',#459,6.);
#400=CYLINDRICAL_SURFACE('',#467,6.);
#401=CYLINDRICAL_SURFACE('',#470,6.);
#402=CYLINDRICAL_SURFACE('',#472,6.);
#403=CYLINDRICAL_SURFACE('',#482,10.);
#404=CYLINDRICAL_SURFACE('',#495,12.);
#405=ADVANCED_FACE('',(#40),#395,.F.);
#406=ADVANCED_FACE('',(#41,#19),#27,.T.);
#407=ADVANCED_FACE('',(#42),#396,.F.);
#408=ADVANCED_FACE('',(#43,#20),#28,.T.);
#409=ADVANCED_FACE('',(#44),#397,.F.);
#410=ADVANCED_FACE('',(#45),#398,.F.);
#411=ADVANCED_FACE('',(#46),#399,.T.);
#412=ADVANCED_FACE('',(#47),#29,.T.);
#413=ADVANCED_FACE('',(#48,#21,#22),#30,.F.);
#414=ADVANCED_FACE('',(#49),#400,.T.);
#415=ADVANCED_FACE('',(#50),#31,.T.);
#416=ADVANCED_FACE('',(#51),#401,.T.);
#417=ADVANCED_FACE('',(#52),#402,.T.);
#418=ADVANCED_FACE('',(#53),#32,.T.);
#419=ADVANCED_FACE('',(#54),#33,.T.);
#420=ADVANCED_FACE('',(#55,#23,#24),#34,.T.);
#421=ADVANCED_FACE('',(#56),#13,.T.);
#422=ADVANCED_FACE('',(#57),#403,.F.);
#423=ADVANCED_FACE('',(#58,#25),#35,.F.);
#424=ADVANCED_FACE('',(#59),#14,.T.);
#425=ADVANCED_FACE('',(#60,#26),#36,.T.);
#426=ADVANCED_FACE('',(#61),#37,.T.);
#427=ADVANCED_FACE('',(#62),#38,.T.);
#428=ADVANCED_FACE('',(#63),#39,.T.);
#429=ADVANCED_FACE('',(#64),#404,.T.);
#430=CLOSED_SHELL('',(#405,#406,#407,#408,#409,#410,#411,#412,#413,#414,
#415,#416,#417,#418,#419,#420));
#431=CLOSED_SHELL('',(#421,#422,#423,#424,#425,#426,#427,#428,#429));
#432=DERIVED_UNIT_ELEMENT(#434,1.);
#433=DERIVED_UNIT_ELEMENT(#757,-3.);
#434=(
MASS_UNIT()
NAMED_UNIT(*)
SI_UNIT(.KILO.,.GRAM.)
);
#435=DERIVED_UNIT((#432,#433));
#436=MEASURE_REPRESENTATION_ITEM('density measure',
POSITIVE_RATIO_MEASURE(7850.),#435);
#437=PROPERTY_DEFINITION_REPRESENTATION(#442,#439);
#438=PROPERTY_DEFINITION_REPRESENTATION(#443,#440);
#439=REPRESENTATION('material name',(#441),#754);
#440=REPRESENTATION('density',(#436),#754);
#441=DESCRIPTIVE_REPRESENTATION_ITEM('Steel','Steel');
#442=PROPERTY_DEFINITION('material property','material name',#764);
#443=PROPERTY_DEFINITION('material property','density of part',#764);
#444=AXIS2_PLACEMENT_3D('',#631,#496,#497);
#445=AXIS2_PLACEMENT_3D('',#632,#498,#499);
#446=AXIS2_PLACEMENT_3D('',#634,#500,#501);
#447=AXIS2_PLACEMENT_3D('',#637,#503,#504);
#448=AXIS2_PLACEMENT_3D('',#638,#505,#506);
#449=AXIS2_PLACEMENT_3D('',#640,#507,#508);
#450=AXIS2_PLACEMENT_3D('',#641,#509,#510);
#451=AXIS2_PLACEMENT_3D('',#643,#511,#512);
#452=AXIS2_PLACEMENT_3D('',#646,#514,#515);
#453=AXIS2_PLACEMENT_3D('',#647,#516,#517);
#454=AXIS2_PLACEMENT_3D('',#649,#518,#519);
#455=AXIS2_PLACEMENT_3D('',#650,#520,#521);
#456=AXIS2_PLACEMENT_3D('',#653,#523,#524);
#457=AXIS2_PLACEMENT_3D('',#654,#525,#526);
#458=AXIS2_PLACEMENT_3D('',#657,#528,#529);
#459=AXIS2_PLACEMENT_3D('',#658,#530,#531);
#460=AXIS2_PLACEMENT_3D('',#661,#532,#533);
#461=AXIS2_PLACEMENT_3D('',#665,#535,#536);
#462=AXIS2_PLACEMENT_3D('',#667,#538,#539);
#463=AXIS2_PLACEMENT_3D('',#673,#543,#544);
#464=AXIS2_PLACEMENT_3D('',#677,#546,#547);
#465=AXIS2_PLACEMENT_3D('',#681,#549,#550);
#466=AXIS2_PLACEMENT_3D('',#684,#552,#553);
#467=AXIS2_PLACEMENT_3D('',#685,#554,#555);
#468=AXIS2_PLACEMENT_3D('',#688,#556,#557);
#469=AXIS2_PLACEMENT_3D('',#691,#560,#561);
#470=AXIS2_PLACEMENT_3D('',#695,#564,#565);
#471=AXIS2_PLACEMENT_3D('',#697,#566,#567);
#472=AXIS2_PLACEMENT_3D('',#699,#569,#570);
#473=AXIS2_PLACEMENT_3D('',#701,#571,#572);
#474=AXIS2_PLACEMENT_3D('',#703,#574,#575);
#475=AXIS2_PLACEMENT_3D('',#705,#577,#578);
#476=AXIS2_PLACEMENT_3D('',#707,#580,#581);
#477=AXIS2_PLACEMENT_3D('',#708,#582,#583);
#478=AXIS2_PLACEMENT_3D('',#710,#584,#585);
#479=AXIS2_PLACEMENT_3D('',#712,#586,#587);
#480=AXIS2_PLACEMENT_3D('',#714,#588,#589);
#481=AXIS2_PLACEMENT_3D('',#715,#590,#591);
#482=AXIS2_PLACEMENT_3D('',#716,#592,#593);
#483=AXIS2_PLACEMENT_3D('',#719,#594,#595);
#484=AXIS2_PLACEMENT_3D('',#721,#597,#598);
#485=AXIS2_PLACEMENT_3D('',#722,#599,#600);
#486=AXIS2_PLACEMENT_3D('',#725,#601,#602);
#487=AXIS2_PLACEMENT_3D('',#731,#606,#607);
#488=AXIS2_PLACEMENT_3D('',#733,#608,#609);
#489=AXIS2_PLACEMENT_3D('',#734,#610,#611);
#490=AXIS2_PLACEMENT_3D('',#735,#612,#613);
#491=AXIS2_PLACEMENT_3D('',#738,#614,#615);
#492=AXIS2_PLACEMENT_3D('',#744,#619,#620);
#493=AXIS2_PLACEMENT_3D('',#747,#623,#624);
#494=AXIS2_PLACEMENT_3D('',#749,#626,#627);
#495=AXIS2_PLACEMENT_3D('',#751,#629,#630);
#496=DIRECTION('axis',(0.,0.,1.));
#497=DIRECTION('refdir',(1.,0.,0.));
#498=DIRECTION('center_axis',(0.,0.,-1.));
#499=DIRECTION('ref_axis',(1.,0.,0.));
#500=DIRECTION('center_axis',(0.,0.,-1.));
#501=DIRECTION('ref_axis',(1.,0.,0.));
#502=DIRECTION('',(0.,0.,-1.));
#503=DIRECTION('center_axis',(0.,0.,-1.));
#504=DIRECTION('ref_axis',(1.,0.,0.));
#505=DIRECTION('center_axis',(0.,0.,1.));
#506=DIRECTION('ref_axis',(1.,0.,0.));
#507=DIRECTION('center_axis',(0.,0.,1.));
#508=DIRECTION('ref_axis',(1.,0.,0.));
#509=DIRECTION('center_axis',(0.,0.,-1.));
#510=DIRECTION('ref_axis',(1.,0.,0.));
#511=DIRECTION('center_axis',(0.,0.,-1.));
#512=DIRECTION('ref_axis',(1.,0.,0.));
#513=DIRECTION('',(0.,0.,-1.));
#514=DIRECTION('center_axis',(0.,0.,-1.));
#515=DIRECTION('ref_axis',(1.,0.,0.));
#516=DIRECTION('center_axis',(0.,0.,1.));
#517=DIRECTION('ref_axis',(1.,0.,0.));
#518=DIRECTION('center_axis',(0.,0.,1.));
#519=DIRECTION('ref_axis',(1.,0.,0.));
#520=DIRECTION('center_axis',(0.,0.,-1.));
#521=DIRECTION('ref_axis',(1.,0.,0.));
#522=DIRECTION('',(0.,0.,-1.));
#523=DIRECTION('center_axis',(0.,0.,1.));
#524=DIRECTION('ref_axis',(1.,0.,0.));
#525=DIRECTION('center_axis',(0.,0.,-1.));
#526=DIRECTION('ref_axis',(1.,0.,0.));
#527=DIRECTION('',(0.,0.,-1.));
#528=DIRECTION('center_axis',(0.,0.,1.));
#529=DIRECTION('ref_axis',(1.,0.,0.));
#530=DIRECTION('center_axis',(0.,0.,1.));
#531=DIRECTION('ref_axis',(0.707106781186548,-0.707106781186547,0.));
#532=DIRECTION('center_axis',(0.,0.,-1.));
#533=DIRECTION('ref_axis',(0.707106781186548,-0.707106781186547,0.));
#534=DIRECTION('',(0.,0.,-1.));
#535=DIRECTION('center_axis',(0.,0.,1.));
#536=DIRECTION('ref_axis',(0.707106781186548,-0.707106781186547,0.));
#537=DIRECTION('',(0.,0.,1.));
#538=DIRECTION('center_axis',(1.,0.,0.));
#539=DIRECTION('ref_axis',(0.,1.,0.));
#540=DIRECTION('',(0.,1.,0.));
#541=DIRECTION('',(0.,0.,-1.));
#542=DIRECTION('',(0.,1.,0.));
#543=DIRECTION('center_axis',(0.,0.,1.));
#544=DIRECTION('ref_axis',(1.,0.,0.));
#545=DIRECTION('',(1.,3.23515791183158E-33,0.));
#546=DIRECTION('center_axis',(0.,0.,1.));
#547=DIRECTION('ref_axis',(-0.707106781186548,-0.707106781186548,0.));
#548=DIRECTION('',(3.23515791183158E-33,-1.,0.));
#549=DIRECTION('center_axis',(0.,0.,1.));
#550=DIRECTION('ref_axis',(-0.707106781186548,0.707106781186547,0.));
#551=DIRECTION('',(-1.,0.,0.));
#552=DIRECTION('center_axis',(0.,0.,1.));
#553=DIRECTION('ref_axis',(0.707106781186547,0.707106781186548,0.));
#554=DIRECTION('center_axis',(0.,0.,1.));
#555=DIRECTION('ref_axis',(-0.707106781186548,-0.707106781186548,0.));
#556=DIRECTION('center_axis',(0.,0.,-1.));
#557=DIRECTION('ref_axis',(-0.707106781186548,-0.707106781186548,0.));
#558=DIRECTION('',(0.,0.,-1.));
#559=DIRECTION('',(0.,0.,1.));
#560=DIRECTION('center_axis',(-1.,-3.23515791183158E-33,0.));
#561=DIRECTION('ref_axis',(3.23515791183158E-33,-1.,0.));
#562=DIRECTION('',(3.23515791183158E-33,-1.,0.));
#563=DIRECTION('',(0.,0.,1.));
#564=DIRECTION('center_axis',(0.,0.,1.));
#565=DIRECTION('ref_axis',(-0.707106781186548,0.707106781186547,0.));
#566=DIRECTION('center_axis',(0.,0.,-1.));
#567=DIRECTION('ref_axis',(-0.707106781186548,0.707106781186547,0.));
#568=DIRECTION('',(0.,0.,-1.));
#569=DIRECTION('center_axis',(0.,0.,1.));
#570=DIRECTION('ref_axis',(0.707106781186547,0.707106781186548,0.));
#571=DIRECTION('center_axis',(0.,0.,-1.));
#572=DIRECTION('ref_axis',(0.707106781186547,0.707106781186548,0.));
#573=DIRECTION('',(0.,0.,1.));
#574=DIRECTION('center_axis',(0.,1.,0.));
#575=DIRECTION('ref_axis',(-1.,0.,0.));
#576=DIRECTION('',(-1.,0.,0.));
#577=DIRECTION('center_axis',(3.23515791183158E-33,-1.,0.));
#578=DIRECTION('ref_axis',(1.,3.23515791183158E-33,0.));
#579=DIRECTION('',(1.,3.23515791183158E-33,0.));
#580=DIRECTION('center_axis',(0.,0.,1.));
#581=DIRECTION('ref_axis',(1.,0.,0.));
#582=DIRECTION('center_axis',(0.,1.,-1.22464679914735E-16));
#583=DIRECTION('ref_axis',(0.,1.48029736616688E-16,1.));
#584=DIRECTION('center_axis',(0.,-1.,1.22464679914735E-16));
#585=DIRECTION('ref_axis',(-1.,-1.49975978266186E-33,-1.22464679914735E-17));
#586=DIRECTION('center_axis',(-1.,2.26605178907815E-32,1.85037170770859E-16));
#587=DIRECTION('ref_axis',(-1.85037170770859E-16,-1.85037170770859E-16,
-1.));
#588=DIRECTION('center_axis',(0.,1.,-1.22464679914735E-16));
#589=DIRECTION('ref_axis',(-1.,0.,-1.22464679914735E-17));
#590=DIRECTION('center_axis',(0.,1.,-1.22464679914735E-16));
#591=DIRECTION('ref_axis',(-1.,0.,-1.22464679914735E-17));
#592=DIRECTION('center_axis',(0.,-1.,0.));
#593=DIRECTION('ref_axis',(-1.,0.,0.));
#594=DIRECTION('center_axis',(0.,-1.,1.22464679914735E-16));
#595=DIRECTION('ref_axis',(-1.,0.,1.22464679914735E-17));
#596=DIRECTION('',(0.,-1.,0.));
#597=DIRECTION('center_axis',(0.,-1.,1.22464679914735E-16));
#598=DIRECTION('ref_axis',(-1.,0.,1.22464679914735E-17));
#599=DIRECTION('center_axis',(0.,1.,-1.22464679914735E-16));
#600=DIRECTION('ref_axis',(-1.,0.,0.));
#601=DIRECTION('center_axis',(0.,1.,-1.22464679914735E-16));
#602=DIRECTION('ref_axis',(-1.,-1.13302589453908E-31,-9.25185853854298E-16));
#603=DIRECTION('',(0.,-1.22464679914735E-16,-1.));
#604=DIRECTION('',(1.,0.,0.));
#605=DIRECTION('',(0.,1.22464679914735E-16,1.));
#606=DIRECTION('center_axis',(0.,-1.,1.22464679914735E-16));
#607=DIRECTION('ref_axis',(0.,0.,-1.));
#608=DIRECTION('center_axis',(0.,1.,-1.22464679914735E-16));
#609=DIRECTION('ref_axis',(-1.,1.49975978266186E-33,1.22464679914735E-17));
#610=DIRECTION('center_axis',(-1.,-2.26605178907815E-32,-1.85037170770859E-16));
#611=DIRECTION('ref_axis',(-1.85037170770859E-16,0.,1.));
#612=DIRECTION('center_axis',(0.,1.,-1.22464679914735E-16));
#613=DIRECTION('ref_axis',(-1.,0.,0.));
#614=DIRECTION('center_axis',(0.,1.,-1.22464679914735E-16));
#615=DIRECTION('ref_axis',(-1.,-1.13302589453908E-31,-9.25185853854298E-16));
#616=DIRECTION('',(0.,-1.22464679914735E-16,-1.));
#617=DIRECTION('',(-1.,0.,0.));
#618=DIRECTION('',(0.,1.22464679914735E-16,1.));
#619=DIRECTION('center_axis',(-1.,0.,0.));
#620=DIRECTION('ref_axis',(0.,1.22464679914735E-16,1.));
#621=DIRECTION('',(0.,1.,-1.22464679914735E-16));
#622=DIRECTION('',(0.,1.,-1.22464679914735E-16));
#623=DIRECTION('center_axis',(0.,-1.22464679914735E-16,-1.));
#624=DIRECTION('ref_axis',(-1.,0.,0.));
#625=DIRECTION('',(0.,1.,-1.22464679914735E-16));
#626=DIRECTION('center_axis',(1.,0.,0.));
#627=DIRECTION('ref_axis',(0.,-1.22464679914735E-16,-1.));
#628=DIRECTION('',(0.,1.,-1.22464679914735E-16));
#629=DIRECTION('center_axis',(0.,1.,-1.22464679914735E-16));
#630=DIRECTION('ref_axis',(-1.,-1.13302589453908E-31,-9.25185853854298E-16));
#631=CARTESIAN_POINT('',(0.,0.,0.));
#632=CARTESIAN_POINT('Origin',(19.05,33.1,1.));
#633=CARTESIAN_POINT('',(15.05,33.1,1.));
#634=CARTESIAN_POINT('Origin',(19.05,33.1,1.));
#635=CARTESIAN_POINT('',(15.05,33.1,0.25));
#636=CARTESIAN_POINT('',(15.05,33.1,1.));
#637=CARTESIAN_POINT('Origin',(19.05,33.1,0.25));
#638=CARTESIAN_POINT('Origin',(19.05,33.1,0.25));
#639=CARTESIAN_POINT('',(17.55,33.1,0.25));
#640=CARTESIAN_POINT('Origin',(19.05,33.1,0.25));
#641=CARTESIAN_POINT('Origin',(19.05,5.,1.));
#642=CARTESIAN_POINT('',(15.05,5.,1.));
#643=CARTESIAN_POINT('Origin',(19.05,5.,1.));
#644=CARTESIAN_POINT('',(15.05,5.,0.25));
#645=CARTESIAN_POINT('',(15.05,5.,1.));
#646=CARTESIAN_POINT('Origin',(19.05,5.,0.25));
#647=CARTESIAN_POINT('Origin',(19.05,5.,0.25));
#648=CARTESIAN_POINT('',(17.55,5.,0.25));
#649=CARTESIAN_POINT('Origin',(19.05,5.,0.25));
#650=CARTESIAN_POINT('Origin',(19.05,5.,1.));
#651=CARTESIAN_POINT('',(17.55,5.,0.));
#652=CARTESIAN_POINT('',(17.55,5.,1.));
#653=CARTESIAN_POINT('Origin',(19.05,5.,0.));
#654=CARTESIAN_POINT('Origin',(19.05,33.1,1.));
#655=CARTESIAN_POINT('',(17.55,33.1,0.));
#656=CARTESIAN_POINT('',(17.55,33.1,1.));
#657=CARTESIAN_POINT('Origin',(19.05,33.1,0.));
#658=CARTESIAN_POINT('Origin',(32.1,6.,0.));
#659=CARTESIAN_POINT('',(38.1,6.,1.));
#660=CARTESIAN_POINT('',(32.1,1.03848568969794E-31,1.));
#661=CARTESIAN_POINT('Origin',(32.1,6.,1.));
#662=CARTESIAN_POINT('',(32.1,1.03848568969794E-31,0.));
#663=CARTESIAN_POINT('',(32.1,0.,0.));
#664=CARTESIAN_POINT('',(38.1,6.,0.));
#665=CARTESIAN_POINT('Origin',(32.1,6.,0.));
#666=CARTESIAN_POINT('',(38.1,6.,0.));
#667=CARTESIAN_POINT('Origin',(38.1,1.23259516440783E-31,0.));
#668=CARTESIAN_POINT('',(38.1,32.1,0.));
#669=CARTESIAN_POINT('',(38.1,1.23259516440783E-31,0.));
#670=CARTESIAN_POINT('',(38.1,32.1,1.));
#671=CARTESIAN_POINT('',(38.1,32.1,0.));
#672=CARTESIAN_POINT('',(38.1,1.23259516440783E-31,1.));
#673=CARTESIAN_POINT('Origin',(19.05,19.05,0.));
#674=CARTESIAN_POINT('',(6.,1.94109474709895E-32,0.));
#675=CARTESIAN_POINT('',(0.,0.,0.));
#676=CARTESIAN_POINT('',(-1.94109474709895E-32,6.,0.));
#677=CARTESIAN_POINT('Origin',(6.,6.,0.));
#678=CARTESIAN_POINT('',(-1.03848568969794E-31,32.1,0.));
#679=CARTESIAN_POINT('',(-1.23259516440783E-31,38.1,0.));
#680=CARTESIAN_POINT('',(6.,38.1,0.));
#681=CARTESIAN_POINT('Origin',(6.,32.1,0.));
#682=CARTESIAN_POINT('',(32.1,38.1,0.));
#683=CARTESIAN_POINT('',(38.1,38.1,0.));
#684=CARTESIAN_POINT('Origin',(32.1,32.1,0.));
#685=CARTESIAN_POINT('Origin',(6.,6.,0.));
#686=CARTESIAN_POINT('',(6.,1.94109474709895E-32,1.));
#687=CARTESIAN_POINT('',(-1.94109474709895E-32,6.,1.));
#688=CARTESIAN_POINT('Origin',(6.,6.,1.));
#689=CARTESIAN_POINT('',(0.,6.,0.));
#690=CARTESIAN_POINT('',(6.,0.,0.));
#691=CARTESIAN_POINT('Origin',(-1.23259516440783E-31,38.1,0.));
#692=CARTESIAN_POINT('',(-1.03848568969794E-31,32.1,1.));
#693=CARTESIAN_POINT('',(-1.23259516440783E-31,38.1,1.));
#694=CARTESIAN_POINT('',(0.,32.1,0.));
#695=CARTESIAN_POINT('Origin',(6.,32.1,0.));
#696=CARTESIAN_POINT('',(6.,38.1,1.));
#697=CARTESIAN_POINT('Origin',(6.,32.1,1.));
#698=CARTESIAN_POINT('',(6.,38.1,0.));
#699=CARTESIAN_POINT('Origin',(32.1,32.1,0.));
#700=CARTESIAN_POINT('',(32.1,38.1,1.));
#701=CARTESIAN_POINT('Origin',(32.1,32.1,1.));
#702=CARTESIAN_POINT('',(32.1,38.1,0.));
#703=CARTESIAN_POINT('Origin',(38.1,38.1,0.));
#704=CARTESIAN_POINT('',(38.1,38.1,1.));
#705=CARTESIAN_POINT('Origin',(0.,0.,0.));
#706=CARTESIAN_POINT('',(0.,0.,1.));
#707=CARTESIAN_POINT('Origin',(19.05,19.05,1.));
#708=CARTESIAN_POINT('Origin',(19.05,10.05,13.));
#709=CARTESIAN_POINT('',(19.05,9.05,2.));
#710=CARTESIAN_POINT('Origin',(19.05,9.05,13.));
#711=CARTESIAN_POINT('',(19.05,10.05,3.));
#712=CARTESIAN_POINT('Origin',(19.05,10.05,2.));
#713=CARTESIAN_POINT('',(29.05,10.05,13.));
#714=CARTESIAN_POINT('Origin',(19.05,10.05,13.));
#715=CARTESIAN_POINT('Origin',(19.05,10.05,13.));
#716=CARTESIAN_POINT('Origin',(19.05,38.1,13.));
#717=CARTESIAN_POINT('',(29.05,28.05,13.));
#718=CARTESIAN_POINT('',(19.05,28.05,23.));
#719=CARTESIAN_POINT('Origin',(19.05,28.05,13.));
#720=CARTESIAN_POINT('',(29.05,38.1,13.));
#721=CARTESIAN_POINT('Origin',(19.05,28.05,13.));
#722=CARTESIAN_POINT('Origin',(19.0475252979457,9.05,12.5));
#723=CARTESIAN_POINT('',(7.04752529794567,9.05,13.));
#724=CARTESIAN_POINT('',(31.0475252979457,9.05,13.));
#725=CARTESIAN_POINT('Origin',(19.0475252979457,9.05,13.));
#726=CARTESIAN_POINT('',(7.04752529794567,9.05,0.999999999999999));
#727=CARTESIAN_POINT('',(7.04752529794567,9.05,13.));
#728=CARTESIAN_POINT('',(31.0475252979457,9.05,0.999999999999999));
#729=CARTESIAN_POINT('',(7.04752529794567,9.05,0.999999999999999));
#730=CARTESIAN_POINT('',(31.0475252979457,9.05,0.999999999999999));
#731=CARTESIAN_POINT('Origin',(19.05,28.05,13.));
#732=CARTESIAN_POINT('',(19.05,29.05,24.));
#733=CARTESIAN_POINT('Origin',(19.05,29.05,13.));
#734=CARTESIAN_POINT('Origin',(19.05,28.05,24.));
#735=CARTESIAN_POINT('Origin',(19.0475252979457,29.05,12.5));
#736=CARTESIAN_POINT('',(7.04752529794567,29.05,13.));
#737=CARTESIAN_POINT('',(31.0475252979457,29.05,13.));
#738=CARTESIAN_POINT('Origin',(19.0475252979457,29.05,13.));
#739=CARTESIAN_POINT('',(31.0475252979457,29.05,0.999999999999996));
#740=CARTESIAN_POINT('',(31.0475252979457,29.05,0.999999999999996));
#741=CARTESIAN_POINT('',(7.04752529794567,29.05,0.999999999999996));
#742=CARTESIAN_POINT('',(7.04752529794567,29.05,0.999999999999996));
#743=CARTESIAN_POINT('',(7.04752529794567,29.05,13.));
#744=CARTESIAN_POINT('Origin',(7.04752529794567,9.05,0.999999999999999));
#745=CARTESIAN_POINT('',(7.04752529794567,9.05,13.));
#746=CARTESIAN_POINT('',(7.04752529794567,9.05,0.999999999999999));
#747=CARTESIAN_POINT('Origin',(31.0475252979457,9.05,0.999999999999999));
#748=CARTESIAN_POINT('',(31.0475252979457,9.05,0.999999999999999));
#749=CARTESIAN_POINT('Origin',(31.0475252979457,9.05,13.));
#750=CARTESIAN_POINT('',(31.0475252979457,9.05,13.));
#751=CARTESIAN_POINT('Origin',(19.0475252979457,9.05,13.));
#752=UNCERTAINTY_MEASURE_WITH_UNIT(LENGTH_MEASURE(0.01),#756,
'DISTANCE_ACCURACY_VALUE',
'Maximum model space distance between geometric entities at asserted c
onnectivities');
#753=UNCERTAINTY_MEASURE_WITH_UNIT(LENGTH_MEASURE(0.01),#756,
'DISTANCE_ACCURACY_VALUE',
'Maximum model space distance between geometric entities at asserted c
onnectivities');
#754=(
GEOMETRIC_REPRESENTATION_CONTEXT(3)
GLOBAL_UNCERTAINTY_ASSIGNED_CONTEXT((#752))
GLOBAL_UNIT_ASSIGNED_CONTEXT((#756,#758,#759))
REPRESENTATION_CONTEXT('','3D')
);
#755=(
GEOMETRIC_REPRESENTATION_CONTEXT(3)
GLOBAL_UNCERTAINTY_ASSIGNED_CONTEXT((#753))
GLOBAL_UNIT_ASSIGNED_CONTEXT((#756,#758,#759))
REPRESENTATION_CONTEXT('','3D')
);
#756=(
LENGTH_UNIT()
NAMED_UNIT(*)
SI_UNIT(.MILLI.,.METRE.)
);
#757=(
LENGTH_UNIT()
NAMED_UNIT(*)
SI_UNIT($,.METRE.)
);
#758=(
NAMED_UNIT(*)
PLANE_ANGLE_UNIT()
SI_UNIT($,.RADIAN.)
);
#759=(
NAMED_UNIT(*)
SI_UNIT($,.STERADIAN.)
SOLID_ANGLE_UNIT()
);
#760=SHAPE_DEFINITION_REPRESENTATION(#761,#762);
#761=PRODUCT_DEFINITION_SHAPE('',$,#764);
#762=SHAPE_REPRESENTATION('',(#444),#754);
#763=PRODUCT_DEFINITION_CONTEXT('part definition',#768,'design');
#764=PRODUCT_DEFINITION('dewalt_gyro_screwdriver_holder',
'dewalt_gyro_screwdriver_holder v4',#765,#763);
#765=PRODUCT_DEFINITION_FORMATION('',$,#770);
#766=PRODUCT_RELATED_PRODUCT_CATEGORY(
'dewalt_gyro_screwdriver_holder v4','dewalt_gyro_screwdriver_holder v4',
(#770));
#767=APPLICATION_PROTOCOL_DEFINITION('international standard',
'automotive_design',2009,#768);
#768=APPLICATION_CONTEXT(
'Core Data for Automotive Mechanical Design Process');
#769=PRODUCT_CONTEXT('part definition',#768,'mechanical');
#770=PRODUCT('dewalt_gyro_screwdriver_holder',
'dewalt_gyro_screwdriver_holder v4',$,(#769));
#771=PRESENTATION_STYLE_ASSIGNMENT((#772));
#772=SURFACE_STYLE_USAGE(.BOTH.,#773);
#773=SURFACE_SIDE_STYLE('',(#774));
#774=SURFACE_STYLE_FILL_AREA(#775);
#775=FILL_AREA_STYLE('Steel - Satin',(#776));
#776=FILL_AREA_STYLE_COLOUR('Steel - Satin',#777);
#777=COLOUR_RGB('Steel - Satin',0.627450980392157,0.627450980392157,0.627450980392157);
ENDSEC;
END-ISO-10303-21;
