ISO-10303-21;
HEADER;
/* Generated by software containing ST-Developer
 * from STEP Tools, Inc. (www.steptools.com) 
 */

FILE_DESCRIPTION(
/* description */ (''),
/* implementation_level */ '2;1');

FILE_NAME(
/* name */ 'ESP32 7 seg_v3.step',
/* time_stamp */ '2026-03-17T23:34:39-04:00',
/* author */ (''),
/* organization */ (''),
/* preprocessor_version */ 'ST-DEVELOPER v20.1',
/* originating_system */ 'Autodesk Translation Framework v14.24.0.0',
/* authorisation */ '');

FILE_SCHEMA (('AUTOMOTIVE_DESIGN { 1 0 10303 214 3 1 1 }'));
ENDSEC;

DATA;
#10=MECHANICAL_DESIGN_GEOMETRIC_PRESENTATION_REPRESENTATION('',(#13,#14),
#1264);
#11=SHAPE_REPRESENTATION_RELATIONSHIP('SRR','None',#1271,#12);
#12=ADVANCED_BREP_SHAPE_REPRESENTATION('',(#15,#16),#1263);
#13=STYLED_ITEM('',(#1281),#15);
#14=STYLED_ITEM('',(#1282),#16);
#15=MANIFOLD_SOLID_BREP('Body',#783);
#16=MANIFOLD_SOLID_BREP('Back',#784);
#17=FACE_BOUND('',#89,.T.);
#18=FACE_BOUND('',#97,.T.);
#19=FACE_BOUND('',#101,.T.);
#20=CYLINDRICAL_SURFACE('',#816,2.);
#21=CYLINDRICAL_SURFACE('',#819,2.);
#22=CYLINDRICAL_SURFACE('',#825,3.);
#23=CYLINDRICAL_SURFACE('',#829,3.);
#24=CIRCLE('',#808,2.);
#25=CIRCLE('',#809,2.);
#26=CIRCLE('',#817,2.);
#27=CIRCLE('',#820,2.);
#28=CIRCLE('',#826,3.);
#29=CIRCLE('',#827,3.);
#30=CIRCLE('',#830,3.);
#31=CIRCLE('',#831,3.);
#32=FACE_OUTER_BOUND('',#71,.T.);
#33=FACE_OUTER_BOUND('',#72,.T.);
#34=FACE_OUTER_BOUND('',#73,.T.);
#35=FACE_OUTER_BOUND('',#74,.T.);
#36=FACE_OUTER_BOUND('',#75,.T.);
#37=FACE_OUTER_BOUND('',#76,.T.);
#38=FACE_OUTER_BOUND('',#77,.T.);
#39=FACE_OUTER_BOUND('',#78,.T.);
#40=FACE_OUTER_BOUND('',#79,.T.);
#41=FACE_OUTER_BOUND('',#80,.T.);
#42=FACE_OUTER_BOUND('',#81,.T.);
#43=FACE_OUTER_BOUND('',#82,.T.);
#44=FACE_OUTER_BOUND('',#83,.T.);
#45=FACE_OUTER_BOUND('',#84,.T.);
#46=FACE_OUTER_BOUND('',#85,.T.);
#47=FACE_OUTER_BOUND('',#86,.T.);
#48=FACE_OUTER_BOUND('',#87,.T.);
#49=FACE_OUTER_BOUND('',#88,.T.);
#50=FACE_OUTER_BOUND('',#90,.T.);
#51=FACE_OUTER_BOUND('',#91,.T.);
#52=FACE_OUTER_BOUND('',#92,.T.);
#53=FACE_OUTER_BOUND('',#93,.T.);
#54=FACE_OUTER_BOUND('',#94,.T.);
#55=FACE_OUTER_BOUND('',#95,.T.);
#56=FACE_OUTER_BOUND('',#96,.T.);
#57=FACE_OUTER_BOUND('',#98,.T.);
#58=FACE_OUTER_BOUND('',#99,.T.);
#59=FACE_OUTER_BOUND('',#100,.T.);
#60=FACE_OUTER_BOUND('',#102,.T.);
#61=FACE_OUTER_BOUND('',#103,.T.);
#62=FACE_OUTER_BOUND('',#104,.T.);
#63=FACE_OUTER_BOUND('',#105,.T.);
#64=FACE_OUTER_BOUND('',#106,.T.);
#65=FACE_OUTER_BOUND('',#107,.T.);
#66=FACE_OUTER_BOUND('',#108,.T.);
#67=FACE_OUTER_BOUND('',#109,.T.);
#68=FACE_OUTER_BOUND('',#110,.T.);
#69=FACE_OUTER_BOUND('',#111,.T.);
#70=FACE_OUTER_BOUND('',#112,.T.);
#71=EDGE_LOOP('',(#493,#494,#495,#496));
#72=EDGE_LOOP('',(#497,#498,#499,#500));
#73=EDGE_LOOP('',(#501,#502,#503,#504));
#74=EDGE_LOOP('',(#505,#506,#507,#508));
#75=EDGE_LOOP('',(#509,#510,#511,#512,#513,#514,#515,#516));
#76=EDGE_LOOP('',(#517,#518,#519,#520,#521,#522,#523,#524,#525,#526,#527,
#528));
#77=EDGE_LOOP('',(#529,#530,#531,#532));
#78=EDGE_LOOP('',(#533,#534,#535,#536));
#79=EDGE_LOOP('',(#537,#538,#539,#540));
#80=EDGE_LOOP('',(#541,#542,#543,#544,#545,#546,#547,#548,#549,#550,#551));
#81=EDGE_LOOP('',(#552,#553,#554,#555));
#82=EDGE_LOOP('',(#556,#557,#558,#559));
#83=EDGE_LOOP('',(#560,#561,#562,#563));
#84=EDGE_LOOP('',(#564,#565,#566,#567));
#85=EDGE_LOOP('',(#568,#569,#570,#571,#572,#573));
#86=EDGE_LOOP('',(#574,#575,#576,#577));
#87=EDGE_LOOP('',(#578,#579,#580,#581));
#88=EDGE_LOOP('',(#582,#583,#584,#585));
#89=EDGE_LOOP('',(#586,#587,#588,#589));
#90=EDGE_LOOP('',(#590,#591,#592,#593));
#91=EDGE_LOOP('',(#594,#595,#596,#597,#598,#599));
#92=EDGE_LOOP('',(#600,#601,#602,#603,#604,#605,#606));
#93=EDGE_LOOP('',(#607,#608,#609,#610));
#94=EDGE_LOOP('',(#611,#612,#613,#614));
#95=EDGE_LOOP('',(#615,#616,#617,#618));
#96=EDGE_LOOP('',(#619,#620,#621,#622));
#97=EDGE_LOOP('',(#623,#624,#625,#626));
#98=EDGE_LOOP('',(#627,#628,#629,#630));
#99=EDGE_LOOP('',(#631,#632,#633,#634));
#100=EDGE_LOOP('',(#635,#636,#637,#638,#639,#640,#641));
#101=EDGE_LOOP('',(#642,#643,#644,#645));
#102=EDGE_LOOP('',(#646,#647,#648,#649,#650,#651,#652,#653,#654,#655,#656,
#657,#658,#659,#660));
#103=EDGE_LOOP('',(#661,#662,#663,#664));
#104=EDGE_LOOP('',(#665,#666,#667,#668,#669,#670,#671,#672));
#105=EDGE_LOOP('',(#673,#674,#675,#676));
#106=EDGE_LOOP('',(#677,#678,#679,#680));
#107=EDGE_LOOP('',(#681,#682,#683,#684));
#108=EDGE_LOOP('',(#685,#686,#687,#688));
#109=EDGE_LOOP('',(#689,#690,#691,#692,#693,#694,#695,#696));
#110=EDGE_LOOP('',(#697,#698,#699,#700));
#111=EDGE_LOOP('',(#701,#702,#703,#704));
#112=EDGE_LOOP('',(#705,#706,#707,#708));
#113=LINE('',#1045,#213);
#114=LINE('',#1047,#214);
#115=LINE('',#1049,#215);
#116=LINE('',#1050,#216);
#117=LINE('',#1054,#217);
#118=LINE('',#1055,#218);
#119=LINE('',#1056,#219);
#120=LINE('',#1060,#220);
#121=LINE('',#1061,#221);
#122=LINE('',#1062,#222);
#123=LINE('',#1066,#223);
#124=LINE('',#1068,#224);
#125=LINE('',#1070,#225);
#126=LINE('',#1071,#226);
#127=LINE('',#1074,#227);
#128=LINE('',#1076,#228);
#129=LINE('',#1078,#229);
#130=LINE('',#1080,#230);
#131=LINE('',#1081,#231);
#132=LINE('',#1084,#232);
#133=LINE('',#1086,#233);
#134=LINE('',#1088,#234);
#135=LINE('',#1090,#235);
#136=LINE('',#1092,#236);
#137=LINE('',#1094,#237);
#138=LINE('',#1096,#238);
#139=LINE('',#1098,#239);
#140=LINE('',#1099,#240);
#141=LINE('',#1103,#241);
#142=LINE('',#1105,#242);
#143=LINE('',#1107,#243);
#144=LINE('',#1108,#244);
#145=LINE('',#1110,#245);
#146=LINE('',#1111,#246);
#147=LINE('',#1113,#247);
#148=LINE('',#1114,#248);
#149=LINE('',#1117,#249);
#150=LINE('',#1119,#250);
#151=LINE('',#1123,#251);
#152=LINE('',#1126,#252);
#153=LINE('',#1130,#253);
#154=LINE('',#1132,#254);
#155=LINE('',#1134,#255);
#156=LINE('',#1135,#256);
#157=LINE('',#1138,#257);
#158=LINE('',#1140,#258);
#159=LINE('',#1141,#259);
#160=LINE('',#1144,#260);
#161=LINE('',#1146,#261);
#162=LINE('',#1147,#262);
#163=LINE('',#1149,#263);
#164=LINE('',#1150,#264);
#165=LINE('',#1153,#265);
#166=LINE('',#1154,#266);
#167=LINE('',#1155,#267);
#168=LINE('',#1158,#268);
#169=LINE('',#1159,#269);
#170=LINE('',#1163,#270);
#171=LINE('',#1166,#271);
#172=LINE('',#1167,#272);
#173=LINE('',#1171,#273);
#174=LINE('',#1173,#274);
#175=LINE('',#1174,#275);
#176=LINE('',#1178,#276);
#177=LINE('',#1180,#277);
#178=LINE('',#1181,#278);
#179=LINE('',#1184,#279);
#180=LINE('',#1186,#280);
#181=LINE('',#1187,#281);
#182=LINE('',#1193,#282);
#183=LINE('',#1196,#283);
#184=LINE('',#1198,#284);
#185=LINE('',#1199,#285);
#186=LINE('',#1205,#286);
#187=LINE('',#1207,#287);
#188=LINE('',#1208,#288);
#189=LINE('',#1214,#289);
#190=LINE('',#1216,#290);
#191=LINE('',#1218,#291);
#192=LINE('',#1219,#292);
#193=LINE('',#1223,#293);
#194=LINE('',#1225,#294);
#195=LINE('',#1227,#295);
#196=LINE('',#1229,#296);
#197=LINE('',#1231,#297);
#198=LINE('',#1233,#298);
#199=LINE('',#1235,#299);
#200=LINE('',#1236,#300);
#201=LINE('',#1238,#301);
#202=LINE('',#1239,#302);
#203=LINE('',#1242,#303);
#204=LINE('',#1244,#304);
#205=LINE('',#1245,#305);
#206=LINE('',#1248,#306);
#207=LINE('',#1249,#307);
#208=LINE('',#1252,#308);
#209=LINE('',#1253,#309);
#210=LINE('',#1255,#310);
#211=LINE('',#1256,#311);
#212=LINE('',#1258,#312);
#213=VECTOR('',#849,10.);
#214=VECTOR('',#850,10.);
#215=VECTOR('',#851,10.);
#216=VECTOR('',#852,10.);
#217=VECTOR('',#855,10.);
#218=VECTOR('',#856,10.);
#219=VECTOR('',#857,10.);
#220=VECTOR('',#860,10.);
#221=VECTOR('',#861,10.);
#222=VECTOR('',#862,10.);
#223=VECTOR('',#865,10.);
#224=VECTOR('',#866,10.);
#225=VECTOR('',#867,10.);
#226=VECTOR('',#868,10.);
#227=VECTOR('',#871,10.);
#228=VECTOR('',#872,10.);
#229=VECTOR('',#873,10.);
#230=VECTOR('',#874,10.);
#231=VECTOR('',#875,10.);
#232=VECTOR('',#878,10.);
#233=VECTOR('',#879,10.);
#234=VECTOR('',#880,10.);
#235=VECTOR('',#881,10.);
#236=VECTOR('',#882,10.);
#237=VECTOR('',#883,10.);
#238=VECTOR('',#884,10.);
#239=VECTOR('',#885,10.);
#240=VECTOR('',#886,10.);
#241=VECTOR('',#889,10.);
#242=VECTOR('',#890,10.);
#243=VECTOR('',#891,10.);
#244=VECTOR('',#892,10.);
#245=VECTOR('',#895,10.);
#246=VECTOR('',#896,10.);
#247=VECTOR('',#899,10.);
#248=VECTOR('',#900,10.);
#249=VECTOR('',#903,10.);
#250=VECTOR('',#904,10.);
#251=VECTOR('',#907,10.);
#252=VECTOR('',#910,10.);
#253=VECTOR('',#913,10.);
#254=VECTOR('',#914,10.);
#255=VECTOR('',#915,10.);
#256=VECTOR('',#916,10.);
#257=VECTOR('',#919,10.);
#258=VECTOR('',#920,10.);
#259=VECTOR('',#921,10.);
#260=VECTOR('',#924,10.);
#261=VECTOR('',#925,10.);
#262=VECTOR('',#926,10.);
#263=VECTOR('',#929,10.);
#264=VECTOR('',#930,10.);
#265=VECTOR('',#933,10.);
#266=VECTOR('',#934,10.);
#267=VECTOR('',#935,10.);
#268=VECTOR('',#938,10.);
#269=VECTOR('',#939,10.);
#270=VECTOR('',#944,10.);
#271=VECTOR('',#947,10.);
#272=VECTOR('',#948,10.);
#273=VECTOR('',#953,10.);
#274=VECTOR('',#956,10.);
#275=VECTOR('',#957,10.);
#276=VECTOR('',#962,10.);
#277=VECTOR('',#963,10.);
#278=VECTOR('',#964,10.);
#279=VECTOR('',#967,10.);
#280=VECTOR('',#968,10.);
#281=VECTOR('',#969,10.);
#282=VECTOR('',#976,10.);
#283=VECTOR('',#979,10.);
#284=VECTOR('',#980,10.);
#285=VECTOR('',#981,10.);
#286=VECTOR('',#988,10.);
#287=VECTOR('',#991,10.);
#288=VECTOR('',#992,10.);
#289=VECTOR('',#999,10.);
#290=VECTOR('',#1000,10.);
#291=VECTOR('',#1001,10.);
#292=VECTOR('',#1002,10.);
#293=VECTOR('',#1005,10.);
#294=VECTOR('',#1006,10.);
#295=VECTOR('',#1007,10.);
#296=VECTOR('',#1008,10.);
#297=VECTOR('',#1009,10.);
#298=VECTOR('',#1010,10.);
#299=VECTOR('',#1011,10.);
#300=VECTOR('',#1012,10.);
#301=VECTOR('',#1015,10.);
#302=VECTOR('',#1016,10.);
#303=VECTOR('',#1019,10.);
#304=VECTOR('',#1020,10.);
#305=VECTOR('',#1021,10.);
#306=VECTOR('',#1024,10.);
#307=VECTOR('',#1025,10.);
#308=VECTOR('',#1028,10.);
#309=VECTOR('',#1029,10.);
#310=VECTOR('',#1032,10.);
#311=VECTOR('',#1033,10.);
#312=VECTOR('',#1036,10.);
#313=VERTEX_POINT('',#1043);
#314=VERTEX_POINT('',#1044);
#315=VERTEX_POINT('',#1046);
#316=VERTEX_POINT('',#1048);
#317=VERTEX_POINT('',#1052);
#318=VERTEX_POINT('',#1053);
#319=VERTEX_POINT('',#1058);
#320=VERTEX_POINT('',#1059);
#321=VERTEX_POINT('',#1064);
#322=VERTEX_POINT('',#1065);
#323=VERTEX_POINT('',#1067);
#324=VERTEX_POINT('',#1069);
#325=VERTEX_POINT('',#1073);
#326=VERTEX_POINT('',#1075);
#327=VERTEX_POINT('',#1077);
#328=VERTEX_POINT('',#1079);
#329=VERTEX_POINT('',#1083);
#330=VERTEX_POINT('',#1085);
#331=VERTEX_POINT('',#1087);
#332=VERTEX_POINT('',#1089);
#333=VERTEX_POINT('',#1091);
#334=VERTEX_POINT('',#1093);
#335=VERTEX_POINT('',#1095);
#336=VERTEX_POINT('',#1097);
#337=VERTEX_POINT('',#1101);
#338=VERTEX_POINT('',#1102);
#339=VERTEX_POINT('',#1104);
#340=VERTEX_POINT('',#1106);
#341=VERTEX_POINT('',#1116);
#342=VERTEX_POINT('',#1118);
#343=VERTEX_POINT('',#1120);
#344=VERTEX_POINT('',#1122);
#345=VERTEX_POINT('',#1124);
#346=VERTEX_POINT('',#1128);
#347=VERTEX_POINT('',#1129);
#348=VERTEX_POINT('',#1131);
#349=VERTEX_POINT('',#1133);
#350=VERTEX_POINT('',#1137);
#351=VERTEX_POINT('',#1139);
#352=VERTEX_POINT('',#1143);
#353=VERTEX_POINT('',#1145);
#354=VERTEX_POINT('',#1152);
#355=VERTEX_POINT('',#1157);
#356=VERTEX_POINT('',#1161);
#357=VERTEX_POINT('',#1165);
#358=VERTEX_POINT('',#1169);
#359=VERTEX_POINT('',#1177);
#360=VERTEX_POINT('',#1179);
#361=VERTEX_POINT('',#1183);
#362=VERTEX_POINT('',#1185);
#363=VERTEX_POINT('',#1189);
#364=VERTEX_POINT('',#1191);
#365=VERTEX_POINT('',#1195);
#366=VERTEX_POINT('',#1197);
#367=VERTEX_POINT('',#1201);
#368=VERTEX_POINT('',#1203);
#369=VERTEX_POINT('',#1212);
#370=VERTEX_POINT('',#1213);
#371=VERTEX_POINT('',#1215);
#372=VERTEX_POINT('',#1217);
#373=VERTEX_POINT('',#1221);
#374=VERTEX_POINT('',#1222);
#375=VERTEX_POINT('',#1224);
#376=VERTEX_POINT('',#1226);
#377=VERTEX_POINT('',#1228);
#378=VERTEX_POINT('',#1230);
#379=VERTEX_POINT('',#1232);
#380=VERTEX_POINT('',#1234);
#381=VERTEX_POINT('',#1241);
#382=VERTEX_POINT('',#1243);
#383=VERTEX_POINT('',#1247);
#384=VERTEX_POINT('',#1251);
#385=EDGE_CURVE('',#313,#314,#113,.T.);
#386=EDGE_CURVE('',#315,#313,#114,.T.);
#387=EDGE_CURVE('',#316,#315,#115,.T.);
#388=EDGE_CURVE('',#314,#316,#116,.T.);
#389=EDGE_CURVE('',#317,#318,#117,.T.);
#390=EDGE_CURVE('',#315,#317,#118,.T.);
#391=EDGE_CURVE('',#318,#313,#119,.T.);
#392=EDGE_CURVE('',#319,#320,#120,.T.);
#393=EDGE_CURVE('',#319,#314,#121,.T.);
#394=EDGE_CURVE('',#320,#316,#122,.T.);
#395=EDGE_CURVE('',#321,#322,#123,.T.);
#396=EDGE_CURVE('',#323,#321,#124,.T.);
#397=EDGE_CURVE('',#324,#323,#125,.T.);
#398=EDGE_CURVE('',#324,#322,#126,.T.);
#399=EDGE_CURVE('',#325,#317,#127,.T.);
#400=EDGE_CURVE('',#325,#326,#128,.T.);
#401=EDGE_CURVE('',#327,#326,#129,.F.);
#402=EDGE_CURVE('',#328,#327,#130,.F.);
#403=EDGE_CURVE('',#320,#328,#131,.T.);
#404=EDGE_CURVE('',#329,#319,#132,.T.);
#405=EDGE_CURVE('',#329,#330,#133,.T.);
#406=EDGE_CURVE('',#330,#331,#134,.T.);
#407=EDGE_CURVE('',#332,#331,#135,.T.);
#408=EDGE_CURVE('',#333,#332,#136,.T.);
#409=EDGE_CURVE('',#333,#334,#137,.T.);
#410=EDGE_CURVE('',#334,#335,#138,.T.);
#411=EDGE_CURVE('',#336,#335,#139,.T.);
#412=EDGE_CURVE('',#318,#336,#140,.T.);
#413=EDGE_CURVE('',#337,#338,#141,.T.);
#414=EDGE_CURVE('',#339,#337,#142,.T.);
#415=EDGE_CURVE('',#340,#339,#143,.T.);
#416=EDGE_CURVE('',#340,#338,#144,.T.);
#417=EDGE_CURVE('',#338,#331,#145,.T.);
#418=EDGE_CURVE('',#332,#340,#146,.T.);
#419=EDGE_CURVE('',#334,#337,#147,.T.);
#420=EDGE_CURVE('',#339,#333,#148,.T.);
#421=EDGE_CURVE('',#341,#330,#149,.T.);
#422=EDGE_CURVE('',#342,#341,#150,.T.);
#423=EDGE_CURVE('',#343,#342,#24,.T.);
#424=EDGE_CURVE('',#344,#343,#151,.T.);
#425=EDGE_CURVE('',#345,#344,#25,.T.);
#426=EDGE_CURVE('',#335,#345,#152,.T.);
#427=EDGE_CURVE('',#346,#347,#153,.T.);
#428=EDGE_CURVE('',#348,#346,#154,.T.);
#429=EDGE_CURVE('',#349,#348,#155,.T.);
#430=EDGE_CURVE('',#349,#347,#156,.T.);
#431=EDGE_CURVE('',#347,#350,#157,.T.);
#432=EDGE_CURVE('',#351,#349,#158,.T.);
#433=EDGE_CURVE('',#351,#350,#159,.T.);
#434=EDGE_CURVE('',#350,#352,#160,.T.);
#435=EDGE_CURVE('',#353,#351,#161,.T.);
#436=EDGE_CURVE('',#353,#352,#162,.T.);
#437=EDGE_CURVE('',#352,#346,#163,.T.);
#438=EDGE_CURVE('',#348,#353,#164,.T.);
#439=EDGE_CURVE('',#321,#354,#165,.T.);
#440=EDGE_CURVE('',#354,#341,#166,.T.);
#441=EDGE_CURVE('',#323,#329,#167,.T.);
#442=EDGE_CURVE('',#354,#355,#168,.T.);
#443=EDGE_CURVE('',#355,#342,#169,.T.);
#444=EDGE_CURVE('',#356,#355,#26,.T.);
#445=EDGE_CURVE('',#356,#343,#170,.T.);
#446=EDGE_CURVE('',#357,#356,#171,.T.);
#447=EDGE_CURVE('',#357,#344,#172,.T.);
#448=EDGE_CURVE('',#358,#357,#27,.T.);
#449=EDGE_CURVE('',#358,#345,#173,.T.);
#450=EDGE_CURVE('',#322,#358,#174,.T.);
#451=EDGE_CURVE('',#336,#324,#175,.T.);
#452=EDGE_CURVE('',#328,#359,#176,.T.);
#453=EDGE_CURVE('',#360,#327,#177,.F.);
#454=EDGE_CURVE('',#359,#360,#178,.F.);
#455=EDGE_CURVE('',#359,#361,#179,.T.);
#456=EDGE_CURVE('',#362,#360,#180,.F.);
#457=EDGE_CURVE('',#361,#362,#181,.T.);
#458=EDGE_CURVE('',#363,#361,#28,.F.);
#459=EDGE_CURVE('',#364,#362,#29,.F.);
#460=EDGE_CURVE('',#363,#364,#182,.T.);
#461=EDGE_CURVE('',#365,#363,#183,.F.);
#462=EDGE_CURVE('',#366,#364,#184,.F.);
#463=EDGE_CURVE('',#365,#366,#185,.T.);
#464=EDGE_CURVE('',#367,#365,#30,.F.);
#465=EDGE_CURVE('',#368,#366,#31,.F.);
#466=EDGE_CURVE('',#367,#368,#186,.T.);
#467=EDGE_CURVE('',#325,#367,#187,.F.);
#468=EDGE_CURVE('',#326,#368,#188,.F.);
#469=EDGE_CURVE('',#369,#370,#189,.T.);
#470=EDGE_CURVE('',#370,#371,#190,.T.);
#471=EDGE_CURVE('',#371,#372,#191,.T.);
#472=EDGE_CURVE('',#372,#369,#192,.T.);
#473=EDGE_CURVE('',#373,#374,#193,.T.);
#474=EDGE_CURVE('',#374,#375,#194,.T.);
#475=EDGE_CURVE('',#376,#375,#195,.T.);
#476=EDGE_CURVE('',#377,#376,#196,.T.);
#477=EDGE_CURVE('',#378,#377,#197,.T.);
#478=EDGE_CURVE('',#379,#378,#198,.T.);
#479=EDGE_CURVE('',#379,#380,#199,.T.);
#480=EDGE_CURVE('',#380,#373,#200,.T.);
#481=EDGE_CURVE('',#379,#370,#201,.T.);
#482=EDGE_CURVE('',#380,#369,#202,.T.);
#483=EDGE_CURVE('',#373,#381,#203,.T.);
#484=EDGE_CURVE('',#382,#381,#204,.T.);
#485=EDGE_CURVE('',#374,#382,#205,.T.);
#486=EDGE_CURVE('',#383,#382,#206,.T.);
#487=EDGE_CURVE('',#375,#383,#207,.T.);
#488=EDGE_CURVE('',#384,#383,#208,.T.);
#489=EDGE_CURVE('',#376,#384,#209,.T.);
#490=EDGE_CURVE('',#381,#384,#210,.T.);
#491=EDGE_CURVE('',#377,#372,#211,.T.);
#492=EDGE_CURVE('',#378,#371,#212,.T.);
#493=ORIENTED_EDGE('',*,*,#385,.F.);
#494=ORIENTED_EDGE('',*,*,#386,.F.);
#495=ORIENTED_EDGE('',*,*,#387,.F.);
#496=ORIENTED_EDGE('',*,*,#388,.F.);
#497=ORIENTED_EDGE('',*,*,#389,.F.);
#498=ORIENTED_EDGE('',*,*,#390,.F.);
#499=ORIENTED_EDGE('',*,*,#386,.T.);
#500=ORIENTED_EDGE('',*,*,#391,.F.);
#501=ORIENTED_EDGE('',*,*,#392,.F.);
#502=ORIENTED_EDGE('',*,*,#393,.T.);
#503=ORIENTED_EDGE('',*,*,#388,.T.);
#504=ORIENTED_EDGE('',*,*,#394,.F.);
#505=ORIENTED_EDGE('',*,*,#395,.F.);
#506=ORIENTED_EDGE('',*,*,#396,.F.);
#507=ORIENTED_EDGE('',*,*,#397,.F.);
#508=ORIENTED_EDGE('',*,*,#398,.T.);
#509=ORIENTED_EDGE('',*,*,#394,.T.);
#510=ORIENTED_EDGE('',*,*,#387,.T.);
#511=ORIENTED_EDGE('',*,*,#390,.T.);
#512=ORIENTED_EDGE('',*,*,#399,.F.);
#513=ORIENTED_EDGE('',*,*,#400,.T.);
#514=ORIENTED_EDGE('',*,*,#401,.F.);
#515=ORIENTED_EDGE('',*,*,#402,.F.);
#516=ORIENTED_EDGE('',*,*,#403,.F.);
#517=ORIENTED_EDGE('',*,*,#385,.T.);
#518=ORIENTED_EDGE('',*,*,#393,.F.);
#519=ORIENTED_EDGE('',*,*,#404,.F.);
#520=ORIENTED_EDGE('',*,*,#405,.T.);
#521=ORIENTED_EDGE('',*,*,#406,.T.);
#522=ORIENTED_EDGE('',*,*,#407,.F.);
#523=ORIENTED_EDGE('',*,*,#408,.F.);
#524=ORIENTED_EDGE('',*,*,#409,.T.);
#525=ORIENTED_EDGE('',*,*,#410,.T.);
#526=ORIENTED_EDGE('',*,*,#411,.F.);
#527=ORIENTED_EDGE('',*,*,#412,.F.);
#528=ORIENTED_EDGE('',*,*,#391,.T.);
#529=ORIENTED_EDGE('',*,*,#413,.F.);
#530=ORIENTED_EDGE('',*,*,#414,.F.);
#531=ORIENTED_EDGE('',*,*,#415,.F.);
#532=ORIENTED_EDGE('',*,*,#416,.T.);
#533=ORIENTED_EDGE('',*,*,#417,.F.);
#534=ORIENTED_EDGE('',*,*,#416,.F.);
#535=ORIENTED_EDGE('',*,*,#418,.F.);
#536=ORIENTED_EDGE('',*,*,#407,.T.);
#537=ORIENTED_EDGE('',*,*,#419,.F.);
#538=ORIENTED_EDGE('',*,*,#409,.F.);
#539=ORIENTED_EDGE('',*,*,#420,.F.);
#540=ORIENTED_EDGE('',*,*,#414,.T.);
#541=ORIENTED_EDGE('',*,*,#419,.T.);
#542=ORIENTED_EDGE('',*,*,#413,.T.);
#543=ORIENTED_EDGE('',*,*,#417,.T.);
#544=ORIENTED_EDGE('',*,*,#406,.F.);
#545=ORIENTED_EDGE('',*,*,#421,.F.);
#546=ORIENTED_EDGE('',*,*,#422,.F.);
#547=ORIENTED_EDGE('',*,*,#423,.F.);
#548=ORIENTED_EDGE('',*,*,#424,.F.);
#549=ORIENTED_EDGE('',*,*,#425,.F.);
#550=ORIENTED_EDGE('',*,*,#426,.F.);
#551=ORIENTED_EDGE('',*,*,#410,.F.);
#552=ORIENTED_EDGE('',*,*,#427,.F.);
#553=ORIENTED_EDGE('',*,*,#428,.F.);
#554=ORIENTED_EDGE('',*,*,#429,.F.);
#555=ORIENTED_EDGE('',*,*,#430,.T.);
#556=ORIENTED_EDGE('',*,*,#431,.F.);
#557=ORIENTED_EDGE('',*,*,#430,.F.);
#558=ORIENTED_EDGE('',*,*,#432,.F.);
#559=ORIENTED_EDGE('',*,*,#433,.T.);
#560=ORIENTED_EDGE('',*,*,#434,.F.);
#561=ORIENTED_EDGE('',*,*,#433,.F.);
#562=ORIENTED_EDGE('',*,*,#435,.F.);
#563=ORIENTED_EDGE('',*,*,#436,.T.);
#564=ORIENTED_EDGE('',*,*,#437,.F.);
#565=ORIENTED_EDGE('',*,*,#436,.F.);
#566=ORIENTED_EDGE('',*,*,#438,.F.);
#567=ORIENTED_EDGE('',*,*,#428,.T.);
#568=ORIENTED_EDGE('',*,*,#439,.T.);
#569=ORIENTED_EDGE('',*,*,#440,.T.);
#570=ORIENTED_EDGE('',*,*,#421,.T.);
#571=ORIENTED_EDGE('',*,*,#405,.F.);
#572=ORIENTED_EDGE('',*,*,#441,.F.);
#573=ORIENTED_EDGE('',*,*,#396,.T.);
#574=ORIENTED_EDGE('',*,*,#442,.T.);
#575=ORIENTED_EDGE('',*,*,#443,.T.);
#576=ORIENTED_EDGE('',*,*,#422,.T.);
#577=ORIENTED_EDGE('',*,*,#440,.F.);
#578=ORIENTED_EDGE('',*,*,#444,.F.);
#579=ORIENTED_EDGE('',*,*,#445,.T.);
#580=ORIENTED_EDGE('',*,*,#423,.T.);
#581=ORIENTED_EDGE('',*,*,#443,.F.);
#582=ORIENTED_EDGE('',*,*,#446,.F.);
#583=ORIENTED_EDGE('',*,*,#447,.T.);
#584=ORIENTED_EDGE('',*,*,#424,.T.);
#585=ORIENTED_EDGE('',*,*,#445,.F.);
#586=ORIENTED_EDGE('',*,*,#434,.T.);
#587=ORIENTED_EDGE('',*,*,#437,.T.);
#588=ORIENTED_EDGE('',*,*,#427,.T.);
#589=ORIENTED_EDGE('',*,*,#431,.T.);
#590=ORIENTED_EDGE('',*,*,#448,.F.);
#591=ORIENTED_EDGE('',*,*,#449,.T.);
#592=ORIENTED_EDGE('',*,*,#425,.T.);
#593=ORIENTED_EDGE('',*,*,#447,.F.);
#594=ORIENTED_EDGE('',*,*,#411,.T.);
#595=ORIENTED_EDGE('',*,*,#426,.T.);
#596=ORIENTED_EDGE('',*,*,#449,.F.);
#597=ORIENTED_EDGE('',*,*,#450,.F.);
#598=ORIENTED_EDGE('',*,*,#398,.F.);
#599=ORIENTED_EDGE('',*,*,#451,.F.);
#600=ORIENTED_EDGE('',*,*,#395,.T.);
#601=ORIENTED_EDGE('',*,*,#450,.T.);
#602=ORIENTED_EDGE('',*,*,#448,.T.);
#603=ORIENTED_EDGE('',*,*,#446,.T.);
#604=ORIENTED_EDGE('',*,*,#444,.T.);
#605=ORIENTED_EDGE('',*,*,#442,.F.);
#606=ORIENTED_EDGE('',*,*,#439,.F.);
#607=ORIENTED_EDGE('',*,*,#452,.F.);
#608=ORIENTED_EDGE('',*,*,#402,.T.);
#609=ORIENTED_EDGE('',*,*,#453,.F.);
#610=ORIENTED_EDGE('',*,*,#454,.F.);
#611=ORIENTED_EDGE('',*,*,#455,.F.);
#612=ORIENTED_EDGE('',*,*,#454,.T.);
#613=ORIENTED_EDGE('',*,*,#456,.F.);
#614=ORIENTED_EDGE('',*,*,#457,.F.);
#615=ORIENTED_EDGE('',*,*,#458,.T.);
#616=ORIENTED_EDGE('',*,*,#457,.T.);
#617=ORIENTED_EDGE('',*,*,#459,.F.);
#618=ORIENTED_EDGE('',*,*,#460,.F.);
#619=ORIENTED_EDGE('',*,*,#461,.T.);
#620=ORIENTED_EDGE('',*,*,#460,.T.);
#621=ORIENTED_EDGE('',*,*,#462,.F.);
#622=ORIENTED_EDGE('',*,*,#463,.F.);
#623=ORIENTED_EDGE('',*,*,#435,.T.);
#624=ORIENTED_EDGE('',*,*,#432,.T.);
#625=ORIENTED_EDGE('',*,*,#429,.T.);
#626=ORIENTED_EDGE('',*,*,#438,.T.);
#627=ORIENTED_EDGE('',*,*,#464,.T.);
#628=ORIENTED_EDGE('',*,*,#463,.T.);
#629=ORIENTED_EDGE('',*,*,#465,.F.);
#630=ORIENTED_EDGE('',*,*,#466,.F.);
#631=ORIENTED_EDGE('',*,*,#467,.T.);
#632=ORIENTED_EDGE('',*,*,#466,.T.);
#633=ORIENTED_EDGE('',*,*,#468,.F.);
#634=ORIENTED_EDGE('',*,*,#400,.F.);
#635=ORIENTED_EDGE('',*,*,#468,.T.);
#636=ORIENTED_EDGE('',*,*,#465,.T.);
#637=ORIENTED_EDGE('',*,*,#462,.T.);
#638=ORIENTED_EDGE('',*,*,#459,.T.);
#639=ORIENTED_EDGE('',*,*,#456,.T.);
#640=ORIENTED_EDGE('',*,*,#453,.T.);
#641=ORIENTED_EDGE('',*,*,#401,.T.);
#642=ORIENTED_EDGE('',*,*,#420,.T.);
#643=ORIENTED_EDGE('',*,*,#408,.T.);
#644=ORIENTED_EDGE('',*,*,#418,.T.);
#645=ORIENTED_EDGE('',*,*,#415,.T.);
#646=ORIENTED_EDGE('',*,*,#392,.T.);
#647=ORIENTED_EDGE('',*,*,#403,.T.);
#648=ORIENTED_EDGE('',*,*,#452,.T.);
#649=ORIENTED_EDGE('',*,*,#455,.T.);
#650=ORIENTED_EDGE('',*,*,#458,.F.);
#651=ORIENTED_EDGE('',*,*,#461,.F.);
#652=ORIENTED_EDGE('',*,*,#464,.F.);
#653=ORIENTED_EDGE('',*,*,#467,.F.);
#654=ORIENTED_EDGE('',*,*,#399,.T.);
#655=ORIENTED_EDGE('',*,*,#389,.T.);
#656=ORIENTED_EDGE('',*,*,#412,.T.);
#657=ORIENTED_EDGE('',*,*,#451,.T.);
#658=ORIENTED_EDGE('',*,*,#397,.T.);
#659=ORIENTED_EDGE('',*,*,#441,.T.);
#660=ORIENTED_EDGE('',*,*,#404,.T.);
#661=ORIENTED_EDGE('',*,*,#469,.T.);
#662=ORIENTED_EDGE('',*,*,#470,.T.);
#663=ORIENTED_EDGE('',*,*,#471,.T.);
#664=ORIENTED_EDGE('',*,*,#472,.T.);
#665=ORIENTED_EDGE('',*,*,#473,.T.);
#666=ORIENTED_EDGE('',*,*,#474,.T.);
#667=ORIENTED_EDGE('',*,*,#475,.F.);
#668=ORIENTED_EDGE('',*,*,#476,.F.);
#669=ORIENTED_EDGE('',*,*,#477,.F.);
#670=ORIENTED_EDGE('',*,*,#478,.F.);
#671=ORIENTED_EDGE('',*,*,#479,.T.);
#672=ORIENTED_EDGE('',*,*,#480,.T.);
#673=ORIENTED_EDGE('',*,*,#479,.F.);
#674=ORIENTED_EDGE('',*,*,#481,.T.);
#675=ORIENTED_EDGE('',*,*,#469,.F.);
#676=ORIENTED_EDGE('',*,*,#482,.F.);
#677=ORIENTED_EDGE('',*,*,#473,.F.);
#678=ORIENTED_EDGE('',*,*,#483,.T.);
#679=ORIENTED_EDGE('',*,*,#484,.F.);
#680=ORIENTED_EDGE('',*,*,#485,.F.);
#681=ORIENTED_EDGE('',*,*,#474,.F.);
#682=ORIENTED_EDGE('',*,*,#485,.T.);
#683=ORIENTED_EDGE('',*,*,#486,.F.);
#684=ORIENTED_EDGE('',*,*,#487,.F.);
#685=ORIENTED_EDGE('',*,*,#475,.T.);
#686=ORIENTED_EDGE('',*,*,#487,.T.);
#687=ORIENTED_EDGE('',*,*,#488,.F.);
#688=ORIENTED_EDGE('',*,*,#489,.F.);
#689=ORIENTED_EDGE('',*,*,#476,.T.);
#690=ORIENTED_EDGE('',*,*,#489,.T.);
#691=ORIENTED_EDGE('',*,*,#490,.F.);
#692=ORIENTED_EDGE('',*,*,#483,.F.);
#693=ORIENTED_EDGE('',*,*,#480,.F.);
#694=ORIENTED_EDGE('',*,*,#482,.T.);
#695=ORIENTED_EDGE('',*,*,#472,.F.);
#696=ORIENTED_EDGE('',*,*,#491,.F.);
#697=ORIENTED_EDGE('',*,*,#477,.T.);
#698=ORIENTED_EDGE('',*,*,#491,.T.);
#699=ORIENTED_EDGE('',*,*,#471,.F.);
#700=ORIENTED_EDGE('',*,*,#492,.F.);
#701=ORIENTED_EDGE('',*,*,#478,.T.);
#702=ORIENTED_EDGE('',*,*,#492,.T.);
#703=ORIENTED_EDGE('',*,*,#470,.F.);
#704=ORIENTED_EDGE('',*,*,#481,.F.);
#705=ORIENTED_EDGE('',*,*,#490,.T.);
#706=ORIENTED_EDGE('',*,*,#488,.T.);
#707=ORIENTED_EDGE('',*,*,#486,.T.);
#708=ORIENTED_EDGE('',*,*,#484,.T.);
#709=PLANE('',#798);
#710=PLANE('',#799);
#711=PLANE('',#800);
#712=PLANE('',#801);
#713=PLANE('',#802);
#714=PLANE('',#803);
#715=PLANE('',#804);
#716=PLANE('',#805);
#717=PLANE('',#806);
#718=PLANE('',#807);
#719=PLANE('',#810);
#720=PLANE('',#811);
#721=PLANE('',#812);
#722=PLANE('',#813);
#723=PLANE('',#814);
#724=PLANE('',#815);
#725=PLANE('',#818);
#726=PLANE('',#821);
#727=PLANE('',#822);
#728=PLANE('',#823);
#729=PLANE('',#824);
#730=PLANE('',#828);
#731=PLANE('',#832);
#732=PLANE('',#833);
#733=PLANE('',#834);
#734=PLANE('',#835);
#735=PLANE('',#836);
#736=PLANE('',#837);
#737=PLANE('',#838);
#738=PLANE('',#839);
#739=PLANE('',#840);
#740=PLANE('',#841);
#741=PLANE('',#842);
#742=PLANE('',#843);
#743=PLANE('',#844);
#744=ADVANCED_FACE('',(#32),#709,.F.);
#745=ADVANCED_FACE('',(#33),#710,.F.);
#746=ADVANCED_FACE('',(#34),#711,.F.);
#747=ADVANCED_FACE('',(#35),#712,.F.);
#748=ADVANCED_FACE('',(#36),#713,.T.);
#749=ADVANCED_FACE('',(#37),#714,.F.);
#750=ADVANCED_FACE('',(#38),#715,.F.);
#751=ADVANCED_FACE('',(#39),#716,.F.);
#752=ADVANCED_FACE('',(#40),#717,.F.);
#753=ADVANCED_FACE('',(#41),#718,.F.);
#754=ADVANCED_FACE('',(#42),#719,.F.);
#755=ADVANCED_FACE('',(#43),#720,.F.);
#756=ADVANCED_FACE('',(#44),#721,.F.);
#757=ADVANCED_FACE('',(#45),#722,.F.);
#758=ADVANCED_FACE('',(#46),#723,.F.);
#759=ADVANCED_FACE('',(#47),#724,.F.);
#760=ADVANCED_FACE('',(#48),#20,.F.);
#761=ADVANCED_FACE('',(#49,#17),#725,.F.);
#762=ADVANCED_FACE('',(#50),#21,.F.);
#763=ADVANCED_FACE('',(#51),#726,.F.);
#764=ADVANCED_FACE('',(#52),#727,.T.);
#765=ADVANCED_FACE('',(#53),#728,.T.);
#766=ADVANCED_FACE('',(#54),#729,.T.);
#767=ADVANCED_FACE('',(#55),#22,.T.);
#768=ADVANCED_FACE('',(#56,#18),#730,.T.);
#769=ADVANCED_FACE('',(#57),#23,.T.);
#770=ADVANCED_FACE('',(#58),#731,.T.);
#771=ADVANCED_FACE('',(#59,#19),#732,.T.);
#772=ADVANCED_FACE('',(#60),#733,.F.);
#773=ADVANCED_FACE('',(#61),#734,.T.);
#774=ADVANCED_FACE('',(#62),#735,.T.);
#775=ADVANCED_FACE('',(#63),#736,.T.);
#776=ADVANCED_FACE('',(#64),#737,.T.);
#777=ADVANCED_FACE('',(#65),#738,.T.);
#778=ADVANCED_FACE('',(#66),#739,.T.);
#779=ADVANCED_FACE('',(#67),#740,.T.);
#780=ADVANCED_FACE('',(#68),#741,.T.);
#781=ADVANCED_FACE('',(#69),#742,.T.);
#782=ADVANCED_FACE('',(#70),#743,.T.);
#783=CLOSED_SHELL('',(#744,#745,#746,#747,#748,#749,#750,#751,#752,#753,
#754,#755,#756,#757,#758,#759,#760,#761,#762,#763,#764,#765,#766,#767,#768,
#769,#770,#771,#772));
#784=CLOSED_SHELL('',(#773,#774,#775,#776,#777,#778,#779,#780,#781,#782));
#785=DERIVED_UNIT_ELEMENT(#787,1.);
#786=DERIVED_UNIT_ELEMENT(#1266,-3.);
#787=(
MASS_UNIT()
NAMED_UNIT(*)
SI_UNIT(.KILO.,.GRAM.)
);
#788=DERIVED_UNIT((#785,#786));
#789=MEASURE_REPRESENTATION_ITEM('density measure',
POSITIVE_RATIO_MEASURE(7850.),#788);
#790=PROPERTY_DEFINITION_REPRESENTATION(#795,#792);
#791=PROPERTY_DEFINITION_REPRESENTATION(#796,#793);
#792=REPRESENTATION('material name',(#794),#1263);
#793=REPRESENTATION('density',(#789),#1263);
#794=DESCRIPTIVE_REPRESENTATION_ITEM('Steel','Steel');
#795=PROPERTY_DEFINITION('material property','material name',#1273);
#796=PROPERTY_DEFINITION('material property','density of part',#1273);
#797=AXIS2_PLACEMENT_3D('',#1041,#845,#846);
#798=AXIS2_PLACEMENT_3D('',#1042,#847,#848);
#799=AXIS2_PLACEMENT_3D('',#1051,#853,#854);
#800=AXIS2_PLACEMENT_3D('',#1057,#858,#859);
#801=AXIS2_PLACEMENT_3D('',#1063,#863,#864);
#802=AXIS2_PLACEMENT_3D('',#1072,#869,#870);
#803=AXIS2_PLACEMENT_3D('',#1082,#876,#877);
#804=AXIS2_PLACEMENT_3D('',#1100,#887,#888);
#805=AXIS2_PLACEMENT_3D('',#1109,#893,#894);
#806=AXIS2_PLACEMENT_3D('',#1112,#897,#898);
#807=AXIS2_PLACEMENT_3D('',#1115,#901,#902);
#808=AXIS2_PLACEMENT_3D('',#1121,#905,#906);
#809=AXIS2_PLACEMENT_3D('',#1125,#908,#909);
#810=AXIS2_PLACEMENT_3D('',#1127,#911,#912);
#811=AXIS2_PLACEMENT_3D('',#1136,#917,#918);
#812=AXIS2_PLACEMENT_3D('',#1142,#922,#923);
#813=AXIS2_PLACEMENT_3D('',#1148,#927,#928);
#814=AXIS2_PLACEMENT_3D('',#1151,#931,#932);
#815=AXIS2_PLACEMENT_3D('',#1156,#936,#937);
#816=AXIS2_PLACEMENT_3D('',#1160,#940,#941);
#817=AXIS2_PLACEMENT_3D('',#1162,#942,#943);
#818=AXIS2_PLACEMENT_3D('',#1164,#945,#946);
#819=AXIS2_PLACEMENT_3D('',#1168,#949,#950);
#820=AXIS2_PLACEMENT_3D('',#1170,#951,#952);
#821=AXIS2_PLACEMENT_3D('',#1172,#954,#955);
#822=AXIS2_PLACEMENT_3D('',#1175,#958,#959);
#823=AXIS2_PLACEMENT_3D('',#1176,#960,#961);
#824=AXIS2_PLACEMENT_3D('',#1182,#965,#966);
#825=AXIS2_PLACEMENT_3D('',#1188,#970,#971);
#826=AXIS2_PLACEMENT_3D('',#1190,#972,#973);
#827=AXIS2_PLACEMENT_3D('',#1192,#974,#975);
#828=AXIS2_PLACEMENT_3D('',#1194,#977,#978);
#829=AXIS2_PLACEMENT_3D('',#1200,#982,#983);
#830=AXIS2_PLACEMENT_3D('',#1202,#984,#985);
#831=AXIS2_PLACEMENT_3D('',#1204,#986,#987);
#832=AXIS2_PLACEMENT_3D('',#1206,#989,#990);
#833=AXIS2_PLACEMENT_3D('',#1209,#993,#994);
#834=AXIS2_PLACEMENT_3D('',#1210,#995,#996);
#835=AXIS2_PLACEMENT_3D('',#1211,#997,#998);
#836=AXIS2_PLACEMENT_3D('',#1220,#1003,#1004);
#837=AXIS2_PLACEMENT_3D('',#1237,#1013,#1014);
#838=AXIS2_PLACEMENT_3D('',#1240,#1017,#1018);
#839=AXIS2_PLACEMENT_3D('',#1246,#1022,#1023);
#840=AXIS2_PLACEMENT_3D('',#1250,#1026,#1027);
#841=AXIS2_PLACEMENT_3D('',#1254,#1030,#1031);
#842=AXIS2_PLACEMENT_3D('',#1257,#1034,#1035);
#843=AXIS2_PLACEMENT_3D('',#1259,#1037,#1038);
#844=AXIS2_PLACEMENT_3D('',#1260,#1039,#1040);
#845=DIRECTION('axis',(0.,0.,1.));
#846=DIRECTION('refdir',(1.,0.,0.));
#847=DIRECTION('center_axis',(1.,0.,0.));
#848=DIRECTION('ref_axis',(0.,0.,-1.));
#849=DIRECTION('',(0.,0.,1.));
#850=DIRECTION('',(0.,1.,0.));
#851=DIRECTION('',(0.,0.,-1.));
#852=DIRECTION('',(0.,-1.,0.));
#853=DIRECTION('center_axis',(0.,0.,-1.));
#854=DIRECTION('ref_axis',(0.,1.,0.));
#855=DIRECTION('',(0.,1.,0.));
#856=DIRECTION('',(-1.,0.,0.));
#857=DIRECTION('',(1.,0.,0.));
#858=DIRECTION('center_axis',(0.,0.,1.));
#859=DIRECTION('ref_axis',(0.,-1.,0.));
#860=DIRECTION('',(0.,-1.,0.));
#861=DIRECTION('',(1.,0.,0.));
#862=DIRECTION('',(1.,0.,0.));
#863=DIRECTION('center_axis',(0.,1.,0.));
#864=DIRECTION('ref_axis',(0.,0.,1.));
#865=DIRECTION('',(0.,0.,-1.));
#866=DIRECTION('',(1.,0.,0.));
#867=DIRECTION('',(0.,0.,1.));
#868=DIRECTION('',(1.,0.,0.));
#869=DIRECTION('center_axis',(0.,-1.,0.));
#870=DIRECTION('ref_axis',(0.,0.,-1.));
#871=DIRECTION('',(0.,0.,1.));
#872=DIRECTION('',(1.,0.,0.));
#873=DIRECTION('',(0.,0.,1.));
#874=DIRECTION('',(-1.,0.,0.));
#875=DIRECTION('',(0.,0.,1.));
#876=DIRECTION('center_axis',(0.,-1.,0.));
#877=DIRECTION('ref_axis',(0.,0.,-1.));
#878=DIRECTION('',(0.,1.40961951386858E-16,-1.));
#879=DIRECTION('',(1.,0.,0.));
#880=DIRECTION('',(0.,0.,-1.));
#881=DIRECTION('',(-1.,0.,0.));
#882=DIRECTION('',(0.,0.,1.));
#883=DIRECTION('',(-1.,0.,0.));
#884=DIRECTION('',(0.,0.,-1.));
#885=DIRECTION('',(1.,0.,0.));
#886=DIRECTION('',(0.,-1.40961951386858E-16,-1.));
#887=DIRECTION('center_axis',(0.,1.,0.));
#888=DIRECTION('ref_axis',(0.,0.,-1.));
#889=DIRECTION('',(0.,0.,1.));
#890=DIRECTION('',(-1.,0.,0.));
#891=DIRECTION('',(0.,0.,-1.));
#892=DIRECTION('',(-1.,0.,0.));
#893=DIRECTION('center_axis',(0.,0.,1.));
#894=DIRECTION('ref_axis',(0.,1.,0.));
#895=DIRECTION('',(0.,-1.,0.));
#896=DIRECTION('',(0.,1.,0.));
#897=DIRECTION('center_axis',(0.,0.,-1.));
#898=DIRECTION('ref_axis',(0.,-1.,0.));
#899=DIRECTION('',(0.,1.,0.));
#900=DIRECTION('',(0.,-1.,0.));
#901=DIRECTION('center_axis',(1.,0.,0.));
#902=DIRECTION('ref_axis',(0.,0.,-1.));
#903=DIRECTION('',(0.,-1.,0.));
#904=DIRECTION('',(0.,-0.937239688002544,0.348685771480418));
#905=DIRECTION('center_axis',(1.,0.,0.));
#906=DIRECTION('ref_axis',(0.,0.728722549455531,-0.684809057997214));
#907=DIRECTION('',(0.,0.684809057997214,0.72872254945553));
#908=DIRECTION('center_axis',(1.,0.,0.));
#909=DIRECTION('ref_axis',(0.,0.,-1.));
#910=DIRECTION('',(0.,1.,6.12323399573677E-17));
#911=DIRECTION('center_axis',(1.,0.,0.));
#912=DIRECTION('ref_axis',(0.,0.684809057997214,0.72872254945553));
#913=DIRECTION('',(0.,-0.684809057997214,-0.72872254945553));
#914=DIRECTION('',(0.,-0.72872254945553,0.684809057997214));
#915=DIRECTION('',(0.,0.684809057997214,0.72872254945553));
#916=DIRECTION('',(0.,-0.72872254945553,0.684809057997214));
#917=DIRECTION('center_axis',(0.,-0.684809057997214,-0.72872254945553));
#918=DIRECTION('ref_axis',(1.,0.,0.));
#919=DIRECTION('',(-1.,0.,0.));
#920=DIRECTION('',(1.,0.,0.));
#921=DIRECTION('',(0.,-0.72872254945553,0.684809057997214));
#922=DIRECTION('center_axis',(-1.,0.,0.));
#923=DIRECTION('ref_axis',(0.,-0.684809057997214,-0.72872254945553));
#924=DIRECTION('',(0.,0.684809057997214,0.72872254945553));
#925=DIRECTION('',(0.,-0.684809057997214,-0.72872254945553));
#926=DIRECTION('',(0.,-0.72872254945553,0.684809057997214));
#927=DIRECTION('center_axis',(0.,0.684809057997214,0.72872254945553));
#928=DIRECTION('ref_axis',(-1.,0.,0.));
#929=DIRECTION('',(1.,0.,0.));
#930=DIRECTION('',(-1.,0.,0.));
#931=DIRECTION('center_axis',(0.,0.,1.));
#932=DIRECTION('ref_axis',(0.,-1.,0.));
#933=DIRECTION('',(0.,1.,0.));
#934=DIRECTION('',(1.,0.,0.));
#935=DIRECTION('',(0.,-1.,0.));
#936=DIRECTION('center_axis',(0.,0.348685771480418,0.937239688002544));
#937=DIRECTION('ref_axis',(0.,-0.937239688002544,0.348685771480418));
#938=DIRECTION('',(0.,0.937239688002544,-0.348685771480418));
#939=DIRECTION('',(1.,0.,0.));
#940=DIRECTION('center_axis',(1.,0.,0.));
#941=DIRECTION('ref_axis',(0.,0.728722549455531,-0.684809057997214));
#942=DIRECTION('center_axis',(1.,0.,0.));
#943=DIRECTION('ref_axis',(0.,0.728722549455531,-0.684809057997214));
#944=DIRECTION('',(1.,0.,0.));
#945=DIRECTION('center_axis',(0.,0.72872254945553,-0.684809057997214));
#946=DIRECTION('ref_axis',(0.,0.684809057997214,0.72872254945553));
#947=DIRECTION('',(0.,0.684809057997214,0.72872254945553));
#948=DIRECTION('',(1.,0.,0.));
#949=DIRECTION('center_axis',(1.,0.,0.));
#950=DIRECTION('ref_axis',(0.,0.,-1.));
#951=DIRECTION('center_axis',(1.,0.,0.));
#952=DIRECTION('ref_axis',(0.,0.,-1.));
#953=DIRECTION('',(1.,0.,0.));
#954=DIRECTION('center_axis',(0.,6.12323399573677E-17,-1.));
#955=DIRECTION('ref_axis',(0.,1.,6.12323399573677E-17));
#956=DIRECTION('',(0.,1.,6.12323399573677E-17));
#957=DIRECTION('',(0.,1.,0.));
#958=DIRECTION('center_axis',(1.,0.,0.));
#959=DIRECTION('ref_axis',(0.,0.,-1.));
#960=DIRECTION('center_axis',(0.,0.,1.));
#961=DIRECTION('ref_axis',(0.,-1.,0.));
#962=DIRECTION('',(0.,1.,0.));
#963=DIRECTION('',(0.,1.,0.));
#964=DIRECTION('',(-1.,0.,0.));
#965=DIRECTION('center_axis',(0.,0.348685771480418,0.937239688002544));
#966=DIRECTION('ref_axis',(0.,-0.937239688002544,0.348685771480418));
#967=DIRECTION('',(0.,0.937239688002544,-0.348685771480418));
#968=DIRECTION('',(0.,0.937239688002544,-0.348685771480418));
#969=DIRECTION('',(1.,0.,0.));
#970=DIRECTION('center_axis',(1.,0.,0.));
#971=DIRECTION('ref_axis',(0.,0.728722549455531,-0.684809057997214));
#972=DIRECTION('center_axis',(-1.,0.,0.));
#973=DIRECTION('ref_axis',(0.,0.728722549455531,-0.684809057997214));
#974=DIRECTION('center_axis',(-1.,0.,0.));
#975=DIRECTION('ref_axis',(0.,0.728722549455531,-0.684809057997214));
#976=DIRECTION('',(1.,0.,0.));
#977=DIRECTION('center_axis',(0.,0.72872254945553,-0.684809057997214));
#978=DIRECTION('ref_axis',(0.,0.684809057997214,0.72872254945553));
#979=DIRECTION('',(0.,-0.684809057997214,-0.72872254945553));
#980=DIRECTION('',(0.,-0.684809057997214,-0.72872254945553));
#981=DIRECTION('',(1.,0.,0.));
#982=DIRECTION('center_axis',(1.,0.,0.));
#983=DIRECTION('ref_axis',(0.,0.,-1.));
#984=DIRECTION('center_axis',(-1.,0.,0.));
#985=DIRECTION('ref_axis',(0.,0.,-1.));
#986=DIRECTION('center_axis',(-1.,0.,0.));
#987=DIRECTION('ref_axis',(0.,0.,-1.));
#988=DIRECTION('',(1.,0.,0.));
#989=DIRECTION('center_axis',(0.,6.12323399573677E-17,-1.));
#990=DIRECTION('ref_axis',(0.,1.,6.12323399573677E-17));
#991=DIRECTION('',(0.,-1.,-6.12323399573677E-17));
#992=DIRECTION('',(0.,-1.,-6.12323399573677E-17));
#993=DIRECTION('center_axis',(1.,0.,0.));
#994=DIRECTION('ref_axis',(0.,0.,-1.));
#995=DIRECTION('center_axis',(1.,0.,0.));
#996=DIRECTION('ref_axis',(0.,0.,-1.));
#997=DIRECTION('center_axis',(1.,0.,0.));
#998=DIRECTION('ref_axis',(0.,0.,-1.));
#999=DIRECTION('',(0.,1.,-1.38777876010193E-16));
#1000=DIRECTION('',(0.,0.,1.));
#1001=DIRECTION('',(0.,-1.,0.));
#1002=DIRECTION('',(0.,-1.40961951386858E-16,-1.));
#1003=DIRECTION('center_axis',(-1.,0.,0.));
#1004=DIRECTION('ref_axis',(0.,0.,1.));
#1005=DIRECTION('',(0.,-1.,0.));
#1006=DIRECTION('',(0.,9.91270557701032E-18,1.));
#1007=DIRECTION('',(0.,-1.,0.));
#1008=DIRECTION('',(0.,0.,-1.));
#1009=DIRECTION('',(0.,-1.,0.));
#1010=DIRECTION('',(0.,0.,1.));
#1011=DIRECTION('',(0.,-1.,1.38777876010193E-16));
#1012=DIRECTION('',(0.,1.40961951386858E-16,1.));
#1013=DIRECTION('center_axis',(0.,-1.38777876010193E-16,-1.));
#1014=DIRECTION('ref_axis',(0.,1.,-1.38777876010193E-16));
#1015=DIRECTION('',(1.,0.,0.));
#1016=DIRECTION('',(1.,0.,0.));
#1017=DIRECTION('center_axis',(0.,0.,-1.));
#1018=DIRECTION('ref_axis',(0.,1.,0.));
#1019=DIRECTION('',(1.,0.,0.));
#1020=DIRECTION('',(0.,1.,0.));
#1021=DIRECTION('',(1.,0.,0.));
#1022=DIRECTION('center_axis',(0.,-1.,9.91270557701032E-18));
#1023=DIRECTION('ref_axis',(0.,-9.91270557701032E-18,-1.));
#1024=DIRECTION('',(0.,-9.91270557701032E-18,-1.));
#1025=DIRECTION('',(1.,0.,0.));
#1026=DIRECTION('center_axis',(0.,0.,1.));
#1027=DIRECTION('ref_axis',(0.,-1.,0.));
#1028=DIRECTION('',(0.,-1.,0.));
#1029=DIRECTION('',(1.,0.,0.));
#1030=DIRECTION('center_axis',(0.,-1.,0.));
#1031=DIRECTION('ref_axis',(0.,0.,-1.));
#1032=DIRECTION('',(0.,1.40961951386858E-16,1.));
#1033=DIRECTION('',(1.,0.,0.));
#1034=DIRECTION('center_axis',(0.,0.,1.));
#1035=DIRECTION('ref_axis',(0.,-1.,0.));
#1036=DIRECTION('',(1.,0.,0.));
#1037=DIRECTION('center_axis',(0.,1.,0.));
#1038=DIRECTION('ref_axis',(0.,0.,1.));
#1039=DIRECTION('center_axis',(1.,0.,0.));
#1040=DIRECTION('ref_axis',(0.,0.,-1.));
#1041=CARTESIAN_POINT('',(0.,0.,0.));
#1042=CARTESIAN_POINT('Origin',(19.25,7.45058043039037E-9,12.9999999925494));
#1043=CARTESIAN_POINT('',(19.25,4.16333634234434E-16,2.));
#1044=CARTESIAN_POINT('',(19.25,4.16333634234434E-16,24.));
#1045=CARTESIAN_POINT('',(19.25,0.,19.4999999962747));
#1046=CARTESIAN_POINT('',(19.25,-1.,2.));
#1047=CARTESIAN_POINT('',(19.25,4.22885854160574E-16,2.));
#1048=CARTESIAN_POINT('',(19.25,-1.,24.));
#1049=CARTESIAN_POINT('',(19.25,-1.,19.4999999962747));
#1050=CARTESIAN_POINT('',(19.25,4.22885854160574E-16,24.));
#1051=CARTESIAN_POINT('Origin',(-1.,-1.,2.));
#1052=CARTESIAN_POINT('',(-1.,-1.,2.));
#1053=CARTESIAN_POINT('',(-1.,4.22885854160574E-16,2.));
#1054=CARTESIAN_POINT('',(-1.,4.5563438039525,2.));
#1055=CARTESIAN_POINT('',(-0.5,-1.,2.));
#1056=CARTESIAN_POINT('',(-0.5,0.,2.));
#1057=CARTESIAN_POINT('Origin',(-1.,4.22885854160574E-16,24.));
#1058=CARTESIAN_POINT('',(-1.,4.22885854160574E-16,24.));
#1059=CARTESIAN_POINT('',(-1.,-1.,24.));
#1060=CARTESIAN_POINT('',(-1.,5.0563438039525,24.));
#1061=CARTESIAN_POINT('',(-1.,4.22885854160574E-16,24.));
#1062=CARTESIAN_POINT('',(-0.5,-1.,24.));
#1063=CARTESIAN_POINT('Origin',(-1.,1.00000001490116,0.));
#1064=CARTESIAN_POINT('',(0.,1.00000001490116,25.9999999850988));
#1065=CARTESIAN_POINT('',(0.,1.00000001490116,0.));
#1066=CARTESIAN_POINT('',(0.,1.00000001490116,6.5));
#1067=CARTESIAN_POINT('',(-1.,1.00000001490116,25.9999999850988));
#1068=CARTESIAN_POINT('',(-1.,1.00000001490116,25.9999999850988));
#1069=CARTESIAN_POINT('',(-1.,1.00000001490116,0.));
#1070=CARTESIAN_POINT('',(-1.,1.00000001490116,6.5));
#1071=CARTESIAN_POINT('',(-1.,1.00000001490116,0.));
#1072=CARTESIAN_POINT('Origin',(0.,-1.,26.));
#1073=CARTESIAN_POINT('',(-1.,-1.,-1.));
#1074=CARTESIAN_POINT('',(-1.,-1.,19.5));
#1075=CARTESIAN_POINT('',(86.,-1.,-1.));
#1076=CARTESIAN_POINT('',(0.,-1.,-1.));
#1077=CARTESIAN_POINT('',(86.,-1.,27.));
#1078=CARTESIAN_POINT('',(86.,-1.,19.5));
#1079=CARTESIAN_POINT('',(-1.,-1.,27.));
#1080=CARTESIAN_POINT('',(0.,-1.,27.));
#1081=CARTESIAN_POINT('',(-1.,-1.,19.5));
#1082=CARTESIAN_POINT('Origin',(0.,0.,26.));
#1083=CARTESIAN_POINT('',(-1.,1.38777878078145E-16,25.9999999850988));
#1084=CARTESIAN_POINT('',(-1.,1.11022302462516E-15,19.4999999925494));
#1085=CARTESIAN_POINT('',(85.,0.,26.));
#1086=CARTESIAN_POINT('',(-1.,1.38777878078145E-16,25.9999999850988));
#1087=CARTESIAN_POINT('',(85.,0.,18.0000002682209));
#1088=CARTESIAN_POINT('',(85.,0.,0.));
#1089=CARTESIAN_POINT('',(86.,0.,18.0000002682209));
#1090=CARTESIAN_POINT('',(86.,0.,18.0000002682209));
#1091=CARTESIAN_POINT('',(86.,0.,8.00000011920929));
#1092=CARTESIAN_POINT('',(86.,0.,10.5000000596046));
#1093=CARTESIAN_POINT('',(85.,0.,8.00000011920929));
#1094=CARTESIAN_POINT('',(86.,0.,8.00000011920929));
#1095=CARTESIAN_POINT('',(85.,0.,0.));
#1096=CARTESIAN_POINT('',(85.,0.,0.));
#1097=CARTESIAN_POINT('',(-1.,0.,0.));
#1098=CARTESIAN_POINT('',(0.,0.,0.));
#1099=CARTESIAN_POINT('',(-1.,1.11022302462516E-15,7.5));
#1100=CARTESIAN_POINT('Origin',(86.,4.00000005960464,18.0000002682209));
#1101=CARTESIAN_POINT('',(85.,4.00000005960464,8.00000011920929));
#1102=CARTESIAN_POINT('',(85.,4.00000005960464,18.0000002682209));
#1103=CARTESIAN_POINT('',(85.,4.00000005960464,15.5000001341105));
#1104=CARTESIAN_POINT('',(86.,4.00000005960464,8.00000011920929));
#1105=CARTESIAN_POINT('',(86.,4.00000005960464,8.00000011920929));
#1106=CARTESIAN_POINT('',(86.,4.00000005960464,18.0000002682209));
#1107=CARTESIAN_POINT('',(86.,4.00000005960464,15.5000001341105));
#1108=CARTESIAN_POINT('',(86.,4.00000005960464,18.0000002682209));
#1109=CARTESIAN_POINT('Origin',(86.,0.,18.0000002682209));
#1110=CARTESIAN_POINT('',(85.,5.0563438039525,18.0000002682209));
#1111=CARTESIAN_POINT('',(86.,5.0563438039525,18.0000002682209));
#1112=CARTESIAN_POINT('Origin',(86.,4.00000005960464,8.00000011920929));
#1113=CARTESIAN_POINT('',(85.,7.05634383375483,8.00000011920929));
#1114=CARTESIAN_POINT('',(86.,7.05634383375483,8.00000011920929));
#1115=CARTESIAN_POINT('Origin',(85.,10.112687607905,13.));
#1116=CARTESIAN_POINT('',(85.,3.,26.));
#1117=CARTESIAN_POINT('',(85.,0.,26.));
#1118=CARTESIAN_POINT('',(85.,18.9227467587709,20.0761842368179));
#1119=CARTESIAN_POINT('',(85.,3.,26.));
#1120=CARTESIAN_POINT('',(85.,19.6828203147211,16.8320867448184));
#1121=CARTESIAN_POINT('Origin',(85.,18.22537521581,18.2017048608128));
#1122=CARTESIAN_POINT('',(85.,4.45744509891106,0.630381884005572));
#1123=CARTESIAN_POINT('',(85.,4.45744509891106,0.630381884005571));
#1124=CARTESIAN_POINT('',(85.,3.,2.77555756156289E-16));
#1125=CARTESIAN_POINT('Origin',(85.,3.,2.));
#1126=CARTESIAN_POINT('',(85.,0.,0.));
#1127=CARTESIAN_POINT('Origin',(74.,7.32038279229388,2.21664486077052));
#1128=CARTESIAN_POINT('',(74.,17.5486051707938,14.5610147100562));
#1129=CARTESIAN_POINT('',(74.,6.59166024283835,2.90145391876774));
#1130=CARTESIAN_POINT('',(74.,5.52455267087471,1.76591790138666));
#1131=CARTESIAN_POINT('',(74.,18.2773277202493,13.876205652059));
#1132=CARTESIAN_POINT('',(74.,18.2773277202493,13.876205652059));
#1133=CARTESIAN_POINT('',(74.,7.32038279229388,2.21664486077052));
#1134=CARTESIAN_POINT('',(74.,6.25327522033024,1.08110884338944));
#1135=CARTESIAN_POINT('',(74.,7.32038279229388,2.21664486077052));
#1136=CARTESIAN_POINT('Origin',(11.,7.32038279229388,2.21664486077052));
#1137=CARTESIAN_POINT('',(11.,6.59166024283835,2.90145391876774));
#1138=CARTESIAN_POINT('',(5.5,6.59166024283835,2.90145391876774));
#1139=CARTESIAN_POINT('',(11.,7.32038279229388,2.21664486077052));
#1140=CARTESIAN_POINT('',(5.5,7.32038279229388,2.21664486077053));
#1141=CARTESIAN_POINT('',(11.,7.32038279229388,2.21664486077052));
#1142=CARTESIAN_POINT('Origin',(11.,18.2773277202493,13.876205652059));
#1143=CARTESIAN_POINT('',(11.,17.5486051707938,14.5610147100562));
#1144=CARTESIAN_POINT('',(11.,11.0030251348524,7.5956982970309));
#1145=CARTESIAN_POINT('',(11.,18.2773277202493,13.876205652059));
#1146=CARTESIAN_POINT('',(11.,11.731747684308,6.91088923903368));
#1147=CARTESIAN_POINT('',(11.,18.2773277202493,13.876205652059));
#1148=CARTESIAN_POINT('Origin',(74.,18.2773277202493,13.876205652059));
#1149=CARTESIAN_POINT('',(37.,17.5486051707938,14.5610147100562));
#1150=CARTESIAN_POINT('',(37.,18.2773277202493,13.876205652059));
#1151=CARTESIAN_POINT('Origin',(0.,3.,26.));
#1152=CARTESIAN_POINT('',(0.,3.,26.));
#1153=CARTESIAN_POINT('',(0.,0.,26.));
#1154=CARTESIAN_POINT('',(0.,3.,26.));
#1155=CARTESIAN_POINT('',(-1.,5.55634381140309,25.9999999850988));
#1156=CARTESIAN_POINT('Origin',(0.,18.9227467587708,20.0761842368179));
#1157=CARTESIAN_POINT('',(0.,18.9227467587709,20.0761842368179));
#1158=CARTESIAN_POINT('',(0.,3.,26.));
#1159=CARTESIAN_POINT('',(0.,18.9227467587709,20.0761842368179));
#1160=CARTESIAN_POINT('Origin',(0.,18.22537521581,18.2017048608128));
#1161=CARTESIAN_POINT('',(0.,19.6828203147211,16.8320867448184));
#1162=CARTESIAN_POINT('Origin',(0.,18.22537521581,18.2017048608128));
#1163=CARTESIAN_POINT('',(0.,19.6828203147211,16.8320867448184));
#1164=CARTESIAN_POINT('Origin',(0.,4.45744509891106,0.630381884005571));
#1165=CARTESIAN_POINT('',(0.,4.45744509891106,0.630381884005572));
#1166=CARTESIAN_POINT('',(0.,4.45744509891106,0.630381884005571));
#1167=CARTESIAN_POINT('',(0.,4.45744509891106,0.630381884005572));
#1168=CARTESIAN_POINT('Origin',(0.,3.,2.));
#1169=CARTESIAN_POINT('',(0.,3.,2.77555756156289E-16));
#1170=CARTESIAN_POINT('Origin',(0.,3.,2.));
#1171=CARTESIAN_POINT('',(0.,3.,2.77555756156289E-16));
#1172=CARTESIAN_POINT('Origin',(0.,0.,0.));
#1173=CARTESIAN_POINT('',(0.,0.,0.));
#1174=CARTESIAN_POINT('',(-1.,5.0563438039525,0.));
#1175=CARTESIAN_POINT('Origin',(0.,10.112687607905,13.));
#1176=CARTESIAN_POINT('Origin',(0.,3.,27.));
#1177=CARTESIAN_POINT('',(-1.,3.17999103241578,27.));
#1178=CARTESIAN_POINT('',(-1.,6.5563438039525,27.));
#1179=CARTESIAN_POINT('',(86.,3.17999103241578,27.));
#1180=CARTESIAN_POINT('',(86.,6.5563438039525,27.));
#1181=CARTESIAN_POINT('',(0.,3.17999103241579,27.));
#1182=CARTESIAN_POINT('Origin',(0.,19.2714325302513,21.0134239248205));
#1183=CARTESIAN_POINT('',(-1.,19.2714325302513,21.0134239248205));
#1184=CARTESIAN_POINT('',(-1.,16.5582303241221,22.022829540627));
#1185=CARTESIAN_POINT('',(86.,19.2714325302513,21.0134239248205));
#1186=CARTESIAN_POINT('',(86.,16.5582303241221,22.022829540627));
#1187=CARTESIAN_POINT('',(0.,19.2714325302513,21.0134239248205));
#1188=CARTESIAN_POINT('Origin',(0.,18.22537521581,18.2017048608128));
#1189=CARTESIAN_POINT('',(-1.,20.4115428641766,16.1472776868212));
#1190=CARTESIAN_POINT('Origin',(-1.,18.22537521581,18.2017048608128));
#1191=CARTESIAN_POINT('',(86.,20.4115428641766,16.1472776868212));
#1192=CARTESIAN_POINT('Origin',(86.,18.22537521581,18.2017048608128));
#1193=CARTESIAN_POINT('',(0.,20.4115428641766,16.1472776868212));
#1194=CARTESIAN_POINT('Origin',(0.,5.18616764836659,-0.054427173991643));
#1195=CARTESIAN_POINT('',(-1.,5.18616764836659,-0.0544271739916426));
#1196=CARTESIAN_POINT('',(-1.,9.59865980801357,4.64101675812346));
#1197=CARTESIAN_POINT('',(86.,5.18616764836659,-0.0544271739916426));
#1198=CARTESIAN_POINT('',(86.,9.59865980801357,4.64101675812346));
#1199=CARTESIAN_POINT('',(0.,5.18616764836659,-0.0544271739916428));
#1200=CARTESIAN_POINT('Origin',(0.,3.,2.));
#1201=CARTESIAN_POINT('',(-1.,3.,-0.999999999999999));
#1202=CARTESIAN_POINT('Origin',(-1.,3.,2.));
#1203=CARTESIAN_POINT('',(86.,3.,-0.999999999999999));
#1204=CARTESIAN_POINT('Origin',(86.,3.,2.));
#1205=CARTESIAN_POINT('',(0.,3.,-1.));
#1206=CARTESIAN_POINT('Origin',(0.,6.12323399573677E-17,-1.));
#1207=CARTESIAN_POINT('',(-1.,5.0563438039525,-1.));
#1208=CARTESIAN_POINT('',(86.,5.0563438039525,-1.));
#1209=CARTESIAN_POINT('Origin',(86.,10.112687607905,13.));
#1210=CARTESIAN_POINT('Origin',(-1.,10.112687607905,13.));
#1211=CARTESIAN_POINT('Origin',(21.,0.500000007450581,12.9999999925494));
#1212=CARTESIAN_POINT('',(21.,1.38777878078145E-16,0.250000000000002));
#1213=CARTESIAN_POINT('',(21.,1.00000001490116,0.250000000000002));
#1214=CARTESIAN_POINT('',(21.,1.00000001490116,0.250000000000002));
#1215=CARTESIAN_POINT('',(21.,1.00000001490116,25.7499999850988));
#1216=CARTESIAN_POINT('',(21.,1.00000001490116,24.));
#1217=CARTESIAN_POINT('',(21.,1.38777878078145E-16,25.7499999850988));
#1218=CARTESIAN_POINT('',(21.,1.00000001490116,25.7499999850988));
#1219=CARTESIAN_POINT('',(21.,0.,-1.));
#1220=CARTESIAN_POINT('Origin',(-1.,7.45058043039037E-9,12.9999999925494));
#1221=CARTESIAN_POINT('',(-1.,4.22885854160574E-16,2.25));
#1222=CARTESIAN_POINT('',(-1.,-1.,2.25));
#1223=CARTESIAN_POINT('',(-1.,4.22885854160574E-16,2.25));
#1224=CARTESIAN_POINT('',(-1.,-1.,23.75));
#1225=CARTESIAN_POINT('',(-1.,-1.,-1.));
#1226=CARTESIAN_POINT('',(-1.,4.22885854160574E-16,23.75));
#1227=CARTESIAN_POINT('',(-1.,4.22885854160574E-16,23.75));
#1228=CARTESIAN_POINT('',(-1.,1.38777878078145E-16,25.7499999850988));
#1229=CARTESIAN_POINT('',(-1.,4.22885854160574E-16,24.));
#1230=CARTESIAN_POINT('',(-1.,1.00000001490116,25.7499999850988));
#1231=CARTESIAN_POINT('',(-1.,1.00000001490116,25.7499999850988));
#1232=CARTESIAN_POINT('',(-1.,1.00000001490116,0.250000000000002));
#1233=CARTESIAN_POINT('',(-1.,1.00000001490116,24.));
#1234=CARTESIAN_POINT('',(-1.,1.38777878078145E-16,0.250000000000002));
#1235=CARTESIAN_POINT('',(-1.,1.00000001490116,0.250000000000002));
#1236=CARTESIAN_POINT('',(-1.,0.,-1.));
#1237=CARTESIAN_POINT('Origin',(-1.,1.38777878078145E-16,0.250000000000002));
#1238=CARTESIAN_POINT('',(-1.,1.00000001490116,0.250000000000002));
#1239=CARTESIAN_POINT('',(-1.,1.38777878078145E-16,0.250000000000002));
#1240=CARTESIAN_POINT('Origin',(-1.,-1.,2.25));
#1241=CARTESIAN_POINT('',(19.,4.16333634234434E-16,2.25));
#1242=CARTESIAN_POINT('',(-1.,4.22885854160574E-16,2.25));
#1243=CARTESIAN_POINT('',(19.,-1.,2.25));
#1244=CARTESIAN_POINT('',(19.,4.22885854160574E-16,2.25));
#1245=CARTESIAN_POINT('',(-1.,-1.,2.25));
#1246=CARTESIAN_POINT('Origin',(-1.,-1.,23.75));
#1247=CARTESIAN_POINT('',(19.,-1.,23.75));
#1248=CARTESIAN_POINT('',(19.,-1.,-1.));
#1249=CARTESIAN_POINT('',(-1.,-1.,23.75));
#1250=CARTESIAN_POINT('Origin',(-1.,4.22885854160574E-16,23.75));
#1251=CARTESIAN_POINT('',(19.,4.16333634234434E-16,23.75));
#1252=CARTESIAN_POINT('',(19.,4.22885854160574E-16,23.75));
#1253=CARTESIAN_POINT('',(-1.,4.22885854160574E-16,23.75));
#1254=CARTESIAN_POINT('Origin',(-1.,4.22885854160574E-16,25.7499999850988));
#1255=CARTESIAN_POINT('',(19.,2.87209975783032E-15,19.3749999888241));
#1256=CARTESIAN_POINT('',(-1.,1.38777878078145E-16,25.7499999850988));
#1257=CARTESIAN_POINT('Origin',(-1.,1.00000001490116,25.7499999850988));
#1258=CARTESIAN_POINT('',(-1.,1.00000001490116,25.7499999850988));
#1259=CARTESIAN_POINT('Origin',(-1.,1.00000001490116,0.249999999999999));
#1260=CARTESIAN_POINT('Origin',(19.,7.45058043039037E-9,12.9999999925494));
#1261=UNCERTAINTY_MEASURE_WITH_UNIT(LENGTH_MEASURE(0.01),#1265,
'DISTANCE_ACCURACY_VALUE',
'Maximum model space distance between geometric entities at asserted c
onnectivities');
#1262=UNCERTAINTY_MEASURE_WITH_UNIT(LENGTH_MEASURE(0.01),#1265,
'DISTANCE_ACCURACY_VALUE',
'Maximum model space distance between geometric entities at asserted c
onnectivities');
#1263=(
GEOMETRIC_REPRESENTATION_CONTEXT(3)
GLOBAL_UNCERTAINTY_ASSIGNED_CONTEXT((#1261))
GLOBAL_UNIT_ASSIGNED_CONTEXT((#1265,#1267,#1268))
REPRESENTATION_CONTEXT('','3D')
);
#1264=(
GEOMETRIC_REPRESENTATION_CONTEXT(3)
GLOBAL_UNCERTAINTY_ASSIGNED_CONTEXT((#1262))
GLOBAL_UNIT_ASSIGNED_CONTEXT((#1265,#1267,#1268))
REPRESENTATION_CONTEXT('','3D')
);
#1265=(
LENGTH_UNIT()
NAMED_UNIT(*)
SI_UNIT(.MILLI.,.METRE.)
);
#1266=(
LENGTH_UNIT()
NAMED_UNIT(*)
SI_UNIT($,.METRE.)
);
#1267=(
NAMED_UNIT(*)
PLANE_ANGLE_UNIT()
SI_UNIT($,.RADIAN.)
);
#1268=(
NAMED_UNIT(*)
SI_UNIT($,.STERADIAN.)
SOLID_ANGLE_UNIT()
);
#1269=SHAPE_DEFINITION_REPRESENTATION(#1270,#1271);
#1270=PRODUCT_DEFINITION_SHAPE('',$,#1273);
#1271=SHAPE_REPRESENTATION('',(#797),#1263);
#1272=PRODUCT_DEFINITION_CONTEXT('part definition',#1277,'design');
#1273=PRODUCT_DEFINITION('ESP32 7 seg','ESP32 7 seg v3',#1274,#1272);
#1274=PRODUCT_DEFINITION_FORMATION('',$,#1279);
#1275=PRODUCT_RELATED_PRODUCT_CATEGORY('ESP32 7 seg v3',
'ESP32 7 seg v3',(#1279));
#1276=APPLICATION_PROTOCOL_DEFINITION('international standard',
'automotive_design',2009,#1277);
#1277=APPLICATION_CONTEXT(
'Core Data for Automotive Mechanical Design Process');
#1278=PRODUCT_CONTEXT('part definition',#1277,'mechanical');
#1279=PRODUCT('ESP32 7 seg','ESP32 7 seg v3',$,(#1278));
#1280=PRESENTATION_STYLE_ASSIGNMENT((#1283));
#1281=PRESENTATION_STYLE_ASSIGNMENT((#1284));
#1282=PRESENTATION_STYLE_ASSIGNMENT((#1285));
#1283=SURFACE_STYLE_USAGE(.BOTH.,#1286);
#1284=SURFACE_STYLE_USAGE(.BOTH.,#1287);
#1285=SURFACE_STYLE_USAGE(.BOTH.,#1288);
#1286=SURFACE_SIDE_STYLE('',(#1289));
#1287=SURFACE_SIDE_STYLE('',(#1290));
#1288=SURFACE_SIDE_STYLE('',(#1291));
#1289=SURFACE_STYLE_FILL_AREA(#1292);
#1290=SURFACE_STYLE_FILL_AREA(#1293);
#1291=SURFACE_STYLE_FILL_AREA(#1294);
#1292=FILL_AREA_STYLE('Steel - Satin',(#1295));
#1293=FILL_AREA_STYLE('ABS (White)',(#1296));
#1294=FILL_AREA_STYLE('Acetal Resin (White)',(#1297));
#1295=FILL_AREA_STYLE_COLOUR('Steel - Satin',#1298);
#1296=FILL_AREA_STYLE_COLOUR('ABS (White)',#1299);
#1297=FILL_AREA_STYLE_COLOUR('Acetal Resin (White)',#1300);
#1298=COLOUR_RGB('Steel - Satin',0.627450980392157,0.627450980392157,0.627450980392157);
#1299=COLOUR_RGB('ABS (White)',0.666666666666667,0.666666666666667,0.666666666666667);
#1300=COLOUR_RGB('Acetal Resin (White)',0.411764705882353,0.745098039215686,
1.);
ENDSEC;
END-ISO-10303-21;
