ISO-10303-21;
HEADER;
/* Generated by software containing ST-Developer
 * from STEP Tools, Inc. (www.steptools.com) 
 */

FILE_DESCRIPTION(
/* description */ (''),
/* implementation_level */ '2;1');

FILE_NAME(
/* name */ '20_degree_keystone_jack.step',
/* time_stamp */ '2023-09-12T06:42:49-04:00',
/* author */ (''),
/* organization */ (''),
/* preprocessor_version */ 'ST-DEVELOPER v20',
/* originating_system */ 'Autodesk Translation Framework v12.9.0.99',
/* authorisation */ '');

FILE_SCHEMA (('AUTOMOTIVE_DESIGN { 1 0 10303 214 3 1 1 }'));
ENDSEC;

DATA;
#10=MECHANICAL_DESIGN_GEOMETRIC_PRESENTATION_REPRESENTATION('',(#15,#16),
#1119);
#11=SHAPE_REPRESENTATION_RELATIONSHIP('SRR','None',#1126,#12);
#12=ADVANCED_BREP_SHAPE_REPRESENTATION('',(#17,#18),#1118);
#13=FACE_BOUND('',#97,.T.);
#14=FACE_BOUND('',#102,.T.);
#15=STYLED_ITEM('',(#1135),#17);
#16=STYLED_ITEM('',(#1135),#18);
#17=MANIFOLD_SOLID_BREP('keystone jack',#690);
#18=MANIFOLD_SOLID_BREP('cut_feature',#691);
#19=CYLINDRICAL_SURFACE('',#710,2.);
#20=CYLINDRICAL_SURFACE('',#734,3.3);
#21=CYLINDRICAL_SURFACE('',#738,3.3);
#22=CIRCLE('',#709,2.);
#23=CIRCLE('',#711,2.);
#24=CIRCLE('',#735,3.3);
#25=CIRCLE('',#736,3.3);
#26=CIRCLE('',#739,3.3);
#27=CIRCLE('',#740,3.3);
#28=FACE_OUTER_BOUND('',#65,.T.);
#29=FACE_OUTER_BOUND('',#66,.T.);
#30=FACE_OUTER_BOUND('',#67,.T.);
#31=FACE_OUTER_BOUND('',#68,.T.);
#32=FACE_OUTER_BOUND('',#69,.T.);
#33=FACE_OUTER_BOUND('',#70,.T.);
#34=FACE_OUTER_BOUND('',#71,.T.);
#35=FACE_OUTER_BOUND('',#72,.T.);
#36=FACE_OUTER_BOUND('',#73,.T.);
#37=FACE_OUTER_BOUND('',#74,.T.);
#38=FACE_OUTER_BOUND('',#75,.T.);
#39=FACE_OUTER_BOUND('',#76,.T.);
#40=FACE_OUTER_BOUND('',#77,.T.);
#41=FACE_OUTER_BOUND('',#78,.T.);
#42=FACE_OUTER_BOUND('',#79,.T.);
#43=FACE_OUTER_BOUND('',#80,.T.);
#44=FACE_OUTER_BOUND('',#81,.T.);
#45=FACE_OUTER_BOUND('',#82,.T.);
#46=FACE_OUTER_BOUND('',#83,.T.);
#47=FACE_OUTER_BOUND('',#84,.T.);
#48=FACE_OUTER_BOUND('',#85,.T.);
#49=FACE_OUTER_BOUND('',#86,.T.);
#50=FACE_OUTER_BOUND('',#87,.T.);
#51=FACE_OUTER_BOUND('',#88,.T.);
#52=FACE_OUTER_BOUND('',#89,.T.);
#53=FACE_OUTER_BOUND('',#90,.T.);
#54=FACE_OUTER_BOUND('',#91,.T.);
#55=FACE_OUTER_BOUND('',#92,.T.);
#56=FACE_OUTER_BOUND('',#93,.T.);
#57=FACE_OUTER_BOUND('',#94,.T.);
#58=FACE_OUTER_BOUND('',#95,.T.);
#59=FACE_OUTER_BOUND('',#96,.T.);
#60=FACE_OUTER_BOUND('',#98,.T.);
#61=FACE_OUTER_BOUND('',#99,.T.);
#62=FACE_OUTER_BOUND('',#100,.T.);
#63=FACE_OUTER_BOUND('',#101,.T.);
#64=FACE_OUTER_BOUND('',#103,.T.);
#65=EDGE_LOOP('',(#433,#434,#435,#436));
#66=EDGE_LOOP('',(#437,#438,#439,#440));
#67=EDGE_LOOP('',(#441,#442,#443,#444,#445,#446,#447,#448,#449,#450,#451,
#452,#453,#454,#455,#456,#457,#458,#459,#460,#461,#462,#463,#464));
#68=EDGE_LOOP('',(#465,#466,#467,#468,#469));
#69=EDGE_LOOP('',(#470,#471,#472,#473));
#70=EDGE_LOOP('',(#474,#475,#476,#477));
#71=EDGE_LOOP('',(#478,#479,#480,#481,#482));
#72=EDGE_LOOP('',(#483,#484,#485,#486,#487,#488,#489,#490,#491,#492,#493,
#494,#495,#496,#497,#498,#499,#500,#501,#502,#503,#504,#505,#506));
#73=EDGE_LOOP('',(#507,#508,#509,#510));
#74=EDGE_LOOP('',(#511,#512,#513,#514));
#75=EDGE_LOOP('',(#515,#516,#517,#518));
#76=EDGE_LOOP('',(#519,#520,#521,#522));
#77=EDGE_LOOP('',(#523,#524,#525,#526));
#78=EDGE_LOOP('',(#527,#528,#529,#530));
#79=EDGE_LOOP('',(#531,#532,#533,#534));
#80=EDGE_LOOP('',(#535,#536,#537,#538));
#81=EDGE_LOOP('',(#539,#540,#541,#542));
#82=EDGE_LOOP('',(#543,#544,#545,#546));
#83=EDGE_LOOP('',(#547,#548,#549,#550));
#84=EDGE_LOOP('',(#551,#552,#553,#554));
#85=EDGE_LOOP('',(#555,#556,#557,#558));
#86=EDGE_LOOP('',(#559,#560,#561,#562));
#87=EDGE_LOOP('',(#563,#564,#565,#566));
#88=EDGE_LOOP('',(#567,#568,#569,#570));
#89=EDGE_LOOP('',(#571,#572,#573,#574));
#90=EDGE_LOOP('',(#575,#576,#577,#578));
#91=EDGE_LOOP('',(#579,#580,#581,#582));
#92=EDGE_LOOP('',(#583,#584,#585,#586));
#93=EDGE_LOOP('',(#587));
#94=EDGE_LOOP('',(#588,#589,#590,#591));
#95=EDGE_LOOP('',(#592));
#96=EDGE_LOOP('',(#593,#594,#595,#596));
#97=EDGE_LOOP('',(#597));
#98=EDGE_LOOP('',(#598,#599,#600,#601));
#99=EDGE_LOOP('',(#602,#603,#604,#605));
#100=EDGE_LOOP('',(#606,#607,#608,#609));
#101=EDGE_LOOP('',(#610,#611,#612,#613));
#102=EDGE_LOOP('',(#614));
#103=EDGE_LOOP('',(#615,#616,#617,#618));
#104=LINE('',#927,#191);
#105=LINE('',#929,#192);
#106=LINE('',#931,#193);
#107=LINE('',#932,#194);
#108=LINE('',#935,#195);
#109=LINE('',#937,#196);
#110=LINE('',#938,#197);
#111=LINE('',#941,#198);
#112=LINE('',#943,#199);
#113=LINE('',#945,#200);
#114=LINE('',#947,#201);
#115=LINE('',#949,#202);
#116=LINE('',#951,#203);
#117=LINE('',#953,#204);
#118=LINE('',#955,#205);
#119=LINE('',#957,#206);
#120=LINE('',#959,#207);
#121=LINE('',#961,#208);
#122=LINE('',#963,#209);
#123=LINE('',#965,#210);
#124=LINE('',#967,#211);
#125=LINE('',#969,#212);
#126=LINE('',#971,#213);
#127=LINE('',#973,#214);
#128=LINE('',#975,#215);
#129=LINE('',#977,#216);
#130=LINE('',#979,#217);
#131=LINE('',#981,#218);
#132=LINE('',#982,#219);
#133=LINE('',#985,#220);
#134=LINE('',#987,#221);
#135=LINE('',#992,#222);
#136=LINE('',#995,#223);
#137=LINE('',#996,#224);
#138=LINE('',#999,#225);
#139=LINE('',#1000,#226);
#140=LINE('',#1003,#227);
#141=LINE('',#1005,#228);
#142=LINE('',#1007,#229);
#143=LINE('',#1009,#230);
#144=LINE('',#1011,#231);
#145=LINE('',#1013,#232);
#146=LINE('',#1015,#233);
#147=LINE('',#1017,#234);
#148=LINE('',#1019,#235);
#149=LINE('',#1021,#236);
#150=LINE('',#1023,#237);
#151=LINE('',#1025,#238);
#152=LINE('',#1027,#239);
#153=LINE('',#1029,#240);
#154=LINE('',#1031,#241);
#155=LINE('',#1033,#242);
#156=LINE('',#1035,#243);
#157=LINE('',#1037,#244);
#158=LINE('',#1038,#245);
#159=LINE('',#1040,#246);
#160=LINE('',#1041,#247);
#161=LINE('',#1043,#248);
#162=LINE('',#1045,#249);
#163=LINE('',#1047,#250);
#164=LINE('',#1049,#251);
#165=LINE('',#1051,#252);
#166=LINE('',#1053,#253);
#167=LINE('',#1055,#254);
#168=LINE('',#1057,#255);
#169=LINE('',#1059,#256);
#170=LINE('',#1061,#257);
#171=LINE('',#1063,#258);
#172=LINE('',#1065,#259);
#173=LINE('',#1067,#260);
#174=LINE('',#1069,#261);
#175=LINE('',#1071,#262);
#176=LINE('',#1074,#263);
#177=LINE('',#1080,#264);
#178=LINE('',#1087,#265);
#179=LINE('',#1093,#266);
#180=LINE('',#1095,#267);
#181=LINE('',#1097,#268);
#182=LINE('',#1098,#269);
#183=LINE('',#1102,#270);
#184=LINE('',#1103,#271);
#185=LINE('',#1104,#272);
#186=LINE('',#1107,#273);
#187=LINE('',#1108,#274);
#188=LINE('',#1111,#275);
#189=LINE('',#1112,#276);
#190=LINE('',#1114,#277);
#191=VECTOR('',#752,10.);
#192=VECTOR('',#753,10.);
#193=VECTOR('',#754,1.);
#194=VECTOR('',#755,10.);
#195=VECTOR('',#758,1.);
#196=VECTOR('',#759,10.);
#197=VECTOR('',#760,1.);
#198=VECTOR('',#763,10.);
#199=VECTOR('',#764,10.);
#200=VECTOR('',#765,1.);
#201=VECTOR('',#766,1.);
#202=VECTOR('',#767,1.);
#203=VECTOR('',#768,1.);
#204=VECTOR('',#769,1.);
#205=VECTOR('',#770,1.);
#206=VECTOR('',#771,1.);
#207=VECTOR('',#772,1.);
#208=VECTOR('',#773,1.);
#209=VECTOR('',#774,1.);
#210=VECTOR('',#775,1.);
#211=VECTOR('',#776,1.);
#212=VECTOR('',#777,1.);
#213=VECTOR('',#778,1.);
#214=VECTOR('',#779,1.);
#215=VECTOR('',#780,1.);
#216=VECTOR('',#781,1.);
#217=VECTOR('',#782,1.);
#218=VECTOR('',#783,1.);
#219=VECTOR('',#784,1.);
#220=VECTOR('',#787,10.);
#221=VECTOR('',#788,10.);
#222=VECTOR('',#795,10.);
#223=VECTOR('',#798,10.);
#224=VECTOR('',#799,10.);
#225=VECTOR('',#802,1.);
#226=VECTOR('',#803,1.);
#227=VECTOR('',#806,1.);
#228=VECTOR('',#807,1.);
#229=VECTOR('',#808,1.);
#230=VECTOR('',#809,1.);
#231=VECTOR('',#810,1.);
#232=VECTOR('',#811,1.);
#233=VECTOR('',#812,1.);
#234=VECTOR('',#813,1.);
#235=VECTOR('',#814,1.);
#236=VECTOR('',#815,1.);
#237=VECTOR('',#816,1.);
#238=VECTOR('',#817,1.);
#239=VECTOR('',#818,1.);
#240=VECTOR('',#819,1.);
#241=VECTOR('',#820,1.);
#242=VECTOR('',#821,1.);
#243=VECTOR('',#822,1.);
#244=VECTOR('',#823,1.);
#245=VECTOR('',#824,1.);
#246=VECTOR('',#827,1.);
#247=VECTOR('',#828,1.);
#248=VECTOR('',#831,1.);
#249=VECTOR('',#834,1.);
#250=VECTOR('',#837,1.);
#251=VECTOR('',#840,1.);
#252=VECTOR('',#843,1.);
#253=VECTOR('',#846,1.);
#254=VECTOR('',#849,1.);
#255=VECTOR('',#852,1.);
#256=VECTOR('',#855,1.);
#257=VECTOR('',#858,1.);
#258=VECTOR('',#861,1.);
#259=VECTOR('',#864,1.);
#260=VECTOR('',#867,10.);
#261=VECTOR('',#870,10.);
#262=VECTOR('',#873,1.);
#263=VECTOR('',#878,1.);
#264=VECTOR('',#885,3.3);
#265=VECTOR('',#894,3.3);
#266=VECTOR('',#901,10.);
#267=VECTOR('',#902,10.);
#268=VECTOR('',#903,10.);
#269=VECTOR('',#904,10.);
#270=VECTOR('',#907,10.);
#271=VECTOR('',#908,10.);
#272=VECTOR('',#909,10.);
#273=VECTOR('',#912,10.);
#274=VECTOR('',#913,10.);
#275=VECTOR('',#916,10.);
#276=VECTOR('',#917,10.);
#277=VECTOR('',#920,10.);
#278=VERTEX_POINT('',#925);
#279=VERTEX_POINT('',#926);
#280=VERTEX_POINT('',#928);
#281=VERTEX_POINT('',#930);
#282=VERTEX_POINT('',#934);
#283=VERTEX_POINT('',#936);
#284=VERTEX_POINT('',#940);
#285=VERTEX_POINT('',#942);
#286=VERTEX_POINT('',#944);
#287=VERTEX_POINT('',#946);
#288=VERTEX_POINT('',#948);
#289=VERTEX_POINT('',#950);
#290=VERTEX_POINT('',#952);
#291=VERTEX_POINT('',#954);
#292=VERTEX_POINT('',#956);
#293=VERTEX_POINT('',#958);
#294=VERTEX_POINT('',#960);
#295=VERTEX_POINT('',#962);
#296=VERTEX_POINT('',#964);
#297=VERTEX_POINT('',#966);
#298=VERTEX_POINT('',#968);
#299=VERTEX_POINT('',#970);
#300=VERTEX_POINT('',#972);
#301=VERTEX_POINT('',#974);
#302=VERTEX_POINT('',#976);
#303=VERTEX_POINT('',#978);
#304=VERTEX_POINT('',#980);
#305=VERTEX_POINT('',#984);
#306=VERTEX_POINT('',#986);
#307=VERTEX_POINT('',#990);
#308=VERTEX_POINT('',#994);
#309=VERTEX_POINT('',#998);
#310=VERTEX_POINT('',#1002);
#311=VERTEX_POINT('',#1004);
#312=VERTEX_POINT('',#1006);
#313=VERTEX_POINT('',#1008);
#314=VERTEX_POINT('',#1010);
#315=VERTEX_POINT('',#1012);
#316=VERTEX_POINT('',#1014);
#317=VERTEX_POINT('',#1016);
#318=VERTEX_POINT('',#1018);
#319=VERTEX_POINT('',#1020);
#320=VERTEX_POINT('',#1022);
#321=VERTEX_POINT('',#1024);
#322=VERTEX_POINT('',#1026);
#323=VERTEX_POINT('',#1028);
#324=VERTEX_POINT('',#1030);
#325=VERTEX_POINT('',#1032);
#326=VERTEX_POINT('',#1034);
#327=VERTEX_POINT('',#1036);
#328=VERTEX_POINT('',#1077);
#329=VERTEX_POINT('',#1079);
#330=VERTEX_POINT('',#1084);
#331=VERTEX_POINT('',#1086);
#332=VERTEX_POINT('',#1091);
#333=VERTEX_POINT('',#1092);
#334=VERTEX_POINT('',#1094);
#335=VERTEX_POINT('',#1096);
#336=VERTEX_POINT('',#1100);
#337=VERTEX_POINT('',#1101);
#338=VERTEX_POINT('',#1106);
#339=VERTEX_POINT('',#1110);
#340=EDGE_CURVE('',#278,#279,#104,.T.);
#341=EDGE_CURVE('',#280,#278,#105,.T.);
#342=EDGE_CURVE('',#281,#280,#106,.T.);
#343=EDGE_CURVE('',#279,#281,#107,.T.);
#344=EDGE_CURVE('',#279,#282,#108,.T.);
#345=EDGE_CURVE('',#282,#283,#109,.F.);
#346=EDGE_CURVE('',#278,#283,#110,.T.);
#347=EDGE_CURVE('',#281,#284,#111,.T.);
#348=EDGE_CURVE('',#285,#284,#112,.T.);
#349=EDGE_CURVE('',#285,#286,#113,.T.);
#350=EDGE_CURVE('',#286,#287,#114,.T.);
#351=EDGE_CURVE('',#288,#287,#115,.T.);
#352=EDGE_CURVE('',#288,#289,#116,.T.);
#353=EDGE_CURVE('',#289,#290,#117,.T.);
#354=EDGE_CURVE('',#291,#290,#118,.T.);
#355=EDGE_CURVE('',#291,#292,#119,.T.);
#356=EDGE_CURVE('',#292,#293,#120,.T.);
#357=EDGE_CURVE('',#293,#294,#121,.T.);
#358=EDGE_CURVE('',#295,#294,#122,.T.);
#359=EDGE_CURVE('',#295,#296,#123,.T.);
#360=EDGE_CURVE('',#297,#296,#124,.T.);
#361=EDGE_CURVE('',#298,#297,#125,.T.);
#362=EDGE_CURVE('',#299,#298,#126,.T.);
#363=EDGE_CURVE('',#299,#300,#127,.T.);
#364=EDGE_CURVE('',#301,#300,#128,.T.);
#365=EDGE_CURVE('',#302,#301,#129,.T.);
#366=EDGE_CURVE('',#302,#303,#130,.T.);
#367=EDGE_CURVE('',#304,#303,#131,.T.);
#368=EDGE_CURVE('',#282,#304,#132,.T.);
#369=EDGE_CURVE('',#305,#280,#133,.T.);
#370=EDGE_CURVE('',#306,#305,#134,.T.);
#371=EDGE_CURVE('',#284,#306,#22,.T.);
#372=EDGE_CURVE('',#307,#285,#23,.T.);
#373=EDGE_CURVE('',#306,#307,#135,.T.);
#374=EDGE_CURVE('',#308,#305,#136,.F.);
#375=EDGE_CURVE('',#307,#308,#137,.F.);
#376=EDGE_CURVE('',#309,#308,#138,.T.);
#377=EDGE_CURVE('',#286,#309,#139,.T.);
#378=EDGE_CURVE('',#283,#310,#140,.T.);
#379=EDGE_CURVE('',#310,#311,#141,.T.);
#380=EDGE_CURVE('',#311,#312,#142,.T.);
#381=EDGE_CURVE('',#312,#313,#143,.T.);
#382=EDGE_CURVE('',#313,#314,#144,.T.);
#383=EDGE_CURVE('',#314,#315,#145,.T.);
#384=EDGE_CURVE('',#315,#316,#146,.T.);
#385=EDGE_CURVE('',#316,#317,#147,.T.);
#386=EDGE_CURVE('',#317,#318,#148,.T.);
#387=EDGE_CURVE('',#318,#319,#149,.T.);
#388=EDGE_CURVE('',#319,#320,#150,.T.);
#389=EDGE_CURVE('',#320,#321,#151,.T.);
#390=EDGE_CURVE('',#321,#322,#152,.T.);
#391=EDGE_CURVE('',#322,#323,#153,.T.);
#392=EDGE_CURVE('',#323,#324,#154,.T.);
#393=EDGE_CURVE('',#324,#325,#155,.T.);
#394=EDGE_CURVE('',#325,#326,#156,.T.);
#395=EDGE_CURVE('',#326,#327,#157,.T.);
#396=EDGE_CURVE('',#327,#309,#158,.T.);
#397=EDGE_CURVE('',#303,#311,#159,.T.);
#398=EDGE_CURVE('',#302,#312,#160,.T.);
#399=EDGE_CURVE('',#301,#313,#161,.T.);
#400=EDGE_CURVE('',#300,#314,#162,.T.);
#401=EDGE_CURVE('',#299,#315,#163,.T.);
#402=EDGE_CURVE('',#298,#316,#164,.T.);
#403=EDGE_CURVE('',#297,#317,#165,.T.);
#404=EDGE_CURVE('',#296,#318,#166,.T.);
#405=EDGE_CURVE('',#295,#319,#167,.T.);
#406=EDGE_CURVE('',#294,#320,#168,.T.);
#407=EDGE_CURVE('',#293,#321,#169,.T.);
#408=EDGE_CURVE('',#292,#322,#170,.T.);
#409=EDGE_CURVE('',#291,#323,#171,.T.);
#410=EDGE_CURVE('',#290,#324,#172,.T.);
#411=EDGE_CURVE('',#289,#325,#173,.F.);
#412=EDGE_CURVE('',#288,#326,#174,.T.);
#413=EDGE_CURVE('',#287,#327,#175,.T.);
#414=EDGE_CURVE('',#304,#310,#176,.T.);
#415=EDGE_CURVE('',#328,#328,#24,.T.);
#416=EDGE_CURVE('',#328,#329,#177,.T.);
#417=EDGE_CURVE('',#329,#329,#25,.T.);
#418=EDGE_CURVE('',#330,#330,#26,.T.);
#419=EDGE_CURVE('',#330,#331,#178,.T.);
#420=EDGE_CURVE('',#331,#331,#27,.T.);
#421=EDGE_CURVE('',#332,#333,#179,.T.);
#422=EDGE_CURVE('',#333,#334,#180,.T.);
#423=EDGE_CURVE('',#335,#334,#181,.T.);
#424=EDGE_CURVE('',#332,#335,#182,.T.);
#425=EDGE_CURVE('',#336,#337,#183,.T.);
#426=EDGE_CURVE('',#333,#336,#184,.T.);
#427=EDGE_CURVE('',#337,#332,#185,.T.);
#428=EDGE_CURVE('',#336,#338,#186,.T.);
#429=EDGE_CURVE('',#334,#338,#187,.T.);
#430=EDGE_CURVE('',#338,#339,#188,.T.);
#431=EDGE_CURVE('',#339,#335,#189,.T.);
#432=EDGE_CURVE('',#337,#339,#190,.T.);
#433=ORIENTED_EDGE('',*,*,#340,.F.);
#434=ORIENTED_EDGE('',*,*,#341,.F.);
#435=ORIENTED_EDGE('',*,*,#342,.F.);
#436=ORIENTED_EDGE('',*,*,#343,.F.);
#437=ORIENTED_EDGE('',*,*,#340,.T.);
#438=ORIENTED_EDGE('',*,*,#344,.T.);
#439=ORIENTED_EDGE('',*,*,#345,.T.);
#440=ORIENTED_EDGE('',*,*,#346,.F.);
#441=ORIENTED_EDGE('',*,*,#343,.T.);
#442=ORIENTED_EDGE('',*,*,#347,.T.);
#443=ORIENTED_EDGE('',*,*,#348,.F.);
#444=ORIENTED_EDGE('',*,*,#349,.T.);
#445=ORIENTED_EDGE('',*,*,#350,.T.);
#446=ORIENTED_EDGE('',*,*,#351,.F.);
#447=ORIENTED_EDGE('',*,*,#352,.T.);
#448=ORIENTED_EDGE('',*,*,#353,.T.);
#449=ORIENTED_EDGE('',*,*,#354,.F.);
#450=ORIENTED_EDGE('',*,*,#355,.T.);
#451=ORIENTED_EDGE('',*,*,#356,.T.);
#452=ORIENTED_EDGE('',*,*,#357,.T.);
#453=ORIENTED_EDGE('',*,*,#358,.F.);
#454=ORIENTED_EDGE('',*,*,#359,.T.);
#455=ORIENTED_EDGE('',*,*,#360,.F.);
#456=ORIENTED_EDGE('',*,*,#361,.F.);
#457=ORIENTED_EDGE('',*,*,#362,.F.);
#458=ORIENTED_EDGE('',*,*,#363,.T.);
#459=ORIENTED_EDGE('',*,*,#364,.F.);
#460=ORIENTED_EDGE('',*,*,#365,.F.);
#461=ORIENTED_EDGE('',*,*,#366,.T.);
#462=ORIENTED_EDGE('',*,*,#367,.F.);
#463=ORIENTED_EDGE('',*,*,#368,.F.);
#464=ORIENTED_EDGE('',*,*,#344,.F.);
#465=ORIENTED_EDGE('',*,*,#369,.F.);
#466=ORIENTED_EDGE('',*,*,#370,.F.);
#467=ORIENTED_EDGE('',*,*,#371,.F.);
#468=ORIENTED_EDGE('',*,*,#347,.F.);
#469=ORIENTED_EDGE('',*,*,#342,.T.);
#470=ORIENTED_EDGE('',*,*,#372,.T.);
#471=ORIENTED_EDGE('',*,*,#348,.T.);
#472=ORIENTED_EDGE('',*,*,#371,.T.);
#473=ORIENTED_EDGE('',*,*,#373,.T.);
#474=ORIENTED_EDGE('',*,*,#373,.F.);
#475=ORIENTED_EDGE('',*,*,#370,.T.);
#476=ORIENTED_EDGE('',*,*,#374,.F.);
#477=ORIENTED_EDGE('',*,*,#375,.F.);
#478=ORIENTED_EDGE('',*,*,#372,.F.);
#479=ORIENTED_EDGE('',*,*,#375,.T.);
#480=ORIENTED_EDGE('',*,*,#376,.F.);
#481=ORIENTED_EDGE('',*,*,#377,.F.);
#482=ORIENTED_EDGE('',*,*,#349,.F.);
#483=ORIENTED_EDGE('',*,*,#341,.T.);
#484=ORIENTED_EDGE('',*,*,#346,.T.);
#485=ORIENTED_EDGE('',*,*,#378,.T.);
#486=ORIENTED_EDGE('',*,*,#379,.T.);
#487=ORIENTED_EDGE('',*,*,#380,.T.);
#488=ORIENTED_EDGE('',*,*,#381,.T.);
#489=ORIENTED_EDGE('',*,*,#382,.T.);
#490=ORIENTED_EDGE('',*,*,#383,.T.);
#491=ORIENTED_EDGE('',*,*,#384,.T.);
#492=ORIENTED_EDGE('',*,*,#385,.T.);
#493=ORIENTED_EDGE('',*,*,#386,.T.);
#494=ORIENTED_EDGE('',*,*,#387,.T.);
#495=ORIENTED_EDGE('',*,*,#388,.T.);
#496=ORIENTED_EDGE('',*,*,#389,.T.);
#497=ORIENTED_EDGE('',*,*,#390,.T.);
#498=ORIENTED_EDGE('',*,*,#391,.T.);
#499=ORIENTED_EDGE('',*,*,#392,.T.);
#500=ORIENTED_EDGE('',*,*,#393,.T.);
#501=ORIENTED_EDGE('',*,*,#394,.T.);
#502=ORIENTED_EDGE('',*,*,#395,.T.);
#503=ORIENTED_EDGE('',*,*,#396,.T.);
#504=ORIENTED_EDGE('',*,*,#376,.T.);
#505=ORIENTED_EDGE('',*,*,#374,.T.);
#506=ORIENTED_EDGE('',*,*,#369,.T.);
#507=ORIENTED_EDGE('',*,*,#380,.F.);
#508=ORIENTED_EDGE('',*,*,#397,.F.);
#509=ORIENTED_EDGE('',*,*,#366,.F.);
#510=ORIENTED_EDGE('',*,*,#398,.T.);
#511=ORIENTED_EDGE('',*,*,#381,.F.);
#512=ORIENTED_EDGE('',*,*,#398,.F.);
#513=ORIENTED_EDGE('',*,*,#365,.T.);
#514=ORIENTED_EDGE('',*,*,#399,.T.);
#515=ORIENTED_EDGE('',*,*,#382,.F.);
#516=ORIENTED_EDGE('',*,*,#399,.F.);
#517=ORIENTED_EDGE('',*,*,#364,.T.);
#518=ORIENTED_EDGE('',*,*,#400,.T.);
#519=ORIENTED_EDGE('',*,*,#383,.F.);
#520=ORIENTED_EDGE('',*,*,#400,.F.);
#521=ORIENTED_EDGE('',*,*,#363,.F.);
#522=ORIENTED_EDGE('',*,*,#401,.T.);
#523=ORIENTED_EDGE('',*,*,#384,.F.);
#524=ORIENTED_EDGE('',*,*,#401,.F.);
#525=ORIENTED_EDGE('',*,*,#362,.T.);
#526=ORIENTED_EDGE('',*,*,#402,.T.);
#527=ORIENTED_EDGE('',*,*,#385,.F.);
#528=ORIENTED_EDGE('',*,*,#402,.F.);
#529=ORIENTED_EDGE('',*,*,#361,.T.);
#530=ORIENTED_EDGE('',*,*,#403,.T.);
#531=ORIENTED_EDGE('',*,*,#386,.F.);
#532=ORIENTED_EDGE('',*,*,#403,.F.);
#533=ORIENTED_EDGE('',*,*,#360,.T.);
#534=ORIENTED_EDGE('',*,*,#404,.T.);
#535=ORIENTED_EDGE('',*,*,#387,.F.);
#536=ORIENTED_EDGE('',*,*,#404,.F.);
#537=ORIENTED_EDGE('',*,*,#359,.F.);
#538=ORIENTED_EDGE('',*,*,#405,.T.);
#539=ORIENTED_EDGE('',*,*,#388,.F.);
#540=ORIENTED_EDGE('',*,*,#405,.F.);
#541=ORIENTED_EDGE('',*,*,#358,.T.);
#542=ORIENTED_EDGE('',*,*,#406,.T.);
#543=ORIENTED_EDGE('',*,*,#389,.F.);
#544=ORIENTED_EDGE('',*,*,#406,.F.);
#545=ORIENTED_EDGE('',*,*,#357,.F.);
#546=ORIENTED_EDGE('',*,*,#407,.T.);
#547=ORIENTED_EDGE('',*,*,#390,.F.);
#548=ORIENTED_EDGE('',*,*,#407,.F.);
#549=ORIENTED_EDGE('',*,*,#356,.F.);
#550=ORIENTED_EDGE('',*,*,#408,.T.);
#551=ORIENTED_EDGE('',*,*,#391,.F.);
#552=ORIENTED_EDGE('',*,*,#408,.F.);
#553=ORIENTED_EDGE('',*,*,#355,.F.);
#554=ORIENTED_EDGE('',*,*,#409,.T.);
#555=ORIENTED_EDGE('',*,*,#392,.F.);
#556=ORIENTED_EDGE('',*,*,#409,.F.);
#557=ORIENTED_EDGE('',*,*,#354,.T.);
#558=ORIENTED_EDGE('',*,*,#410,.T.);
#559=ORIENTED_EDGE('',*,*,#393,.F.);
#560=ORIENTED_EDGE('',*,*,#410,.F.);
#561=ORIENTED_EDGE('',*,*,#353,.F.);
#562=ORIENTED_EDGE('',*,*,#411,.T.);
#563=ORIENTED_EDGE('',*,*,#394,.F.);
#564=ORIENTED_EDGE('',*,*,#411,.F.);
#565=ORIENTED_EDGE('',*,*,#352,.F.);
#566=ORIENTED_EDGE('',*,*,#412,.T.);
#567=ORIENTED_EDGE('',*,*,#395,.F.);
#568=ORIENTED_EDGE('',*,*,#412,.F.);
#569=ORIENTED_EDGE('',*,*,#351,.T.);
#570=ORIENTED_EDGE('',*,*,#413,.T.);
#571=ORIENTED_EDGE('',*,*,#396,.F.);
#572=ORIENTED_EDGE('',*,*,#413,.F.);
#573=ORIENTED_EDGE('',*,*,#350,.F.);
#574=ORIENTED_EDGE('',*,*,#377,.T.);
#575=ORIENTED_EDGE('',*,*,#378,.F.);
#576=ORIENTED_EDGE('',*,*,#345,.F.);
#577=ORIENTED_EDGE('',*,*,#368,.T.);
#578=ORIENTED_EDGE('',*,*,#414,.T.);
#579=ORIENTED_EDGE('',*,*,#379,.F.);
#580=ORIENTED_EDGE('',*,*,#414,.F.);
#581=ORIENTED_EDGE('',*,*,#367,.T.);
#582=ORIENTED_EDGE('',*,*,#397,.T.);
#583=ORIENTED_EDGE('',*,*,#415,.F.);
#584=ORIENTED_EDGE('',*,*,#416,.T.);
#585=ORIENTED_EDGE('',*,*,#417,.F.);
#586=ORIENTED_EDGE('',*,*,#416,.F.);
#587=ORIENTED_EDGE('',*,*,#415,.T.);
#588=ORIENTED_EDGE('',*,*,#418,.F.);
#589=ORIENTED_EDGE('',*,*,#419,.T.);
#590=ORIENTED_EDGE('',*,*,#420,.T.);
#591=ORIENTED_EDGE('',*,*,#419,.F.);
#592=ORIENTED_EDGE('',*,*,#418,.T.);
#593=ORIENTED_EDGE('',*,*,#421,.T.);
#594=ORIENTED_EDGE('',*,*,#422,.T.);
#595=ORIENTED_EDGE('',*,*,#423,.F.);
#596=ORIENTED_EDGE('',*,*,#424,.F.);
#597=ORIENTED_EDGE('',*,*,#420,.F.);
#598=ORIENTED_EDGE('',*,*,#425,.F.);
#599=ORIENTED_EDGE('',*,*,#426,.F.);
#600=ORIENTED_EDGE('',*,*,#421,.F.);
#601=ORIENTED_EDGE('',*,*,#427,.F.);
#602=ORIENTED_EDGE('',*,*,#426,.T.);
#603=ORIENTED_EDGE('',*,*,#428,.T.);
#604=ORIENTED_EDGE('',*,*,#429,.F.);
#605=ORIENTED_EDGE('',*,*,#422,.F.);
#606=ORIENTED_EDGE('',*,*,#429,.T.);
#607=ORIENTED_EDGE('',*,*,#430,.T.);
#608=ORIENTED_EDGE('',*,*,#431,.T.);
#609=ORIENTED_EDGE('',*,*,#423,.T.);
#610=ORIENTED_EDGE('',*,*,#425,.T.);
#611=ORIENTED_EDGE('',*,*,#432,.T.);
#612=ORIENTED_EDGE('',*,*,#430,.F.);
#613=ORIENTED_EDGE('',*,*,#428,.F.);
#614=ORIENTED_EDGE('',*,*,#417,.T.);
#615=ORIENTED_EDGE('',*,*,#427,.T.);
#616=ORIENTED_EDGE('',*,*,#424,.T.);
#617=ORIENTED_EDGE('',*,*,#431,.F.);
#618=ORIENTED_EDGE('',*,*,#432,.F.);
#619=PLANE('',#705);
#620=PLANE('',#706);
#621=PLANE('',#707);
#622=PLANE('',#708);
#623=PLANE('',#712);
#624=PLANE('',#713);
#625=PLANE('',#714);
#626=PLANE('',#715);
#627=PLANE('',#716);
#628=PLANE('',#717);
#629=PLANE('',#718);
#630=PLANE('',#719);
#631=PLANE('',#720);
#632=PLANE('',#721);
#633=PLANE('',#722);
#634=PLANE('',#723);
#635=PLANE('',#724);
#636=PLANE('',#725);
#637=PLANE('',#726);
#638=PLANE('',#727);
#639=PLANE('',#728);
#640=PLANE('',#729);
#641=PLANE('',#730);
#642=PLANE('',#731);
#643=PLANE('',#732);
#644=PLANE('',#733);
#645=PLANE('',#737);
#646=PLANE('',#741);
#647=PLANE('',#742);
#648=PLANE('',#743);
#649=PLANE('',#744);
#650=PLANE('',#745);
#651=PLANE('',#746);
#652=PLANE('',#747);
#653=ADVANCED_FACE('',(#28),#619,.F.);
#654=ADVANCED_FACE('',(#29),#620,.T.);
#655=ADVANCED_FACE('',(#30),#621,.T.);
#656=ADVANCED_FACE('',(#31),#622,.T.);
#657=ADVANCED_FACE('',(#32),#19,.T.);
#658=ADVANCED_FACE('',(#33),#623,.T.);
#659=ADVANCED_FACE('',(#34),#624,.T.);
#660=ADVANCED_FACE('',(#35),#625,.T.);
#661=ADVANCED_FACE('',(#36),#626,.T.);
#662=ADVANCED_FACE('',(#37),#627,.T.);
#663=ADVANCED_FACE('',(#38),#628,.T.);
#664=ADVANCED_FACE('',(#39),#629,.T.);
#665=ADVANCED_FACE('',(#40),#630,.T.);
#666=ADVANCED_FACE('',(#41),#631,.T.);
#667=ADVANCED_FACE('',(#42),#632,.T.);
#668=ADVANCED_FACE('',(#43),#633,.T.);
#669=ADVANCED_FACE('',(#44),#634,.T.);
#670=ADVANCED_FACE('',(#45),#635,.T.);
#671=ADVANCED_FACE('',(#46),#636,.T.);
#672=ADVANCED_FACE('',(#47),#637,.T.);
#673=ADVANCED_FACE('',(#48),#638,.T.);
#674=ADVANCED_FACE('',(#49),#639,.T.);
#675=ADVANCED_FACE('',(#50),#640,.T.);
#676=ADVANCED_FACE('',(#51),#641,.T.);
#677=ADVANCED_FACE('',(#52),#642,.T.);
#678=ADVANCED_FACE('',(#53),#643,.T.);
#679=ADVANCED_FACE('',(#54),#644,.T.);
#680=ADVANCED_FACE('',(#55),#20,.T.);
#681=ADVANCED_FACE('',(#56),#645,.F.);
#682=ADVANCED_FACE('',(#57),#21,.T.);
#683=ADVANCED_FACE('',(#58),#646,.T.);
#684=ADVANCED_FACE('',(#59,#13),#647,.F.);
#685=ADVANCED_FACE('',(#60),#648,.F.);
#686=ADVANCED_FACE('',(#61),#649,.F.);
#687=ADVANCED_FACE('',(#62),#650,.F.);
#688=ADVANCED_FACE('',(#63,#14),#651,.F.);
#689=ADVANCED_FACE('',(#64),#652,.F.);
#690=CLOSED_SHELL('',(#653,#654,#655,#656,#657,#658,#659,#660,#661,#662,
#663,#664,#665,#666,#667,#668,#669,#670,#671,#672,#673,#674,#675,#676,#677,
#678,#679));
#691=CLOSED_SHELL('',(#680,#681,#682,#683,#684,#685,#686,#687,#688,#689));
#692=DERIVED_UNIT_ELEMENT(#694,1.);
#693=DERIVED_UNIT_ELEMENT(#1121,-3.);
#694=(
MASS_UNIT()
NAMED_UNIT(*)
SI_UNIT(.KILO.,.GRAM.)
);
#695=DERIVED_UNIT((#692,#693));
#696=MEASURE_REPRESENTATION_ITEM('density measure',
POSITIVE_RATIO_MEASURE(7850.),#695);
#697=PROPERTY_DEFINITION_REPRESENTATION(#702,#699);
#698=PROPERTY_DEFINITION_REPRESENTATION(#703,#700);
#699=REPRESENTATION('material name',(#701),#1118);
#700=REPRESENTATION('density',(#696),#1118);
#701=DESCRIPTIVE_REPRESENTATION_ITEM('Steel','Steel');
#702=PROPERTY_DEFINITION('material property','material name',#1128);
#703=PROPERTY_DEFINITION('material property','density of part',#1128);
#704=AXIS2_PLACEMENT_3D('',#923,#748,#749);
#705=AXIS2_PLACEMENT_3D('',#924,#750,#751);
#706=AXIS2_PLACEMENT_3D('',#933,#756,#757);
#707=AXIS2_PLACEMENT_3D('',#939,#761,#762);
#708=AXIS2_PLACEMENT_3D('',#983,#785,#786);
#709=AXIS2_PLACEMENT_3D('',#988,#789,#790);
#710=AXIS2_PLACEMENT_3D('',#989,#791,#792);
#711=AXIS2_PLACEMENT_3D('',#991,#793,#794);
#712=AXIS2_PLACEMENT_3D('',#993,#796,#797);
#713=AXIS2_PLACEMENT_3D('',#997,#800,#801);
#714=AXIS2_PLACEMENT_3D('',#1001,#804,#805);
#715=AXIS2_PLACEMENT_3D('',#1039,#825,#826);
#716=AXIS2_PLACEMENT_3D('',#1042,#829,#830);
#717=AXIS2_PLACEMENT_3D('',#1044,#832,#833);
#718=AXIS2_PLACEMENT_3D('',#1046,#835,#836);
#719=AXIS2_PLACEMENT_3D('',#1048,#838,#839);
#720=AXIS2_PLACEMENT_3D('',#1050,#841,#842);
#721=AXIS2_PLACEMENT_3D('',#1052,#844,#845);
#722=AXIS2_PLACEMENT_3D('',#1054,#847,#848);
#723=AXIS2_PLACEMENT_3D('',#1056,#850,#851);
#724=AXIS2_PLACEMENT_3D('',#1058,#853,#854);
#725=AXIS2_PLACEMENT_3D('',#1060,#856,#857);
#726=AXIS2_PLACEMENT_3D('',#1062,#859,#860);
#727=AXIS2_PLACEMENT_3D('',#1064,#862,#863);
#728=AXIS2_PLACEMENT_3D('',#1066,#865,#866);
#729=AXIS2_PLACEMENT_3D('',#1068,#868,#869);
#730=AXIS2_PLACEMENT_3D('',#1070,#871,#872);
#731=AXIS2_PLACEMENT_3D('',#1072,#874,#875);
#732=AXIS2_PLACEMENT_3D('',#1073,#876,#877);
#733=AXIS2_PLACEMENT_3D('',#1075,#879,#880);
#734=AXIS2_PLACEMENT_3D('',#1076,#881,#882);
#735=AXIS2_PLACEMENT_3D('',#1078,#883,#884);
#736=AXIS2_PLACEMENT_3D('',#1081,#886,#887);
#737=AXIS2_PLACEMENT_3D('',#1082,#888,#889);
#738=AXIS2_PLACEMENT_3D('',#1083,#890,#891);
#739=AXIS2_PLACEMENT_3D('',#1085,#892,#893);
#740=AXIS2_PLACEMENT_3D('',#1088,#895,#896);
#741=AXIS2_PLACEMENT_3D('',#1089,#897,#898);
#742=AXIS2_PLACEMENT_3D('',#1090,#899,#900);
#743=AXIS2_PLACEMENT_3D('',#1099,#905,#906);
#744=AXIS2_PLACEMENT_3D('',#1105,#910,#911);
#745=AXIS2_PLACEMENT_3D('',#1109,#914,#915);
#746=AXIS2_PLACEMENT_3D('',#1113,#918,#919);
#747=AXIS2_PLACEMENT_3D('',#1115,#921,#922);
#748=DIRECTION('axis',(0.,0.,1.));
#749=DIRECTION('refdir',(1.,0.,0.));
#750=DIRECTION('center_axis',(1.,-1.2246449997006E-16,1.22464679914735E-16));
#751=DIRECTION('ref_axis',(1.22464679914735E-16,-2.999517361637E-32,-1.));
#752=DIRECTION('',(1.22464679914735E-16,1.22464679914735E-16,-1.));
#753=DIRECTION('',(-1.22464499970059E-16,-1.,-1.22464679914735E-16));
#754=DIRECTION('',(-1.22464679914735E-16,-1.22464679914735E-16,1.));
#755=DIRECTION('',(1.22464499970059E-16,1.,1.22464679914735E-16));
#756=DIRECTION('center_axis',(-0.447452217692825,-0.894307840109754,-1.6431821600117E-16));
#757=DIRECTION('ref_axis',(0.894307840109754,-0.447452217692825,5.47240307673889E-17));
#758=DIRECTION('',(0.894307840109754,-0.447452217692825,5.47240307673889E-17));
#759=DIRECTION('',(1.22464679914735E-16,1.22464679914735E-16,-1.));
#760=DIRECTION('',(0.894307840109754,-0.447452217692825,5.47240307673889E-17));
#761=DIRECTION('center_axis',(1.22464679914735E-16,1.22464679914735E-16,
-1.));
#762=DIRECTION('ref_axis',(-1.,1.49975978266186E-32,-1.22464679914735E-16));
#763=DIRECTION('',(-1.,1.2246449997006E-16,-1.22464679914735E-16));
#764=DIRECTION('',(1.21959955455872E-16,-1.,-1.22464679914735E-16));
#765=DIRECTION('',(1.,-2.64477255376272E-32,2.15962068051304E-16));
#766=DIRECTION('',(8.71209428716957E-32,1.,-5.88931805442126E-16));
#767=DIRECTION('',(1.,-3.05373490970753E-32,2.49356378658211E-16));
#768=DIRECTION('',(0.00199597859904618,0.999998008032732,1.2270887284935E-16));
#769=DIRECTION('',(0.894307840109754,0.447452217692825,1.6431821600117E-16));
#770=DIRECTION('',(0.,1.,1.22464679914735E-16));
#771=DIRECTION('',(1.,-1.49975978266186E-32,1.22464679914735E-16));
#772=DIRECTION('',(0.,1.,1.22464679914735E-16));
#773=DIRECTION('',(1.,-1.49975978266186E-32,1.22464679914735E-16));
#774=DIRECTION('',(0.,1.,1.22464679914735E-16));
#775=DIRECTION('',(1.,-3.91688169101189E-32,3.19837662070319E-16));
#776=DIRECTION('',(4.83316934477227E-32,1.,-2.72193547105277E-16));
#777=DIRECTION('',(1.,-2.64477252502517E-32,2.15962065704705E-16));
#778=DIRECTION('',(1.55419718145728E-32,1.,-4.44515094746712E-18));
#779=DIRECTION('',(1.,-1.49975978266186E-32,1.22464679914735E-16));
#780=DIRECTION('',(6.21190650901912E-32,1.,-3.84775980277582E-16));
#781=DIRECTION('',(1.,-1.49975978266186E-32,1.22464679914735E-16));
#782=DIRECTION('',(0.,1.,1.22464679914735E-16));
#783=DIRECTION('',(1.,-1.49975978266186E-32,1.22464679914735E-16));
#784=DIRECTION('',(0.,1.,1.22464679914735E-16));
#785=DIRECTION('center_axis',(0.,-1.,-1.22464679914735E-16));
#786=DIRECTION('ref_axis',(1.,-1.49975978266186E-32,1.22464679914735E-16));
#787=DIRECTION('',(1.,-1.2246449997006E-16,1.22464679914735E-16));
#788=DIRECTION('',(0.342020143325668,-6.55068842138724E-17,0.939692620785909));
#789=DIRECTION('center_axis',(0.,1.,1.22464679914735E-16));
#790=DIRECTION('ref_axis',(-0.819152044288992,0.,-0.573576436351046));
#791=DIRECTION('center_axis',(-1.21959955455872E-16,1.,1.22464679914735E-16));
#792=DIRECTION('ref_axis',(-0.819152044288992,0.,-0.573576436351046));
#793=DIRECTION('center_axis',(0.,-1.,-1.22464679914735E-16));
#794=DIRECTION('ref_axis',(-0.819152044288992,0.,-0.573576436351046));
#795=DIRECTION('',(-1.21959955455872E-16,1.,1.22464679914735E-16));
#796=DIRECTION('center_axis',(-0.939692620785909,-1.56490257550031E-16,
0.342020143325668));
#797=DIRECTION('ref_axis',(2.06996975118773E-16,-1.,9.08846428982964E-17));
#798=DIRECTION('',(-1.21959955455872E-16,1.,1.22464679914735E-16));
#799=DIRECTION('',(-0.342020143325668,6.55068842138724E-17,-0.939692620785909));
#800=DIRECTION('center_axis',(0.,1.,1.22464679914735E-16));
#801=DIRECTION('ref_axis',(-1.,2.64477255376272E-32,-2.15962068051304E-16));
#802=DIRECTION('',(-1.,1.49975978266186E-32,-1.22464679914735E-16));
#803=DIRECTION('',(-1.22464679914735E-16,-1.22464679914735E-16,1.));
#804=DIRECTION('center_axis',(-1.22464679914735E-16,-1.22464679914735E-16,
1.));
#805=DIRECTION('ref_axis',(1.,-1.49975978266186E-32,1.22464679914735E-16));
#806=DIRECTION('',(0.,1.,1.22464679914735E-16));
#807=DIRECTION('',(1.,-1.49975978266186E-32,1.22464679914735E-16));
#808=DIRECTION('',(0.,-1.,-1.22464679914735E-16));
#809=DIRECTION('',(1.,-1.49975978266186E-32,1.22464679914735E-16));
#810=DIRECTION('',(0.,1.,1.22464679914735E-16));
#811=DIRECTION('',(-1.,1.49975978266186E-32,-1.22464679914735E-16));
#812=DIRECTION('',(0.,1.,1.22464679914735E-16));
#813=DIRECTION('',(1.,-1.49975978266186E-32,1.22464679914735E-16));
#814=DIRECTION('',(0.,1.,1.22464679914735E-16));
#815=DIRECTION('',(-1.,1.49975978266186E-32,-1.22464679914735E-16));
#816=DIRECTION('',(0.,1.,1.22464679914735E-16));
#817=DIRECTION('',(-1.,1.49975978266186E-32,-1.22464679914735E-16));
#818=DIRECTION('',(0.,-1.,-1.22464679914735E-16));
#819=DIRECTION('',(-1.,1.49975978266186E-32,-1.22464679914735E-16));
#820=DIRECTION('',(0.,1.,1.22464679914735E-16));
#821=DIRECTION('',(-0.894307840109754,-0.447452217692825,-1.6431821600117E-16));
#822=DIRECTION('',(-0.00199597859904618,-0.999998008032732,-1.2270887284935E-16));
#823=DIRECTION('',(1.,-1.49975978266186E-32,1.22464679914735E-16));
#824=DIRECTION('',(0.,-1.,-1.22464679914735E-16));
#825=DIRECTION('center_axis',(-1.,1.49975978266186E-32,-1.22464679914735E-16));
#826=DIRECTION('ref_axis',(0.,-1.,-1.22464679914735E-16));
#827=DIRECTION('',(-1.22464679914735E-16,-1.22464679914735E-16,1.));
#828=DIRECTION('',(-1.22464679914735E-16,-1.22464679914735E-16,1.));
#829=DIRECTION('center_axis',(0.,-1.,-1.22464679914735E-16));
#830=DIRECTION('ref_axis',(1.,-1.49975978266186E-32,1.22464679914735E-16));
#831=DIRECTION('',(-1.22464679914735E-16,-1.22464679914735E-16,1.));
#832=DIRECTION('center_axis',(1.,-1.49975978266186E-32,1.22464679914735E-16));
#833=DIRECTION('ref_axis',(6.21190650901912E-32,1.,-3.84775980277582E-16));
#834=DIRECTION('',(-1.22464679914735E-16,-1.22464679914735E-16,1.));
#835=DIRECTION('center_axis',(0.,1.,1.22464679914735E-16));
#836=DIRECTION('ref_axis',(-1.,1.49975978266186E-32,-1.22464679914735E-16));
#837=DIRECTION('',(-1.22464679914735E-16,-1.22464679914735E-16,1.));
#838=DIRECTION('center_axis',(1.,-1.49975978266186E-32,1.22464679914735E-16));
#839=DIRECTION('ref_axis',(1.55419718145728E-32,1.,-4.44515094746712E-18));
#840=DIRECTION('',(-1.22464679914735E-16,-1.22464679914735E-16,1.));
#841=DIRECTION('center_axis',(0.,-1.,-1.22464679914735E-16));
#842=DIRECTION('ref_axis',(1.,-2.64477252502517E-32,2.15962065704705E-16));
#843=DIRECTION('',(-1.22464679914735E-16,-1.22464679914735E-16,1.));
#844=DIRECTION('center_axis',(1.,-1.49975978266186E-32,1.22464679914735E-16));
#845=DIRECTION('ref_axis',(4.83316934477227E-32,1.,-2.72193547105277E-16));
#846=DIRECTION('',(-1.22464679914735E-16,-1.22464679914735E-16,1.));
#847=DIRECTION('center_axis',(0.,1.,1.22464679914735E-16));
#848=DIRECTION('ref_axis',(-1.,3.91688169101189E-32,-3.19837662070319E-16));
#849=DIRECTION('',(-1.22464679914735E-16,-1.22464679914735E-16,1.));
#850=DIRECTION('center_axis',(1.,-1.49975978266186E-32,1.22464679914735E-16));
#851=DIRECTION('ref_axis',(0.,1.,1.22464679914735E-16));
#852=DIRECTION('',(-1.22464679914735E-16,-1.22464679914735E-16,1.));
#853=DIRECTION('center_axis',(0.,1.,1.22464679914735E-16));
#854=DIRECTION('ref_axis',(-1.,1.49975978266186E-32,-1.22464679914735E-16));
#855=DIRECTION('',(-1.22464679914735E-16,-1.22464679914735E-16,1.));
#856=DIRECTION('center_axis',(-1.,1.49975978266186E-32,-1.22464679914735E-16));
#857=DIRECTION('ref_axis',(0.,-1.,-1.22464679914735E-16));
#858=DIRECTION('',(-1.22464679914735E-16,-1.22464679914735E-16,1.));
#859=DIRECTION('center_axis',(0.,1.,1.22464679914735E-16));
#860=DIRECTION('ref_axis',(-1.,1.49975978266186E-32,-1.22464679914735E-16));
#861=DIRECTION('',(-1.22464679914735E-16,-1.22464679914735E-16,1.));
#862=DIRECTION('center_axis',(1.,-1.49975978266186E-32,1.22464679914735E-16));
#863=DIRECTION('ref_axis',(0.,1.,1.22464679914735E-16));
#864=DIRECTION('',(-1.22464679914735E-16,-1.22464679914735E-16,1.));
#865=DIRECTION('center_axis',(-0.447452217692825,0.894307840109754,5.47240307673889E-17));
#866=DIRECTION('ref_axis',(-0.894307840109754,-0.447452217692825,-1.6431821600117E-16));
#867=DIRECTION('',(1.22464679914735E-16,1.22464679914735E-16,-1.));
#868=DIRECTION('center_axis',(-0.999998008032732,0.00199597859904618,-1.22219999088853E-16));
#869=DIRECTION('ref_axis',(-0.00199597859904618,-0.999998008032732,-1.2270887284935E-16));
#870=DIRECTION('',(-1.22464679914735E-16,-1.22464679914735E-16,1.));
#871=DIRECTION('center_axis',(0.,-1.,-1.22464679914735E-16));
#872=DIRECTION('ref_axis',(1.,-3.05373490970753E-32,2.49356378658211E-16));
#873=DIRECTION('',(-1.22464679914735E-16,-1.22464679914735E-16,1.));
#874=DIRECTION('center_axis',(-1.,1.49975978266186E-32,-1.22464679914735E-16));
#875=DIRECTION('ref_axis',(-8.71209428716957E-32,-1.,5.88931805442126E-16));
#876=DIRECTION('center_axis',(1.,-1.49975978266186E-32,1.22464679914735E-16));
#877=DIRECTION('ref_axis',(0.,1.,1.22464679914735E-16));
#878=DIRECTION('',(-1.22464679914735E-16,-1.22464679914735E-16,1.));
#879=DIRECTION('center_axis',(0.,-1.,-1.22464679914735E-16));
#880=DIRECTION('ref_axis',(1.,-1.49975978266186E-32,1.22464679914735E-16));
#881=DIRECTION('center_axis',(-0.939692620785908,-6.66583193750519E-16,
0.342020143325669));
#882=DIRECTION('ref_axis',(-0.342020143325669,-8.71590374454065E-17,-0.939692620785908));
#883=DIRECTION('center_axis',(-0.939692620785908,-6.66583193750519E-16,
0.342020143325669));
#884=DIRECTION('ref_axis',(-0.342020143325669,-8.71590374454065E-17,-0.939692620785908));
#885=DIRECTION('',(0.939692620785908,6.66583193750519E-16,-0.342020143325669));
#886=DIRECTION('center_axis',(0.939692620785909,6.66583193750519E-16,-0.342020143325669));
#887=DIRECTION('ref_axis',(-0.342020143325669,-8.71590374454065E-17,-0.939692620785908));
#888=DIRECTION('center_axis',(0.939692620785908,6.66583193750519E-16,-0.342020143325669));
#889=DIRECTION('ref_axis',(-0.342020143325669,-8.71590374454065E-17,-0.939692620785908));
#890=DIRECTION('center_axis',(0.939692620785908,6.66583193750519E-16,-0.342020143325669));
#891=DIRECTION('ref_axis',(-0.342020143325669,-8.71590374454065E-17,-0.939692620785908));
#892=DIRECTION('center_axis',(0.939692620785908,6.66583193750519E-16,-0.342020143325669));
#893=DIRECTION('ref_axis',(-0.342020143325669,-8.71590374454065E-17,-0.939692620785908));
#894=DIRECTION('',(-0.939692620785908,-6.66583193750519E-16,0.342020143325669));
#895=DIRECTION('center_axis',(0.939692620785909,6.66583193750519E-16,-0.342020143325669));
#896=DIRECTION('ref_axis',(0.342020143325668,1.37112829329553E-16,0.939692620785908));
#897=DIRECTION('center_axis',(0.939692620785908,6.66583193750519E-16,-0.342020143325669));
#898=DIRECTION('ref_axis',(-0.342020143325669,-8.71590374454065E-17,-0.939692620785908));
#899=DIRECTION('center_axis',(-0.939692620785909,-6.66583193750519E-16,
0.342020143325669));
#900=DIRECTION('ref_axis',(1.11022302462516E-16,-1.,-1.64392760589091E-15));
#901=DIRECTION('',(0.342020143325669,-5.550672152561E-16,0.939692620785909));
#902=DIRECTION('',(1.11022302462516E-16,-1.,-1.64392760589091E-15));
#903=DIRECTION('',(0.342020143325669,-1.50681477656136E-15,0.939692620785909));
#904=DIRECTION('',(1.11022302462516E-16,-1.,-1.64392760589091E-15));
#905=DIRECTION('center_axis',(4.88702558973339E-16,-1.,-7.68563377581663E-16));
#906=DIRECTION('ref_axis',(-0.342020143325669,5.550672152561E-16,-0.939692620785909));
#907=DIRECTION('',(-0.342020143325669,5.550672152561E-16,-0.939692620785909));
#908=DIRECTION('',(-0.939692620785909,-7.22094344981777E-16,0.342020143325669));
#909=DIRECTION('',(0.939692620785909,7.22094344981777E-16,-0.342020143325669));
#910=DIRECTION('center_axis',(-0.342020143325669,1.50681477656136E-15,-0.939692620785909));
#911=DIRECTION('ref_axis',(-1.11022302462516E-16,1.,1.64392760589091E-15));
#912=DIRECTION('',(1.11022302462516E-16,-1.,-1.64392760589091E-15));
#913=DIRECTION('',(-0.939692620785909,-6.66583193750519E-16,0.342020143325669));
#914=DIRECTION('center_axis',(-1.11022302462516E-16,1.,1.64392760589091E-15));
#915=DIRECTION('ref_axis',(0.342020143325669,-1.50681477656136E-15,0.939692620785909));
#916=DIRECTION('',(-0.342020143325669,1.50681477656136E-15,-0.939692620785909));
#917=DIRECTION('',(0.939692620785909,6.66583193750519E-16,-0.342020143325669));
#918=DIRECTION('center_axis',(0.939692620785909,6.66583193750519E-16,-0.342020143325669));
#919=DIRECTION('ref_axis',(-1.11022302462516E-16,1.,1.64392760589091E-15));
#920=DIRECTION('',(1.11022302462516E-16,-1.,-1.64392760589091E-15));
#921=DIRECTION('center_axis',(0.342020143325669,-1.50681477656136E-15,0.939692620785909));
#922=DIRECTION('ref_axis',(1.11022302462516E-16,-1.,-1.64392760589091E-15));
#923=CARTESIAN_POINT('',(0.,0.,0.));
#924=CARTESIAN_POINT('Origin',(6.65000000000001,-1.5,-8.88178419700125E-15));
#925=CARTESIAN_POINT('',(6.65000000000001,-0.949633093452811,14.4989995956421));
#926=CARTESIAN_POINT('',(6.65000000000001,-0.949633093452809,-8.81438368995529E-15));
#927=CARTESIAN_POINT('',(6.65000000000001,-0.949633093452809,-7.89064711387723E-15));
#928=CARTESIAN_POINT('',(6.65000000000001,0.,14.4989995956421));
#929=CARTESIAN_POINT('',(6.65000000000001,4.125,14.4989995956421));
#930=CARTESIAN_POINT('',(6.65000000000001,0.,-8.88178419700125E-15));
#931=CARTESIAN_POINT('',(6.65000000000001,0.,-8.88178419700125E-15));
#932=CARTESIAN_POINT('',(6.65000000000001,8.99999999999999,-1.11081185939199E-14));
#933=CARTESIAN_POINT('Origin',(4.7519999742508,1.23730183857456E-31,-7.08305199060458E-15));
#934=CARTESIAN_POINT('',(8.15000000000001,-1.70013342056262,-1.22348099884419E-14));
#935=CARTESIAN_POINT('',(4.7519999742508,1.23730183857456E-31,-7.08305199060458E-15));
#936=CARTESIAN_POINT('',(8.15000000000001,-1.70013342056261,14.4989995956421));
#937=CARTESIAN_POINT('',(8.15000000000001,-1.70013342056262,-6.89961623624543E-15));
#938=CARTESIAN_POINT('',(4.79988635174799,-0.0239591613171619,14.4989995956421));
#939=CARTESIAN_POINT('Origin',(5.0019999742508,19.5,-1.0024061250468E-14));
#940=CARTESIAN_POINT('',(-2.58172918643194,3.87197360353494E-32,-8.01179095482763E-15));
#941=CARTESIAN_POINT('',(5.6759999871254,1.99803069690725E-15,-1.22124532708767E-14));
#942=CARTESIAN_POINT('',(-2.58172918643194,16.0010004043579,-9.84633217660022E-15));
#943=CARTESIAN_POINT('',(-2.58172918643194,17.7509678531783,-1.11022302462516E-14));
#944=CARTESIAN_POINT('',(18.9989995956421,16.0010004043579,-5.18571335876923E-15));
#945=CARTESIAN_POINT('',(0.,16.0010004043579,-9.28877660234997E-15));
#946=CARTESIAN_POINT('',(18.9989995956421,18.4980001449585,-6.65627592418965E-15));
#947=CARTESIAN_POINT('',(18.9989995956421,16.0010004043579,-5.18571335876923E-15));
#948=CARTESIAN_POINT('',(4.49999900401439,18.4980001449585,-1.02082482301271E-14));
#949=CARTESIAN_POINT('',(5.,18.4980001449585,-1.01470157681967E-14));
#950=CARTESIAN_POINT('',(4.50174906342875,19.3747910730457,-1.01006579893008E-14));
#951=CARTESIAN_POINT('',(4.50000099598364,18.498998134258,-1.01470157681967E-14));
#952=CARTESIAN_POINT('',(7.75000000000001,21.,-9.47321511705814E-15));
#953=CARTESIAN_POINT('',(4.7519999742508,19.5,-1.0024061250468E-14));
#954=CARTESIAN_POINT('',(7.75000000000001,19.5,-9.65691213693025E-15));
#955=CARTESIAN_POINT('',(7.75000000000001,19.5,-9.65691213693025E-15));
#956=CARTESIAN_POINT('',(10.,19.5,-9.41198277710078E-15));
#957=CARTESIAN_POINT('',(8.00000000000001,19.5,-9.65691213693025E-15));
#958=CARTESIAN_POINT('',(10.,22.,-9.10582107731394E-15));
#959=CARTESIAN_POINT('',(10.,19.5,-9.41198277710078E-15));
#960=CARTESIAN_POINT('',(11.,22.,-8.9833563973992E-15));
#961=CARTESIAN_POINT('',(10.,22.,-9.10582107731394E-15));
#962=CARTESIAN_POINT('',(11.,20.5,-9.28951809718604E-15));
#963=CARTESIAN_POINT('',(11.,19.5,-9.28951809718604E-15));
#964=CARTESIAN_POINT('',(22.,20.5,-6.28851445863843E-15));
#965=CARTESIAN_POINT('',(11.,20.5,-9.28951809718604E-15));
#966=CARTESIAN_POINT('',(22.,13.9989995956421,-5.1858358729687E-15));
#967=CARTESIAN_POINT('',(22.,14.9989995956421,-5.06337119305397E-15));
#968=CARTESIAN_POINT('',(8.03099992752076,13.9989995956421,-8.73378766263258E-15));
#969=CARTESIAN_POINT('',(1.00099992752076,13.9989995956421,-9.41136385485989E-15));
#970=CARTESIAN_POINT('',(8.03099992752076,2.00200009346007,-8.42663952720429E-15));
#971=CARTESIAN_POINT('',(8.03099992752076,1.00200009346008,-8.54910420711902E-15));
#972=CARTESIAN_POINT('',(12.,2.00200009346007,-7.87969137608802E-15));
#973=CARTESIAN_POINT('',(1.00099992752076,2.00200009346007,-9.1042157194316E-15));
#974=CARTESIAN_POINT('',(12.,-2.50000000000001,-6.65467053710946E-15));
#975=CARTESIAN_POINT('',(12.,-2.50000000000001,-6.65467053710946E-15));
#976=CARTESIAN_POINT('',(10.,-2.50000000000001,-6.7771352170242E-15));
#977=CARTESIAN_POINT('',(10.,-2.50000000000001,-6.7771352170242E-15));
#978=CARTESIAN_POINT('',(10.,0.,-6.47097351723736E-15));
#979=CARTESIAN_POINT('',(10.,-2.50000000000001,-6.7771352170242E-15));
#980=CARTESIAN_POINT('',(8.15000000000001,1.23730183857456E-31,-6.71590287706683E-15));
#981=CARTESIAN_POINT('',(8.00000000000001,0.,-6.71590287706683E-15));
#982=CARTESIAN_POINT('',(8.15000000000001,-1.5,-6.89959989693893E-15));
#983=CARTESIAN_POINT('Origin',(0.,0.,-7.69562031638471E-15));
#984=CARTESIAN_POINT('',(-0.160820920464758,-2.22044604925031E-15,14.4989995956421));
#985=CARTESIAN_POINT('',(8.175,-9.83290198462682E-32,14.4989995956421));
#986=CARTESIAN_POINT('',(-4.46111442800376,1.00469081855296E-15,2.68404028665132));
#987=CARTESIAN_POINT('',(-5.07158648537299,1.1216141143245E-15,1.00678209382136));
#988=CARTESIAN_POINT('Origin',(-2.58172918643194,0.,1.99999999999999));
#989=CARTESIAN_POINT('Origin',(-2.58172918643194,17.7509678531783,1.99999999999999));
#990=CARTESIAN_POINT('',(-4.46111442800376,16.0010004043579,2.68404028665133));
#991=CARTESIAN_POINT('Origin',(-2.58172918643194,16.0010004043579,1.99999999999999));
#992=CARTESIAN_POINT('',(-4.46111442800376,17.7509678531783,2.68404028665133));
#993=CARTESIAN_POINT('Origin',(-5.07158648537299,16.0019357063567,1.00678209382136));
#994=CARTESIAN_POINT('',(-0.160820920464757,16.0010004043579,14.4989995956421));
#995=CARTESIAN_POINT('',(-0.160820920464759,12.8759678531783,14.4989995956421));
#996=CARTESIAN_POINT('',(-5.07158648537299,16.0010004043579,1.00678209382136));
#997=CARTESIAN_POINT('Origin',(18.9989995956421,16.0010004043579,-5.18571335876923E-15));
#998=CARTESIAN_POINT('',(18.9989995956421,16.0010004043579,14.4989995956421));
#999=CARTESIAN_POINT('',(14.499499797821,16.0010004043579,14.4989995956421));
#1000=CARTESIAN_POINT('',(18.9989995956421,16.0010004043579,-5.18571335876923E-15));
#1001=CARTESIAN_POINT('Origin',(10.,9.75,14.4989995956421));
#1002=CARTESIAN_POINT('',(8.15000000000001,1.23730183857456E-31,14.4989995956421));
#1003=CARTESIAN_POINT('',(8.15000000000001,4.125,14.4989995956421));
#1004=CARTESIAN_POINT('',(10.,0.,14.4989995956421));
#1005=CARTESIAN_POINT('',(9.,0.,14.4989995956421));
#1006=CARTESIAN_POINT('',(10.,-2.50000000000001,14.4989995956421));
#1007=CARTESIAN_POINT('',(10.,4.87499999999999,14.4989995956421));
#1008=CARTESIAN_POINT('',(12.,-2.50000000000001,14.4989995956421));
#1009=CARTESIAN_POINT('',(10.,-2.50000000000001,14.4989995956421));
#1010=CARTESIAN_POINT('',(12.,2.00200009346007,14.4989995956421));
#1011=CARTESIAN_POINT('',(12.,3.62499999999999,14.4989995956421));
#1012=CARTESIAN_POINT('',(8.03099992752076,2.00200009346007,14.4989995956421));
#1013=CARTESIAN_POINT('',(10.5,2.00200009346007,14.4989995956421));
#1014=CARTESIAN_POINT('',(8.03099992752076,13.9989995956421,14.4989995956421));
#1015=CARTESIAN_POINT('',(8.03099992752076,5.37600004673003,14.4989995956421));
#1016=CARTESIAN_POINT('',(22.,13.9989995956421,14.4989995956421));
#1017=CARTESIAN_POINT('',(5.50049996376039,13.9989995956421,14.4989995956421));
#1018=CARTESIAN_POINT('',(22.,20.5,14.4989995956421));
#1019=CARTESIAN_POINT('',(22.,12.374499797821,14.4989995956421));
#1020=CARTESIAN_POINT('',(11.,20.5,14.4989995956421));
#1021=CARTESIAN_POINT('',(15.,20.5,14.4989995956421));
#1022=CARTESIAN_POINT('',(11.,22.,14.4989995956421));
#1023=CARTESIAN_POINT('',(11.,14.625,14.4989995956421));
#1024=CARTESIAN_POINT('',(10.,22.,14.4989995956421));
#1025=CARTESIAN_POINT('',(10.5,22.,14.4989995956421));
#1026=CARTESIAN_POINT('',(10.,19.5,14.4989995956421));
#1027=CARTESIAN_POINT('',(10.,15.875,14.4989995956421));
#1028=CARTESIAN_POINT('',(7.75000000000001,19.5,14.4989995956421));
#1029=CARTESIAN_POINT('',(10.,19.5,14.4989995956421));
#1030=CARTESIAN_POINT('',(7.75000000000001,21.,14.4989995956421));
#1031=CARTESIAN_POINT('',(7.75000000000001,14.625,14.4989995956421));
#1032=CARTESIAN_POINT('',(4.50174906342875,19.3747910730457,14.4989995956421));
#1033=CARTESIAN_POINT('',(6.29888636462259,20.2739591613172,14.4989995956421));
#1034=CARTESIAN_POINT('',(4.49999900401439,18.4980001449585,14.4989995956421));
#1035=CARTESIAN_POINT('',(4.49228054978925,14.6310053515699,14.4989995956421));
#1036=CARTESIAN_POINT('',(18.9989995956421,18.4980001449585,14.4989995956421));
#1037=CARTESIAN_POINT('',(7.5,18.4980001449585,14.4989995956421));
#1038=CARTESIAN_POINT('',(18.9989995956421,14.1240000724792,14.4989995956421));
#1039=CARTESIAN_POINT('Origin',(10.,0.,-6.47097351723736E-15));
#1040=CARTESIAN_POINT('',(10.,0.,-6.47097351723736E-15));
#1041=CARTESIAN_POINT('',(10.,-2.50000000000001,-6.7771352170242E-15));
#1042=CARTESIAN_POINT('Origin',(10.,-2.50000000000001,-6.7771352170242E-15));
#1043=CARTESIAN_POINT('',(12.,-2.50000000000001,-6.65467053710946E-15));
#1044=CARTESIAN_POINT('Origin',(12.,-2.50000000000001,-6.65467053710946E-15));
#1045=CARTESIAN_POINT('',(12.,2.00200009346007,-7.87969137608802E-15));
#1046=CARTESIAN_POINT('Origin',(11.,2.00200009346007,-7.87969137608802E-15));
#1047=CARTESIAN_POINT('',(8.03099992752076,2.00200009346007,-8.42663952720429E-15));
#1048=CARTESIAN_POINT('Origin',(8.03099992752076,1.00200009346008,-8.54910420711902E-15));
#1049=CARTESIAN_POINT('',(8.03099992752076,13.9989995956421,-8.73378766263258E-15));
#1050=CARTESIAN_POINT('Origin',(1.00099992752076,13.9989995956421,-9.41136385485989E-15));
#1051=CARTESIAN_POINT('',(22.,13.9989995956421,-5.1858358729687E-15));
#1052=CARTESIAN_POINT('Origin',(22.,14.9989995956421,-5.06337119305397E-15));
#1053=CARTESIAN_POINT('',(22.,20.5,-6.28851445863843E-15));
#1054=CARTESIAN_POINT('Origin',(20.,20.5,-6.41097913855317E-15));
#1055=CARTESIAN_POINT('',(11.,20.5,-9.28951809718604E-15));
#1056=CARTESIAN_POINT('Origin',(11.,19.5,-9.28951809718604E-15));
#1057=CARTESIAN_POINT('',(11.,22.,-8.9833563973992E-15));
#1058=CARTESIAN_POINT('Origin',(11.,22.,-8.9833563973992E-15));
#1059=CARTESIAN_POINT('',(10.,22.,-9.10582107731394E-15));
#1060=CARTESIAN_POINT('Origin',(10.,22.,-9.10582107731394E-15));
#1061=CARTESIAN_POINT('',(10.,19.5,-9.41198277710078E-15));
#1062=CARTESIAN_POINT('Origin',(10.,19.5,-9.41198277710078E-15));
#1063=CARTESIAN_POINT('',(7.75000000000001,19.5,-9.65691213693025E-15));
#1064=CARTESIAN_POINT('Origin',(7.75000000000001,19.5,-9.65691213693025E-15));
#1065=CARTESIAN_POINT('',(7.75000000000001,21.,-9.47321511705814E-15));
#1066=CARTESIAN_POINT('Origin',(7.75000000000001,21.,-9.47321511705814E-15));
#1067=CARTESIAN_POINT('',(4.50174906342875,19.3747910730457,-1.00547949045392E-14));
#1068=CARTESIAN_POINT('Origin',(4.50200097023443,19.5009979892995,-1.0024061250468E-14));
#1069=CARTESIAN_POINT('',(4.49999900401439,18.4980001449585,-1.01776932303549E-14));
#1070=CARTESIAN_POINT('Origin',(5.,18.4980001449585,-1.01470157681967E-14));
#1071=CARTESIAN_POINT('',(18.9989995956421,18.4980001449585,-6.65627592418965E-15));
#1072=CARTESIAN_POINT('Origin',(18.9989995956421,18.4980001449585,-6.65627592418965E-15));
#1073=CARTESIAN_POINT('Origin',(8.15000000000001,-1.5,-6.89959989693893E-15));
#1074=CARTESIAN_POINT('',(8.15000000000001,1.23730183857456E-31,-6.71590287706683E-15));
#1075=CARTESIAN_POINT('Origin',(8.00000000000001,0.,-6.71590287706683E-15));
#1076=CARTESIAN_POINT('Origin',(14.0172335041388,8.17412686043108,3.51377069640226));
#1077=CARTESIAN_POINT('',(-17.7433417503933,8.17412686043105,18.5854613613942));
#1078=CARTESIAN_POINT('Origin',(-18.872008223368,8.17412686043105,15.4844757128007));
#1079=CARTESIAN_POINT('',(0.016848782460348,8.17412686043106,12.121280652539));
#1080=CARTESIAN_POINT('',(15.1458999771135,8.17412686043108,6.61475634499576));
#1081=CARTESIAN_POINT('Origin',(-1.11181769051436,8.17412686043106,9.02029500394553));
#1082=CARTESIAN_POINT('Origin',(-18.872008223368,8.17412686043105,15.4844757128007));
#1083=CARTESIAN_POINT('Origin',(6.4996925378515,8.17412686043107,6.24993184300761));
#1084=CARTESIAN_POINT('',(15.1458999771135,8.17412686043107,6.61475634499576));
#1085=CARTESIAN_POINT('Origin',(14.0172335041388,8.17412686043108,3.51377069640226));
#1086=CARTESIAN_POINT('',(5.42595443085924,8.17412686043107,10.1525272025206));
#1087=CARTESIAN_POINT('',(7.62835901082621,8.17412686043107,9.35091749160111));
#1088=CARTESIAN_POINT('Origin',(4.29728795788453,8.17412686043107,7.05154155392715));
#1089=CARTESIAN_POINT('Origin',(14.0172335041388,8.17412686043108,3.51377069640226));
#1090=CARTESIAN_POINT('Origin',(4.29728795788987,10.1178768604311,7.05154155394181));
#1091=CARTESIAN_POINT('',(2.04906215775067,13.9303768604311,0.874591934224064));
#1092=CARTESIAN_POINT('',(9.88021015545433,13.930376860431,22.3904942263222));
#1093=CARTESIAN_POINT('',(4.29728795788986,13.9303768604311,7.05154155394182));
#1094=CARTESIAN_POINT('',(9.88021015545433,2.51787686043105,22.3904942263222));
#1095=CARTESIAN_POINT('',(9.88021015545433,10.117876860431,22.3904942263222));
#1096=CARTESIAN_POINT('',(2.04906215775066,2.51787686043109,0.874591934224047));
#1097=CARTESIAN_POINT('',(4.29728795788986,2.51787686043108,7.0515415539418));
#1098=CARTESIAN_POINT('',(2.04906215775067,10.1178768604311,0.874591934224057));
#1099=CARTESIAN_POINT('Origin',(1.59273513369042,13.9303768604311,8.03591827895101));
#1100=CARTESIAN_POINT('',(4.47110450705545,13.930376860431,24.3592476763406));
#1101=CARTESIAN_POINT('',(-3.36004349064822,13.9303768604311,2.84334538424244));
#1102=CARTESIAN_POINT('',(-1.11181769050902,13.9303768604311,9.0202950039602));
#1103=CARTESIAN_POINT('',(7.17565733125489,13.930376860431,23.3748709513314));
#1104=CARTESIAN_POINT('',(-0.655490666448778,13.9303768604311,1.85896865923325));
#1105=CARTESIAN_POINT('Origin',(7.17565733125489,10.117876860431,23.3748709513314));
#1106=CARTESIAN_POINT('',(4.47110450705545,2.51787686043105,24.3592476763406));
#1107=CARTESIAN_POINT('',(4.47110450705545,10.117876860431,24.3592476763406));
#1108=CARTESIAN_POINT('',(7.17565733125489,2.51787686043105,23.3748709513314));
#1109=CARTESIAN_POINT('Origin',(1.59273513369042,2.51787686043108,8.03591827895099));
#1110=CARTESIAN_POINT('',(-3.36004349064822,2.51787686043108,2.84334538424243));
#1111=CARTESIAN_POINT('',(-1.11181769050902,2.51787686043107,9.02029500396018));
#1112=CARTESIAN_POINT('',(-0.655490666448777,2.51787686043109,1.85896865923324));
#1113=CARTESIAN_POINT('Origin',(-1.11181769050902,10.1178768604311,9.02029500396019));
#1114=CARTESIAN_POINT('',(-3.36004349064822,10.1178768604311,2.84334538424244));
#1115=CARTESIAN_POINT('Origin',(-0.655490666448778,10.1178768604311,1.85896865923325));
#1116=UNCERTAINTY_MEASURE_WITH_UNIT(LENGTH_MEASURE(0.01),#1120,
'DISTANCE_ACCURACY_VALUE',
'Maximum model space distance between geometric entities at asserted c
onnectivities');
#1117=UNCERTAINTY_MEASURE_WITH_UNIT(LENGTH_MEASURE(0.01),#1120,
'DISTANCE_ACCURACY_VALUE',
'Maximum model space distance between geometric entities at asserted c
onnectivities');
#1118=(
GEOMETRIC_REPRESENTATION_CONTEXT(3)
GLOBAL_UNCERTAINTY_ASSIGNED_CONTEXT((#1116))
GLOBAL_UNIT_ASSIGNED_CONTEXT((#1120,#1122,#1123))
REPRESENTATION_CONTEXT('','3D')
);
#1119=(
GEOMETRIC_REPRESENTATION_CONTEXT(3)
GLOBAL_UNCERTAINTY_ASSIGNED_CONTEXT((#1117))
GLOBAL_UNIT_ASSIGNED_CONTEXT((#1120,#1122,#1123))
REPRESENTATION_CONTEXT('','3D')
);
#1120=(
LENGTH_UNIT()
NAMED_UNIT(*)
SI_UNIT(.MILLI.,.METRE.)
);
#1121=(
LENGTH_UNIT()
NAMED_UNIT(*)
SI_UNIT($,.METRE.)
);
#1122=(
NAMED_UNIT(*)
PLANE_ANGLE_UNIT()
SI_UNIT($,.RADIAN.)
);
#1123=(
NAMED_UNIT(*)
SI_UNIT($,.STERADIAN.)
SOLID_ANGLE_UNIT()
);
#1124=SHAPE_DEFINITION_REPRESENTATION(#1125,#1126);
#1125=PRODUCT_DEFINITION_SHAPE('',$,#1128);
#1126=SHAPE_REPRESENTATION('',(#704),#1118);
#1127=PRODUCT_DEFINITION_CONTEXT('part definition',#1132,'design');
#1128=PRODUCT_DEFINITION('Keystone','Keystone v7',#1129,#1127);
#1129=PRODUCT_DEFINITION_FORMATION('',$,#1134);
#1130=PRODUCT_RELATED_PRODUCT_CATEGORY('Keystone v7','Keystone v7',(#1134));
#1131=APPLICATION_PROTOCOL_DEFINITION('international standard',
'automotive_design',2009,#1132);
#1132=APPLICATION_CONTEXT(
'Core Data for Automotive Mechanical Design Process');
#1133=PRODUCT_CONTEXT('part definition',#1132,'mechanical');
#1134=PRODUCT('Keystone','Keystone v7',$,(#1133));
#1135=PRESENTATION_STYLE_ASSIGNMENT((#1136));
#1136=SURFACE_STYLE_USAGE(.BOTH.,#1137);
#1137=SURFACE_SIDE_STYLE('',(#1138));
#1138=SURFACE_STYLE_FILL_AREA(#1139);
#1139=FILL_AREA_STYLE('Steel - Satin',(#1140));
#1140=FILL_AREA_STYLE_COLOUR('Steel - Satin',#1141);
#1141=COLOUR_RGB('Steel - Satin',0.627450980392157,0.627450980392157,0.627450980392157);
ENDSEC;
END-ISO-10303-21;
