ISO-10303-21;
HEADER;
/* Generated by software containing ST-Developer
 * from STEP Tools, Inc. (www.steptools.com) 
 */

FILE_DESCRIPTION(
/* description */ (''),
/* implementation_level */ '2;1');

FILE_NAME(
/* name */ 'honda_cup_holder_rail_v1.step',
/* time_stamp */ '2026-03-17T23:34:57-04:00',
/* author */ (''),
/* organization */ (''),
/* preprocessor_version */ 'ST-DEVELOPER v20.1',
/* originating_system */ 'Autodesk Translation Framework v14.24.0.0',
/* authorisation */ '');

FILE_SCHEMA (('AUTOMOTIVE_DESIGN { 1 0 10303 214 3 1 1 }'));
ENDSEC;

DATA;
#10=MECHANICAL_DESIGN_GEOMETRIC_PRESENTATION_REPRESENTATION('',(#13),#1137);
#11=SHAPE_REPRESENTATION_RELATIONSHIP('SRR','None',#1144,#12);
#12=ADVANCED_BREP_SHAPE_REPRESENTATION('',(#14),#1136);
#13=STYLED_ITEM('',(#1153),#14);
#14=MANIFOLD_SOLID_BREP('Body1',#713);
#15=FACE_BOUND('',#88,.T.);
#16=FACE_BOUND('',#92,.T.);
#17=FACE_BOUND('',#94,.T.);
#18=FACE_OUTER_BOUND('',#55,.T.);
#19=FACE_OUTER_BOUND('',#56,.T.);
#20=FACE_OUTER_BOUND('',#57,.T.);
#21=FACE_OUTER_BOUND('',#58,.T.);
#22=FACE_OUTER_BOUND('',#59,.T.);
#23=FACE_OUTER_BOUND('',#60,.T.);
#24=FACE_OUTER_BOUND('',#61,.T.);
#25=FACE_OUTER_BOUND('',#62,.T.);
#26=FACE_OUTER_BOUND('',#63,.T.);
#27=FACE_OUTER_BOUND('',#64,.T.);
#28=FACE_OUTER_BOUND('',#65,.T.);
#29=FACE_OUTER_BOUND('',#66,.T.);
#30=FACE_OUTER_BOUND('',#67,.T.);
#31=FACE_OUTER_BOUND('',#68,.T.);
#32=FACE_OUTER_BOUND('',#69,.T.);
#33=FACE_OUTER_BOUND('',#70,.T.);
#34=FACE_OUTER_BOUND('',#71,.T.);
#35=FACE_OUTER_BOUND('',#72,.T.);
#36=FACE_OUTER_BOUND('',#73,.T.);
#37=FACE_OUTER_BOUND('',#74,.T.);
#38=FACE_OUTER_BOUND('',#75,.T.);
#39=FACE_OUTER_BOUND('',#76,.T.);
#40=FACE_OUTER_BOUND('',#77,.T.);
#41=FACE_OUTER_BOUND('',#78,.T.);
#42=FACE_OUTER_BOUND('',#79,.T.);
#43=FACE_OUTER_BOUND('',#80,.T.);
#44=FACE_OUTER_BOUND('',#81,.T.);
#45=FACE_OUTER_BOUND('',#82,.T.);
#46=FACE_OUTER_BOUND('',#83,.T.);
#47=FACE_OUTER_BOUND('',#84,.T.);
#48=FACE_OUTER_BOUND('',#85,.T.);
#49=FACE_OUTER_BOUND('',#86,.T.);
#50=FACE_OUTER_BOUND('',#87,.T.);
#51=FACE_OUTER_BOUND('',#89,.T.);
#52=FACE_OUTER_BOUND('',#90,.T.);
#53=FACE_OUTER_BOUND('',#91,.T.);
#54=FACE_OUTER_BOUND('',#93,.T.);
#55=EDGE_LOOP('',(#447,#448,#449,#450));
#56=EDGE_LOOP('',(#451,#452,#453));
#57=EDGE_LOOP('',(#454,#455,#456));
#58=EDGE_LOOP('',(#457,#458,#459,#460));
#59=EDGE_LOOP('',(#461,#462,#463,#464));
#60=EDGE_LOOP('',(#465,#466,#467));
#61=EDGE_LOOP('',(#468,#469,#470));
#62=EDGE_LOOP('',(#471,#472,#473,#474));
#63=EDGE_LOOP('',(#475,#476,#477,#478));
#64=EDGE_LOOP('',(#479,#480,#481,#482));
#65=EDGE_LOOP('',(#483,#484,#485,#486));
#66=EDGE_LOOP('',(#487,#488,#489,#490));
#67=EDGE_LOOP('',(#491,#492,#493,#494));
#68=EDGE_LOOP('',(#495,#496,#497,#498));
#69=EDGE_LOOP('',(#499,#500,#501,#502));
#70=EDGE_LOOP('',(#503,#504,#505,#506));
#71=EDGE_LOOP('',(#507,#508,#509,#510));
#72=EDGE_LOOP('',(#511,#512,#513,#514));
#73=EDGE_LOOP('',(#515,#516,#517,#518));
#74=EDGE_LOOP('',(#519,#520,#521,#522));
#75=EDGE_LOOP('',(#523,#524,#525,#526,#527,#528,#529,#530,#531,#532,#533,
#534));
#76=EDGE_LOOP('',(#535,#536,#537,#538,#539,#540,#541,#542));
#77=EDGE_LOOP('',(#543,#544,#545,#546,#547,#548,#549,#550));
#78=EDGE_LOOP('',(#551,#552,#553,#554));
#79=EDGE_LOOP('',(#555,#556,#557,#558));
#80=EDGE_LOOP('',(#559,#560,#561,#562));
#81=EDGE_LOOP('',(#563,#564,#565,#566,#567,#568,#569,#570));
#82=EDGE_LOOP('',(#571,#572,#573,#574,#575,#576,#577,#578));
#83=EDGE_LOOP('',(#579,#580,#581,#582));
#84=EDGE_LOOP('',(#583,#584,#585,#586));
#85=EDGE_LOOP('',(#587,#588,#589,#590));
#86=EDGE_LOOP('',(#591,#592,#593,#594,#595,#596,#597,#598));
#87=EDGE_LOOP('',(#599,#600,#601,#602,#603,#604,#605,#606));
#88=EDGE_LOOP('',(#607,#608,#609,#610));
#89=EDGE_LOOP('',(#611,#612,#613,#614));
#90=EDGE_LOOP('',(#615,#616,#617,#618));
#91=EDGE_LOOP('',(#619,#620,#621,#622,#623,#624));
#92=EDGE_LOOP('',(#625,#626,#627,#628));
#93=EDGE_LOOP('',(#629,#630,#631,#632,#633,#634));
#94=EDGE_LOOP('',(#635,#636,#637,#638));
#95=LINE('',#940,#191);
#96=LINE('',#942,#192);
#97=LINE('',#944,#193);
#98=LINE('',#945,#194);
#99=LINE('',#948,#195);
#100=LINE('',#949,#196);
#101=LINE('',#952,#197);
#102=LINE('',#953,#198);
#103=LINE('',#955,#199);
#104=LINE('',#959,#200);
#105=LINE('',#961,#201);
#106=LINE('',#963,#202);
#107=LINE('',#964,#203);
#108=LINE('',#967,#204);
#109=LINE('',#968,#205);
#110=LINE('',#971,#206);
#111=LINE('',#972,#207);
#112=LINE('',#974,#208);
#113=LINE('',#978,#209);
#114=LINE('',#980,#210);
#115=LINE('',#982,#211);
#116=LINE('',#983,#212);
#117=LINE('',#987,#213);
#118=LINE('',#989,#214);
#119=LINE('',#991,#215);
#120=LINE('',#992,#216);
#121=LINE('',#994,#217);
#122=LINE('',#995,#218);
#123=LINE('',#997,#219);
#124=LINE('',#1001,#220);
#125=LINE('',#1003,#221);
#126=LINE('',#1005,#222);
#127=LINE('',#1006,#223);
#128=LINE('',#1009,#224);
#129=LINE('',#1011,#225);
#130=LINE('',#1012,#226);
#131=LINE('',#1016,#227);
#132=LINE('',#1018,#228);
#133=LINE('',#1020,#229);
#134=LINE('',#1021,#230);
#135=LINE('',#1024,#231);
#136=LINE('',#1026,#232);
#137=LINE('',#1027,#233);
#138=LINE('',#1031,#234);
#139=LINE('',#1033,#235);
#140=LINE('',#1035,#236);
#141=LINE('',#1036,#237);
#142=LINE('',#1039,#238);
#143=LINE('',#1041,#239);
#144=LINE('',#1042,#240);
#145=LINE('',#1046,#241);
#146=LINE('',#1048,#242);
#147=LINE('',#1050,#243);
#148=LINE('',#1051,#244);
#149=LINE('',#1054,#245);
#150=LINE('',#1056,#246);
#151=LINE('',#1057,#247);
#152=LINE('',#1059,#248);
#153=LINE('',#1060,#249);
#154=LINE('',#1061,#250);
#155=LINE('',#1062,#251);
#156=LINE('',#1065,#252);
#157=LINE('',#1067,#253);
#158=LINE('',#1069,#254);
#159=LINE('',#1071,#255);
#160=LINE('',#1072,#256);
#161=LINE('',#1075,#257);
#162=LINE('',#1077,#258);
#163=LINE('',#1078,#259);
#164=LINE('',#1079,#260);
#165=LINE('',#1081,#261);
#166=LINE('',#1085,#262);
#167=LINE('',#1086,#263);
#168=LINE('',#1088,#264);
#169=LINE('',#1090,#265);
#170=LINE('',#1091,#266);
#171=LINE('',#1093,#267);
#172=LINE('',#1098,#268);
#173=LINE('',#1100,#269);
#174=LINE('',#1102,#270);
#175=LINE('',#1103,#271);
#176=LINE('',#1106,#272);
#177=LINE('',#1108,#273);
#178=LINE('',#1109,#274);
#179=LINE('',#1112,#275);
#180=LINE('',#1113,#276);
#181=LINE('',#1115,#277);
#182=LINE('',#1116,#278);
#183=LINE('',#1119,#279);
#184=LINE('',#1121,#280);
#185=LINE('',#1122,#281);
#186=LINE('',#1125,#282);
#187=LINE('',#1127,#283);
#188=LINE('',#1128,#284);
#189=LINE('',#1130,#285);
#190=LINE('',#1131,#286);
#191=VECTOR('',#768,10.);
#192=VECTOR('',#769,10.);
#193=VECTOR('',#770,10.);
#194=VECTOR('',#771,10.);
#195=VECTOR('',#774,10.);
#196=VECTOR('',#775,10.);
#197=VECTOR('',#778,10.);
#198=VECTOR('',#779,10.);
#199=VECTOR('',#782,10.);
#200=VECTOR('',#785,10.);
#201=VECTOR('',#786,10.);
#202=VECTOR('',#787,10.);
#203=VECTOR('',#788,10.);
#204=VECTOR('',#791,10.);
#205=VECTOR('',#792,10.);
#206=VECTOR('',#795,10.);
#207=VECTOR('',#796,10.);
#208=VECTOR('',#799,10.);
#209=VECTOR('',#802,10.);
#210=VECTOR('',#803,10.);
#211=VECTOR('',#804,10.);
#212=VECTOR('',#805,10.);
#213=VECTOR('',#808,10.);
#214=VECTOR('',#809,10.);
#215=VECTOR('',#810,10.);
#216=VECTOR('',#811,10.);
#217=VECTOR('',#814,10.);
#218=VECTOR('',#815,10.);
#219=VECTOR('',#818,10.);
#220=VECTOR('',#821,10.);
#221=VECTOR('',#822,10.);
#222=VECTOR('',#823,10.);
#223=VECTOR('',#824,10.);
#224=VECTOR('',#827,10.);
#225=VECTOR('',#828,10.);
#226=VECTOR('',#829,10.);
#227=VECTOR('',#832,10.);
#228=VECTOR('',#833,10.);
#229=VECTOR('',#834,10.);
#230=VECTOR('',#835,10.);
#231=VECTOR('',#838,10.);
#232=VECTOR('',#839,10.);
#233=VECTOR('',#840,10.);
#234=VECTOR('',#843,10.);
#235=VECTOR('',#844,10.);
#236=VECTOR('',#845,10.);
#237=VECTOR('',#846,10.);
#238=VECTOR('',#849,10.);
#239=VECTOR('',#850,10.);
#240=VECTOR('',#851,10.);
#241=VECTOR('',#854,10.);
#242=VECTOR('',#855,10.);
#243=VECTOR('',#856,10.);
#244=VECTOR('',#857,10.);
#245=VECTOR('',#860,10.);
#246=VECTOR('',#861,10.);
#247=VECTOR('',#862,10.);
#248=VECTOR('',#865,10.);
#249=VECTOR('',#866,10.);
#250=VECTOR('',#867,10.);
#251=VECTOR('',#868,10.);
#252=VECTOR('',#871,10.);
#253=VECTOR('',#872,10.);
#254=VECTOR('',#873,10.);
#255=VECTOR('',#874,10.);
#256=VECTOR('',#875,10.);
#257=VECTOR('',#878,10.);
#258=VECTOR('',#879,10.);
#259=VECTOR('',#880,10.);
#260=VECTOR('',#881,10.);
#261=VECTOR('',#884,10.);
#262=VECTOR('',#889,10.);
#263=VECTOR('',#890,10.);
#264=VECTOR('',#893,10.);
#265=VECTOR('',#894,10.);
#266=VECTOR('',#895,10.);
#267=VECTOR('',#898,10.);
#268=VECTOR('',#903,10.);
#269=VECTOR('',#904,10.);
#270=VECTOR('',#905,10.);
#271=VECTOR('',#906,10.);
#272=VECTOR('',#909,10.);
#273=VECTOR('',#910,10.);
#274=VECTOR('',#911,10.);
#275=VECTOR('',#914,10.);
#276=VECTOR('',#915,10.);
#277=VECTOR('',#916,10.);
#278=VECTOR('',#917,10.);
#279=VECTOR('',#920,10.);
#280=VECTOR('',#921,10.);
#281=VECTOR('',#922,10.);
#282=VECTOR('',#925,10.);
#283=VECTOR('',#926,10.);
#284=VECTOR('',#927,10.);
#285=VECTOR('',#930,10.);
#286=VECTOR('',#931,10.);
#287=VERTEX_POINT('',#938);
#288=VERTEX_POINT('',#939);
#289=VERTEX_POINT('',#941);
#290=VERTEX_POINT('',#943);
#291=VERTEX_POINT('',#947);
#292=VERTEX_POINT('',#951);
#293=VERTEX_POINT('',#957);
#294=VERTEX_POINT('',#958);
#295=VERTEX_POINT('',#960);
#296=VERTEX_POINT('',#962);
#297=VERTEX_POINT('',#966);
#298=VERTEX_POINT('',#970);
#299=VERTEX_POINT('',#976);
#300=VERTEX_POINT('',#977);
#301=VERTEX_POINT('',#979);
#302=VERTEX_POINT('',#981);
#303=VERTEX_POINT('',#985);
#304=VERTEX_POINT('',#986);
#305=VERTEX_POINT('',#988);
#306=VERTEX_POINT('',#990);
#307=VERTEX_POINT('',#999);
#308=VERTEX_POINT('',#1000);
#309=VERTEX_POINT('',#1002);
#310=VERTEX_POINT('',#1004);
#311=VERTEX_POINT('',#1008);
#312=VERTEX_POINT('',#1010);
#313=VERTEX_POINT('',#1014);
#314=VERTEX_POINT('',#1015);
#315=VERTEX_POINT('',#1017);
#316=VERTEX_POINT('',#1019);
#317=VERTEX_POINT('',#1023);
#318=VERTEX_POINT('',#1025);
#319=VERTEX_POINT('',#1029);
#320=VERTEX_POINT('',#1030);
#321=VERTEX_POINT('',#1032);
#322=VERTEX_POINT('',#1034);
#323=VERTEX_POINT('',#1038);
#324=VERTEX_POINT('',#1040);
#325=VERTEX_POINT('',#1044);
#326=VERTEX_POINT('',#1045);
#327=VERTEX_POINT('',#1047);
#328=VERTEX_POINT('',#1049);
#329=VERTEX_POINT('',#1053);
#330=VERTEX_POINT('',#1055);
#331=VERTEX_POINT('',#1064);
#332=VERTEX_POINT('',#1066);
#333=VERTEX_POINT('',#1068);
#334=VERTEX_POINT('',#1070);
#335=VERTEX_POINT('',#1074);
#336=VERTEX_POINT('',#1076);
#337=VERTEX_POINT('',#1084);
#338=VERTEX_POINT('',#1089);
#339=VERTEX_POINT('',#1096);
#340=VERTEX_POINT('',#1097);
#341=VERTEX_POINT('',#1099);
#342=VERTEX_POINT('',#1101);
#343=VERTEX_POINT('',#1105);
#344=VERTEX_POINT('',#1107);
#345=VERTEX_POINT('',#1111);
#346=VERTEX_POINT('',#1114);
#347=VERTEX_POINT('',#1118);
#348=VERTEX_POINT('',#1120);
#349=VERTEX_POINT('',#1124);
#350=VERTEX_POINT('',#1126);
#351=EDGE_CURVE('',#287,#288,#95,.T.);
#352=EDGE_CURVE('',#289,#287,#96,.T.);
#353=EDGE_CURVE('',#290,#289,#97,.T.);
#354=EDGE_CURVE('',#290,#288,#98,.T.);
#355=EDGE_CURVE('',#291,#289,#99,.T.);
#356=EDGE_CURVE('',#291,#290,#100,.T.);
#357=EDGE_CURVE('',#292,#288,#101,.T.);
#358=EDGE_CURVE('',#287,#292,#102,.T.);
#359=EDGE_CURVE('',#292,#291,#103,.T.);
#360=EDGE_CURVE('',#293,#294,#104,.T.);
#361=EDGE_CURVE('',#293,#295,#105,.T.);
#362=EDGE_CURVE('',#296,#295,#106,.T.);
#363=EDGE_CURVE('',#294,#296,#107,.T.);
#364=EDGE_CURVE('',#297,#295,#108,.T.);
#365=EDGE_CURVE('',#296,#297,#109,.T.);
#366=EDGE_CURVE('',#298,#294,#110,.T.);
#367=EDGE_CURVE('',#298,#293,#111,.T.);
#368=EDGE_CURVE('',#297,#298,#112,.T.);
#369=EDGE_CURVE('',#299,#300,#113,.T.);
#370=EDGE_CURVE('',#299,#301,#114,.T.);
#371=EDGE_CURVE('',#302,#301,#115,.T.);
#372=EDGE_CURVE('',#300,#302,#116,.T.);
#373=EDGE_CURVE('',#303,#304,#117,.T.);
#374=EDGE_CURVE('',#305,#304,#118,.T.);
#375=EDGE_CURVE('',#306,#305,#119,.T.);
#376=EDGE_CURVE('',#303,#306,#120,.T.);
#377=EDGE_CURVE('',#303,#299,#121,.T.);
#378=EDGE_CURVE('',#301,#306,#122,.T.);
#379=EDGE_CURVE('',#302,#305,#123,.T.);
#380=EDGE_CURVE('',#307,#308,#124,.T.);
#381=EDGE_CURVE('',#309,#307,#125,.T.);
#382=EDGE_CURVE('',#310,#309,#126,.T.);
#383=EDGE_CURVE('',#308,#310,#127,.T.);
#384=EDGE_CURVE('',#308,#311,#128,.T.);
#385=EDGE_CURVE('',#312,#310,#129,.T.);
#386=EDGE_CURVE('',#311,#312,#130,.T.);
#387=EDGE_CURVE('',#313,#314,#131,.T.);
#388=EDGE_CURVE('',#315,#313,#132,.T.);
#389=EDGE_CURVE('',#316,#315,#133,.T.);
#390=EDGE_CURVE('',#314,#316,#134,.T.);
#391=EDGE_CURVE('',#314,#317,#135,.T.);
#392=EDGE_CURVE('',#318,#316,#136,.T.);
#393=EDGE_CURVE('',#317,#318,#137,.T.);
#394=EDGE_CURVE('',#319,#320,#138,.T.);
#395=EDGE_CURVE('',#321,#319,#139,.T.);
#396=EDGE_CURVE('',#322,#321,#140,.T.);
#397=EDGE_CURVE('',#320,#322,#141,.T.);
#398=EDGE_CURVE('',#320,#323,#142,.T.);
#399=EDGE_CURVE('',#324,#322,#143,.T.);
#400=EDGE_CURVE('',#323,#324,#144,.T.);
#401=EDGE_CURVE('',#325,#326,#145,.T.);
#402=EDGE_CURVE('',#327,#325,#146,.T.);
#403=EDGE_CURVE('',#328,#327,#147,.T.);
#404=EDGE_CURVE('',#326,#328,#148,.T.);
#405=EDGE_CURVE('',#326,#329,#149,.T.);
#406=EDGE_CURVE('',#330,#328,#150,.T.);
#407=EDGE_CURVE('',#329,#330,#151,.T.);
#408=EDGE_CURVE('',#330,#309,#152,.T.);
#409=EDGE_CURVE('',#324,#327,#153,.T.);
#410=EDGE_CURVE('',#318,#321,#154,.T.);
#411=EDGE_CURVE('',#312,#315,#155,.T.);
#412=EDGE_CURVE('',#319,#331,#156,.T.);
#413=EDGE_CURVE('',#332,#331,#157,.T.);
#414=EDGE_CURVE('',#333,#332,#158,.T.);
#415=EDGE_CURVE('',#333,#334,#159,.T.);
#416=EDGE_CURVE('',#334,#317,#160,.T.);
#417=EDGE_CURVE('',#325,#335,#161,.T.);
#418=EDGE_CURVE('',#336,#335,#162,.T.);
#419=EDGE_CURVE('',#332,#336,#163,.T.);
#420=EDGE_CURVE('',#331,#323,#164,.T.);
#421=EDGE_CURVE('',#335,#329,#165,.T.);
#422=EDGE_CURVE('',#337,#311,#166,.T.);
#423=EDGE_CURVE('',#307,#337,#167,.T.);
#424=EDGE_CURVE('',#313,#334,#168,.T.);
#425=EDGE_CURVE('',#338,#333,#169,.T.);
#426=EDGE_CURVE('',#338,#337,#170,.T.);
#427=EDGE_CURVE('',#336,#338,#171,.T.);
#428=EDGE_CURVE('',#339,#340,#172,.T.);
#429=EDGE_CURVE('',#339,#341,#173,.T.);
#430=EDGE_CURVE('',#342,#341,#174,.T.);
#431=EDGE_CURVE('',#340,#342,#175,.T.);
#432=EDGE_CURVE('',#340,#343,#176,.T.);
#433=EDGE_CURVE('',#344,#342,#177,.T.);
#434=EDGE_CURVE('',#343,#344,#178,.T.);
#435=EDGE_CURVE('',#345,#304,#179,.T.);
#436=EDGE_CURVE('',#345,#343,#180,.T.);
#437=EDGE_CURVE('',#346,#344,#181,.T.);
#438=EDGE_CURVE('',#300,#346,#182,.T.);
#439=EDGE_CURVE('',#347,#345,#183,.T.);
#440=EDGE_CURVE('',#348,#346,#184,.T.);
#441=EDGE_CURVE('',#347,#348,#185,.T.);
#442=EDGE_CURVE('',#349,#347,#186,.T.);
#443=EDGE_CURVE('',#350,#348,#187,.T.);
#444=EDGE_CURVE('',#349,#350,#188,.T.);
#445=EDGE_CURVE('',#349,#339,#189,.T.);
#446=EDGE_CURVE('',#341,#350,#190,.T.);
#447=ORIENTED_EDGE('',*,*,#351,.F.);
#448=ORIENTED_EDGE('',*,*,#352,.F.);
#449=ORIENTED_EDGE('',*,*,#353,.F.);
#450=ORIENTED_EDGE('',*,*,#354,.T.);
#451=ORIENTED_EDGE('',*,*,#353,.T.);
#452=ORIENTED_EDGE('',*,*,#355,.F.);
#453=ORIENTED_EDGE('',*,*,#356,.T.);
#454=ORIENTED_EDGE('',*,*,#351,.T.);
#455=ORIENTED_EDGE('',*,*,#357,.F.);
#456=ORIENTED_EDGE('',*,*,#358,.F.);
#457=ORIENTED_EDGE('',*,*,#359,.F.);
#458=ORIENTED_EDGE('',*,*,#357,.T.);
#459=ORIENTED_EDGE('',*,*,#354,.F.);
#460=ORIENTED_EDGE('',*,*,#356,.F.);
#461=ORIENTED_EDGE('',*,*,#360,.F.);
#462=ORIENTED_EDGE('',*,*,#361,.T.);
#463=ORIENTED_EDGE('',*,*,#362,.F.);
#464=ORIENTED_EDGE('',*,*,#363,.F.);
#465=ORIENTED_EDGE('',*,*,#362,.T.);
#466=ORIENTED_EDGE('',*,*,#364,.F.);
#467=ORIENTED_EDGE('',*,*,#365,.F.);
#468=ORIENTED_EDGE('',*,*,#360,.T.);
#469=ORIENTED_EDGE('',*,*,#366,.F.);
#470=ORIENTED_EDGE('',*,*,#367,.T.);
#471=ORIENTED_EDGE('',*,*,#368,.F.);
#472=ORIENTED_EDGE('',*,*,#364,.T.);
#473=ORIENTED_EDGE('',*,*,#361,.F.);
#474=ORIENTED_EDGE('',*,*,#367,.F.);
#475=ORIENTED_EDGE('',*,*,#369,.F.);
#476=ORIENTED_EDGE('',*,*,#370,.T.);
#477=ORIENTED_EDGE('',*,*,#371,.F.);
#478=ORIENTED_EDGE('',*,*,#372,.F.);
#479=ORIENTED_EDGE('',*,*,#373,.T.);
#480=ORIENTED_EDGE('',*,*,#374,.F.);
#481=ORIENTED_EDGE('',*,*,#375,.F.);
#482=ORIENTED_EDGE('',*,*,#376,.F.);
#483=ORIENTED_EDGE('',*,*,#377,.F.);
#484=ORIENTED_EDGE('',*,*,#376,.T.);
#485=ORIENTED_EDGE('',*,*,#378,.F.);
#486=ORIENTED_EDGE('',*,*,#370,.F.);
#487=ORIENTED_EDGE('',*,*,#378,.T.);
#488=ORIENTED_EDGE('',*,*,#375,.T.);
#489=ORIENTED_EDGE('',*,*,#379,.F.);
#490=ORIENTED_EDGE('',*,*,#371,.T.);
#491=ORIENTED_EDGE('',*,*,#380,.F.);
#492=ORIENTED_EDGE('',*,*,#381,.F.);
#493=ORIENTED_EDGE('',*,*,#382,.F.);
#494=ORIENTED_EDGE('',*,*,#383,.F.);
#495=ORIENTED_EDGE('',*,*,#384,.F.);
#496=ORIENTED_EDGE('',*,*,#383,.T.);
#497=ORIENTED_EDGE('',*,*,#385,.F.);
#498=ORIENTED_EDGE('',*,*,#386,.F.);
#499=ORIENTED_EDGE('',*,*,#387,.F.);
#500=ORIENTED_EDGE('',*,*,#388,.F.);
#501=ORIENTED_EDGE('',*,*,#389,.F.);
#502=ORIENTED_EDGE('',*,*,#390,.F.);
#503=ORIENTED_EDGE('',*,*,#391,.F.);
#504=ORIENTED_EDGE('',*,*,#390,.T.);
#505=ORIENTED_EDGE('',*,*,#392,.F.);
#506=ORIENTED_EDGE('',*,*,#393,.F.);
#507=ORIENTED_EDGE('',*,*,#394,.F.);
#508=ORIENTED_EDGE('',*,*,#395,.F.);
#509=ORIENTED_EDGE('',*,*,#396,.F.);
#510=ORIENTED_EDGE('',*,*,#397,.F.);
#511=ORIENTED_EDGE('',*,*,#398,.F.);
#512=ORIENTED_EDGE('',*,*,#397,.T.);
#513=ORIENTED_EDGE('',*,*,#399,.F.);
#514=ORIENTED_EDGE('',*,*,#400,.F.);
#515=ORIENTED_EDGE('',*,*,#401,.F.);
#516=ORIENTED_EDGE('',*,*,#402,.F.);
#517=ORIENTED_EDGE('',*,*,#403,.F.);
#518=ORIENTED_EDGE('',*,*,#404,.F.);
#519=ORIENTED_EDGE('',*,*,#405,.F.);
#520=ORIENTED_EDGE('',*,*,#404,.T.);
#521=ORIENTED_EDGE('',*,*,#406,.F.);
#522=ORIENTED_EDGE('',*,*,#407,.F.);
#523=ORIENTED_EDGE('',*,*,#408,.F.);
#524=ORIENTED_EDGE('',*,*,#406,.T.);
#525=ORIENTED_EDGE('',*,*,#403,.T.);
#526=ORIENTED_EDGE('',*,*,#409,.F.);
#527=ORIENTED_EDGE('',*,*,#399,.T.);
#528=ORIENTED_EDGE('',*,*,#396,.T.);
#529=ORIENTED_EDGE('',*,*,#410,.F.);
#530=ORIENTED_EDGE('',*,*,#392,.T.);
#531=ORIENTED_EDGE('',*,*,#389,.T.);
#532=ORIENTED_EDGE('',*,*,#411,.F.);
#533=ORIENTED_EDGE('',*,*,#385,.T.);
#534=ORIENTED_EDGE('',*,*,#382,.T.);
#535=ORIENTED_EDGE('',*,*,#393,.T.);
#536=ORIENTED_EDGE('',*,*,#410,.T.);
#537=ORIENTED_EDGE('',*,*,#395,.T.);
#538=ORIENTED_EDGE('',*,*,#412,.T.);
#539=ORIENTED_EDGE('',*,*,#413,.F.);
#540=ORIENTED_EDGE('',*,*,#414,.F.);
#541=ORIENTED_EDGE('',*,*,#415,.T.);
#542=ORIENTED_EDGE('',*,*,#416,.T.);
#543=ORIENTED_EDGE('',*,*,#400,.T.);
#544=ORIENTED_EDGE('',*,*,#409,.T.);
#545=ORIENTED_EDGE('',*,*,#402,.T.);
#546=ORIENTED_EDGE('',*,*,#417,.T.);
#547=ORIENTED_EDGE('',*,*,#418,.F.);
#548=ORIENTED_EDGE('',*,*,#419,.F.);
#549=ORIENTED_EDGE('',*,*,#413,.T.);
#550=ORIENTED_EDGE('',*,*,#420,.T.);
#551=ORIENTED_EDGE('',*,*,#401,.T.);
#552=ORIENTED_EDGE('',*,*,#405,.T.);
#553=ORIENTED_EDGE('',*,*,#421,.F.);
#554=ORIENTED_EDGE('',*,*,#417,.F.);
#555=ORIENTED_EDGE('',*,*,#394,.T.);
#556=ORIENTED_EDGE('',*,*,#398,.T.);
#557=ORIENTED_EDGE('',*,*,#420,.F.);
#558=ORIENTED_EDGE('',*,*,#412,.F.);
#559=ORIENTED_EDGE('',*,*,#384,.T.);
#560=ORIENTED_EDGE('',*,*,#422,.F.);
#561=ORIENTED_EDGE('',*,*,#423,.F.);
#562=ORIENTED_EDGE('',*,*,#380,.T.);
#563=ORIENTED_EDGE('',*,*,#388,.T.);
#564=ORIENTED_EDGE('',*,*,#424,.T.);
#565=ORIENTED_EDGE('',*,*,#415,.F.);
#566=ORIENTED_EDGE('',*,*,#425,.F.);
#567=ORIENTED_EDGE('',*,*,#426,.T.);
#568=ORIENTED_EDGE('',*,*,#422,.T.);
#569=ORIENTED_EDGE('',*,*,#386,.T.);
#570=ORIENTED_EDGE('',*,*,#411,.T.);
#571=ORIENTED_EDGE('',*,*,#381,.T.);
#572=ORIENTED_EDGE('',*,*,#423,.T.);
#573=ORIENTED_EDGE('',*,*,#426,.F.);
#574=ORIENTED_EDGE('',*,*,#427,.F.);
#575=ORIENTED_EDGE('',*,*,#418,.T.);
#576=ORIENTED_EDGE('',*,*,#421,.T.);
#577=ORIENTED_EDGE('',*,*,#407,.T.);
#578=ORIENTED_EDGE('',*,*,#408,.T.);
#579=ORIENTED_EDGE('',*,*,#391,.T.);
#580=ORIENTED_EDGE('',*,*,#416,.F.);
#581=ORIENTED_EDGE('',*,*,#424,.F.);
#582=ORIENTED_EDGE('',*,*,#387,.T.);
#583=ORIENTED_EDGE('',*,*,#428,.F.);
#584=ORIENTED_EDGE('',*,*,#429,.T.);
#585=ORIENTED_EDGE('',*,*,#430,.F.);
#586=ORIENTED_EDGE('',*,*,#431,.F.);
#587=ORIENTED_EDGE('',*,*,#432,.F.);
#588=ORIENTED_EDGE('',*,*,#431,.T.);
#589=ORIENTED_EDGE('',*,*,#433,.F.);
#590=ORIENTED_EDGE('',*,*,#434,.F.);
#591=ORIENTED_EDGE('',*,*,#374,.T.);
#592=ORIENTED_EDGE('',*,*,#435,.F.);
#593=ORIENTED_EDGE('',*,*,#436,.T.);
#594=ORIENTED_EDGE('',*,*,#434,.T.);
#595=ORIENTED_EDGE('',*,*,#437,.F.);
#596=ORIENTED_EDGE('',*,*,#438,.F.);
#597=ORIENTED_EDGE('',*,*,#372,.T.);
#598=ORIENTED_EDGE('',*,*,#379,.T.);
#599=ORIENTED_EDGE('',*,*,#439,.T.);
#600=ORIENTED_EDGE('',*,*,#435,.T.);
#601=ORIENTED_EDGE('',*,*,#373,.F.);
#602=ORIENTED_EDGE('',*,*,#377,.T.);
#603=ORIENTED_EDGE('',*,*,#369,.T.);
#604=ORIENTED_EDGE('',*,*,#438,.T.);
#605=ORIENTED_EDGE('',*,*,#440,.F.);
#606=ORIENTED_EDGE('',*,*,#441,.F.);
#607=ORIENTED_EDGE('',*,*,#425,.T.);
#608=ORIENTED_EDGE('',*,*,#414,.T.);
#609=ORIENTED_EDGE('',*,*,#419,.T.);
#610=ORIENTED_EDGE('',*,*,#427,.T.);
#611=ORIENTED_EDGE('',*,*,#442,.T.);
#612=ORIENTED_EDGE('',*,*,#441,.T.);
#613=ORIENTED_EDGE('',*,*,#443,.F.);
#614=ORIENTED_EDGE('',*,*,#444,.F.);
#615=ORIENTED_EDGE('',*,*,#445,.F.);
#616=ORIENTED_EDGE('',*,*,#444,.T.);
#617=ORIENTED_EDGE('',*,*,#446,.F.);
#618=ORIENTED_EDGE('',*,*,#429,.F.);
#619=ORIENTED_EDGE('',*,*,#446,.T.);
#620=ORIENTED_EDGE('',*,*,#443,.T.);
#621=ORIENTED_EDGE('',*,*,#440,.T.);
#622=ORIENTED_EDGE('',*,*,#437,.T.);
#623=ORIENTED_EDGE('',*,*,#433,.T.);
#624=ORIENTED_EDGE('',*,*,#430,.T.);
#625=ORIENTED_EDGE('',*,*,#366,.T.);
#626=ORIENTED_EDGE('',*,*,#363,.T.);
#627=ORIENTED_EDGE('',*,*,#365,.T.);
#628=ORIENTED_EDGE('',*,*,#368,.T.);
#629=ORIENTED_EDGE('',*,*,#445,.T.);
#630=ORIENTED_EDGE('',*,*,#428,.T.);
#631=ORIENTED_EDGE('',*,*,#432,.T.);
#632=ORIENTED_EDGE('',*,*,#436,.F.);
#633=ORIENTED_EDGE('',*,*,#439,.F.);
#634=ORIENTED_EDGE('',*,*,#442,.F.);
#635=ORIENTED_EDGE('',*,*,#352,.T.);
#636=ORIENTED_EDGE('',*,*,#358,.T.);
#637=ORIENTED_EDGE('',*,*,#359,.T.);
#638=ORIENTED_EDGE('',*,*,#355,.T.);
#639=PLANE('',#727);
#640=PLANE('',#728);
#641=PLANE('',#729);
#642=PLANE('',#730);
#643=PLANE('',#731);
#644=PLANE('',#732);
#645=PLANE('',#733);
#646=PLANE('',#734);
#647=PLANE('',#735);
#648=PLANE('',#736);
#649=PLANE('',#737);
#650=PLANE('',#738);
#651=PLANE('',#739);
#652=PLANE('',#740);
#653=PLANE('',#741);
#654=PLANE('',#742);
#655=PLANE('',#743);
#656=PLANE('',#744);
#657=PLANE('',#745);
#658=PLANE('',#746);
#659=PLANE('',#747);
#660=PLANE('',#748);
#661=PLANE('',#749);
#662=PLANE('',#750);
#663=PLANE('',#751);
#664=PLANE('',#752);
#665=PLANE('',#753);
#666=PLANE('',#754);
#667=PLANE('',#755);
#668=PLANE('',#756);
#669=PLANE('',#757);
#670=PLANE('',#758);
#671=PLANE('',#759);
#672=PLANE('',#760);
#673=PLANE('',#761);
#674=PLANE('',#762);
#675=PLANE('',#763);
#676=ADVANCED_FACE('',(#18),#639,.F.);
#677=ADVANCED_FACE('',(#19),#640,.T.);
#678=ADVANCED_FACE('',(#20),#641,.T.);
#679=ADVANCED_FACE('',(#21),#642,.T.);
#680=ADVANCED_FACE('',(#22),#643,.F.);
#681=ADVANCED_FACE('',(#23),#644,.T.);
#682=ADVANCED_FACE('',(#24),#645,.T.);
#683=ADVANCED_FACE('',(#25),#646,.T.);
#684=ADVANCED_FACE('',(#26),#647,.T.);
#685=ADVANCED_FACE('',(#27),#648,.T.);
#686=ADVANCED_FACE('',(#28),#649,.T.);
#687=ADVANCED_FACE('',(#29),#650,.T.);
#688=ADVANCED_FACE('',(#30),#651,.T.);
#689=ADVANCED_FACE('',(#31),#652,.T.);
#690=ADVANCED_FACE('',(#32),#653,.T.);
#691=ADVANCED_FACE('',(#33),#654,.T.);
#692=ADVANCED_FACE('',(#34),#655,.T.);
#693=ADVANCED_FACE('',(#35),#656,.T.);
#694=ADVANCED_FACE('',(#36),#657,.T.);
#695=ADVANCED_FACE('',(#37),#658,.T.);
#696=ADVANCED_FACE('',(#38),#659,.T.);
#697=ADVANCED_FACE('',(#39),#660,.F.);
#698=ADVANCED_FACE('',(#40),#661,.F.);
#699=ADVANCED_FACE('',(#41),#662,.F.);
#700=ADVANCED_FACE('',(#42),#663,.F.);
#701=ADVANCED_FACE('',(#43),#664,.F.);
#702=ADVANCED_FACE('',(#44),#665,.F.);
#703=ADVANCED_FACE('',(#45),#666,.F.);
#704=ADVANCED_FACE('',(#46),#667,.F.);
#705=ADVANCED_FACE('',(#47),#668,.T.);
#706=ADVANCED_FACE('',(#48),#669,.T.);
#707=ADVANCED_FACE('',(#49),#670,.T.);
#708=ADVANCED_FACE('',(#50,#15),#671,.T.);
#709=ADVANCED_FACE('',(#51),#672,.T.);
#710=ADVANCED_FACE('',(#52),#673,.T.);
#711=ADVANCED_FACE('',(#53,#16),#674,.T.);
#712=ADVANCED_FACE('',(#54,#17),#675,.F.);
#713=CLOSED_SHELL('',(#676,#677,#678,#679,#680,#681,#682,#683,#684,#685,
#686,#687,#688,#689,#690,#691,#692,#693,#694,#695,#696,#697,#698,#699,#700,
#701,#702,#703,#704,#705,#706,#707,#708,#709,#710,#711,#712));
#714=DERIVED_UNIT_ELEMENT(#716,1.);
#715=DERIVED_UNIT_ELEMENT(#1139,-3.);
#716=(
MASS_UNIT()
NAMED_UNIT(*)
SI_UNIT(.KILO.,.GRAM.)
);
#717=DERIVED_UNIT((#714,#715));
#718=MEASURE_REPRESENTATION_ITEM('density measure',
POSITIVE_RATIO_MEASURE(7850.),#717);
#719=PROPERTY_DEFINITION_REPRESENTATION(#724,#721);
#720=PROPERTY_DEFINITION_REPRESENTATION(#725,#722);
#721=REPRESENTATION('material name',(#723),#1136);
#722=REPRESENTATION('density',(#718),#1136);
#723=DESCRIPTIVE_REPRESENTATION_ITEM('Steel','Steel');
#724=PROPERTY_DEFINITION('material property','material name',#1146);
#725=PROPERTY_DEFINITION('material property','density of part',#1146);
#726=AXIS2_PLACEMENT_3D('',#936,#764,#765);
#727=AXIS2_PLACEMENT_3D('',#937,#766,#767);
#728=AXIS2_PLACEMENT_3D('',#946,#772,#773);
#729=AXIS2_PLACEMENT_3D('',#950,#776,#777);
#730=AXIS2_PLACEMENT_3D('',#954,#780,#781);
#731=AXIS2_PLACEMENT_3D('',#956,#783,#784);
#732=AXIS2_PLACEMENT_3D('',#965,#789,#790);
#733=AXIS2_PLACEMENT_3D('',#969,#793,#794);
#734=AXIS2_PLACEMENT_3D('',#973,#797,#798);
#735=AXIS2_PLACEMENT_3D('',#975,#800,#801);
#736=AXIS2_PLACEMENT_3D('',#984,#806,#807);
#737=AXIS2_PLACEMENT_3D('',#993,#812,#813);
#738=AXIS2_PLACEMENT_3D('',#996,#816,#817);
#739=AXIS2_PLACEMENT_3D('',#998,#819,#820);
#740=AXIS2_PLACEMENT_3D('',#1007,#825,#826);
#741=AXIS2_PLACEMENT_3D('',#1013,#830,#831);
#742=AXIS2_PLACEMENT_3D('',#1022,#836,#837);
#743=AXIS2_PLACEMENT_3D('',#1028,#841,#842);
#744=AXIS2_PLACEMENT_3D('',#1037,#847,#848);
#745=AXIS2_PLACEMENT_3D('',#1043,#852,#853);
#746=AXIS2_PLACEMENT_3D('',#1052,#858,#859);
#747=AXIS2_PLACEMENT_3D('',#1058,#863,#864);
#748=AXIS2_PLACEMENT_3D('',#1063,#869,#870);
#749=AXIS2_PLACEMENT_3D('',#1073,#876,#877);
#750=AXIS2_PLACEMENT_3D('',#1080,#882,#883);
#751=AXIS2_PLACEMENT_3D('',#1082,#885,#886);
#752=AXIS2_PLACEMENT_3D('',#1083,#887,#888);
#753=AXIS2_PLACEMENT_3D('',#1087,#891,#892);
#754=AXIS2_PLACEMENT_3D('',#1092,#896,#897);
#755=AXIS2_PLACEMENT_3D('',#1094,#899,#900);
#756=AXIS2_PLACEMENT_3D('',#1095,#901,#902);
#757=AXIS2_PLACEMENT_3D('',#1104,#907,#908);
#758=AXIS2_PLACEMENT_3D('',#1110,#912,#913);
#759=AXIS2_PLACEMENT_3D('',#1117,#918,#919);
#760=AXIS2_PLACEMENT_3D('',#1123,#923,#924);
#761=AXIS2_PLACEMENT_3D('',#1129,#928,#929);
#762=AXIS2_PLACEMENT_3D('',#1132,#932,#933);
#763=AXIS2_PLACEMENT_3D('',#1133,#934,#935);
#764=DIRECTION('axis',(0.,0.,1.));
#765=DIRECTION('refdir',(1.,0.,0.));
#766=DIRECTION('center_axis',(0.948683298050514,0.,0.316227766016838));
#767=DIRECTION('ref_axis',(-0.316227766016838,0.,0.948683298050514));
#768=DIRECTION('',(-0.316227766016838,0.,0.948683298050514));
#769=DIRECTION('',(0.,1.,0.));
#770=DIRECTION('',(0.316227766016838,0.,-0.948683298050514));
#771=DIRECTION('',(0.,1.,0.));
#772=DIRECTION('center_axis',(0.,-1.,0.));
#773=DIRECTION('ref_axis',(0.,0.,1.));
#774=DIRECTION('',(0.,0.,-1.));
#775=DIRECTION('',(-1.,0.,0.));
#776=DIRECTION('center_axis',(0.,1.,0.));
#777=DIRECTION('ref_axis',(0.,0.,-1.));
#778=DIRECTION('',(-1.,0.,0.));
#779=DIRECTION('',(0.,0.,1.));
#780=DIRECTION('center_axis',(0.,0.,1.));
#781=DIRECTION('ref_axis',(0.,1.,0.));
#782=DIRECTION('',(0.,-1.,0.));
#783=DIRECTION('center_axis',(-0.894427190999916,0.,0.447213595499958));
#784=DIRECTION('ref_axis',(-0.447213595499958,0.,-0.894427190999916));
#785=DIRECTION('',(-0.447213595499958,0.,-0.894427190999916));
#786=DIRECTION('',(0.,-1.,3.00060276925718E-16));
#787=DIRECTION('',(0.447213595499958,3.31004553766303E-16,0.894427190999916));
#788=DIRECTION('',(0.,-1.,4.12582880772862E-16));
#789=DIRECTION('center_axis',(0.,-1.,3.70074341541719E-16));
#790=DIRECTION('ref_axis',(0.,-3.70074341541719E-16,-1.));
#791=DIRECTION('',(1.,0.,0.));
#792=DIRECTION('',(0.,3.70074341541719E-16,1.));
#793=DIRECTION('center_axis',(0.,1.,0.));
#794=DIRECTION('ref_axis',(0.,0.,1.));
#795=DIRECTION('',(0.,0.,-1.));
#796=DIRECTION('',(1.,0.,0.));
#797=DIRECTION('center_axis',(0.,3.00060276925718E-16,1.));
#798=DIRECTION('ref_axis',(0.,-1.,3.00060276925718E-16));
#799=DIRECTION('',(0.,1.,-3.00060276925718E-16));
#800=DIRECTION('center_axis',(1.,0.,0.));
#801=DIRECTION('ref_axis',(0.,1.,-3.33600668457078E-16));
#802=DIRECTION('',(0.,-1.,3.33600668457078E-16));
#803=DIRECTION('',(0.,4.22942104619107E-16,1.));
#804=DIRECTION('',(0.,1.,-3.33600668457078E-16));
#805=DIRECTION('',(0.,2.01858731750028E-16,1.));
#806=DIRECTION('center_axis',(-1.,0.,0.));
#807=DIRECTION('ref_axis',(0.,-1.,3.33600668457078E-16));
#808=DIRECTION('',(0.,-1.,3.33600668457078E-16));
#809=DIRECTION('',(0.,-2.01858731750028E-16,-1.));
#810=DIRECTION('',(0.,-1.,3.33600668457078E-16));
#811=DIRECTION('',(0.,4.22942104619107E-16,1.));
#812=DIRECTION('center_axis',(0.,1.,-4.22942104619107E-16));
#813=DIRECTION('ref_axis',(-1.,0.,0.));
#814=DIRECTION('',(1.,0.,0.));
#815=DIRECTION('',(-1.,0.,0.));
#816=DIRECTION('center_axis',(0.,4.22942104619107E-16,1.));
#817=DIRECTION('ref_axis',(1.,0.,0.));
#818=DIRECTION('',(-1.,0.,0.));
#819=DIRECTION('center_axis',(-1.,6.93889390390723E-16,-2.37037531616891E-31));
#820=DIRECTION('ref_axis',(6.93889390390723E-16,1.,-3.37893964016352E-16));
#821=DIRECTION('',(-6.93889390390723E-16,-1.,3.37893964016352E-16));
#822=DIRECTION('',(-2.57649490887921E-33,3.37893964016352E-16,1.));
#823=DIRECTION('',(6.93889390390723E-16,1.,-3.37893964016352E-16));
#824=DIRECTION('',(0.,-3.41607084500048E-16,-1.));
#825=DIRECTION('center_axis',(-1.93082265152201E-16,1.,-3.41607084500048E-16));
#826=DIRECTION('ref_axis',(1.,1.93082265152201E-16,-6.52413319535336E-32));
#827=DIRECTION('',(-1.,-1.93082265152201E-16,6.52413319535336E-32));
#828=DIRECTION('',(1.,1.93082265152201E-16,-6.52413319535336E-32));
#829=DIRECTION('',(2.78539990149109E-34,-3.41607084500048E-16,-1.));
#830=DIRECTION('center_axis',(1.93082265152201E-16,-1.,3.41607084500048E-16));
#831=DIRECTION('ref_axis',(-1.,-1.93082265152201E-16,6.52413319535336E-32));
#832=DIRECTION('',(1.,1.93082265152201E-16,-6.52413319535336E-32));
#833=DIRECTION('',(-2.78539990149109E-34,3.41607084500048E-16,1.));
#834=DIRECTION('',(-1.,-1.93082265152201E-16,6.52413319535336E-32));
#835=DIRECTION('',(0.,-3.41607084500048E-16,-1.));
#836=DIRECTION('center_axis',(-1.,0.,0.));
#837=DIRECTION('ref_axis',(0.,1.,-3.37893964016352E-16));
#838=DIRECTION('',(0.,-1.,3.37893964016352E-16));
#839=DIRECTION('',(0.,1.,-3.37893964016352E-16));
#840=DIRECTION('',(0.,-3.37893964016352E-16,-1.));
#841=DIRECTION('center_axis',(1.,6.93889390390723E-16,-2.37037531616891E-31));
#842=DIRECTION('ref_axis',(6.93889390390723E-16,-1.,3.37893964016352E-16));
#843=DIRECTION('',(-6.93889390390723E-16,1.,-3.37893964016352E-16));
#844=DIRECTION('',(2.57649490887921E-33,3.37893964016352E-16,1.));
#845=DIRECTION('',(6.93889390390723E-16,-1.,3.37893964016352E-16));
#846=DIRECTION('',(0.,-3.41607084500048E-16,-1.));
#847=DIRECTION('center_axis',(1.93082265152201E-16,-1.,3.41607084500048E-16));
#848=DIRECTION('ref_axis',(-1.,-1.93082265152201E-16,6.52413319535336E-32));
#849=DIRECTION('',(1.,1.93082265152201E-16,-6.52413319535336E-32));
#850=DIRECTION('',(-1.,-1.93082265152201E-16,6.52413319535336E-32));
#851=DIRECTION('',(0.,-3.41607084500048E-16,-1.));
#852=DIRECTION('center_axis',(1.93082265152201E-16,1.,-3.41607084500048E-16));
#853=DIRECTION('ref_axis',(1.,-1.93082265152201E-16,6.52413319535336E-32));
#854=DIRECTION('',(-1.,1.93082265152201E-16,-6.52413319535336E-32));
#855=DIRECTION('',(0.,3.41607084500048E-16,1.));
#856=DIRECTION('',(1.,-1.93082265152201E-16,6.52413319535336E-32));
#857=DIRECTION('',(0.,-3.41607084500048E-16,-1.));
#858=DIRECTION('center_axis',(1.,-6.93889390390723E-16,2.37037531616891E-31));
#859=DIRECTION('ref_axis',(-6.93889390390723E-16,-1.,3.37893964016352E-16));
#860=DIRECTION('',(6.93889390390723E-16,1.,-3.37893964016352E-16));
#861=DIRECTION('',(-6.93889390390723E-16,-1.,3.37893964016352E-16));
#862=DIRECTION('',(2.57649490887921E-33,-3.37893964016352E-16,-1.));
#863=DIRECTION('center_axis',(0.,-3.41607084500048E-16,-1.));
#864=DIRECTION('ref_axis',(-1.,0.,0.));
#865=DIRECTION('',(-1.,0.,0.));
#866=DIRECTION('',(0.,1.,-3.41607084500048E-16));
#867=DIRECTION('',(1.,2.22044604925031E-17,-7.5852010117405E-33));
#868=DIRECTION('',(7.50150692314295E-17,-1.,3.41607084500048E-16));
#869=DIRECTION('center_axis',(2.22044604925031E-17,-1.,3.37893964016352E-16));
#870=DIRECTION('ref_axis',(1.,2.22044604925031E-17,-7.40742286302783E-33));
#871=DIRECTION('',(1.,2.22044604925031E-17,-7.40742286302783E-33));
#872=DIRECTION('',(0.,3.37893964016352E-16,1.));
#873=DIRECTION('',(1.,2.22044604925031E-17,-7.40742286302783E-33));
#874=DIRECTION('',(0.,3.37893964016352E-16,1.));
#875=DIRECTION('',(1.,2.22044604925031E-17,-7.40742286302783E-33));
#876=DIRECTION('center_axis',(1.,0.,0.));
#877=DIRECTION('ref_axis',(0.,1.,-3.33600668457078E-16));
#878=DIRECTION('',(0.,1.,-3.33600668457078E-16));
#879=DIRECTION('',(0.,3.37893964016352E-16,1.));
#880=DIRECTION('',(0.,1.,-3.33600668457078E-16));
#881=DIRECTION('',(0.,1.,-3.33600668457078E-16));
#882=DIRECTION('center_axis',(0.,3.37893964016352E-16,1.));
#883=DIRECTION('ref_axis',(1.,0.,0.));
#884=DIRECTION('',(-1.,0.,0.));
#885=DIRECTION('center_axis',(0.,3.37893964016352E-16,1.));
#886=DIRECTION('ref_axis',(1.,0.,0.));
#887=DIRECTION('center_axis',(0.,3.37893964016352E-16,1.));
#888=DIRECTION('ref_axis',(1.,0.,0.));
#889=DIRECTION('',(7.50150692314295E-17,-1.,3.33600668457078E-16));
#890=DIRECTION('',(-1.,0.,0.));
#891=DIRECTION('center_axis',(-1.,-7.50150692314295E-17,2.53471391035688E-32));
#892=DIRECTION('ref_axis',(7.50150692314295E-17,-1.,3.33600668457078E-16));
#893=DIRECTION('',(7.50150692314295E-17,-1.,3.33600668457078E-16));
#894=DIRECTION('',(7.50150692314295E-17,-1.,3.33600668457078E-16));
#895=DIRECTION('',(0.,3.37893964016352E-16,1.));
#896=DIRECTION('center_axis',(0.,1.,-3.37893964016352E-16));
#897=DIRECTION('ref_axis',(-1.,0.,0.));
#898=DIRECTION('',(-1.,0.,0.));
#899=DIRECTION('center_axis',(0.,3.37893964016352E-16,1.));
#900=DIRECTION('ref_axis',(1.,0.,0.));
#901=DIRECTION('center_axis',(0.,4.93432455388958E-16,1.));
#902=DIRECTION('ref_axis',(0.,-1.,4.93432455388958E-16));
#903=DIRECTION('',(0.,1.,-4.93432455388958E-16));
#904=DIRECTION('',(1.,0.,0.));
#905=DIRECTION('',(0.,-1.,4.93432455388958E-16));
#906=DIRECTION('',(1.,0.,0.));
#907=DIRECTION('center_axis',(0.,0.861269257590315,0.508148861978286));
#908=DIRECTION('ref_axis',(0.,-0.508148861978286,0.861269257590315));
#909=DIRECTION('',(0.,0.508148861978286,-0.861269257590315));
#910=DIRECTION('',(0.,-0.508148861978286,0.861269257590315));
#911=DIRECTION('',(1.,0.,0.));
#912=DIRECTION('center_axis',(0.,1.,-2.01858731750028E-16));
#913=DIRECTION('ref_axis',(0.,2.01858731750028E-16,1.));
#914=DIRECTION('',(1.,0.,0.));
#915=DIRECTION('',(0.,2.01858731750028E-16,1.));
#916=DIRECTION('',(0.,2.01858731750028E-16,1.));
#917=DIRECTION('',(1.,0.,0.));
#918=DIRECTION('center_axis',(0.,-3.33600668457078E-16,-1.));
#919=DIRECTION('ref_axis',(0.,1.,-3.33600668457078E-16));
#920=DIRECTION('',(0.,1.,-3.33600668457078E-16));
#921=DIRECTION('',(0.,1.,-3.33600668457078E-16));
#922=DIRECTION('',(1.,0.,0.));
#923=DIRECTION('center_axis',(0.,-1.,0.));
#924=DIRECTION('ref_axis',(0.,0.,-1.));
#925=DIRECTION('',(0.,0.,-1.));
#926=DIRECTION('',(0.,0.,-1.));
#927=DIRECTION('',(1.,0.,0.));
#928=DIRECTION('center_axis',(0.,-0.861269257590315,0.508148861978286));
#929=DIRECTION('ref_axis',(0.,-0.508148861978286,-0.861269257590315));
#930=DIRECTION('',(0.,0.508148861978286,0.861269257590315));
#931=DIRECTION('',(0.,-0.508148861978286,-0.861269257590315));
#932=DIRECTION('center_axis',(1.,0.,0.));
#933=DIRECTION('ref_axis',(0.,0.,-1.));
#934=DIRECTION('center_axis',(1.,0.,0.));
#935=DIRECTION('ref_axis',(0.,0.,-1.));
#936=CARTESIAN_POINT('',(0.,0.,0.));
#937=CARTESIAN_POINT('Origin',(0.,8.9,0.999999999999999));
#938=CARTESIAN_POINT('',(0.,8.9,0.999999999999999));
#939=CARTESIAN_POINT('',(-1.,8.9,4.));
#940=CARTESIAN_POINT('',(-0.45,8.9,2.35));
#941=CARTESIAN_POINT('',(0.,1.5,0.999999999999999));
#942=CARTESIAN_POINT('',(0.,7.05,1.));
#943=CARTESIAN_POINT('',(-1.,1.5,4.));
#944=CARTESIAN_POINT('',(0.,1.5,0.999999999999999));
#945=CARTESIAN_POINT('',(-1.,8.9,4.));
#946=CARTESIAN_POINT('Origin',(0.,1.5,0.999999999999999));
#947=CARTESIAN_POINT('',(0.,1.5,4.));
#948=CARTESIAN_POINT('',(0.,1.5,4.5));
#949=CARTESIAN_POINT('',(0.,1.5,4.));
#950=CARTESIAN_POINT('Origin',(0.,8.9,4.));
#951=CARTESIAN_POINT('',(0.,8.9,4.));
#952=CARTESIAN_POINT('',(0.,8.9,4.));
#953=CARTESIAN_POINT('',(0.,8.9,6.));
#954=CARTESIAN_POINT('Origin',(0.,1.5,4.));
#955=CARTESIAN_POINT('',(0.,3.35,4.));
#956=CARTESIAN_POINT('Origin',(17.,8.9,4.00000001490116));
#957=CARTESIAN_POINT('',(17.,8.9,4.00000001490116));
#958=CARTESIAN_POINT('',(15.5,8.9,1.00000001490116));
#959=CARTESIAN_POINT('',(16.25,8.9,2.50000001490116));
#960=CARTESIAN_POINT('',(17.,1.5,4.00000001490116));
#961=CARTESIAN_POINT('',(17.,1.5,4.00000001490116));
#962=CARTESIAN_POINT('',(15.5,1.5,1.00000001490116));
#963=CARTESIAN_POINT('',(16.85,1.5,3.70000001490116));
#964=CARTESIAN_POINT('',(15.5,3.35,1.00000001490116));
#965=CARTESIAN_POINT('Origin',(15.5,1.5,4.00000001490116));
#966=CARTESIAN_POINT('',(15.5,1.5,4.00000001490116));
#967=CARTESIAN_POINT('',(15.5,1.5,4.00000001490116));
#968=CARTESIAN_POINT('',(15.5,1.5,6.00000000745058));
#969=CARTESIAN_POINT('Origin',(15.5,8.9,1.00000001490116));
#970=CARTESIAN_POINT('',(15.5,8.9,4.00000001490116));
#971=CARTESIAN_POINT('',(15.5,8.9,4.50000000745058));
#972=CARTESIAN_POINT('',(15.5,8.9,4.00000001490116));
#973=CARTESIAN_POINT('Origin',(15.5,8.9,4.00000001490116));
#974=CARTESIAN_POINT('',(15.5,7.05,4.00000001490116));
#975=CARTESIAN_POINT('Origin',(8.75,10.4,-3.46944695195361E-15));
#976=CARTESIAN_POINT('',(8.75,12.9,-4.30344862309631E-15));
#977=CARTESIAN_POINT('',(8.75,10.4,-3.46944695195361E-15));
#978=CARTESIAN_POINT('',(8.75,12.9,-4.30344862309631E-15));
#979=CARTESIAN_POINT('',(8.75,12.9,10.5));
#980=CARTESIAN_POINT('',(8.75,12.9,-4.30344862309631E-15));
#981=CARTESIAN_POINT('',(8.75,10.4,10.5));
#982=CARTESIAN_POINT('',(8.75,12.9,10.5));
#983=CARTESIAN_POINT('',(8.75,10.4,-3.46944695195361E-15));
#984=CARTESIAN_POINT('Origin',(6.75,12.9,-4.30344862309631E-15));
#985=CARTESIAN_POINT('',(6.75,12.9,-4.30344862309631E-15));
#986=CARTESIAN_POINT('',(6.75,10.4,-3.46944695195361E-15));
#987=CARTESIAN_POINT('',(6.75,12.9,-4.30344862309631E-15));
#988=CARTESIAN_POINT('',(6.75,10.4,10.5));
#989=CARTESIAN_POINT('',(6.75,10.4,-3.63412437283743E-15));
#990=CARTESIAN_POINT('',(6.75,12.9,10.5));
#991=CARTESIAN_POINT('',(6.75,12.9,10.5));
#992=CARTESIAN_POINT('',(6.75,12.9,-4.30344862309631E-15));
#993=CARTESIAN_POINT('Origin',(8.75,12.9,-4.30344862309631E-15));
#994=CARTESIAN_POINT('',(6.75,12.9,-4.30344862309631E-15));
#995=CARTESIAN_POINT('',(6.75,12.9,10.5));
#996=CARTESIAN_POINT('Origin',(7.75,11.65,10.5));
#997=CARTESIAN_POINT('',(3.875,10.4,10.5));
#998=CARTESIAN_POINT('Origin',(7.25,5.7,11.5));
#999=CARTESIAN_POINT('',(7.25,8.9,11.5));
#1000=CARTESIAN_POINT('',(7.25,5.7,11.5));
#1001=CARTESIAN_POINT('',(7.25,5.45,11.5));
#1002=CARTESIAN_POINT('',(7.25,8.9,5.));
#1003=CARTESIAN_POINT('',(7.25,8.9,5.75));
#1004=CARTESIAN_POINT('',(7.25,5.7,5.));
#1005=CARTESIAN_POINT('',(7.25,5.7,5.));
#1006=CARTESIAN_POINT('',(7.25,5.7,11.5));
#1007=CARTESIAN_POINT('Origin',(1.5,5.7,11.5));
#1008=CARTESIAN_POINT('',(1.5,5.7,11.5));
#1009=CARTESIAN_POINT('',(4.625,5.7,11.5));
#1010=CARTESIAN_POINT('',(1.5,5.7,5.));
#1011=CARTESIAN_POINT('',(1.5,5.7,5.));
#1012=CARTESIAN_POINT('',(1.5,5.7,5.75));
#1013=CARTESIAN_POINT('Origin',(7.25,4.7,11.5));
#1014=CARTESIAN_POINT('',(1.5,4.7,11.5));
#1015=CARTESIAN_POINT('',(7.25,4.7,11.5));
#1016=CARTESIAN_POINT('',(7.5,4.7,11.5));
#1017=CARTESIAN_POINT('',(1.5,4.7,5.));
#1018=CARTESIAN_POINT('',(1.5,4.7,5.75));
#1019=CARTESIAN_POINT('',(7.25,4.7,5.));
#1020=CARTESIAN_POINT('',(7.25,4.7,5.));
#1021=CARTESIAN_POINT('',(7.25,4.7,11.5));
#1022=CARTESIAN_POINT('Origin',(7.25,1.5,11.5));
#1023=CARTESIAN_POINT('',(7.25,1.5,11.5));
#1024=CARTESIAN_POINT('',(7.25,3.35,11.5));
#1025=CARTESIAN_POINT('',(7.25,1.5,5.));
#1026=CARTESIAN_POINT('',(7.25,1.5,5.));
#1027=CARTESIAN_POINT('',(7.25,1.5,5.75));
#1028=CARTESIAN_POINT('Origin',(8.25,4.7,11.5));
#1029=CARTESIAN_POINT('',(8.25,1.5,11.5));
#1030=CARTESIAN_POINT('',(8.25,4.7,11.5));
#1031=CARTESIAN_POINT('',(8.25,4.95,11.5));
#1032=CARTESIAN_POINT('',(8.25,1.5,5.));
#1033=CARTESIAN_POINT('',(8.25,1.5,5.75));
#1034=CARTESIAN_POINT('',(8.25,4.7,5.));
#1035=CARTESIAN_POINT('',(8.25,4.7,5.));
#1036=CARTESIAN_POINT('',(8.25,4.7,11.5));
#1037=CARTESIAN_POINT('Origin',(14.,4.7,11.5));
#1038=CARTESIAN_POINT('',(14.,4.7,11.5));
#1039=CARTESIAN_POINT('',(10.875,4.7,11.5));
#1040=CARTESIAN_POINT('',(14.,4.7,5.));
#1041=CARTESIAN_POINT('',(14.,4.7,5.));
#1042=CARTESIAN_POINT('',(14.,4.7,5.75));
#1043=CARTESIAN_POINT('Origin',(8.25,5.7,11.5));
#1044=CARTESIAN_POINT('',(14.,5.7,11.5));
#1045=CARTESIAN_POINT('',(8.25,5.7,11.5));
#1046=CARTESIAN_POINT('',(8.,5.7,11.5));
#1047=CARTESIAN_POINT('',(14.,5.7,5.));
#1048=CARTESIAN_POINT('',(14.,5.7,5.75));
#1049=CARTESIAN_POINT('',(8.25,5.7,5.));
#1050=CARTESIAN_POINT('',(8.25,5.7,5.));
#1051=CARTESIAN_POINT('',(8.25,5.7,11.5));
#1052=CARTESIAN_POINT('Origin',(8.25,8.9,11.5));
#1053=CARTESIAN_POINT('',(8.25,8.9,11.5));
#1054=CARTESIAN_POINT('',(8.25,7.05,11.5));
#1055=CARTESIAN_POINT('',(8.25,8.9,5.));
#1056=CARTESIAN_POINT('',(8.25,8.9,5.));
#1057=CARTESIAN_POINT('',(8.25,8.9,5.75));
#1058=CARTESIAN_POINT('Origin',(7.75,5.2,5.));
#1059=CARTESIAN_POINT('',(10.875,8.9,5.));
#1060=CARTESIAN_POINT('',(14.,3.35,5.));
#1061=CARTESIAN_POINT('',(4.625,1.5,5.));
#1062=CARTESIAN_POINT('',(1.5,7.05,5.));
#1063=CARTESIAN_POINT('Origin',(1.5,1.5,-5.00401002685617E-16));
#1064=CARTESIAN_POINT('',(14.,1.5,11.5));
#1065=CARTESIAN_POINT('',(1.5,1.5,11.5));
#1066=CARTESIAN_POINT('',(14.,1.5,-5.00401002685618E-16));
#1067=CARTESIAN_POINT('',(14.,1.5,-5.00401002685618E-16));
#1068=CARTESIAN_POINT('',(1.5,1.5,-5.00401002685617E-16));
#1069=CARTESIAN_POINT('',(0.75,1.5,-5.00401002685617E-16));
#1070=CARTESIAN_POINT('',(1.5,1.5,11.5));
#1071=CARTESIAN_POINT('',(1.5,1.5,-5.00401002685617E-16));
#1072=CARTESIAN_POINT('',(1.5,1.5,11.5));
#1073=CARTESIAN_POINT('Origin',(14.,1.5,-5.00401002685618E-16));
#1074=CARTESIAN_POINT('',(14.,8.9,11.5));
#1075=CARTESIAN_POINT('',(14.,1.5,11.5));
#1076=CARTESIAN_POINT('',(14.,8.9,-2.969045949268E-15));
#1077=CARTESIAN_POINT('',(14.,8.9,-2.969045949268E-15));
#1078=CARTESIAN_POINT('',(14.,0.75,-2.50200501342809E-16));
#1079=CARTESIAN_POINT('',(14.,1.5,11.5));
#1080=CARTESIAN_POINT('Origin',(7.75,5.2,11.5));
#1081=CARTESIAN_POINT('',(14.,8.9,11.5));
#1082=CARTESIAN_POINT('Origin',(7.75,5.2,11.5));
#1083=CARTESIAN_POINT('Origin',(7.75,5.2,11.5));
#1084=CARTESIAN_POINT('',(1.5,8.9,11.5));
#1085=CARTESIAN_POINT('',(1.5,8.9,11.5));
#1086=CARTESIAN_POINT('',(14.,8.9,11.5));
#1087=CARTESIAN_POINT('Origin',(1.5,8.9,-2.969045949268E-15));
#1088=CARTESIAN_POINT('',(1.5,8.9,11.5));
#1089=CARTESIAN_POINT('',(1.5,8.9,-2.969045949268E-15));
#1090=CARTESIAN_POINT('',(1.5,4.45,-1.484522974634E-15));
#1091=CARTESIAN_POINT('',(1.5,8.9,-2.969045949268E-15));
#1092=CARTESIAN_POINT('Origin',(14.,8.9,-2.969045949268E-15));
#1093=CARTESIAN_POINT('',(7.,8.9,-2.969045949268E-15));
#1094=CARTESIAN_POINT('Origin',(7.75,5.2,11.5));
#1095=CARTESIAN_POINT('Origin',(0.,7.45,16.));
#1096=CARTESIAN_POINT('',(0.,2.95,16.));
#1097=CARTESIAN_POINT('',(0.,7.45,16.));
#1098=CARTESIAN_POINT('',(0.,2.95,16.));
#1099=CARTESIAN_POINT('',(15.5,2.95,16.));
#1100=CARTESIAN_POINT('',(0.,2.95,16.));
#1101=CARTESIAN_POINT('',(15.5,7.45,16.));
#1102=CARTESIAN_POINT('',(15.5,2.95,16.));
#1103=CARTESIAN_POINT('',(0.,7.45,16.));
#1104=CARTESIAN_POINT('Origin',(0.,10.4,11.));
#1105=CARTESIAN_POINT('',(0.,10.4,11.));
#1106=CARTESIAN_POINT('',(0.,7.45,16.));
#1107=CARTESIAN_POINT('',(15.5,10.4,11.));
#1108=CARTESIAN_POINT('',(15.5,7.45,16.));
#1109=CARTESIAN_POINT('',(0.,10.4,11.));
#1110=CARTESIAN_POINT('Origin',(0.,10.4,-3.46944695195361E-15));
#1111=CARTESIAN_POINT('',(0.,10.4,-3.46944695195361E-15));
#1112=CARTESIAN_POINT('',(0.,10.4,-3.46944695195361E-15));
#1113=CARTESIAN_POINT('',(0.,10.4,-3.46944695195361E-15));
#1114=CARTESIAN_POINT('',(15.5,10.4,-4.44089209850063E-15));
#1115=CARTESIAN_POINT('',(15.5,10.4,-3.46944695195361E-15));
#1116=CARTESIAN_POINT('',(0.,10.4,-3.46944695195361E-15));
#1117=CARTESIAN_POINT('Origin',(0.,0.,0.));
#1118=CARTESIAN_POINT('',(0.,0.,0.));
#1119=CARTESIAN_POINT('',(0.,0.,0.));
#1120=CARTESIAN_POINT('',(15.5,0.,0.));
#1121=CARTESIAN_POINT('',(15.5,0.,0.));
#1122=CARTESIAN_POINT('',(0.,0.,0.));
#1123=CARTESIAN_POINT('Origin',(0.,0.,11.));
#1124=CARTESIAN_POINT('',(0.,0.,11.));
#1125=CARTESIAN_POINT('',(0.,0.,11.));
#1126=CARTESIAN_POINT('',(15.5,0.,11.));
#1127=CARTESIAN_POINT('',(15.5,0.,11.));
#1128=CARTESIAN_POINT('',(0.,0.,11.));
#1129=CARTESIAN_POINT('Origin',(0.,2.95,16.));
#1130=CARTESIAN_POINT('',(0.,0.,11.));
#1131=CARTESIAN_POINT('',(15.5,0.,11.));
#1132=CARTESIAN_POINT('Origin',(15.5,5.2,8.));
#1133=CARTESIAN_POINT('Origin',(0.,5.2,8.));
#1134=UNCERTAINTY_MEASURE_WITH_UNIT(LENGTH_MEASURE(0.01),#1138,
'DISTANCE_ACCURACY_VALUE',
'Maximum model space distance between geometric entities at asserted c
onnectivities');
#1135=UNCERTAINTY_MEASURE_WITH_UNIT(LENGTH_MEASURE(0.01),#1138,
'DISTANCE_ACCURACY_VALUE',
'Maximum model space distance between geometric entities at asserted c
onnectivities');
#1136=(
GEOMETRIC_REPRESENTATION_CONTEXT(3)
GLOBAL_UNCERTAINTY_ASSIGNED_CONTEXT((#1134))
GLOBAL_UNIT_ASSIGNED_CONTEXT((#1138,#1140,#1141))
REPRESENTATION_CONTEXT('','3D')
);
#1137=(
GEOMETRIC_REPRESENTATION_CONTEXT(3)
GLOBAL_UNCERTAINTY_ASSIGNED_CONTEXT((#1135))
GLOBAL_UNIT_ASSIGNED_CONTEXT((#1138,#1140,#1141))
REPRESENTATION_CONTEXT('','3D')
);
#1138=(
LENGTH_UNIT()
NAMED_UNIT(*)
SI_UNIT(.MILLI.,.METRE.)
);
#1139=(
LENGTH_UNIT()
NAMED_UNIT(*)
SI_UNIT($,.METRE.)
);
#1140=(
NAMED_UNIT(*)
PLANE_ANGLE_UNIT()
SI_UNIT($,.RADIAN.)
);
#1141=(
NAMED_UNIT(*)
SI_UNIT($,.STERADIAN.)
SOLID_ANGLE_UNIT()
);
#1142=SHAPE_DEFINITION_REPRESENTATION(#1143,#1144);
#1143=PRODUCT_DEFINITION_SHAPE('',$,#1146);
#1144=SHAPE_REPRESENTATION('',(#726),#1136);
#1145=PRODUCT_DEFINITION_CONTEXT('part definition',#1150,'design');
#1146=PRODUCT_DEFINITION('honda_cup_holder_rail',
'honda_cup_holder_rail v1',#1147,#1145);
#1147=PRODUCT_DEFINITION_FORMATION('',$,#1152);
#1148=PRODUCT_RELATED_PRODUCT_CATEGORY('honda_cup_holder_rail v1',
'honda_cup_holder_rail v1',(#1152));
#1149=APPLICATION_PROTOCOL_DEFINITION('international standard',
'automotive_design',2009,#1150);
#1150=APPLICATION_CONTEXT(
'Core Data for Automotive Mechanical Design Process');
#1151=PRODUCT_CONTEXT('part definition',#1150,'mechanical');
#1152=PRODUCT('honda_cup_holder_rail','honda_cup_holder_rail v1',$,(#1151));
#1153=PRESENTATION_STYLE_ASSIGNMENT((#1154));
#1154=SURFACE_STYLE_USAGE(.BOTH.,#1155);
#1155=SURFACE_SIDE_STYLE('',(#1156));
#1156=SURFACE_STYLE_FILL_AREA(#1157);
#1157=FILL_AREA_STYLE('Steel - Satin',(#1158));
#1158=FILL_AREA_STYLE_COLOUR('Steel - Satin',#1159);
#1159=COLOUR_RGB('Steel - Satin',0.627450980392157,0.627450980392157,0.627450980392157);
ENDSEC;
END-ISO-10303-21;
