ISO-10303-21;
HEADER;
/* Generated by software containing ST-Developer
 * from STEP Tools, Inc. (www.steptools.com) 
 */

FILE_DESCRIPTION(
/* description */ (''),
/* implementation_level */ '2;1');

FILE_NAME(
/* name */ 'honda_cup_holder_holder_v2.step',
/* time_stamp */ '2026-03-17T23:34:56-04:00',
/* author */ (''),
/* organization */ (''),
/* preprocessor_version */ 'ST-DEVELOPER v20.1',
/* originating_system */ 'Autodesk Translation Framework v14.24.0.0',
/* authorisation */ '');

FILE_SCHEMA (('AUTOMOTIVE_DESIGN { 1 0 10303 214 3 1 1 }'));
ENDSEC;

DATA;
#10=MECHANICAL_DESIGN_GEOMETRIC_PRESENTATION_REPRESENTATION('',(#66,#67),
#2270);
#11=SHAPE_REPRESENTATION_RELATIONSHIP('SRR','None',#2277,#12);
#12=ADVANCED_BREP_SHAPE_REPRESENTATION('',(#68,#69),#2269);
#13=FACE_BOUND('',#146,.T.);
#14=FACE_BOUND('',#154,.T.);
#15=FACE_BOUND('',#166,.T.);
#16=FACE_BOUND('',#168,.T.);
#17=FACE_BOUND('',#169,.T.);
#18=FACE_BOUND('',#170,.T.);
#19=FACE_BOUND('',#171,.T.);
#20=FACE_BOUND('',#172,.T.);
#21=FACE_BOUND('',#174,.T.);
#22=FACE_BOUND('',#175,.T.);
#23=FACE_BOUND('',#176,.T.);
#24=FACE_BOUND('',#177,.T.);
#25=FACE_BOUND('',#178,.T.);
#26=FACE_BOUND('',#201,.T.);
#27=FACE_BOUND('',#211,.T.);
#28=FACE_BOUND('',#214,.T.);
#29=FACE_BOUND('',#216,.T.);
#30=CIRCLE('',#1431,12.5);
#31=CIRCLE('',#1432,12.5);
#32=CIRCLE('',#1433,12.5);
#33=CIRCLE('',#1434,12.5);
#34=CIRCLE('',#1436,15.);
#35=CIRCLE('',#1437,15.);
#36=CIRCLE('',#1443,15.);
#37=CIRCLE('',#1444,15.);
#38=CIRCLE('',#1446,12.5);
#39=CIRCLE('',#1447,12.5);
#40=CIRCLE('',#1448,12.5);
#41=CIRCLE('',#1449,12.5);
#42=CIRCLE('',#1451,12.5);
#43=CIRCLE('',#1452,12.5);
#44=CIRCLE('',#1454,12.5);
#45=CIRCLE('',#1455,12.5);
#46=CIRCLE('',#1457,12.5);
#47=CIRCLE('',#1458,12.5);
#48=CIRCLE('',#1459,12.5);
#49=CIRCLE('',#1460,12.5);
#50=CIRCLE('',#1461,12.5);
#51=CIRCLE('',#1462,12.5);
#52=CIRCLE('',#1464,12.5);
#53=CIRCLE('',#1465,12.5);
#54=CIRCLE('',#1466,12.5);
#55=CIRCLE('',#1467,12.5);
#56=CIRCLE('',#1468,12.5);
#57=CIRCLE('',#1469,12.5);
#58=CYLINDRICAL_SURFACE('',#1430,12.5);
#59=CYLINDRICAL_SURFACE('',#1435,15.);
#60=CYLINDRICAL_SURFACE('',#1442,15.);
#61=CYLINDRICAL_SURFACE('',#1445,12.5);
#62=CYLINDRICAL_SURFACE('',#1450,12.5);
#63=CYLINDRICAL_SURFACE('',#1453,12.5);
#64=CYLINDRICAL_SURFACE('',#1456,12.5);
#65=CYLINDRICAL_SURFACE('',#1463,12.5);
#66=STYLED_ITEM('',(#2286),#68);
#67=STYLED_ITEM('',(#2286),#69);
#68=MANIFOLD_SOLID_BREP('Body2',#1405);
#69=MANIFOLD_SOLID_BREP('Body1',#1406);
#70=FACE_OUTER_BOUND('',#135,.T.);
#71=FACE_OUTER_BOUND('',#136,.T.);
#72=FACE_OUTER_BOUND('',#137,.T.);
#73=FACE_OUTER_BOUND('',#138,.T.);
#74=FACE_OUTER_BOUND('',#139,.T.);
#75=FACE_OUTER_BOUND('',#140,.T.);
#76=FACE_OUTER_BOUND('',#141,.T.);
#77=FACE_OUTER_BOUND('',#142,.T.);
#78=FACE_OUTER_BOUND('',#143,.T.);
#79=FACE_OUTER_BOUND('',#144,.T.);
#80=FACE_OUTER_BOUND('',#145,.T.);
#81=FACE_OUTER_BOUND('',#147,.T.);
#82=FACE_OUTER_BOUND('',#148,.T.);
#83=FACE_OUTER_BOUND('',#149,.T.);
#84=FACE_OUTER_BOUND('',#150,.T.);
#85=FACE_OUTER_BOUND('',#151,.T.);
#86=FACE_OUTER_BOUND('',#152,.T.);
#87=FACE_OUTER_BOUND('',#153,.T.);
#88=FACE_OUTER_BOUND('',#155,.T.);
#89=FACE_OUTER_BOUND('',#156,.T.);
#90=FACE_OUTER_BOUND('',#157,.T.);
#91=FACE_OUTER_BOUND('',#158,.T.);
#92=FACE_OUTER_BOUND('',#159,.T.);
#93=FACE_OUTER_BOUND('',#160,.T.);
#94=FACE_OUTER_BOUND('',#161,.T.);
#95=FACE_OUTER_BOUND('',#162,.T.);
#96=FACE_OUTER_BOUND('',#163,.T.);
#97=FACE_OUTER_BOUND('',#164,.T.);
#98=FACE_OUTER_BOUND('',#165,.T.);
#99=FACE_OUTER_BOUND('',#167,.T.);
#100=FACE_OUTER_BOUND('',#173,.T.);
#101=FACE_OUTER_BOUND('',#179,.T.);
#102=FACE_OUTER_BOUND('',#180,.T.);
#103=FACE_OUTER_BOUND('',#181,.T.);
#104=FACE_OUTER_BOUND('',#182,.T.);
#105=FACE_OUTER_BOUND('',#183,.T.);
#106=FACE_OUTER_BOUND('',#184,.T.);
#107=FACE_OUTER_BOUND('',#185,.T.);
#108=FACE_OUTER_BOUND('',#186,.T.);
#109=FACE_OUTER_BOUND('',#187,.T.);
#110=FACE_OUTER_BOUND('',#188,.T.);
#111=FACE_OUTER_BOUND('',#189,.T.);
#112=FACE_OUTER_BOUND('',#190,.T.);
#113=FACE_OUTER_BOUND('',#191,.T.);
#114=FACE_OUTER_BOUND('',#192,.T.);
#115=FACE_OUTER_BOUND('',#193,.T.);
#116=FACE_OUTER_BOUND('',#194,.T.);
#117=FACE_OUTER_BOUND('',#195,.T.);
#118=FACE_OUTER_BOUND('',#196,.T.);
#119=FACE_OUTER_BOUND('',#197,.T.);
#120=FACE_OUTER_BOUND('',#198,.T.);
#121=FACE_OUTER_BOUND('',#199,.T.);
#122=FACE_OUTER_BOUND('',#200,.T.);
#123=FACE_OUTER_BOUND('',#202,.T.);
#124=FACE_OUTER_BOUND('',#203,.T.);
#125=FACE_OUTER_BOUND('',#204,.T.);
#126=FACE_OUTER_BOUND('',#205,.T.);
#127=FACE_OUTER_BOUND('',#206,.T.);
#128=FACE_OUTER_BOUND('',#207,.T.);
#129=FACE_OUTER_BOUND('',#208,.T.);
#130=FACE_OUTER_BOUND('',#209,.T.);
#131=FACE_OUTER_BOUND('',#210,.T.);
#132=FACE_OUTER_BOUND('',#212,.T.);
#133=FACE_OUTER_BOUND('',#213,.T.);
#134=FACE_OUTER_BOUND('',#215,.T.);
#135=EDGE_LOOP('',(#887,#888,#889,#890));
#136=EDGE_LOOP('',(#891,#892,#893,#894));
#137=EDGE_LOOP('',(#895,#896,#897,#898));
#138=EDGE_LOOP('',(#899,#900,#901,#902));
#139=EDGE_LOOP('',(#903,#904,#905,#906));
#140=EDGE_LOOP('',(#907,#908,#909,#910));
#141=EDGE_LOOP('',(#911,#912,#913,#914));
#142=EDGE_LOOP('',(#915,#916,#917,#918));
#143=EDGE_LOOP('',(#919,#920,#921,#922));
#144=EDGE_LOOP('',(#923,#924,#925,#926));
#145=EDGE_LOOP('',(#927,#928,#929,#930));
#146=EDGE_LOOP('',(#931,#932,#933,#934));
#147=EDGE_LOOP('',(#935,#936,#937,#938));
#148=EDGE_LOOP('',(#939,#940,#941,#942));
#149=EDGE_LOOP('',(#943,#944,#945,#946));
#150=EDGE_LOOP('',(#947,#948,#949,#950));
#151=EDGE_LOOP('',(#951,#952,#953,#954));
#152=EDGE_LOOP('',(#955,#956,#957,#958));
#153=EDGE_LOOP('',(#959,#960,#961,#962));
#154=EDGE_LOOP('',(#963,#964,#965,#966));
#155=EDGE_LOOP('',(#967,#968,#969,#970));
#156=EDGE_LOOP('',(#971,#972,#973,#974));
#157=EDGE_LOOP('',(#975,#976,#977,#978,#979,#980,#981,#982,#983,#984,#985,
#986));
#158=EDGE_LOOP('',(#987,#988,#989,#990,#991,#992,#993,#994,#995,#996,#997,
#998));
#159=EDGE_LOOP('',(#999,#1000,#1001,#1002,#1003,#1004,#1005,#1006));
#160=EDGE_LOOP('',(#1007,#1008,#1009,#1010,#1011,#1012,#1013,#1014));
#161=EDGE_LOOP('',(#1015,#1016,#1017,#1018));
#162=EDGE_LOOP('',(#1019,#1020,#1021,#1022));
#163=EDGE_LOOP('',(#1023,#1024,#1025,#1026));
#164=EDGE_LOOP('',(#1027,#1028,#1029,#1030));
#165=EDGE_LOOP('',(#1031,#1032,#1033,#1034,#1035,#1036,#1037,#1038,#1039,
#1040,#1041,#1042,#1043,#1044,#1045,#1046,#1047,#1048));
#166=EDGE_LOOP('',(#1049));
#167=EDGE_LOOP('',(#1050,#1051,#1052,#1053,#1054,#1055,#1056,#1057,#1058,
#1059,#1060,#1061,#1062,#1063));
#168=EDGE_LOOP('',(#1064));
#169=EDGE_LOOP('',(#1065));
#170=EDGE_LOOP('',(#1066));
#171=EDGE_LOOP('',(#1067));
#172=EDGE_LOOP('',(#1068));
#173=EDGE_LOOP('',(#1069,#1070,#1071,#1072,#1073,#1074,#1075,#1076,#1077,
#1078,#1079,#1080,#1081,#1082));
#174=EDGE_LOOP('',(#1083));
#175=EDGE_LOOP('',(#1084));
#176=EDGE_LOOP('',(#1085));
#177=EDGE_LOOP('',(#1086));
#178=EDGE_LOOP('',(#1087));
#179=EDGE_LOOP('',(#1088,#1089,#1090,#1091));
#180=EDGE_LOOP('',(#1092,#1093,#1094,#1095));
#181=EDGE_LOOP('',(#1096,#1097,#1098,#1099));
#182=EDGE_LOOP('',(#1100,#1101,#1102,#1103));
#183=EDGE_LOOP('',(#1104,#1105,#1106,#1107));
#184=EDGE_LOOP('',(#1108,#1109,#1110,#1111));
#185=EDGE_LOOP('',(#1112,#1113,#1114,#1115));
#186=EDGE_LOOP('',(#1116,#1117,#1118,#1119));
#187=EDGE_LOOP('',(#1120,#1121,#1122,#1123));
#188=EDGE_LOOP('',(#1124,#1125,#1126,#1127));
#189=EDGE_LOOP('',(#1128,#1129,#1130,#1131));
#190=EDGE_LOOP('',(#1132,#1133,#1134,#1135));
#191=EDGE_LOOP('',(#1136,#1137,#1138,#1139,#1140,#1141,#1142,#1143,#1144,
#1145,#1146,#1147));
#192=EDGE_LOOP('',(#1148,#1149,#1150,#1151));
#193=EDGE_LOOP('',(#1152,#1153,#1154,#1155,#1156,#1157,#1158,#1159));
#194=EDGE_LOOP('',(#1160,#1161,#1162,#1163));
#195=EDGE_LOOP('',(#1164,#1165,#1166,#1167,#1168,#1169));
#196=EDGE_LOOP('',(#1170,#1171,#1172,#1173));
#197=EDGE_LOOP('',(#1174,#1175,#1176,#1177));
#198=EDGE_LOOP('',(#1178,#1179,#1180,#1181));
#199=EDGE_LOOP('',(#1182,#1183,#1184,#1185,#1186,#1187));
#200=EDGE_LOOP('',(#1188,#1189,#1190,#1191,#1192,#1193,#1194,#1195));
#201=EDGE_LOOP('',(#1196,#1197,#1198,#1199,#1200,#1201,#1202,#1203,#1204,
#1205,#1206,#1207));
#202=EDGE_LOOP('',(#1208,#1209,#1210,#1211));
#203=EDGE_LOOP('',(#1212,#1213,#1214,#1215));
#204=EDGE_LOOP('',(#1216,#1217,#1218,#1219));
#205=EDGE_LOOP('',(#1220,#1221,#1222,#1223));
#206=EDGE_LOOP('',(#1224,#1225,#1226,#1227));
#207=EDGE_LOOP('',(#1228,#1229,#1230,#1231));
#208=EDGE_LOOP('',(#1232,#1233,#1234,#1235));
#209=EDGE_LOOP('',(#1236,#1237,#1238,#1239));
#210=EDGE_LOOP('',(#1240,#1241,#1242,#1243,#1244,#1245,#1246,#1247,#1248,
#1249,#1250,#1251,#1252,#1253,#1254,#1255,#1256,#1257));
#211=EDGE_LOOP('',(#1258));
#212=EDGE_LOOP('',(#1259,#1260,#1261,#1262));
#213=EDGE_LOOP('',(#1263,#1264,#1265,#1266));
#214=EDGE_LOOP('',(#1267,#1268,#1269,#1270,#1271,#1272,#1273,#1274));
#215=EDGE_LOOP('',(#1275,#1276,#1277,#1278));
#216=EDGE_LOOP('',(#1279,#1280,#1281,#1282));
#217=LINE('',#1875,#387);
#218=LINE('',#1877,#388);
#219=LINE('',#1879,#389);
#220=LINE('',#1880,#390);
#221=LINE('',#1883,#391);
#222=LINE('',#1885,#392);
#223=LINE('',#1886,#393);
#224=LINE('',#1889,#394);
#225=LINE('',#1891,#395);
#226=LINE('',#1892,#396);
#227=LINE('',#1894,#397);
#228=LINE('',#1895,#398);
#229=LINE('',#1901,#399);
#230=LINE('',#1903,#400);
#231=LINE('',#1905,#401);
#232=LINE('',#1906,#402);
#233=LINE('',#1909,#403);
#234=LINE('',#1911,#404);
#235=LINE('',#1912,#405);
#236=LINE('',#1916,#406);
#237=LINE('',#1918,#407);
#238=LINE('',#1920,#408);
#239=LINE('',#1921,#409);
#240=LINE('',#1924,#410);
#241=LINE('',#1926,#411);
#242=LINE('',#1927,#412);
#243=LINE('',#1932,#413);
#244=LINE('',#1938,#414);
#245=LINE('',#1941,#415);
#246=LINE('',#1947,#416);
#247=LINE('',#1950,#417);
#248=LINE('',#1953,#418);
#249=LINE('',#1955,#419);
#250=LINE('',#1956,#420);
#251=LINE('',#1959,#421);
#252=LINE('',#1961,#422);
#253=LINE('',#1962,#423);
#254=LINE('',#1966,#424);
#255=LINE('',#1968,#425);
#256=LINE('',#1970,#426);
#257=LINE('',#1971,#427);
#258=LINE('',#1975,#428);
#259=LINE('',#1977,#429);
#260=LINE('',#1979,#430);
#261=LINE('',#1980,#431);
#262=LINE('',#1988,#432);
#263=LINE('',#1994,#433);
#264=LINE('',#1997,#434);
#265=LINE('',#2002,#435);
#266=LINE('',#2008,#436);
#267=LINE('',#2014,#437);
#268=LINE('',#2018,#438);
#269=LINE('',#2022,#439);
#270=LINE('',#2027,#440);
#271=LINE('',#2033,#441);
#272=LINE('',#2037,#442);
#273=LINE('',#2041,#443);
#274=LINE('',#2046,#444);
#275=LINE('',#2050,#445);
#276=LINE('',#2052,#446);
#277=LINE('',#2053,#447);
#278=LINE('',#2055,#448);
#279=LINE('',#2057,#449);
#280=LINE('',#2058,#450);
#281=LINE('',#2061,#451);
#282=LINE('',#2063,#452);
#283=LINE('',#2064,#453);
#284=LINE('',#2066,#454);
#285=LINE('',#2068,#455);
#286=LINE('',#2069,#456);
#287=LINE('',#2071,#457);
#288=LINE('',#2072,#458);
#289=LINE('',#2074,#459);
#290=LINE('',#2075,#460);
#291=LINE('',#2077,#461);
#292=LINE('',#2078,#462);
#293=LINE('',#2080,#463);
#294=LINE('',#2081,#464);
#295=LINE('',#2084,#465);
#296=LINE('',#2086,#466);
#297=LINE('',#2087,#467);
#298=LINE('',#2090,#468);
#299=LINE('',#2092,#469);
#300=LINE('',#2094,#470);
#301=LINE('',#2096,#471);
#302=LINE('',#2098,#472);
#303=LINE('',#2100,#473);
#304=LINE('',#2102,#474);
#305=LINE('',#2104,#475);
#306=LINE('',#2105,#476);
#307=LINE('',#2108,#477);
#308=LINE('',#2110,#478);
#309=LINE('',#2112,#479);
#310=LINE('',#2114,#480);
#311=LINE('',#2116,#481);
#312=LINE('',#2118,#482);
#313=LINE('',#2120,#483);
#314=LINE('',#2122,#484);
#315=LINE('',#2123,#485);
#316=LINE('',#2127,#486);
#317=LINE('',#2129,#487);
#318=LINE('',#2131,#488);
#319=LINE('',#2132,#489);
#320=LINE('',#2135,#490);
#321=LINE('',#2137,#491);
#322=LINE('',#2138,#492);
#323=LINE('',#2141,#493);
#324=LINE('',#2143,#494);
#325=LINE('',#2144,#495);
#326=LINE('',#2147,#496);
#327=LINE('',#2149,#497);
#328=LINE('',#2150,#498);
#329=LINE('',#2153,#499);
#330=LINE('',#2155,#500);
#331=LINE('',#2156,#501);
#332=LINE('',#2159,#502);
#333=LINE('',#2161,#503);
#334=LINE('',#2162,#504);
#335=LINE('',#2165,#505);
#336=LINE('',#2167,#506);
#337=LINE('',#2168,#507);
#338=LINE('',#2171,#508);
#339=LINE('',#2173,#509);
#340=LINE('',#2174,#510);
#341=LINE('',#2177,#511);
#342=LINE('',#2179,#512);
#343=LINE('',#2180,#513);
#344=LINE('',#2183,#514);
#345=LINE('',#2185,#515);
#346=LINE('',#2186,#516);
#347=LINE('',#2189,#517);
#348=LINE('',#2191,#518);
#349=LINE('',#2192,#519);
#350=LINE('',#2194,#520);
#351=LINE('',#2195,#521);
#352=LINE('',#2199,#522);
#353=LINE('',#2201,#523);
#354=LINE('',#2202,#524);
#355=LINE('',#2205,#525);
#356=LINE('',#2206,#526);
#357=LINE('',#2207,#527);
#358=LINE('',#2210,#528);
#359=LINE('',#2211,#529);
#360=LINE('',#2214,#530);
#361=LINE('',#2216,#531);
#362=LINE('',#2217,#532);
#363=LINE('',#2220,#533);
#364=LINE('',#2222,#534);
#365=LINE('',#2223,#535);
#366=LINE('',#2226,#536);
#367=LINE('',#2228,#537);
#368=LINE('',#2229,#538);
#369=LINE('',#2232,#539);
#370=LINE('',#2234,#540);
#371=LINE('',#2235,#541);
#372=LINE('',#2237,#542);
#373=LINE('',#2238,#543);
#374=LINE('',#2241,#544);
#375=LINE('',#2242,#545);
#376=LINE('',#2244,#546);
#377=LINE('',#2246,#547);
#378=LINE('',#2248,#548);
#379=LINE('',#2250,#549);
#380=LINE('',#2252,#550);
#381=LINE('',#2256,#551);
#382=LINE('',#2257,#552);
#383=LINE('',#2260,#553);
#384=LINE('',#2261,#554);
#385=LINE('',#2263,#555);
#386=LINE('',#2265,#556);
#387=VECTOR('',#1517,10.);
#388=VECTOR('',#1518,10.);
#389=VECTOR('',#1519,10.);
#390=VECTOR('',#1520,10.);
#391=VECTOR('',#1523,10.);
#392=VECTOR('',#1524,10.);
#393=VECTOR('',#1525,10.);
#394=VECTOR('',#1528,10.);
#395=VECTOR('',#1529,10.);
#396=VECTOR('',#1530,10.);
#397=VECTOR('',#1533,10.);
#398=VECTOR('',#1534,10.);
#399=VECTOR('',#1541,10.);
#400=VECTOR('',#1542,10.);
#401=VECTOR('',#1543,10.);
#402=VECTOR('',#1544,10.);
#403=VECTOR('',#1547,10.);
#404=VECTOR('',#1548,10.);
#405=VECTOR('',#1549,10.);
#406=VECTOR('',#1552,10.);
#407=VECTOR('',#1553,10.);
#408=VECTOR('',#1554,10.);
#409=VECTOR('',#1555,10.);
#410=VECTOR('',#1558,10.);
#411=VECTOR('',#1559,10.);
#412=VECTOR('',#1560,10.);
#413=VECTOR('',#1565,12.5);
#414=VECTOR('',#1570,10.);
#415=VECTOR('',#1573,10.);
#416=VECTOR('',#1578,10.);
#417=VECTOR('',#1581,10.);
#418=VECTOR('',#1584,10.);
#419=VECTOR('',#1585,10.);
#420=VECTOR('',#1586,10.);
#421=VECTOR('',#1589,10.);
#422=VECTOR('',#1590,10.);
#423=VECTOR('',#1591,10.);
#424=VECTOR('',#1594,10.);
#425=VECTOR('',#1595,10.);
#426=VECTOR('',#1596,10.);
#427=VECTOR('',#1597,10.);
#428=VECTOR('',#1600,10.);
#429=VECTOR('',#1601,10.);
#430=VECTOR('',#1602,10.);
#431=VECTOR('',#1603,10.);
#432=VECTOR('',#1614,12.5);
#433=VECTOR('',#1619,10.);
#434=VECTOR('',#1622,10.);
#435=VECTOR('',#1627,12.5);
#436=VECTOR('',#1634,12.5);
#437=VECTOR('',#1641,12.5);
#438=VECTOR('',#1644,10.);
#439=VECTOR('',#1647,12.5);
#440=VECTOR('',#1652,10.);
#441=VECTOR('',#1659,12.5);
#442=VECTOR('',#1662,10.);
#443=VECTOR('',#1665,12.5);
#444=VECTOR('',#1670,10.);
#445=VECTOR('',#1675,10.);
#446=VECTOR('',#1676,10.);
#447=VECTOR('',#1677,10.);
#448=VECTOR('',#1678,10.);
#449=VECTOR('',#1679,10.);
#450=VECTOR('',#1680,10.);
#451=VECTOR('',#1683,10.);
#452=VECTOR('',#1684,10.);
#453=VECTOR('',#1685,10.);
#454=VECTOR('',#1686,10.);
#455=VECTOR('',#1687,10.);
#456=VECTOR('',#1688,10.);
#457=VECTOR('',#1691,10.);
#458=VECTOR('',#1692,10.);
#459=VECTOR('',#1695,10.);
#460=VECTOR('',#1696,10.);
#461=VECTOR('',#1699,10.);
#462=VECTOR('',#1700,10.);
#463=VECTOR('',#1703,10.);
#464=VECTOR('',#1704,10.);
#465=VECTOR('',#1707,10.);
#466=VECTOR('',#1708,10.);
#467=VECTOR('',#1709,10.);
#468=VECTOR('',#1712,10.);
#469=VECTOR('',#1713,10.);
#470=VECTOR('',#1714,10.);
#471=VECTOR('',#1715,10.);
#472=VECTOR('',#1716,10.);
#473=VECTOR('',#1717,10.);
#474=VECTOR('',#1718,10.);
#475=VECTOR('',#1719,10.);
#476=VECTOR('',#1720,10.);
#477=VECTOR('',#1723,10.);
#478=VECTOR('',#1724,10.);
#479=VECTOR('',#1725,10.);
#480=VECTOR('',#1726,10.);
#481=VECTOR('',#1727,10.);
#482=VECTOR('',#1728,10.);
#483=VECTOR('',#1729,10.);
#484=VECTOR('',#1730,10.);
#485=VECTOR('',#1731,10.);
#486=VECTOR('',#1734,10.);
#487=VECTOR('',#1735,10.);
#488=VECTOR('',#1736,10.);
#489=VECTOR('',#1737,10.);
#490=VECTOR('',#1740,10.);
#491=VECTOR('',#1741,10.);
#492=VECTOR('',#1742,10.);
#493=VECTOR('',#1745,10.);
#494=VECTOR('',#1746,10.);
#495=VECTOR('',#1747,10.);
#496=VECTOR('',#1750,10.);
#497=VECTOR('',#1751,10.);
#498=VECTOR('',#1752,10.);
#499=VECTOR('',#1755,10.);
#500=VECTOR('',#1756,10.);
#501=VECTOR('',#1757,10.);
#502=VECTOR('',#1760,10.);
#503=VECTOR('',#1761,10.);
#504=VECTOR('',#1762,10.);
#505=VECTOR('',#1765,10.);
#506=VECTOR('',#1766,10.);
#507=VECTOR('',#1767,10.);
#508=VECTOR('',#1770,10.);
#509=VECTOR('',#1771,10.);
#510=VECTOR('',#1772,10.);
#511=VECTOR('',#1775,10.);
#512=VECTOR('',#1776,10.);
#513=VECTOR('',#1777,10.);
#514=VECTOR('',#1780,10.);
#515=VECTOR('',#1781,10.);
#516=VECTOR('',#1782,10.);
#517=VECTOR('',#1785,10.);
#518=VECTOR('',#1786,10.);
#519=VECTOR('',#1787,10.);
#520=VECTOR('',#1790,10.);
#521=VECTOR('',#1791,10.);
#522=VECTOR('',#1796,10.);
#523=VECTOR('',#1797,10.);
#524=VECTOR('',#1798,10.);
#525=VECTOR('',#1801,10.);
#526=VECTOR('',#1802,10.);
#527=VECTOR('',#1803,10.);
#528=VECTOR('',#1806,10.);
#529=VECTOR('',#1807,10.);
#530=VECTOR('',#1810,10.);
#531=VECTOR('',#1811,10.);
#532=VECTOR('',#1812,10.);
#533=VECTOR('',#1815,10.);
#534=VECTOR('',#1816,10.);
#535=VECTOR('',#1817,10.);
#536=VECTOR('',#1820,10.);
#537=VECTOR('',#1821,10.);
#538=VECTOR('',#1822,10.);
#539=VECTOR('',#1825,10.);
#540=VECTOR('',#1826,10.);
#541=VECTOR('',#1827,10.);
#542=VECTOR('',#1830,10.);
#543=VECTOR('',#1831,10.);
#544=VECTOR('',#1836,10.);
#545=VECTOR('',#1837,10.);
#546=VECTOR('',#1840,10.);
#547=VECTOR('',#1843,10.);
#548=VECTOR('',#1846,10.);
#549=VECTOR('',#1849,10.);
#550=VECTOR('',#1852,10.);
#551=VECTOR('',#1857,10.);
#552=VECTOR('',#1858,10.);
#553=VECTOR('',#1861,10.);
#554=VECTOR('',#1862,10.);
#555=VECTOR('',#1865,10.);
#556=VECTOR('',#1868,10.);
#557=VERTEX_POINT('',#1873);
#558=VERTEX_POINT('',#1874);
#559=VERTEX_POINT('',#1876);
#560=VERTEX_POINT('',#1878);
#561=VERTEX_POINT('',#1882);
#562=VERTEX_POINT('',#1884);
#563=VERTEX_POINT('',#1888);
#564=VERTEX_POINT('',#1890);
#565=VERTEX_POINT('',#1899);
#566=VERTEX_POINT('',#1900);
#567=VERTEX_POINT('',#1902);
#568=VERTEX_POINT('',#1904);
#569=VERTEX_POINT('',#1908);
#570=VERTEX_POINT('',#1910);
#571=VERTEX_POINT('',#1914);
#572=VERTEX_POINT('',#1915);
#573=VERTEX_POINT('',#1917);
#574=VERTEX_POINT('',#1919);
#575=VERTEX_POINT('',#1923);
#576=VERTEX_POINT('',#1925);
#577=VERTEX_POINT('',#1929);
#578=VERTEX_POINT('',#1931);
#579=VERTEX_POINT('',#1934);
#580=VERTEX_POINT('',#1935);
#581=VERTEX_POINT('',#1937);
#582=VERTEX_POINT('',#1939);
#583=VERTEX_POINT('',#1943);
#584=VERTEX_POINT('',#1944);
#585=VERTEX_POINT('',#1946);
#586=VERTEX_POINT('',#1948);
#587=VERTEX_POINT('',#1952);
#588=VERTEX_POINT('',#1954);
#589=VERTEX_POINT('',#1958);
#590=VERTEX_POINT('',#1960);
#591=VERTEX_POINT('',#1964);
#592=VERTEX_POINT('',#1965);
#593=VERTEX_POINT('',#1967);
#594=VERTEX_POINT('',#1969);
#595=VERTEX_POINT('',#1973);
#596=VERTEX_POINT('',#1974);
#597=VERTEX_POINT('',#1976);
#598=VERTEX_POINT('',#1978);
#599=VERTEX_POINT('',#1985);
#600=VERTEX_POINT('',#1987);
#601=VERTEX_POINT('',#1990);
#602=VERTEX_POINT('',#1991);
#603=VERTEX_POINT('',#1993);
#604=VERTEX_POINT('',#1995);
#605=VERTEX_POINT('',#1999);
#606=VERTEX_POINT('',#2001);
#607=VERTEX_POINT('',#2005);
#608=VERTEX_POINT('',#2007);
#609=VERTEX_POINT('',#2011);
#610=VERTEX_POINT('',#2013);
#611=VERTEX_POINT('',#2015);
#612=VERTEX_POINT('',#2017);
#613=VERTEX_POINT('',#2019);
#614=VERTEX_POINT('',#2021);
#615=VERTEX_POINT('',#2024);
#616=VERTEX_POINT('',#2026);
#617=VERTEX_POINT('',#2030);
#618=VERTEX_POINT('',#2032);
#619=VERTEX_POINT('',#2034);
#620=VERTEX_POINT('',#2036);
#621=VERTEX_POINT('',#2038);
#622=VERTEX_POINT('',#2040);
#623=VERTEX_POINT('',#2043);
#624=VERTEX_POINT('',#2045);
#625=VERTEX_POINT('',#2049);
#626=VERTEX_POINT('',#2051);
#627=VERTEX_POINT('',#2054);
#628=VERTEX_POINT('',#2056);
#629=VERTEX_POINT('',#2060);
#630=VERTEX_POINT('',#2062);
#631=VERTEX_POINT('',#2065);
#632=VERTEX_POINT('',#2067);
#633=VERTEX_POINT('',#2083);
#634=VERTEX_POINT('',#2085);
#635=VERTEX_POINT('',#2089);
#636=VERTEX_POINT('',#2091);
#637=VERTEX_POINT('',#2093);
#638=VERTEX_POINT('',#2095);
#639=VERTEX_POINT('',#2097);
#640=VERTEX_POINT('',#2099);
#641=VERTEX_POINT('',#2101);
#642=VERTEX_POINT('',#2103);
#643=VERTEX_POINT('',#2107);
#644=VERTEX_POINT('',#2109);
#645=VERTEX_POINT('',#2111);
#646=VERTEX_POINT('',#2113);
#647=VERTEX_POINT('',#2115);
#648=VERTEX_POINT('',#2117);
#649=VERTEX_POINT('',#2119);
#650=VERTEX_POINT('',#2121);
#651=VERTEX_POINT('',#2125);
#652=VERTEX_POINT('',#2126);
#653=VERTEX_POINT('',#2128);
#654=VERTEX_POINT('',#2130);
#655=VERTEX_POINT('',#2134);
#656=VERTEX_POINT('',#2136);
#657=VERTEX_POINT('',#2140);
#658=VERTEX_POINT('',#2142);
#659=VERTEX_POINT('',#2146);
#660=VERTEX_POINT('',#2148);
#661=VERTEX_POINT('',#2152);
#662=VERTEX_POINT('',#2154);
#663=VERTEX_POINT('',#2158);
#664=VERTEX_POINT('',#2160);
#665=VERTEX_POINT('',#2164);
#666=VERTEX_POINT('',#2166);
#667=VERTEX_POINT('',#2170);
#668=VERTEX_POINT('',#2172);
#669=VERTEX_POINT('',#2176);
#670=VERTEX_POINT('',#2178);
#671=VERTEX_POINT('',#2182);
#672=VERTEX_POINT('',#2184);
#673=VERTEX_POINT('',#2188);
#674=VERTEX_POINT('',#2190);
#675=VERTEX_POINT('',#2198);
#676=VERTEX_POINT('',#2200);
#677=VERTEX_POINT('',#2204);
#678=VERTEX_POINT('',#2209);
#679=VERTEX_POINT('',#2213);
#680=VERTEX_POINT('',#2215);
#681=VERTEX_POINT('',#2219);
#682=VERTEX_POINT('',#2221);
#683=VERTEX_POINT('',#2225);
#684=VERTEX_POINT('',#2227);
#685=VERTEX_POINT('',#2231);
#686=VERTEX_POINT('',#2233);
#687=VERTEX_POINT('',#2255);
#688=VERTEX_POINT('',#2259);
#689=EDGE_CURVE('',#557,#558,#217,.T.);
#690=EDGE_CURVE('',#557,#559,#218,.T.);
#691=EDGE_CURVE('',#560,#559,#219,.T.);
#692=EDGE_CURVE('',#558,#560,#220,.T.);
#693=EDGE_CURVE('',#558,#561,#221,.T.);
#694=EDGE_CURVE('',#562,#560,#222,.T.);
#695=EDGE_CURVE('',#561,#562,#223,.T.);
#696=EDGE_CURVE('',#561,#563,#224,.T.);
#697=EDGE_CURVE('',#564,#562,#225,.T.);
#698=EDGE_CURVE('',#563,#564,#226,.T.);
#699=EDGE_CURVE('',#563,#557,#227,.T.);
#700=EDGE_CURVE('',#559,#564,#228,.T.);
#701=EDGE_CURVE('',#565,#566,#229,.T.);
#702=EDGE_CURVE('',#565,#567,#230,.T.);
#703=EDGE_CURVE('',#567,#568,#231,.T.);
#704=EDGE_CURVE('',#566,#568,#232,.T.);
#705=EDGE_CURVE('',#569,#567,#233,.T.);
#706=EDGE_CURVE('',#570,#569,#234,.T.);
#707=EDGE_CURVE('',#568,#570,#235,.T.);
#708=EDGE_CURVE('',#571,#572,#236,.T.);
#709=EDGE_CURVE('',#571,#573,#237,.T.);
#710=EDGE_CURVE('',#573,#574,#238,.T.);
#711=EDGE_CURVE('',#572,#574,#239,.T.);
#712=EDGE_CURVE('',#575,#573,#240,.T.);
#713=EDGE_CURVE('',#576,#575,#241,.T.);
#714=EDGE_CURVE('',#574,#576,#242,.T.);
#715=EDGE_CURVE('',#577,#577,#30,.T.);
#716=EDGE_CURVE('',#577,#578,#243,.T.);
#717=EDGE_CURVE('',#578,#578,#31,.T.);
#718=EDGE_CURVE('',#579,#580,#32,.T.);
#719=EDGE_CURVE('',#581,#579,#244,.T.);
#720=EDGE_CURVE('',#582,#581,#33,.T.);
#721=EDGE_CURVE('',#580,#582,#245,.T.);
#722=EDGE_CURVE('',#583,#584,#34,.T.);
#723=EDGE_CURVE('',#583,#585,#246,.T.);
#724=EDGE_CURVE('',#586,#585,#35,.T.);
#725=EDGE_CURVE('',#584,#586,#247,.T.);
#726=EDGE_CURVE('',#584,#587,#248,.T.);
#727=EDGE_CURVE('',#588,#586,#249,.T.);
#728=EDGE_CURVE('',#587,#588,#250,.T.);
#729=EDGE_CURVE('',#589,#583,#251,.T.);
#730=EDGE_CURVE('',#590,#589,#252,.T.);
#731=EDGE_CURVE('',#585,#590,#253,.T.);
#732=EDGE_CURVE('',#591,#592,#254,.T.);
#733=EDGE_CURVE('',#593,#591,#255,.T.);
#734=EDGE_CURVE('',#594,#593,#256,.T.);
#735=EDGE_CURVE('',#592,#594,#257,.T.);
#736=EDGE_CURVE('',#595,#596,#258,.T.);
#737=EDGE_CURVE('',#597,#595,#259,.T.);
#738=EDGE_CURVE('',#598,#597,#260,.T.);
#739=EDGE_CURVE('',#598,#596,#261,.T.);
#740=EDGE_CURVE('',#596,#591,#36,.T.);
#741=EDGE_CURVE('',#593,#598,#37,.T.);
#742=EDGE_CURVE('',#599,#599,#38,.T.);
#743=EDGE_CURVE('',#599,#600,#262,.T.);
#744=EDGE_CURVE('',#600,#600,#39,.T.);
#745=EDGE_CURVE('',#601,#602,#40,.T.);
#746=EDGE_CURVE('',#603,#601,#263,.T.);
#747=EDGE_CURVE('',#604,#603,#41,.T.);
#748=EDGE_CURVE('',#602,#604,#264,.T.);
#749=EDGE_CURVE('',#605,#605,#42,.T.);
#750=EDGE_CURVE('',#605,#606,#265,.T.);
#751=EDGE_CURVE('',#606,#606,#43,.T.);
#752=EDGE_CURVE('',#607,#607,#44,.T.);
#753=EDGE_CURVE('',#607,#608,#266,.T.);
#754=EDGE_CURVE('',#608,#608,#45,.T.);
#755=EDGE_CURVE('',#609,#609,#46,.T.);
#756=EDGE_CURVE('',#609,#610,#267,.T.);
#757=EDGE_CURVE('',#611,#610,#47,.T.);
#758=EDGE_CURVE('',#612,#611,#268,.T.);
#759=EDGE_CURVE('',#613,#612,#48,.T.);
#760=EDGE_CURVE('',#613,#614,#269,.T.);
#761=EDGE_CURVE('',#614,#614,#49,.T.);
#762=EDGE_CURVE('',#615,#613,#50,.T.);
#763=EDGE_CURVE('',#616,#615,#270,.T.);
#764=EDGE_CURVE('',#610,#616,#51,.T.);
#765=EDGE_CURVE('',#617,#617,#52,.T.);
#766=EDGE_CURVE('',#617,#618,#271,.T.);
#767=EDGE_CURVE('',#619,#618,#53,.T.);
#768=EDGE_CURVE('',#620,#619,#272,.T.);
#769=EDGE_CURVE('',#621,#620,#54,.T.);
#770=EDGE_CURVE('',#621,#622,#273,.T.);
#771=EDGE_CURVE('',#622,#622,#55,.T.);
#772=EDGE_CURVE('',#623,#621,#56,.T.);
#773=EDGE_CURVE('',#624,#623,#274,.T.);
#774=EDGE_CURVE('',#618,#624,#57,.T.);
#775=EDGE_CURVE('',#595,#625,#275,.T.);
#776=EDGE_CURVE('',#625,#626,#276,.T.);
#777=EDGE_CURVE('',#626,#587,#277,.T.);
#778=EDGE_CURVE('',#588,#627,#278,.T.);
#779=EDGE_CURVE('',#627,#628,#279,.T.);
#780=EDGE_CURVE('',#628,#597,#280,.T.);
#781=EDGE_CURVE('',#594,#629,#281,.T.);
#782=EDGE_CURVE('',#629,#630,#282,.T.);
#783=EDGE_CURVE('',#630,#590,#283,.T.);
#784=EDGE_CURVE('',#589,#631,#284,.T.);
#785=EDGE_CURVE('',#631,#632,#285,.T.);
#786=EDGE_CURVE('',#632,#592,#286,.T.);
#787=EDGE_CURVE('',#601,#626,#287,.T.);
#788=EDGE_CURVE('',#603,#625,#288,.T.);
#789=EDGE_CURVE('',#579,#602,#289,.T.);
#790=EDGE_CURVE('',#581,#604,#290,.T.);
#791=EDGE_CURVE('',#619,#632,#291,.T.);
#792=EDGE_CURVE('',#620,#631,#292,.T.);
#793=EDGE_CURVE('',#611,#624,#293,.T.);
#794=EDGE_CURVE('',#612,#623,#294,.T.);
#795=EDGE_CURVE('',#633,#616,#295,.T.);
#796=EDGE_CURVE('',#633,#634,#296,.T.);
#797=EDGE_CURVE('',#634,#582,#297,.T.);
#798=EDGE_CURVE('',#635,#628,#298,.T.);
#799=EDGE_CURVE('',#635,#636,#299,.T.);
#800=EDGE_CURVE('',#636,#637,#300,.T.);
#801=EDGE_CURVE('',#637,#638,#301,.T.);
#802=EDGE_CURVE('',#638,#639,#302,.T.);
#803=EDGE_CURVE('',#639,#640,#303,.T.);
#804=EDGE_CURVE('',#640,#641,#304,.T.);
#805=EDGE_CURVE('',#641,#642,#305,.T.);
#806=EDGE_CURVE('',#642,#629,#306,.T.);
#807=EDGE_CURVE('',#643,#630,#307,.T.);
#808=EDGE_CURVE('',#644,#643,#308,.T.);
#809=EDGE_CURVE('',#644,#645,#309,.T.);
#810=EDGE_CURVE('',#645,#646,#310,.T.);
#811=EDGE_CURVE('',#646,#647,#311,.T.);
#812=EDGE_CURVE('',#648,#647,#312,.T.);
#813=EDGE_CURVE('',#649,#648,#313,.T.);
#814=EDGE_CURVE('',#649,#650,#314,.T.);
#815=EDGE_CURVE('',#650,#627,#315,.T.);
#816=EDGE_CURVE('',#651,#652,#316,.T.);
#817=EDGE_CURVE('',#651,#653,#317,.T.);
#818=EDGE_CURVE('',#654,#653,#318,.T.);
#819=EDGE_CURVE('',#652,#654,#319,.T.);
#820=EDGE_CURVE('',#652,#655,#320,.T.);
#821=EDGE_CURVE('',#656,#654,#321,.T.);
#822=EDGE_CURVE('',#655,#656,#322,.T.);
#823=EDGE_CURVE('',#655,#657,#323,.T.);
#824=EDGE_CURVE('',#658,#656,#324,.T.);
#825=EDGE_CURVE('',#657,#658,#325,.T.);
#826=EDGE_CURVE('',#657,#659,#326,.T.);
#827=EDGE_CURVE('',#660,#658,#327,.T.);
#828=EDGE_CURVE('',#659,#660,#328,.T.);
#829=EDGE_CURVE('',#659,#661,#329,.T.);
#830=EDGE_CURVE('',#662,#660,#330,.T.);
#831=EDGE_CURVE('',#661,#662,#331,.T.);
#832=EDGE_CURVE('',#661,#663,#332,.T.);
#833=EDGE_CURVE('',#664,#662,#333,.T.);
#834=EDGE_CURVE('',#663,#664,#334,.T.);
#835=EDGE_CURVE('',#663,#665,#335,.T.);
#836=EDGE_CURVE('',#666,#664,#336,.T.);
#837=EDGE_CURVE('',#665,#666,#337,.T.);
#838=EDGE_CURVE('',#665,#667,#338,.T.);
#839=EDGE_CURVE('',#668,#666,#339,.T.);
#840=EDGE_CURVE('',#667,#668,#340,.T.);
#841=EDGE_CURVE('',#667,#669,#341,.T.);
#842=EDGE_CURVE('',#670,#668,#342,.T.);
#843=EDGE_CURVE('',#669,#670,#343,.T.);
#844=EDGE_CURVE('',#669,#671,#344,.T.);
#845=EDGE_CURVE('',#672,#670,#345,.T.);
#846=EDGE_CURVE('',#671,#672,#346,.T.);
#847=EDGE_CURVE('',#671,#673,#347,.T.);
#848=EDGE_CURVE('',#674,#672,#348,.T.);
#849=EDGE_CURVE('',#673,#674,#349,.T.);
#850=EDGE_CURVE('',#673,#651,#350,.T.);
#851=EDGE_CURVE('',#653,#674,#351,.T.);
#852=EDGE_CURVE('',#675,#566,#352,.T.);
#853=EDGE_CURVE('',#676,#675,#353,.T.);
#854=EDGE_CURVE('',#676,#565,#354,.T.);
#855=EDGE_CURVE('',#677,#676,#355,.T.);
#856=EDGE_CURVE('',#677,#572,#356,.T.);
#857=EDGE_CURVE('',#576,#569,#357,.T.);
#858=EDGE_CURVE('',#678,#677,#358,.T.);
#859=EDGE_CURVE('',#678,#571,#359,.T.);
#860=EDGE_CURVE('',#679,#678,#360,.T.);
#861=EDGE_CURVE('',#679,#680,#361,.T.);
#862=EDGE_CURVE('',#680,#575,#362,.T.);
#863=EDGE_CURVE('',#681,#679,#363,.T.);
#864=EDGE_CURVE('',#681,#682,#364,.T.);
#865=EDGE_CURVE('',#682,#680,#365,.T.);
#866=EDGE_CURVE('',#683,#681,#366,.T.);
#867=EDGE_CURVE('',#683,#684,#367,.T.);
#868=EDGE_CURVE('',#684,#682,#368,.T.);
#869=EDGE_CURVE('',#685,#683,#369,.T.);
#870=EDGE_CURVE('',#685,#686,#370,.T.);
#871=EDGE_CURVE('',#686,#684,#371,.T.);
#872=EDGE_CURVE('',#675,#685,#372,.T.);
#873=EDGE_CURVE('',#570,#686,#373,.T.);
#874=EDGE_CURVE('',#644,#641,#374,.T.);
#875=EDGE_CURVE('',#645,#640,#375,.T.);
#876=EDGE_CURVE('',#646,#639,#376,.T.);
#877=EDGE_CURVE('',#647,#638,#377,.T.);
#878=EDGE_CURVE('',#648,#637,#378,.T.);
#879=EDGE_CURVE('',#642,#643,#379,.T.);
#880=EDGE_CURVE('',#636,#649,#380,.T.);
#881=EDGE_CURVE('',#687,#615,#381,.T.);
#882=EDGE_CURVE('',#687,#633,#382,.T.);
#883=EDGE_CURVE('',#688,#580,#383,.T.);
#884=EDGE_CURVE('',#688,#687,#384,.T.);
#885=EDGE_CURVE('',#634,#688,#385,.T.);
#886=EDGE_CURVE('',#650,#635,#386,.T.);
#887=ORIENTED_EDGE('',*,*,#689,.F.);
#888=ORIENTED_EDGE('',*,*,#690,.T.);
#889=ORIENTED_EDGE('',*,*,#691,.F.);
#890=ORIENTED_EDGE('',*,*,#692,.F.);
#891=ORIENTED_EDGE('',*,*,#693,.F.);
#892=ORIENTED_EDGE('',*,*,#692,.T.);
#893=ORIENTED_EDGE('',*,*,#694,.F.);
#894=ORIENTED_EDGE('',*,*,#695,.F.);
#895=ORIENTED_EDGE('',*,*,#696,.F.);
#896=ORIENTED_EDGE('',*,*,#695,.T.);
#897=ORIENTED_EDGE('',*,*,#697,.F.);
#898=ORIENTED_EDGE('',*,*,#698,.F.);
#899=ORIENTED_EDGE('',*,*,#699,.F.);
#900=ORIENTED_EDGE('',*,*,#698,.T.);
#901=ORIENTED_EDGE('',*,*,#700,.F.);
#902=ORIENTED_EDGE('',*,*,#690,.F.);
#903=ORIENTED_EDGE('',*,*,#700,.T.);
#904=ORIENTED_EDGE('',*,*,#697,.T.);
#905=ORIENTED_EDGE('',*,*,#694,.T.);
#906=ORIENTED_EDGE('',*,*,#691,.T.);
#907=ORIENTED_EDGE('',*,*,#699,.T.);
#908=ORIENTED_EDGE('',*,*,#689,.T.);
#909=ORIENTED_EDGE('',*,*,#693,.T.);
#910=ORIENTED_EDGE('',*,*,#696,.T.);
#911=ORIENTED_EDGE('',*,*,#701,.F.);
#912=ORIENTED_EDGE('',*,*,#702,.T.);
#913=ORIENTED_EDGE('',*,*,#703,.T.);
#914=ORIENTED_EDGE('',*,*,#704,.F.);
#915=ORIENTED_EDGE('',*,*,#705,.F.);
#916=ORIENTED_EDGE('',*,*,#706,.F.);
#917=ORIENTED_EDGE('',*,*,#707,.F.);
#918=ORIENTED_EDGE('',*,*,#703,.F.);
#919=ORIENTED_EDGE('',*,*,#708,.F.);
#920=ORIENTED_EDGE('',*,*,#709,.T.);
#921=ORIENTED_EDGE('',*,*,#710,.T.);
#922=ORIENTED_EDGE('',*,*,#711,.F.);
#923=ORIENTED_EDGE('',*,*,#710,.F.);
#924=ORIENTED_EDGE('',*,*,#712,.F.);
#925=ORIENTED_EDGE('',*,*,#713,.F.);
#926=ORIENTED_EDGE('',*,*,#714,.F.);
#927=ORIENTED_EDGE('',*,*,#715,.F.);
#928=ORIENTED_EDGE('',*,*,#716,.T.);
#929=ORIENTED_EDGE('',*,*,#717,.F.);
#930=ORIENTED_EDGE('',*,*,#716,.F.);
#931=ORIENTED_EDGE('',*,*,#718,.F.);
#932=ORIENTED_EDGE('',*,*,#719,.F.);
#933=ORIENTED_EDGE('',*,*,#720,.F.);
#934=ORIENTED_EDGE('',*,*,#721,.F.);
#935=ORIENTED_EDGE('',*,*,#722,.F.);
#936=ORIENTED_EDGE('',*,*,#723,.T.);
#937=ORIENTED_EDGE('',*,*,#724,.F.);
#938=ORIENTED_EDGE('',*,*,#725,.F.);
#939=ORIENTED_EDGE('',*,*,#726,.F.);
#940=ORIENTED_EDGE('',*,*,#725,.T.);
#941=ORIENTED_EDGE('',*,*,#727,.F.);
#942=ORIENTED_EDGE('',*,*,#728,.F.);
#943=ORIENTED_EDGE('',*,*,#729,.F.);
#944=ORIENTED_EDGE('',*,*,#730,.F.);
#945=ORIENTED_EDGE('',*,*,#731,.F.);
#946=ORIENTED_EDGE('',*,*,#723,.F.);
#947=ORIENTED_EDGE('',*,*,#732,.F.);
#948=ORIENTED_EDGE('',*,*,#733,.F.);
#949=ORIENTED_EDGE('',*,*,#734,.F.);
#950=ORIENTED_EDGE('',*,*,#735,.F.);
#951=ORIENTED_EDGE('',*,*,#736,.F.);
#952=ORIENTED_EDGE('',*,*,#737,.F.);
#953=ORIENTED_EDGE('',*,*,#738,.F.);
#954=ORIENTED_EDGE('',*,*,#739,.T.);
#955=ORIENTED_EDGE('',*,*,#740,.F.);
#956=ORIENTED_EDGE('',*,*,#739,.F.);
#957=ORIENTED_EDGE('',*,*,#741,.F.);
#958=ORIENTED_EDGE('',*,*,#733,.T.);
#959=ORIENTED_EDGE('',*,*,#742,.F.);
#960=ORIENTED_EDGE('',*,*,#743,.T.);
#961=ORIENTED_EDGE('',*,*,#744,.F.);
#962=ORIENTED_EDGE('',*,*,#743,.F.);
#963=ORIENTED_EDGE('',*,*,#745,.F.);
#964=ORIENTED_EDGE('',*,*,#746,.F.);
#965=ORIENTED_EDGE('',*,*,#747,.F.);
#966=ORIENTED_EDGE('',*,*,#748,.F.);
#967=ORIENTED_EDGE('',*,*,#749,.F.);
#968=ORIENTED_EDGE('',*,*,#750,.T.);
#969=ORIENTED_EDGE('',*,*,#751,.F.);
#970=ORIENTED_EDGE('',*,*,#750,.F.);
#971=ORIENTED_EDGE('',*,*,#752,.F.);
#972=ORIENTED_EDGE('',*,*,#753,.T.);
#973=ORIENTED_EDGE('',*,*,#754,.F.);
#974=ORIENTED_EDGE('',*,*,#753,.F.);
#975=ORIENTED_EDGE('',*,*,#755,.F.);
#976=ORIENTED_EDGE('',*,*,#756,.T.);
#977=ORIENTED_EDGE('',*,*,#757,.F.);
#978=ORIENTED_EDGE('',*,*,#758,.F.);
#979=ORIENTED_EDGE('',*,*,#759,.F.);
#980=ORIENTED_EDGE('',*,*,#760,.T.);
#981=ORIENTED_EDGE('',*,*,#761,.F.);
#982=ORIENTED_EDGE('',*,*,#760,.F.);
#983=ORIENTED_EDGE('',*,*,#762,.F.);
#984=ORIENTED_EDGE('',*,*,#763,.F.);
#985=ORIENTED_EDGE('',*,*,#764,.F.);
#986=ORIENTED_EDGE('',*,*,#756,.F.);
#987=ORIENTED_EDGE('',*,*,#765,.F.);
#988=ORIENTED_EDGE('',*,*,#766,.T.);
#989=ORIENTED_EDGE('',*,*,#767,.F.);
#990=ORIENTED_EDGE('',*,*,#768,.F.);
#991=ORIENTED_EDGE('',*,*,#769,.F.);
#992=ORIENTED_EDGE('',*,*,#770,.T.);
#993=ORIENTED_EDGE('',*,*,#771,.F.);
#994=ORIENTED_EDGE('',*,*,#770,.F.);
#995=ORIENTED_EDGE('',*,*,#772,.F.);
#996=ORIENTED_EDGE('',*,*,#773,.F.);
#997=ORIENTED_EDGE('',*,*,#774,.F.);
#998=ORIENTED_EDGE('',*,*,#766,.F.);
#999=ORIENTED_EDGE('',*,*,#737,.T.);
#1000=ORIENTED_EDGE('',*,*,#775,.T.);
#1001=ORIENTED_EDGE('',*,*,#776,.T.);
#1002=ORIENTED_EDGE('',*,*,#777,.T.);
#1003=ORIENTED_EDGE('',*,*,#728,.T.);
#1004=ORIENTED_EDGE('',*,*,#778,.T.);
#1005=ORIENTED_EDGE('',*,*,#779,.T.);
#1006=ORIENTED_EDGE('',*,*,#780,.T.);
#1007=ORIENTED_EDGE('',*,*,#735,.T.);
#1008=ORIENTED_EDGE('',*,*,#781,.T.);
#1009=ORIENTED_EDGE('',*,*,#782,.T.);
#1010=ORIENTED_EDGE('',*,*,#783,.T.);
#1011=ORIENTED_EDGE('',*,*,#730,.T.);
#1012=ORIENTED_EDGE('',*,*,#784,.T.);
#1013=ORIENTED_EDGE('',*,*,#785,.T.);
#1014=ORIENTED_EDGE('',*,*,#786,.T.);
#1015=ORIENTED_EDGE('',*,*,#746,.T.);
#1016=ORIENTED_EDGE('',*,*,#787,.T.);
#1017=ORIENTED_EDGE('',*,*,#776,.F.);
#1018=ORIENTED_EDGE('',*,*,#788,.F.);
#1019=ORIENTED_EDGE('',*,*,#719,.T.);
#1020=ORIENTED_EDGE('',*,*,#789,.T.);
#1021=ORIENTED_EDGE('',*,*,#748,.T.);
#1022=ORIENTED_EDGE('',*,*,#790,.F.);
#1023=ORIENTED_EDGE('',*,*,#768,.T.);
#1024=ORIENTED_EDGE('',*,*,#791,.T.);
#1025=ORIENTED_EDGE('',*,*,#785,.F.);
#1026=ORIENTED_EDGE('',*,*,#792,.F.);
#1027=ORIENTED_EDGE('',*,*,#758,.T.);
#1028=ORIENTED_EDGE('',*,*,#793,.T.);
#1029=ORIENTED_EDGE('',*,*,#773,.T.);
#1030=ORIENTED_EDGE('',*,*,#794,.F.);
#1031=ORIENTED_EDGE('',*,*,#720,.T.);
#1032=ORIENTED_EDGE('',*,*,#790,.T.);
#1033=ORIENTED_EDGE('',*,*,#747,.T.);
#1034=ORIENTED_EDGE('',*,*,#788,.T.);
#1035=ORIENTED_EDGE('',*,*,#775,.F.);
#1036=ORIENTED_EDGE('',*,*,#736,.T.);
#1037=ORIENTED_EDGE('',*,*,#740,.T.);
#1038=ORIENTED_EDGE('',*,*,#732,.T.);
#1039=ORIENTED_EDGE('',*,*,#786,.F.);
#1040=ORIENTED_EDGE('',*,*,#791,.F.);
#1041=ORIENTED_EDGE('',*,*,#767,.T.);
#1042=ORIENTED_EDGE('',*,*,#774,.T.);
#1043=ORIENTED_EDGE('',*,*,#793,.F.);
#1044=ORIENTED_EDGE('',*,*,#757,.T.);
#1045=ORIENTED_EDGE('',*,*,#764,.T.);
#1046=ORIENTED_EDGE('',*,*,#795,.F.);
#1047=ORIENTED_EDGE('',*,*,#796,.T.);
#1048=ORIENTED_EDGE('',*,*,#797,.T.);
#1049=ORIENTED_EDGE('',*,*,#754,.T.);
#1050=ORIENTED_EDGE('',*,*,#734,.T.);
#1051=ORIENTED_EDGE('',*,*,#741,.T.);
#1052=ORIENTED_EDGE('',*,*,#738,.T.);
#1053=ORIENTED_EDGE('',*,*,#780,.F.);
#1054=ORIENTED_EDGE('',*,*,#798,.F.);
#1055=ORIENTED_EDGE('',*,*,#799,.T.);
#1056=ORIENTED_EDGE('',*,*,#800,.T.);
#1057=ORIENTED_EDGE('',*,*,#801,.T.);
#1058=ORIENTED_EDGE('',*,*,#802,.T.);
#1059=ORIENTED_EDGE('',*,*,#803,.T.);
#1060=ORIENTED_EDGE('',*,*,#804,.T.);
#1061=ORIENTED_EDGE('',*,*,#805,.T.);
#1062=ORIENTED_EDGE('',*,*,#806,.T.);
#1063=ORIENTED_EDGE('',*,*,#781,.F.);
#1064=ORIENTED_EDGE('',*,*,#765,.T.);
#1065=ORIENTED_EDGE('',*,*,#755,.T.);
#1066=ORIENTED_EDGE('',*,*,#752,.T.);
#1067=ORIENTED_EDGE('',*,*,#742,.T.);
#1068=ORIENTED_EDGE('',*,*,#715,.T.);
#1069=ORIENTED_EDGE('',*,*,#727,.T.);
#1070=ORIENTED_EDGE('',*,*,#724,.T.);
#1071=ORIENTED_EDGE('',*,*,#731,.T.);
#1072=ORIENTED_EDGE('',*,*,#783,.F.);
#1073=ORIENTED_EDGE('',*,*,#807,.F.);
#1074=ORIENTED_EDGE('',*,*,#808,.F.);
#1075=ORIENTED_EDGE('',*,*,#809,.T.);
#1076=ORIENTED_EDGE('',*,*,#810,.T.);
#1077=ORIENTED_EDGE('',*,*,#811,.T.);
#1078=ORIENTED_EDGE('',*,*,#812,.F.);
#1079=ORIENTED_EDGE('',*,*,#813,.F.);
#1080=ORIENTED_EDGE('',*,*,#814,.T.);
#1081=ORIENTED_EDGE('',*,*,#815,.T.);
#1082=ORIENTED_EDGE('',*,*,#778,.F.);
#1083=ORIENTED_EDGE('',*,*,#771,.T.);
#1084=ORIENTED_EDGE('',*,*,#761,.T.);
#1085=ORIENTED_EDGE('',*,*,#751,.T.);
#1086=ORIENTED_EDGE('',*,*,#744,.T.);
#1087=ORIENTED_EDGE('',*,*,#717,.T.);
#1088=ORIENTED_EDGE('',*,*,#816,.F.);
#1089=ORIENTED_EDGE('',*,*,#817,.T.);
#1090=ORIENTED_EDGE('',*,*,#818,.F.);
#1091=ORIENTED_EDGE('',*,*,#819,.F.);
#1092=ORIENTED_EDGE('',*,*,#820,.F.);
#1093=ORIENTED_EDGE('',*,*,#819,.T.);
#1094=ORIENTED_EDGE('',*,*,#821,.F.);
#1095=ORIENTED_EDGE('',*,*,#822,.F.);
#1096=ORIENTED_EDGE('',*,*,#823,.F.);
#1097=ORIENTED_EDGE('',*,*,#822,.T.);
#1098=ORIENTED_EDGE('',*,*,#824,.F.);
#1099=ORIENTED_EDGE('',*,*,#825,.F.);
#1100=ORIENTED_EDGE('',*,*,#826,.F.);
#1101=ORIENTED_EDGE('',*,*,#825,.T.);
#1102=ORIENTED_EDGE('',*,*,#827,.F.);
#1103=ORIENTED_EDGE('',*,*,#828,.F.);
#1104=ORIENTED_EDGE('',*,*,#829,.F.);
#1105=ORIENTED_EDGE('',*,*,#828,.T.);
#1106=ORIENTED_EDGE('',*,*,#830,.F.);
#1107=ORIENTED_EDGE('',*,*,#831,.F.);
#1108=ORIENTED_EDGE('',*,*,#832,.F.);
#1109=ORIENTED_EDGE('',*,*,#831,.T.);
#1110=ORIENTED_EDGE('',*,*,#833,.F.);
#1111=ORIENTED_EDGE('',*,*,#834,.F.);
#1112=ORIENTED_EDGE('',*,*,#835,.F.);
#1113=ORIENTED_EDGE('',*,*,#834,.T.);
#1114=ORIENTED_EDGE('',*,*,#836,.F.);
#1115=ORIENTED_EDGE('',*,*,#837,.F.);
#1116=ORIENTED_EDGE('',*,*,#838,.F.);
#1117=ORIENTED_EDGE('',*,*,#837,.T.);
#1118=ORIENTED_EDGE('',*,*,#839,.F.);
#1119=ORIENTED_EDGE('',*,*,#840,.F.);
#1120=ORIENTED_EDGE('',*,*,#841,.F.);
#1121=ORIENTED_EDGE('',*,*,#840,.T.);
#1122=ORIENTED_EDGE('',*,*,#842,.F.);
#1123=ORIENTED_EDGE('',*,*,#843,.F.);
#1124=ORIENTED_EDGE('',*,*,#844,.F.);
#1125=ORIENTED_EDGE('',*,*,#843,.T.);
#1126=ORIENTED_EDGE('',*,*,#845,.F.);
#1127=ORIENTED_EDGE('',*,*,#846,.F.);
#1128=ORIENTED_EDGE('',*,*,#847,.F.);
#1129=ORIENTED_EDGE('',*,*,#846,.T.);
#1130=ORIENTED_EDGE('',*,*,#848,.F.);
#1131=ORIENTED_EDGE('',*,*,#849,.F.);
#1132=ORIENTED_EDGE('',*,*,#850,.F.);
#1133=ORIENTED_EDGE('',*,*,#849,.T.);
#1134=ORIENTED_EDGE('',*,*,#851,.F.);
#1135=ORIENTED_EDGE('',*,*,#817,.F.);
#1136=ORIENTED_EDGE('',*,*,#851,.T.);
#1137=ORIENTED_EDGE('',*,*,#848,.T.);
#1138=ORIENTED_EDGE('',*,*,#845,.T.);
#1139=ORIENTED_EDGE('',*,*,#842,.T.);
#1140=ORIENTED_EDGE('',*,*,#839,.T.);
#1141=ORIENTED_EDGE('',*,*,#836,.T.);
#1142=ORIENTED_EDGE('',*,*,#833,.T.);
#1143=ORIENTED_EDGE('',*,*,#830,.T.);
#1144=ORIENTED_EDGE('',*,*,#827,.T.);
#1145=ORIENTED_EDGE('',*,*,#824,.T.);
#1146=ORIENTED_EDGE('',*,*,#821,.T.);
#1147=ORIENTED_EDGE('',*,*,#818,.T.);
#1148=ORIENTED_EDGE('',*,*,#701,.T.);
#1149=ORIENTED_EDGE('',*,*,#852,.F.);
#1150=ORIENTED_EDGE('',*,*,#853,.F.);
#1151=ORIENTED_EDGE('',*,*,#854,.T.);
#1152=ORIENTED_EDGE('',*,*,#855,.F.);
#1153=ORIENTED_EDGE('',*,*,#856,.T.);
#1154=ORIENTED_EDGE('',*,*,#711,.T.);
#1155=ORIENTED_EDGE('',*,*,#714,.T.);
#1156=ORIENTED_EDGE('',*,*,#857,.T.);
#1157=ORIENTED_EDGE('',*,*,#705,.T.);
#1158=ORIENTED_EDGE('',*,*,#702,.F.);
#1159=ORIENTED_EDGE('',*,*,#854,.F.);
#1160=ORIENTED_EDGE('',*,*,#708,.T.);
#1161=ORIENTED_EDGE('',*,*,#856,.F.);
#1162=ORIENTED_EDGE('',*,*,#858,.F.);
#1163=ORIENTED_EDGE('',*,*,#859,.T.);
#1164=ORIENTED_EDGE('',*,*,#860,.F.);
#1165=ORIENTED_EDGE('',*,*,#861,.T.);
#1166=ORIENTED_EDGE('',*,*,#862,.T.);
#1167=ORIENTED_EDGE('',*,*,#712,.T.);
#1168=ORIENTED_EDGE('',*,*,#709,.F.);
#1169=ORIENTED_EDGE('',*,*,#859,.F.);
#1170=ORIENTED_EDGE('',*,*,#863,.F.);
#1171=ORIENTED_EDGE('',*,*,#864,.T.);
#1172=ORIENTED_EDGE('',*,*,#865,.T.);
#1173=ORIENTED_EDGE('',*,*,#861,.F.);
#1174=ORIENTED_EDGE('',*,*,#866,.F.);
#1175=ORIENTED_EDGE('',*,*,#867,.T.);
#1176=ORIENTED_EDGE('',*,*,#868,.T.);
#1177=ORIENTED_EDGE('',*,*,#864,.F.);
#1178=ORIENTED_EDGE('',*,*,#869,.F.);
#1179=ORIENTED_EDGE('',*,*,#870,.T.);
#1180=ORIENTED_EDGE('',*,*,#871,.T.);
#1181=ORIENTED_EDGE('',*,*,#867,.F.);
#1182=ORIENTED_EDGE('',*,*,#872,.F.);
#1183=ORIENTED_EDGE('',*,*,#852,.T.);
#1184=ORIENTED_EDGE('',*,*,#704,.T.);
#1185=ORIENTED_EDGE('',*,*,#707,.T.);
#1186=ORIENTED_EDGE('',*,*,#873,.T.);
#1187=ORIENTED_EDGE('',*,*,#870,.F.);
#1188=ORIENTED_EDGE('',*,*,#873,.F.);
#1189=ORIENTED_EDGE('',*,*,#706,.T.);
#1190=ORIENTED_EDGE('',*,*,#857,.F.);
#1191=ORIENTED_EDGE('',*,*,#713,.T.);
#1192=ORIENTED_EDGE('',*,*,#862,.F.);
#1193=ORIENTED_EDGE('',*,*,#865,.F.);
#1194=ORIENTED_EDGE('',*,*,#868,.F.);
#1195=ORIENTED_EDGE('',*,*,#871,.F.);
#1196=ORIENTED_EDGE('',*,*,#816,.T.);
#1197=ORIENTED_EDGE('',*,*,#820,.T.);
#1198=ORIENTED_EDGE('',*,*,#823,.T.);
#1199=ORIENTED_EDGE('',*,*,#826,.T.);
#1200=ORIENTED_EDGE('',*,*,#829,.T.);
#1201=ORIENTED_EDGE('',*,*,#832,.T.);
#1202=ORIENTED_EDGE('',*,*,#835,.T.);
#1203=ORIENTED_EDGE('',*,*,#838,.T.);
#1204=ORIENTED_EDGE('',*,*,#841,.T.);
#1205=ORIENTED_EDGE('',*,*,#844,.T.);
#1206=ORIENTED_EDGE('',*,*,#847,.T.);
#1207=ORIENTED_EDGE('',*,*,#850,.T.);
#1208=ORIENTED_EDGE('',*,*,#809,.F.);
#1209=ORIENTED_EDGE('',*,*,#874,.T.);
#1210=ORIENTED_EDGE('',*,*,#804,.F.);
#1211=ORIENTED_EDGE('',*,*,#875,.F.);
#1212=ORIENTED_EDGE('',*,*,#810,.F.);
#1213=ORIENTED_EDGE('',*,*,#875,.T.);
#1214=ORIENTED_EDGE('',*,*,#803,.F.);
#1215=ORIENTED_EDGE('',*,*,#876,.F.);
#1216=ORIENTED_EDGE('',*,*,#811,.F.);
#1217=ORIENTED_EDGE('',*,*,#876,.T.);
#1218=ORIENTED_EDGE('',*,*,#802,.F.);
#1219=ORIENTED_EDGE('',*,*,#877,.F.);
#1220=ORIENTED_EDGE('',*,*,#812,.T.);
#1221=ORIENTED_EDGE('',*,*,#877,.T.);
#1222=ORIENTED_EDGE('',*,*,#801,.F.);
#1223=ORIENTED_EDGE('',*,*,#878,.F.);
#1224=ORIENTED_EDGE('',*,*,#808,.T.);
#1225=ORIENTED_EDGE('',*,*,#879,.F.);
#1226=ORIENTED_EDGE('',*,*,#805,.F.);
#1227=ORIENTED_EDGE('',*,*,#874,.F.);
#1228=ORIENTED_EDGE('',*,*,#878,.T.);
#1229=ORIENTED_EDGE('',*,*,#800,.F.);
#1230=ORIENTED_EDGE('',*,*,#880,.T.);
#1231=ORIENTED_EDGE('',*,*,#813,.T.);
#1232=ORIENTED_EDGE('',*,*,#879,.T.);
#1233=ORIENTED_EDGE('',*,*,#807,.T.);
#1234=ORIENTED_EDGE('',*,*,#782,.F.);
#1235=ORIENTED_EDGE('',*,*,#806,.F.);
#1236=ORIENTED_EDGE('',*,*,#763,.T.);
#1237=ORIENTED_EDGE('',*,*,#881,.F.);
#1238=ORIENTED_EDGE('',*,*,#882,.T.);
#1239=ORIENTED_EDGE('',*,*,#795,.T.);
#1240=ORIENTED_EDGE('',*,*,#718,.T.);
#1241=ORIENTED_EDGE('',*,*,#883,.F.);
#1242=ORIENTED_EDGE('',*,*,#884,.T.);
#1243=ORIENTED_EDGE('',*,*,#881,.T.);
#1244=ORIENTED_EDGE('',*,*,#762,.T.);
#1245=ORIENTED_EDGE('',*,*,#759,.T.);
#1246=ORIENTED_EDGE('',*,*,#794,.T.);
#1247=ORIENTED_EDGE('',*,*,#772,.T.);
#1248=ORIENTED_EDGE('',*,*,#769,.T.);
#1249=ORIENTED_EDGE('',*,*,#792,.T.);
#1250=ORIENTED_EDGE('',*,*,#784,.F.);
#1251=ORIENTED_EDGE('',*,*,#729,.T.);
#1252=ORIENTED_EDGE('',*,*,#722,.T.);
#1253=ORIENTED_EDGE('',*,*,#726,.T.);
#1254=ORIENTED_EDGE('',*,*,#777,.F.);
#1255=ORIENTED_EDGE('',*,*,#787,.F.);
#1256=ORIENTED_EDGE('',*,*,#745,.T.);
#1257=ORIENTED_EDGE('',*,*,#789,.F.);
#1258=ORIENTED_EDGE('',*,*,#749,.T.);
#1259=ORIENTED_EDGE('',*,*,#721,.T.);
#1260=ORIENTED_EDGE('',*,*,#797,.F.);
#1261=ORIENTED_EDGE('',*,*,#885,.T.);
#1262=ORIENTED_EDGE('',*,*,#883,.T.);
#1263=ORIENTED_EDGE('',*,*,#886,.T.);
#1264=ORIENTED_EDGE('',*,*,#798,.T.);
#1265=ORIENTED_EDGE('',*,*,#779,.F.);
#1266=ORIENTED_EDGE('',*,*,#815,.F.);
#1267=ORIENTED_EDGE('',*,*,#853,.T.);
#1268=ORIENTED_EDGE('',*,*,#872,.T.);
#1269=ORIENTED_EDGE('',*,*,#869,.T.);
#1270=ORIENTED_EDGE('',*,*,#866,.T.);
#1271=ORIENTED_EDGE('',*,*,#863,.T.);
#1272=ORIENTED_EDGE('',*,*,#860,.T.);
#1273=ORIENTED_EDGE('',*,*,#858,.T.);
#1274=ORIENTED_EDGE('',*,*,#855,.T.);
#1275=ORIENTED_EDGE('',*,*,#880,.F.);
#1276=ORIENTED_EDGE('',*,*,#799,.F.);
#1277=ORIENTED_EDGE('',*,*,#886,.F.);
#1278=ORIENTED_EDGE('',*,*,#814,.F.);
#1279=ORIENTED_EDGE('',*,*,#885,.F.);
#1280=ORIENTED_EDGE('',*,*,#796,.F.);
#1281=ORIENTED_EDGE('',*,*,#882,.F.);
#1282=ORIENTED_EDGE('',*,*,#884,.F.);
#1283=PLANE('',#1420);
#1284=PLANE('',#1421);
#1285=PLANE('',#1422);
#1286=PLANE('',#1423);
#1287=PLANE('',#1424);
#1288=PLANE('',#1425);
#1289=PLANE('',#1426);
#1290=PLANE('',#1427);
#1291=PLANE('',#1428);
#1292=PLANE('',#1429);
#1293=PLANE('',#1438);
#1294=PLANE('',#1439);
#1295=PLANE('',#1440);
#1296=PLANE('',#1441);
#1297=PLANE('',#1470);
#1298=PLANE('',#1471);
#1299=PLANE('',#1472);
#1300=PLANE('',#1473);
#1301=PLANE('',#1474);
#1302=PLANE('',#1475);
#1303=PLANE('',#1476);
#1304=PLANE('',#1477);
#1305=PLANE('',#1478);
#1306=PLANE('',#1479);
#1307=PLANE('',#1480);
#1308=PLANE('',#1481);
#1309=PLANE('',#1482);
#1310=PLANE('',#1483);
#1311=PLANE('',#1484);
#1312=PLANE('',#1485);
#1313=PLANE('',#1486);
#1314=PLANE('',#1487);
#1315=PLANE('',#1488);
#1316=PLANE('',#1489);
#1317=PLANE('',#1490);
#1318=PLANE('',#1491);
#1319=PLANE('',#1492);
#1320=PLANE('',#1493);
#1321=PLANE('',#1494);
#1322=PLANE('',#1495);
#1323=PLANE('',#1496);
#1324=PLANE('',#1497);
#1325=PLANE('',#1498);
#1326=PLANE('',#1499);
#1327=PLANE('',#1500);
#1328=PLANE('',#1501);
#1329=PLANE('',#1502);
#1330=PLANE('',#1503);
#1331=PLANE('',#1504);
#1332=PLANE('',#1505);
#1333=PLANE('',#1506);
#1334=PLANE('',#1507);
#1335=PLANE('',#1508);
#1336=PLANE('',#1509);
#1337=PLANE('',#1510);
#1338=PLANE('',#1511);
#1339=PLANE('',#1512);
#1340=ADVANCED_FACE('',(#70),#1283,.T.);
#1341=ADVANCED_FACE('',(#71),#1284,.T.);
#1342=ADVANCED_FACE('',(#72),#1285,.T.);
#1343=ADVANCED_FACE('',(#73),#1286,.T.);
#1344=ADVANCED_FACE('',(#74),#1287,.T.);
#1345=ADVANCED_FACE('',(#75),#1288,.F.);
#1346=ADVANCED_FACE('',(#76),#1289,.F.);
#1347=ADVANCED_FACE('',(#77),#1290,.F.);
#1348=ADVANCED_FACE('',(#78),#1291,.F.);
#1349=ADVANCED_FACE('',(#79),#1292,.F.);
#1350=ADVANCED_FACE('',(#80,#13),#58,.F.);
#1351=ADVANCED_FACE('',(#81),#59,.F.);
#1352=ADVANCED_FACE('',(#82),#1293,.F.);
#1353=ADVANCED_FACE('',(#83),#1294,.F.);
#1354=ADVANCED_FACE('',(#84),#1295,.F.);
#1355=ADVANCED_FACE('',(#85),#1296,.F.);
#1356=ADVANCED_FACE('',(#86),#60,.F.);
#1357=ADVANCED_FACE('',(#87,#14),#61,.F.);
#1358=ADVANCED_FACE('',(#88),#62,.F.);
#1359=ADVANCED_FACE('',(#89),#63,.F.);
#1360=ADVANCED_FACE('',(#90),#64,.F.);
#1361=ADVANCED_FACE('',(#91),#65,.F.);
#1362=ADVANCED_FACE('',(#92),#1297,.T.);
#1363=ADVANCED_FACE('',(#93),#1298,.T.);
#1364=ADVANCED_FACE('',(#94),#1299,.T.);
#1365=ADVANCED_FACE('',(#95),#1300,.T.);
#1366=ADVANCED_FACE('',(#96),#1301,.T.);
#1367=ADVANCED_FACE('',(#97),#1302,.T.);
#1368=ADVANCED_FACE('',(#98,#15),#1303,.T.);
#1369=ADVANCED_FACE('',(#99,#16,#17,#18,#19,#20),#1304,.T.);
#1370=ADVANCED_FACE('',(#100,#21,#22,#23,#24,#25),#1305,.T.);
#1371=ADVANCED_FACE('',(#101),#1306,.T.);
#1372=ADVANCED_FACE('',(#102),#1307,.T.);
#1373=ADVANCED_FACE('',(#103),#1308,.T.);
#1374=ADVANCED_FACE('',(#104),#1309,.T.);
#1375=ADVANCED_FACE('',(#105),#1310,.T.);
#1376=ADVANCED_FACE('',(#106),#1311,.T.);
#1377=ADVANCED_FACE('',(#107),#1312,.T.);
#1378=ADVANCED_FACE('',(#108),#1313,.T.);
#1379=ADVANCED_FACE('',(#109),#1314,.T.);
#1380=ADVANCED_FACE('',(#110),#1315,.T.);
#1381=ADVANCED_FACE('',(#111),#1316,.T.);
#1382=ADVANCED_FACE('',(#112),#1317,.T.);
#1383=ADVANCED_FACE('',(#113),#1318,.T.);
#1384=ADVANCED_FACE('',(#114),#1319,.F.);
#1385=ADVANCED_FACE('',(#115),#1320,.F.);
#1386=ADVANCED_FACE('',(#116),#1321,.F.);
#1387=ADVANCED_FACE('',(#117),#1322,.F.);
#1388=ADVANCED_FACE('',(#118),#1323,.F.);
#1389=ADVANCED_FACE('',(#119),#1324,.F.);
#1390=ADVANCED_FACE('',(#120),#1325,.F.);
#1391=ADVANCED_FACE('',(#121),#1326,.F.);
#1392=ADVANCED_FACE('',(#122,#26),#1327,.F.);
#1393=ADVANCED_FACE('',(#123),#1328,.T.);
#1394=ADVANCED_FACE('',(#124),#1329,.T.);
#1395=ADVANCED_FACE('',(#125),#1330,.T.);
#1396=ADVANCED_FACE('',(#126),#1331,.T.);
#1397=ADVANCED_FACE('',(#127),#1332,.T.);
#1398=ADVANCED_FACE('',(#128),#1333,.T.);
#1399=ADVANCED_FACE('',(#129),#1334,.T.);
#1400=ADVANCED_FACE('',(#130),#1335,.T.);
#1401=ADVANCED_FACE('',(#131,#27),#1336,.T.);
#1402=ADVANCED_FACE('',(#132),#1337,.T.);
#1403=ADVANCED_FACE('',(#133,#28),#1338,.T.);
#1404=ADVANCED_FACE('',(#134,#29),#1339,.F.);
#1405=CLOSED_SHELL('',(#1340,#1341,#1342,#1343,#1344,#1345));
#1406=CLOSED_SHELL('',(#1346,#1347,#1348,#1349,#1350,#1351,#1352,#1353,
#1354,#1355,#1356,#1357,#1358,#1359,#1360,#1361,#1362,#1363,#1364,#1365,
#1366,#1367,#1368,#1369,#1370,#1371,#1372,#1373,#1374,#1375,#1376,#1377,
#1378,#1379,#1380,#1381,#1382,#1383,#1384,#1385,#1386,#1387,#1388,#1389,
#1390,#1391,#1392,#1393,#1394,#1395,#1396,#1397,#1398,#1399,#1400,#1401,
#1402,#1403,#1404));
#1407=DERIVED_UNIT_ELEMENT(#1409,1.);
#1408=DERIVED_UNIT_ELEMENT(#2272,-3.);
#1409=(
MASS_UNIT()
NAMED_UNIT(*)
SI_UNIT(.KILO.,.GRAM.)
);
#1410=DERIVED_UNIT((#1407,#1408));
#1411=MEASURE_REPRESENTATION_ITEM('density measure',
POSITIVE_RATIO_MEASURE(7850.),#1410);
#1412=PROPERTY_DEFINITION_REPRESENTATION(#1417,#1414);
#1413=PROPERTY_DEFINITION_REPRESENTATION(#1418,#1415);
#1414=REPRESENTATION('material name',(#1416),#2269);
#1415=REPRESENTATION('density',(#1411),#2269);
#1416=DESCRIPTIVE_REPRESENTATION_ITEM('Steel','Steel');
#1417=PROPERTY_DEFINITION('material property','material name',#2279);
#1418=PROPERTY_DEFINITION('material property','density of part',#2279);
#1419=AXIS2_PLACEMENT_3D('',#1871,#1513,#1514);
#1420=AXIS2_PLACEMENT_3D('',#1872,#1515,#1516);
#1421=AXIS2_PLACEMENT_3D('',#1881,#1521,#1522);
#1422=AXIS2_PLACEMENT_3D('',#1887,#1526,#1527);
#1423=AXIS2_PLACEMENT_3D('',#1893,#1531,#1532);
#1424=AXIS2_PLACEMENT_3D('',#1896,#1535,#1536);
#1425=AXIS2_PLACEMENT_3D('',#1897,#1537,#1538);
#1426=AXIS2_PLACEMENT_3D('',#1898,#1539,#1540);
#1427=AXIS2_PLACEMENT_3D('',#1907,#1545,#1546);
#1428=AXIS2_PLACEMENT_3D('',#1913,#1550,#1551);
#1429=AXIS2_PLACEMENT_3D('',#1922,#1556,#1557);
#1430=AXIS2_PLACEMENT_3D('',#1928,#1561,#1562);
#1431=AXIS2_PLACEMENT_3D('',#1930,#1563,#1564);
#1432=AXIS2_PLACEMENT_3D('',#1933,#1566,#1567);
#1433=AXIS2_PLACEMENT_3D('',#1936,#1568,#1569);
#1434=AXIS2_PLACEMENT_3D('',#1940,#1571,#1572);
#1435=AXIS2_PLACEMENT_3D('',#1942,#1574,#1575);
#1436=AXIS2_PLACEMENT_3D('',#1945,#1576,#1577);
#1437=AXIS2_PLACEMENT_3D('',#1949,#1579,#1580);
#1438=AXIS2_PLACEMENT_3D('',#1951,#1582,#1583);
#1439=AXIS2_PLACEMENT_3D('',#1957,#1587,#1588);
#1440=AXIS2_PLACEMENT_3D('',#1963,#1592,#1593);
#1441=AXIS2_PLACEMENT_3D('',#1972,#1598,#1599);
#1442=AXIS2_PLACEMENT_3D('',#1981,#1604,#1605);
#1443=AXIS2_PLACEMENT_3D('',#1982,#1606,#1607);
#1444=AXIS2_PLACEMENT_3D('',#1983,#1608,#1609);
#1445=AXIS2_PLACEMENT_3D('',#1984,#1610,#1611);
#1446=AXIS2_PLACEMENT_3D('',#1986,#1612,#1613);
#1447=AXIS2_PLACEMENT_3D('',#1989,#1615,#1616);
#1448=AXIS2_PLACEMENT_3D('',#1992,#1617,#1618);
#1449=AXIS2_PLACEMENT_3D('',#1996,#1620,#1621);
#1450=AXIS2_PLACEMENT_3D('',#1998,#1623,#1624);
#1451=AXIS2_PLACEMENT_3D('',#2000,#1625,#1626);
#1452=AXIS2_PLACEMENT_3D('',#2003,#1628,#1629);
#1453=AXIS2_PLACEMENT_3D('',#2004,#1630,#1631);
#1454=AXIS2_PLACEMENT_3D('',#2006,#1632,#1633);
#1455=AXIS2_PLACEMENT_3D('',#2009,#1635,#1636);
#1456=AXIS2_PLACEMENT_3D('',#2010,#1637,#1638);
#1457=AXIS2_PLACEMENT_3D('',#2012,#1639,#1640);
#1458=AXIS2_PLACEMENT_3D('',#2016,#1642,#1643);
#1459=AXIS2_PLACEMENT_3D('',#2020,#1645,#1646);
#1460=AXIS2_PLACEMENT_3D('',#2023,#1648,#1649);
#1461=AXIS2_PLACEMENT_3D('',#2025,#1650,#1651);
#1462=AXIS2_PLACEMENT_3D('',#2028,#1653,#1654);
#1463=AXIS2_PLACEMENT_3D('',#2029,#1655,#1656);
#1464=AXIS2_PLACEMENT_3D('',#2031,#1657,#1658);
#1465=AXIS2_PLACEMENT_3D('',#2035,#1660,#1661);
#1466=AXIS2_PLACEMENT_3D('',#2039,#1663,#1664);
#1467=AXIS2_PLACEMENT_3D('',#2042,#1666,#1667);
#1468=AXIS2_PLACEMENT_3D('',#2044,#1668,#1669);
#1469=AXIS2_PLACEMENT_3D('',#2047,#1671,#1672);
#1470=AXIS2_PLACEMENT_3D('',#2048,#1673,#1674);
#1471=AXIS2_PLACEMENT_3D('',#2059,#1681,#1682);
#1472=AXIS2_PLACEMENT_3D('',#2070,#1689,#1690);
#1473=AXIS2_PLACEMENT_3D('',#2073,#1693,#1694);
#1474=AXIS2_PLACEMENT_3D('',#2076,#1697,#1698);
#1475=AXIS2_PLACEMENT_3D('',#2079,#1701,#1702);
#1476=AXIS2_PLACEMENT_3D('',#2082,#1705,#1706);
#1477=AXIS2_PLACEMENT_3D('',#2088,#1710,#1711);
#1478=AXIS2_PLACEMENT_3D('',#2106,#1721,#1722);
#1479=AXIS2_PLACEMENT_3D('',#2124,#1732,#1733);
#1480=AXIS2_PLACEMENT_3D('',#2133,#1738,#1739);
#1481=AXIS2_PLACEMENT_3D('',#2139,#1743,#1744);
#1482=AXIS2_PLACEMENT_3D('',#2145,#1748,#1749);
#1483=AXIS2_PLACEMENT_3D('',#2151,#1753,#1754);
#1484=AXIS2_PLACEMENT_3D('',#2157,#1758,#1759);
#1485=AXIS2_PLACEMENT_3D('',#2163,#1763,#1764);
#1486=AXIS2_PLACEMENT_3D('',#2169,#1768,#1769);
#1487=AXIS2_PLACEMENT_3D('',#2175,#1773,#1774);
#1488=AXIS2_PLACEMENT_3D('',#2181,#1778,#1779);
#1489=AXIS2_PLACEMENT_3D('',#2187,#1783,#1784);
#1490=AXIS2_PLACEMENT_3D('',#2193,#1788,#1789);
#1491=AXIS2_PLACEMENT_3D('',#2196,#1792,#1793);
#1492=AXIS2_PLACEMENT_3D('',#2197,#1794,#1795);
#1493=AXIS2_PLACEMENT_3D('',#2203,#1799,#1800);
#1494=AXIS2_PLACEMENT_3D('',#2208,#1804,#1805);
#1495=AXIS2_PLACEMENT_3D('',#2212,#1808,#1809);
#1496=AXIS2_PLACEMENT_3D('',#2218,#1813,#1814);
#1497=AXIS2_PLACEMENT_3D('',#2224,#1818,#1819);
#1498=AXIS2_PLACEMENT_3D('',#2230,#1823,#1824);
#1499=AXIS2_PLACEMENT_3D('',#2236,#1828,#1829);
#1500=AXIS2_PLACEMENT_3D('',#2239,#1832,#1833);
#1501=AXIS2_PLACEMENT_3D('',#2240,#1834,#1835);
#1502=AXIS2_PLACEMENT_3D('',#2243,#1838,#1839);
#1503=AXIS2_PLACEMENT_3D('',#2245,#1841,#1842);
#1504=AXIS2_PLACEMENT_3D('',#2247,#1844,#1845);
#1505=AXIS2_PLACEMENT_3D('',#2249,#1847,#1848);
#1506=AXIS2_PLACEMENT_3D('',#2251,#1850,#1851);
#1507=AXIS2_PLACEMENT_3D('',#2253,#1853,#1854);
#1508=AXIS2_PLACEMENT_3D('',#2254,#1855,#1856);
#1509=AXIS2_PLACEMENT_3D('',#2258,#1859,#1860);
#1510=AXIS2_PLACEMENT_3D('',#2262,#1863,#1864);
#1511=AXIS2_PLACEMENT_3D('',#2264,#1866,#1867);
#1512=AXIS2_PLACEMENT_3D('',#2266,#1869,#1870);
#1513=DIRECTION('axis',(0.,0.,1.));
#1514=DIRECTION('refdir',(1.,0.,0.));
#1515=DIRECTION('center_axis',(-1.,0.,-2.92163953848725E-18));
#1516=DIRECTION('ref_axis',(-2.92163953848725E-18,0.,1.));
#1517=DIRECTION('',(2.92163953848725E-18,0.,-1.));
#1518=DIRECTION('',(0.,1.,0.));
#1519=DIRECTION('',(-2.92163953848725E-18,0.,1.));
#1520=DIRECTION('',(0.,1.,0.));
#1521=DIRECTION('center_axis',(0.,0.,-1.));
#1522=DIRECTION('ref_axis',(-1.,0.,0.));
#1523=DIRECTION('',(1.,0.,0.));
#1524=DIRECTION('',(-1.,0.,0.));
#1525=DIRECTION('',(0.,1.,0.));
#1526=DIRECTION('center_axis',(1.,0.,-4.67462326157961E-17));
#1527=DIRECTION('ref_axis',(-4.67462326157961E-17,0.,-1.));
#1528=DIRECTION('',(4.67462326157961E-17,0.,1.));
#1529=DIRECTION('',(-4.67462326157961E-17,0.,-1.));
#1530=DIRECTION('',(0.,1.,0.));
#1531=DIRECTION('center_axis',(0.,0.,1.));
#1532=DIRECTION('ref_axis',(1.,0.,0.));
#1533=DIRECTION('',(-1.,0.,0.));
#1534=DIRECTION('',(1.,0.,0.));
#1535=DIRECTION('center_axis',(0.,1.,0.));
#1536=DIRECTION('ref_axis',(0.,0.,1.));
#1537=DIRECTION('center_axis',(0.,1.,0.));
#1538=DIRECTION('ref_axis',(1.,0.,0.));
#1539=DIRECTION('center_axis',(0.,0.,1.));
#1540=DIRECTION('ref_axis',(0.,-1.,0.));
#1541=DIRECTION('',(0.,-1.,0.));
#1542=DIRECTION('',(1.,0.,0.));
#1543=DIRECTION('',(0.,-1.,0.));
#1544=DIRECTION('',(1.,0.,0.));
#1545=DIRECTION('center_axis',(1.,0.,0.));
#1546=DIRECTION('ref_axis',(0.,0.,-1.));
#1547=DIRECTION('',(0.,0.,1.));
#1548=DIRECTION('',(0.,1.,0.));
#1549=DIRECTION('',(0.,0.,-1.));
#1550=DIRECTION('center_axis',(0.,0.,1.));
#1551=DIRECTION('ref_axis',(0.,1.,0.));
#1552=DIRECTION('',(0.,1.,0.));
#1553=DIRECTION('',(-1.,0.,0.));
#1554=DIRECTION('',(0.,1.,0.));
#1555=DIRECTION('',(-1.,0.,0.));
#1556=DIRECTION('center_axis',(-1.,0.,0.));
#1557=DIRECTION('ref_axis',(0.,0.,1.));
#1558=DIRECTION('',(0.,0.,1.));
#1559=DIRECTION('',(0.,-1.,0.));
#1560=DIRECTION('',(0.,0.,-1.));
#1561=DIRECTION('center_axis',(-1.,0.,0.));
#1562=DIRECTION('ref_axis',(0.,0.,-1.));
#1563=DIRECTION('center_axis',(-1.,0.,0.));
#1564=DIRECTION('ref_axis',(0.,0.,-1.));
#1565=DIRECTION('',(-1.,0.,0.));
#1566=DIRECTION('center_axis',(1.,0.,0.));
#1567=DIRECTION('ref_axis',(0.,0.,-1.));
#1568=DIRECTION('center_axis',(-1.,0.,-2.92163953848725E-18));
#1569=DIRECTION('ref_axis',(0.,0.,-1.));
#1570=DIRECTION('',(-1.,0.,0.));
#1571=DIRECTION('center_axis',(1.,0.,-4.67462326157961E-17));
#1572=DIRECTION('ref_axis',(0.,0.,-1.));
#1573=DIRECTION('',(1.,0.,0.));
#1574=DIRECTION('center_axis',(-1.,0.,0.));
#1575=DIRECTION('ref_axis',(0.,0.,1.));
#1576=DIRECTION('center_axis',(-1.,0.,-2.92163953848725E-18));
#1577=DIRECTION('ref_axis',(0.,0.,1.));
#1578=DIRECTION('',(-1.,0.,0.));
#1579=DIRECTION('center_axis',(1.,0.,0.));
#1580=DIRECTION('ref_axis',(0.,0.,1.));
#1581=DIRECTION('',(-1.,0.,0.));
#1582=DIRECTION('center_axis',(0.,0.,1.));
#1583=DIRECTION('ref_axis',(0.,1.,0.));
#1584=DIRECTION('',(0.,1.,0.));
#1585=DIRECTION('',(0.,-1.,0.));
#1586=DIRECTION('',(-1.,0.,0.));
#1587=DIRECTION('center_axis',(0.,0.,-1.));
#1588=DIRECTION('ref_axis',(0.,-1.,0.));
#1589=DIRECTION('',(0.,-1.,0.));
#1590=DIRECTION('',(1.,0.,0.));
#1591=DIRECTION('',(0.,1.,0.));
#1592=DIRECTION('center_axis',(0.,0.,-1.));
#1593=DIRECTION('ref_axis',(0.,-1.,0.));
#1594=DIRECTION('',(0.,1.,0.));
#1595=DIRECTION('',(-1.,0.,0.));
#1596=DIRECTION('',(0.,-1.,0.));
#1597=DIRECTION('',(1.,0.,0.));
#1598=DIRECTION('center_axis',(0.,0.,1.));
#1599=DIRECTION('ref_axis',(0.,1.,0.));
#1600=DIRECTION('',(0.,-1.,0.));
#1601=DIRECTION('',(-1.,0.,0.));
#1602=DIRECTION('',(0.,1.,0.));
#1603=DIRECTION('',(-1.,0.,0.));
#1604=DIRECTION('center_axis',(-1.,0.,0.));
#1605=DIRECTION('ref_axis',(0.,0.,1.));
#1606=DIRECTION('center_axis',(1.,0.,-4.67462326157961E-17));
#1607=DIRECTION('ref_axis',(0.,0.,1.));
#1608=DIRECTION('center_axis',(-1.,0.,0.));
#1609=DIRECTION('ref_axis',(0.,0.,1.));
#1610=DIRECTION('center_axis',(-1.,0.,0.));
#1611=DIRECTION('ref_axis',(0.,0.,-1.));
#1612=DIRECTION('center_axis',(-1.,0.,0.));
#1613=DIRECTION('ref_axis',(0.,0.,-1.));
#1614=DIRECTION('',(-1.,0.,0.));
#1615=DIRECTION('center_axis',(1.,0.,0.));
#1616=DIRECTION('ref_axis',(0.,0.,-1.));
#1617=DIRECTION('center_axis',(-1.,0.,-2.92163953848725E-18));
#1618=DIRECTION('ref_axis',(0.,0.,-1.));
#1619=DIRECTION('',(-1.,0.,0.));
#1620=DIRECTION('center_axis',(1.,0.,-4.67462326157961E-17));
#1621=DIRECTION('ref_axis',(0.,0.,-1.));
#1622=DIRECTION('',(1.,0.,0.));
#1623=DIRECTION('center_axis',(-1.,0.,0.));
#1624=DIRECTION('ref_axis',(0.,0.,-1.));
#1625=DIRECTION('center_axis',(-1.,0.,-2.92163953848725E-18));
#1626=DIRECTION('ref_axis',(0.,0.,-1.));
#1627=DIRECTION('',(-1.,0.,0.));
#1628=DIRECTION('center_axis',(1.,0.,0.));
#1629=DIRECTION('ref_axis',(0.,0.,-1.));
#1630=DIRECTION('center_axis',(-1.,0.,0.));
#1631=DIRECTION('ref_axis',(0.,0.,-1.));
#1632=DIRECTION('center_axis',(-1.,0.,0.));
#1633=DIRECTION('ref_axis',(0.,0.,-1.));
#1634=DIRECTION('',(-1.,0.,0.));
#1635=DIRECTION('center_axis',(1.,0.,-4.67462326157961E-17));
#1636=DIRECTION('ref_axis',(0.,0.,-1.));
#1637=DIRECTION('center_axis',(-1.,0.,0.));
#1638=DIRECTION('ref_axis',(0.,0.,-1.));
#1639=DIRECTION('center_axis',(-1.,0.,0.));
#1640=DIRECTION('ref_axis',(0.,0.,-1.));
#1641=DIRECTION('',(-1.,0.,0.));
#1642=DIRECTION('center_axis',(1.,0.,-4.67462326157961E-17));
#1643=DIRECTION('ref_axis',(0.,0.,-1.));
#1644=DIRECTION('',(1.,0.,0.));
#1645=DIRECTION('center_axis',(-1.,0.,-2.92163953848725E-18));
#1646=DIRECTION('ref_axis',(0.,0.,-1.));
#1647=DIRECTION('',(-1.,0.,0.));
#1648=DIRECTION('center_axis',(1.,0.,0.));
#1649=DIRECTION('ref_axis',(0.,0.,-1.));
#1650=DIRECTION('center_axis',(-1.,0.,-2.92163953848725E-18));
#1651=DIRECTION('ref_axis',(0.,0.,-1.));
#1652=DIRECTION('',(-1.,0.,0.));
#1653=DIRECTION('center_axis',(1.,0.,-4.67462326157961E-17));
#1654=DIRECTION('ref_axis',(0.,0.,-1.));
#1655=DIRECTION('center_axis',(-1.,0.,0.));
#1656=DIRECTION('ref_axis',(0.,0.,-1.));
#1657=DIRECTION('center_axis',(-1.,0.,0.));
#1658=DIRECTION('ref_axis',(0.,0.,-1.));
#1659=DIRECTION('',(-1.,0.,0.));
#1660=DIRECTION('center_axis',(1.,0.,-4.67462326157961E-17));
#1661=DIRECTION('ref_axis',(0.,0.,-1.));
#1662=DIRECTION('',(1.,0.,0.));
#1663=DIRECTION('center_axis',(-1.,0.,-2.92163953848725E-18));
#1664=DIRECTION('ref_axis',(0.,0.,-1.));
#1665=DIRECTION('',(-1.,0.,0.));
#1666=DIRECTION('center_axis',(1.,0.,0.));
#1667=DIRECTION('ref_axis',(0.,0.,-1.));
#1668=DIRECTION('center_axis',(-1.,0.,-2.92163953848725E-18));
#1669=DIRECTION('ref_axis',(0.,0.,-1.));
#1670=DIRECTION('',(-1.,0.,0.));
#1671=DIRECTION('center_axis',(1.,0.,-4.67462326157961E-17));
#1672=DIRECTION('ref_axis',(0.,0.,-1.));
#1673=DIRECTION('center_axis',(0.,1.,0.));
#1674=DIRECTION('ref_axis',(0.,0.,1.));
#1675=DIRECTION('',(4.67462326157961E-17,0.,1.));
#1676=DIRECTION('',(-1.,0.,0.));
#1677=DIRECTION('',(2.92163953848725E-18,0.,-1.));
#1678=DIRECTION('',(0.,0.,1.));
#1679=DIRECTION('',(1.,0.,0.));
#1680=DIRECTION('',(0.,0.,-1.));
#1681=DIRECTION('center_axis',(0.,1.,0.));
#1682=DIRECTION('ref_axis',(0.,0.,1.));
#1683=DIRECTION('',(0.,0.,-1.));
#1684=DIRECTION('',(-1.,0.,-5.16382802151236E-17));
#1685=DIRECTION('',(0.,0.,1.));
#1686=DIRECTION('',(2.92163953848725E-18,0.,-1.));
#1687=DIRECTION('',(1.,0.,0.));
#1688=DIRECTION('',(4.67462326157961E-17,0.,1.));
#1689=DIRECTION('center_axis',(0.,0.,-1.));
#1690=DIRECTION('ref_axis',(-1.,0.,0.));
#1691=DIRECTION('',(0.,1.,0.));
#1692=DIRECTION('',(0.,1.,0.));
#1693=DIRECTION('center_axis',(0.,0.,-1.));
#1694=DIRECTION('ref_axis',(-1.,0.,0.));
#1695=DIRECTION('',(0.,1.,0.));
#1696=DIRECTION('',(0.,1.,0.));
#1697=DIRECTION('center_axis',(0.,0.,1.));
#1698=DIRECTION('ref_axis',(1.,0.,0.));
#1699=DIRECTION('',(0.,1.,0.));
#1700=DIRECTION('',(0.,1.,0.));
#1701=DIRECTION('center_axis',(0.,0.,1.));
#1702=DIRECTION('ref_axis',(1.,0.,0.));
#1703=DIRECTION('',(0.,1.,0.));
#1704=DIRECTION('',(0.,1.,0.));
#1705=DIRECTION('center_axis',(-1.,0.,4.67462326157961E-17));
#1706=DIRECTION('ref_axis',(4.67462326157961E-17,0.,1.));
#1707=DIRECTION('',(0.,1.,0.));
#1708=DIRECTION('',(4.67462326157961E-17,0.,1.));
#1709=DIRECTION('',(0.,1.,0.));
#1710=DIRECTION('center_axis',(1.,0.,0.));
#1711=DIRECTION('ref_axis',(0.,0.,-1.));
#1712=DIRECTION('',(0.,1.,0.));
#1713=DIRECTION('',(0.,0.,-1.));
#1714=DIRECTION('',(0.,1.,0.));
#1715=DIRECTION('',(0.,0.,-1.));
#1716=DIRECTION('',(0.,0.508148861978286,-0.861269257590315));
#1717=DIRECTION('',(0.,1.,0.));
#1718=DIRECTION('',(0.,0.508148861978284,0.861269257590317));
#1719=DIRECTION('',(0.,0.,1.));
#1720=DIRECTION('',(0.,1.,0.));
#1721=DIRECTION('center_axis',(-1.,0.,0.));
#1722=DIRECTION('ref_axis',(0.,0.,1.));
#1723=DIRECTION('',(0.,1.,0.));
#1724=DIRECTION('',(0.,0.,1.));
#1725=DIRECTION('',(0.,-0.508148861978284,-0.861269257590317));
#1726=DIRECTION('',(0.,-1.,0.));
#1727=DIRECTION('',(0.,-0.508148861978286,0.861269257590315));
#1728=DIRECTION('',(0.,0.,-1.));
#1729=DIRECTION('',(0.,1.,0.));
#1730=DIRECTION('',(0.,0.,1.));
#1731=DIRECTION('',(0.,1.,0.));
#1732=DIRECTION('center_axis',(0.,1.,0.));
#1733=DIRECTION('ref_axis',(-1.,0.,0.));
#1734=DIRECTION('',(1.,0.,0.));
#1735=DIRECTION('',(0.,0.,1.));
#1736=DIRECTION('',(-1.,0.,0.));
#1737=DIRECTION('',(0.,0.,1.));
#1738=DIRECTION('center_axis',(1.,0.,0.));
#1739=DIRECTION('ref_axis',(0.,1.,0.));
#1740=DIRECTION('',(0.,-1.,0.));
#1741=DIRECTION('',(0.,1.,0.));
#1742=DIRECTION('',(0.,0.,1.));
#1743=DIRECTION('center_axis',(8.88178419700123E-15,1.,0.));
#1744=DIRECTION('ref_axis',(-1.,8.88178419700123E-15,0.));
#1745=DIRECTION('',(1.,-8.88178419700123E-15,0.));
#1746=DIRECTION('',(-1.,8.88178419700123E-15,0.));
#1747=DIRECTION('',(0.,0.,1.));
#1748=DIRECTION('center_axis',(1.,0.,0.));
#1749=DIRECTION('ref_axis',(0.,1.,0.));
#1750=DIRECTION('',(0.,-1.,0.));
#1751=DIRECTION('',(0.,1.,0.));
#1752=DIRECTION('',(0.,0.,1.));
#1753=DIRECTION('center_axis',(8.88178419700123E-15,-1.,0.));
#1754=DIRECTION('ref_axis',(1.,8.88178419700123E-15,0.));
#1755=DIRECTION('',(-1.,-8.88178419700123E-15,0.));
#1756=DIRECTION('',(1.,8.88178419700123E-15,0.));
#1757=DIRECTION('',(0.,0.,1.));
#1758=DIRECTION('center_axis',(1.,1.11022302462516E-15,0.));
#1759=DIRECTION('ref_axis',(-1.11022302462516E-15,1.,0.));
#1760=DIRECTION('',(1.11022302462516E-15,-1.,0.));
#1761=DIRECTION('',(-1.11022302462516E-15,1.,0.));
#1762=DIRECTION('',(0.,0.,1.));
#1763=DIRECTION('center_axis',(1.77635683940025E-14,-1.,0.));
#1764=DIRECTION('ref_axis',(1.,1.77635683940025E-14,0.));
#1765=DIRECTION('',(-1.,-1.77635683940025E-14,0.));
#1766=DIRECTION('',(1.,1.77635683940025E-14,0.));
#1767=DIRECTION('',(0.,0.,1.));
#1768=DIRECTION('center_axis',(-1.,0.,0.));
#1769=DIRECTION('ref_axis',(0.,-1.,0.));
#1770=DIRECTION('',(0.,1.,0.));
#1771=DIRECTION('',(0.,-1.,0.));
#1772=DIRECTION('',(0.,0.,1.));
#1773=DIRECTION('center_axis',(-8.88178419700123E-15,-1.,0.));
#1774=DIRECTION('ref_axis',(1.,-8.88178419700123E-15,0.));
#1775=DIRECTION('',(-1.,8.88178419700123E-15,0.));
#1776=DIRECTION('',(1.,-8.88178419700123E-15,0.));
#1777=DIRECTION('',(0.,0.,1.));
#1778=DIRECTION('center_axis',(-1.,2.22044604925032E-15,0.));
#1779=DIRECTION('ref_axis',(-2.22044604925032E-15,-1.,0.));
#1780=DIRECTION('',(2.22044604925032E-15,1.,0.));
#1781=DIRECTION('',(-2.22044604925032E-15,-1.,0.));
#1782=DIRECTION('',(0.,0.,1.));
#1783=DIRECTION('center_axis',(0.,1.,0.));
#1784=DIRECTION('ref_axis',(-1.,0.,0.));
#1785=DIRECTION('',(1.,0.,0.));
#1786=DIRECTION('',(-1.,0.,0.));
#1787=DIRECTION('',(0.,0.,1.));
#1788=DIRECTION('center_axis',(-1.,-2.2204460492503E-15,0.));
#1789=DIRECTION('ref_axis',(2.2204460492503E-15,-1.,0.));
#1790=DIRECTION('',(-2.2204460492503E-15,1.,0.));
#1791=DIRECTION('',(2.2204460492503E-15,-1.,0.));
#1792=DIRECTION('center_axis',(0.,0.,1.));
#1793=DIRECTION('ref_axis',(1.,0.,0.));
#1794=DIRECTION('center_axis',(1.,0.,0.));
#1795=DIRECTION('ref_axis',(0.,-1.,0.));
#1796=DIRECTION('',(0.,0.,-1.));
#1797=DIRECTION('',(0.,-1.,0.));
#1798=DIRECTION('',(0.,0.,-1.));
#1799=DIRECTION('center_axis',(0.,1.,0.));
#1800=DIRECTION('ref_axis',(1.,0.,0.));
#1801=DIRECTION('',(1.,0.,0.));
#1802=DIRECTION('',(0.,0.,-1.));
#1803=DIRECTION('',(1.,0.,0.));
#1804=DIRECTION('center_axis',(-1.,0.,0.));
#1805=DIRECTION('ref_axis',(0.,1.,0.));
#1806=DIRECTION('',(0.,1.,0.));
#1807=DIRECTION('',(0.,0.,-1.));
#1808=DIRECTION('center_axis',(0.,-1.,0.));
#1809=DIRECTION('ref_axis',(-1.,0.,0.));
#1810=DIRECTION('',(-1.,0.,0.));
#1811=DIRECTION('',(0.,0.,-1.));
#1812=DIRECTION('',(-1.,0.,0.));
#1813=DIRECTION('center_axis',(-1.,0.,0.));
#1814=DIRECTION('ref_axis',(0.,1.,0.));
#1815=DIRECTION('',(0.,1.,0.));
#1816=DIRECTION('',(0.,0.,-1.));
#1817=DIRECTION('',(0.,1.,0.));
#1818=DIRECTION('center_axis',(0.,-1.,0.));
#1819=DIRECTION('ref_axis',(-1.,0.,0.));
#1820=DIRECTION('',(-1.,0.,0.));
#1821=DIRECTION('',(0.,0.,-1.));
#1822=DIRECTION('',(-1.,0.,0.));
#1823=DIRECTION('center_axis',(1.,0.,0.));
#1824=DIRECTION('ref_axis',(0.,-1.,0.));
#1825=DIRECTION('',(0.,-1.,0.));
#1826=DIRECTION('',(0.,0.,-1.));
#1827=DIRECTION('',(0.,-1.,0.));
#1828=DIRECTION('center_axis',(0.,-1.,0.));
#1829=DIRECTION('ref_axis',(-1.,0.,0.));
#1830=DIRECTION('',(-1.,0.,0.));
#1831=DIRECTION('',(-1.,0.,0.));
#1832=DIRECTION('center_axis',(0.,0.,-1.));
#1833=DIRECTION('ref_axis',(-1.,0.,0.));
#1834=DIRECTION('center_axis',(0.,0.861269257590317,-0.508148861978284));
#1835=DIRECTION('ref_axis',(0.,0.508148861978284,0.861269257590317));
#1836=DIRECTION('',(1.,0.,0.));
#1837=DIRECTION('',(1.,0.,0.));
#1838=DIRECTION('center_axis',(0.,0.,-1.));
#1839=DIRECTION('ref_axis',(0.,1.,0.));
#1840=DIRECTION('',(1.,0.,0.));
#1841=DIRECTION('center_axis',(0.,-0.861269257590315,-0.508148861978286));
#1842=DIRECTION('ref_axis',(0.,0.508148861978286,-0.861269257590315));
#1843=DIRECTION('',(1.,0.,0.));
#1844=DIRECTION('center_axis',(0.,-1.,0.));
#1845=DIRECTION('ref_axis',(0.,0.,-1.));
#1846=DIRECTION('',(1.,0.,5.16382802151236E-17));
#1847=DIRECTION('center_axis',(0.,1.,0.));
#1848=DIRECTION('ref_axis',(0.,0.,1.));
#1849=DIRECTION('',(-1.,0.,-5.16382802151236E-17));
#1850=DIRECTION('center_axis',(5.16382802151236E-17,0.,-1.));
#1851=DIRECTION('ref_axis',(-1.,0.,-5.16382802151236E-17));
#1852=DIRECTION('',(-1.,0.,-5.16382802151236E-17));
#1853=DIRECTION('center_axis',(5.16382802151236E-17,0.,-1.));
#1854=DIRECTION('ref_axis',(-1.,0.,-5.16382802151236E-17));
#1855=DIRECTION('center_axis',(0.,0.,1.));
#1856=DIRECTION('ref_axis',(1.,0.,0.));
#1857=DIRECTION('',(0.,1.,0.));
#1858=DIRECTION('',(1.,0.,0.));
#1859=DIRECTION('center_axis',(1.,0.,2.92163953848725E-18));
#1860=DIRECTION('ref_axis',(2.92163953848725E-18,0.,-1.));
#1861=DIRECTION('',(0.,1.,0.));
#1862=DIRECTION('',(2.92163953848725E-18,0.,-1.));
#1863=DIRECTION('center_axis',(0.,0.,-1.));
#1864=DIRECTION('ref_axis',(-1.,0.,0.));
#1865=DIRECTION('',(-1.,0.,0.));
#1866=DIRECTION('center_axis',(0.,0.,1.));
#1867=DIRECTION('ref_axis',(1.,0.,0.));
#1868=DIRECTION('',(1.,0.,0.));
#1869=DIRECTION('center_axis',(0.,1.,0.));
#1870=DIRECTION('ref_axis',(1.,0.,0.));
#1871=CARTESIAN_POINT('',(0.,0.,0.));
#1872=CARTESIAN_POINT('Origin',(2.,0.,10.));
#1873=CARTESIAN_POINT('',(2.,0.,105.));
#1874=CARTESIAN_POINT('',(2.,0.,10.));
#1875=CARTESIAN_POINT('',(2.,0.,105.));
#1876=CARTESIAN_POINT('',(2.,3.,105.));
#1877=CARTESIAN_POINT('',(2.,0.,105.));
#1878=CARTESIAN_POINT('',(2.,3.,10.));
#1879=CARTESIAN_POINT('',(2.,3.,105.));
#1880=CARTESIAN_POINT('',(2.,0.,10.));
#1881=CARTESIAN_POINT('Origin',(19.5,0.,10.));
#1882=CARTESIAN_POINT('',(19.5,0.,10.));
#1883=CARTESIAN_POINT('',(2.,0.,10.));
#1884=CARTESIAN_POINT('',(19.5,3.,10.));
#1885=CARTESIAN_POINT('',(2.,3.,10.));
#1886=CARTESIAN_POINT('',(19.5,0.,10.));
#1887=CARTESIAN_POINT('Origin',(19.5,0.,105.));
#1888=CARTESIAN_POINT('',(19.5,0.,105.));
#1889=CARTESIAN_POINT('',(19.5,0.,10.));
#1890=CARTESIAN_POINT('',(19.5,3.,105.));
#1891=CARTESIAN_POINT('',(19.5,3.,10.));
#1892=CARTESIAN_POINT('',(19.5,0.,105.));
#1893=CARTESIAN_POINT('Origin',(2.,0.,105.));
#1894=CARTESIAN_POINT('',(19.5,0.,105.));
#1895=CARTESIAN_POINT('',(19.5,3.,105.));
#1896=CARTESIAN_POINT('Origin',(10.75,3.,57.5));
#1897=CARTESIAN_POINT('Origin',(10.75,0.,57.5));
#1898=CARTESIAN_POINT('Origin',(19.,127.5,119.5));
#1899=CARTESIAN_POINT('',(19.,127.5,119.5));
#1900=CARTESIAN_POINT('',(19.,116.9,119.5));
#1901=CARTESIAN_POINT('',(19.,127.5,119.5));
#1902=CARTESIAN_POINT('',(20.5,127.5,119.5));
#1903=CARTESIAN_POINT('',(19.,127.5,119.5));
#1904=CARTESIAN_POINT('',(20.5,116.9,119.5));
#1905=CARTESIAN_POINT('',(20.5,116.9,119.5));
#1906=CARTESIAN_POINT('',(19.,116.9,119.5));
#1907=CARTESIAN_POINT('Origin',(20.5,122.2,115.));
#1908=CARTESIAN_POINT('',(20.5,127.5,107.5));
#1909=CARTESIAN_POINT('',(20.5,127.5,119.5));
#1910=CARTESIAN_POINT('',(20.5,116.9,107.5));
#1911=CARTESIAN_POINT('',(20.5,127.5,107.5));
#1912=CARTESIAN_POINT('',(20.5,116.9,119.5));
#1913=CARTESIAN_POINT('Origin',(2.5,116.9,119.5));
#1914=CARTESIAN_POINT('',(2.5,116.9,119.5));
#1915=CARTESIAN_POINT('',(2.5,127.5,119.5));
#1916=CARTESIAN_POINT('',(2.5,116.9,119.5));
#1917=CARTESIAN_POINT('',(1.,116.9,119.5));
#1918=CARTESIAN_POINT('',(2.5,116.9,119.5));
#1919=CARTESIAN_POINT('',(1.,127.5,119.5));
#1920=CARTESIAN_POINT('',(1.,127.5,119.5));
#1921=CARTESIAN_POINT('',(2.5,127.5,119.5));
#1922=CARTESIAN_POINT('Origin',(1.,122.2,115.));
#1923=CARTESIAN_POINT('',(1.,116.9,107.5));
#1924=CARTESIAN_POINT('',(1.,116.9,107.5));
#1925=CARTESIAN_POINT('',(1.,127.5,107.5));
#1926=CARTESIAN_POINT('',(1.,116.9,107.5));
#1927=CARTESIAN_POINT('',(1.,127.5,107.5));
#1928=CARTESIAN_POINT('Origin',(21.5,25.,97.5));
#1929=CARTESIAN_POINT('',(21.5,25.,110.));
#1930=CARTESIAN_POINT('Origin',(21.5,25.,97.5));
#1931=CARTESIAN_POINT('',(4.44089209850063E-15,25.,110.));
#1932=CARTESIAN_POINT('',(21.5,25.,110.));
#1933=CARTESIAN_POINT('Origin',(0.,25.,97.5));
#1934=CARTESIAN_POINT('',(2.,35.,105.));
#1935=CARTESIAN_POINT('',(2.,15.,105.));
#1936=CARTESIAN_POINT('Origin',(2.,25.,97.5));
#1937=CARTESIAN_POINT('',(19.5,35.,105.));
#1938=CARTESIAN_POINT('',(21.5,35.,105.));
#1939=CARTESIAN_POINT('',(19.5,15.,105.));
#1940=CARTESIAN_POINT('Origin',(19.5,25.,97.5));
#1941=CARTESIAN_POINT('',(21.5,15.,105.));
#1942=CARTESIAN_POINT('Origin',(21.5,70.,57.5));
#1943=CARTESIAN_POINT('',(2.,70.,42.5));
#1944=CARTESIAN_POINT('',(2.,70.,72.5));
#1945=CARTESIAN_POINT('Origin',(2.,70.,57.5));
#1946=CARTESIAN_POINT('',(4.44089209850063E-15,70.,42.5));
#1947=CARTESIAN_POINT('',(21.5,70.,42.5));
#1948=CARTESIAN_POINT('',(4.44089209850063E-15,70.,72.5));
#1949=CARTESIAN_POINT('Origin',(0.,70.,57.5));
#1950=CARTESIAN_POINT('',(21.5,70.,72.5));
#1951=CARTESIAN_POINT('Origin',(21.5,70.,72.5));
#1952=CARTESIAN_POINT('',(2.,130.,72.5));
#1953=CARTESIAN_POINT('',(2.,35.,72.5));
#1954=CARTESIAN_POINT('',(4.44089209850063E-15,130.,72.5));
#1955=CARTESIAN_POINT('',(0.,35.,72.5));
#1956=CARTESIAN_POINT('',(16.125,130.,72.5));
#1957=CARTESIAN_POINT('Origin',(21.5,130.,42.5));
#1958=CARTESIAN_POINT('',(2.,130.,42.5));
#1959=CARTESIAN_POINT('',(2.,65.,42.5));
#1960=CARTESIAN_POINT('',(4.44089209850063E-15,130.,42.5));
#1961=CARTESIAN_POINT('',(16.125,130.,42.5));
#1962=CARTESIAN_POINT('',(0.,65.,42.5));
#1963=CARTESIAN_POINT('Origin',(21.5,130.,42.5));
#1964=CARTESIAN_POINT('',(19.5,70.,42.5));
#1965=CARTESIAN_POINT('',(19.5,130.,42.5));
#1966=CARTESIAN_POINT('',(19.5,65.,42.5));
#1967=CARTESIAN_POINT('',(21.5,70.,42.5));
#1968=CARTESIAN_POINT('',(21.5,70.,42.5));
#1969=CARTESIAN_POINT('',(21.5,130.,42.5));
#1970=CARTESIAN_POINT('',(21.5,65.,42.5));
#1971=CARTESIAN_POINT('',(16.125,130.,42.5));
#1972=CARTESIAN_POINT('Origin',(21.5,70.,72.5));
#1973=CARTESIAN_POINT('',(19.5,130.,72.5));
#1974=CARTESIAN_POINT('',(19.5,70.,72.5));
#1975=CARTESIAN_POINT('',(19.5,35.,72.5));
#1976=CARTESIAN_POINT('',(21.5,130.,72.5));
#1977=CARTESIAN_POINT('',(16.125,130.,72.5));
#1978=CARTESIAN_POINT('',(21.5,70.,72.5));
#1979=CARTESIAN_POINT('',(21.5,35.,72.5));
#1980=CARTESIAN_POINT('',(21.5,70.,72.5));
#1981=CARTESIAN_POINT('Origin',(21.5,70.,57.5));
#1982=CARTESIAN_POINT('Origin',(19.5,70.,57.5));
#1983=CARTESIAN_POINT('Origin',(21.5,70.,57.5));
#1984=CARTESIAN_POINT('Origin',(21.5,70.,97.5));
#1985=CARTESIAN_POINT('',(21.5,70.,110.));
#1986=CARTESIAN_POINT('Origin',(21.5,70.,97.5));
#1987=CARTESIAN_POINT('',(4.44089209850063E-15,70.,110.));
#1988=CARTESIAN_POINT('',(21.5,70.,110.));
#1989=CARTESIAN_POINT('Origin',(0.,70.,97.5));
#1990=CARTESIAN_POINT('',(2.,80.,105.));
#1991=CARTESIAN_POINT('',(2.,60.,105.));
#1992=CARTESIAN_POINT('Origin',(2.,70.,97.5));
#1993=CARTESIAN_POINT('',(19.5,80.,105.));
#1994=CARTESIAN_POINT('',(21.5,80.,105.));
#1995=CARTESIAN_POINT('',(19.5,60.,105.));
#1996=CARTESIAN_POINT('Origin',(19.5,70.,97.5));
#1997=CARTESIAN_POINT('',(21.5,60.,105.));
#1998=CARTESIAN_POINT('Origin',(21.5,25.,57.5));
#1999=CARTESIAN_POINT('',(2.,25.,70.));
#2000=CARTESIAN_POINT('Origin',(2.,25.,57.5));
#2001=CARTESIAN_POINT('',(4.44089209850063E-15,25.,70.));
#2002=CARTESIAN_POINT('',(21.5,25.,70.));
#2003=CARTESIAN_POINT('Origin',(0.,25.,57.5));
#2004=CARTESIAN_POINT('Origin',(21.5,25.,57.5));
#2005=CARTESIAN_POINT('',(21.5,25.,70.));
#2006=CARTESIAN_POINT('Origin',(21.5,25.,57.5));
#2007=CARTESIAN_POINT('',(19.5,25.,70.));
#2008=CARTESIAN_POINT('',(21.5,25.,70.));
#2009=CARTESIAN_POINT('Origin',(19.5,25.,57.5));
#2010=CARTESIAN_POINT('Origin',(21.5,25.,17.5));
#2011=CARTESIAN_POINT('',(21.5,25.,30.));
#2012=CARTESIAN_POINT('Origin',(21.5,25.,17.5));
#2013=CARTESIAN_POINT('',(19.5,25.,30.));
#2014=CARTESIAN_POINT('',(21.5,25.,30.));
#2015=CARTESIAN_POINT('',(19.5,35.,10.));
#2016=CARTESIAN_POINT('Origin',(19.5,25.,17.5));
#2017=CARTESIAN_POINT('',(2.,35.,10.));
#2018=CARTESIAN_POINT('',(21.5,35.,10.));
#2019=CARTESIAN_POINT('',(2.,25.,30.));
#2020=CARTESIAN_POINT('Origin',(2.,25.,17.5));
#2021=CARTESIAN_POINT('',(4.44089209850063E-15,25.,30.));
#2022=CARTESIAN_POINT('',(21.5,25.,30.));
#2023=CARTESIAN_POINT('Origin',(0.,25.,17.5));
#2024=CARTESIAN_POINT('',(2.,15.,10.));
#2025=CARTESIAN_POINT('Origin',(2.,25.,17.5));
#2026=CARTESIAN_POINT('',(19.5,15.,10.));
#2027=CARTESIAN_POINT('',(21.5,15.,10.));
#2028=CARTESIAN_POINT('Origin',(19.5,25.,17.5));
#2029=CARTESIAN_POINT('Origin',(21.5,70.,17.5));
#2030=CARTESIAN_POINT('',(21.5,70.,30.));
#2031=CARTESIAN_POINT('Origin',(21.5,70.,17.5));
#2032=CARTESIAN_POINT('',(19.5,70.,30.));
#2033=CARTESIAN_POINT('',(21.5,70.,30.));
#2034=CARTESIAN_POINT('',(19.5,80.,10.));
#2035=CARTESIAN_POINT('Origin',(19.5,70.,17.5));
#2036=CARTESIAN_POINT('',(2.,80.,10.));
#2037=CARTESIAN_POINT('',(21.5,80.,10.));
#2038=CARTESIAN_POINT('',(2.,70.,30.));
#2039=CARTESIAN_POINT('Origin',(2.,70.,17.5));
#2040=CARTESIAN_POINT('',(4.44089209850063E-15,70.,30.));
#2041=CARTESIAN_POINT('',(21.5,70.,30.));
#2042=CARTESIAN_POINT('Origin',(0.,70.,17.5));
#2043=CARTESIAN_POINT('',(2.,60.,10.));
#2044=CARTESIAN_POINT('Origin',(2.,70.,17.5));
#2045=CARTESIAN_POINT('',(19.5,60.,10.));
#2046=CARTESIAN_POINT('',(21.5,60.,10.));
#2047=CARTESIAN_POINT('Origin',(19.5,70.,17.5));
#2048=CARTESIAN_POINT('Origin',(10.75,130.,57.5));
#2049=CARTESIAN_POINT('',(19.5,130.,105.));
#2050=CARTESIAN_POINT('',(19.5,130.,10.));
#2051=CARTESIAN_POINT('',(2.,130.,105.));
#2052=CARTESIAN_POINT('',(19.5,130.,105.));
#2053=CARTESIAN_POINT('',(2.,130.,105.));
#2054=CARTESIAN_POINT('',(0.,130.,122.5));
#2055=CARTESIAN_POINT('',(2.18300689066511E-17,130.,-7.5));
#2056=CARTESIAN_POINT('',(21.5,130.,122.5));
#2057=CARTESIAN_POINT('',(2.18300689066511E-17,130.,122.5));
#2058=CARTESIAN_POINT('',(21.5,130.,122.5));
#2059=CARTESIAN_POINT('Origin',(10.75,130.,57.5));
#2060=CARTESIAN_POINT('',(21.5,130.,-7.5));
#2061=CARTESIAN_POINT('',(21.5,130.,122.5));
#2062=CARTESIAN_POINT('',(0.,130.,-7.5));
#2063=CARTESIAN_POINT('',(21.5,130.,-7.5));
#2064=CARTESIAN_POINT('',(2.18300689066511E-17,130.,-7.5));
#2065=CARTESIAN_POINT('',(2.,130.,10.));
#2066=CARTESIAN_POINT('',(2.,130.,105.));
#2067=CARTESIAN_POINT('',(19.5,130.,10.));
#2068=CARTESIAN_POINT('',(2.,130.,10.));
#2069=CARTESIAN_POINT('',(19.5,130.,10.));
#2070=CARTESIAN_POINT('Origin',(19.5,0.,105.));
#2071=CARTESIAN_POINT('',(2.,0.,105.));
#2072=CARTESIAN_POINT('',(19.5,0.,105.));
#2073=CARTESIAN_POINT('Origin',(19.5,0.,105.));
#2074=CARTESIAN_POINT('',(2.,0.,105.));
#2075=CARTESIAN_POINT('',(19.5,0.,105.));
#2076=CARTESIAN_POINT('Origin',(2.,0.,10.));
#2077=CARTESIAN_POINT('',(19.5,0.,10.));
#2078=CARTESIAN_POINT('',(2.,0.,10.));
#2079=CARTESIAN_POINT('Origin',(2.,0.,10.));
#2080=CARTESIAN_POINT('',(19.5,0.,10.));
#2081=CARTESIAN_POINT('',(2.,0.,10.));
#2082=CARTESIAN_POINT('Origin',(19.5,0.,10.));
#2083=CARTESIAN_POINT('',(19.5,0.,10.));
#2084=CARTESIAN_POINT('',(19.5,0.,10.));
#2085=CARTESIAN_POINT('',(19.5,0.,105.));
#2086=CARTESIAN_POINT('',(19.5,0.,10.));
#2087=CARTESIAN_POINT('',(19.5,0.,105.));
#2088=CARTESIAN_POINT('Origin',(21.5,0.,122.5));
#2089=CARTESIAN_POINT('',(21.5,0.,122.5));
#2090=CARTESIAN_POINT('',(21.5,0.,122.5));
#2091=CARTESIAN_POINT('',(21.5,0.,-7.5));
#2092=CARTESIAN_POINT('',(21.5,0.,122.5));
#2093=CARTESIAN_POINT('',(21.5,117.1,-7.5));
#2094=CARTESIAN_POINT('',(21.5,0.,-7.5));
#2095=CARTESIAN_POINT('',(21.5,117.1,-11.));
#2096=CARTESIAN_POINT('',(21.5,117.1,-7.5));
#2097=CARTESIAN_POINT('',(21.5,120.05,-16.));
#2098=CARTESIAN_POINT('',(21.5,120.05,-16.));
#2099=CARTESIAN_POINT('',(21.5,124.55,-16.));
#2100=CARTESIAN_POINT('',(21.5,124.55,-16.));
#2101=CARTESIAN_POINT('',(21.5,127.5,-11.));
#2102=CARTESIAN_POINT('',(21.5,127.5,-11.));
#2103=CARTESIAN_POINT('',(21.5,127.5,-7.5));
#2104=CARTESIAN_POINT('',(21.5,127.5,-11.));
#2105=CARTESIAN_POINT('',(21.5,0.,-7.5));
#2106=CARTESIAN_POINT('Origin',(2.18300689066511E-17,0.,-7.5));
#2107=CARTESIAN_POINT('',(0.,127.5,-7.5));
#2108=CARTESIAN_POINT('',(0.,0.,-7.5));
#2109=CARTESIAN_POINT('',(0.,127.5,-11.));
#2110=CARTESIAN_POINT('',(0.,127.5,-11.));
#2111=CARTESIAN_POINT('',(0.,124.55,-16.));
#2112=CARTESIAN_POINT('',(0.,127.5,-11.));
#2113=CARTESIAN_POINT('',(0.,120.05,-16.));
#2114=CARTESIAN_POINT('',(0.,124.55,-16.));
#2115=CARTESIAN_POINT('',(0.,117.1,-11.));
#2116=CARTESIAN_POINT('',(0.,120.05,-16.));
#2117=CARTESIAN_POINT('',(0.,117.1,-7.5));
#2118=CARTESIAN_POINT('',(0.,117.1,-7.5));
#2119=CARTESIAN_POINT('',(0.,0.,-7.5));
#2120=CARTESIAN_POINT('',(0.,0.,-7.5));
#2121=CARTESIAN_POINT('',(2.18300689066511E-17,0.,122.5));
#2122=CARTESIAN_POINT('',(2.18300689066511E-17,0.,-7.5));
#2123=CARTESIAN_POINT('',(2.18300689066511E-17,0.,122.5));
#2124=CARTESIAN_POINT('Origin',(11.25,124.7,107.5));
#2125=CARTESIAN_POINT('',(10.25,124.7,107.5));
#2126=CARTESIAN_POINT('',(11.25,124.7,107.5));
#2127=CARTESIAN_POINT('',(11.,124.7,107.5));
#2128=CARTESIAN_POINT('',(10.25,124.7,115.));
#2129=CARTESIAN_POINT('',(10.25,124.7,107.5));
#2130=CARTESIAN_POINT('',(11.25,124.7,115.));
#2131=CARTESIAN_POINT('',(10.25,124.7,115.));
#2132=CARTESIAN_POINT('',(11.25,124.7,107.5));
#2133=CARTESIAN_POINT('Origin',(11.25,122.7,107.5));
#2134=CARTESIAN_POINT('',(11.25,122.7,107.5));
#2135=CARTESIAN_POINT('',(11.25,121.7,107.5));
#2136=CARTESIAN_POINT('',(11.25,122.7,115.));
#2137=CARTESIAN_POINT('',(11.25,124.7,115.));
#2138=CARTESIAN_POINT('',(11.25,122.7,107.5));
#2139=CARTESIAN_POINT('Origin',(13.25,122.7,107.5));
#2140=CARTESIAN_POINT('',(13.25,122.7,107.5));
#2141=CARTESIAN_POINT('',(12.,122.7,107.5));
#2142=CARTESIAN_POINT('',(13.25,122.7,115.));
#2143=CARTESIAN_POINT('',(13.25,122.7,115.));
#2144=CARTESIAN_POINT('',(13.25,122.7,107.5));
#2145=CARTESIAN_POINT('Origin',(13.25,121.7,107.5));
#2146=CARTESIAN_POINT('',(13.25,121.7,107.5));
#2147=CARTESIAN_POINT('',(13.25,121.2,107.5));
#2148=CARTESIAN_POINT('',(13.25,121.7,115.));
#2149=CARTESIAN_POINT('',(13.25,121.7,115.));
#2150=CARTESIAN_POINT('',(13.25,121.7,107.5));
#2151=CARTESIAN_POINT('Origin',(11.25,121.7,107.5));
#2152=CARTESIAN_POINT('',(11.25,121.7,107.5));
#2153=CARTESIAN_POINT('',(11.,121.7,107.5));
#2154=CARTESIAN_POINT('',(11.25,121.7,115.));
#2155=CARTESIAN_POINT('',(11.25,121.7,115.));
#2156=CARTESIAN_POINT('',(11.25,121.7,107.5));
#2157=CARTESIAN_POINT('Origin',(11.25,119.7,107.5));
#2158=CARTESIAN_POINT('',(11.25,119.7,107.5));
#2159=CARTESIAN_POINT('',(11.25,120.2,107.5));
#2160=CARTESIAN_POINT('',(11.25,119.7,115.));
#2161=CARTESIAN_POINT('',(11.25,119.7,115.));
#2162=CARTESIAN_POINT('',(11.25,119.7,107.5));
#2163=CARTESIAN_POINT('Origin',(10.25,119.7,107.5));
#2164=CARTESIAN_POINT('',(10.25,119.7,107.5));
#2165=CARTESIAN_POINT('',(10.5,119.7,107.5));
#2166=CARTESIAN_POINT('',(10.25,119.7,115.));
#2167=CARTESIAN_POINT('',(10.25,119.7,115.));
#2168=CARTESIAN_POINT('',(10.25,119.7,107.5));
#2169=CARTESIAN_POINT('Origin',(10.25,121.7,107.5));
#2170=CARTESIAN_POINT('',(10.25,121.7,107.5));
#2171=CARTESIAN_POINT('',(10.25,121.2,107.5));
#2172=CARTESIAN_POINT('',(10.25,121.7,115.));
#2173=CARTESIAN_POINT('',(10.25,121.7,115.));
#2174=CARTESIAN_POINT('',(10.25,121.7,107.5));
#2175=CARTESIAN_POINT('Origin',(8.25,121.7,107.5));
#2176=CARTESIAN_POINT('',(8.25,121.7,107.5));
#2177=CARTESIAN_POINT('',(9.5,121.7,107.5));
#2178=CARTESIAN_POINT('',(8.25,121.7,115.));
#2179=CARTESIAN_POINT('',(8.25,121.7,115.));
#2180=CARTESIAN_POINT('',(8.25,121.7,107.5));
#2181=CARTESIAN_POINT('Origin',(8.25,122.7,107.5));
#2182=CARTESIAN_POINT('',(8.25,122.7,107.5));
#2183=CARTESIAN_POINT('',(8.25,121.7,107.5));
#2184=CARTESIAN_POINT('',(8.25,122.7,115.));
#2185=CARTESIAN_POINT('',(8.25,122.7,115.));
#2186=CARTESIAN_POINT('',(8.25,122.7,107.5));
#2187=CARTESIAN_POINT('Origin',(10.25,122.7,107.5));
#2188=CARTESIAN_POINT('',(10.25,122.7,107.5));
#2189=CARTESIAN_POINT('',(10.5,122.7,107.5));
#2190=CARTESIAN_POINT('',(10.25,122.7,115.));
#2191=CARTESIAN_POINT('',(10.25,122.7,115.));
#2192=CARTESIAN_POINT('',(10.25,122.7,107.5));
#2193=CARTESIAN_POINT('Origin',(10.25,124.7,107.5));
#2194=CARTESIAN_POINT('',(10.25,122.7,107.5));
#2195=CARTESIAN_POINT('',(10.25,124.7,115.));
#2196=CARTESIAN_POINT('Origin',(10.75,122.2,115.));
#2197=CARTESIAN_POINT('Origin',(19.,127.5,122.5));
#2198=CARTESIAN_POINT('',(19.,116.9,122.5));
#2199=CARTESIAN_POINT('',(19.,116.9,122.5));
#2200=CARTESIAN_POINT('',(19.,127.5,122.5));
#2201=CARTESIAN_POINT('',(19.,63.75,122.5));
#2202=CARTESIAN_POINT('',(19.,127.5,122.5));
#2203=CARTESIAN_POINT('Origin',(2.5,127.5,122.5));
#2204=CARTESIAN_POINT('',(2.5,127.5,122.5));
#2205=CARTESIAN_POINT('',(1.25,127.5,122.5));
#2206=CARTESIAN_POINT('',(2.5,127.5,122.5));
#2207=CARTESIAN_POINT('',(19.,127.5,107.5));
#2208=CARTESIAN_POINT('Origin',(2.5,116.9,122.5));
#2209=CARTESIAN_POINT('',(2.5,116.9,122.5));
#2210=CARTESIAN_POINT('',(2.5,58.45,122.5));
#2211=CARTESIAN_POINT('',(2.5,116.9,122.5));
#2212=CARTESIAN_POINT('Origin',(9.375,116.9,122.5));
#2213=CARTESIAN_POINT('',(9.375,116.9,122.5));
#2214=CARTESIAN_POINT('',(4.6875,116.9,122.5));
#2215=CARTESIAN_POINT('',(9.375,116.9,107.5));
#2216=CARTESIAN_POINT('',(9.375,116.9,122.5));
#2217=CARTESIAN_POINT('',(2.5,116.9,107.5));
#2218=CARTESIAN_POINT('Origin',(9.375,113.9,122.5));
#2219=CARTESIAN_POINT('',(9.375,113.9,122.5));
#2220=CARTESIAN_POINT('',(9.375,56.95,122.5));
#2221=CARTESIAN_POINT('',(9.375,113.9,107.5));
#2222=CARTESIAN_POINT('',(9.375,113.9,122.5));
#2223=CARTESIAN_POINT('',(9.375,116.9,107.5));
#2224=CARTESIAN_POINT('Origin',(12.125,113.9,122.5));
#2225=CARTESIAN_POINT('',(12.125,113.9,122.5));
#2226=CARTESIAN_POINT('',(6.0625,113.9,122.5));
#2227=CARTESIAN_POINT('',(12.125,113.9,107.5));
#2228=CARTESIAN_POINT('',(12.125,113.9,122.5));
#2229=CARTESIAN_POINT('',(9.375,113.9,107.5));
#2230=CARTESIAN_POINT('Origin',(12.125,116.9,122.5));
#2231=CARTESIAN_POINT('',(12.125,116.9,122.5));
#2232=CARTESIAN_POINT('',(12.125,58.45,122.5));
#2233=CARTESIAN_POINT('',(12.125,116.9,107.5));
#2234=CARTESIAN_POINT('',(12.125,116.9,122.5));
#2235=CARTESIAN_POINT('',(12.125,113.9,107.5));
#2236=CARTESIAN_POINT('Origin',(19.,116.9,122.5));
#2237=CARTESIAN_POINT('',(9.5,116.9,122.5));
#2238=CARTESIAN_POINT('',(12.125,116.9,107.5));
#2239=CARTESIAN_POINT('Origin',(10.75,120.7,107.5));
#2240=CARTESIAN_POINT('Origin',(0.,124.55,-16.));
#2241=CARTESIAN_POINT('',(0.,127.5,-11.));
#2242=CARTESIAN_POINT('',(0.,124.55,-16.));
#2243=CARTESIAN_POINT('Origin',(0.,120.05,-16.));
#2244=CARTESIAN_POINT('',(0.,120.05,-16.));
#2245=CARTESIAN_POINT('Origin',(0.,117.1,-11.));
#2246=CARTESIAN_POINT('',(0.,117.1,-11.));
#2247=CARTESIAN_POINT('Origin',(0.,117.1,-7.5));
#2248=CARTESIAN_POINT('',(10.75,117.1,-7.5));
#2249=CARTESIAN_POINT('Origin',(0.,127.5,-11.));
#2250=CARTESIAN_POINT('',(10.75,127.5,-7.5));
#2251=CARTESIAN_POINT('Origin',(21.5,0.,-7.5));
#2252=CARTESIAN_POINT('',(21.5,0.,-7.5));
#2253=CARTESIAN_POINT('Origin',(21.5,0.,-7.5));
#2254=CARTESIAN_POINT('Origin',(2.,0.,10.));
#2255=CARTESIAN_POINT('',(2.,0.,10.));
#2256=CARTESIAN_POINT('',(2.,0.,10.));
#2257=CARTESIAN_POINT('',(2.,0.,10.));
#2258=CARTESIAN_POINT('Origin',(2.,0.,105.));
#2259=CARTESIAN_POINT('',(2.,0.,105.));
#2260=CARTESIAN_POINT('',(2.,0.,105.));
#2261=CARTESIAN_POINT('',(2.,0.,105.));
#2262=CARTESIAN_POINT('Origin',(19.5,0.,105.));
#2263=CARTESIAN_POINT('',(19.5,0.,105.));
#2264=CARTESIAN_POINT('Origin',(2.18300689066511E-17,0.,122.5));
#2265=CARTESIAN_POINT('',(2.18300689066511E-17,0.,122.5));
#2266=CARTESIAN_POINT('Origin',(10.75,0.,57.5));
#2267=UNCERTAINTY_MEASURE_WITH_UNIT(LENGTH_MEASURE(0.01),#2271,
'DISTANCE_ACCURACY_VALUE',
'Maximum model space distance between geometric entities at asserted c
onnectivities');
#2268=UNCERTAINTY_MEASURE_WITH_UNIT(LENGTH_MEASURE(0.01),#2271,
'DISTANCE_ACCURACY_VALUE',
'Maximum model space distance between geometric entities at asserted c
onnectivities');
#2269=(
GEOMETRIC_REPRESENTATION_CONTEXT(3)
GLOBAL_UNCERTAINTY_ASSIGNED_CONTEXT((#2267))
GLOBAL_UNIT_ASSIGNED_CONTEXT((#2271,#2273,#2274))
REPRESENTATION_CONTEXT('','3D')
);
#2270=(
GEOMETRIC_REPRESENTATION_CONTEXT(3)
GLOBAL_UNCERTAINTY_ASSIGNED_CONTEXT((#2268))
GLOBAL_UNIT_ASSIGNED_CONTEXT((#2271,#2273,#2274))
REPRESENTATION_CONTEXT('','3D')
);
#2271=(
LENGTH_UNIT()
NAMED_UNIT(*)
SI_UNIT(.MILLI.,.METRE.)
);
#2272=(
LENGTH_UNIT()
NAMED_UNIT(*)
SI_UNIT($,.METRE.)
);
#2273=(
NAMED_UNIT(*)
PLANE_ANGLE_UNIT()
SI_UNIT($,.RADIAN.)
);
#2274=(
NAMED_UNIT(*)
SI_UNIT($,.STERADIAN.)
SOLID_ANGLE_UNIT()
);
#2275=SHAPE_DEFINITION_REPRESENTATION(#2276,#2277);
#2276=PRODUCT_DEFINITION_SHAPE('',$,#2279);
#2277=SHAPE_REPRESENTATION('',(#1419),#2269);
#2278=PRODUCT_DEFINITION_CONTEXT('part definition',#2283,'design');
#2279=PRODUCT_DEFINITION('honda_cup_holder_holder',
'honda_cup_holder_holder v2',#2280,#2278);
#2280=PRODUCT_DEFINITION_FORMATION('',$,#2285);
#2281=PRODUCT_RELATED_PRODUCT_CATEGORY('honda_cup_holder_holder v2',
'honda_cup_holder_holder v2',(#2285));
#2282=APPLICATION_PROTOCOL_DEFINITION('international standard',
'automotive_design',2009,#2283);
#2283=APPLICATION_CONTEXT(
'Core Data for Automotive Mechanical Design Process');
#2284=PRODUCT_CONTEXT('part definition',#2283,'mechanical');
#2285=PRODUCT('honda_cup_holder_holder','honda_cup_holder_holder v2',$,
(#2284));
#2286=PRESENTATION_STYLE_ASSIGNMENT((#2287));
#2287=SURFACE_STYLE_USAGE(.BOTH.,#2288);
#2288=SURFACE_SIDE_STYLE('',(#2289));
#2289=SURFACE_STYLE_FILL_AREA(#2290);
#2290=FILL_AREA_STYLE('Steel - Satin',(#2291));
#2291=FILL_AREA_STYLE_COLOUR('Steel - Satin',#2292);
#2292=COLOUR_RGB('Steel - Satin',0.627450980392157,0.627450980392157,0.627450980392157);
ENDSEC;
END-ISO-10303-21;
