ISO-10303-21;
HEADER;
/* Generated by software containing ST-Developer
 * from STEP Tools, Inc. (www.steptools.com) 
 */

FILE_DESCRIPTION(
/* description */ (''),
/* implementation_level */ '2;1');

FILE_NAME(
/* name */ 'bruh_decora_1_v1.step',
/* time_stamp */ '2026-03-17T23:33:45-04:00',
/* author */ (''),
/* organization */ (''),
/* preprocessor_version */ 'ST-DEVELOPER v20.1',
/* originating_system */ 'Autodesk Translation Framework v14.24.0.0',
/* authorisation */ '');

FILE_SCHEMA (('AUTOMOTIVE_DESIGN { 1 0 10303 214 3 1 1 }'));
ENDSEC;

DATA;
#10=MECHANICAL_DESIGN_GEOMETRIC_PRESENTATION_REPRESENTATION('',(#13),#1889);
#11=SHAPE_REPRESENTATION_RELATIONSHIP('SRR','None',#1896,#12);
#12=ADVANCED_BREP_SHAPE_REPRESENTATION('',(#14),#1888);
#13=STYLED_ITEM('',(#1905),#14);
#14=MANIFOLD_SOLID_BREP('Body1',#1125);
#15=CYLINDRICAL_SURFACE('',#1154,1.5);
#16=CYLINDRICAL_SURFACE('',#1158,1.5);
#17=CYLINDRICAL_SURFACE('',#1162,1.5);
#18=CYLINDRICAL_SURFACE('',#1166,1.5);
#19=CYLINDRICAL_SURFACE('',#1184,3.60000000000092);
#20=CYLINDRICAL_SURFACE('',#1187,3.59999999999895);
#21=CYLINDRICAL_SURFACE('',#1190,3.59999999999134);
#22=CYLINDRICAL_SURFACE('',#1193,3.5999999999999);
#23=CYLINDRICAL_SURFACE('',#1196,3.6);
#24=CYLINDRICAL_SURFACE('',#1199,3.59999999999998);
#25=CYLINDRICAL_SURFACE('',#1202,3.59999999999978);
#26=CYLINDRICAL_SURFACE('',#1205,3.59999999999982);
#27=CYLINDRICAL_SURFACE('',#1226,2.00000000000092);
#28=CYLINDRICAL_SURFACE('',#1228,1.99999999999895);
#29=CYLINDRICAL_SURFACE('',#1230,1.99999999999134);
#30=CYLINDRICAL_SURFACE('',#1232,1.9999999999999);
#31=CYLINDRICAL_SURFACE('',#1234,2.);
#32=CYLINDRICAL_SURFACE('',#1236,1.99999999999998);
#33=CYLINDRICAL_SURFACE('',#1238,1.99999999999978);
#34=CYLINDRICAL_SURFACE('',#1240,1.99999999999982);
#35=FACE_BOUND('',#150,.T.);
#36=FACE_BOUND('',#151,.T.);
#37=FACE_BOUND('',#152,.T.);
#38=FACE_BOUND('',#153,.T.);
#39=FACE_BOUND('',#154,.T.);
#40=FACE_BOUND('',#155,.T.);
#41=FACE_BOUND('',#170,.T.);
#42=FACE_BOUND('',#171,.T.);
#43=FACE_BOUND('',#172,.T.);
#44=FACE_BOUND('',#173,.T.);
#45=FACE_BOUND('',#174,.T.);
#46=FACE_BOUND('',#175,.T.);
#47=FACE_BOUND('',#195,.T.);
#48=FACE_BOUND('',#197,.T.);
#49=FACE_BOUND('',#223,.T.);
#50=PLANE('',#1142);
#51=PLANE('',#1168);
#52=PLANE('',#1169);
#53=PLANE('',#1170);
#54=PLANE('',#1171);
#55=PLANE('',#1172);
#56=PLANE('',#1173);
#57=PLANE('',#1174);
#58=PLANE('',#1183);
#59=PLANE('',#1186);
#60=PLANE('',#1189);
#61=PLANE('',#1192);
#62=PLANE('',#1195);
#63=PLANE('',#1198);
#64=PLANE('',#1201);
#65=PLANE('',#1204);
#66=PLANE('',#1207);
#67=PLANE('',#1208);
#68=PLANE('',#1209);
#69=PLANE('',#1214);
#70=PLANE('',#1219);
#71=PLANE('',#1220);
#72=PLANE('',#1221);
#73=PLANE('',#1222);
#74=PLANE('',#1223);
#75=PLANE('',#1224);
#76=PLANE('',#1225);
#77=PLANE('',#1227);
#78=PLANE('',#1229);
#79=PLANE('',#1231);
#80=PLANE('',#1233);
#81=PLANE('',#1235);
#82=PLANE('',#1237);
#83=PLANE('',#1239);
#84=PLANE('',#1241);
#85=PLANE('',#1242);
#86=PLANE('',#1243);
#87=FACE_OUTER_BOUND('',#148,.T.);
#88=FACE_OUTER_BOUND('',#149,.T.);
#89=FACE_OUTER_BOUND('',#156,.T.);
#90=FACE_OUTER_BOUND('',#157,.T.);
#91=FACE_OUTER_BOUND('',#158,.T.);
#92=FACE_OUTER_BOUND('',#159,.T.);
#93=FACE_OUTER_BOUND('',#160,.T.);
#94=FACE_OUTER_BOUND('',#161,.T.);
#95=FACE_OUTER_BOUND('',#162,.T.);
#96=FACE_OUTER_BOUND('',#163,.T.);
#97=FACE_OUTER_BOUND('',#164,.T.);
#98=FACE_OUTER_BOUND('',#165,.T.);
#99=FACE_OUTER_BOUND('',#166,.T.);
#100=FACE_OUTER_BOUND('',#167,.T.);
#101=FACE_OUTER_BOUND('',#168,.T.);
#102=FACE_OUTER_BOUND('',#169,.T.);
#103=FACE_OUTER_BOUND('',#176,.T.);
#104=FACE_OUTER_BOUND('',#177,.T.);
#105=FACE_OUTER_BOUND('',#178,.T.);
#106=FACE_OUTER_BOUND('',#179,.T.);
#107=FACE_OUTER_BOUND('',#180,.T.);
#108=FACE_OUTER_BOUND('',#181,.T.);
#109=FACE_OUTER_BOUND('',#182,.T.);
#110=FACE_OUTER_BOUND('',#183,.T.);
#111=FACE_OUTER_BOUND('',#184,.T.);
#112=FACE_OUTER_BOUND('',#185,.T.);
#113=FACE_OUTER_BOUND('',#186,.T.);
#114=FACE_OUTER_BOUND('',#187,.T.);
#115=FACE_OUTER_BOUND('',#188,.T.);
#116=FACE_OUTER_BOUND('',#189,.T.);
#117=FACE_OUTER_BOUND('',#190,.T.);
#118=FACE_OUTER_BOUND('',#191,.T.);
#119=FACE_OUTER_BOUND('',#192,.T.);
#120=FACE_OUTER_BOUND('',#193,.T.);
#121=FACE_OUTER_BOUND('',#194,.T.);
#122=FACE_OUTER_BOUND('',#196,.T.);
#123=FACE_OUTER_BOUND('',#198,.T.);
#124=FACE_OUTER_BOUND('',#199,.T.);
#125=FACE_OUTER_BOUND('',#200,.T.);
#126=FACE_OUTER_BOUND('',#201,.T.);
#127=FACE_OUTER_BOUND('',#202,.T.);
#128=FACE_OUTER_BOUND('',#203,.T.);
#129=FACE_OUTER_BOUND('',#204,.T.);
#130=FACE_OUTER_BOUND('',#205,.T.);
#131=FACE_OUTER_BOUND('',#206,.T.);
#132=FACE_OUTER_BOUND('',#207,.T.);
#133=FACE_OUTER_BOUND('',#208,.T.);
#134=FACE_OUTER_BOUND('',#209,.T.);
#135=FACE_OUTER_BOUND('',#210,.T.);
#136=FACE_OUTER_BOUND('',#211,.T.);
#137=FACE_OUTER_BOUND('',#212,.T.);
#138=FACE_OUTER_BOUND('',#213,.T.);
#139=FACE_OUTER_BOUND('',#214,.T.);
#140=FACE_OUTER_BOUND('',#215,.T.);
#141=FACE_OUTER_BOUND('',#216,.T.);
#142=FACE_OUTER_BOUND('',#217,.T.);
#143=FACE_OUTER_BOUND('',#218,.T.);
#144=FACE_OUTER_BOUND('',#219,.T.);
#145=FACE_OUTER_BOUND('',#220,.T.);
#146=FACE_OUTER_BOUND('',#221,.T.);
#147=FACE_OUTER_BOUND('',#222,.T.);
#148=EDGE_LOOP('',(#748,#749,#750,#751));
#149=EDGE_LOOP('',(#752,#753,#754,#755));
#150=EDGE_LOOP('',(#756));
#151=EDGE_LOOP('',(#757));
#152=EDGE_LOOP('',(#758,#759,#760,#761,#762,#763,#764,#765));
#153=EDGE_LOOP('',(#766,#767,#768,#769,#770,#771,#772,#773));
#154=EDGE_LOOP('',(#774));
#155=EDGE_LOOP('',(#775));
#156=EDGE_LOOP('',(#776,#777,#778,#779));
#157=EDGE_LOOP('',(#780,#781,#782,#783));
#158=EDGE_LOOP('',(#784,#785,#786,#787));
#159=EDGE_LOOP('',(#788,#789,#790,#791));
#160=EDGE_LOOP('',(#792,#793,#794,#795));
#161=EDGE_LOOP('',(#796,#797,#798,#799));
#162=EDGE_LOOP('',(#800,#801,#802,#803));
#163=EDGE_LOOP('',(#804,#805,#806,#807));
#164=EDGE_LOOP('',(#808,#809,#810,#811));
#165=EDGE_LOOP('',(#812,#813,#814,#815));
#166=EDGE_LOOP('',(#816,#817,#818,#819));
#167=EDGE_LOOP('',(#820,#821,#822,#823));
#168=EDGE_LOOP('',(#824,#825,#826,#827));
#169=EDGE_LOOP('',(#828,#829,#830,#831));
#170=EDGE_LOOP('',(#832));
#171=EDGE_LOOP('',(#833));
#172=EDGE_LOOP('',(#834));
#173=EDGE_LOOP('',(#835));
#174=EDGE_LOOP('',(#836,#837,#838,#839,#840,#841,#842,#843));
#175=EDGE_LOOP('',(#844,#845,#846,#847,#848,#849,#850,#851));
#176=EDGE_LOOP('',(#852,#853,#854,#855));
#177=EDGE_LOOP('',(#856,#857,#858,#859));
#178=EDGE_LOOP('',(#860,#861,#862,#863));
#179=EDGE_LOOP('',(#864,#865,#866,#867));
#180=EDGE_LOOP('',(#868,#869,#870,#871));
#181=EDGE_LOOP('',(#872,#873,#874,#875));
#182=EDGE_LOOP('',(#876,#877,#878,#879));
#183=EDGE_LOOP('',(#880,#881,#882,#883));
#184=EDGE_LOOP('',(#884,#885,#886,#887));
#185=EDGE_LOOP('',(#888,#889,#890,#891));
#186=EDGE_LOOP('',(#892,#893,#894,#895));
#187=EDGE_LOOP('',(#896,#897,#898,#899));
#188=EDGE_LOOP('',(#900,#901,#902,#903));
#189=EDGE_LOOP('',(#904,#905,#906,#907));
#190=EDGE_LOOP('',(#908,#909,#910,#911));
#191=EDGE_LOOP('',(#912,#913,#914,#915));
#192=EDGE_LOOP('',(#916,#917,#918,#919));
#193=EDGE_LOOP('',(#920,#921,#922,#923));
#194=EDGE_LOOP('',(#924,#925,#926,#927,#928,#929,#930,#931));
#195=EDGE_LOOP('',(#932,#933,#934,#935,#936,#937,#938,#939));
#196=EDGE_LOOP('',(#940,#941,#942,#943,#944,#945,#946,#947));
#197=EDGE_LOOP('',(#948,#949,#950,#951,#952,#953,#954,#955));
#198=EDGE_LOOP('',(#956,#957,#958,#959));
#199=EDGE_LOOP('',(#960,#961,#962,#963));
#200=EDGE_LOOP('',(#964,#965,#966,#967));
#201=EDGE_LOOP('',(#968,#969,#970,#971));
#202=EDGE_LOOP('',(#972,#973,#974,#975));
#203=EDGE_LOOP('',(#976,#977,#978,#979));
#204=EDGE_LOOP('',(#980,#981,#982,#983));
#205=EDGE_LOOP('',(#984,#985,#986,#987));
#206=EDGE_LOOP('',(#988,#989,#990,#991));
#207=EDGE_LOOP('',(#992,#993,#994,#995));
#208=EDGE_LOOP('',(#996,#997,#998,#999));
#209=EDGE_LOOP('',(#1000,#1001,#1002,#1003));
#210=EDGE_LOOP('',(#1004,#1005,#1006,#1007));
#211=EDGE_LOOP('',(#1008,#1009,#1010,#1011));
#212=EDGE_LOOP('',(#1012,#1013,#1014,#1015));
#213=EDGE_LOOP('',(#1016,#1017,#1018,#1019));
#214=EDGE_LOOP('',(#1020,#1021,#1022,#1023));
#215=EDGE_LOOP('',(#1024,#1025,#1026,#1027));
#216=EDGE_LOOP('',(#1028,#1029,#1030,#1031));
#217=EDGE_LOOP('',(#1032,#1033,#1034,#1035));
#218=EDGE_LOOP('',(#1036,#1037,#1038,#1039));
#219=EDGE_LOOP('',(#1040,#1041,#1042,#1043));
#220=EDGE_LOOP('',(#1044,#1045,#1046,#1047));
#221=EDGE_LOOP('',(#1048,#1049,#1050,#1051));
#222=EDGE_LOOP('',(#1052,#1053,#1054,#1055));
#223=EDGE_LOOP('',(#1056,#1057,#1058,#1059));
#224=LINE('',#1573,#336);
#225=LINE('',#1578,#337);
#226=LINE('',#1580,#338);
#227=LINE('',#1582,#339);
#228=LINE('',#1583,#340);
#229=LINE('',#1592,#341);
#230=LINE('',#1596,#342);
#231=LINE('',#1600,#343);
#232=LINE('',#1603,#344);
#233=LINE('',#1608,#345);
#234=LINE('',#1612,#346);
#235=LINE('',#1616,#347);
#236=LINE('',#1619,#348);
#237=LINE('',#1624,#349);
#238=LINE('',#1628,#350);
#239=LINE('',#1632,#351);
#240=LINE('',#1636,#352);
#241=LINE('',#1640,#353);
#242=LINE('',#1644,#354);
#243=LINE('',#1648,#355);
#244=LINE('',#1653,#356);
#245=LINE('',#1655,#357);
#246=LINE('',#1657,#358);
#247=LINE('',#1658,#359);
#248=LINE('',#1661,#360);
#249=LINE('',#1663,#361);
#250=LINE('',#1664,#362);
#251=LINE('',#1667,#363);
#252=LINE('',#1669,#364);
#253=LINE('',#1670,#365);
#254=LINE('',#1672,#366);
#255=LINE('',#1673,#367);
#256=LINE('',#1676,#368);
#257=LINE('',#1678,#369);
#258=LINE('',#1679,#370);
#259=LINE('',#1682,#371);
#260=LINE('',#1683,#372);
#261=LINE('',#1689,#373);
#262=LINE('',#1693,#374);
#263=LINE('',#1697,#375);
#264=LINE('',#1700,#376);
#265=LINE('',#1705,#377);
#266=LINE('',#1709,#378);
#267=LINE('',#1713,#379);
#268=LINE('',#1716,#380);
#269=LINE('',#1720,#381);
#270=LINE('',#1721,#382);
#271=LINE('',#1722,#383);
#272=LINE('',#1726,#384);
#273=LINE('',#1729,#385);
#274=LINE('',#1730,#386);
#275=LINE('',#1734,#387);
#276=LINE('',#1737,#388);
#277=LINE('',#1738,#389);
#278=LINE('',#1742,#390);
#279=LINE('',#1745,#391);
#280=LINE('',#1746,#392);
#281=LINE('',#1752,#393);
#282=LINE('',#1753,#394);
#283=LINE('',#1754,#395);
#284=LINE('',#1758,#396);
#285=LINE('',#1761,#397);
#286=LINE('',#1762,#398);
#287=LINE('',#1766,#399);
#288=LINE('',#1769,#400);
#289=LINE('',#1770,#401);
#290=LINE('',#1774,#402);
#291=LINE('',#1777,#403);
#292=LINE('',#1778,#404);
#293=LINE('',#1783,#405);
#294=LINE('',#1784,#406);
#295=LINE('',#1786,#407);
#296=LINE('',#1792,#408);
#297=LINE('',#1796,#409);
#298=LINE('',#1800,#410);
#299=LINE('',#1803,#411);
#300=LINE('',#1809,#412);
#301=LINE('',#1813,#413);
#302=LINE('',#1817,#414);
#303=LINE('',#1820,#415);
#304=LINE('',#1823,#416);
#305=LINE('',#1825,#417);
#306=LINE('',#1826,#418);
#307=LINE('',#1829,#419);
#308=LINE('',#1830,#420);
#309=LINE('',#1833,#421);
#310=LINE('',#1834,#422);
#311=LINE('',#1836,#423);
#312=LINE('',#1839,#424);
#313=LINE('',#1841,#425);
#314=LINE('',#1842,#426);
#315=LINE('',#1845,#427);
#316=LINE('',#1846,#428);
#317=LINE('',#1848,#429);
#318=LINE('',#1849,#430);
#319=LINE('',#1851,#431);
#320=LINE('',#1853,#432);
#321=LINE('',#1855,#433);
#322=LINE('',#1857,#434);
#323=LINE('',#1859,#435);
#324=LINE('',#1861,#436);
#325=LINE('',#1864,#437);
#326=LINE('',#1865,#438);
#327=LINE('',#1867,#439);
#328=LINE('',#1869,#440);
#329=LINE('',#1871,#441);
#330=LINE('',#1873,#442);
#331=LINE('',#1875,#443);
#332=LINE('',#1877,#444);
#333=LINE('',#1881,#445);
#334=LINE('',#1882,#446);
#335=LINE('',#1884,#447);
#336=VECTOR('',#1250,2.5);
#337=VECTOR('',#1255,10.);
#338=VECTOR('',#1256,10.);
#339=VECTOR('',#1257,10.);
#340=VECTOR('',#1258,10.);
#341=VECTOR('',#1265,10.);
#342=VECTOR('',#1268,10.);
#343=VECTOR('',#1271,10.);
#344=VECTOR('',#1274,10.);
#345=VECTOR('',#1277,10.);
#346=VECTOR('',#1280,10.);
#347=VECTOR('',#1283,10.);
#348=VECTOR('',#1286,10.);
#349=VECTOR('',#1291,1.5);
#350=VECTOR('',#1296,2.5);
#351=VECTOR('',#1301,1.5);
#352=VECTOR('',#1306,2.5);
#353=VECTOR('',#1311,1.5);
#354=VECTOR('',#1316,2.5);
#355=VECTOR('',#1321,1.5);
#356=VECTOR('',#1326,10.);
#357=VECTOR('',#1327,10.);
#358=VECTOR('',#1328,10.);
#359=VECTOR('',#1329,10.);
#360=VECTOR('',#1332,10.);
#361=VECTOR('',#1333,10.);
#362=VECTOR('',#1334,10.);
#363=VECTOR('',#1337,10.);
#364=VECTOR('',#1338,10.);
#365=VECTOR('',#1339,10.);
#366=VECTOR('',#1342,10.);
#367=VECTOR('',#1343,10.);
#368=VECTOR('',#1346,10.);
#369=VECTOR('',#1347,10.);
#370=VECTOR('',#1348,10.);
#371=VECTOR('',#1351,10.);
#372=VECTOR('',#1352,10.);
#373=VECTOR('',#1357,10.);
#374=VECTOR('',#1360,10.);
#375=VECTOR('',#1363,10.);
#376=VECTOR('',#1366,10.);
#377=VECTOR('',#1369,10.);
#378=VECTOR('',#1372,10.);
#379=VECTOR('',#1375,10.);
#380=VECTOR('',#1378,10.);
#381=VECTOR('',#1381,10.);
#382=VECTOR('',#1382,10.);
#383=VECTOR('',#1383,10.);
#384=VECTOR('',#1388,10.);
#385=VECTOR('',#1391,10.);
#386=VECTOR('',#1392,10.);
#387=VECTOR('',#1397,10.);
#388=VECTOR('',#1400,10.);
#389=VECTOR('',#1401,10.);
#390=VECTOR('',#1406,10.);
#391=VECTOR('',#1409,10.);
#392=VECTOR('',#1410,10.);
#393=VECTOR('',#1417,10.);
#394=VECTOR('',#1418,10.);
#395=VECTOR('',#1419,10.);
#396=VECTOR('',#1424,10.);
#397=VECTOR('',#1427,10.);
#398=VECTOR('',#1428,10.);
#399=VECTOR('',#1433,10.);
#400=VECTOR('',#1436,10.);
#401=VECTOR('',#1437,10.);
#402=VECTOR('',#1442,10.);
#403=VECTOR('',#1445,10.);
#404=VECTOR('',#1446,10.);
#405=VECTOR('',#1453,10.);
#406=VECTOR('',#1454,10.);
#407=VECTOR('',#1457,10.);
#408=VECTOR('',#1462,10.);
#409=VECTOR('',#1465,10.);
#410=VECTOR('',#1468,10.);
#411=VECTOR('',#1471,10.);
#412=VECTOR('',#1476,10.);
#413=VECTOR('',#1479,10.);
#414=VECTOR('',#1482,10.);
#415=VECTOR('',#1485,10.);
#416=VECTOR('',#1488,10.);
#417=VECTOR('',#1489,10.);
#418=VECTOR('',#1490,10.);
#419=VECTOR('',#1493,10.);
#420=VECTOR('',#1494,10.);
#421=VECTOR('',#1497,10.);
#422=VECTOR('',#1498,10.);
#423=VECTOR('',#1501,10.);
#424=VECTOR('',#1504,10.);
#425=VECTOR('',#1505,10.);
#426=VECTOR('',#1506,10.);
#427=VECTOR('',#1509,10.);
#428=VECTOR('',#1510,10.);
#429=VECTOR('',#1513,10.);
#430=VECTOR('',#1514,10.);
#431=VECTOR('',#1517,10.);
#432=VECTOR('',#1520,10.);
#433=VECTOR('',#1523,10.);
#434=VECTOR('',#1526,10.);
#435=VECTOR('',#1529,10.);
#436=VECTOR('',#1532,10.);
#437=VECTOR('',#1537,10.);
#438=VECTOR('',#1538,10.);
#439=VECTOR('',#1541,10.);
#440=VECTOR('',#1544,10.);
#441=VECTOR('',#1547,10.);
#442=VECTOR('',#1550,10.);
#443=VECTOR('',#1553,10.);
#444=VECTOR('',#1556,10.);
#445=VECTOR('',#1561,10.);
#446=VECTOR('',#1562,10.);
#447=VECTOR('',#1565,10.);
#448=CIRCLE('',#1140,3.5);
#449=CIRCLE('',#1141,1.5);
#450=CIRCLE('',#1143,3.50000000000001);
#451=CIRCLE('',#1144,3.5);
#452=CIRCLE('',#1145,1.9999999999999);
#453=CIRCLE('',#1146,1.99999999999134);
#454=CIRCLE('',#1147,1.99999999999895);
#455=CIRCLE('',#1148,2.00000000000092);
#456=CIRCLE('',#1149,1.99999999999982);
#457=CIRCLE('',#1150,1.99999999999978);
#458=CIRCLE('',#1151,1.99999999999998);
#459=CIRCLE('',#1152,2.);
#460=CIRCLE('',#1153,3.5);
#461=CIRCLE('',#1155,1.5);
#462=CIRCLE('',#1157,1.5);
#463=CIRCLE('',#1159,1.5);
#464=CIRCLE('',#1161,1.5);
#465=CIRCLE('',#1163,1.5);
#466=CIRCLE('',#1165,1.5);
#467=CIRCLE('',#1167,1.5);
#468=CIRCLE('',#1175,3.5999999999999);
#469=CIRCLE('',#1176,3.60000000000092);
#470=CIRCLE('',#1177,3.59999999999895);
#471=CIRCLE('',#1178,3.59999999999134);
#472=CIRCLE('',#1179,3.59999999999982);
#473=CIRCLE('',#1180,3.6);
#474=CIRCLE('',#1181,3.59999999999998);
#475=CIRCLE('',#1182,3.59999999999978);
#476=CIRCLE('',#1185,3.60000000000092);
#477=CIRCLE('',#1188,3.59999999999895);
#478=CIRCLE('',#1191,3.59999999999134);
#479=CIRCLE('',#1194,3.5999999999999);
#480=CIRCLE('',#1197,3.6);
#481=CIRCLE('',#1200,3.59999999999998);
#482=CIRCLE('',#1203,3.59999999999978);
#483=CIRCLE('',#1206,3.59999999999982);
#484=CIRCLE('',#1210,1.99999999999982);
#485=CIRCLE('',#1211,2.);
#486=CIRCLE('',#1212,1.99999999999998);
#487=CIRCLE('',#1213,1.99999999999978);
#488=CIRCLE('',#1215,1.9999999999999);
#489=CIRCLE('',#1216,2.00000000000092);
#490=CIRCLE('',#1217,1.99999999999895);
#491=CIRCLE('',#1218,1.99999999999134);
#492=VERTEX_POINT('',#1570);
#493=VERTEX_POINT('',#1572);
#494=VERTEX_POINT('',#1576);
#495=VERTEX_POINT('',#1577);
#496=VERTEX_POINT('',#1579);
#497=VERTEX_POINT('',#1581);
#498=VERTEX_POINT('',#1584);
#499=VERTEX_POINT('',#1586);
#500=VERTEX_POINT('',#1588);
#501=VERTEX_POINT('',#1589);
#502=VERTEX_POINT('',#1591);
#503=VERTEX_POINT('',#1593);
#504=VERTEX_POINT('',#1595);
#505=VERTEX_POINT('',#1597);
#506=VERTEX_POINT('',#1599);
#507=VERTEX_POINT('',#1601);
#508=VERTEX_POINT('',#1604);
#509=VERTEX_POINT('',#1605);
#510=VERTEX_POINT('',#1607);
#511=VERTEX_POINT('',#1609);
#512=VERTEX_POINT('',#1611);
#513=VERTEX_POINT('',#1613);
#514=VERTEX_POINT('',#1615);
#515=VERTEX_POINT('',#1617);
#516=VERTEX_POINT('',#1620);
#517=VERTEX_POINT('',#1623);
#518=VERTEX_POINT('',#1627);
#519=VERTEX_POINT('',#1631);
#520=VERTEX_POINT('',#1635);
#521=VERTEX_POINT('',#1639);
#522=VERTEX_POINT('',#1643);
#523=VERTEX_POINT('',#1647);
#524=VERTEX_POINT('',#1651);
#525=VERTEX_POINT('',#1652);
#526=VERTEX_POINT('',#1654);
#527=VERTEX_POINT('',#1656);
#528=VERTEX_POINT('',#1660);
#529=VERTEX_POINT('',#1662);
#530=VERTEX_POINT('',#1666);
#531=VERTEX_POINT('',#1668);
#532=VERTEX_POINT('',#1675);
#533=VERTEX_POINT('',#1677);
#534=VERTEX_POINT('',#1681);
#535=VERTEX_POINT('',#1685);
#536=VERTEX_POINT('',#1686);
#537=VERTEX_POINT('',#1688);
#538=VERTEX_POINT('',#1690);
#539=VERTEX_POINT('',#1692);
#540=VERTEX_POINT('',#1694);
#541=VERTEX_POINT('',#1696);
#542=VERTEX_POINT('',#1698);
#543=VERTEX_POINT('',#1701);
#544=VERTEX_POINT('',#1702);
#545=VERTEX_POINT('',#1704);
#546=VERTEX_POINT('',#1706);
#547=VERTEX_POINT('',#1708);
#548=VERTEX_POINT('',#1710);
#549=VERTEX_POINT('',#1712);
#550=VERTEX_POINT('',#1714);
#551=VERTEX_POINT('',#1718);
#552=VERTEX_POINT('',#1719);
#553=VERTEX_POINT('',#1724);
#554=VERTEX_POINT('',#1728);
#555=VERTEX_POINT('',#1732);
#556=VERTEX_POINT('',#1736);
#557=VERTEX_POINT('',#1740);
#558=VERTEX_POINT('',#1744);
#559=VERTEX_POINT('',#1750);
#560=VERTEX_POINT('',#1751);
#561=VERTEX_POINT('',#1756);
#562=VERTEX_POINT('',#1760);
#563=VERTEX_POINT('',#1764);
#564=VERTEX_POINT('',#1768);
#565=VERTEX_POINT('',#1772);
#566=VERTEX_POINT('',#1776);
#567=VERTEX_POINT('',#1782);
#568=VERTEX_POINT('',#1788);
#569=VERTEX_POINT('',#1789);
#570=VERTEX_POINT('',#1791);
#571=VERTEX_POINT('',#1793);
#572=VERTEX_POINT('',#1795);
#573=VERTEX_POINT('',#1797);
#574=VERTEX_POINT('',#1799);
#575=VERTEX_POINT('',#1801);
#576=VERTEX_POINT('',#1805);
#577=VERTEX_POINT('',#1806);
#578=VERTEX_POINT('',#1808);
#579=VERTEX_POINT('',#1810);
#580=VERTEX_POINT('',#1812);
#581=VERTEX_POINT('',#1814);
#582=VERTEX_POINT('',#1816);
#583=VERTEX_POINT('',#1818);
#584=VERTEX_POINT('',#1822);
#585=VERTEX_POINT('',#1824);
#586=VERTEX_POINT('',#1828);
#587=VERTEX_POINT('',#1832);
#588=VERTEX_POINT('',#1838);
#589=VERTEX_POINT('',#1840);
#590=VERTEX_POINT('',#1844);
#591=VERTEX_POINT('',#1880);
#592=EDGE_CURVE('',#492,#492,#448,.T.);
#593=EDGE_CURVE('',#492,#493,#224,.T.);
#594=EDGE_CURVE('',#493,#493,#449,.T.);
#595=EDGE_CURVE('',#494,#495,#225,.T.);
#596=EDGE_CURVE('',#496,#494,#226,.T.);
#597=EDGE_CURVE('',#497,#496,#227,.T.);
#598=EDGE_CURVE('',#495,#497,#228,.T.);
#599=EDGE_CURVE('',#498,#498,#450,.T.);
#600=EDGE_CURVE('',#499,#499,#451,.T.);
#601=EDGE_CURVE('',#500,#501,#452,.T.);
#602=EDGE_CURVE('',#501,#502,#229,.T.);
#603=EDGE_CURVE('',#502,#503,#453,.T.);
#604=EDGE_CURVE('',#503,#504,#230,.T.);
#605=EDGE_CURVE('',#504,#505,#454,.T.);
#606=EDGE_CURVE('',#505,#506,#231,.T.);
#607=EDGE_CURVE('',#506,#507,#455,.T.);
#608=EDGE_CURVE('',#507,#500,#232,.T.);
#609=EDGE_CURVE('',#508,#509,#456,.T.);
#610=EDGE_CURVE('',#509,#510,#233,.T.);
#611=EDGE_CURVE('',#510,#511,#457,.T.);
#612=EDGE_CURVE('',#511,#512,#234,.T.);
#613=EDGE_CURVE('',#512,#513,#458,.T.);
#614=EDGE_CURVE('',#513,#514,#235,.T.);
#615=EDGE_CURVE('',#514,#515,#459,.T.);
#616=EDGE_CURVE('',#515,#508,#236,.T.);
#617=EDGE_CURVE('',#516,#516,#460,.T.);
#618=EDGE_CURVE('',#493,#517,#237,.T.);
#619=EDGE_CURVE('',#517,#517,#461,.T.);
#620=EDGE_CURVE('',#498,#518,#238,.T.);
#621=EDGE_CURVE('',#518,#518,#462,.T.);
#622=EDGE_CURVE('',#518,#519,#239,.T.);
#623=EDGE_CURVE('',#519,#519,#463,.T.);
#624=EDGE_CURVE('',#516,#520,#240,.T.);
#625=EDGE_CURVE('',#520,#520,#464,.T.);
#626=EDGE_CURVE('',#520,#521,#241,.T.);
#627=EDGE_CURVE('',#521,#521,#465,.T.);
#628=EDGE_CURVE('',#499,#522,#242,.T.);
#629=EDGE_CURVE('',#522,#522,#466,.T.);
#630=EDGE_CURVE('',#522,#523,#243,.T.);
#631=EDGE_CURVE('',#523,#523,#467,.T.);
#632=EDGE_CURVE('',#524,#525,#244,.T.);
#633=EDGE_CURVE('',#524,#526,#245,.F.);
#634=EDGE_CURVE('',#527,#526,#246,.T.);
#635=EDGE_CURVE('',#525,#527,#247,.T.);
#636=EDGE_CURVE('',#525,#528,#248,.T.);
#637=EDGE_CURVE('',#529,#527,#249,.T.);
#638=EDGE_CURVE('',#528,#529,#250,.T.);
#639=EDGE_CURVE('',#528,#530,#251,.T.);
#640=EDGE_CURVE('',#531,#529,#252,.T.);
#641=EDGE_CURVE('',#530,#531,#253,.T.);
#642=EDGE_CURVE('',#526,#531,#254,.T.);
#643=EDGE_CURVE('',#530,#524,#255,.T.);
#644=EDGE_CURVE('',#532,#531,#256,.T.);
#645=EDGE_CURVE('',#533,#532,#257,.T.);
#646=EDGE_CURVE('',#533,#526,#258,.F.);
#647=EDGE_CURVE('',#534,#533,#259,.T.);
#648=EDGE_CURVE('',#534,#527,#260,.F.);
#649=EDGE_CURVE('',#535,#536,#468,.T.);
#650=EDGE_CURVE('',#537,#535,#261,.T.);
#651=EDGE_CURVE('',#538,#537,#469,.T.);
#652=EDGE_CURVE('',#539,#538,#262,.T.);
#653=EDGE_CURVE('',#540,#539,#470,.T.);
#654=EDGE_CURVE('',#541,#540,#263,.T.);
#655=EDGE_CURVE('',#542,#541,#471,.T.);
#656=EDGE_CURVE('',#536,#542,#264,.T.);
#657=EDGE_CURVE('',#543,#544,#472,.T.);
#658=EDGE_CURVE('',#545,#543,#265,.T.);
#659=EDGE_CURVE('',#546,#545,#473,.T.);
#660=EDGE_CURVE('',#547,#546,#266,.T.);
#661=EDGE_CURVE('',#548,#547,#474,.T.);
#662=EDGE_CURVE('',#549,#548,#267,.T.);
#663=EDGE_CURVE('',#550,#549,#475,.T.);
#664=EDGE_CURVE('',#544,#550,#268,.T.);
#665=EDGE_CURVE('',#551,#552,#269,.T.);
#666=EDGE_CURVE('',#551,#537,#270,.T.);
#667=EDGE_CURVE('',#552,#535,#271,.T.);
#668=EDGE_CURVE('',#553,#551,#476,.T.);
#669=EDGE_CURVE('',#553,#538,#272,.T.);
#670=EDGE_CURVE('',#554,#553,#273,.T.);
#671=EDGE_CURVE('',#554,#539,#274,.T.);
#672=EDGE_CURVE('',#555,#554,#477,.T.);
#673=EDGE_CURVE('',#555,#540,#275,.T.);
#674=EDGE_CURVE('',#556,#555,#276,.T.);
#675=EDGE_CURVE('',#556,#541,#277,.T.);
#676=EDGE_CURVE('',#557,#556,#478,.T.);
#677=EDGE_CURVE('',#557,#542,#278,.T.);
#678=EDGE_CURVE('',#558,#557,#279,.T.);
#679=EDGE_CURVE('',#558,#536,#280,.T.);
#680=EDGE_CURVE('',#552,#558,#479,.T.);
#681=EDGE_CURVE('',#559,#560,#281,.T.);
#682=EDGE_CURVE('',#559,#545,#282,.T.);
#683=EDGE_CURVE('',#560,#543,#283,.T.);
#684=EDGE_CURVE('',#561,#559,#480,.T.);
#685=EDGE_CURVE('',#561,#546,#284,.T.);
#686=EDGE_CURVE('',#562,#561,#285,.T.);
#687=EDGE_CURVE('',#562,#547,#286,.T.);
#688=EDGE_CURVE('',#563,#562,#481,.T.);
#689=EDGE_CURVE('',#563,#548,#287,.T.);
#690=EDGE_CURVE('',#564,#563,#288,.T.);
#691=EDGE_CURVE('',#564,#549,#289,.T.);
#692=EDGE_CURVE('',#565,#564,#482,.T.);
#693=EDGE_CURVE('',#565,#550,#290,.T.);
#694=EDGE_CURVE('',#566,#565,#291,.T.);
#695=EDGE_CURVE('',#566,#544,#292,.T.);
#696=EDGE_CURVE('',#560,#566,#483,.T.);
#697=EDGE_CURVE('',#567,#534,#293,.T.);
#698=EDGE_CURVE('',#567,#529,#294,.F.);
#699=EDGE_CURVE('',#532,#567,#295,.T.);
#700=EDGE_CURVE('',#568,#569,#484,.T.);
#701=EDGE_CURVE('',#570,#568,#296,.T.);
#702=EDGE_CURVE('',#571,#570,#485,.T.);
#703=EDGE_CURVE('',#572,#571,#297,.T.);
#704=EDGE_CURVE('',#573,#572,#486,.T.);
#705=EDGE_CURVE('',#574,#573,#298,.T.);
#706=EDGE_CURVE('',#575,#574,#487,.T.);
#707=EDGE_CURVE('',#569,#575,#299,.T.);
#708=EDGE_CURVE('',#576,#577,#488,.T.);
#709=EDGE_CURVE('',#578,#576,#300,.T.);
#710=EDGE_CURVE('',#579,#578,#489,.T.);
#711=EDGE_CURVE('',#580,#579,#301,.T.);
#712=EDGE_CURVE('',#581,#580,#490,.T.);
#713=EDGE_CURVE('',#582,#581,#302,.T.);
#714=EDGE_CURVE('',#583,#582,#491,.T.);
#715=EDGE_CURVE('',#577,#583,#303,.T.);
#716=EDGE_CURVE('',#495,#584,#304,.T.);
#717=EDGE_CURVE('',#584,#585,#305,.T.);
#718=EDGE_CURVE('',#494,#585,#306,.T.);
#719=EDGE_CURVE('',#497,#586,#307,.T.);
#720=EDGE_CURVE('',#586,#584,#308,.T.);
#721=EDGE_CURVE('',#496,#587,#309,.T.);
#722=EDGE_CURVE('',#587,#586,#310,.T.);
#723=EDGE_CURVE('',#585,#587,#311,.T.);
#724=EDGE_CURVE('',#588,#585,#312,.T.);
#725=EDGE_CURVE('',#588,#589,#313,.T.);
#726=EDGE_CURVE('',#589,#587,#314,.T.);
#727=EDGE_CURVE('',#590,#584,#315,.T.);
#728=EDGE_CURVE('',#590,#588,#316,.T.);
#729=EDGE_CURVE('',#576,#500,#317,.T.);
#730=EDGE_CURVE('',#578,#507,#318,.T.);
#731=EDGE_CURVE('',#579,#506,#319,.T.);
#732=EDGE_CURVE('',#580,#505,#320,.T.);
#733=EDGE_CURVE('',#581,#504,#321,.T.);
#734=EDGE_CURVE('',#582,#503,#322,.T.);
#735=EDGE_CURVE('',#583,#502,#323,.T.);
#736=EDGE_CURVE('',#577,#501,#324,.T.);
#737=EDGE_CURVE('',#568,#508,#325,.T.);
#738=EDGE_CURVE('',#570,#515,#326,.T.);
#739=EDGE_CURVE('',#571,#514,#327,.T.);
#740=EDGE_CURVE('',#572,#513,#328,.T.);
#741=EDGE_CURVE('',#573,#512,#329,.T.);
#742=EDGE_CURVE('',#574,#511,#330,.T.);
#743=EDGE_CURVE('',#575,#510,#331,.T.);
#744=EDGE_CURVE('',#569,#509,#332,.T.);
#745=EDGE_CURVE('',#591,#586,#333,.T.);
#746=EDGE_CURVE('',#591,#590,#334,.T.);
#747=EDGE_CURVE('',#589,#591,#335,.T.);
#748=ORIENTED_EDGE('',*,*,#592,.T.);
#749=ORIENTED_EDGE('',*,*,#593,.T.);
#750=ORIENTED_EDGE('',*,*,#594,.T.);
#751=ORIENTED_EDGE('',*,*,#593,.F.);
#752=ORIENTED_EDGE('',*,*,#595,.F.);
#753=ORIENTED_EDGE('',*,*,#596,.F.);
#754=ORIENTED_EDGE('',*,*,#597,.F.);
#755=ORIENTED_EDGE('',*,*,#598,.F.);
#756=ORIENTED_EDGE('',*,*,#599,.F.);
#757=ORIENTED_EDGE('',*,*,#600,.F.);
#758=ORIENTED_EDGE('',*,*,#601,.T.);
#759=ORIENTED_EDGE('',*,*,#602,.T.);
#760=ORIENTED_EDGE('',*,*,#603,.T.);
#761=ORIENTED_EDGE('',*,*,#604,.T.);
#762=ORIENTED_EDGE('',*,*,#605,.T.);
#763=ORIENTED_EDGE('',*,*,#606,.T.);
#764=ORIENTED_EDGE('',*,*,#607,.T.);
#765=ORIENTED_EDGE('',*,*,#608,.T.);
#766=ORIENTED_EDGE('',*,*,#609,.T.);
#767=ORIENTED_EDGE('',*,*,#610,.T.);
#768=ORIENTED_EDGE('',*,*,#611,.T.);
#769=ORIENTED_EDGE('',*,*,#612,.T.);
#770=ORIENTED_EDGE('',*,*,#613,.T.);
#771=ORIENTED_EDGE('',*,*,#614,.T.);
#772=ORIENTED_EDGE('',*,*,#615,.T.);
#773=ORIENTED_EDGE('',*,*,#616,.T.);
#774=ORIENTED_EDGE('',*,*,#617,.F.);
#775=ORIENTED_EDGE('',*,*,#592,.F.);
#776=ORIENTED_EDGE('',*,*,#594,.F.);
#777=ORIENTED_EDGE('',*,*,#618,.T.);
#778=ORIENTED_EDGE('',*,*,#619,.T.);
#779=ORIENTED_EDGE('',*,*,#618,.F.);
#780=ORIENTED_EDGE('',*,*,#599,.T.);
#781=ORIENTED_EDGE('',*,*,#620,.T.);
#782=ORIENTED_EDGE('',*,*,#621,.T.);
#783=ORIENTED_EDGE('',*,*,#620,.F.);
#784=ORIENTED_EDGE('',*,*,#621,.F.);
#785=ORIENTED_EDGE('',*,*,#622,.T.);
#786=ORIENTED_EDGE('',*,*,#623,.T.);
#787=ORIENTED_EDGE('',*,*,#622,.F.);
#788=ORIENTED_EDGE('',*,*,#617,.T.);
#789=ORIENTED_EDGE('',*,*,#624,.T.);
#790=ORIENTED_EDGE('',*,*,#625,.T.);
#791=ORIENTED_EDGE('',*,*,#624,.F.);
#792=ORIENTED_EDGE('',*,*,#625,.F.);
#793=ORIENTED_EDGE('',*,*,#626,.T.);
#794=ORIENTED_EDGE('',*,*,#627,.T.);
#795=ORIENTED_EDGE('',*,*,#626,.F.);
#796=ORIENTED_EDGE('',*,*,#600,.T.);
#797=ORIENTED_EDGE('',*,*,#628,.T.);
#798=ORIENTED_EDGE('',*,*,#629,.T.);
#799=ORIENTED_EDGE('',*,*,#628,.F.);
#800=ORIENTED_EDGE('',*,*,#629,.F.);
#801=ORIENTED_EDGE('',*,*,#630,.T.);
#802=ORIENTED_EDGE('',*,*,#631,.T.);
#803=ORIENTED_EDGE('',*,*,#630,.F.);
#804=ORIENTED_EDGE('',*,*,#632,.F.);
#805=ORIENTED_EDGE('',*,*,#633,.T.);
#806=ORIENTED_EDGE('',*,*,#634,.F.);
#807=ORIENTED_EDGE('',*,*,#635,.F.);
#808=ORIENTED_EDGE('',*,*,#636,.F.);
#809=ORIENTED_EDGE('',*,*,#635,.T.);
#810=ORIENTED_EDGE('',*,*,#637,.F.);
#811=ORIENTED_EDGE('',*,*,#638,.F.);
#812=ORIENTED_EDGE('',*,*,#639,.F.);
#813=ORIENTED_EDGE('',*,*,#638,.T.);
#814=ORIENTED_EDGE('',*,*,#640,.F.);
#815=ORIENTED_EDGE('',*,*,#641,.F.);
#816=ORIENTED_EDGE('',*,*,#642,.F.);
#817=ORIENTED_EDGE('',*,*,#633,.F.);
#818=ORIENTED_EDGE('',*,*,#643,.F.);
#819=ORIENTED_EDGE('',*,*,#641,.T.);
#820=ORIENTED_EDGE('',*,*,#642,.T.);
#821=ORIENTED_EDGE('',*,*,#644,.F.);
#822=ORIENTED_EDGE('',*,*,#645,.F.);
#823=ORIENTED_EDGE('',*,*,#646,.T.);
#824=ORIENTED_EDGE('',*,*,#634,.T.);
#825=ORIENTED_EDGE('',*,*,#646,.F.);
#826=ORIENTED_EDGE('',*,*,#647,.F.);
#827=ORIENTED_EDGE('',*,*,#648,.T.);
#828=ORIENTED_EDGE('',*,*,#632,.T.);
#829=ORIENTED_EDGE('',*,*,#636,.T.);
#830=ORIENTED_EDGE('',*,*,#639,.T.);
#831=ORIENTED_EDGE('',*,*,#643,.T.);
#832=ORIENTED_EDGE('',*,*,#619,.F.);
#833=ORIENTED_EDGE('',*,*,#627,.F.);
#834=ORIENTED_EDGE('',*,*,#631,.F.);
#835=ORIENTED_EDGE('',*,*,#623,.F.);
#836=ORIENTED_EDGE('',*,*,#649,.F.);
#837=ORIENTED_EDGE('',*,*,#650,.F.);
#838=ORIENTED_EDGE('',*,*,#651,.F.);
#839=ORIENTED_EDGE('',*,*,#652,.F.);
#840=ORIENTED_EDGE('',*,*,#653,.F.);
#841=ORIENTED_EDGE('',*,*,#654,.F.);
#842=ORIENTED_EDGE('',*,*,#655,.F.);
#843=ORIENTED_EDGE('',*,*,#656,.F.);
#844=ORIENTED_EDGE('',*,*,#657,.F.);
#845=ORIENTED_EDGE('',*,*,#658,.F.);
#846=ORIENTED_EDGE('',*,*,#659,.F.);
#847=ORIENTED_EDGE('',*,*,#660,.F.);
#848=ORIENTED_EDGE('',*,*,#661,.F.);
#849=ORIENTED_EDGE('',*,*,#662,.F.);
#850=ORIENTED_EDGE('',*,*,#663,.F.);
#851=ORIENTED_EDGE('',*,*,#664,.F.);
#852=ORIENTED_EDGE('',*,*,#665,.F.);
#853=ORIENTED_EDGE('',*,*,#666,.T.);
#854=ORIENTED_EDGE('',*,*,#650,.T.);
#855=ORIENTED_EDGE('',*,*,#667,.F.);
#856=ORIENTED_EDGE('',*,*,#668,.F.);
#857=ORIENTED_EDGE('',*,*,#669,.T.);
#858=ORIENTED_EDGE('',*,*,#651,.T.);
#859=ORIENTED_EDGE('',*,*,#666,.F.);
#860=ORIENTED_EDGE('',*,*,#670,.F.);
#861=ORIENTED_EDGE('',*,*,#671,.T.);
#862=ORIENTED_EDGE('',*,*,#652,.T.);
#863=ORIENTED_EDGE('',*,*,#669,.F.);
#864=ORIENTED_EDGE('',*,*,#672,.F.);
#865=ORIENTED_EDGE('',*,*,#673,.T.);
#866=ORIENTED_EDGE('',*,*,#653,.T.);
#867=ORIENTED_EDGE('',*,*,#671,.F.);
#868=ORIENTED_EDGE('',*,*,#674,.F.);
#869=ORIENTED_EDGE('',*,*,#675,.T.);
#870=ORIENTED_EDGE('',*,*,#654,.T.);
#871=ORIENTED_EDGE('',*,*,#673,.F.);
#872=ORIENTED_EDGE('',*,*,#676,.F.);
#873=ORIENTED_EDGE('',*,*,#677,.T.);
#874=ORIENTED_EDGE('',*,*,#655,.T.);
#875=ORIENTED_EDGE('',*,*,#675,.F.);
#876=ORIENTED_EDGE('',*,*,#678,.F.);
#877=ORIENTED_EDGE('',*,*,#679,.T.);
#878=ORIENTED_EDGE('',*,*,#656,.T.);
#879=ORIENTED_EDGE('',*,*,#677,.F.);
#880=ORIENTED_EDGE('',*,*,#680,.F.);
#881=ORIENTED_EDGE('',*,*,#667,.T.);
#882=ORIENTED_EDGE('',*,*,#649,.T.);
#883=ORIENTED_EDGE('',*,*,#679,.F.);
#884=ORIENTED_EDGE('',*,*,#681,.F.);
#885=ORIENTED_EDGE('',*,*,#682,.T.);
#886=ORIENTED_EDGE('',*,*,#658,.T.);
#887=ORIENTED_EDGE('',*,*,#683,.F.);
#888=ORIENTED_EDGE('',*,*,#684,.F.);
#889=ORIENTED_EDGE('',*,*,#685,.T.);
#890=ORIENTED_EDGE('',*,*,#659,.T.);
#891=ORIENTED_EDGE('',*,*,#682,.F.);
#892=ORIENTED_EDGE('',*,*,#686,.F.);
#893=ORIENTED_EDGE('',*,*,#687,.T.);
#894=ORIENTED_EDGE('',*,*,#660,.T.);
#895=ORIENTED_EDGE('',*,*,#685,.F.);
#896=ORIENTED_EDGE('',*,*,#688,.F.);
#897=ORIENTED_EDGE('',*,*,#689,.T.);
#898=ORIENTED_EDGE('',*,*,#661,.T.);
#899=ORIENTED_EDGE('',*,*,#687,.F.);
#900=ORIENTED_EDGE('',*,*,#690,.F.);
#901=ORIENTED_EDGE('',*,*,#691,.T.);
#902=ORIENTED_EDGE('',*,*,#662,.T.);
#903=ORIENTED_EDGE('',*,*,#689,.F.);
#904=ORIENTED_EDGE('',*,*,#692,.F.);
#905=ORIENTED_EDGE('',*,*,#693,.T.);
#906=ORIENTED_EDGE('',*,*,#663,.T.);
#907=ORIENTED_EDGE('',*,*,#691,.F.);
#908=ORIENTED_EDGE('',*,*,#694,.F.);
#909=ORIENTED_EDGE('',*,*,#695,.T.);
#910=ORIENTED_EDGE('',*,*,#664,.T.);
#911=ORIENTED_EDGE('',*,*,#693,.F.);
#912=ORIENTED_EDGE('',*,*,#696,.F.);
#913=ORIENTED_EDGE('',*,*,#683,.T.);
#914=ORIENTED_EDGE('',*,*,#657,.T.);
#915=ORIENTED_EDGE('',*,*,#695,.F.);
#916=ORIENTED_EDGE('',*,*,#637,.T.);
#917=ORIENTED_EDGE('',*,*,#648,.F.);
#918=ORIENTED_EDGE('',*,*,#697,.F.);
#919=ORIENTED_EDGE('',*,*,#698,.T.);
#920=ORIENTED_EDGE('',*,*,#640,.T.);
#921=ORIENTED_EDGE('',*,*,#698,.F.);
#922=ORIENTED_EDGE('',*,*,#699,.F.);
#923=ORIENTED_EDGE('',*,*,#644,.T.);
#924=ORIENTED_EDGE('',*,*,#681,.T.);
#925=ORIENTED_EDGE('',*,*,#696,.T.);
#926=ORIENTED_EDGE('',*,*,#694,.T.);
#927=ORIENTED_EDGE('',*,*,#692,.T.);
#928=ORIENTED_EDGE('',*,*,#690,.T.);
#929=ORIENTED_EDGE('',*,*,#688,.T.);
#930=ORIENTED_EDGE('',*,*,#686,.T.);
#931=ORIENTED_EDGE('',*,*,#684,.T.);
#932=ORIENTED_EDGE('',*,*,#700,.F.);
#933=ORIENTED_EDGE('',*,*,#701,.F.);
#934=ORIENTED_EDGE('',*,*,#702,.F.);
#935=ORIENTED_EDGE('',*,*,#703,.F.);
#936=ORIENTED_EDGE('',*,*,#704,.F.);
#937=ORIENTED_EDGE('',*,*,#705,.F.);
#938=ORIENTED_EDGE('',*,*,#706,.F.);
#939=ORIENTED_EDGE('',*,*,#707,.F.);
#940=ORIENTED_EDGE('',*,*,#665,.T.);
#941=ORIENTED_EDGE('',*,*,#680,.T.);
#942=ORIENTED_EDGE('',*,*,#678,.T.);
#943=ORIENTED_EDGE('',*,*,#676,.T.);
#944=ORIENTED_EDGE('',*,*,#674,.T.);
#945=ORIENTED_EDGE('',*,*,#672,.T.);
#946=ORIENTED_EDGE('',*,*,#670,.T.);
#947=ORIENTED_EDGE('',*,*,#668,.T.);
#948=ORIENTED_EDGE('',*,*,#708,.F.);
#949=ORIENTED_EDGE('',*,*,#709,.F.);
#950=ORIENTED_EDGE('',*,*,#710,.F.);
#951=ORIENTED_EDGE('',*,*,#711,.F.);
#952=ORIENTED_EDGE('',*,*,#712,.F.);
#953=ORIENTED_EDGE('',*,*,#713,.F.);
#954=ORIENTED_EDGE('',*,*,#714,.F.);
#955=ORIENTED_EDGE('',*,*,#715,.F.);
#956=ORIENTED_EDGE('',*,*,#595,.T.);
#957=ORIENTED_EDGE('',*,*,#716,.T.);
#958=ORIENTED_EDGE('',*,*,#717,.T.);
#959=ORIENTED_EDGE('',*,*,#718,.F.);
#960=ORIENTED_EDGE('',*,*,#598,.T.);
#961=ORIENTED_EDGE('',*,*,#719,.T.);
#962=ORIENTED_EDGE('',*,*,#720,.T.);
#963=ORIENTED_EDGE('',*,*,#716,.F.);
#964=ORIENTED_EDGE('',*,*,#597,.T.);
#965=ORIENTED_EDGE('',*,*,#721,.T.);
#966=ORIENTED_EDGE('',*,*,#722,.T.);
#967=ORIENTED_EDGE('',*,*,#719,.F.);
#968=ORIENTED_EDGE('',*,*,#723,.T.);
#969=ORIENTED_EDGE('',*,*,#721,.F.);
#970=ORIENTED_EDGE('',*,*,#596,.T.);
#971=ORIENTED_EDGE('',*,*,#718,.T.);
#972=ORIENTED_EDGE('',*,*,#723,.F.);
#973=ORIENTED_EDGE('',*,*,#724,.F.);
#974=ORIENTED_EDGE('',*,*,#725,.T.);
#975=ORIENTED_EDGE('',*,*,#726,.T.);
#976=ORIENTED_EDGE('',*,*,#717,.F.);
#977=ORIENTED_EDGE('',*,*,#727,.F.);
#978=ORIENTED_EDGE('',*,*,#728,.T.);
#979=ORIENTED_EDGE('',*,*,#724,.T.);
#980=ORIENTED_EDGE('',*,*,#709,.T.);
#981=ORIENTED_EDGE('',*,*,#729,.T.);
#982=ORIENTED_EDGE('',*,*,#608,.F.);
#983=ORIENTED_EDGE('',*,*,#730,.F.);
#984=ORIENTED_EDGE('',*,*,#710,.T.);
#985=ORIENTED_EDGE('',*,*,#730,.T.);
#986=ORIENTED_EDGE('',*,*,#607,.F.);
#987=ORIENTED_EDGE('',*,*,#731,.F.);
#988=ORIENTED_EDGE('',*,*,#711,.T.);
#989=ORIENTED_EDGE('',*,*,#731,.T.);
#990=ORIENTED_EDGE('',*,*,#606,.F.);
#991=ORIENTED_EDGE('',*,*,#732,.F.);
#992=ORIENTED_EDGE('',*,*,#712,.T.);
#993=ORIENTED_EDGE('',*,*,#732,.T.);
#994=ORIENTED_EDGE('',*,*,#605,.F.);
#995=ORIENTED_EDGE('',*,*,#733,.F.);
#996=ORIENTED_EDGE('',*,*,#713,.T.);
#997=ORIENTED_EDGE('',*,*,#733,.T.);
#998=ORIENTED_EDGE('',*,*,#604,.F.);
#999=ORIENTED_EDGE('',*,*,#734,.F.);
#1000=ORIENTED_EDGE('',*,*,#714,.T.);
#1001=ORIENTED_EDGE('',*,*,#734,.T.);
#1002=ORIENTED_EDGE('',*,*,#603,.F.);
#1003=ORIENTED_EDGE('',*,*,#735,.F.);
#1004=ORIENTED_EDGE('',*,*,#715,.T.);
#1005=ORIENTED_EDGE('',*,*,#735,.T.);
#1006=ORIENTED_EDGE('',*,*,#602,.F.);
#1007=ORIENTED_EDGE('',*,*,#736,.F.);
#1008=ORIENTED_EDGE('',*,*,#708,.T.);
#1009=ORIENTED_EDGE('',*,*,#736,.T.);
#1010=ORIENTED_EDGE('',*,*,#601,.F.);
#1011=ORIENTED_EDGE('',*,*,#729,.F.);
#1012=ORIENTED_EDGE('',*,*,#701,.T.);
#1013=ORIENTED_EDGE('',*,*,#737,.T.);
#1014=ORIENTED_EDGE('',*,*,#616,.F.);
#1015=ORIENTED_EDGE('',*,*,#738,.F.);
#1016=ORIENTED_EDGE('',*,*,#702,.T.);
#1017=ORIENTED_EDGE('',*,*,#738,.T.);
#1018=ORIENTED_EDGE('',*,*,#615,.F.);
#1019=ORIENTED_EDGE('',*,*,#739,.F.);
#1020=ORIENTED_EDGE('',*,*,#703,.T.);
#1021=ORIENTED_EDGE('',*,*,#739,.T.);
#1022=ORIENTED_EDGE('',*,*,#614,.F.);
#1023=ORIENTED_EDGE('',*,*,#740,.F.);
#1024=ORIENTED_EDGE('',*,*,#704,.T.);
#1025=ORIENTED_EDGE('',*,*,#740,.T.);
#1026=ORIENTED_EDGE('',*,*,#613,.F.);
#1027=ORIENTED_EDGE('',*,*,#741,.F.);
#1028=ORIENTED_EDGE('',*,*,#705,.T.);
#1029=ORIENTED_EDGE('',*,*,#741,.T.);
#1030=ORIENTED_EDGE('',*,*,#612,.F.);
#1031=ORIENTED_EDGE('',*,*,#742,.F.);
#1032=ORIENTED_EDGE('',*,*,#706,.T.);
#1033=ORIENTED_EDGE('',*,*,#742,.T.);
#1034=ORIENTED_EDGE('',*,*,#611,.F.);
#1035=ORIENTED_EDGE('',*,*,#743,.F.);
#1036=ORIENTED_EDGE('',*,*,#707,.T.);
#1037=ORIENTED_EDGE('',*,*,#743,.T.);
#1038=ORIENTED_EDGE('',*,*,#610,.F.);
#1039=ORIENTED_EDGE('',*,*,#744,.F.);
#1040=ORIENTED_EDGE('',*,*,#700,.T.);
#1041=ORIENTED_EDGE('',*,*,#744,.T.);
#1042=ORIENTED_EDGE('',*,*,#609,.F.);
#1043=ORIENTED_EDGE('',*,*,#737,.F.);
#1044=ORIENTED_EDGE('',*,*,#720,.F.);
#1045=ORIENTED_EDGE('',*,*,#745,.F.);
#1046=ORIENTED_EDGE('',*,*,#746,.T.);
#1047=ORIENTED_EDGE('',*,*,#727,.T.);
#1048=ORIENTED_EDGE('',*,*,#722,.F.);
#1049=ORIENTED_EDGE('',*,*,#726,.F.);
#1050=ORIENTED_EDGE('',*,*,#747,.T.);
#1051=ORIENTED_EDGE('',*,*,#745,.T.);
#1052=ORIENTED_EDGE('',*,*,#728,.F.);
#1053=ORIENTED_EDGE('',*,*,#746,.F.);
#1054=ORIENTED_EDGE('',*,*,#747,.F.);
#1055=ORIENTED_EDGE('',*,*,#725,.F.);
#1056=ORIENTED_EDGE('',*,*,#645,.T.);
#1057=ORIENTED_EDGE('',*,*,#699,.T.);
#1058=ORIENTED_EDGE('',*,*,#697,.T.);
#1059=ORIENTED_EDGE('',*,*,#647,.T.);
#1060=CONICAL_SURFACE('',#1139,2.5,0.927295218001611);
#1061=CONICAL_SURFACE('',#1156,2.5,0.927295218001613);
#1062=CONICAL_SURFACE('',#1160,2.5,0.927295218001611);
#1063=CONICAL_SURFACE('',#1164,2.5,0.927295218001613);
#1064=ADVANCED_FACE('',(#87),#1060,.F.);
#1065=ADVANCED_FACE('',(#88,#35,#36,#37,#38,#39,#40),#50,.T.);
#1066=ADVANCED_FACE('',(#89),#15,.F.);
#1067=ADVANCED_FACE('',(#90),#1061,.F.);
#1068=ADVANCED_FACE('',(#91),#16,.F.);
#1069=ADVANCED_FACE('',(#92),#1062,.F.);
#1070=ADVANCED_FACE('',(#93),#17,.F.);
#1071=ADVANCED_FACE('',(#94),#1063,.F.);
#1072=ADVANCED_FACE('',(#95),#18,.F.);
#1073=ADVANCED_FACE('',(#96),#51,.F.);
#1074=ADVANCED_FACE('',(#97),#52,.F.);
#1075=ADVANCED_FACE('',(#98),#53,.F.);
#1076=ADVANCED_FACE('',(#99),#54,.F.);
#1077=ADVANCED_FACE('',(#100),#55,.F.);
#1078=ADVANCED_FACE('',(#101),#56,.F.);
#1079=ADVANCED_FACE('',(#102,#41,#42,#43,#44,#45,#46),#57,.F.);
#1080=ADVANCED_FACE('',(#103),#58,.F.);
#1081=ADVANCED_FACE('',(#104),#19,.T.);
#1082=ADVANCED_FACE('',(#105),#59,.F.);
#1083=ADVANCED_FACE('',(#106),#20,.T.);
#1084=ADVANCED_FACE('',(#107),#60,.F.);
#1085=ADVANCED_FACE('',(#108),#21,.T.);
#1086=ADVANCED_FACE('',(#109),#61,.F.);
#1087=ADVANCED_FACE('',(#110),#22,.T.);
#1088=ADVANCED_FACE('',(#111),#62,.F.);
#1089=ADVANCED_FACE('',(#112),#23,.T.);
#1090=ADVANCED_FACE('',(#113),#63,.F.);
#1091=ADVANCED_FACE('',(#114),#24,.T.);
#1092=ADVANCED_FACE('',(#115),#64,.F.);
#1093=ADVANCED_FACE('',(#116),#25,.T.);
#1094=ADVANCED_FACE('',(#117),#65,.F.);
#1095=ADVANCED_FACE('',(#118),#26,.T.);
#1096=ADVANCED_FACE('',(#119),#66,.F.);
#1097=ADVANCED_FACE('',(#120),#67,.F.);
#1098=ADVANCED_FACE('',(#121,#47),#68,.F.);
#1099=ADVANCED_FACE('',(#122,#48),#69,.F.);
#1100=ADVANCED_FACE('',(#123),#70,.T.);
#1101=ADVANCED_FACE('',(#124),#71,.T.);
#1102=ADVANCED_FACE('',(#125),#72,.T.);
#1103=ADVANCED_FACE('',(#126),#73,.T.);
#1104=ADVANCED_FACE('',(#127),#74,.T.);
#1105=ADVANCED_FACE('',(#128),#75,.T.);
#1106=ADVANCED_FACE('',(#129),#76,.T.);
#1107=ADVANCED_FACE('',(#130),#27,.F.);
#1108=ADVANCED_FACE('',(#131),#77,.T.);
#1109=ADVANCED_FACE('',(#132),#28,.F.);
#1110=ADVANCED_FACE('',(#133),#78,.T.);
#1111=ADVANCED_FACE('',(#134),#29,.F.);
#1112=ADVANCED_FACE('',(#135),#79,.T.);
#1113=ADVANCED_FACE('',(#136),#30,.F.);
#1114=ADVANCED_FACE('',(#137),#80,.T.);
#1115=ADVANCED_FACE('',(#138),#31,.F.);
#1116=ADVANCED_FACE('',(#139),#81,.T.);
#1117=ADVANCED_FACE('',(#140),#32,.F.);
#1118=ADVANCED_FACE('',(#141),#82,.T.);
#1119=ADVANCED_FACE('',(#142),#33,.F.);
#1120=ADVANCED_FACE('',(#143),#83,.T.);
#1121=ADVANCED_FACE('',(#144),#34,.F.);
#1122=ADVANCED_FACE('',(#145),#84,.T.);
#1123=ADVANCED_FACE('',(#146),#85,.T.);
#1124=ADVANCED_FACE('',(#147,#49),#86,.F.);
#1125=CLOSED_SHELL('',(#1064,#1065,#1066,#1067,#1068,#1069,#1070,#1071,
#1072,#1073,#1074,#1075,#1076,#1077,#1078,#1079,#1080,#1081,#1082,#1083,
#1084,#1085,#1086,#1087,#1088,#1089,#1090,#1091,#1092,#1093,#1094,#1095,
#1096,#1097,#1098,#1099,#1100,#1101,#1102,#1103,#1104,#1105,#1106,#1107,
#1108,#1109,#1110,#1111,#1112,#1113,#1114,#1115,#1116,#1117,#1118,#1119,
#1120,#1121,#1122,#1123,#1124));
#1126=DERIVED_UNIT_ELEMENT(#1128,1.);
#1127=DERIVED_UNIT_ELEMENT(#1891,-3.);
#1128=(
MASS_UNIT()
NAMED_UNIT(*)
SI_UNIT(.KILO.,.GRAM.)
);
#1129=DERIVED_UNIT((#1126,#1127));
#1130=MEASURE_REPRESENTATION_ITEM('density measure',
POSITIVE_RATIO_MEASURE(7850.),#1129);
#1131=PROPERTY_DEFINITION_REPRESENTATION(#1136,#1133);
#1132=PROPERTY_DEFINITION_REPRESENTATION(#1137,#1134);
#1133=REPRESENTATION('material name',(#1135),#1888);
#1134=REPRESENTATION('density',(#1130),#1888);
#1135=DESCRIPTIVE_REPRESENTATION_ITEM('Steel','Steel');
#1136=PROPERTY_DEFINITION('material property','material name',#1898);
#1137=PROPERTY_DEFINITION('material property','density of part',#1898);
#1138=AXIS2_PLACEMENT_3D('',#1568,#1244,#1245);
#1139=AXIS2_PLACEMENT_3D('',#1569,#1246,#1247);
#1140=AXIS2_PLACEMENT_3D('',#1571,#1248,#1249);
#1141=AXIS2_PLACEMENT_3D('',#1574,#1251,#1252);
#1142=AXIS2_PLACEMENT_3D('',#1575,#1253,#1254);
#1143=AXIS2_PLACEMENT_3D('',#1585,#1259,#1260);
#1144=AXIS2_PLACEMENT_3D('',#1587,#1261,#1262);
#1145=AXIS2_PLACEMENT_3D('',#1590,#1263,#1264);
#1146=AXIS2_PLACEMENT_3D('',#1594,#1266,#1267);
#1147=AXIS2_PLACEMENT_3D('',#1598,#1269,#1270);
#1148=AXIS2_PLACEMENT_3D('',#1602,#1272,#1273);
#1149=AXIS2_PLACEMENT_3D('',#1606,#1275,#1276);
#1150=AXIS2_PLACEMENT_3D('',#1610,#1278,#1279);
#1151=AXIS2_PLACEMENT_3D('',#1614,#1281,#1282);
#1152=AXIS2_PLACEMENT_3D('',#1618,#1284,#1285);
#1153=AXIS2_PLACEMENT_3D('',#1621,#1287,#1288);
#1154=AXIS2_PLACEMENT_3D('',#1622,#1289,#1290);
#1155=AXIS2_PLACEMENT_3D('',#1625,#1292,#1293);
#1156=AXIS2_PLACEMENT_3D('',#1626,#1294,#1295);
#1157=AXIS2_PLACEMENT_3D('',#1629,#1297,#1298);
#1158=AXIS2_PLACEMENT_3D('',#1630,#1299,#1300);
#1159=AXIS2_PLACEMENT_3D('',#1633,#1302,#1303);
#1160=AXIS2_PLACEMENT_3D('',#1634,#1304,#1305);
#1161=AXIS2_PLACEMENT_3D('',#1637,#1307,#1308);
#1162=AXIS2_PLACEMENT_3D('',#1638,#1309,#1310);
#1163=AXIS2_PLACEMENT_3D('',#1641,#1312,#1313);
#1164=AXIS2_PLACEMENT_3D('',#1642,#1314,#1315);
#1165=AXIS2_PLACEMENT_3D('',#1645,#1317,#1318);
#1166=AXIS2_PLACEMENT_3D('',#1646,#1319,#1320);
#1167=AXIS2_PLACEMENT_3D('',#1649,#1322,#1323);
#1168=AXIS2_PLACEMENT_3D('',#1650,#1324,#1325);
#1169=AXIS2_PLACEMENT_3D('',#1659,#1330,#1331);
#1170=AXIS2_PLACEMENT_3D('',#1665,#1335,#1336);
#1171=AXIS2_PLACEMENT_3D('',#1671,#1340,#1341);
#1172=AXIS2_PLACEMENT_3D('',#1674,#1344,#1345);
#1173=AXIS2_PLACEMENT_3D('',#1680,#1349,#1350);
#1174=AXIS2_PLACEMENT_3D('',#1684,#1353,#1354);
#1175=AXIS2_PLACEMENT_3D('',#1687,#1355,#1356);
#1176=AXIS2_PLACEMENT_3D('',#1691,#1358,#1359);
#1177=AXIS2_PLACEMENT_3D('',#1695,#1361,#1362);
#1178=AXIS2_PLACEMENT_3D('',#1699,#1364,#1365);
#1179=AXIS2_PLACEMENT_3D('',#1703,#1367,#1368);
#1180=AXIS2_PLACEMENT_3D('',#1707,#1370,#1371);
#1181=AXIS2_PLACEMENT_3D('',#1711,#1373,#1374);
#1182=AXIS2_PLACEMENT_3D('',#1715,#1376,#1377);
#1183=AXIS2_PLACEMENT_3D('',#1717,#1379,#1380);
#1184=AXIS2_PLACEMENT_3D('',#1723,#1384,#1385);
#1185=AXIS2_PLACEMENT_3D('',#1725,#1386,#1387);
#1186=AXIS2_PLACEMENT_3D('',#1727,#1389,#1390);
#1187=AXIS2_PLACEMENT_3D('',#1731,#1393,#1394);
#1188=AXIS2_PLACEMENT_3D('',#1733,#1395,#1396);
#1189=AXIS2_PLACEMENT_3D('',#1735,#1398,#1399);
#1190=AXIS2_PLACEMENT_3D('',#1739,#1402,#1403);
#1191=AXIS2_PLACEMENT_3D('',#1741,#1404,#1405);
#1192=AXIS2_PLACEMENT_3D('',#1743,#1407,#1408);
#1193=AXIS2_PLACEMENT_3D('',#1747,#1411,#1412);
#1194=AXIS2_PLACEMENT_3D('',#1748,#1413,#1414);
#1195=AXIS2_PLACEMENT_3D('',#1749,#1415,#1416);
#1196=AXIS2_PLACEMENT_3D('',#1755,#1420,#1421);
#1197=AXIS2_PLACEMENT_3D('',#1757,#1422,#1423);
#1198=AXIS2_PLACEMENT_3D('',#1759,#1425,#1426);
#1199=AXIS2_PLACEMENT_3D('',#1763,#1429,#1430);
#1200=AXIS2_PLACEMENT_3D('',#1765,#1431,#1432);
#1201=AXIS2_PLACEMENT_3D('',#1767,#1434,#1435);
#1202=AXIS2_PLACEMENT_3D('',#1771,#1438,#1439);
#1203=AXIS2_PLACEMENT_3D('',#1773,#1440,#1441);
#1204=AXIS2_PLACEMENT_3D('',#1775,#1443,#1444);
#1205=AXIS2_PLACEMENT_3D('',#1779,#1447,#1448);
#1206=AXIS2_PLACEMENT_3D('',#1780,#1449,#1450);
#1207=AXIS2_PLACEMENT_3D('',#1781,#1451,#1452);
#1208=AXIS2_PLACEMENT_3D('',#1785,#1455,#1456);
#1209=AXIS2_PLACEMENT_3D('',#1787,#1458,#1459);
#1210=AXIS2_PLACEMENT_3D('',#1790,#1460,#1461);
#1211=AXIS2_PLACEMENT_3D('',#1794,#1463,#1464);
#1212=AXIS2_PLACEMENT_3D('',#1798,#1466,#1467);
#1213=AXIS2_PLACEMENT_3D('',#1802,#1469,#1470);
#1214=AXIS2_PLACEMENT_3D('',#1804,#1472,#1473);
#1215=AXIS2_PLACEMENT_3D('',#1807,#1474,#1475);
#1216=AXIS2_PLACEMENT_3D('',#1811,#1477,#1478);
#1217=AXIS2_PLACEMENT_3D('',#1815,#1480,#1481);
#1218=AXIS2_PLACEMENT_3D('',#1819,#1483,#1484);
#1219=AXIS2_PLACEMENT_3D('',#1821,#1486,#1487);
#1220=AXIS2_PLACEMENT_3D('',#1827,#1491,#1492);
#1221=AXIS2_PLACEMENT_3D('',#1831,#1495,#1496);
#1222=AXIS2_PLACEMENT_3D('',#1835,#1499,#1500);
#1223=AXIS2_PLACEMENT_3D('',#1837,#1502,#1503);
#1224=AXIS2_PLACEMENT_3D('',#1843,#1507,#1508);
#1225=AXIS2_PLACEMENT_3D('',#1847,#1511,#1512);
#1226=AXIS2_PLACEMENT_3D('',#1850,#1515,#1516);
#1227=AXIS2_PLACEMENT_3D('',#1852,#1518,#1519);
#1228=AXIS2_PLACEMENT_3D('',#1854,#1521,#1522);
#1229=AXIS2_PLACEMENT_3D('',#1856,#1524,#1525);
#1230=AXIS2_PLACEMENT_3D('',#1858,#1527,#1528);
#1231=AXIS2_PLACEMENT_3D('',#1860,#1530,#1531);
#1232=AXIS2_PLACEMENT_3D('',#1862,#1533,#1534);
#1233=AXIS2_PLACEMENT_3D('',#1863,#1535,#1536);
#1234=AXIS2_PLACEMENT_3D('',#1866,#1539,#1540);
#1235=AXIS2_PLACEMENT_3D('',#1868,#1542,#1543);
#1236=AXIS2_PLACEMENT_3D('',#1870,#1545,#1546);
#1237=AXIS2_PLACEMENT_3D('',#1872,#1548,#1549);
#1238=AXIS2_PLACEMENT_3D('',#1874,#1551,#1552);
#1239=AXIS2_PLACEMENT_3D('',#1876,#1554,#1555);
#1240=AXIS2_PLACEMENT_3D('',#1878,#1557,#1558);
#1241=AXIS2_PLACEMENT_3D('',#1879,#1559,#1560);
#1242=AXIS2_PLACEMENT_3D('',#1883,#1563,#1564);
#1243=AXIS2_PLACEMENT_3D('',#1885,#1566,#1567);
#1244=DIRECTION('axis',(0.,0.,1.));
#1245=DIRECTION('refdir',(1.,0.,0.));
#1246=DIRECTION('center_axis',(0.,0.,1.));
#1247=DIRECTION('ref_axis',(1.,0.,0.));
#1248=DIRECTION('center_axis',(0.,0.,1.));
#1249=DIRECTION('ref_axis',(1.,0.,0.));
#1250=DIRECTION('',(0.799999999999999,9.79717439317881E-17,-0.600000000000001));
#1251=DIRECTION('center_axis',(0.,0.,-1.));
#1252=DIRECTION('ref_axis',(1.,0.,0.));
#1253=DIRECTION('center_axis',(0.,0.,1.));
#1254=DIRECTION('ref_axis',(1.,0.,0.));
#1255=DIRECTION('',(0.,1.,0.));
#1256=DIRECTION('',(-1.,-3.94430452610506E-33,0.));
#1257=DIRECTION('',(0.,-1.,0.));
#1258=DIRECTION('',(1.,0.,0.));
#1259=DIRECTION('center_axis',(0.,0.,1.));
#1260=DIRECTION('ref_axis',(1.,0.,0.));
#1261=DIRECTION('center_axis',(0.,0.,1.));
#1262=DIRECTION('ref_axis',(1.,0.,0.));
#1263=DIRECTION('center_axis',(0.,0.,-1.));
#1264=DIRECTION('ref_axis',(1.,0.,0.));
#1265=DIRECTION('',(0.,-1.,0.));
#1266=DIRECTION('center_axis',(0.,0.,-1.));
#1267=DIRECTION('ref_axis',(-4.44089209851985E-15,-1.,0.));
#1268=DIRECTION('',(-1.,-3.04170691678035E-16,0.));
#1269=DIRECTION('center_axis',(0.,0.,-1.));
#1270=DIRECTION('ref_axis',(-1.,0.,0.));
#1271=DIRECTION('',(6.64719517928436E-15,1.,0.));
#1272=DIRECTION('center_axis',(0.,0.,-1.));
#1273=DIRECTION('ref_axis',(5.77315972804817E-14,1.,0.));
#1274=DIRECTION('',(1.,-6.69175521691903E-15,0.));
#1275=DIRECTION('center_axis',(0.,0.,-1.));
#1276=DIRECTION('ref_axis',(-1.,1.17683640610277E-13,0.));
#1277=DIRECTION('',(6.6471951792844E-15,1.,0.));
#1278=DIRECTION('center_axis',(0.,0.,-1.));
#1279=DIRECTION('ref_axis',(-1.06581410364027E-13,1.,0.));
#1280=DIRECTION('',(1.,0.,0.));
#1281=DIRECTION('center_axis',(0.,0.,-1.));
#1282=DIRECTION('ref_axis',(1.,-8.88178419700136E-15,0.));
#1283=DIRECTION('',(-2.8285936933125E-16,-1.,0.));
#1284=DIRECTION('center_axis',(0.,0.,-1.));
#1285=DIRECTION('ref_axis',(0.,-1.,0.));
#1286=DIRECTION('',(-1.,0.,0.));
#1287=DIRECTION('center_axis',(0.,0.,1.));
#1288=DIRECTION('ref_axis',(1.,0.,0.));
#1289=DIRECTION('center_axis',(0.,0.,1.));
#1290=DIRECTION('ref_axis',(1.,0.,0.));
#1291=DIRECTION('',(0.,0.,-1.));
#1292=DIRECTION('center_axis',(0.,0.,-1.));
#1293=DIRECTION('ref_axis',(1.,0.,0.));
#1294=DIRECTION('center_axis',(0.,0.,1.));
#1295=DIRECTION('ref_axis',(1.,0.,0.));
#1296=DIRECTION('',(0.8,9.79717439317883E-17,-0.6));
#1297=DIRECTION('center_axis',(0.,0.,-1.));
#1298=DIRECTION('ref_axis',(1.,0.,0.));
#1299=DIRECTION('center_axis',(0.,0.,1.));
#1300=DIRECTION('ref_axis',(1.,0.,0.));
#1301=DIRECTION('',(0.,0.,-1.));
#1302=DIRECTION('center_axis',(0.,0.,-1.));
#1303=DIRECTION('ref_axis',(1.,0.,0.));
#1304=DIRECTION('center_axis',(0.,0.,1.));
#1305=DIRECTION('ref_axis',(1.,0.,0.));
#1306=DIRECTION('',(0.799999999999999,9.79717439317881E-17,-0.600000000000001));
#1307=DIRECTION('center_axis',(0.,0.,-1.));
#1308=DIRECTION('ref_axis',(1.,0.,0.));
#1309=DIRECTION('center_axis',(0.,0.,1.));
#1310=DIRECTION('ref_axis',(1.,0.,0.));
#1311=DIRECTION('',(0.,0.,-1.));
#1312=DIRECTION('center_axis',(0.,0.,-1.));
#1313=DIRECTION('ref_axis',(1.,0.,0.));
#1314=DIRECTION('center_axis',(0.,0.,1.));
#1315=DIRECTION('ref_axis',(1.,0.,0.));
#1316=DIRECTION('',(0.8,9.79717439317883E-17,-0.6));
#1317=DIRECTION('center_axis',(0.,0.,-1.));
#1318=DIRECTION('ref_axis',(1.,0.,0.));
#1319=DIRECTION('center_axis',(0.,0.,1.));
#1320=DIRECTION('ref_axis',(1.,0.,0.));
#1321=DIRECTION('',(0.,0.,-1.));
#1322=DIRECTION('center_axis',(0.,0.,-1.));
#1323=DIRECTION('ref_axis',(1.,0.,0.));
#1324=DIRECTION('center_axis',(-0.707106781186547,0.,0.707106781186548));
#1325=DIRECTION('ref_axis',(0.707106781186548,0.,0.707106781186547));
#1326=DIRECTION('',(0.,1.,0.));
#1327=DIRECTION('',(0.577350269189626,0.577350269189626,0.577350269189626));
#1328=DIRECTION('',(0.,-1.,0.));
#1329=DIRECTION('',(-0.577350269189626,0.577350269189625,-0.577350269189626));
#1330=DIRECTION('center_axis',(0.,0.707106781186548,0.707106781186547));
#1331=DIRECTION('ref_axis',(1.,0.,0.));
#1332=DIRECTION('',(1.,0.,0.));
#1333=DIRECTION('',(-1.,0.,0.));
#1334=DIRECTION('',(0.577350269189626,0.577350269189626,-0.577350269189626));
#1335=DIRECTION('center_axis',(0.707106781186548,0.,0.707106781186547));
#1336=DIRECTION('ref_axis',(0.707106781186547,0.,-0.707106781186548));
#1337=DIRECTION('',(0.,-1.,0.));
#1338=DIRECTION('',(0.,1.,0.));
#1339=DIRECTION('',(0.577350269189625,-0.577350269189626,-0.577350269189626));
#1340=DIRECTION('center_axis',(2.78904447747368E-33,-0.707106781186547,
0.707106781186548));
#1341=DIRECTION('ref_axis',(1.,0.,-3.94430452610506E-33));
#1342=DIRECTION('',(1.,3.94430452610506E-33,-4.83822093061706E-49));
#1343=DIRECTION('',(-1.,-3.94430452610506E-33,0.));
#1344=DIRECTION('center_axis',(3.94430452610506E-33,-1.,0.));
#1345=DIRECTION('ref_axis',(1.,3.94430452610506E-33,0.));
#1346=DIRECTION('',(0.,0.,1.));
#1347=DIRECTION('',(1.,3.94430452610506E-33,0.));
#1348=DIRECTION('',(0.,0.,-1.));
#1349=DIRECTION('center_axis',(-1.,0.,0.));
#1350=DIRECTION('ref_axis',(0.,-1.,0.));
#1351=DIRECTION('',(0.,-1.,0.));
#1352=DIRECTION('',(0.,0.,-1.));
#1353=DIRECTION('center_axis',(0.,0.,1.));
#1354=DIRECTION('ref_axis',(1.,0.,0.));
#1355=DIRECTION('center_axis',(0.,0.,-1.));
#1356=DIRECTION('ref_axis',(1.,0.,0.));
#1357=DIRECTION('',(1.,-6.69175521691903E-15,0.));
#1358=DIRECTION('center_axis',(0.,0.,-1.));
#1359=DIRECTION('ref_axis',(5.77315972804817E-14,1.,0.));
#1360=DIRECTION('',(6.64719517928436E-15,1.,0.));
#1361=DIRECTION('center_axis',(0.,0.,-1.));
#1362=DIRECTION('ref_axis',(-1.,0.,0.));
#1363=DIRECTION('',(-1.,-3.04170691678035E-16,0.));
#1364=DIRECTION('center_axis',(0.,0.,-1.));
#1365=DIRECTION('ref_axis',(-4.44089209851985E-15,-1.,0.));
#1366=DIRECTION('',(0.,-1.,0.));
#1367=DIRECTION('center_axis',(0.,0.,-1.));
#1368=DIRECTION('ref_axis',(-1.,1.17683640610277E-13,0.));
#1369=DIRECTION('',(-1.,0.,0.));
#1370=DIRECTION('center_axis',(0.,0.,-1.));
#1371=DIRECTION('ref_axis',(0.,-1.,0.));
#1372=DIRECTION('',(-2.8285936933125E-16,-1.,0.));
#1373=DIRECTION('center_axis',(0.,0.,-1.));
#1374=DIRECTION('ref_axis',(1.,-8.88178419700136E-15,0.));
#1375=DIRECTION('',(1.,0.,0.));
#1376=DIRECTION('center_axis',(0.,0.,-1.));
#1377=DIRECTION('ref_axis',(-1.06581410364027E-13,1.,0.));
#1378=DIRECTION('',(6.6471951792844E-15,1.,0.));
#1379=DIRECTION('center_axis',(-6.69175521691903E-15,-1.,0.));
#1380=DIRECTION('ref_axis',(1.,-6.69175521691903E-15,0.));
#1381=DIRECTION('',(1.,-6.69175521691903E-15,0.));
#1382=DIRECTION('',(0.,0.,1.));
#1383=DIRECTION('',(0.,0.,1.));
#1384=DIRECTION('center_axis',(0.,0.,1.));
#1385=DIRECTION('ref_axis',(5.77315972804817E-14,1.,0.));
#1386=DIRECTION('center_axis',(0.,0.,-1.));
#1387=DIRECTION('ref_axis',(5.77315972804817E-14,1.,0.));
#1388=DIRECTION('',(0.,0.,1.));
#1389=DIRECTION('center_axis',(1.,-6.64719517928436E-15,0.));
#1390=DIRECTION('ref_axis',(6.64719517928436E-15,1.,0.));
#1391=DIRECTION('',(6.64719517928436E-15,1.,0.));
#1392=DIRECTION('',(0.,0.,1.));
#1393=DIRECTION('center_axis',(0.,0.,1.));
#1394=DIRECTION('ref_axis',(-1.,0.,0.));
#1395=DIRECTION('center_axis',(0.,0.,-1.));
#1396=DIRECTION('ref_axis',(-1.,0.,0.));
#1397=DIRECTION('',(0.,0.,1.));
#1398=DIRECTION('center_axis',(-3.04170691678035E-16,1.,0.));
#1399=DIRECTION('ref_axis',(-1.,-3.04170691678035E-16,0.));
#1400=DIRECTION('',(-1.,-3.04170691678035E-16,0.));
#1401=DIRECTION('',(0.,0.,1.));
#1402=DIRECTION('center_axis',(0.,0.,1.));
#1403=DIRECTION('ref_axis',(-4.44089209851985E-15,-1.,0.));
#1404=DIRECTION('center_axis',(0.,0.,-1.));
#1405=DIRECTION('ref_axis',(-4.44089209851985E-15,-1.,0.));
#1406=DIRECTION('',(0.,0.,1.));
#1407=DIRECTION('center_axis',(-1.,0.,0.));
#1408=DIRECTION('ref_axis',(0.,-1.,0.));
#1409=DIRECTION('',(0.,-1.,0.));
#1410=DIRECTION('',(0.,0.,1.));
#1411=DIRECTION('center_axis',(0.,0.,1.));
#1412=DIRECTION('ref_axis',(1.,0.,0.));
#1413=DIRECTION('center_axis',(0.,0.,-1.));
#1414=DIRECTION('ref_axis',(1.,0.,0.));
#1415=DIRECTION('center_axis',(0.,1.,0.));
#1416=DIRECTION('ref_axis',(-1.,0.,0.));
#1417=DIRECTION('',(-1.,0.,0.));
#1418=DIRECTION('',(0.,0.,1.));
#1419=DIRECTION('',(0.,0.,1.));
#1420=DIRECTION('center_axis',(0.,0.,1.));
#1421=DIRECTION('ref_axis',(0.,-1.,0.));
#1422=DIRECTION('center_axis',(0.,0.,-1.));
#1423=DIRECTION('ref_axis',(0.,-1.,0.));
#1424=DIRECTION('',(0.,0.,1.));
#1425=DIRECTION('center_axis',(-1.,2.8285936933125E-16,0.));
#1426=DIRECTION('ref_axis',(-2.8285936933125E-16,-1.,0.));
#1427=DIRECTION('',(-2.8285936933125E-16,-1.,0.));
#1428=DIRECTION('',(0.,0.,1.));
#1429=DIRECTION('center_axis',(0.,0.,1.));
#1430=DIRECTION('ref_axis',(1.,-8.88178419700136E-15,0.));
#1431=DIRECTION('center_axis',(0.,0.,-1.));
#1432=DIRECTION('ref_axis',(1.,-8.88178419700136E-15,0.));
#1433=DIRECTION('',(0.,0.,1.));
#1434=DIRECTION('center_axis',(0.,-1.,0.));
#1435=DIRECTION('ref_axis',(1.,0.,0.));
#1436=DIRECTION('',(1.,0.,0.));
#1437=DIRECTION('',(0.,0.,1.));
#1438=DIRECTION('center_axis',(0.,0.,1.));
#1439=DIRECTION('ref_axis',(-1.06581410364027E-13,1.,0.));
#1440=DIRECTION('center_axis',(0.,0.,-1.));
#1441=DIRECTION('ref_axis',(-1.06581410364027E-13,1.,0.));
#1442=DIRECTION('',(0.,0.,1.));
#1443=DIRECTION('center_axis',(1.,-6.6471951792844E-15,0.));
#1444=DIRECTION('ref_axis',(6.6471951792844E-15,1.,0.));
#1445=DIRECTION('',(6.6471951792844E-15,1.,0.));
#1446=DIRECTION('',(0.,0.,1.));
#1447=DIRECTION('center_axis',(0.,0.,1.));
#1448=DIRECTION('ref_axis',(-1.,1.17683640610277E-13,0.));
#1449=DIRECTION('center_axis',(0.,0.,-1.));
#1450=DIRECTION('ref_axis',(-1.,1.17683640610277E-13,0.));
#1451=DIRECTION('center_axis',(0.,1.,0.));
#1452=DIRECTION('ref_axis',(-1.,0.,0.));
#1453=DIRECTION('',(-1.,0.,0.));
#1454=DIRECTION('',(0.,0.,-1.));
#1455=DIRECTION('center_axis',(1.,0.,0.));
#1456=DIRECTION('ref_axis',(0.,1.,0.));
#1457=DIRECTION('',(0.,1.,0.));
#1458=DIRECTION('center_axis',(0.,0.,1.));
#1459=DIRECTION('ref_axis',(1.,0.,0.));
#1460=DIRECTION('center_axis',(0.,0.,-1.));
#1461=DIRECTION('ref_axis',(-1.,1.17683640610277E-13,0.));
#1462=DIRECTION('',(-1.,0.,0.));
#1463=DIRECTION('center_axis',(0.,0.,-1.));
#1464=DIRECTION('ref_axis',(0.,-1.,0.));
#1465=DIRECTION('',(-2.8285936933125E-16,-1.,0.));
#1466=DIRECTION('center_axis',(0.,0.,-1.));
#1467=DIRECTION('ref_axis',(1.,-8.88178419700136E-15,0.));
#1468=DIRECTION('',(1.,0.,0.));
#1469=DIRECTION('center_axis',(0.,0.,-1.));
#1470=DIRECTION('ref_axis',(-1.06581410364027E-13,1.,0.));
#1471=DIRECTION('',(6.6471951792844E-15,1.,0.));
#1472=DIRECTION('center_axis',(0.,0.,1.));
#1473=DIRECTION('ref_axis',(1.,0.,0.));
#1474=DIRECTION('center_axis',(0.,0.,-1.));
#1475=DIRECTION('ref_axis',(1.,0.,0.));
#1476=DIRECTION('',(1.,-6.69175521691903E-15,0.));
#1477=DIRECTION('center_axis',(0.,0.,-1.));
#1478=DIRECTION('ref_axis',(5.77315972804817E-14,1.,0.));
#1479=DIRECTION('',(6.64719517928436E-15,1.,0.));
#1480=DIRECTION('center_axis',(0.,0.,-1.));
#1481=DIRECTION('ref_axis',(-1.,0.,0.));
#1482=DIRECTION('',(-1.,-3.04170691678035E-16,0.));
#1483=DIRECTION('center_axis',(0.,0.,-1.));
#1484=DIRECTION('ref_axis',(-4.44089209851985E-15,-1.,0.));
#1485=DIRECTION('',(0.,-1.,0.));
#1486=DIRECTION('center_axis',(-0.707106781186547,0.,0.707106781186548));
#1487=DIRECTION('ref_axis',(0.707106781186548,0.,0.707106781186547));
#1488=DIRECTION('',(-0.577350269189626,0.577350269189626,-0.577350269189626));
#1489=DIRECTION('',(0.,-1.,0.));
#1490=DIRECTION('',(-0.577350269189626,-0.577350269189625,-0.577350269189626));
#1491=DIRECTION('center_axis',(0.,0.707106781186548,0.707106781186547));
#1492=DIRECTION('ref_axis',(1.,0.,0.));
#1493=DIRECTION('',(0.577350269189626,0.577350269189626,-0.577350269189626));
#1494=DIRECTION('',(-1.,0.,0.));
#1495=DIRECTION('center_axis',(0.707106781186548,0.,0.707106781186547));
#1496=DIRECTION('ref_axis',(0.707106781186547,0.,-0.707106781186548));
#1497=DIRECTION('',(0.577350269189625,-0.577350269189626,-0.577350269189626));
#1498=DIRECTION('',(0.,1.,0.));
#1499=DIRECTION('center_axis',(2.78904447747368E-33,-0.707106781186547,
0.707106781186548));
#1500=DIRECTION('ref_axis',(1.,0.,-3.94430452610506E-33));
#1501=DIRECTION('',(1.,3.94430452610506E-33,0.));
#1502=DIRECTION('center_axis',(3.94430452610506E-33,-1.,0.));
#1503=DIRECTION('ref_axis',(1.,3.94430452610506E-33,0.));
#1504=DIRECTION('',(0.,0.,1.));
#1505=DIRECTION('',(1.,3.94430452610506E-33,0.));
#1506=DIRECTION('',(0.,0.,1.));
#1507=DIRECTION('center_axis',(-1.,0.,0.));
#1508=DIRECTION('ref_axis',(0.,-1.,0.));
#1509=DIRECTION('',(0.,0.,1.));
#1510=DIRECTION('',(0.,-1.,0.));
#1511=DIRECTION('center_axis',(-6.69175521691903E-15,-1.,0.));
#1512=DIRECTION('ref_axis',(1.,-6.69175521691903E-15,0.));
#1513=DIRECTION('',(0.,0.,1.));
#1514=DIRECTION('',(0.,0.,1.));
#1515=DIRECTION('center_axis',(0.,0.,1.));
#1516=DIRECTION('ref_axis',(5.77315972804817E-14,1.,0.));
#1517=DIRECTION('',(0.,0.,1.));
#1518=DIRECTION('center_axis',(1.,-6.64719517928436E-15,0.));
#1519=DIRECTION('ref_axis',(6.64719517928436E-15,1.,0.));
#1520=DIRECTION('',(0.,0.,1.));
#1521=DIRECTION('center_axis',(0.,0.,1.));
#1522=DIRECTION('ref_axis',(-1.,0.,0.));
#1523=DIRECTION('',(0.,0.,1.));
#1524=DIRECTION('center_axis',(-3.04170691678035E-16,1.,0.));
#1525=DIRECTION('ref_axis',(-1.,-3.04170691678035E-16,0.));
#1526=DIRECTION('',(0.,0.,1.));
#1527=DIRECTION('center_axis',(0.,0.,1.));
#1528=DIRECTION('ref_axis',(-4.44089209851985E-15,-1.,0.));
#1529=DIRECTION('',(0.,0.,1.));
#1530=DIRECTION('center_axis',(-1.,0.,0.));
#1531=DIRECTION('ref_axis',(0.,-1.,0.));
#1532=DIRECTION('',(0.,0.,1.));
#1533=DIRECTION('center_axis',(0.,0.,1.));
#1534=DIRECTION('ref_axis',(1.,0.,0.));
#1535=DIRECTION('center_axis',(0.,1.,0.));
#1536=DIRECTION('ref_axis',(-1.,0.,0.));
#1537=DIRECTION('',(0.,0.,1.));
#1538=DIRECTION('',(0.,0.,1.));
#1539=DIRECTION('center_axis',(0.,0.,1.));
#1540=DIRECTION('ref_axis',(0.,-1.,0.));
#1541=DIRECTION('',(0.,0.,1.));
#1542=DIRECTION('center_axis',(-1.,2.8285936933125E-16,0.));
#1543=DIRECTION('ref_axis',(-2.8285936933125E-16,-1.,0.));
#1544=DIRECTION('',(0.,0.,1.));
#1545=DIRECTION('center_axis',(0.,0.,1.));
#1546=DIRECTION('ref_axis',(1.,-8.88178419700136E-15,0.));
#1547=DIRECTION('',(0.,0.,1.));
#1548=DIRECTION('center_axis',(0.,-1.,0.));
#1549=DIRECTION('ref_axis',(1.,0.,0.));
#1550=DIRECTION('',(0.,0.,1.));
#1551=DIRECTION('center_axis',(0.,0.,1.));
#1552=DIRECTION('ref_axis',(-1.06581410364027E-13,1.,0.));
#1553=DIRECTION('',(0.,0.,1.));
#1554=DIRECTION('center_axis',(1.,-6.6471951792844E-15,0.));
#1555=DIRECTION('ref_axis',(6.6471951792844E-15,1.,0.));
#1556=DIRECTION('',(0.,0.,1.));
#1557=DIRECTION('center_axis',(0.,0.,1.));
#1558=DIRECTION('ref_axis',(-1.,1.17683640610277E-13,0.));
#1559=DIRECTION('center_axis',(0.,1.,0.));
#1560=DIRECTION('ref_axis',(-1.,0.,0.));
#1561=DIRECTION('',(0.,0.,1.));
#1562=DIRECTION('',(-1.,0.,0.));
#1563=DIRECTION('center_axis',(1.,0.,0.));
#1564=DIRECTION('ref_axis',(0.,1.,0.));
#1565=DIRECTION('',(0.,1.,0.));
#1566=DIRECTION('center_axis',(0.,0.,1.));
#1567=DIRECTION('ref_axis',(1.,0.,0.));
#1568=CARTESIAN_POINT('',(0.,0.,0.));
#1569=CARTESIAN_POINT('Origin',(85.4999999999998,110.100000000313,5.65));
#1570=CARTESIAN_POINT('',(81.9999999999999,110.100000000313,6.4));
#1571=CARTESIAN_POINT('Origin',(85.4999999999998,110.100000000313,6.4));
#1572=CARTESIAN_POINT('',(83.9999999999998,110.100000000313,4.9));
#1573=CARTESIAN_POINT('',(82.9999999999998,110.100000000313,5.65));
#1574=CARTESIAN_POINT('Origin',(85.4999999999998,110.100000000313,4.9));
#1575=CARTESIAN_POINT('Origin',(62.5,61.7,6.4));
#1576=CARTESIAN_POINT('',(3.5,3.5,6.4));
#1577=CARTESIAN_POINT('',(3.5,119.9,6.4));
#1578=CARTESIAN_POINT('',(3.5,92.55,6.4));
#1579=CARTESIAN_POINT('',(121.5,3.5,6.4));
#1580=CARTESIAN_POINT('',(31.25,3.5,6.4));
#1581=CARTESIAN_POINT('',(121.5,119.9,6.4));
#1582=CARTESIAN_POINT('',(121.5,30.85,6.4));
#1583=CARTESIAN_POINT('',(93.75,119.9,6.4));
#1584=CARTESIAN_POINT('',(35.9999999999998,110.10000000028,6.4));
#1585=CARTESIAN_POINT('Origin',(39.4999999999998,110.10000000028,6.4));
#1586=CARTESIAN_POINT('',(36.0000000000053,13.3000000003128,6.4));
#1587=CARTESIAN_POINT('Origin',(39.5000000000053,13.3000000003128,6.4));
#1588=CARTESIAN_POINT('',(54.0999999999996,95.1000000003133,6.4));
#1589=CARTESIAN_POINT('',(56.0999999999995,93.1000000003134,6.4));
#1590=CARTESIAN_POINT('Origin',(54.0999999999996,93.1000000003134,6.4));
#1591=CARTESIAN_POINT('',(56.0999999999997,30.3000000003047,6.4));
#1592=CARTESIAN_POINT('',(56.0999999999995,93.1000000003134,6.4));
#1593=CARTESIAN_POINT('',(54.1000000000083,28.3000000003133,6.4));
#1594=CARTESIAN_POINT('Origin',(54.1000000000084,30.3000000003047,6.4));
#1595=CARTESIAN_POINT('',(24.8999999999997,28.3000000003138,6.4));
#1596=CARTESIAN_POINT('',(54.1000000000083,28.3000000003133,6.4));
#1597=CARTESIAN_POINT('',(22.9000000000005,30.3000000003127,6.4));
#1598=CARTESIAN_POINT('Origin',(24.8999999999994,30.3000000003127,6.4));
#1599=CARTESIAN_POINT('',(22.8999999999998,93.1000000003129,6.4));
#1600=CARTESIAN_POINT('',(22.9000000000005,30.3000000003127,6.4));
#1601=CARTESIAN_POINT('',(24.9000000000009,95.1000000003138,6.4));
#1602=CARTESIAN_POINT('Origin',(24.9000000000007,93.1000000003129,6.4));
#1603=CARTESIAN_POINT('',(24.9000000000009,95.1000000003138,6.4));
#1604=CARTESIAN_POINT('',(70.9000000000001,28.3000000003134,6.4));
#1605=CARTESIAN_POINT('',(68.9000000000001,30.3000000003134,6.4));
#1606=CARTESIAN_POINT('Origin',(70.8999999999999,30.3000000003132,6.4));
#1607=CARTESIAN_POINT('',(68.9000000000001,93.1000000003132,6.4));
#1608=CARTESIAN_POINT('',(68.9000000000005,93.1000000003132,6.4));
#1609=CARTESIAN_POINT('',(70.8999999999997,95.1000000003131,6.4));
#1610=CARTESIAN_POINT('Origin',(70.8999999999999,93.1000000003133,6.4));
#1611=CARTESIAN_POINT('',(100.100000000001,95.1000000003133,6.4));
#1612=CARTESIAN_POINT('',(100.100000000001,95.1000000003131,6.4));
#1613=CARTESIAN_POINT('',(102.1,93.1000000003134,6.4));
#1614=CARTESIAN_POINT('Origin',(100.1,93.1000000003134,6.4));
#1615=CARTESIAN_POINT('',(102.1,30.3000000003133,6.4));
#1616=CARTESIAN_POINT('',(102.1,30.3000000003133,6.4));
#1617=CARTESIAN_POINT('',(100.1,28.3000000003133,6.4));
#1618=CARTESIAN_POINT('Origin',(100.1,30.3000000003133,6.4));
#1619=CARTESIAN_POINT('',(70.9000000000001,28.3000000003133,6.4));
#1620=CARTESIAN_POINT('',(81.9999999999996,13.3,6.4));
#1621=CARTESIAN_POINT('Origin',(85.4999999999996,13.3,6.4));
#1622=CARTESIAN_POINT('Origin',(85.4999999999998,110.100000000313,0.));
#1623=CARTESIAN_POINT('',(83.9999999999998,110.100000000313,4.8));
#1624=CARTESIAN_POINT('',(83.9999999999998,110.100000000313,0.));
#1625=CARTESIAN_POINT('Origin',(85.4999999999998,110.100000000313,4.8));
#1626=CARTESIAN_POINT('Origin',(39.4999999999998,110.10000000028,5.65));
#1627=CARTESIAN_POINT('',(37.9999999999998,110.10000000028,4.9));
#1628=CARTESIAN_POINT('',(36.9999999999998,110.10000000028,5.65));
#1629=CARTESIAN_POINT('Origin',(39.4999999999998,110.10000000028,4.9));
#1630=CARTESIAN_POINT('Origin',(39.4999999999998,110.10000000028,0.));
#1631=CARTESIAN_POINT('',(37.9999999999998,110.10000000028,4.8));
#1632=CARTESIAN_POINT('',(37.9999999999998,110.10000000028,0.));
#1633=CARTESIAN_POINT('Origin',(39.4999999999998,110.10000000028,4.8));
#1634=CARTESIAN_POINT('Origin',(85.4999999999996,13.3,5.65));
#1635=CARTESIAN_POINT('',(83.9999999999996,13.3,4.9));
#1636=CARTESIAN_POINT('',(82.9999999999996,13.3,5.65));
#1637=CARTESIAN_POINT('Origin',(85.4999999999996,13.3,4.9));
#1638=CARTESIAN_POINT('Origin',(85.4999999999996,13.3,0.));
#1639=CARTESIAN_POINT('',(83.9999999999996,13.3,4.8));
#1640=CARTESIAN_POINT('',(83.9999999999996,13.3,0.));
#1641=CARTESIAN_POINT('Origin',(85.4999999999996,13.3,4.8));
#1642=CARTESIAN_POINT('Origin',(39.5000000000053,13.3000000003128,5.65));
#1643=CARTESIAN_POINT('',(38.0000000000053,13.3000000003128,4.9));
#1644=CARTESIAN_POINT('',(37.0000000000053,13.3000000003128,5.65));
#1645=CARTESIAN_POINT('Origin',(39.5000000000053,13.3000000003128,4.9));
#1646=CARTESIAN_POINT('Origin',(39.5000000000053,13.3000000003128,0.));
#1647=CARTESIAN_POINT('',(38.0000000000053,13.3000000003128,4.8));
#1648=CARTESIAN_POINT('',(38.0000000000053,13.3000000003128,0.));
#1649=CARTESIAN_POINT('Origin',(39.5000000000053,13.3000000003128,4.8));
#1650=CARTESIAN_POINT('Origin',(2.88137084989848,92.55,3.51862915010152));
#1651=CARTESIAN_POINT('',(4.16274169979695,4.16274169979696,4.8));
#1652=CARTESIAN_POINT('',(4.16274169979696,119.237258300203,4.8));
#1653=CARTESIAN_POINT('',(4.16274169979697,77.125,4.8));
#1654=CARTESIAN_POINT('',(1.6,1.6,2.23725830020305));
#1655=CARTESIAN_POINT('',(22.5542472332657,22.5542472332657,23.1915055334687));
#1656=CARTESIAN_POINT('',(1.6,121.8,2.23725830020305));
#1657=CARTESIAN_POINT('',(1.6,107.975,2.23725830020305));
#1658=CARTESIAN_POINT('',(22.687580566599,100.712419433401,23.324838866802));
#1659=CARTESIAN_POINT('Origin',(93.75,120.518629150102,3.51862915010153));
#1660=CARTESIAN_POINT('',(120.837258300203,119.237258300203,4.8));
#1661=CARTESIAN_POINT('',(78.125,119.237258300203,4.8));
#1662=CARTESIAN_POINT('',(123.4,121.8,2.23725830020305));
#1663=CARTESIAN_POINT('',(109.375,121.8,2.23725830020305));
#1664=CARTESIAN_POINT('',(102.445752766734,100.845752766734,23.1915055334687));
#1665=CARTESIAN_POINT('Origin',(122.118629150102,30.85,3.51862915010153));
#1666=CARTESIAN_POINT('',(120.837258300203,4.16274169979695,4.8));
#1667=CARTESIAN_POINT('',(120.837258300203,46.275,4.8));
#1668=CARTESIAN_POINT('',(123.4,1.6,2.23725830020304));
#1669=CARTESIAN_POINT('',(123.4,15.425,2.23725830020304));
#1670=CARTESIAN_POINT('',(102.312419433401,22.687580566599,23.324838866802));
#1671=CARTESIAN_POINT('Origin',(31.25,2.88137084989848,3.51862915010152));
#1672=CARTESIAN_POINT('',(15.625,1.6,2.23725830020305));
#1673=CARTESIAN_POINT('',(46.875,4.16274169979697,4.8));
#1674=CARTESIAN_POINT('Origin',(-6.3108872417681E-33,1.6,0.));
#1675=CARTESIAN_POINT('',(123.4,1.6,0.));
#1676=CARTESIAN_POINT('',(123.4,1.6,0.));
#1677=CARTESIAN_POINT('',(1.6,1.6,0.));
#1678=CARTESIAN_POINT('',(31.25,1.6,0.));
#1679=CARTESIAN_POINT('',(1.6,1.6,0.));
#1680=CARTESIAN_POINT('Origin',(1.6,123.4,0.));
#1681=CARTESIAN_POINT('',(1.6,121.8,0.));
#1682=CARTESIAN_POINT('',(1.6,92.55,0.));
#1683=CARTESIAN_POINT('',(1.6,121.8,0.));
#1684=CARTESIAN_POINT('Origin',(62.5,61.7,4.8));
#1685=CARTESIAN_POINT('',(54.0999999999996,96.7000000003134,4.8));
#1686=CARTESIAN_POINT('',(57.6999999999995,93.1000000003134,4.8));
#1687=CARTESIAN_POINT('Origin',(54.0999999999996,93.1000000003134,4.8));
#1688=CARTESIAN_POINT('',(24.9000000000009,96.7000000003138,4.8));
#1689=CARTESIAN_POINT('',(43.7000000000005,96.7000000003137,4.8));
#1690=CARTESIAN_POINT('',(21.2999999999998,93.1000000003129,4.8));
#1691=CARTESIAN_POINT('Origin',(24.9000000000007,93.1000000003129,4.8));
#1692=CARTESIAN_POINT('',(21.3000000000005,30.3000000003127,4.8));
#1693=CARTESIAN_POINT('',(21.3000000000006,46.0000000001565,4.8));
#1694=CARTESIAN_POINT('',(24.8999999999997,26.7000000003138,4.8));
#1695=CARTESIAN_POINT('Origin',(24.8999999999994,30.3000000003127,4.8));
#1696=CARTESIAN_POINT('',(54.1000000000083,26.7000000003133,4.8));
#1697=CARTESIAN_POINT('',(58.3000000000042,26.7000000003133,4.8));
#1698=CARTESIAN_POINT('',(57.6999999999997,30.3000000003047,4.8));
#1699=CARTESIAN_POINT('Origin',(54.1000000000084,30.3000000003047,4.8));
#1700=CARTESIAN_POINT('',(57.6999999999995,77.4000000001567,4.8));
#1701=CARTESIAN_POINT('',(70.9000000000001,26.7000000003134,4.8));
#1702=CARTESIAN_POINT('',(67.3000000000001,30.3000000003134,4.8));
#1703=CARTESIAN_POINT('Origin',(70.8999999999999,30.3000000003132,4.8));
#1704=CARTESIAN_POINT('',(100.1,26.7000000003133,4.8));
#1705=CARTESIAN_POINT('',(81.3000000000002,26.7000000003133,4.8));
#1706=CARTESIAN_POINT('',(103.7,30.3000000003133,4.8));
#1707=CARTESIAN_POINT('Origin',(100.1,30.3000000003133,4.8));
#1708=CARTESIAN_POINT('',(103.7,93.1000000003134,4.8));
#1709=CARTESIAN_POINT('',(103.7,77.4000000001567,4.8));
#1710=CARTESIAN_POINT('',(100.100000000001,96.7000000003134,4.8));
#1711=CARTESIAN_POINT('Origin',(100.1,93.1000000003134,4.8));
#1712=CARTESIAN_POINT('',(70.8999999999997,96.7000000003131,4.8));
#1713=CARTESIAN_POINT('',(66.6999999999998,96.7000000003131,4.8));
#1714=CARTESIAN_POINT('',(67.3000000000001,93.1000000003132,4.8));
#1715=CARTESIAN_POINT('Origin',(70.8999999999999,93.1000000003133,4.8));
#1716=CARTESIAN_POINT('',(67.3000000000002,46.0000000001567,4.8));
#1717=CARTESIAN_POINT('Origin',(24.9000000000009,96.7000000003138,0.));
#1718=CARTESIAN_POINT('',(24.9000000000009,96.7000000003138,3.8));
#1719=CARTESIAN_POINT('',(54.0999999999996,96.7000000003134,3.8));
#1720=CARTESIAN_POINT('',(43.7000000000005,96.7000000003137,3.8));
#1721=CARTESIAN_POINT('',(24.9000000000009,96.7000000003138,0.));
#1722=CARTESIAN_POINT('',(54.0999999999996,96.7000000003134,0.));
#1723=CARTESIAN_POINT('Origin',(24.9000000000007,93.1000000003129,0.));
#1724=CARTESIAN_POINT('',(21.2999999999998,93.1000000003129,3.8));
#1725=CARTESIAN_POINT('Origin',(24.9000000000007,93.1000000003129,3.8));
#1726=CARTESIAN_POINT('',(21.2999999999998,93.1000000003129,0.));
#1727=CARTESIAN_POINT('Origin',(21.3000000000005,30.3000000003127,0.));
#1728=CARTESIAN_POINT('',(21.3000000000005,30.3000000003127,3.8));
#1729=CARTESIAN_POINT('',(21.3000000000006,46.0000000001565,3.8));
#1730=CARTESIAN_POINT('',(21.3000000000005,30.3000000003127,0.));
#1731=CARTESIAN_POINT('Origin',(24.8999999999994,30.3000000003127,0.));
#1732=CARTESIAN_POINT('',(24.8999999999997,26.7000000003138,3.8));
#1733=CARTESIAN_POINT('Origin',(24.8999999999994,30.3000000003127,3.8));
#1734=CARTESIAN_POINT('',(24.8999999999997,26.7000000003138,0.));
#1735=CARTESIAN_POINT('Origin',(54.1000000000083,26.7000000003133,0.));
#1736=CARTESIAN_POINT('',(54.1000000000083,26.7000000003133,3.8));
#1737=CARTESIAN_POINT('',(58.3000000000042,26.7000000003133,3.8));
#1738=CARTESIAN_POINT('',(54.1000000000083,26.7000000003133,0.));
#1739=CARTESIAN_POINT('Origin',(54.1000000000084,30.3000000003047,0.));
#1740=CARTESIAN_POINT('',(57.6999999999997,30.3000000003047,3.8));
#1741=CARTESIAN_POINT('Origin',(54.1000000000084,30.3000000003047,3.8));
#1742=CARTESIAN_POINT('',(57.6999999999997,30.3000000003047,0.));
#1743=CARTESIAN_POINT('Origin',(57.6999999999995,93.1000000003134,0.));
#1744=CARTESIAN_POINT('',(57.6999999999995,93.1000000003134,3.8));
#1745=CARTESIAN_POINT('',(57.6999999999995,77.4000000001567,3.8));
#1746=CARTESIAN_POINT('',(57.6999999999995,93.1000000003134,0.));
#1747=CARTESIAN_POINT('Origin',(54.0999999999996,93.1000000003134,0.));
#1748=CARTESIAN_POINT('Origin',(54.0999999999996,93.1000000003134,3.8));
#1749=CARTESIAN_POINT('Origin',(100.1,26.7000000003133,0.));
#1750=CARTESIAN_POINT('',(100.1,26.7000000003133,3.8));
#1751=CARTESIAN_POINT('',(70.9000000000001,26.7000000003134,3.8));
#1752=CARTESIAN_POINT('',(81.3000000000002,26.7000000003133,3.8));
#1753=CARTESIAN_POINT('',(100.1,26.7000000003133,0.));
#1754=CARTESIAN_POINT('',(70.9000000000001,26.7000000003134,0.));
#1755=CARTESIAN_POINT('Origin',(100.1,30.3000000003133,0.));
#1756=CARTESIAN_POINT('',(103.7,30.3000000003133,3.8));
#1757=CARTESIAN_POINT('Origin',(100.1,30.3000000003133,3.8));
#1758=CARTESIAN_POINT('',(103.7,30.3000000003133,0.));
#1759=CARTESIAN_POINT('Origin',(103.7,93.1000000003134,0.));
#1760=CARTESIAN_POINT('',(103.7,93.1000000003134,3.8));
#1761=CARTESIAN_POINT('',(103.7,77.4000000001567,3.8));
#1762=CARTESIAN_POINT('',(103.7,93.1000000003134,0.));
#1763=CARTESIAN_POINT('Origin',(100.1,93.1000000003134,0.));
#1764=CARTESIAN_POINT('',(100.100000000001,96.7000000003134,3.8));
#1765=CARTESIAN_POINT('Origin',(100.1,93.1000000003134,3.8));
#1766=CARTESIAN_POINT('',(100.100000000001,96.7000000003134,0.));
#1767=CARTESIAN_POINT('Origin',(70.8999999999997,96.7000000003131,0.));
#1768=CARTESIAN_POINT('',(70.8999999999997,96.7000000003131,3.8));
#1769=CARTESIAN_POINT('',(66.6999999999998,96.7000000003131,3.8));
#1770=CARTESIAN_POINT('',(70.8999999999997,96.7000000003131,0.));
#1771=CARTESIAN_POINT('Origin',(70.8999999999999,93.1000000003133,0.));
#1772=CARTESIAN_POINT('',(67.3000000000001,93.1000000003132,3.8));
#1773=CARTESIAN_POINT('Origin',(70.8999999999999,93.1000000003133,3.8));
#1774=CARTESIAN_POINT('',(67.3000000000001,93.1000000003132,0.));
#1775=CARTESIAN_POINT('Origin',(67.3000000000001,30.3000000003134,0.));
#1776=CARTESIAN_POINT('',(67.3000000000001,30.3000000003134,3.8));
#1777=CARTESIAN_POINT('',(67.3000000000002,46.0000000001567,3.8));
#1778=CARTESIAN_POINT('',(67.3000000000001,30.3000000003134,0.));
#1779=CARTESIAN_POINT('Origin',(70.8999999999999,30.3000000003132,0.));
#1780=CARTESIAN_POINT('Origin',(70.8999999999999,30.3000000003132,3.8));
#1781=CARTESIAN_POINT('Origin',(125.,121.8,0.));
#1782=CARTESIAN_POINT('',(123.4,121.8,0.));
#1783=CARTESIAN_POINT('',(93.75,121.8,0.));
#1784=CARTESIAN_POINT('',(123.4,121.8,0.));
#1785=CARTESIAN_POINT('Origin',(123.4,4.93038065763132E-31,0.));
#1786=CARTESIAN_POINT('',(123.4,30.85,0.));
#1787=CARTESIAN_POINT('Origin',(62.5,61.7,3.8));
#1788=CARTESIAN_POINT('',(70.9000000000001,28.3000000003134,3.8));
#1789=CARTESIAN_POINT('',(68.9000000000001,30.3000000003134,3.8));
#1790=CARTESIAN_POINT('Origin',(70.8999999999999,30.3000000003132,3.8));
#1791=CARTESIAN_POINT('',(100.1,28.3000000003133,3.8));
#1792=CARTESIAN_POINT('',(81.3000000000002,28.3000000003133,3.8));
#1793=CARTESIAN_POINT('',(102.1,30.3000000003133,3.8));
#1794=CARTESIAN_POINT('Origin',(100.1,30.3000000003133,3.8));
#1795=CARTESIAN_POINT('',(102.1,93.1000000003134,3.8));
#1796=CARTESIAN_POINT('',(102.1,77.4000000001567,3.8));
#1797=CARTESIAN_POINT('',(100.100000000001,95.1000000003133,3.8));
#1798=CARTESIAN_POINT('Origin',(100.1,93.1000000003134,3.8));
#1799=CARTESIAN_POINT('',(70.8999999999997,95.1000000003131,3.8));
#1800=CARTESIAN_POINT('',(66.6999999999998,95.1000000003131,3.8));
#1801=CARTESIAN_POINT('',(68.9000000000001,93.1000000003132,3.8));
#1802=CARTESIAN_POINT('Origin',(70.8999999999999,93.1000000003133,3.8));
#1803=CARTESIAN_POINT('',(68.9000000000002,46.0000000001567,3.8));
#1804=CARTESIAN_POINT('Origin',(62.5,61.7,3.8));
#1805=CARTESIAN_POINT('',(54.0999999999996,95.1000000003133,3.8));
#1806=CARTESIAN_POINT('',(56.0999999999995,93.1000000003134,3.8));
#1807=CARTESIAN_POINT('Origin',(54.0999999999996,93.1000000003134,3.8));
#1808=CARTESIAN_POINT('',(24.9000000000009,95.1000000003138,3.8));
#1809=CARTESIAN_POINT('',(43.7000000000005,95.1000000003137,3.8));
#1810=CARTESIAN_POINT('',(22.8999999999998,93.1000000003129,3.8));
#1811=CARTESIAN_POINT('Origin',(24.9000000000007,93.1000000003129,3.8));
#1812=CARTESIAN_POINT('',(22.9000000000005,30.3000000003127,3.8));
#1813=CARTESIAN_POINT('',(22.9000000000006,46.0000000001565,3.8));
#1814=CARTESIAN_POINT('',(24.8999999999997,28.3000000003138,3.8));
#1815=CARTESIAN_POINT('Origin',(24.8999999999994,30.3000000003127,3.8));
#1816=CARTESIAN_POINT('',(54.1000000000083,28.3000000003133,3.8));
#1817=CARTESIAN_POINT('',(58.3000000000042,28.3000000003133,3.8));
#1818=CARTESIAN_POINT('',(56.0999999999997,30.3000000003047,3.8));
#1819=CARTESIAN_POINT('Origin',(54.1000000000084,30.3000000003047,3.8));
#1820=CARTESIAN_POINT('',(56.0999999999995,77.4000000001567,3.8));
#1821=CARTESIAN_POINT('Origin',(1.75,92.55,4.65));
#1822=CARTESIAN_POINT('',(0.,123.4,2.9));
#1823=CARTESIAN_POINT('',(3.5,119.9,6.4));
#1824=CARTESIAN_POINT('',(0.,0.,2.9));
#1825=CARTESIAN_POINT('',(0.,92.55,2.9));
#1826=CARTESIAN_POINT('',(3.5,3.5,6.4));
#1827=CARTESIAN_POINT('Origin',(93.75,121.65,4.65));
#1828=CARTESIAN_POINT('',(125.,123.4,2.9));
#1829=CARTESIAN_POINT('',(121.5,119.9,6.4));
#1830=CARTESIAN_POINT('',(93.75,123.4,2.9));
#1831=CARTESIAN_POINT('Origin',(123.25,30.85,4.65));
#1832=CARTESIAN_POINT('',(125.,4.93038065763132E-31,2.9));
#1833=CARTESIAN_POINT('',(121.5,3.5,6.4));
#1834=CARTESIAN_POINT('',(125.,30.85,2.9));
#1835=CARTESIAN_POINT('Origin',(31.25,1.75,4.65));
#1836=CARTESIAN_POINT('',(31.25,0.,2.9));
#1837=CARTESIAN_POINT('Origin',(0.,0.,0.));
#1838=CARTESIAN_POINT('',(0.,0.,0.));
#1839=CARTESIAN_POINT('',(0.,0.,0.));
#1840=CARTESIAN_POINT('',(125.,4.93038065763132E-31,0.));
#1841=CARTESIAN_POINT('',(0.,0.,0.));
#1842=CARTESIAN_POINT('',(125.,4.93038065763132E-31,0.));
#1843=CARTESIAN_POINT('Origin',(0.,123.4,0.));
#1844=CARTESIAN_POINT('',(0.,123.4,0.));
#1845=CARTESIAN_POINT('',(0.,123.4,0.));
#1846=CARTESIAN_POINT('',(0.,123.4,0.));
#1847=CARTESIAN_POINT('Origin',(24.9000000000009,95.1000000003138,0.));
#1848=CARTESIAN_POINT('',(54.0999999999996,95.1000000003133,0.));
#1849=CARTESIAN_POINT('',(24.9000000000009,95.1000000003138,0.));
#1850=CARTESIAN_POINT('Origin',(24.9000000000007,93.1000000003129,0.));
#1851=CARTESIAN_POINT('',(22.8999999999998,93.1000000003129,0.));
#1852=CARTESIAN_POINT('Origin',(22.9000000000005,30.3000000003127,0.));
#1853=CARTESIAN_POINT('',(22.9000000000005,30.3000000003127,0.));
#1854=CARTESIAN_POINT('Origin',(24.8999999999994,30.3000000003127,0.));
#1855=CARTESIAN_POINT('',(24.8999999999997,28.3000000003138,0.));
#1856=CARTESIAN_POINT('Origin',(54.1000000000083,28.3000000003133,0.));
#1857=CARTESIAN_POINT('',(54.1000000000083,28.3000000003133,0.));
#1858=CARTESIAN_POINT('Origin',(54.1000000000084,30.3000000003047,0.));
#1859=CARTESIAN_POINT('',(56.0999999999997,30.3000000003047,0.));
#1860=CARTESIAN_POINT('Origin',(56.0999999999995,93.1000000003134,0.));
#1861=CARTESIAN_POINT('',(56.0999999999995,93.1000000003134,0.));
#1862=CARTESIAN_POINT('Origin',(54.0999999999996,93.1000000003134,0.));
#1863=CARTESIAN_POINT('Origin',(100.1,28.3000000003133,0.));
#1864=CARTESIAN_POINT('',(70.9000000000001,28.3000000003134,0.));
#1865=CARTESIAN_POINT('',(100.1,28.3000000003133,0.));
#1866=CARTESIAN_POINT('Origin',(100.1,30.3000000003133,0.));
#1867=CARTESIAN_POINT('',(102.1,30.3000000003133,0.));
#1868=CARTESIAN_POINT('Origin',(102.1,93.1000000003134,0.));
#1869=CARTESIAN_POINT('',(102.1,93.1000000003134,0.));
#1870=CARTESIAN_POINT('Origin',(100.1,93.1000000003134,0.));
#1871=CARTESIAN_POINT('',(100.100000000001,95.1000000003133,0.));
#1872=CARTESIAN_POINT('Origin',(70.8999999999997,95.1000000003131,0.));
#1873=CARTESIAN_POINT('',(70.8999999999997,95.1000000003131,0.));
#1874=CARTESIAN_POINT('Origin',(70.8999999999999,93.1000000003133,0.));
#1875=CARTESIAN_POINT('',(68.9000000000001,93.1000000003132,0.));
#1876=CARTESIAN_POINT('Origin',(68.9000000000001,30.3000000003134,0.));
#1877=CARTESIAN_POINT('',(68.9000000000001,30.3000000003134,0.));
#1878=CARTESIAN_POINT('Origin',(70.8999999999999,30.3000000003132,0.));
#1879=CARTESIAN_POINT('Origin',(125.,123.4,0.));
#1880=CARTESIAN_POINT('',(125.,123.4,0.));
#1881=CARTESIAN_POINT('',(125.,123.4,0.));
#1882=CARTESIAN_POINT('',(125.,123.4,0.));
#1883=CARTESIAN_POINT('Origin',(125.,4.93038065763132E-31,0.));
#1884=CARTESIAN_POINT('',(125.,4.93038065763132E-31,0.));
#1885=CARTESIAN_POINT('Origin',(62.5,61.7,0.));
#1886=UNCERTAINTY_MEASURE_WITH_UNIT(LENGTH_MEASURE(0.01),#1890,
'DISTANCE_ACCURACY_VALUE',
'Maximum model space distance between geometric entities at asserted c
onnectivities');
#1887=UNCERTAINTY_MEASURE_WITH_UNIT(LENGTH_MEASURE(0.01),#1890,
'DISTANCE_ACCURACY_VALUE',
'Maximum model space distance between geometric entities at asserted c
onnectivities');
#1888=(
GEOMETRIC_REPRESENTATION_CONTEXT(3)
GLOBAL_UNCERTAINTY_ASSIGNED_CONTEXT((#1886))
GLOBAL_UNIT_ASSIGNED_CONTEXT((#1890,#1892,#1893))
REPRESENTATION_CONTEXT('','3D')
);
#1889=(
GEOMETRIC_REPRESENTATION_CONTEXT(3)
GLOBAL_UNCERTAINTY_ASSIGNED_CONTEXT((#1887))
GLOBAL_UNIT_ASSIGNED_CONTEXT((#1890,#1892,#1893))
REPRESENTATION_CONTEXT('','3D')
);
#1890=(
LENGTH_UNIT()
NAMED_UNIT(*)
SI_UNIT(.MILLI.,.METRE.)
);
#1891=(
LENGTH_UNIT()
NAMED_UNIT(*)
SI_UNIT($,.METRE.)
);
#1892=(
NAMED_UNIT(*)
PLANE_ANGLE_UNIT()
SI_UNIT($,.RADIAN.)
);
#1893=(
NAMED_UNIT(*)
SI_UNIT($,.STERADIAN.)
SOLID_ANGLE_UNIT()
);
#1894=SHAPE_DEFINITION_REPRESENTATION(#1895,#1896);
#1895=PRODUCT_DEFINITION_SHAPE('',$,#1898);
#1896=SHAPE_REPRESENTATION('',(#1138),#1888);
#1897=PRODUCT_DEFINITION_CONTEXT('part definition',#1902,'design');
#1898=PRODUCT_DEFINITION('bruh_decora_1','bruh_decora_1 v1',#1899,#1897);
#1899=PRODUCT_DEFINITION_FORMATION('',$,#1904);
#1900=PRODUCT_RELATED_PRODUCT_CATEGORY('bruh_decora_1 v1',
'bruh_decora_1 v1',(#1904));
#1901=APPLICATION_PROTOCOL_DEFINITION('international standard',
'automotive_design',2009,#1902);
#1902=APPLICATION_CONTEXT(
'Core Data for Automotive Mechanical Design Process');
#1903=PRODUCT_CONTEXT('part definition',#1902,'mechanical');
#1904=PRODUCT('bruh_decora_1','bruh_decora_1 v1',$,(#1903));
#1905=PRESENTATION_STYLE_ASSIGNMENT((#1906));
#1906=SURFACE_STYLE_USAGE(.BOTH.,#1907);
#1907=SURFACE_SIDE_STYLE('',(#1908));
#1908=SURFACE_STYLE_FILL_AREA(#1909);
#1909=FILL_AREA_STYLE('Steel - Satin',(#1910));
#1910=FILL_AREA_STYLE_COLOUR('Steel - Satin',#1911);
#1911=COLOUR_RGB('Steel - Satin',0.627450980392157,0.627450980392157,0.627450980392157);
ENDSEC;
END-ISO-10303-21;
