ISO-10303-21;
HEADER;
/* Generated by software containing ST-Developer
 * from STEP Tools, Inc. (www.steptools.com) 
 */

FILE_DESCRIPTION(
/* description */ (''),
/* implementation_level */ '2;1');

FILE_NAME(
/* name */ 'Decora_1-Gang_v4.step',
/* time_stamp */ '2026-03-17T23:34:26-04:00',
/* author */ (''),
/* organization */ (''),
/* preprocessor_version */ 'ST-DEVELOPER v20.1',
/* originating_system */ 'Autodesk Translation Framework v14.24.0.0',
/* authorisation */ '');

FILE_SCHEMA (('AUTOMOTIVE_DESIGN { 1 0 10303 214 3 1 1 }'));
ENDSEC;

DATA;
#10=MECHANICAL_DESIGN_GEOMETRIC_PRESENTATION_REPRESENTATION('',(#54,#55),
#1723);
#11=SHAPE_REPRESENTATION_RELATIONSHIP('SRR','None',#1730,#12);
#12=ADVANCED_BREP_SHAPE_REPRESENTATION('',(#56,#57),#1722);
#13=CYLINDRICAL_SURFACE('',#1095,1.99999999999999);
#14=CYLINDRICAL_SURFACE('',#1098,2.);
#15=CYLINDRICAL_SURFACE('',#1101,2.00000000000001);
#16=CYLINDRICAL_SURFACE('',#1104,1.99999999999999);
#17=CYLINDRICAL_SURFACE('',#1116,1.5);
#18=CYLINDRICAL_SURFACE('',#1119,3.60000000000001);
#19=CYLINDRICAL_SURFACE('',#1122,3.6);
#20=CYLINDRICAL_SURFACE('',#1125,3.59999999999999);
#21=CYLINDRICAL_SURFACE('',#1128,3.59999999999999);
#22=CYLINDRICAL_SURFACE('',#1138,1.50000000000001);
#23=CONICAL_SURFACE('',#1091,2.5,0.927295218001613);
#24=CONICAL_SURFACE('',#1131,2.50000000000001,0.927295218001613);
#25=FACE_BOUND('',#134,.T.);
#26=FACE_BOUND('',#168,.T.);
#27=FACE_BOUND('',#169,.T.);
#28=FACE_BOUND('',#172,.T.);
#29=FACE_BOUND('',#173,.T.);
#30=CIRCLE('',#1081,3.59999999999999);
#31=CIRCLE('',#1082,3.60000000000001);
#32=CIRCLE('',#1083,3.6);
#33=CIRCLE('',#1084,3.59999999999999);
#34=CIRCLE('',#1085,1.99999999999999);
#35=CIRCLE('',#1086,1.99999999999999);
#36=CIRCLE('',#1087,2.);
#37=CIRCLE('',#1088,2.00000000000001);
#38=CIRCLE('',#1092,3.5);
#39=CIRCLE('',#1093,1.5);
#40=CIRCLE('',#1096,1.99999999999999);
#41=CIRCLE('',#1099,2.);
#42=CIRCLE('',#1102,2.00000000000001);
#43=CIRCLE('',#1105,1.99999999999999);
#44=CIRCLE('',#1117,1.5);
#45=CIRCLE('',#1120,3.60000000000001);
#46=CIRCLE('',#1123,3.6);
#47=CIRCLE('',#1126,3.59999999999999);
#48=CIRCLE('',#1129,3.59999999999999);
#49=CIRCLE('',#1132,1.50000000000001);
#50=CIRCLE('',#1133,3.50000000000001);
#51=CIRCLE('',#1137,1.50000000000001);
#52=(
BOUNDED_CURVE()
B_SPLINE_CURVE(2,(#1499,#1500,#1501,#1502),.UNSPECIFIED.,.F.,.F.)
B_SPLINE_CURVE_WITH_KNOTS((3,1,3),(3.00039594952319,3.02155118612581,3.28516180793708),
 .UNSPECIFIED.)
CURVE()
GEOMETRIC_REPRESENTATION_ITEM()
RATIONAL_B_SPLINE_CURVE((7.26874149932764,7.14734018905828,5.48594536152817,
3.63376919676395))
REPRESENTATION_ITEM('')
);
#53=(
BOUNDED_CURVE()
B_SPLINE_CURVE(2,(#1704,#1705,#1706,#1707),.UNSPECIFIED.,.F.,.F.)
B_SPLINE_CURVE_WITH_KNOTS((3,1,3),(0.177309474702222,0.401918327078814,
0.462075333116117),.UNSPECIFIED.)
CURVE()
GEOMETRIC_REPRESENTATION_ITEM()
RATIONAL_B_SPLINE_CURVE((3.63376919676395,5.21191183725592,6.92352487556722,
7.26874149932768))
REPRESENTATION_ITEM('')
);
#54=STYLED_ITEM('',(#1739),#56);
#55=STYLED_ITEM('',(#1739),#57);
#56=MANIFOLD_SOLID_BREP('Body1',#1046);
#57=MANIFOLD_SOLID_BREP('Body3',#1047);
#58=FACE_OUTER_BOUND('',#114,.T.);
#59=FACE_OUTER_BOUND('',#115,.T.);
#60=FACE_OUTER_BOUND('',#116,.T.);
#61=FACE_OUTER_BOUND('',#117,.T.);
#62=FACE_OUTER_BOUND('',#118,.T.);
#63=FACE_OUTER_BOUND('',#119,.T.);
#64=FACE_OUTER_BOUND('',#120,.T.);
#65=FACE_OUTER_BOUND('',#121,.T.);
#66=FACE_OUTER_BOUND('',#122,.T.);
#67=FACE_OUTER_BOUND('',#123,.T.);
#68=FACE_OUTER_BOUND('',#124,.T.);
#69=FACE_OUTER_BOUND('',#125,.T.);
#70=FACE_OUTER_BOUND('',#126,.T.);
#71=FACE_OUTER_BOUND('',#127,.T.);
#72=FACE_OUTER_BOUND('',#128,.T.);
#73=FACE_OUTER_BOUND('',#129,.T.);
#74=FACE_OUTER_BOUND('',#130,.T.);
#75=FACE_OUTER_BOUND('',#131,.T.);
#76=FACE_OUTER_BOUND('',#132,.T.);
#77=FACE_OUTER_BOUND('',#133,.T.);
#78=FACE_OUTER_BOUND('',#135,.T.);
#79=FACE_OUTER_BOUND('',#136,.T.);
#80=FACE_OUTER_BOUND('',#137,.T.);
#81=FACE_OUTER_BOUND('',#138,.T.);
#82=FACE_OUTER_BOUND('',#139,.T.);
#83=FACE_OUTER_BOUND('',#140,.T.);
#84=FACE_OUTER_BOUND('',#141,.T.);
#85=FACE_OUTER_BOUND('',#142,.T.);
#86=FACE_OUTER_BOUND('',#143,.T.);
#87=FACE_OUTER_BOUND('',#144,.T.);
#88=FACE_OUTER_BOUND('',#145,.T.);
#89=FACE_OUTER_BOUND('',#146,.T.);
#90=FACE_OUTER_BOUND('',#147,.T.);
#91=FACE_OUTER_BOUND('',#148,.T.);
#92=FACE_OUTER_BOUND('',#149,.T.);
#93=FACE_OUTER_BOUND('',#150,.T.);
#94=FACE_OUTER_BOUND('',#151,.T.);
#95=FACE_OUTER_BOUND('',#152,.T.);
#96=FACE_OUTER_BOUND('',#153,.T.);
#97=FACE_OUTER_BOUND('',#154,.T.);
#98=FACE_OUTER_BOUND('',#155,.T.);
#99=FACE_OUTER_BOUND('',#156,.T.);
#100=FACE_OUTER_BOUND('',#157,.T.);
#101=FACE_OUTER_BOUND('',#158,.T.);
#102=FACE_OUTER_BOUND('',#159,.T.);
#103=FACE_OUTER_BOUND('',#160,.T.);
#104=FACE_OUTER_BOUND('',#161,.T.);
#105=FACE_OUTER_BOUND('',#162,.T.);
#106=FACE_OUTER_BOUND('',#163,.T.);
#107=FACE_OUTER_BOUND('',#164,.T.);
#108=FACE_OUTER_BOUND('',#165,.T.);
#109=FACE_OUTER_BOUND('',#166,.T.);
#110=FACE_OUTER_BOUND('',#167,.T.);
#111=FACE_OUTER_BOUND('',#170,.T.);
#112=FACE_OUTER_BOUND('',#171,.T.);
#113=FACE_OUTER_BOUND('',#174,.T.);
#114=EDGE_LOOP('',(#656,#657,#658,#659));
#115=EDGE_LOOP('',(#660,#661,#662,#663));
#116=EDGE_LOOP('',(#664,#665,#666,#667));
#117=EDGE_LOOP('',(#668,#669,#670,#671));
#118=EDGE_LOOP('',(#672,#673,#674,#675,#676,#677));
#119=EDGE_LOOP('',(#678,#679,#680,#681,#682));
#120=EDGE_LOOP('',(#683,#684,#685,#686));
#121=EDGE_LOOP('',(#687,#688,#689,#690));
#122=EDGE_LOOP('',(#691,#692,#693,#694,#695));
#123=EDGE_LOOP('',(#696,#697,#698,#699));
#124=EDGE_LOOP('',(#700,#701,#702,#703));
#125=EDGE_LOOP('',(#704,#705,#706,#707,#708,#709,#710,#711));
#126=EDGE_LOOP('',(#712,#713,#714,#715));
#127=EDGE_LOOP('',(#716,#717,#718,#719,#720,#721,#722,#723));
#128=EDGE_LOOP('',(#724,#725,#726,#727,#728));
#129=EDGE_LOOP('',(#729,#730,#731,#732));
#130=EDGE_LOOP('',(#733,#734,#735,#736));
#131=EDGE_LOOP('',(#737,#738,#739,#740));
#132=EDGE_LOOP('',(#741,#742,#743,#744));
#133=EDGE_LOOP('',(#745,#746,#747,#748,#749,#750,#751,#752));
#134=EDGE_LOOP('',(#753,#754,#755,#756,#757,#758,#759,#760));
#135=EDGE_LOOP('',(#761,#762,#763,#764));
#136=EDGE_LOOP('',(#765,#766,#767,#768));
#137=EDGE_LOOP('',(#769,#770,#771,#772));
#138=EDGE_LOOP('',(#773,#774,#775,#776));
#139=EDGE_LOOP('',(#777,#778,#779,#780));
#140=EDGE_LOOP('',(#781,#782,#783,#784));
#141=EDGE_LOOP('',(#785,#786,#787,#788));
#142=EDGE_LOOP('',(#789,#790,#791,#792));
#143=EDGE_LOOP('',(#793,#794,#795,#796));
#144=EDGE_LOOP('',(#797,#798,#799,#800));
#145=EDGE_LOOP('',(#801,#802,#803,#804));
#146=EDGE_LOOP('',(#805,#806,#807,#808));
#147=EDGE_LOOP('',(#809,#810,#811,#812));
#148=EDGE_LOOP('',(#813,#814,#815,#816,#817));
#149=EDGE_LOOP('',(#818,#819,#820,#821));
#150=EDGE_LOOP('',(#822,#823,#824,#825,#826,#827,#828,#829,#830,#831));
#151=EDGE_LOOP('',(#832,#833,#834,#835));
#152=EDGE_LOOP('',(#836,#837,#838,#839));
#153=EDGE_LOOP('',(#840,#841,#842,#843));
#154=EDGE_LOOP('',(#844,#845,#846,#847));
#155=EDGE_LOOP('',(#848,#849,#850,#851));
#156=EDGE_LOOP('',(#852,#853,#854,#855));
#157=EDGE_LOOP('',(#856,#857,#858,#859));
#158=EDGE_LOOP('',(#860,#861,#862,#863));
#159=EDGE_LOOP('',(#864,#865,#866,#867));
#160=EDGE_LOOP('',(#868,#869,#870,#871));
#161=EDGE_LOOP('',(#872,#873,#874,#875));
#162=EDGE_LOOP('',(#876,#877,#878,#879));
#163=EDGE_LOOP('',(#880,#881,#882,#883));
#164=EDGE_LOOP('',(#884,#885,#886,#887));
#165=EDGE_LOOP('',(#888,#889,#890,#891,#892,#893,#894,#895,#896));
#166=EDGE_LOOP('',(#897,#898,#899,#900));
#167=EDGE_LOOP('',(#901,#902,#903,#904,#905,#906,#907));
#168=EDGE_LOOP('',(#908,#909,#910,#911,#912,#913,#914,#915));
#169=EDGE_LOOP('',(#916));
#170=EDGE_LOOP('',(#917,#918,#919,#920,#921,#922,#923,#924));
#171=EDGE_LOOP('',(#925,#926,#927,#928,#929,#930,#931,#932));
#172=EDGE_LOOP('',(#933,#934,#935,#936,#937,#938,#939,#940));
#173=EDGE_LOOP('',(#941));
#174=EDGE_LOOP('',(#942,#943,#944,#945));
#175=LINE('',#1422,#296);
#176=LINE('',#1424,#297);
#177=LINE('',#1426,#298);
#178=LINE('',#1427,#299);
#179=LINE('',#1430,#300);
#180=LINE('',#1432,#301);
#181=LINE('',#1433,#302);
#182=LINE('',#1437,#303);
#183=LINE('',#1438,#304);
#184=LINE('',#1439,#305);
#185=LINE('',#1442,#306);
#186=LINE('',#1443,#307);
#187=LINE('',#1446,#308);
#188=LINE('',#1448,#309);
#189=LINE('',#1450,#310);
#190=LINE('',#1451,#311);
#191=LINE('',#1454,#312);
#192=LINE('',#1456,#313);
#193=LINE('',#1457,#314);
#194=LINE('',#1460,#315);
#195=LINE('',#1462,#316);
#196=LINE('',#1463,#317);
#197=LINE('',#1466,#318);
#198=LINE('',#1468,#319);
#199=LINE('',#1469,#320);
#200=LINE('',#1473,#321);
#201=LINE('',#1475,#322);
#202=LINE('',#1476,#323);
#203=LINE('',#1477,#324);
#204=LINE('',#1480,#325);
#205=LINE('',#1481,#326);
#206=LINE('',#1483,#327);
#207=LINE('',#1485,#328);
#208=LINE('',#1487,#329);
#209=LINE('',#1492,#330);
#210=LINE('',#1494,#331);
#211=LINE('',#1496,#332);
#212=LINE('',#1498,#333);
#213=LINE('',#1506,#334);
#214=LINE('',#1508,#335);
#215=LINE('',#1510,#336);
#216=LINE('',#1511,#337);
#217=LINE('',#1514,#338);
#218=LINE('',#1516,#339);
#219=LINE('',#1517,#340);
#220=LINE('',#1521,#341);
#221=LINE('',#1523,#342);
#222=LINE('',#1525,#343);
#223=LINE('',#1526,#344);
#224=LINE('',#1529,#345);
#225=LINE('',#1531,#346);
#226=LINE('',#1532,#347);
#227=LINE('',#1536,#348);
#228=LINE('',#1540,#349);
#229=LINE('',#1544,#350);
#230=LINE('',#1548,#351);
#231=LINE('',#1554,#352);
#232=LINE('',#1558,#353);
#233=LINE('',#1562,#354);
#234=LINE('',#1565,#355);
#235=LINE('',#1568,#356);
#236=LINE('',#1570,#357);
#237=LINE('',#1571,#358);
#238=LINE('',#1574,#359);
#239=LINE('',#1576,#360);
#240=LINE('',#1577,#361);
#241=LINE('',#1582,#362);
#242=LINE('',#1586,#363);
#243=LINE('',#1588,#364);
#244=LINE('',#1589,#365);
#245=LINE('',#1593,#366);
#246=LINE('',#1596,#367);
#247=LINE('',#1597,#368);
#248=LINE('',#1601,#369);
#249=LINE('',#1604,#370);
#250=LINE('',#1605,#371);
#251=LINE('',#1609,#372);
#252=LINE('',#1612,#373);
#253=LINE('',#1613,#374);
#254=LINE('',#1618,#375);
#255=LINE('',#1620,#376);
#256=LINE('',#1621,#377);
#257=LINE('',#1624,#378);
#258=LINE('',#1625,#379);
#259=LINE('',#1628,#380);
#260=LINE('',#1630,#381);
#261=LINE('',#1631,#382);
#262=LINE('',#1634,#383);
#263=LINE('',#1635,#384);
#264=LINE('',#1637,#385);
#265=LINE('',#1639,#386);
#266=LINE('',#1640,#387);
#267=LINE('',#1643,#388);
#268=LINE('',#1644,#389);
#269=LINE('',#1647,#390);
#270=LINE('',#1649,#391);
#271=LINE('',#1650,#392);
#272=LINE('',#1653,#393);
#273=LINE('',#1654,#394);
#274=LINE('',#1657,#395);
#275=LINE('',#1658,#396);
#276=LINE('',#1661,#397);
#277=LINE('',#1662,#398);
#278=LINE('',#1665,#399);
#279=LINE('',#1669,#400);
#280=LINE('',#1671,#401);
#281=LINE('',#1672,#402);
#282=LINE('',#1676,#403);
#283=LINE('',#1679,#404);
#284=LINE('',#1680,#405);
#285=LINE('',#1684,#406);
#286=LINE('',#1687,#407);
#287=LINE('',#1688,#408);
#288=LINE('',#1692,#409);
#289=LINE('',#1695,#410);
#290=LINE('',#1696,#411);
#291=LINE('',#1702,#412);
#292=LINE('',#1708,#413);
#293=LINE('',#1709,#414);
#294=LINE('',#1714,#415);
#295=LINE('',#1716,#416);
#296=VECTOR('',#1143,10.);
#297=VECTOR('',#1144,10.);
#298=VECTOR('',#1145,10.);
#299=VECTOR('',#1146,10.);
#300=VECTOR('',#1149,10.);
#301=VECTOR('',#1150,10.);
#302=VECTOR('',#1151,10.);
#303=VECTOR('',#1154,10.);
#304=VECTOR('',#1155,10.);
#305=VECTOR('',#1156,10.);
#306=VECTOR('',#1159,10.);
#307=VECTOR('',#1160,10.);
#308=VECTOR('',#1163,10.);
#309=VECTOR('',#1164,10.);
#310=VECTOR('',#1165,10.);
#311=VECTOR('',#1166,10.);
#312=VECTOR('',#1169,10.);
#313=VECTOR('',#1170,10.);
#314=VECTOR('',#1171,10.);
#315=VECTOR('',#1174,10.);
#316=VECTOR('',#1175,10.);
#317=VECTOR('',#1176,10.);
#318=VECTOR('',#1179,10.);
#319=VECTOR('',#1180,10.);
#320=VECTOR('',#1181,10.);
#321=VECTOR('',#1184,10.);
#322=VECTOR('',#1185,10.);
#323=VECTOR('',#1186,10.);
#324=VECTOR('',#1187,10.);
#325=VECTOR('',#1190,10.);
#326=VECTOR('',#1191,10.);
#327=VECTOR('',#1194,10.);
#328=VECTOR('',#1197,10.);
#329=VECTOR('',#1200,10.);
#330=VECTOR('',#1205,10.);
#331=VECTOR('',#1206,10.);
#332=VECTOR('',#1207,10.);
#333=VECTOR('',#1208,10.);
#334=VECTOR('',#1211,10.);
#335=VECTOR('',#1212,10.);
#336=VECTOR('',#1213,10.);
#337=VECTOR('',#1214,10.);
#338=VECTOR('',#1217,10.);
#339=VECTOR('',#1218,10.);
#340=VECTOR('',#1219,10.);
#341=VECTOR('',#1222,10.);
#342=VECTOR('',#1223,10.);
#343=VECTOR('',#1224,10.);
#344=VECTOR('',#1225,10.);
#345=VECTOR('',#1228,10.);
#346=VECTOR('',#1229,10.);
#347=VECTOR('',#1230,10.);
#348=VECTOR('',#1233,10.);
#349=VECTOR('',#1236,10.);
#350=VECTOR('',#1239,10.);
#351=VECTOR('',#1242,10.);
#352=VECTOR('',#1247,10.);
#353=VECTOR('',#1250,10.);
#354=VECTOR('',#1253,10.);
#355=VECTOR('',#1256,10.);
#356=VECTOR('',#1259,10.);
#357=VECTOR('',#1260,10.);
#358=VECTOR('',#1261,10.);
#359=VECTOR('',#1264,10.);
#360=VECTOR('',#1265,10.);
#361=VECTOR('',#1266,10.);
#362=VECTOR('',#1271,2.5);
#363=VECTOR('',#1276,10.);
#364=VECTOR('',#1277,10.);
#365=VECTOR('',#1278,10.);
#366=VECTOR('',#1283,10.);
#367=VECTOR('',#1286,10.);
#368=VECTOR('',#1287,10.);
#369=VECTOR('',#1292,10.);
#370=VECTOR('',#1295,10.);
#371=VECTOR('',#1296,10.);
#372=VECTOR('',#1301,10.);
#373=VECTOR('',#1304,10.);
#374=VECTOR('',#1305,10.);
#375=VECTOR('',#1312,10.);
#376=VECTOR('',#1313,10.);
#377=VECTOR('',#1314,10.);
#378=VECTOR('',#1317,10.);
#379=VECTOR('',#1318,10.);
#380=VECTOR('',#1321,10.);
#381=VECTOR('',#1322,10.);
#382=VECTOR('',#1323,10.);
#383=VECTOR('',#1326,10.);
#384=VECTOR('',#1327,10.);
#385=VECTOR('',#1330,10.);
#386=VECTOR('',#1331,10.);
#387=VECTOR('',#1332,10.);
#388=VECTOR('',#1335,10.);
#389=VECTOR('',#1336,10.);
#390=VECTOR('',#1339,10.);
#391=VECTOR('',#1340,10.);
#392=VECTOR('',#1341,10.);
#393=VECTOR('',#1344,10.);
#394=VECTOR('',#1345,10.);
#395=VECTOR('',#1348,10.);
#396=VECTOR('',#1349,10.);
#397=VECTOR('',#1352,10.);
#398=VECTOR('',#1353,10.);
#399=VECTOR('',#1356,1.5);
#400=VECTOR('',#1361,10.);
#401=VECTOR('',#1362,10.);
#402=VECTOR('',#1363,10.);
#403=VECTOR('',#1368,10.);
#404=VECTOR('',#1371,10.);
#405=VECTOR('',#1372,10.);
#406=VECTOR('',#1377,10.);
#407=VECTOR('',#1380,10.);
#408=VECTOR('',#1381,10.);
#409=VECTOR('',#1386,10.);
#410=VECTOR('',#1389,10.);
#411=VECTOR('',#1390,10.);
#412=VECTOR('',#1397,10.);
#413=VECTOR('',#1398,10.);
#414=VECTOR('',#1399,10.);
#415=VECTOR('',#1408,10.);
#416=VECTOR('',#1411,10.);
#417=VERTEX_POINT('',#1420);
#418=VERTEX_POINT('',#1421);
#419=VERTEX_POINT('',#1423);
#420=VERTEX_POINT('',#1425);
#421=VERTEX_POINT('',#1429);
#422=VERTEX_POINT('',#1431);
#423=VERTEX_POINT('',#1435);
#424=VERTEX_POINT('',#1436);
#425=VERTEX_POINT('',#1441);
#426=VERTEX_POINT('',#1445);
#427=VERTEX_POINT('',#1447);
#428=VERTEX_POINT('',#1449);
#429=VERTEX_POINT('',#1453);
#430=VERTEX_POINT('',#1455);
#431=VERTEX_POINT('',#1459);
#432=VERTEX_POINT('',#1461);
#433=VERTEX_POINT('',#1465);
#434=VERTEX_POINT('',#1467);
#435=VERTEX_POINT('',#1471);
#436=VERTEX_POINT('',#1472);
#437=VERTEX_POINT('',#1474);
#438=VERTEX_POINT('',#1479);
#439=VERTEX_POINT('',#1490);
#440=VERTEX_POINT('',#1491);
#441=VERTEX_POINT('',#1493);
#442=VERTEX_POINT('',#1495);
#443=VERTEX_POINT('',#1497);
#444=VERTEX_POINT('',#1504);
#445=VERTEX_POINT('',#1505);
#446=VERTEX_POINT('',#1507);
#447=VERTEX_POINT('',#1509);
#448=VERTEX_POINT('',#1513);
#449=VERTEX_POINT('',#1515);
#450=VERTEX_POINT('',#1519);
#451=VERTEX_POINT('',#1520);
#452=VERTEX_POINT('',#1522);
#453=VERTEX_POINT('',#1524);
#454=VERTEX_POINT('',#1528);
#455=VERTEX_POINT('',#1530);
#456=VERTEX_POINT('',#1534);
#457=VERTEX_POINT('',#1535);
#458=VERTEX_POINT('',#1537);
#459=VERTEX_POINT('',#1539);
#460=VERTEX_POINT('',#1541);
#461=VERTEX_POINT('',#1543);
#462=VERTEX_POINT('',#1545);
#463=VERTEX_POINT('',#1547);
#464=VERTEX_POINT('',#1550);
#465=VERTEX_POINT('',#1551);
#466=VERTEX_POINT('',#1553);
#467=VERTEX_POINT('',#1555);
#468=VERTEX_POINT('',#1557);
#469=VERTEX_POINT('',#1559);
#470=VERTEX_POINT('',#1561);
#471=VERTEX_POINT('',#1563);
#472=VERTEX_POINT('',#1567);
#473=VERTEX_POINT('',#1569);
#474=VERTEX_POINT('',#1573);
#475=VERTEX_POINT('',#1575);
#476=VERTEX_POINT('',#1579);
#477=VERTEX_POINT('',#1581);
#478=VERTEX_POINT('',#1585);
#479=VERTEX_POINT('',#1587);
#480=VERTEX_POINT('',#1591);
#481=VERTEX_POINT('',#1595);
#482=VERTEX_POINT('',#1599);
#483=VERTEX_POINT('',#1603);
#484=VERTEX_POINT('',#1607);
#485=VERTEX_POINT('',#1611);
#486=VERTEX_POINT('',#1617);
#487=VERTEX_POINT('',#1619);
#488=VERTEX_POINT('',#1623);
#489=VERTEX_POINT('',#1627);
#490=VERTEX_POINT('',#1629);
#491=VERTEX_POINT('',#1633);
#492=VERTEX_POINT('',#1638);
#493=VERTEX_POINT('',#1642);
#494=VERTEX_POINT('',#1646);
#495=VERTEX_POINT('',#1648);
#496=VERTEX_POINT('',#1652);
#497=VERTEX_POINT('',#1656);
#498=VERTEX_POINT('',#1660);
#499=VERTEX_POINT('',#1664);
#500=VERTEX_POINT('',#1668);
#501=VERTEX_POINT('',#1670);
#502=VERTEX_POINT('',#1674);
#503=VERTEX_POINT('',#1678);
#504=VERTEX_POINT('',#1682);
#505=VERTEX_POINT('',#1686);
#506=VERTEX_POINT('',#1690);
#507=VERTEX_POINT('',#1694);
#508=VERTEX_POINT('',#1700);
#509=VERTEX_POINT('',#1701);
#510=VERTEX_POINT('',#1703);
#511=EDGE_CURVE('',#417,#418,#175,.T.);
#512=EDGE_CURVE('',#417,#419,#176,.T.);
#513=EDGE_CURVE('',#420,#419,#177,.T.);
#514=EDGE_CURVE('',#420,#418,#178,.T.);
#515=EDGE_CURVE('',#421,#417,#179,.T.);
#516=EDGE_CURVE('',#421,#422,#180,.T.);
#517=EDGE_CURVE('',#422,#419,#181,.T.);
#518=EDGE_CURVE('',#423,#424,#182,.T.);
#519=EDGE_CURVE('',#423,#420,#183,.T.);
#520=EDGE_CURVE('',#419,#424,#184,.T.);
#521=EDGE_CURVE('',#424,#425,#185,.T.);
#522=EDGE_CURVE('',#422,#425,#186,.T.);
#523=EDGE_CURVE('',#426,#421,#187,.T.);
#524=EDGE_CURVE('',#426,#427,#188,.T.);
#525=EDGE_CURVE('',#427,#428,#189,.T.);
#526=EDGE_CURVE('',#425,#428,#190,.T.);
#527=EDGE_CURVE('',#418,#429,#191,.T.);
#528=EDGE_CURVE('',#430,#423,#192,.T.);
#529=EDGE_CURVE('',#429,#430,#193,.T.);
#530=EDGE_CURVE('',#428,#431,#194,.T.);
#531=EDGE_CURVE('',#427,#432,#195,.F.);
#532=EDGE_CURVE('',#432,#431,#196,.T.);
#533=EDGE_CURVE('',#431,#433,#197,.T.);
#534=EDGE_CURVE('',#434,#432,#198,.T.);
#535=EDGE_CURVE('',#433,#434,#199,.T.);
#536=EDGE_CURVE('',#435,#436,#200,.T.);
#537=EDGE_CURVE('',#437,#435,#201,.T.);
#538=EDGE_CURVE('',#433,#437,#202,.T.);
#539=EDGE_CURVE('',#434,#436,#203,.T.);
#540=EDGE_CURVE('',#436,#438,#204,.T.);
#541=EDGE_CURVE('',#438,#432,#205,.T.);
#542=EDGE_CURVE('',#438,#426,#206,.T.);
#543=EDGE_CURVE('',#437,#430,#207,.T.);
#544=EDGE_CURVE('',#435,#429,#208,.T.);
#545=EDGE_CURVE('',#439,#440,#209,.T.);
#546=EDGE_CURVE('',#441,#439,#210,.T.);
#547=EDGE_CURVE('',#441,#442,#211,.F.);
#548=EDGE_CURVE('',#443,#442,#212,.T.);
#549=EDGE_CURVE('',#443,#440,#52,.F.);
#550=EDGE_CURVE('',#444,#445,#213,.T.);
#551=EDGE_CURVE('',#446,#444,#214,.T.);
#552=EDGE_CURVE('',#446,#447,#215,.T.);
#553=EDGE_CURVE('',#447,#445,#216,.T.);
#554=EDGE_CURVE('',#445,#448,#217,.T.);
#555=EDGE_CURVE('',#447,#449,#218,.T.);
#556=EDGE_CURVE('',#449,#448,#219,.T.);
#557=EDGE_CURVE('',#450,#451,#220,.T.);
#558=EDGE_CURVE('',#450,#452,#221,.F.);
#559=EDGE_CURVE('',#452,#453,#222,.T.);
#560=EDGE_CURVE('',#451,#453,#223,.F.);
#561=EDGE_CURVE('',#453,#454,#224,.T.);
#562=EDGE_CURVE('',#455,#454,#225,.T.);
#563=EDGE_CURVE('',#451,#455,#226,.T.);
#564=EDGE_CURVE('',#456,#457,#227,.T.);
#565=EDGE_CURVE('',#457,#458,#30,.T.);
#566=EDGE_CURVE('',#458,#459,#228,.T.);
#567=EDGE_CURVE('',#459,#460,#31,.T.);
#568=EDGE_CURVE('',#460,#461,#229,.T.);
#569=EDGE_CURVE('',#461,#462,#32,.T.);
#570=EDGE_CURVE('',#462,#463,#230,.T.);
#571=EDGE_CURVE('',#463,#456,#33,.T.);
#572=EDGE_CURVE('',#464,#465,#34,.T.);
#573=EDGE_CURVE('',#466,#464,#231,.T.);
#574=EDGE_CURVE('',#467,#466,#35,.T.);
#575=EDGE_CURVE('',#468,#467,#232,.T.);
#576=EDGE_CURVE('',#469,#468,#36,.T.);
#577=EDGE_CURVE('',#470,#469,#233,.T.);
#578=EDGE_CURVE('',#471,#470,#37,.T.);
#579=EDGE_CURVE('',#465,#471,#234,.T.);
#580=EDGE_CURVE('',#454,#472,#235,.T.);
#581=EDGE_CURVE('',#473,#472,#236,.T.);
#582=EDGE_CURVE('',#455,#473,#237,.T.);
#583=EDGE_CURVE('',#449,#474,#238,.T.);
#584=EDGE_CURVE('',#475,#474,#239,.F.);
#585=EDGE_CURVE('',#448,#475,#240,.T.);
#586=EDGE_CURVE('',#476,#476,#38,.T.);
#587=EDGE_CURVE('',#476,#477,#241,.T.);
#588=EDGE_CURVE('',#477,#477,#39,.T.);
#589=EDGE_CURVE('',#464,#478,#242,.T.);
#590=EDGE_CURVE('',#479,#478,#243,.T.);
#591=EDGE_CURVE('',#466,#479,#244,.T.);
#592=EDGE_CURVE('',#480,#479,#40,.T.);
#593=EDGE_CURVE('',#467,#480,#245,.T.);
#594=EDGE_CURVE('',#481,#480,#246,.T.);
#595=EDGE_CURVE('',#468,#481,#247,.T.);
#596=EDGE_CURVE('',#482,#481,#41,.T.);
#597=EDGE_CURVE('',#469,#482,#248,.T.);
#598=EDGE_CURVE('',#483,#482,#249,.T.);
#599=EDGE_CURVE('',#470,#483,#250,.T.);
#600=EDGE_CURVE('',#484,#483,#42,.T.);
#601=EDGE_CURVE('',#471,#484,#251,.T.);
#602=EDGE_CURVE('',#485,#484,#252,.T.);
#603=EDGE_CURVE('',#465,#485,#253,.T.);
#604=EDGE_CURVE('',#478,#485,#43,.T.);
#605=EDGE_CURVE('',#486,#475,#254,.F.);
#606=EDGE_CURVE('',#486,#487,#255,.T.);
#607=EDGE_CURVE('',#487,#448,#256,.T.);
#608=EDGE_CURVE('',#487,#488,#257,.T.);
#609=EDGE_CURVE('',#488,#445,#258,.T.);
#610=EDGE_CURVE('',#488,#489,#259,.T.);
#611=EDGE_CURVE('',#490,#489,#260,.F.);
#612=EDGE_CURVE('',#444,#490,#261,.T.);
#613=EDGE_CURVE('',#490,#491,#262,.T.);
#614=EDGE_CURVE('',#491,#446,#263,.T.);
#615=EDGE_CURVE('',#474,#473,#264,.T.);
#616=EDGE_CURVE('',#491,#492,#265,.T.);
#617=EDGE_CURVE('',#492,#450,#266,.T.);
#618=EDGE_CURVE('',#492,#493,#267,.F.);
#619=EDGE_CURVE('',#493,#452,#268,.T.);
#620=EDGE_CURVE('',#493,#494,#269,.F.);
#621=EDGE_CURVE('',#495,#494,#270,.T.);
#622=EDGE_CURVE('',#495,#452,#271,.T.);
#623=EDGE_CURVE('',#496,#495,#272,.T.);
#624=EDGE_CURVE('',#496,#453,#273,.F.);
#625=EDGE_CURVE('',#497,#496,#274,.T.);
#626=EDGE_CURVE('',#497,#454,#275,.T.);
#627=EDGE_CURVE('',#498,#497,#276,.T.);
#628=EDGE_CURVE('',#472,#498,#277,.T.);
#629=EDGE_CURVE('',#477,#499,#278,.T.);
#630=EDGE_CURVE('',#499,#499,#44,.T.);
#631=EDGE_CURVE('',#458,#500,#279,.T.);
#632=EDGE_CURVE('',#500,#501,#280,.T.);
#633=EDGE_CURVE('',#459,#501,#281,.T.);
#634=EDGE_CURVE('',#501,#502,#45,.T.);
#635=EDGE_CURVE('',#460,#502,#282,.T.);
#636=EDGE_CURVE('',#502,#503,#283,.T.);
#637=EDGE_CURVE('',#461,#503,#284,.T.);
#638=EDGE_CURVE('',#503,#504,#46,.T.);
#639=EDGE_CURVE('',#462,#504,#285,.T.);
#640=EDGE_CURVE('',#504,#505,#286,.T.);
#641=EDGE_CURVE('',#463,#505,#287,.T.);
#642=EDGE_CURVE('',#505,#506,#47,.T.);
#643=EDGE_CURVE('',#456,#506,#288,.T.);
#644=EDGE_CURVE('',#506,#507,#289,.T.);
#645=EDGE_CURVE('',#457,#507,#290,.T.);
#646=EDGE_CURVE('',#507,#500,#48,.T.);
#647=EDGE_CURVE('',#508,#509,#291,.F.);
#648=EDGE_CURVE('',#509,#510,#53,.F.);
#649=EDGE_CURVE('',#486,#510,#292,.T.);
#650=EDGE_CURVE('',#508,#498,#293,.T.);
#651=EDGE_CURVE('',#509,#440,#49,.T.);
#652=EDGE_CURVE('',#443,#510,#50,.T.);
#653=EDGE_CURVE('',#442,#489,#294,.T.);
#654=EDGE_CURVE('',#494,#441,#295,.T.);
#655=EDGE_CURVE('',#508,#439,#51,.T.);
#656=ORIENTED_EDGE('',*,*,#511,.F.);
#657=ORIENTED_EDGE('',*,*,#512,.T.);
#658=ORIENTED_EDGE('',*,*,#513,.F.);
#659=ORIENTED_EDGE('',*,*,#514,.T.);
#660=ORIENTED_EDGE('',*,*,#515,.F.);
#661=ORIENTED_EDGE('',*,*,#516,.T.);
#662=ORIENTED_EDGE('',*,*,#517,.T.);
#663=ORIENTED_EDGE('',*,*,#512,.F.);
#664=ORIENTED_EDGE('',*,*,#518,.F.);
#665=ORIENTED_EDGE('',*,*,#519,.T.);
#666=ORIENTED_EDGE('',*,*,#513,.T.);
#667=ORIENTED_EDGE('',*,*,#520,.T.);
#668=ORIENTED_EDGE('',*,*,#521,.F.);
#669=ORIENTED_EDGE('',*,*,#520,.F.);
#670=ORIENTED_EDGE('',*,*,#517,.F.);
#671=ORIENTED_EDGE('',*,*,#522,.T.);
#672=ORIENTED_EDGE('',*,*,#523,.F.);
#673=ORIENTED_EDGE('',*,*,#524,.T.);
#674=ORIENTED_EDGE('',*,*,#525,.T.);
#675=ORIENTED_EDGE('',*,*,#526,.F.);
#676=ORIENTED_EDGE('',*,*,#522,.F.);
#677=ORIENTED_EDGE('',*,*,#516,.F.);
#678=ORIENTED_EDGE('',*,*,#527,.F.);
#679=ORIENTED_EDGE('',*,*,#514,.F.);
#680=ORIENTED_EDGE('',*,*,#519,.F.);
#681=ORIENTED_EDGE('',*,*,#528,.F.);
#682=ORIENTED_EDGE('',*,*,#529,.F.);
#683=ORIENTED_EDGE('',*,*,#530,.F.);
#684=ORIENTED_EDGE('',*,*,#525,.F.);
#685=ORIENTED_EDGE('',*,*,#531,.T.);
#686=ORIENTED_EDGE('',*,*,#532,.T.);
#687=ORIENTED_EDGE('',*,*,#533,.F.);
#688=ORIENTED_EDGE('',*,*,#532,.F.);
#689=ORIENTED_EDGE('',*,*,#534,.F.);
#690=ORIENTED_EDGE('',*,*,#535,.F.);
#691=ORIENTED_EDGE('',*,*,#536,.F.);
#692=ORIENTED_EDGE('',*,*,#537,.F.);
#693=ORIENTED_EDGE('',*,*,#538,.F.);
#694=ORIENTED_EDGE('',*,*,#535,.T.);
#695=ORIENTED_EDGE('',*,*,#539,.T.);
#696=ORIENTED_EDGE('',*,*,#540,.F.);
#697=ORIENTED_EDGE('',*,*,#539,.F.);
#698=ORIENTED_EDGE('',*,*,#534,.T.);
#699=ORIENTED_EDGE('',*,*,#541,.F.);
#700=ORIENTED_EDGE('',*,*,#542,.F.);
#701=ORIENTED_EDGE('',*,*,#541,.T.);
#702=ORIENTED_EDGE('',*,*,#531,.F.);
#703=ORIENTED_EDGE('',*,*,#524,.F.);
#704=ORIENTED_EDGE('',*,*,#538,.T.);
#705=ORIENTED_EDGE('',*,*,#543,.T.);
#706=ORIENTED_EDGE('',*,*,#528,.T.);
#707=ORIENTED_EDGE('',*,*,#518,.T.);
#708=ORIENTED_EDGE('',*,*,#521,.T.);
#709=ORIENTED_EDGE('',*,*,#526,.T.);
#710=ORIENTED_EDGE('',*,*,#530,.T.);
#711=ORIENTED_EDGE('',*,*,#533,.T.);
#712=ORIENTED_EDGE('',*,*,#537,.T.);
#713=ORIENTED_EDGE('',*,*,#544,.T.);
#714=ORIENTED_EDGE('',*,*,#529,.T.);
#715=ORIENTED_EDGE('',*,*,#543,.F.);
#716=ORIENTED_EDGE('',*,*,#536,.T.);
#717=ORIENTED_EDGE('',*,*,#540,.T.);
#718=ORIENTED_EDGE('',*,*,#542,.T.);
#719=ORIENTED_EDGE('',*,*,#523,.T.);
#720=ORIENTED_EDGE('',*,*,#515,.T.);
#721=ORIENTED_EDGE('',*,*,#511,.T.);
#722=ORIENTED_EDGE('',*,*,#527,.T.);
#723=ORIENTED_EDGE('',*,*,#544,.F.);
#724=ORIENTED_EDGE('',*,*,#545,.F.);
#725=ORIENTED_EDGE('',*,*,#546,.F.);
#726=ORIENTED_EDGE('',*,*,#547,.T.);
#727=ORIENTED_EDGE('',*,*,#548,.F.);
#728=ORIENTED_EDGE('',*,*,#549,.T.);
#729=ORIENTED_EDGE('',*,*,#550,.F.);
#730=ORIENTED_EDGE('',*,*,#551,.F.);
#731=ORIENTED_EDGE('',*,*,#552,.T.);
#732=ORIENTED_EDGE('',*,*,#553,.T.);
#733=ORIENTED_EDGE('',*,*,#554,.F.);
#734=ORIENTED_EDGE('',*,*,#553,.F.);
#735=ORIENTED_EDGE('',*,*,#555,.T.);
#736=ORIENTED_EDGE('',*,*,#556,.T.);
#737=ORIENTED_EDGE('',*,*,#557,.F.);
#738=ORIENTED_EDGE('',*,*,#558,.T.);
#739=ORIENTED_EDGE('',*,*,#559,.T.);
#740=ORIENTED_EDGE('',*,*,#560,.F.);
#741=ORIENTED_EDGE('',*,*,#561,.T.);
#742=ORIENTED_EDGE('',*,*,#562,.F.);
#743=ORIENTED_EDGE('',*,*,#563,.F.);
#744=ORIENTED_EDGE('',*,*,#560,.T.);
#745=ORIENTED_EDGE('',*,*,#564,.T.);
#746=ORIENTED_EDGE('',*,*,#565,.T.);
#747=ORIENTED_EDGE('',*,*,#566,.T.);
#748=ORIENTED_EDGE('',*,*,#567,.T.);
#749=ORIENTED_EDGE('',*,*,#568,.T.);
#750=ORIENTED_EDGE('',*,*,#569,.T.);
#751=ORIENTED_EDGE('',*,*,#570,.T.);
#752=ORIENTED_EDGE('',*,*,#571,.T.);
#753=ORIENTED_EDGE('',*,*,#572,.F.);
#754=ORIENTED_EDGE('',*,*,#573,.F.);
#755=ORIENTED_EDGE('',*,*,#574,.F.);
#756=ORIENTED_EDGE('',*,*,#575,.F.);
#757=ORIENTED_EDGE('',*,*,#576,.F.);
#758=ORIENTED_EDGE('',*,*,#577,.F.);
#759=ORIENTED_EDGE('',*,*,#578,.F.);
#760=ORIENTED_EDGE('',*,*,#579,.F.);
#761=ORIENTED_EDGE('',*,*,#580,.T.);
#762=ORIENTED_EDGE('',*,*,#581,.F.);
#763=ORIENTED_EDGE('',*,*,#582,.F.);
#764=ORIENTED_EDGE('',*,*,#562,.T.);
#765=ORIENTED_EDGE('',*,*,#583,.T.);
#766=ORIENTED_EDGE('',*,*,#584,.F.);
#767=ORIENTED_EDGE('',*,*,#585,.F.);
#768=ORIENTED_EDGE('',*,*,#556,.F.);
#769=ORIENTED_EDGE('',*,*,#586,.T.);
#770=ORIENTED_EDGE('',*,*,#587,.T.);
#771=ORIENTED_EDGE('',*,*,#588,.T.);
#772=ORIENTED_EDGE('',*,*,#587,.F.);
#773=ORIENTED_EDGE('',*,*,#573,.T.);
#774=ORIENTED_EDGE('',*,*,#589,.T.);
#775=ORIENTED_EDGE('',*,*,#590,.F.);
#776=ORIENTED_EDGE('',*,*,#591,.F.);
#777=ORIENTED_EDGE('',*,*,#574,.T.);
#778=ORIENTED_EDGE('',*,*,#591,.T.);
#779=ORIENTED_EDGE('',*,*,#592,.F.);
#780=ORIENTED_EDGE('',*,*,#593,.F.);
#781=ORIENTED_EDGE('',*,*,#575,.T.);
#782=ORIENTED_EDGE('',*,*,#593,.T.);
#783=ORIENTED_EDGE('',*,*,#594,.F.);
#784=ORIENTED_EDGE('',*,*,#595,.F.);
#785=ORIENTED_EDGE('',*,*,#576,.T.);
#786=ORIENTED_EDGE('',*,*,#595,.T.);
#787=ORIENTED_EDGE('',*,*,#596,.F.);
#788=ORIENTED_EDGE('',*,*,#597,.F.);
#789=ORIENTED_EDGE('',*,*,#577,.T.);
#790=ORIENTED_EDGE('',*,*,#597,.T.);
#791=ORIENTED_EDGE('',*,*,#598,.F.);
#792=ORIENTED_EDGE('',*,*,#599,.F.);
#793=ORIENTED_EDGE('',*,*,#578,.T.);
#794=ORIENTED_EDGE('',*,*,#599,.T.);
#795=ORIENTED_EDGE('',*,*,#600,.F.);
#796=ORIENTED_EDGE('',*,*,#601,.F.);
#797=ORIENTED_EDGE('',*,*,#579,.T.);
#798=ORIENTED_EDGE('',*,*,#601,.T.);
#799=ORIENTED_EDGE('',*,*,#602,.F.);
#800=ORIENTED_EDGE('',*,*,#603,.F.);
#801=ORIENTED_EDGE('',*,*,#572,.T.);
#802=ORIENTED_EDGE('',*,*,#603,.T.);
#803=ORIENTED_EDGE('',*,*,#604,.F.);
#804=ORIENTED_EDGE('',*,*,#589,.F.);
#805=ORIENTED_EDGE('',*,*,#585,.T.);
#806=ORIENTED_EDGE('',*,*,#605,.F.);
#807=ORIENTED_EDGE('',*,*,#606,.T.);
#808=ORIENTED_EDGE('',*,*,#607,.T.);
#809=ORIENTED_EDGE('',*,*,#554,.T.);
#810=ORIENTED_EDGE('',*,*,#607,.F.);
#811=ORIENTED_EDGE('',*,*,#608,.T.);
#812=ORIENTED_EDGE('',*,*,#609,.T.);
#813=ORIENTED_EDGE('',*,*,#610,.T.);
#814=ORIENTED_EDGE('',*,*,#611,.F.);
#815=ORIENTED_EDGE('',*,*,#612,.F.);
#816=ORIENTED_EDGE('',*,*,#550,.T.);
#817=ORIENTED_EDGE('',*,*,#609,.F.);
#818=ORIENTED_EDGE('',*,*,#612,.T.);
#819=ORIENTED_EDGE('',*,*,#613,.T.);
#820=ORIENTED_EDGE('',*,*,#614,.T.);
#821=ORIENTED_EDGE('',*,*,#551,.T.);
#822=ORIENTED_EDGE('',*,*,#582,.T.);
#823=ORIENTED_EDGE('',*,*,#615,.F.);
#824=ORIENTED_EDGE('',*,*,#583,.F.);
#825=ORIENTED_EDGE('',*,*,#555,.F.);
#826=ORIENTED_EDGE('',*,*,#552,.F.);
#827=ORIENTED_EDGE('',*,*,#614,.F.);
#828=ORIENTED_EDGE('',*,*,#616,.T.);
#829=ORIENTED_EDGE('',*,*,#617,.T.);
#830=ORIENTED_EDGE('',*,*,#557,.T.);
#831=ORIENTED_EDGE('',*,*,#563,.T.);
#832=ORIENTED_EDGE('',*,*,#618,.T.);
#833=ORIENTED_EDGE('',*,*,#619,.T.);
#834=ORIENTED_EDGE('',*,*,#558,.F.);
#835=ORIENTED_EDGE('',*,*,#617,.F.);
#836=ORIENTED_EDGE('',*,*,#620,.T.);
#837=ORIENTED_EDGE('',*,*,#621,.F.);
#838=ORIENTED_EDGE('',*,*,#622,.T.);
#839=ORIENTED_EDGE('',*,*,#619,.F.);
#840=ORIENTED_EDGE('',*,*,#559,.F.);
#841=ORIENTED_EDGE('',*,*,#622,.F.);
#842=ORIENTED_EDGE('',*,*,#623,.F.);
#843=ORIENTED_EDGE('',*,*,#624,.T.);
#844=ORIENTED_EDGE('',*,*,#561,.F.);
#845=ORIENTED_EDGE('',*,*,#624,.F.);
#846=ORIENTED_EDGE('',*,*,#625,.F.);
#847=ORIENTED_EDGE('',*,*,#626,.T.);
#848=ORIENTED_EDGE('',*,*,#580,.F.);
#849=ORIENTED_EDGE('',*,*,#626,.F.);
#850=ORIENTED_EDGE('',*,*,#627,.F.);
#851=ORIENTED_EDGE('',*,*,#628,.F.);
#852=ORIENTED_EDGE('',*,*,#588,.F.);
#853=ORIENTED_EDGE('',*,*,#629,.T.);
#854=ORIENTED_EDGE('',*,*,#630,.T.);
#855=ORIENTED_EDGE('',*,*,#629,.F.);
#856=ORIENTED_EDGE('',*,*,#566,.F.);
#857=ORIENTED_EDGE('',*,*,#631,.T.);
#858=ORIENTED_EDGE('',*,*,#632,.T.);
#859=ORIENTED_EDGE('',*,*,#633,.F.);
#860=ORIENTED_EDGE('',*,*,#567,.F.);
#861=ORIENTED_EDGE('',*,*,#633,.T.);
#862=ORIENTED_EDGE('',*,*,#634,.T.);
#863=ORIENTED_EDGE('',*,*,#635,.F.);
#864=ORIENTED_EDGE('',*,*,#568,.F.);
#865=ORIENTED_EDGE('',*,*,#635,.T.);
#866=ORIENTED_EDGE('',*,*,#636,.T.);
#867=ORIENTED_EDGE('',*,*,#637,.F.);
#868=ORIENTED_EDGE('',*,*,#569,.F.);
#869=ORIENTED_EDGE('',*,*,#637,.T.);
#870=ORIENTED_EDGE('',*,*,#638,.T.);
#871=ORIENTED_EDGE('',*,*,#639,.F.);
#872=ORIENTED_EDGE('',*,*,#570,.F.);
#873=ORIENTED_EDGE('',*,*,#639,.T.);
#874=ORIENTED_EDGE('',*,*,#640,.T.);
#875=ORIENTED_EDGE('',*,*,#641,.F.);
#876=ORIENTED_EDGE('',*,*,#571,.F.);
#877=ORIENTED_EDGE('',*,*,#641,.T.);
#878=ORIENTED_EDGE('',*,*,#642,.T.);
#879=ORIENTED_EDGE('',*,*,#643,.F.);
#880=ORIENTED_EDGE('',*,*,#564,.F.);
#881=ORIENTED_EDGE('',*,*,#643,.T.);
#882=ORIENTED_EDGE('',*,*,#644,.T.);
#883=ORIENTED_EDGE('',*,*,#645,.F.);
#884=ORIENTED_EDGE('',*,*,#565,.F.);
#885=ORIENTED_EDGE('',*,*,#645,.T.);
#886=ORIENTED_EDGE('',*,*,#646,.T.);
#887=ORIENTED_EDGE('',*,*,#631,.F.);
#888=ORIENTED_EDGE('',*,*,#647,.T.);
#889=ORIENTED_EDGE('',*,*,#648,.T.);
#890=ORIENTED_EDGE('',*,*,#649,.F.);
#891=ORIENTED_EDGE('',*,*,#605,.T.);
#892=ORIENTED_EDGE('',*,*,#584,.T.);
#893=ORIENTED_EDGE('',*,*,#615,.T.);
#894=ORIENTED_EDGE('',*,*,#581,.T.);
#895=ORIENTED_EDGE('',*,*,#628,.T.);
#896=ORIENTED_EDGE('',*,*,#650,.F.);
#897=ORIENTED_EDGE('',*,*,#651,.T.);
#898=ORIENTED_EDGE('',*,*,#549,.F.);
#899=ORIENTED_EDGE('',*,*,#652,.T.);
#900=ORIENTED_EDGE('',*,*,#648,.F.);
#901=ORIENTED_EDGE('',*,*,#610,.F.);
#902=ORIENTED_EDGE('',*,*,#608,.F.);
#903=ORIENTED_EDGE('',*,*,#606,.F.);
#904=ORIENTED_EDGE('',*,*,#649,.T.);
#905=ORIENTED_EDGE('',*,*,#652,.F.);
#906=ORIENTED_EDGE('',*,*,#548,.T.);
#907=ORIENTED_EDGE('',*,*,#653,.T.);
#908=ORIENTED_EDGE('',*,*,#604,.T.);
#909=ORIENTED_EDGE('',*,*,#602,.T.);
#910=ORIENTED_EDGE('',*,*,#600,.T.);
#911=ORIENTED_EDGE('',*,*,#598,.T.);
#912=ORIENTED_EDGE('',*,*,#596,.T.);
#913=ORIENTED_EDGE('',*,*,#594,.T.);
#914=ORIENTED_EDGE('',*,*,#592,.T.);
#915=ORIENTED_EDGE('',*,*,#590,.T.);
#916=ORIENTED_EDGE('',*,*,#586,.F.);
#917=ORIENTED_EDGE('',*,*,#653,.F.);
#918=ORIENTED_EDGE('',*,*,#547,.F.);
#919=ORIENTED_EDGE('',*,*,#654,.F.);
#920=ORIENTED_EDGE('',*,*,#620,.F.);
#921=ORIENTED_EDGE('',*,*,#618,.F.);
#922=ORIENTED_EDGE('',*,*,#616,.F.);
#923=ORIENTED_EDGE('',*,*,#613,.F.);
#924=ORIENTED_EDGE('',*,*,#611,.T.);
#925=ORIENTED_EDGE('',*,*,#655,.F.);
#926=ORIENTED_EDGE('',*,*,#650,.T.);
#927=ORIENTED_EDGE('',*,*,#627,.T.);
#928=ORIENTED_EDGE('',*,*,#625,.T.);
#929=ORIENTED_EDGE('',*,*,#623,.T.);
#930=ORIENTED_EDGE('',*,*,#621,.T.);
#931=ORIENTED_EDGE('',*,*,#654,.T.);
#932=ORIENTED_EDGE('',*,*,#546,.T.);
#933=ORIENTED_EDGE('',*,*,#646,.F.);
#934=ORIENTED_EDGE('',*,*,#644,.F.);
#935=ORIENTED_EDGE('',*,*,#642,.F.);
#936=ORIENTED_EDGE('',*,*,#640,.F.);
#937=ORIENTED_EDGE('',*,*,#638,.F.);
#938=ORIENTED_EDGE('',*,*,#636,.F.);
#939=ORIENTED_EDGE('',*,*,#634,.F.);
#940=ORIENTED_EDGE('',*,*,#632,.F.);
#941=ORIENTED_EDGE('',*,*,#630,.F.);
#942=ORIENTED_EDGE('',*,*,#545,.T.);
#943=ORIENTED_EDGE('',*,*,#651,.F.);
#944=ORIENTED_EDGE('',*,*,#647,.F.);
#945=ORIENTED_EDGE('',*,*,#655,.T.);
#946=PLANE('',#1061);
#947=PLANE('',#1062);
#948=PLANE('',#1063);
#949=PLANE('',#1064);
#950=PLANE('',#1065);
#951=PLANE('',#1066);
#952=PLANE('',#1067);
#953=PLANE('',#1068);
#954=PLANE('',#1069);
#955=PLANE('',#1070);
#956=PLANE('',#1071);
#957=PLANE('',#1072);
#958=PLANE('',#1073);
#959=PLANE('',#1074);
#960=PLANE('',#1075);
#961=PLANE('',#1076);
#962=PLANE('',#1077);
#963=PLANE('',#1078);
#964=PLANE('',#1079);
#965=PLANE('',#1080);
#966=PLANE('',#1089);
#967=PLANE('',#1090);
#968=PLANE('',#1094);
#969=PLANE('',#1097);
#970=PLANE('',#1100);
#971=PLANE('',#1103);
#972=PLANE('',#1106);
#973=PLANE('',#1107);
#974=PLANE('',#1108);
#975=PLANE('',#1109);
#976=PLANE('',#1110);
#977=PLANE('',#1111);
#978=PLANE('',#1112);
#979=PLANE('',#1113);
#980=PLANE('',#1114);
#981=PLANE('',#1115);
#982=PLANE('',#1118);
#983=PLANE('',#1121);
#984=PLANE('',#1124);
#985=PLANE('',#1127);
#986=PLANE('',#1130);
#987=PLANE('',#1134);
#988=PLANE('',#1135);
#989=PLANE('',#1136);
#990=ADVANCED_FACE('',(#58),#946,.T.);
#991=ADVANCED_FACE('',(#59),#947,.T.);
#992=ADVANCED_FACE('',(#60),#948,.T.);
#993=ADVANCED_FACE('',(#61),#949,.T.);
#994=ADVANCED_FACE('',(#62),#950,.F.);
#995=ADVANCED_FACE('',(#63),#951,.T.);
#996=ADVANCED_FACE('',(#64),#952,.F.);
#997=ADVANCED_FACE('',(#65),#953,.F.);
#998=ADVANCED_FACE('',(#66),#954,.F.);
#999=ADVANCED_FACE('',(#67),#955,.F.);
#1000=ADVANCED_FACE('',(#68),#956,.F.);
#1001=ADVANCED_FACE('',(#69),#957,.T.);
#1002=ADVANCED_FACE('',(#70),#958,.T.);
#1003=ADVANCED_FACE('',(#71),#959,.T.);
#1004=ADVANCED_FACE('',(#72),#960,.F.);
#1005=ADVANCED_FACE('',(#73),#961,.T.);
#1006=ADVANCED_FACE('',(#74),#962,.T.);
#1007=ADVANCED_FACE('',(#75),#963,.F.);
#1008=ADVANCED_FACE('',(#76),#964,.F.);
#1009=ADVANCED_FACE('',(#77,#25),#965,.F.);
#1010=ADVANCED_FACE('',(#78),#966,.F.);
#1011=ADVANCED_FACE('',(#79),#967,.T.);
#1012=ADVANCED_FACE('',(#80),#23,.F.);
#1013=ADVANCED_FACE('',(#81),#968,.T.);
#1014=ADVANCED_FACE('',(#82),#13,.F.);
#1015=ADVANCED_FACE('',(#83),#969,.T.);
#1016=ADVANCED_FACE('',(#84),#14,.F.);
#1017=ADVANCED_FACE('',(#85),#970,.T.);
#1018=ADVANCED_FACE('',(#86),#15,.F.);
#1019=ADVANCED_FACE('',(#87),#971,.T.);
#1020=ADVANCED_FACE('',(#88),#16,.F.);
#1021=ADVANCED_FACE('',(#89),#972,.T.);
#1022=ADVANCED_FACE('',(#90),#973,.T.);
#1023=ADVANCED_FACE('',(#91),#974,.T.);
#1024=ADVANCED_FACE('',(#92),#975,.T.);
#1025=ADVANCED_FACE('',(#93),#976,.F.);
#1026=ADVANCED_FACE('',(#94),#977,.F.);
#1027=ADVANCED_FACE('',(#95),#978,.F.);
#1028=ADVANCED_FACE('',(#96),#979,.F.);
#1029=ADVANCED_FACE('',(#97),#980,.F.);
#1030=ADVANCED_FACE('',(#98),#981,.F.);
#1031=ADVANCED_FACE('',(#99),#17,.F.);
#1032=ADVANCED_FACE('',(#100),#982,.F.);
#1033=ADVANCED_FACE('',(#101),#18,.T.);
#1034=ADVANCED_FACE('',(#102),#983,.F.);
#1035=ADVANCED_FACE('',(#103),#19,.T.);
#1036=ADVANCED_FACE('',(#104),#984,.F.);
#1037=ADVANCED_FACE('',(#105),#20,.T.);
#1038=ADVANCED_FACE('',(#106),#985,.F.);
#1039=ADVANCED_FACE('',(#107),#21,.T.);
#1040=ADVANCED_FACE('',(#108),#986,.F.);
#1041=ADVANCED_FACE('',(#109),#24,.F.);
#1042=ADVANCED_FACE('',(#110,#26,#27),#987,.T.);
#1043=ADVANCED_FACE('',(#111),#988,.F.);
#1044=ADVANCED_FACE('',(#112,#28,#29),#989,.F.);
#1045=ADVANCED_FACE('',(#113),#22,.F.);
#1046=CLOSED_SHELL('',(#990,#991,#992,#993,#994,#995,#996,#997,#998,#999,
#1000,#1001,#1002,#1003));
#1047=CLOSED_SHELL('',(#1004,#1005,#1006,#1007,#1008,#1009,#1010,#1011,
#1012,#1013,#1014,#1015,#1016,#1017,#1018,#1019,#1020,#1021,#1022,#1023,
#1024,#1025,#1026,#1027,#1028,#1029,#1030,#1031,#1032,#1033,#1034,#1035,
#1036,#1037,#1038,#1039,#1040,#1041,#1042,#1043,#1044,#1045));
#1048=DERIVED_UNIT_ELEMENT(#1050,1.);
#1049=DERIVED_UNIT_ELEMENT(#1725,-3.);
#1050=(
MASS_UNIT()
NAMED_UNIT(*)
SI_UNIT(.KILO.,.GRAM.)
);
#1051=DERIVED_UNIT((#1048,#1049));
#1052=MEASURE_REPRESENTATION_ITEM('density measure',
POSITIVE_RATIO_MEASURE(7850.),#1051);
#1053=PROPERTY_DEFINITION_REPRESENTATION(#1058,#1055);
#1054=PROPERTY_DEFINITION_REPRESENTATION(#1059,#1056);
#1055=REPRESENTATION('material name',(#1057),#1722);
#1056=REPRESENTATION('density',(#1052),#1722);
#1057=DESCRIPTIVE_REPRESENTATION_ITEM('Steel','Steel');
#1058=PROPERTY_DEFINITION('material property','material name',#1732);
#1059=PROPERTY_DEFINITION('material property','density of part',#1732);
#1060=AXIS2_PLACEMENT_3D('',#1418,#1139,#1140);
#1061=AXIS2_PLACEMENT_3D('',#1419,#1141,#1142);
#1062=AXIS2_PLACEMENT_3D('',#1428,#1147,#1148);
#1063=AXIS2_PLACEMENT_3D('',#1434,#1152,#1153);
#1064=AXIS2_PLACEMENT_3D('',#1440,#1157,#1158);
#1065=AXIS2_PLACEMENT_3D('',#1444,#1161,#1162);
#1066=AXIS2_PLACEMENT_3D('',#1452,#1167,#1168);
#1067=AXIS2_PLACEMENT_3D('',#1458,#1172,#1173);
#1068=AXIS2_PLACEMENT_3D('',#1464,#1177,#1178);
#1069=AXIS2_PLACEMENT_3D('',#1470,#1182,#1183);
#1070=AXIS2_PLACEMENT_3D('',#1478,#1188,#1189);
#1071=AXIS2_PLACEMENT_3D('',#1482,#1192,#1193);
#1072=AXIS2_PLACEMENT_3D('',#1484,#1195,#1196);
#1073=AXIS2_PLACEMENT_3D('',#1486,#1198,#1199);
#1074=AXIS2_PLACEMENT_3D('',#1488,#1201,#1202);
#1075=AXIS2_PLACEMENT_3D('',#1489,#1203,#1204);
#1076=AXIS2_PLACEMENT_3D('',#1503,#1209,#1210);
#1077=AXIS2_PLACEMENT_3D('',#1512,#1215,#1216);
#1078=AXIS2_PLACEMENT_3D('',#1518,#1220,#1221);
#1079=AXIS2_PLACEMENT_3D('',#1527,#1226,#1227);
#1080=AXIS2_PLACEMENT_3D('',#1533,#1231,#1232);
#1081=AXIS2_PLACEMENT_3D('',#1538,#1234,#1235);
#1082=AXIS2_PLACEMENT_3D('',#1542,#1237,#1238);
#1083=AXIS2_PLACEMENT_3D('',#1546,#1240,#1241);
#1084=AXIS2_PLACEMENT_3D('',#1549,#1243,#1244);
#1085=AXIS2_PLACEMENT_3D('',#1552,#1245,#1246);
#1086=AXIS2_PLACEMENT_3D('',#1556,#1248,#1249);
#1087=AXIS2_PLACEMENT_3D('',#1560,#1251,#1252);
#1088=AXIS2_PLACEMENT_3D('',#1564,#1254,#1255);
#1089=AXIS2_PLACEMENT_3D('',#1566,#1257,#1258);
#1090=AXIS2_PLACEMENT_3D('',#1572,#1262,#1263);
#1091=AXIS2_PLACEMENT_3D('',#1578,#1267,#1268);
#1092=AXIS2_PLACEMENT_3D('',#1580,#1269,#1270);
#1093=AXIS2_PLACEMENT_3D('',#1583,#1272,#1273);
#1094=AXIS2_PLACEMENT_3D('',#1584,#1274,#1275);
#1095=AXIS2_PLACEMENT_3D('',#1590,#1279,#1280);
#1096=AXIS2_PLACEMENT_3D('',#1592,#1281,#1282);
#1097=AXIS2_PLACEMENT_3D('',#1594,#1284,#1285);
#1098=AXIS2_PLACEMENT_3D('',#1598,#1288,#1289);
#1099=AXIS2_PLACEMENT_3D('',#1600,#1290,#1291);
#1100=AXIS2_PLACEMENT_3D('',#1602,#1293,#1294);
#1101=AXIS2_PLACEMENT_3D('',#1606,#1297,#1298);
#1102=AXIS2_PLACEMENT_3D('',#1608,#1299,#1300);
#1103=AXIS2_PLACEMENT_3D('',#1610,#1302,#1303);
#1104=AXIS2_PLACEMENT_3D('',#1614,#1306,#1307);
#1105=AXIS2_PLACEMENT_3D('',#1615,#1308,#1309);
#1106=AXIS2_PLACEMENT_3D('',#1616,#1310,#1311);
#1107=AXIS2_PLACEMENT_3D('',#1622,#1315,#1316);
#1108=AXIS2_PLACEMENT_3D('',#1626,#1319,#1320);
#1109=AXIS2_PLACEMENT_3D('',#1632,#1324,#1325);
#1110=AXIS2_PLACEMENT_3D('',#1636,#1328,#1329);
#1111=AXIS2_PLACEMENT_3D('',#1641,#1333,#1334);
#1112=AXIS2_PLACEMENT_3D('',#1645,#1337,#1338);
#1113=AXIS2_PLACEMENT_3D('',#1651,#1342,#1343);
#1114=AXIS2_PLACEMENT_3D('',#1655,#1346,#1347);
#1115=AXIS2_PLACEMENT_3D('',#1659,#1350,#1351);
#1116=AXIS2_PLACEMENT_3D('',#1663,#1354,#1355);
#1117=AXIS2_PLACEMENT_3D('',#1666,#1357,#1358);
#1118=AXIS2_PLACEMENT_3D('',#1667,#1359,#1360);
#1119=AXIS2_PLACEMENT_3D('',#1673,#1364,#1365);
#1120=AXIS2_PLACEMENT_3D('',#1675,#1366,#1367);
#1121=AXIS2_PLACEMENT_3D('',#1677,#1369,#1370);
#1122=AXIS2_PLACEMENT_3D('',#1681,#1373,#1374);
#1123=AXIS2_PLACEMENT_3D('',#1683,#1375,#1376);
#1124=AXIS2_PLACEMENT_3D('',#1685,#1378,#1379);
#1125=AXIS2_PLACEMENT_3D('',#1689,#1382,#1383);
#1126=AXIS2_PLACEMENT_3D('',#1691,#1384,#1385);
#1127=AXIS2_PLACEMENT_3D('',#1693,#1387,#1388);
#1128=AXIS2_PLACEMENT_3D('',#1697,#1391,#1392);
#1129=AXIS2_PLACEMENT_3D('',#1698,#1393,#1394);
#1130=AXIS2_PLACEMENT_3D('',#1699,#1395,#1396);
#1131=AXIS2_PLACEMENT_3D('',#1710,#1400,#1401);
#1132=AXIS2_PLACEMENT_3D('',#1711,#1402,#1403);
#1133=AXIS2_PLACEMENT_3D('',#1712,#1404,#1405);
#1134=AXIS2_PLACEMENT_3D('',#1713,#1406,#1407);
#1135=AXIS2_PLACEMENT_3D('',#1715,#1409,#1410);
#1136=AXIS2_PLACEMENT_3D('',#1717,#1412,#1413);
#1137=AXIS2_PLACEMENT_3D('',#1718,#1414,#1415);
#1138=AXIS2_PLACEMENT_3D('',#1719,#1416,#1417);
#1139=DIRECTION('axis',(0.,0.,1.));
#1140=DIRECTION('refdir',(1.,0.,0.));
#1141=DIRECTION('center_axis',(0.707106781186548,0.,0.707106781186547));
#1142=DIRECTION('ref_axis',(0.707106781186547,0.,-0.707106781186548));
#1143=DIRECTION('',(-0.707106781186547,0.,0.707106781186548));
#1144=DIRECTION('',(0.,1.,0.));
#1145=DIRECTION('',(0.577350269189626,0.577350269189626,-0.577350269189626));
#1146=DIRECTION('',(0.,-1.,0.));
#1147=DIRECTION('center_axis',(1.,0.,0.));
#1148=DIRECTION('ref_axis',(0.,1.,0.));
#1149=DIRECTION('',(0.,0.,1.));
#1150=DIRECTION('',(0.,1.,0.));
#1151=DIRECTION('',(0.,0.,1.));
#1152=DIRECTION('center_axis',(0.,0.707106781186548,0.707106781186547));
#1153=DIRECTION('ref_axis',(1.,0.,0.));
#1154=DIRECTION('',(-0.574309811132639,0.578864509551584,-0.578864509551584));
#1155=DIRECTION('',(1.,0.,0.));
#1156=DIRECTION('',(-1.,0.,0.));
#1157=DIRECTION('center_axis',(0.,1.,0.));
#1158=DIRECTION('ref_axis',(-1.,0.,0.));
#1159=DIRECTION('',(0.,0.,-1.));
#1160=DIRECTION('',(-1.,0.,0.));
#1161=DIRECTION('center_axis',(0.,0.,1.));
#1162=DIRECTION('ref_axis',(1.,0.,0.));
#1163=DIRECTION('',(1.,0.,0.));
#1164=DIRECTION('',(0.,1.,0.));
#1165=DIRECTION('',(-1.,0.,0.));
#1166=DIRECTION('',(0.704308424329553,-0.709894107186714,0.));
#1167=DIRECTION('center_axis',(0.,0.,1.));
#1168=DIRECTION('ref_axis',(1.,0.,0.));
#1169=DIRECTION('',(-1.,0.,0.));
#1170=DIRECTION('',(-0.704308424329553,0.709894107186714,0.));
#1171=DIRECTION('',(-0.999852897451689,-0.0171517770933896,0.));
#1172=DIRECTION('center_axis',(0.,1.,0.));
#1173=DIRECTION('ref_axis',(-1.,0.,0.));
#1174=DIRECTION('',(0.,0.,1.));
#1175=DIRECTION('',(0.,0.,-1.));
#1176=DIRECTION('',(-1.,0.,0.));
#1177=DIRECTION('center_axis',(0.,0.707106781186548,0.707106781186547));
#1178=DIRECTION('ref_axis',(1.,0.,0.));
#1179=DIRECTION('',(0.574309811132639,-0.578864509551584,0.578864509551584));
#1180=DIRECTION('',(0.577350269189626,0.577350269189626,-0.577350269189626));
#1181=DIRECTION('',(1.,0.,0.));
#1182=DIRECTION('center_axis',(0.,0.,1.));
#1183=DIRECTION('ref_axis',(1.,0.,0.));
#1184=DIRECTION('',(1.,0.,0.));
#1185=DIRECTION('',(0.999852897451689,0.0171517770933896,0.));
#1186=DIRECTION('',(0.704308424329553,-0.709894107186714,0.));
#1187=DIRECTION('',(0.,-1.,0.));
#1188=DIRECTION('center_axis',(0.707106781186548,0.,0.707106781186547));
#1189=DIRECTION('ref_axis',(0.707106781186547,0.,-0.707106781186548));
#1190=DIRECTION('',(0.707106781186547,0.,-0.707106781186548));
#1191=DIRECTION('',(0.,1.,0.));
#1192=DIRECTION('center_axis',(1.,0.,0.));
#1193=DIRECTION('ref_axis',(0.,1.,0.));
#1194=DIRECTION('',(0.,0.,-1.));
#1195=DIRECTION('center_axis',(-0.709894107186714,-0.704308424329553,0.));
#1196=DIRECTION('ref_axis',(0.704308424329553,-0.709894107186714,0.));
#1197=DIRECTION('',(0.,0.,1.));
#1198=DIRECTION('center_axis',(0.0171517770933896,-0.99985289745169,0.));
#1199=DIRECTION('ref_axis',(0.999852897451689,0.0171517770933896,0.));
#1200=DIRECTION('',(0.,0.,1.));
#1201=DIRECTION('center_axis',(0.,-1.,0.));
#1202=DIRECTION('ref_axis',(1.,0.,0.));
#1203=DIRECTION('center_axis',(0.0171517770933896,-0.99985289745169,0.));
#1204=DIRECTION('ref_axis',(0.999852897451689,0.0171517770933896,0.));
#1205=DIRECTION('',(0.,0.,1.));
#1206=DIRECTION('',(0.999852897451689,0.0171517770933896,0.));
#1207=DIRECTION('',(0.,0.,-1.));
#1208=DIRECTION('',(-0.999852897451689,-0.0171517770933896,0.));
#1209=DIRECTION('center_axis',(-1.,0.,0.));
#1210=DIRECTION('ref_axis',(0.,-1.,0.));
#1211=DIRECTION('',(0.,-1.,0.));
#1212=DIRECTION('',(0.,0.,1.));
#1213=DIRECTION('',(0.,-1.,0.));
#1214=DIRECTION('',(0.,0.,1.));
#1215=DIRECTION('center_axis',(1.55630702576746E-33,-1.,0.));
#1216=DIRECTION('ref_axis',(1.,1.55630702576746E-33,0.));
#1217=DIRECTION('',(1.,1.55630702576746E-33,0.));
#1218=DIRECTION('',(1.,1.55630702576746E-33,0.));
#1219=DIRECTION('',(0.,0.,1.));
#1220=DIRECTION('center_axis',(-1.,0.,0.));
#1221=DIRECTION('ref_axis',(0.,-1.,0.));
#1222=DIRECTION('',(0.,-1.,0.));
#1223=DIRECTION('',(0.,0.,-1.));
#1224=DIRECTION('',(0.,-1.,0.));
#1225=DIRECTION('',(0.,0.,-1.));
#1226=DIRECTION('center_axis',(1.55630702576746E-33,-1.,0.));
#1227=DIRECTION('ref_axis',(1.,1.55630702576746E-33,0.));
#1228=DIRECTION('',(1.,1.55630702576746E-33,-2.41911046530853E-49));
#1229=DIRECTION('',(0.,0.,1.));
#1230=DIRECTION('',(1.,1.55630702576746E-33,0.));
#1231=DIRECTION('center_axis',(0.,0.,1.));
#1232=DIRECTION('ref_axis',(1.,0.,0.));
#1233=DIRECTION('',(1.,0.,0.));
#1234=DIRECTION('center_axis',(0.,0.,-1.));
#1235=DIRECTION('ref_axis',(1.,0.,0.));
#1236=DIRECTION('',(-1.41429684665625E-16,-1.,0.));
#1237=DIRECTION('center_axis',(0.,0.,-1.));
#1238=DIRECTION('ref_axis',(8.8817841970012E-15,-1.,0.));
#1239=DIRECTION('',(-1.,-1.52085345839062E-16,0.));
#1240=DIRECTION('center_axis',(0.,0.,-1.));
#1241=DIRECTION('ref_axis',(-1.,0.,0.));
#1242=DIRECTION('',(-7.07148423328125E-17,1.,0.));
#1243=DIRECTION('center_axis',(0.,0.,-1.));
#1244=DIRECTION('ref_axis',(6.66133814775096E-15,1.,0.));
#1245=DIRECTION('center_axis',(0.,0.,-1.));
#1246=DIRECTION('ref_axis',(1.,0.,0.));
#1247=DIRECTION('',(1.,0.,0.));
#1248=DIRECTION('center_axis',(0.,0.,-1.));
#1249=DIRECTION('ref_axis',(6.66133814775096E-15,1.,0.));
#1250=DIRECTION('',(-7.07148423328125E-17,1.,0.));
#1251=DIRECTION('center_axis',(0.,0.,-1.));
#1252=DIRECTION('ref_axis',(-1.,0.,0.));
#1253=DIRECTION('',(-1.,-1.52085345839062E-16,0.));
#1254=DIRECTION('center_axis',(0.,0.,-1.));
#1255=DIRECTION('ref_axis',(8.8817841970012E-15,-1.,0.));
#1256=DIRECTION('',(-1.41429684665625E-16,-1.,0.));
#1257=DIRECTION('center_axis',(1.,0.,0.));
#1258=DIRECTION('ref_axis',(0.,1.,0.));
#1259=DIRECTION('',(0.,1.,0.));
#1260=DIRECTION('',(0.,0.,1.));
#1261=DIRECTION('',(0.,1.,0.));
#1262=DIRECTION('center_axis',(1.,0.,0.));
#1263=DIRECTION('ref_axis',(0.,1.,0.));
#1264=DIRECTION('',(0.,1.,0.));
#1265=DIRECTION('',(0.,0.,1.));
#1266=DIRECTION('',(0.,1.,0.));
#1267=DIRECTION('center_axis',(0.,0.,1.));
#1268=DIRECTION('ref_axis',(1.,0.,0.));
#1269=DIRECTION('center_axis',(0.,0.,1.));
#1270=DIRECTION('ref_axis',(1.,0.,0.));
#1271=DIRECTION('',(0.8,9.79717439317883E-17,-0.6));
#1272=DIRECTION('center_axis',(0.,0.,-1.));
#1273=DIRECTION('ref_axis',(1.,0.,0.));
#1274=DIRECTION('center_axis',(0.,-1.,0.));
#1275=DIRECTION('ref_axis',(1.,0.,0.));
#1276=DIRECTION('',(0.,0.,1.));
#1277=DIRECTION('',(1.,0.,0.));
#1278=DIRECTION('',(0.,0.,1.));
#1279=DIRECTION('center_axis',(0.,0.,1.));
#1280=DIRECTION('ref_axis',(6.66133814775096E-15,1.,0.));
#1281=DIRECTION('center_axis',(0.,0.,-1.));
#1282=DIRECTION('ref_axis',(6.66133814775096E-15,1.,0.));
#1283=DIRECTION('',(0.,0.,1.));
#1284=DIRECTION('center_axis',(1.,7.07148423328125E-17,0.));
#1285=DIRECTION('ref_axis',(-7.07148423328125E-17,1.,0.));
#1286=DIRECTION('',(-7.07148423328125E-17,1.,0.));
#1287=DIRECTION('',(0.,0.,1.));
#1288=DIRECTION('center_axis',(0.,0.,1.));
#1289=DIRECTION('ref_axis',(-1.,0.,0.));
#1290=DIRECTION('center_axis',(0.,0.,-1.));
#1291=DIRECTION('ref_axis',(-1.,0.,0.));
#1292=DIRECTION('',(0.,0.,1.));
#1293=DIRECTION('center_axis',(-1.52085345839062E-16,1.,0.));
#1294=DIRECTION('ref_axis',(-1.,-1.52085345839062E-16,0.));
#1295=DIRECTION('',(-1.,-1.52085345839062E-16,0.));
#1296=DIRECTION('',(0.,0.,1.));
#1297=DIRECTION('center_axis',(0.,0.,1.));
#1298=DIRECTION('ref_axis',(8.8817841970012E-15,-1.,0.));
#1299=DIRECTION('center_axis',(0.,0.,-1.));
#1300=DIRECTION('ref_axis',(8.8817841970012E-15,-1.,0.));
#1301=DIRECTION('',(0.,0.,1.));
#1302=DIRECTION('center_axis',(-1.,1.41429684665625E-16,0.));
#1303=DIRECTION('ref_axis',(-1.41429684665625E-16,-1.,0.));
#1304=DIRECTION('',(-1.41429684665625E-16,-1.,0.));
#1305=DIRECTION('',(0.,0.,1.));
#1306=DIRECTION('center_axis',(0.,0.,1.));
#1307=DIRECTION('ref_axis',(1.,0.,0.));
#1308=DIRECTION('center_axis',(0.,0.,-1.));
#1309=DIRECTION('ref_axis',(1.,0.,0.));
#1310=DIRECTION('center_axis',(0.707106781186548,0.,0.707106781186547));
#1311=DIRECTION('ref_axis',(0.707106781186547,0.,-0.707106781186548));
#1312=DIRECTION('',(-0.707054766843456,-0.0121290299649339,0.707054766843457));
#1313=DIRECTION('',(0.,-1.,0.));
#1314=DIRECTION('',(0.577350269189625,-0.577350269189626,-0.577350269189626));
#1315=DIRECTION('center_axis',(1.10047525152844E-33,-0.707106781186547,
0.707106781186548));
#1316=DIRECTION('ref_axis',(1.,0.,-1.55630702576746E-33));
#1317=DIRECTION('',(-1.,-1.55630702576746E-33,0.));
#1318=DIRECTION('',(-0.577350269189626,-0.577350269189625,-0.577350269189626));
#1319=DIRECTION('center_axis',(-0.707106781186547,0.,0.707106781186548));
#1320=DIRECTION('ref_axis',(0.707106781186548,0.,0.707106781186547));
#1321=DIRECTION('',(0.,1.,0.));
#1322=DIRECTION('',(-0.575824019929272,0.580390727135596,-0.575824019929272));
#1323=DIRECTION('',(0.707106781186548,0.,0.707106781186547));
#1324=DIRECTION('center_axis',(0.,1.,0.));
#1325=DIRECTION('ref_axis',(-1.,0.,0.));
#1326=DIRECTION('',(0.,0.,-1.));
#1327=DIRECTION('',(-1.,0.,0.));
#1328=DIRECTION('center_axis',(0.,0.,1.));
#1329=DIRECTION('ref_axis',(1.,0.,0.));
#1330=DIRECTION('',(-0.999852897451689,-0.0171517770933896,0.));
#1331=DIRECTION('',(0.704308424329553,-0.709894107186714,0.));
#1332=DIRECTION('',(-1.,0.,0.));
#1333=DIRECTION('center_axis',(0.,1.,0.));
#1334=DIRECTION('ref_axis',(-1.,0.,0.));
#1335=DIRECTION('',(0.,0.,-1.));
#1336=DIRECTION('',(-1.,0.,0.));
#1337=DIRECTION('center_axis',(0.,0.707106781186548,0.707106781186547));
#1338=DIRECTION('ref_axis',(1.,0.,0.));
#1339=DIRECTION('',(-0.574309811132639,0.578864509551584,-0.578864509551584));
#1340=DIRECTION('',(1.,0.,0.));
#1341=DIRECTION('',(-0.577350269189626,0.577350269189625,-0.577350269189626));
#1342=DIRECTION('center_axis',(-0.707106781186547,0.,0.707106781186548));
#1343=DIRECTION('ref_axis',(0.707106781186548,0.,0.707106781186547));
#1344=DIRECTION('',(0.,1.,0.));
#1345=DIRECTION('',(0.577350269189626,0.577350269189626,0.577350269189626));
#1346=DIRECTION('center_axis',(1.10047525152844E-33,-0.707106781186547,
0.707106781186548));
#1347=DIRECTION('ref_axis',(1.,0.,-1.55630702576746E-33));
#1348=DIRECTION('',(-1.,-1.55630702576746E-33,0.));
#1349=DIRECTION('',(0.577350269189625,-0.577350269189626,-0.577350269189626));
#1350=DIRECTION('center_axis',(0.707106781186548,0.,0.707106781186547));
#1351=DIRECTION('ref_axis',(0.707106781186547,0.,-0.707106781186548));
#1352=DIRECTION('',(0.,-1.,0.));
#1353=DIRECTION('',(-0.707054766843456,-0.0121290299649339,0.707054766843457));
#1354=DIRECTION('center_axis',(0.,0.,1.));
#1355=DIRECTION('ref_axis',(1.,0.,0.));
#1356=DIRECTION('',(0.,0.,-1.));
#1357=DIRECTION('center_axis',(0.,0.,-1.));
#1358=DIRECTION('ref_axis',(1.,0.,0.));
#1359=DIRECTION('center_axis',(-1.,1.41429684665625E-16,0.));
#1360=DIRECTION('ref_axis',(-1.41429684665625E-16,-1.,0.));
#1361=DIRECTION('',(0.,0.,1.));
#1362=DIRECTION('',(-1.41429684665625E-16,-1.,0.));
#1363=DIRECTION('',(0.,0.,1.));
#1364=DIRECTION('center_axis',(0.,0.,1.));
#1365=DIRECTION('ref_axis',(8.8817841970012E-15,-1.,0.));
#1366=DIRECTION('center_axis',(0.,0.,-1.));
#1367=DIRECTION('ref_axis',(8.8817841970012E-15,-1.,0.));
#1368=DIRECTION('',(0.,0.,1.));
#1369=DIRECTION('center_axis',(-1.52085345839062E-16,1.,0.));
#1370=DIRECTION('ref_axis',(-1.,-1.52085345839062E-16,0.));
#1371=DIRECTION('',(-1.,-1.52085345839062E-16,0.));
#1372=DIRECTION('',(0.,0.,1.));
#1373=DIRECTION('center_axis',(0.,0.,1.));
#1374=DIRECTION('ref_axis',(-1.,0.,0.));
#1375=DIRECTION('center_axis',(0.,0.,-1.));
#1376=DIRECTION('ref_axis',(-1.,0.,0.));
#1377=DIRECTION('',(0.,0.,1.));
#1378=DIRECTION('center_axis',(1.,7.07148423328125E-17,0.));
#1379=DIRECTION('ref_axis',(-7.07148423328125E-17,1.,0.));
#1380=DIRECTION('',(-7.07148423328125E-17,1.,0.));
#1381=DIRECTION('',(0.,0.,1.));
#1382=DIRECTION('center_axis',(0.,0.,1.));
#1383=DIRECTION('ref_axis',(6.66133814775096E-15,1.,0.));
#1384=DIRECTION('center_axis',(0.,0.,-1.));
#1385=DIRECTION('ref_axis',(6.66133814775096E-15,1.,0.));
#1386=DIRECTION('',(0.,0.,1.));
#1387=DIRECTION('center_axis',(0.,-1.,0.));
#1388=DIRECTION('ref_axis',(1.,0.,0.));
#1389=DIRECTION('',(1.,0.,0.));
#1390=DIRECTION('',(0.,0.,1.));
#1391=DIRECTION('center_axis',(0.,0.,1.));
#1392=DIRECTION('ref_axis',(1.,0.,0.));
#1393=DIRECTION('center_axis',(0.,0.,-1.));
#1394=DIRECTION('ref_axis',(1.,0.,0.));
#1395=DIRECTION('center_axis',(0.0171517770933896,-0.99985289745169,0.));
#1396=DIRECTION('ref_axis',(0.999852897451689,0.0171517770933896,0.));
#1397=DIRECTION('',(0.,0.,-1.));
#1398=DIRECTION('',(-0.999852897451689,-0.0171517770933896,0.));
#1399=DIRECTION('',(0.999852897451689,0.0171517770933896,0.));
#1400=DIRECTION('center_axis',(0.,0.,1.));
#1401=DIRECTION('ref_axis',(0.0171517770933952,-0.999852897451689,0.));
#1402=DIRECTION('center_axis',(0.,0.,-1.));
#1403=DIRECTION('ref_axis',(1.,0.,0.));
#1404=DIRECTION('center_axis',(0.,0.,1.));
#1405=DIRECTION('ref_axis',(1.,0.,0.));
#1406=DIRECTION('center_axis',(0.,0.,1.));
#1407=DIRECTION('ref_axis',(1.,0.,0.));
#1408=DIRECTION('',(-0.704308424329553,0.709894107186714,0.));
#1409=DIRECTION('center_axis',(-0.709894107186714,-0.704308424329553,0.));
#1410=DIRECTION('ref_axis',(0.704308424329553,-0.709894107186714,0.));
#1411=DIRECTION('',(0.704308424329553,-0.709894107186714,0.));
#1412=DIRECTION('center_axis',(0.,0.,1.));
#1413=DIRECTION('ref_axis',(1.,0.,0.));
#1414=DIRECTION('center_axis',(0.,0.,-1.));
#1415=DIRECTION('ref_axis',(1.,0.,0.));
#1416=DIRECTION('center_axis',(0.,0.,1.));
#1417=DIRECTION('ref_axis',(0.0171517770933952,-0.999852897451689,0.));
#1418=CARTESIAN_POINT('',(0.,0.,0.));
#1419=CARTESIAN_POINT('Origin',(77.45,30.95,4.65));
#1420=CARTESIAN_POINT('',(79.2,114.8,2.9));
#1421=CARTESIAN_POINT('',(75.7,114.8,6.4));
#1422=CARTESIAN_POINT('',(67.55,114.8,14.55));
#1423=CARTESIAN_POINT('',(79.2,123.8,2.9));
#1424=CARTESIAN_POINT('',(79.2,30.95,2.9));
#1425=CARTESIAN_POINT('',(75.7,120.3,6.4));
#1426=CARTESIAN_POINT('',(75.7,120.3,6.4));
#1427=CARTESIAN_POINT('',(75.7,30.95,6.4));
#1428=CARTESIAN_POINT('Origin',(79.2,1.23259516440783E-31,0.));
#1429=CARTESIAN_POINT('',(79.2,114.8,0.));
#1430=CARTESIAN_POINT('',(79.2,114.8,3.2));
#1431=CARTESIAN_POINT('',(79.2,123.8,0.));
#1432=CARTESIAN_POINT('',(79.2,1.23259516440783E-31,0.));
#1433=CARTESIAN_POINT('',(79.2,123.8,0.));
#1434=CARTESIAN_POINT('Origin',(59.4,122.05,4.65));
#1435=CARTESIAN_POINT('',(4.5,120.3,6.4));
#1436=CARTESIAN_POINT('',(1.02753916366139,123.8,2.9));
#1437=CARTESIAN_POINT('',(12.9720985465141,111.760711492411,14.9392885075891));
#1438=CARTESIAN_POINT('',(59.4,120.3,6.4));
#1439=CARTESIAN_POINT('',(59.4,123.8,2.9));
#1440=CARTESIAN_POINT('Origin',(79.2,123.8,0.));
#1441=CARTESIAN_POINT('',(1.02753916366139,123.8,0.));
#1442=CARTESIAN_POINT('',(1.02753916366139,123.8,3.2));
#1443=CARTESIAN_POINT('',(79.2,123.8,0.));
#1444=CARTESIAN_POINT('Origin',(39.6,61.9,0.));
#1445=CARTESIAN_POINT('',(77.6,114.8,0.));
#1446=CARTESIAN_POINT('',(39.6,114.8,0.));
#1447=CARTESIAN_POINT('',(77.6,122.2,0.));
#1448=CARTESIAN_POINT('',(77.6,30.95,0.));
#1449=CARTESIAN_POINT('',(2.6149498317019,122.2,0.));
#1450=CARTESIAN_POINT('',(59.4,122.2,0.));
#1451=CARTESIAN_POINT('',(27.8052282401532,96.809944190892,0.));
#1452=CARTESIAN_POINT('Origin',(39.6,61.9,6.4));
#1453=CARTESIAN_POINT('',(39.6,114.8,6.4));
#1454=CARTESIAN_POINT('',(39.6,114.8,6.4));
#1455=CARTESIAN_POINT('',(10.4527900051519,114.3,6.4));
#1456=CARTESIAN_POINT('',(27.8052282401532,96.809944190892,6.4));
#1457=CARTESIAN_POINT('',(24.5727972336605,114.54221884755,6.4));
#1458=CARTESIAN_POINT('Origin',(79.2,122.2,0.));
#1459=CARTESIAN_POINT('',(2.6149498317019,122.2,2.23725830020305));
#1460=CARTESIAN_POINT('',(2.61494983170189,122.2,3.2));
#1461=CARTESIAN_POINT('',(77.6,122.2,2.23725830020305));
#1462=CARTESIAN_POINT('',(77.6,122.2,0.));
#1463=CARTESIAN_POINT('',(69.3,122.2,2.23725830020305));
#1464=CARTESIAN_POINT('Origin',(59.4,120.918629150102,3.51862915010153));
#1465=CARTESIAN_POINT('',(5.15752702775811,119.637258300203,4.8));
#1466=CARTESIAN_POINT('',(13.7243415197049,111.0025026802,13.4347556200026));
#1467=CARTESIAN_POINT('',(75.037258300203,119.637258300203,4.8));
#1468=CARTESIAN_POINT('',(58.5040861000677,103.104086100068,21.3331722001354));
#1469=CARTESIAN_POINT('',(49.5,119.637258300203,4.8));
#1470=CARTESIAN_POINT('Origin',(39.6,61.9,4.8));
#1471=CARTESIAN_POINT('',(39.6,114.8,4.8));
#1472=CARTESIAN_POINT('',(75.0372583002031,114.8,4.8));
#1473=CARTESIAN_POINT('',(39.6,114.8,4.8));
#1474=CARTESIAN_POINT('',(10.4527900051519,114.3,4.8));
#1475=CARTESIAN_POINT('',(24.5727972336605,114.54221884755,4.8));
#1476=CARTESIAN_POINT('',(27.8052282401532,96.809944190892,4.8));
#1477=CARTESIAN_POINT('',(75.0372583002031,46.425,4.8));
#1478=CARTESIAN_POINT('Origin',(76.3186291501015,30.95,3.51862915010153));
#1479=CARTESIAN_POINT('',(77.6,114.8,2.23725830020305));
#1480=CARTESIAN_POINT('',(66.4186291501015,114.8,13.4186291501015));
#1481=CARTESIAN_POINT('',(77.6,15.475,2.23725830020305));
#1482=CARTESIAN_POINT('Origin',(77.6,1.23259516440783E-31,0.));
#1483=CARTESIAN_POINT('',(77.6,114.8,3.2));
#1484=CARTESIAN_POINT('Origin',(4.50000000000001,120.3,6.4));
#1485=CARTESIAN_POINT('',(10.4527900051519,114.3,6.4));
#1486=CARTESIAN_POINT('Origin',(10.4527900051519,114.3,6.4));
#1487=CARTESIAN_POINT('',(39.6,114.8,6.4));
#1488=CARTESIAN_POINT('Origin',(39.6,114.8,6.4));
#1489=CARTESIAN_POINT('Origin',(10.5213971135255,110.300588410193,6.4));
#1490=CARTESIAN_POINT('',(38.1771961072568,110.775004297659,4.8));
#1491=CARTESIAN_POINT('',(38.1771961072568,110.775004297659,4.9));
#1492=CARTESIAN_POINT('',(38.1771961072568,110.775004297659,0.));
#1493=CARTESIAN_POINT('',(14.855405851817,110.37493529861,4.8));
#1494=CARTESIAN_POINT('',(24.641404342034,110.542807257743,4.8));
#1495=CARTESIAN_POINT('',(14.855405851817,110.37493529861,6.4));
#1496=CARTESIAN_POINT('',(14.855405851817,110.37493529861,6.4));
#1497=CARTESIAN_POINT('',(36.1277479610076,110.739847448228,6.4));
#1498=CARTESIAN_POINT('',(24.641404342034,110.542807257743,6.4));
#1499=CARTESIAN_POINT('Ctrl Pts',(38.1771961072568,110.775004297659,4.90000000000001));
#1500=CARTESIAN_POINT('Ctrl Pts',(38.1411875510863,110.774386596065,4.92546985148974));
#1501=CARTESIAN_POINT('Ctrl Pts',(37.4917671735955,110.763246243736,5.38730144464908));
#1502=CARTESIAN_POINT('Ctrl Pts',(36.1277479610076,110.739847448228,6.4));
#1503=CARTESIAN_POINT('Origin',(0.,123.8,0.));
#1504=CARTESIAN_POINT('',(0.,123.8,2.9));
#1505=CARTESIAN_POINT('',(0.,0.,2.9));
#1506=CARTESIAN_POINT('',(0.,92.85,2.9));
#1507=CARTESIAN_POINT('',(0.,123.8,0.));
#1508=CARTESIAN_POINT('',(0.,123.8,0.));
#1509=CARTESIAN_POINT('',(0.,0.,0.));
#1510=CARTESIAN_POINT('',(0.,123.8,0.));
#1511=CARTESIAN_POINT('',(0.,0.,0.));
#1512=CARTESIAN_POINT('Origin',(0.,0.,0.));
#1513=CARTESIAN_POINT('',(79.2,1.23259516440783E-31,2.9));
#1514=CARTESIAN_POINT('',(19.8,0.,2.9));
#1515=CARTESIAN_POINT('',(79.2,1.23259516440783E-31,0.));
#1516=CARTESIAN_POINT('',(0.,0.,0.));
#1517=CARTESIAN_POINT('',(79.2,1.23259516440783E-31,0.));
#1518=CARTESIAN_POINT('Origin',(1.6,123.8,0.));
#1519=CARTESIAN_POINT('',(1.6,122.2,0.));
#1520=CARTESIAN_POINT('',(1.6,1.6,0.));
#1521=CARTESIAN_POINT('',(1.6,92.85,0.));
#1522=CARTESIAN_POINT('',(1.6,122.2,2.23725830020305));
#1523=CARTESIAN_POINT('',(1.6,122.2,0.));
#1524=CARTESIAN_POINT('',(1.6,1.6,2.23725830020305));
#1525=CARTESIAN_POINT('',(1.6,108.325,2.23725830020305));
#1526=CARTESIAN_POINT('',(1.6,1.6,0.));
#1527=CARTESIAN_POINT('Origin',(-2.49009124122794E-33,1.6,0.));
#1528=CARTESIAN_POINT('',(77.6,1.6,2.23725830020305));
#1529=CARTESIAN_POINT('',(9.9,1.6,2.23725830020305));
#1530=CARTESIAN_POINT('',(77.6,1.6,0.));
#1531=CARTESIAN_POINT('',(77.6,1.6,0.));
#1532=CARTESIAN_POINT('',(19.8,1.6,0.));
#1533=CARTESIAN_POINT('Origin',(39.6,61.9,3.8));
#1534=CARTESIAN_POINT('',(25.,96.9,3.8));
#1535=CARTESIAN_POINT('',(54.2,96.9,3.8));
#1536=CARTESIAN_POINT('',(32.3,96.9,3.8));
#1537=CARTESIAN_POINT('',(57.8,93.3,3.8));
#1538=CARTESIAN_POINT('Origin',(54.2,93.3,3.8));
#1539=CARTESIAN_POINT('',(57.8,30.5,3.8));
#1540=CARTESIAN_POINT('',(57.8,77.6,3.8));
#1541=CARTESIAN_POINT('',(54.2,26.9,3.8));
#1542=CARTESIAN_POINT('Origin',(54.2,30.5,3.8));
#1543=CARTESIAN_POINT('',(25.,26.9,3.8));
#1544=CARTESIAN_POINT('',(46.9,26.9,3.8));
#1545=CARTESIAN_POINT('',(21.4,30.5,3.8));
#1546=CARTESIAN_POINT('Origin',(25.,30.5,3.8));
#1547=CARTESIAN_POINT('',(21.4,93.3,3.8));
#1548=CARTESIAN_POINT('',(21.4,46.2,3.8));
#1549=CARTESIAN_POINT('Origin',(25.,93.3,3.8));
#1550=CARTESIAN_POINT('',(54.2,95.3,3.8));
#1551=CARTESIAN_POINT('',(56.2,93.3,3.8));
#1552=CARTESIAN_POINT('Origin',(54.2,93.3,3.8));
#1553=CARTESIAN_POINT('',(25.,95.3,3.8));
#1554=CARTESIAN_POINT('',(32.3,95.3,3.8));
#1555=CARTESIAN_POINT('',(23.,93.3,3.8));
#1556=CARTESIAN_POINT('Origin',(25.,93.3,3.8));
#1557=CARTESIAN_POINT('',(23.,30.5,3.8));
#1558=CARTESIAN_POINT('',(23.,46.2,3.8));
#1559=CARTESIAN_POINT('',(25.,28.5,3.8));
#1560=CARTESIAN_POINT('Origin',(25.,30.5,3.8));
#1561=CARTESIAN_POINT('',(54.2,28.5,3.8));
#1562=CARTESIAN_POINT('',(46.9,28.5,3.8));
#1563=CARTESIAN_POINT('',(56.2,30.5,3.8));
#1564=CARTESIAN_POINT('Origin',(54.2,30.5,3.8));
#1565=CARTESIAN_POINT('',(56.2,77.6,3.8));
#1566=CARTESIAN_POINT('Origin',(77.6,1.23259516440783E-31,0.));
#1567=CARTESIAN_POINT('',(77.6,111.451274923556,2.23725830020304));
#1568=CARTESIAN_POINT('',(77.6,15.475,2.23725830020305));
#1569=CARTESIAN_POINT('',(77.6,111.451274923556,2.22044604925031E-15));
#1570=CARTESIAN_POINT('',(77.6,111.451274923556,3.2));
#1571=CARTESIAN_POINT('',(77.6,30.95,0.));
#1572=CARTESIAN_POINT('Origin',(79.2,1.23259516440783E-31,0.));
#1573=CARTESIAN_POINT('',(79.2,111.478721804412,0.));
#1574=CARTESIAN_POINT('',(79.2,1.23259516440783E-31,0.));
#1575=CARTESIAN_POINT('',(79.2,111.478721804412,2.9));
#1576=CARTESIAN_POINT('',(79.2,111.478721804412,3.2));
#1577=CARTESIAN_POINT('',(79.2,30.95,2.9));
#1578=CARTESIAN_POINT('Origin',(39.6,13.5,5.65));
#1579=CARTESIAN_POINT('',(36.1,13.5,6.4));
#1580=CARTESIAN_POINT('Origin',(39.6,13.5,6.4));
#1581=CARTESIAN_POINT('',(38.1,13.5,4.9));
#1582=CARTESIAN_POINT('',(37.1,13.5,5.65));
#1583=CARTESIAN_POINT('Origin',(39.6,13.5,4.9));
#1584=CARTESIAN_POINT('Origin',(25.,95.3,0.));
#1585=CARTESIAN_POINT('',(54.2,95.3,6.4));
#1586=CARTESIAN_POINT('',(54.2,95.3,0.));
#1587=CARTESIAN_POINT('',(25.,95.3,6.4));
#1588=CARTESIAN_POINT('',(25.,95.3,6.4));
#1589=CARTESIAN_POINT('',(25.,95.3,0.));
#1590=CARTESIAN_POINT('Origin',(25.,93.3,0.));
#1591=CARTESIAN_POINT('',(23.,93.3,6.4));
#1592=CARTESIAN_POINT('Origin',(25.,93.3,6.4));
#1593=CARTESIAN_POINT('',(23.,93.3,0.));
#1594=CARTESIAN_POINT('Origin',(23.,30.5,0.));
#1595=CARTESIAN_POINT('',(23.,30.5,6.4));
#1596=CARTESIAN_POINT('',(23.,30.5,6.4));
#1597=CARTESIAN_POINT('',(23.,30.5,0.));
#1598=CARTESIAN_POINT('Origin',(25.,30.5,0.));
#1599=CARTESIAN_POINT('',(25.,28.5,6.4));
#1600=CARTESIAN_POINT('Origin',(25.,30.5,6.4));
#1601=CARTESIAN_POINT('',(25.,28.5,0.));
#1602=CARTESIAN_POINT('Origin',(54.2,28.5,0.));
#1603=CARTESIAN_POINT('',(54.2,28.5,6.4));
#1604=CARTESIAN_POINT('',(54.2,28.5,6.4));
#1605=CARTESIAN_POINT('',(54.2,28.5,0.));
#1606=CARTESIAN_POINT('Origin',(54.2,30.5,0.));
#1607=CARTESIAN_POINT('',(56.2,30.5,6.4));
#1608=CARTESIAN_POINT('Origin',(54.2,30.5,6.4));
#1609=CARTESIAN_POINT('',(56.2,30.5,0.));
#1610=CARTESIAN_POINT('Origin',(56.2,93.3,0.));
#1611=CARTESIAN_POINT('',(56.2,93.3,6.4));
#1612=CARTESIAN_POINT('',(56.2,93.3,6.4));
#1613=CARTESIAN_POINT('',(56.2,93.3,0.));
#1614=CARTESIAN_POINT('Origin',(54.2,93.3,0.));
#1615=CARTESIAN_POINT('Origin',(54.2,93.3,6.4));
#1616=CARTESIAN_POINT('Origin',(77.45,30.95,4.65));
#1617=CARTESIAN_POINT('',(75.7,111.418681752541,6.4));
#1618=CARTESIAN_POINT('',(59.9327781738674,111.148206090738,22.1672218261326));
#1619=CARTESIAN_POINT('',(75.7,3.5,6.4));
#1620=CARTESIAN_POINT('',(75.7,30.95,6.4));
#1621=CARTESIAN_POINT('',(75.7,3.5,6.4));
#1622=CARTESIAN_POINT('Origin',(19.8,1.75,4.65));
#1623=CARTESIAN_POINT('',(3.5,3.5,6.4));
#1624=CARTESIAN_POINT('',(19.8,3.5,6.4));
#1625=CARTESIAN_POINT('',(3.5,3.5,6.4));
#1626=CARTESIAN_POINT('Origin',(1.75,92.85,4.65));
#1627=CARTESIAN_POINT('',(3.5,121.820397855148,6.4));
#1628=CARTESIAN_POINT('',(3.5,92.85,6.4));
#1629=CARTESIAN_POINT('',(1.53597402299158,123.8,4.43597402299158));
#1630=CARTESIAN_POINT('',(8.26203796533456,117.020593432805,11.1620379653346));
#1631=CARTESIAN_POINT('',(19.95,123.8,22.85));
#1632=CARTESIAN_POINT('Origin',(79.2,123.8,0.));
#1633=CARTESIAN_POINT('',(1.53597402299158,123.8,0.));
#1634=CARTESIAN_POINT('',(1.53597402299158,123.8,3.2));
#1635=CARTESIAN_POINT('',(79.2,123.8,0.));
#1636=CARTESIAN_POINT('Origin',(39.6,61.9,0.));
#1637=CARTESIAN_POINT('',(24.641404342034,110.542807257743,2.22044604925031E-15));
#1638=CARTESIAN_POINT('',(3.12338469103209,122.2,0.));
#1639=CARTESIAN_POINT('',(28.305154688879,96.8185200794387,0.));
#1640=CARTESIAN_POINT('',(59.4,122.2,0.));
#1641=CARTESIAN_POINT('Origin',(79.2,122.2,0.));
#1642=CARTESIAN_POINT('',(3.12338469103211,122.2,2.23725830020306));
#1643=CARTESIAN_POINT('',(3.12338469103209,122.2,3.2));
#1644=CARTESIAN_POINT('',(69.3,122.2,2.23725830020305));
#1645=CARTESIAN_POINT('Origin',(59.4,120.918629150102,3.51862915010153));
#1646=CARTESIAN_POINT('',(5.6659618870883,119.637258300203,4.8));
#1647=CARTESIAN_POINT('',(14.1460987083383,111.089867768458,13.3473905317447));
#1648=CARTESIAN_POINT('',(4.16274169979695,119.637258300203,4.8));
#1649=CARTESIAN_POINT('',(49.5,119.637258300203,4.8));
#1650=CARTESIAN_POINT('',(16.9792472332657,106.820752766734,17.6165055334687));
#1651=CARTESIAN_POINT('Origin',(2.88137084989848,92.85,3.51862915010152));
#1652=CARTESIAN_POINT('',(4.16274169979695,4.16274169979696,4.8));
#1653=CARTESIAN_POINT('',(4.16274169979696,77.375,4.8));
#1654=CARTESIAN_POINT('',(20.6959138999323,20.6959138999323,21.3331722001354));
#1655=CARTESIAN_POINT('Origin',(19.8,2.88137084989848,3.51862915010152));
#1656=CARTESIAN_POINT('',(75.037258300203,4.16274169979695,4.8));
#1657=CARTESIAN_POINT('',(29.7,4.16274169979697,4.8));
#1658=CARTESIAN_POINT('',(62.2207527667344,16.9792472332657,17.6165055334687));
#1659=CARTESIAN_POINT('Origin',(76.3186291501015,30.95,3.51862915010153));
#1660=CARTESIAN_POINT('',(75.037258300203,111.407312882245,4.8));
#1661=CARTESIAN_POINT('',(75.0372583002031,46.425,4.8));
#1662=CARTESIAN_POINT('',(58.801573763745,111.12880107032,21.0356845364581));
#1663=CARTESIAN_POINT('Origin',(39.6,13.5,0.));
#1664=CARTESIAN_POINT('',(38.1,13.5,4.8));
#1665=CARTESIAN_POINT('',(38.1,13.5,0.));
#1666=CARTESIAN_POINT('Origin',(39.6,13.5,4.8));
#1667=CARTESIAN_POINT('Origin',(57.8,93.3,0.));
#1668=CARTESIAN_POINT('',(57.8,93.3,4.8));
#1669=CARTESIAN_POINT('',(57.8,93.3,0.));
#1670=CARTESIAN_POINT('',(57.8,30.5,4.8));
#1671=CARTESIAN_POINT('',(57.8,77.6,4.8));
#1672=CARTESIAN_POINT('',(57.8,30.5,0.));
#1673=CARTESIAN_POINT('Origin',(54.2,30.5,0.));
#1674=CARTESIAN_POINT('',(54.2,26.9,4.8));
#1675=CARTESIAN_POINT('Origin',(54.2,30.5,4.8));
#1676=CARTESIAN_POINT('',(54.2,26.9,0.));
#1677=CARTESIAN_POINT('Origin',(54.2,26.9,0.));
#1678=CARTESIAN_POINT('',(25.,26.9,4.8));
#1679=CARTESIAN_POINT('',(46.9,26.9,4.8));
#1680=CARTESIAN_POINT('',(25.,26.9,0.));
#1681=CARTESIAN_POINT('Origin',(25.,30.5,0.));
#1682=CARTESIAN_POINT('',(21.4,30.5,4.8));
#1683=CARTESIAN_POINT('Origin',(25.,30.5,4.8));
#1684=CARTESIAN_POINT('',(21.4,30.5,0.));
#1685=CARTESIAN_POINT('Origin',(21.4,30.5,0.));
#1686=CARTESIAN_POINT('',(21.4,93.3,4.8));
#1687=CARTESIAN_POINT('',(21.4,46.2,4.8));
#1688=CARTESIAN_POINT('',(21.4,93.3,0.));
#1689=CARTESIAN_POINT('Origin',(25.,93.3,0.));
#1690=CARTESIAN_POINT('',(25.,96.9,4.8));
#1691=CARTESIAN_POINT('Origin',(25.,93.3,4.8));
#1692=CARTESIAN_POINT('',(25.,96.9,0.));
#1693=CARTESIAN_POINT('Origin',(25.,96.9,0.));
#1694=CARTESIAN_POINT('',(54.2,96.9,4.8));
#1695=CARTESIAN_POINT('',(32.3,96.9,4.8));
#1696=CARTESIAN_POINT('',(54.2,96.9,0.));
#1697=CARTESIAN_POINT('Origin',(54.2,93.3,0.));
#1698=CARTESIAN_POINT('Origin',(54.2,93.3,4.8));
#1699=CARTESIAN_POINT('Origin',(10.5213971135255,110.300588410193,6.4));
#1700=CARTESIAN_POINT('',(41.0056748232809,110.82352487161,4.8));
#1701=CARTESIAN_POINT('',(41.0056748232809,110.82352487161,4.9));
#1702=CARTESIAN_POINT('',(41.0056748232809,110.82352487161,0.));
#1703=CARTESIAN_POINT('',(43.0551229695301,110.858681721041,6.4));
#1704=CARTESIAN_POINT('Ctrl Pts',(43.0551229695301,110.858681721041,6.4));
#1705=CARTESIAN_POINT('Ctrl Pts',(41.8318063725625,110.837696580488,5.49176429550762));
#1706=CARTESIAN_POINT('Ctrl Pts',(41.1113787768594,110.825338148997,4.974767341039));
#1707=CARTESIAN_POINT('Ctrl Pts',(41.0056748232809,110.82352487161,4.9));
#1708=CARTESIAN_POINT('',(24.641404342034,110.542807257743,6.4));
#1709=CARTESIAN_POINT('',(24.641404342034,110.542807257743,4.8));
#1710=CARTESIAN_POINT('Origin',(39.6,110.3,5.65));
#1711=CARTESIAN_POINT('Origin',(39.6,110.3,4.9));
#1712=CARTESIAN_POINT('Origin',(39.6,110.3,6.4));
#1713=CARTESIAN_POINT('Origin',(39.6,61.9,6.4));
#1714=CARTESIAN_POINT('',(28.305154688879,96.8185200794387,6.4));
#1715=CARTESIAN_POINT('Origin',(4.99992644872585,120.308575888547,6.4));
#1716=CARTESIAN_POINT('',(28.305154688879,96.8185200794387,4.8));
#1717=CARTESIAN_POINT('Origin',(39.6,61.9,4.8));
#1718=CARTESIAN_POINT('Origin',(39.6,110.3,4.8));
#1719=CARTESIAN_POINT('Origin',(39.6,110.3,0.));
#1720=UNCERTAINTY_MEASURE_WITH_UNIT(LENGTH_MEASURE(0.01),#1724,
'DISTANCE_ACCURACY_VALUE',
'Maximum model space distance between geometric entities at asserted c
onnectivities');
#1721=UNCERTAINTY_MEASURE_WITH_UNIT(LENGTH_MEASURE(0.01),#1724,
'DISTANCE_ACCURACY_VALUE',
'Maximum model space distance between geometric entities at asserted c
onnectivities');
#1722=(
GEOMETRIC_REPRESENTATION_CONTEXT(3)
GLOBAL_UNCERTAINTY_ASSIGNED_CONTEXT((#1720))
GLOBAL_UNIT_ASSIGNED_CONTEXT((#1724,#1726,#1727))
REPRESENTATION_CONTEXT('','3D')
);
#1723=(
GEOMETRIC_REPRESENTATION_CONTEXT(3)
GLOBAL_UNCERTAINTY_ASSIGNED_CONTEXT((#1721))
GLOBAL_UNIT_ASSIGNED_CONTEXT((#1724,#1726,#1727))
REPRESENTATION_CONTEXT('','3D')
);
#1724=(
LENGTH_UNIT()
NAMED_UNIT(*)
SI_UNIT(.MILLI.,.METRE.)
);
#1725=(
LENGTH_UNIT()
NAMED_UNIT(*)
SI_UNIT($,.METRE.)
);
#1726=(
NAMED_UNIT(*)
PLANE_ANGLE_UNIT()
SI_UNIT($,.RADIAN.)
);
#1727=(
NAMED_UNIT(*)
SI_UNIT($,.STERADIAN.)
SOLID_ANGLE_UNIT()
);
#1728=SHAPE_DEFINITION_REPRESENTATION(#1729,#1730);
#1729=PRODUCT_DEFINITION_SHAPE('',$,#1732);
#1730=SHAPE_REPRESENTATION('',(#1060),#1722);
#1731=PRODUCT_DEFINITION_CONTEXT('part definition',#1736,'design');
#1732=PRODUCT_DEFINITION('Decora_1-Gang','Decora_1-Gang v4',#1733,#1731);
#1733=PRODUCT_DEFINITION_FORMATION('',$,#1738);
#1734=PRODUCT_RELATED_PRODUCT_CATEGORY('Decora_1-Gang v4',
'Decora_1-Gang v4',(#1738));
#1735=APPLICATION_PROTOCOL_DEFINITION('international standard',
'automotive_design',2009,#1736);
#1736=APPLICATION_CONTEXT(
'Core Data for Automotive Mechanical Design Process');
#1737=PRODUCT_CONTEXT('part definition',#1736,'mechanical');
#1738=PRODUCT('Decora_1-Gang','Decora_1-Gang v4',$,(#1737));
#1739=PRESENTATION_STYLE_ASSIGNMENT((#1740));
#1740=SURFACE_STYLE_USAGE(.BOTH.,#1741);
#1741=SURFACE_SIDE_STYLE('',(#1742));
#1742=SURFACE_STYLE_FILL_AREA(#1743);
#1743=FILL_AREA_STYLE('Steel - Satin',(#1744));
#1744=FILL_AREA_STYLE_COLOUR('Steel - Satin',#1745);
#1745=COLOUR_RGB('Steel - Satin',0.627450980392157,0.627450980392157,0.627450980392157);
ENDSEC;
END-ISO-10303-21;
