ISO-10303-21;
HEADER;
/* Generated by software containing ST-Developer
 * from STEP Tools, Inc. (www.steptools.com) 
 */

FILE_DESCRIPTION(
/* description */ (''),
/* implementation_level */ '2;1');

FILE_NAME(
/* name */ 'Light Switch Plate_v1.step',
/* time_stamp */ '2026-03-17T23:35:04-04:00',
/* author */ (''),
/* organization */ (''),
/* preprocessor_version */ 'ST-DEVELOPER v20.1',
/* originating_system */ 'Autodesk Translation Framework v14.24.0.0',
/* authorisation */ '');

FILE_SCHEMA (('AUTOMOTIVE_DESIGN { 1 0 10303 214 3 1 1 }'));
ENDSEC;

DATA;
#10=MECHANICAL_DESIGN_GEOMETRIC_PRESENTATION_REPRESENTATION('',(#13),#1045);
#11=SHAPE_REPRESENTATION_RELATIONSHIP('SRR','None',#1052,#12);
#12=ADVANCED_BREP_SHAPE_REPRESENTATION('',(#14),#1044);
#13=STYLED_ITEM('',(#1061),#14);
#14=MANIFOLD_SOLID_BREP('Body1',#619);
#15=CYLINDRICAL_SURFACE('',#638,2.25);
#16=CYLINDRICAL_SURFACE('',#642,2.25);
#17=CYLINDRICAL_SURFACE('',#644,5.);
#18=CYLINDRICAL_SURFACE('',#648,5.);
#19=CYLINDRICAL_SURFACE('',#674,2.5);
#20=CYLINDRICAL_SURFACE('',#677,2.5);
#21=CYLINDRICAL_SURFACE('',#680,2.5);
#22=CYLINDRICAL_SURFACE('',#685,2.5);
#23=CYLINDRICAL_SURFACE('',#688,2.5);
#24=CYLINDRICAL_SURFACE('',#691,2.5);
#25=FACE_BOUND('',#108,.T.);
#26=FACE_BOUND('',#109,.T.);
#27=FACE_BOUND('',#110,.T.);
#28=FACE_BOUND('',#116,.T.);
#29=FACE_BOUND('',#119,.T.);
#30=FACE_BOUND('',#131,.T.);
#31=FACE_BOUND('',#137,.T.);
#32=FACE_BOUND('',#138,.T.);
#33=FACE_BOUND('',#139,.T.);
#34=FACE_BOUND('',#140,.T.);
#35=FACE_BOUND('',#141,.T.);
#36=FACE_BOUND('',#142,.T.);
#37=FACE_BOUND('',#143,.T.);
#38=FACE_BOUND('',#144,.T.);
#39=FACE_BOUND('',#145,.T.);
#40=PLANE('',#636);
#41=PLANE('',#647);
#42=PLANE('',#651);
#43=PLANE('',#652);
#44=PLANE('',#653);
#45=PLANE('',#654);
#46=PLANE('',#655);
#47=PLANE('',#656);
#48=PLANE('',#657);
#49=PLANE('',#658);
#50=PLANE('',#659);
#51=PLANE('',#660);
#52=PLANE('',#661);
#53=PLANE('',#662);
#54=PLANE('',#663);
#55=PLANE('',#664);
#56=PLANE('',#665);
#57=PLANE('',#666);
#58=PLANE('',#667);
#59=PLANE('',#676);
#60=PLANE('',#679);
#61=PLANE('',#682);
#62=PLANE('',#683);
#63=PLANE('',#684);
#64=PLANE('',#687);
#65=PLANE('',#690);
#66=PLANE('',#693);
#67=FACE_OUTER_BOUND('',#106,.T.);
#68=FACE_OUTER_BOUND('',#107,.T.);
#69=FACE_OUTER_BOUND('',#111,.T.);
#70=FACE_OUTER_BOUND('',#112,.T.);
#71=FACE_OUTER_BOUND('',#113,.T.);
#72=FACE_OUTER_BOUND('',#114,.T.);
#73=FACE_OUTER_BOUND('',#115,.T.);
#74=FACE_OUTER_BOUND('',#117,.T.);
#75=FACE_OUTER_BOUND('',#118,.T.);
#76=FACE_OUTER_BOUND('',#120,.T.);
#77=FACE_OUTER_BOUND('',#121,.T.);
#78=FACE_OUTER_BOUND('',#122,.T.);
#79=FACE_OUTER_BOUND('',#123,.T.);
#80=FACE_OUTER_BOUND('',#124,.T.);
#81=FACE_OUTER_BOUND('',#125,.T.);
#82=FACE_OUTER_BOUND('',#126,.T.);
#83=FACE_OUTER_BOUND('',#127,.T.);
#84=FACE_OUTER_BOUND('',#128,.T.);
#85=FACE_OUTER_BOUND('',#129,.T.);
#86=FACE_OUTER_BOUND('',#130,.T.);
#87=FACE_OUTER_BOUND('',#132,.T.);
#88=FACE_OUTER_BOUND('',#133,.T.);
#89=FACE_OUTER_BOUND('',#134,.T.);
#90=FACE_OUTER_BOUND('',#135,.T.);
#91=FACE_OUTER_BOUND('',#136,.T.);
#92=FACE_OUTER_BOUND('',#146,.T.);
#93=FACE_OUTER_BOUND('',#147,.T.);
#94=FACE_OUTER_BOUND('',#148,.T.);
#95=FACE_OUTER_BOUND('',#149,.T.);
#96=FACE_OUTER_BOUND('',#150,.T.);
#97=FACE_OUTER_BOUND('',#151,.T.);
#98=FACE_OUTER_BOUND('',#152,.T.);
#99=FACE_OUTER_BOUND('',#153,.T.);
#100=FACE_OUTER_BOUND('',#154,.T.);
#101=FACE_OUTER_BOUND('',#155,.T.);
#102=FACE_OUTER_BOUND('',#156,.T.);
#103=FACE_OUTER_BOUND('',#157,.T.);
#104=FACE_OUTER_BOUND('',#158,.T.);
#105=FACE_OUTER_BOUND('',#159,.T.);
#106=EDGE_LOOP('',(#422,#423,#424,#425));
#107=EDGE_LOOP('',(#426,#427,#428,#429));
#108=EDGE_LOOP('',(#430));
#109=EDGE_LOOP('',(#431,#432,#433,#434));
#110=EDGE_LOOP('',(#435));
#111=EDGE_LOOP('',(#436,#437,#438,#439));
#112=EDGE_LOOP('',(#440,#441,#442,#443));
#113=EDGE_LOOP('',(#444,#445,#446,#447));
#114=EDGE_LOOP('',(#448,#449,#450,#451));
#115=EDGE_LOOP('',(#452));
#116=EDGE_LOOP('',(#453));
#117=EDGE_LOOP('',(#454,#455,#456,#457));
#118=EDGE_LOOP('',(#458));
#119=EDGE_LOOP('',(#459));
#120=EDGE_LOOP('',(#460,#461,#462,#463));
#121=EDGE_LOOP('',(#464,#465,#466,#467));
#122=EDGE_LOOP('',(#468,#469,#470,#471));
#123=EDGE_LOOP('',(#472,#473,#474,#475));
#124=EDGE_LOOP('',(#476,#477,#478,#479));
#125=EDGE_LOOP('',(#480,#481,#482,#483));
#126=EDGE_LOOP('',(#484,#485,#486,#487));
#127=EDGE_LOOP('',(#488,#489,#490,#491));
#128=EDGE_LOOP('',(#492,#493,#494,#495));
#129=EDGE_LOOP('',(#496,#497,#498,#499));
#130=EDGE_LOOP('',(#500,#501,#502,#503));
#131=EDGE_LOOP('',(#504,#505,#506,#507));
#132=EDGE_LOOP('',(#508,#509,#510,#511));
#133=EDGE_LOOP('',(#512,#513,#514,#515));
#134=EDGE_LOOP('',(#516,#517,#518,#519));
#135=EDGE_LOOP('',(#520,#521,#522,#523));
#136=EDGE_LOOP('',(#524,#525,#526,#527));
#137=EDGE_LOOP('',(#528));
#138=EDGE_LOOP('',(#529));
#139=EDGE_LOOP('',(#530));
#140=EDGE_LOOP('',(#531));
#141=EDGE_LOOP('',(#532));
#142=EDGE_LOOP('',(#533,#534,#535,#536));
#143=EDGE_LOOP('',(#537));
#144=EDGE_LOOP('',(#538));
#145=EDGE_LOOP('',(#539));
#146=EDGE_LOOP('',(#540,#541,#542,#543));
#147=EDGE_LOOP('',(#544));
#148=EDGE_LOOP('',(#545,#546,#547,#548));
#149=EDGE_LOOP('',(#549));
#150=EDGE_LOOP('',(#550,#551,#552,#553));
#151=EDGE_LOOP('',(#554));
#152=EDGE_LOOP('',(#555,#556,#557,#558));
#153=EDGE_LOOP('',(#559,#560,#561,#562));
#154=EDGE_LOOP('',(#563,#564,#565,#566));
#155=EDGE_LOOP('',(#567));
#156=EDGE_LOOP('',(#568,#569,#570,#571));
#157=EDGE_LOOP('',(#572));
#158=EDGE_LOOP('',(#573,#574,#575,#576));
#159=EDGE_LOOP('',(#577));
#160=LINE('',#879,#216);
#161=LINE('',#884,#217);
#162=LINE('',#886,#218);
#163=LINE('',#888,#219);
#164=LINE('',#889,#220);
#165=LINE('',#894,#221);
#166=LINE('',#896,#222);
#167=LINE('',#898,#223);
#168=LINE('',#899,#224);
#169=LINE('',#903,#225);
#170=LINE('',#907,#226);
#171=LINE('',#911,#227);
#172=LINE('',#916,#228);
#173=LINE('',#923,#229);
#174=LINE('',#928,#230);
#175=LINE('',#930,#231);
#176=LINE('',#931,#232);
#177=LINE('',#934,#233);
#178=LINE('',#935,#234);
#179=LINE('',#938,#235);
#180=LINE('',#939,#236);
#181=LINE('',#941,#237);
#182=LINE('',#944,#238);
#183=LINE('',#946,#239);
#184=LINE('',#947,#240);
#185=LINE('',#950,#241);
#186=LINE('',#951,#242);
#187=LINE('',#955,#243);
#188=LINE('',#957,#244);
#189=LINE('',#959,#245);
#190=LINE('',#960,#246);
#191=LINE('',#963,#247);
#192=LINE('',#965,#248);
#193=LINE('',#966,#249);
#194=LINE('',#969,#250);
#195=LINE('',#971,#251);
#196=LINE('',#972,#252);
#197=LINE('',#974,#253);
#198=LINE('',#975,#254);
#199=LINE('',#978,#255);
#200=LINE('',#979,#256);
#201=LINE('',#982,#257);
#202=LINE('',#984,#258);
#203=LINE('',#985,#259);
#204=LINE('',#988,#260);
#205=LINE('',#989,#261);
#206=LINE('',#992,#262);
#207=LINE('',#993,#263);
#208=LINE('',#995,#264);
#209=LINE('',#1012,#265);
#210=LINE('',#1017,#266);
#211=LINE('',#1022,#267);
#212=LINE('',#1025,#268);
#213=LINE('',#1030,#269);
#214=LINE('',#1035,#270);
#215=LINE('',#1040,#271);
#216=VECTOR('',#700,2.875);
#217=VECTOR('',#705,10.);
#218=VECTOR('',#706,10.);
#219=VECTOR('',#707,10.);
#220=VECTOR('',#708,10.);
#221=VECTOR('',#711,10.);
#222=VECTOR('',#712,10.);
#223=VECTOR('',#713,10.);
#224=VECTOR('',#714,10.);
#225=VECTOR('',#719,2.25);
#226=VECTOR('',#724,2.875);
#227=VECTOR('',#729,2.25);
#228=VECTOR('',#734,5.);
#229=VECTOR('',#743,5.);
#230=VECTOR('',#750,10.);
#231=VECTOR('',#751,10.);
#232=VECTOR('',#752,10.);
#233=VECTOR('',#755,10.);
#234=VECTOR('',#756,10.);
#235=VECTOR('',#759,10.);
#236=VECTOR('',#760,10.);
#237=VECTOR('',#763,10.);
#238=VECTOR('',#766,10.);
#239=VECTOR('',#767,10.);
#240=VECTOR('',#768,10.);
#241=VECTOR('',#771,10.);
#242=VECTOR('',#772,10.);
#243=VECTOR('',#775,10.);
#244=VECTOR('',#776,10.);
#245=VECTOR('',#777,10.);
#246=VECTOR('',#778,10.);
#247=VECTOR('',#781,10.);
#248=VECTOR('',#782,10.);
#249=VECTOR('',#783,10.);
#250=VECTOR('',#786,10.);
#251=VECTOR('',#787,10.);
#252=VECTOR('',#788,10.);
#253=VECTOR('',#791,10.);
#254=VECTOR('',#792,10.);
#255=VECTOR('',#795,10.);
#256=VECTOR('',#796,10.);
#257=VECTOR('',#799,10.);
#258=VECTOR('',#800,10.);
#259=VECTOR('',#801,10.);
#260=VECTOR('',#804,10.);
#261=VECTOR('',#805,10.);
#262=VECTOR('',#808,10.);
#263=VECTOR('',#809,10.);
#264=VECTOR('',#812,10.);
#265=VECTOR('',#831,2.5);
#266=VECTOR('',#838,2.5);
#267=VECTOR('',#845,2.5);
#268=VECTOR('',#850,10.);
#269=VECTOR('',#857,2.5);
#270=VECTOR('',#864,2.5);
#271=VECTOR('',#871,2.5);
#272=CIRCLE('',#634,2.25);
#273=CIRCLE('',#635,3.5);
#274=CIRCLE('',#637,3.5);
#275=CIRCLE('',#639,2.25);
#276=CIRCLE('',#641,2.25);
#277=CIRCLE('',#643,2.25);
#278=CIRCLE('',#645,5.);
#279=CIRCLE('',#646,5.);
#280=CIRCLE('',#649,5.);
#281=CIRCLE('',#650,5.);
#282=CIRCLE('',#668,2.5);
#283=CIRCLE('',#669,2.5);
#284=CIRCLE('',#670,2.5);
#285=CIRCLE('',#671,2.5);
#286=CIRCLE('',#672,2.5);
#287=CIRCLE('',#673,2.5);
#288=CIRCLE('',#675,2.5);
#289=CIRCLE('',#678,2.5);
#290=CIRCLE('',#681,2.5);
#291=CIRCLE('',#686,2.5);
#292=CIRCLE('',#689,2.5);
#293=CIRCLE('',#692,2.5);
#294=VERTEX_POINT('',#876);
#295=VERTEX_POINT('',#878);
#296=VERTEX_POINT('',#882);
#297=VERTEX_POINT('',#883);
#298=VERTEX_POINT('',#885);
#299=VERTEX_POINT('',#887);
#300=VERTEX_POINT('',#890);
#301=VERTEX_POINT('',#892);
#302=VERTEX_POINT('',#893);
#303=VERTEX_POINT('',#895);
#304=VERTEX_POINT('',#897);
#305=VERTEX_POINT('',#901);
#306=VERTEX_POINT('',#905);
#307=VERTEX_POINT('',#909);
#308=VERTEX_POINT('',#913);
#309=VERTEX_POINT('',#915);
#310=VERTEX_POINT('',#920);
#311=VERTEX_POINT('',#922);
#312=VERTEX_POINT('',#927);
#313=VERTEX_POINT('',#929);
#314=VERTEX_POINT('',#933);
#315=VERTEX_POINT('',#937);
#316=VERTEX_POINT('',#943);
#317=VERTEX_POINT('',#945);
#318=VERTEX_POINT('',#949);
#319=VERTEX_POINT('',#953);
#320=VERTEX_POINT('',#954);
#321=VERTEX_POINT('',#956);
#322=VERTEX_POINT('',#958);
#323=VERTEX_POINT('',#962);
#324=VERTEX_POINT('',#964);
#325=VERTEX_POINT('',#968);
#326=VERTEX_POINT('',#970);
#327=VERTEX_POINT('',#977);
#328=VERTEX_POINT('',#981);
#329=VERTEX_POINT('',#983);
#330=VERTEX_POINT('',#987);
#331=VERTEX_POINT('',#991);
#332=VERTEX_POINT('',#997);
#333=VERTEX_POINT('',#999);
#334=VERTEX_POINT('',#1001);
#335=VERTEX_POINT('',#1003);
#336=VERTEX_POINT('',#1005);
#337=VERTEX_POINT('',#1007);
#338=VERTEX_POINT('',#1010);
#339=VERTEX_POINT('',#1015);
#340=VERTEX_POINT('',#1020);
#341=VERTEX_POINT('',#1028);
#342=VERTEX_POINT('',#1033);
#343=VERTEX_POINT('',#1038);
#344=EDGE_CURVE('',#294,#294,#272,.T.);
#345=EDGE_CURVE('',#294,#295,#160,.T.);
#346=EDGE_CURVE('',#295,#295,#273,.T.);
#347=EDGE_CURVE('',#296,#297,#161,.T.);
#348=EDGE_CURVE('',#298,#296,#162,.T.);
#349=EDGE_CURVE('',#299,#298,#163,.T.);
#350=EDGE_CURVE('',#297,#299,#164,.T.);
#351=EDGE_CURVE('',#300,#300,#274,.T.);
#352=EDGE_CURVE('',#301,#302,#165,.T.);
#353=EDGE_CURVE('',#303,#301,#166,.T.);
#354=EDGE_CURVE('',#304,#303,#167,.T.);
#355=EDGE_CURVE('',#302,#304,#168,.T.);
#356=EDGE_CURVE('',#305,#305,#275,.T.);
#357=EDGE_CURVE('',#305,#294,#169,.T.);
#358=EDGE_CURVE('',#306,#306,#276,.T.);
#359=EDGE_CURVE('',#306,#300,#170,.T.);
#360=EDGE_CURVE('',#307,#307,#277,.T.);
#361=EDGE_CURVE('',#307,#306,#171,.T.);
#362=EDGE_CURVE('',#308,#308,#278,.T.);
#363=EDGE_CURVE('',#308,#309,#172,.T.);
#364=EDGE_CURVE('',#309,#309,#279,.T.);
#365=EDGE_CURVE('',#310,#310,#280,.T.);
#366=EDGE_CURVE('',#310,#311,#173,.T.);
#367=EDGE_CURVE('',#311,#311,#281,.T.);
#368=EDGE_CURVE('',#297,#312,#174,.T.);
#369=EDGE_CURVE('',#312,#313,#175,.T.);
#370=EDGE_CURVE('',#313,#296,#176,.T.);
#371=EDGE_CURVE('',#299,#314,#177,.T.);
#372=EDGE_CURVE('',#314,#312,#178,.T.);
#373=EDGE_CURVE('',#315,#314,#179,.T.);
#374=EDGE_CURVE('',#298,#315,#180,.T.);
#375=EDGE_CURVE('',#313,#315,#181,.T.);
#376=EDGE_CURVE('',#313,#316,#182,.T.);
#377=EDGE_CURVE('',#317,#316,#183,.T.);
#378=EDGE_CURVE('',#315,#317,#184,.T.);
#379=EDGE_CURVE('',#312,#318,#185,.T.);
#380=EDGE_CURVE('',#316,#318,#186,.T.);
#381=EDGE_CURVE('',#319,#320,#187,.T.);
#382=EDGE_CURVE('',#320,#321,#188,.T.);
#383=EDGE_CURVE('',#321,#322,#189,.T.);
#384=EDGE_CURVE('',#319,#322,#190,.T.);
#385=EDGE_CURVE('',#320,#323,#191,.T.);
#386=EDGE_CURVE('',#323,#324,#192,.T.);
#387=EDGE_CURVE('',#324,#321,#193,.T.);
#388=EDGE_CURVE('',#323,#325,#194,.T.);
#389=EDGE_CURVE('',#325,#326,#195,.T.);
#390=EDGE_CURVE('',#326,#324,#196,.T.);
#391=EDGE_CURVE('',#322,#326,#197,.T.);
#392=EDGE_CURVE('',#325,#319,#198,.T.);
#393=EDGE_CURVE('',#318,#327,#199,.T.);
#394=EDGE_CURVE('',#327,#317,#200,.T.);
#395=EDGE_CURVE('',#301,#328,#201,.T.);
#396=EDGE_CURVE('',#329,#328,#202,.T.);
#397=EDGE_CURVE('',#303,#329,#203,.T.);
#398=EDGE_CURVE('',#330,#329,#204,.T.);
#399=EDGE_CURVE('',#304,#330,#205,.T.);
#400=EDGE_CURVE('',#331,#330,#206,.T.);
#401=EDGE_CURVE('',#302,#331,#207,.T.);
#402=EDGE_CURVE('',#328,#331,#208,.T.);
#403=EDGE_CURVE('',#332,#332,#282,.T.);
#404=EDGE_CURVE('',#333,#333,#283,.T.);
#405=EDGE_CURVE('',#334,#334,#284,.T.);
#406=EDGE_CURVE('',#335,#335,#285,.T.);
#407=EDGE_CURVE('',#336,#336,#286,.T.);
#408=EDGE_CURVE('',#337,#337,#287,.T.);
#409=EDGE_CURVE('',#338,#338,#288,.T.);
#410=EDGE_CURVE('',#338,#334,#209,.T.);
#411=EDGE_CURVE('',#339,#339,#289,.T.);
#412=EDGE_CURVE('',#339,#335,#210,.T.);
#413=EDGE_CURVE('',#340,#340,#290,.T.);
#414=EDGE_CURVE('',#340,#336,#211,.T.);
#415=EDGE_CURVE('',#314,#327,#212,.T.);
#416=EDGE_CURVE('',#341,#341,#291,.T.);
#417=EDGE_CURVE('',#341,#332,#213,.T.);
#418=EDGE_CURVE('',#342,#342,#292,.T.);
#419=EDGE_CURVE('',#342,#333,#214,.T.);
#420=EDGE_CURVE('',#343,#343,#293,.T.);
#421=EDGE_CURVE('',#343,#337,#215,.T.);
#422=ORIENTED_EDGE('',*,*,#344,.T.);
#423=ORIENTED_EDGE('',*,*,#345,.T.);
#424=ORIENTED_EDGE('',*,*,#346,.T.);
#425=ORIENTED_EDGE('',*,*,#345,.F.);
#426=ORIENTED_EDGE('',*,*,#347,.F.);
#427=ORIENTED_EDGE('',*,*,#348,.F.);
#428=ORIENTED_EDGE('',*,*,#349,.F.);
#429=ORIENTED_EDGE('',*,*,#350,.F.);
#430=ORIENTED_EDGE('',*,*,#351,.F.);
#431=ORIENTED_EDGE('',*,*,#352,.F.);
#432=ORIENTED_EDGE('',*,*,#353,.F.);
#433=ORIENTED_EDGE('',*,*,#354,.F.);
#434=ORIENTED_EDGE('',*,*,#355,.F.);
#435=ORIENTED_EDGE('',*,*,#346,.F.);
#436=ORIENTED_EDGE('',*,*,#356,.F.);
#437=ORIENTED_EDGE('',*,*,#357,.T.);
#438=ORIENTED_EDGE('',*,*,#344,.F.);
#439=ORIENTED_EDGE('',*,*,#357,.F.);
#440=ORIENTED_EDGE('',*,*,#358,.T.);
#441=ORIENTED_EDGE('',*,*,#359,.T.);
#442=ORIENTED_EDGE('',*,*,#351,.T.);
#443=ORIENTED_EDGE('',*,*,#359,.F.);
#444=ORIENTED_EDGE('',*,*,#360,.F.);
#445=ORIENTED_EDGE('',*,*,#361,.T.);
#446=ORIENTED_EDGE('',*,*,#358,.F.);
#447=ORIENTED_EDGE('',*,*,#361,.F.);
#448=ORIENTED_EDGE('',*,*,#362,.F.);
#449=ORIENTED_EDGE('',*,*,#363,.T.);
#450=ORIENTED_EDGE('',*,*,#364,.F.);
#451=ORIENTED_EDGE('',*,*,#363,.F.);
#452=ORIENTED_EDGE('',*,*,#362,.T.);
#453=ORIENTED_EDGE('',*,*,#360,.T.);
#454=ORIENTED_EDGE('',*,*,#365,.F.);
#455=ORIENTED_EDGE('',*,*,#366,.T.);
#456=ORIENTED_EDGE('',*,*,#367,.F.);
#457=ORIENTED_EDGE('',*,*,#366,.F.);
#458=ORIENTED_EDGE('',*,*,#365,.T.);
#459=ORIENTED_EDGE('',*,*,#356,.T.);
#460=ORIENTED_EDGE('',*,*,#347,.T.);
#461=ORIENTED_EDGE('',*,*,#368,.T.);
#462=ORIENTED_EDGE('',*,*,#369,.T.);
#463=ORIENTED_EDGE('',*,*,#370,.T.);
#464=ORIENTED_EDGE('',*,*,#350,.T.);
#465=ORIENTED_EDGE('',*,*,#371,.T.);
#466=ORIENTED_EDGE('',*,*,#372,.T.);
#467=ORIENTED_EDGE('',*,*,#368,.F.);
#468=ORIENTED_EDGE('',*,*,#373,.T.);
#469=ORIENTED_EDGE('',*,*,#371,.F.);
#470=ORIENTED_EDGE('',*,*,#349,.T.);
#471=ORIENTED_EDGE('',*,*,#374,.T.);
#472=ORIENTED_EDGE('',*,*,#348,.T.);
#473=ORIENTED_EDGE('',*,*,#370,.F.);
#474=ORIENTED_EDGE('',*,*,#375,.T.);
#475=ORIENTED_EDGE('',*,*,#374,.F.);
#476=ORIENTED_EDGE('',*,*,#375,.F.);
#477=ORIENTED_EDGE('',*,*,#376,.T.);
#478=ORIENTED_EDGE('',*,*,#377,.F.);
#479=ORIENTED_EDGE('',*,*,#378,.F.);
#480=ORIENTED_EDGE('',*,*,#369,.F.);
#481=ORIENTED_EDGE('',*,*,#379,.T.);
#482=ORIENTED_EDGE('',*,*,#380,.F.);
#483=ORIENTED_EDGE('',*,*,#376,.F.);
#484=ORIENTED_EDGE('',*,*,#381,.T.);
#485=ORIENTED_EDGE('',*,*,#382,.T.);
#486=ORIENTED_EDGE('',*,*,#383,.T.);
#487=ORIENTED_EDGE('',*,*,#384,.F.);
#488=ORIENTED_EDGE('',*,*,#385,.T.);
#489=ORIENTED_EDGE('',*,*,#386,.T.);
#490=ORIENTED_EDGE('',*,*,#387,.T.);
#491=ORIENTED_EDGE('',*,*,#382,.F.);
#492=ORIENTED_EDGE('',*,*,#388,.T.);
#493=ORIENTED_EDGE('',*,*,#389,.T.);
#494=ORIENTED_EDGE('',*,*,#390,.T.);
#495=ORIENTED_EDGE('',*,*,#386,.F.);
#496=ORIENTED_EDGE('',*,*,#391,.T.);
#497=ORIENTED_EDGE('',*,*,#389,.F.);
#498=ORIENTED_EDGE('',*,*,#392,.T.);
#499=ORIENTED_EDGE('',*,*,#384,.T.);
#500=ORIENTED_EDGE('',*,*,#380,.T.);
#501=ORIENTED_EDGE('',*,*,#393,.T.);
#502=ORIENTED_EDGE('',*,*,#394,.T.);
#503=ORIENTED_EDGE('',*,*,#377,.T.);
#504=ORIENTED_EDGE('',*,*,#381,.F.);
#505=ORIENTED_EDGE('',*,*,#392,.F.);
#506=ORIENTED_EDGE('',*,*,#388,.F.);
#507=ORIENTED_EDGE('',*,*,#385,.F.);
#508=ORIENTED_EDGE('',*,*,#353,.T.);
#509=ORIENTED_EDGE('',*,*,#395,.T.);
#510=ORIENTED_EDGE('',*,*,#396,.F.);
#511=ORIENTED_EDGE('',*,*,#397,.F.);
#512=ORIENTED_EDGE('',*,*,#354,.T.);
#513=ORIENTED_EDGE('',*,*,#397,.T.);
#514=ORIENTED_EDGE('',*,*,#398,.F.);
#515=ORIENTED_EDGE('',*,*,#399,.F.);
#516=ORIENTED_EDGE('',*,*,#355,.T.);
#517=ORIENTED_EDGE('',*,*,#399,.T.);
#518=ORIENTED_EDGE('',*,*,#400,.F.);
#519=ORIENTED_EDGE('',*,*,#401,.F.);
#520=ORIENTED_EDGE('',*,*,#352,.T.);
#521=ORIENTED_EDGE('',*,*,#401,.T.);
#522=ORIENTED_EDGE('',*,*,#402,.F.);
#523=ORIENTED_EDGE('',*,*,#395,.F.);
#524=ORIENTED_EDGE('',*,*,#383,.F.);
#525=ORIENTED_EDGE('',*,*,#387,.F.);
#526=ORIENTED_EDGE('',*,*,#390,.F.);
#527=ORIENTED_EDGE('',*,*,#391,.F.);
#528=ORIENTED_EDGE('',*,*,#403,.F.);
#529=ORIENTED_EDGE('',*,*,#404,.F.);
#530=ORIENTED_EDGE('',*,*,#405,.F.);
#531=ORIENTED_EDGE('',*,*,#406,.F.);
#532=ORIENTED_EDGE('',*,*,#367,.T.);
#533=ORIENTED_EDGE('',*,*,#402,.T.);
#534=ORIENTED_EDGE('',*,*,#400,.T.);
#535=ORIENTED_EDGE('',*,*,#398,.T.);
#536=ORIENTED_EDGE('',*,*,#396,.T.);
#537=ORIENTED_EDGE('',*,*,#407,.F.);
#538=ORIENTED_EDGE('',*,*,#364,.T.);
#539=ORIENTED_EDGE('',*,*,#408,.F.);
#540=ORIENTED_EDGE('',*,*,#409,.F.);
#541=ORIENTED_EDGE('',*,*,#410,.T.);
#542=ORIENTED_EDGE('',*,*,#405,.T.);
#543=ORIENTED_EDGE('',*,*,#410,.F.);
#544=ORIENTED_EDGE('',*,*,#409,.T.);
#545=ORIENTED_EDGE('',*,*,#411,.F.);
#546=ORIENTED_EDGE('',*,*,#412,.T.);
#547=ORIENTED_EDGE('',*,*,#406,.T.);
#548=ORIENTED_EDGE('',*,*,#412,.F.);
#549=ORIENTED_EDGE('',*,*,#411,.T.);
#550=ORIENTED_EDGE('',*,*,#413,.F.);
#551=ORIENTED_EDGE('',*,*,#414,.T.);
#552=ORIENTED_EDGE('',*,*,#407,.T.);
#553=ORIENTED_EDGE('',*,*,#414,.F.);
#554=ORIENTED_EDGE('',*,*,#413,.T.);
#555=ORIENTED_EDGE('',*,*,#373,.F.);
#556=ORIENTED_EDGE('',*,*,#378,.T.);
#557=ORIENTED_EDGE('',*,*,#394,.F.);
#558=ORIENTED_EDGE('',*,*,#415,.F.);
#559=ORIENTED_EDGE('',*,*,#372,.F.);
#560=ORIENTED_EDGE('',*,*,#415,.T.);
#561=ORIENTED_EDGE('',*,*,#393,.F.);
#562=ORIENTED_EDGE('',*,*,#379,.F.);
#563=ORIENTED_EDGE('',*,*,#416,.F.);
#564=ORIENTED_EDGE('',*,*,#417,.T.);
#565=ORIENTED_EDGE('',*,*,#403,.T.);
#566=ORIENTED_EDGE('',*,*,#417,.F.);
#567=ORIENTED_EDGE('',*,*,#416,.T.);
#568=ORIENTED_EDGE('',*,*,#418,.F.);
#569=ORIENTED_EDGE('',*,*,#419,.T.);
#570=ORIENTED_EDGE('',*,*,#404,.T.);
#571=ORIENTED_EDGE('',*,*,#419,.F.);
#572=ORIENTED_EDGE('',*,*,#418,.T.);
#573=ORIENTED_EDGE('',*,*,#420,.F.);
#574=ORIENTED_EDGE('',*,*,#421,.T.);
#575=ORIENTED_EDGE('',*,*,#408,.T.);
#576=ORIENTED_EDGE('',*,*,#421,.F.);
#577=ORIENTED_EDGE('',*,*,#420,.T.);
#578=CONICAL_SURFACE('',#633,2.875,0.463647609000806);
#579=CONICAL_SURFACE('',#640,2.875,0.463647609000806);
#580=ADVANCED_FACE('',(#67),#578,.F.);
#581=ADVANCED_FACE('',(#68,#25,#26,#27),#40,.F.);
#582=ADVANCED_FACE('',(#69),#15,.F.);
#583=ADVANCED_FACE('',(#70),#579,.F.);
#584=ADVANCED_FACE('',(#71),#16,.F.);
#585=ADVANCED_FACE('',(#72),#17,.T.);
#586=ADVANCED_FACE('',(#73,#28),#41,.T.);
#587=ADVANCED_FACE('',(#74),#18,.T.);
#588=ADVANCED_FACE('',(#75,#29),#42,.T.);
#589=ADVANCED_FACE('',(#76),#43,.T.);
#590=ADVANCED_FACE('',(#77),#44,.T.);
#591=ADVANCED_FACE('',(#78),#45,.T.);
#592=ADVANCED_FACE('',(#79),#46,.T.);
#593=ADVANCED_FACE('',(#80),#47,.T.);
#594=ADVANCED_FACE('',(#81),#48,.T.);
#595=ADVANCED_FACE('',(#82),#49,.T.);
#596=ADVANCED_FACE('',(#83),#50,.T.);
#597=ADVANCED_FACE('',(#84),#51,.T.);
#598=ADVANCED_FACE('',(#85),#52,.T.);
#599=ADVANCED_FACE('',(#86,#30),#53,.T.);
#600=ADVANCED_FACE('',(#87),#54,.T.);
#601=ADVANCED_FACE('',(#88),#55,.T.);
#602=ADVANCED_FACE('',(#89),#56,.T.);
#603=ADVANCED_FACE('',(#90),#57,.T.);
#604=ADVANCED_FACE('',(#91,#31,#32,#33,#34,#35,#36,#37,#38,#39),#58,.T.);
#605=ADVANCED_FACE('',(#92),#19,.T.);
#606=ADVANCED_FACE('',(#93),#59,.T.);
#607=ADVANCED_FACE('',(#94),#20,.T.);
#608=ADVANCED_FACE('',(#95),#60,.T.);
#609=ADVANCED_FACE('',(#96),#21,.T.);
#610=ADVANCED_FACE('',(#97),#61,.T.);
#611=ADVANCED_FACE('',(#98),#62,.T.);
#612=ADVANCED_FACE('',(#99),#63,.T.);
#613=ADVANCED_FACE('',(#100),#22,.T.);
#614=ADVANCED_FACE('',(#101),#64,.T.);
#615=ADVANCED_FACE('',(#102),#23,.T.);
#616=ADVANCED_FACE('',(#103),#65,.T.);
#617=ADVANCED_FACE('',(#104),#24,.T.);
#618=ADVANCED_FACE('',(#105),#66,.T.);
#619=CLOSED_SHELL('',(#580,#581,#582,#583,#584,#585,#586,#587,#588,#589,
#590,#591,#592,#593,#594,#595,#596,#597,#598,#599,#600,#601,#602,#603,#604,
#605,#606,#607,#608,#609,#610,#611,#612,#613,#614,#615,#616,#617,#618));
#620=DERIVED_UNIT_ELEMENT(#622,1.);
#621=DERIVED_UNIT_ELEMENT(#1047,-3.);
#622=(
MASS_UNIT()
NAMED_UNIT(*)
SI_UNIT(.KILO.,.GRAM.)
);
#623=DERIVED_UNIT((#620,#621));
#624=MEASURE_REPRESENTATION_ITEM('density measure',
POSITIVE_RATIO_MEASURE(7850.),#623);
#625=PROPERTY_DEFINITION_REPRESENTATION(#630,#627);
#626=PROPERTY_DEFINITION_REPRESENTATION(#631,#628);
#627=REPRESENTATION('material name',(#629),#1044);
#628=REPRESENTATION('density',(#624),#1044);
#629=DESCRIPTIVE_REPRESENTATION_ITEM('Steel','Steel');
#630=PROPERTY_DEFINITION('material property','material name',#1054);
#631=PROPERTY_DEFINITION('material property','density of part',#1054);
#632=AXIS2_PLACEMENT_3D('',#874,#694,#695);
#633=AXIS2_PLACEMENT_3D('',#875,#696,#697);
#634=AXIS2_PLACEMENT_3D('',#877,#698,#699);
#635=AXIS2_PLACEMENT_3D('',#880,#701,#702);
#636=AXIS2_PLACEMENT_3D('',#881,#703,#704);
#637=AXIS2_PLACEMENT_3D('',#891,#709,#710);
#638=AXIS2_PLACEMENT_3D('',#900,#715,#716);
#639=AXIS2_PLACEMENT_3D('',#902,#717,#718);
#640=AXIS2_PLACEMENT_3D('',#904,#720,#721);
#641=AXIS2_PLACEMENT_3D('',#906,#722,#723);
#642=AXIS2_PLACEMENT_3D('',#908,#725,#726);
#643=AXIS2_PLACEMENT_3D('',#910,#727,#728);
#644=AXIS2_PLACEMENT_3D('',#912,#730,#731);
#645=AXIS2_PLACEMENT_3D('',#914,#732,#733);
#646=AXIS2_PLACEMENT_3D('',#917,#735,#736);
#647=AXIS2_PLACEMENT_3D('',#918,#737,#738);
#648=AXIS2_PLACEMENT_3D('',#919,#739,#740);
#649=AXIS2_PLACEMENT_3D('',#921,#741,#742);
#650=AXIS2_PLACEMENT_3D('',#924,#744,#745);
#651=AXIS2_PLACEMENT_3D('',#925,#746,#747);
#652=AXIS2_PLACEMENT_3D('',#926,#748,#749);
#653=AXIS2_PLACEMENT_3D('',#932,#753,#754);
#654=AXIS2_PLACEMENT_3D('',#936,#757,#758);
#655=AXIS2_PLACEMENT_3D('',#940,#761,#762);
#656=AXIS2_PLACEMENT_3D('',#942,#764,#765);
#657=AXIS2_PLACEMENT_3D('',#948,#769,#770);
#658=AXIS2_PLACEMENT_3D('',#952,#773,#774);
#659=AXIS2_PLACEMENT_3D('',#961,#779,#780);
#660=AXIS2_PLACEMENT_3D('',#967,#784,#785);
#661=AXIS2_PLACEMENT_3D('',#973,#789,#790);
#662=AXIS2_PLACEMENT_3D('',#976,#793,#794);
#663=AXIS2_PLACEMENT_3D('',#980,#797,#798);
#664=AXIS2_PLACEMENT_3D('',#986,#802,#803);
#665=AXIS2_PLACEMENT_3D('',#990,#806,#807);
#666=AXIS2_PLACEMENT_3D('',#994,#810,#811);
#667=AXIS2_PLACEMENT_3D('',#996,#813,#814);
#668=AXIS2_PLACEMENT_3D('',#998,#815,#816);
#669=AXIS2_PLACEMENT_3D('',#1000,#817,#818);
#670=AXIS2_PLACEMENT_3D('',#1002,#819,#820);
#671=AXIS2_PLACEMENT_3D('',#1004,#821,#822);
#672=AXIS2_PLACEMENT_3D('',#1006,#823,#824);
#673=AXIS2_PLACEMENT_3D('',#1008,#825,#826);
#674=AXIS2_PLACEMENT_3D('',#1009,#827,#828);
#675=AXIS2_PLACEMENT_3D('',#1011,#829,#830);
#676=AXIS2_PLACEMENT_3D('',#1013,#832,#833);
#677=AXIS2_PLACEMENT_3D('',#1014,#834,#835);
#678=AXIS2_PLACEMENT_3D('',#1016,#836,#837);
#679=AXIS2_PLACEMENT_3D('',#1018,#839,#840);
#680=AXIS2_PLACEMENT_3D('',#1019,#841,#842);
#681=AXIS2_PLACEMENT_3D('',#1021,#843,#844);
#682=AXIS2_PLACEMENT_3D('',#1023,#846,#847);
#683=AXIS2_PLACEMENT_3D('',#1024,#848,#849);
#684=AXIS2_PLACEMENT_3D('',#1026,#851,#852);
#685=AXIS2_PLACEMENT_3D('',#1027,#853,#854);
#686=AXIS2_PLACEMENT_3D('',#1029,#855,#856);
#687=AXIS2_PLACEMENT_3D('',#1031,#858,#859);
#688=AXIS2_PLACEMENT_3D('',#1032,#860,#861);
#689=AXIS2_PLACEMENT_3D('',#1034,#862,#863);
#690=AXIS2_PLACEMENT_3D('',#1036,#865,#866);
#691=AXIS2_PLACEMENT_3D('',#1037,#867,#868);
#692=AXIS2_PLACEMENT_3D('',#1039,#869,#870);
#693=AXIS2_PLACEMENT_3D('',#1041,#872,#873);
#694=DIRECTION('axis',(0.,0.,1.));
#695=DIRECTION('refdir',(1.,0.,0.));
#696=DIRECTION('center_axis',(0.,0.,-1.));
#697=DIRECTION('ref_axis',(1.,0.,0.));
#698=DIRECTION('center_axis',(0.,0.,1.));
#699=DIRECTION('ref_axis',(1.,0.,0.));
#700=DIRECTION('',(-0.447213595499958,-5.47678698264203E-17,-0.894427190999916));
#701=DIRECTION('center_axis',(0.,0.,-1.));
#702=DIRECTION('ref_axis',(1.,0.,0.));
#703=DIRECTION('center_axis',(0.,0.,1.));
#704=DIRECTION('ref_axis',(1.,0.,0.));
#705=DIRECTION('',(1.,0.,0.));
#706=DIRECTION('',(0.,-1.,0.));
#707=DIRECTION('',(-1.,0.,0.));
#708=DIRECTION('',(0.,1.,0.));
#709=DIRECTION('center_axis',(0.,0.,-1.));
#710=DIRECTION('ref_axis',(1.,0.,0.));
#711=DIRECTION('',(9.27892206122153E-17,1.,0.));
#712=DIRECTION('',(-1.,0.,0.));
#713=DIRECTION('',(9.27892206122153E-17,-1.,0.));
#714=DIRECTION('',(1.,0.,0.));
#715=DIRECTION('center_axis',(0.,0.,1.));
#716=DIRECTION('ref_axis',(1.,0.,0.));
#717=DIRECTION('center_axis',(0.,0.,-1.));
#718=DIRECTION('ref_axis',(1.,0.,0.));
#719=DIRECTION('',(0.,0.,-1.));
#720=DIRECTION('center_axis',(0.,0.,-1.));
#721=DIRECTION('ref_axis',(1.,0.,0.));
#722=DIRECTION('center_axis',(0.,0.,1.));
#723=DIRECTION('ref_axis',(1.,0.,0.));
#724=DIRECTION('',(-0.447213595499958,-5.47678698264203E-17,-0.894427190999916));
#725=DIRECTION('center_axis',(0.,0.,1.));
#726=DIRECTION('ref_axis',(1.,0.,0.));
#727=DIRECTION('center_axis',(0.,0.,-1.));
#728=DIRECTION('ref_axis',(1.,0.,0.));
#729=DIRECTION('',(0.,0.,-1.));
#730=DIRECTION('center_axis',(0.,0.,1.));
#731=DIRECTION('ref_axis',(1.,0.,0.));
#732=DIRECTION('center_axis',(0.,0.,1.));
#733=DIRECTION('ref_axis',(1.,0.,0.));
#734=DIRECTION('',(0.,0.,-1.));
#735=DIRECTION('center_axis',(0.,0.,-1.));
#736=DIRECTION('ref_axis',(1.,0.,0.));
#737=DIRECTION('center_axis',(0.,0.,1.));
#738=DIRECTION('ref_axis',(1.,0.,0.));
#739=DIRECTION('center_axis',(0.,0.,1.));
#740=DIRECTION('ref_axis',(1.,0.,0.));
#741=DIRECTION('center_axis',(0.,0.,1.));
#742=DIRECTION('ref_axis',(1.,0.,0.));
#743=DIRECTION('',(0.,0.,-1.));
#744=DIRECTION('center_axis',(0.,0.,-1.));
#745=DIRECTION('ref_axis',(1.,0.,0.));
#746=DIRECTION('center_axis',(0.,0.,1.));
#747=DIRECTION('ref_axis',(1.,0.,0.));
#748=DIRECTION('center_axis',(0.,-0.868243142124459,-0.496138938356834));
#749=DIRECTION('ref_axis',(0.,0.496138938356834,-0.868243142124459));
#750=DIRECTION('',(0.444444444444445,-0.444444444444445,0.777777777777778));
#751=DIRECTION('',(-1.,0.,0.));
#752=DIRECTION('',(0.444444444444445,0.444444444444443,-0.777777777777778));
#753=DIRECTION('center_axis',(0.868243142124459,0.,-0.496138938356834));
#754=DIRECTION('ref_axis',(-0.496138938356834,0.,-0.868243142124459));
#755=DIRECTION('',(0.444444444444445,0.444444444444445,0.777777777777778));
#756=DIRECTION('',(0.,-1.,0.));
#757=DIRECTION('center_axis',(0.,0.868243142124459,-0.496138938356834));
#758=DIRECTION('ref_axis',(0.,0.496138938356834,0.868243142124459));
#759=DIRECTION('',(1.,0.,0.));
#760=DIRECTION('',(-0.444444444444445,0.444444444444445,0.777777777777778));
#761=DIRECTION('center_axis',(-0.868243142124459,0.,-0.496138938356834));
#762=DIRECTION('ref_axis',(-0.496138938356834,0.,0.868243142124459));
#763=DIRECTION('',(0.,1.,0.));
#764=DIRECTION('center_axis',(-1.,0.,0.));
#765=DIRECTION('ref_axis',(0.,-1.,0.));
#766=DIRECTION('',(0.,0.,1.));
#767=DIRECTION('',(0.,-1.,0.));
#768=DIRECTION('',(0.,0.,1.));
#769=DIRECTION('center_axis',(0.,-1.,0.));
#770=DIRECTION('ref_axis',(1.,0.,0.));
#771=DIRECTION('',(0.,0.,1.));
#772=DIRECTION('',(1.,0.,0.));
#773=DIRECTION('center_axis',(-0.813733471206735,0.,0.581238193719096));
#774=DIRECTION('ref_axis',(0.581238193719096,0.,0.813733471206735));
#775=DIRECTION('',(0.,1.,0.));
#776=DIRECTION('',(-0.502518907629606,-0.502518907629605,-0.703526470681449));
#777=DIRECTION('',(0.,-1.,0.));
#778=DIRECTION('',(-0.502518907629606,0.502518907629606,-0.703526470681448));
#779=DIRECTION('center_axis',(0.,-0.813733471206735,0.581238193719096));
#780=DIRECTION('ref_axis',(1.,0.,0.));
#781=DIRECTION('',(-1.,0.,0.));
#782=DIRECTION('',(0.502518907629606,-0.502518907629605,-0.703526470681449));
#783=DIRECTION('',(1.,0.,0.));
#784=DIRECTION('center_axis',(0.813733471206735,0.,0.581238193719096));
#785=DIRECTION('ref_axis',(0.581238193719096,0.,-0.813733471206735));
#786=DIRECTION('',(0.,-1.,0.));
#787=DIRECTION('',(0.502518907629606,0.502518907629606,-0.703526470681448));
#788=DIRECTION('',(0.,1.,0.));
#789=DIRECTION('center_axis',(0.,0.813733471206735,0.581238193719096));
#790=DIRECTION('ref_axis',(1.,0.,0.));
#791=DIRECTION('',(-1.,0.,0.));
#792=DIRECTION('',(1.,0.,0.));
#793=DIRECTION('center_axis',(0.,0.,1.));
#794=DIRECTION('ref_axis',(1.,0.,0.));
#795=DIRECTION('',(0.,1.,0.));
#796=DIRECTION('',(-1.,0.,0.));
#797=DIRECTION('center_axis',(0.,1.,0.));
#798=DIRECTION('ref_axis',(-1.,0.,0.));
#799=DIRECTION('',(0.,0.,1.));
#800=DIRECTION('',(-1.,0.,0.));
#801=DIRECTION('',(0.,0.,1.));
#802=DIRECTION('center_axis',(-1.,-9.27892206122153E-17,0.));
#803=DIRECTION('ref_axis',(9.27892206122153E-17,-1.,0.));
#804=DIRECTION('',(9.27892206122153E-17,-1.,0.));
#805=DIRECTION('',(0.,0.,1.));
#806=DIRECTION('center_axis',(0.,-1.,0.));
#807=DIRECTION('ref_axis',(1.,0.,0.));
#808=DIRECTION('',(1.,0.,0.));
#809=DIRECTION('',(0.,0.,1.));
#810=DIRECTION('center_axis',(1.,-9.27892206122153E-17,0.));
#811=DIRECTION('ref_axis',(9.27892206122153E-17,1.,0.));
#812=DIRECTION('',(9.27892206122153E-17,1.,0.));
#813=DIRECTION('center_axis',(0.,0.,1.));
#814=DIRECTION('ref_axis',(1.,0.,0.));
#815=DIRECTION('center_axis',(0.,0.,1.));
#816=DIRECTION('ref_axis',(1.,0.,0.));
#817=DIRECTION('center_axis',(0.,0.,1.));
#818=DIRECTION('ref_axis',(1.,0.,0.));
#819=DIRECTION('center_axis',(0.,0.,1.));
#820=DIRECTION('ref_axis',(1.,0.,0.));
#821=DIRECTION('center_axis',(0.,0.,1.));
#822=DIRECTION('ref_axis',(1.,0.,0.));
#823=DIRECTION('center_axis',(0.,0.,1.));
#824=DIRECTION('ref_axis',(1.,0.,0.));
#825=DIRECTION('center_axis',(0.,0.,1.));
#826=DIRECTION('ref_axis',(1.,0.,0.));
#827=DIRECTION('center_axis',(0.,0.,1.));
#828=DIRECTION('ref_axis',(1.,0.,0.));
#829=DIRECTION('center_axis',(0.,0.,1.));
#830=DIRECTION('ref_axis',(1.,0.,0.));
#831=DIRECTION('',(0.,0.,-1.));
#832=DIRECTION('center_axis',(0.,0.,1.));
#833=DIRECTION('ref_axis',(1.,0.,0.));
#834=DIRECTION('center_axis',(0.,0.,1.));
#835=DIRECTION('ref_axis',(1.,0.,0.));
#836=DIRECTION('center_axis',(0.,0.,1.));
#837=DIRECTION('ref_axis',(1.,0.,0.));
#838=DIRECTION('',(0.,0.,-1.));
#839=DIRECTION('center_axis',(0.,0.,1.));
#840=DIRECTION('ref_axis',(1.,0.,0.));
#841=DIRECTION('center_axis',(0.,0.,1.));
#842=DIRECTION('ref_axis',(1.,0.,0.));
#843=DIRECTION('center_axis',(0.,0.,1.));
#844=DIRECTION('ref_axis',(1.,0.,0.));
#845=DIRECTION('',(0.,0.,-1.));
#846=DIRECTION('center_axis',(0.,0.,1.));
#847=DIRECTION('ref_axis',(1.,0.,0.));
#848=DIRECTION('center_axis',(0.,1.,0.));
#849=DIRECTION('ref_axis',(-1.,0.,0.));
#850=DIRECTION('',(0.,0.,1.));
#851=DIRECTION('center_axis',(1.,0.,0.));
#852=DIRECTION('ref_axis',(0.,1.,0.));
#853=DIRECTION('center_axis',(0.,0.,1.));
#854=DIRECTION('ref_axis',(1.,0.,0.));
#855=DIRECTION('center_axis',(0.,0.,1.));
#856=DIRECTION('ref_axis',(1.,0.,0.));
#857=DIRECTION('',(0.,0.,-1.));
#858=DIRECTION('center_axis',(0.,0.,1.));
#859=DIRECTION('ref_axis',(1.,0.,0.));
#860=DIRECTION('center_axis',(0.,0.,1.));
#861=DIRECTION('ref_axis',(1.,0.,0.));
#862=DIRECTION('center_axis',(0.,0.,1.));
#863=DIRECTION('ref_axis',(1.,0.,0.));
#864=DIRECTION('',(0.,0.,-1.));
#865=DIRECTION('center_axis',(0.,0.,1.));
#866=DIRECTION('ref_axis',(1.,0.,0.));
#867=DIRECTION('center_axis',(0.,0.,1.));
#868=DIRECTION('ref_axis',(1.,0.,0.));
#869=DIRECTION('center_axis',(0.,0.,1.));
#870=DIRECTION('ref_axis',(1.,0.,0.));
#871=DIRECTION('',(0.,0.,-1.));
#872=DIRECTION('center_axis',(0.,0.,1.));
#873=DIRECTION('ref_axis',(1.,0.,0.));
#874=CARTESIAN_POINT('',(0.,0.,0.));
#875=CARTESIAN_POINT('Origin',(0.000608469739580898,30.16,1.25));
#876=CARTESIAN_POINT('',(-2.24939153026042,30.16,2.5));
#877=CARTESIAN_POINT('Origin',(0.000608469739580898,30.16,2.5));
#878=CARTESIAN_POINT('',(-3.49939153026042,30.16,0.));
#879=CARTESIAN_POINT('',(-2.87439153026042,30.16,1.25));
#880=CARTESIAN_POINT('Origin',(0.000608469739580898,30.16,0.));
#881=CARTESIAN_POINT('Origin',(16.0000002384186,0.,0.));
#882=CARTESIAN_POINT('',(-33.0000005215406,-55.0000008493662,0.));
#883=CARTESIAN_POINT('',(33.0000005215406,-55.0000008493662,0.));
#884=CARTESIAN_POINT('',(-9.50000014156103,-55.0000008493662,0.));
#885=CARTESIAN_POINT('',(-33.0000005215406,55.0000008493662,0.));
#886=CARTESIAN_POINT('',(-33.0000005215406,28.5000004246831,0.));
#887=CARTESIAN_POINT('',(33.0000005215406,55.0000008493662,0.));
#888=CARTESIAN_POINT('',(25.5000003799796,55.0000008493662,0.));
#889=CARTESIAN_POINT('',(33.0000005215406,-28.5000004246831,0.));
#890=CARTESIAN_POINT('',(-3.49939153026042,-30.16,0.));
#891=CARTESIAN_POINT('Origin',(0.000608469739580286,-30.16,0.));
#892=CARTESIAN_POINT('',(-5.155,-11.965,0.));
#893=CARTESIAN_POINT('',(-5.155,11.965,0.));
#894=CARTESIAN_POINT('',(-5.155,0.,0.));
#895=CARTESIAN_POINT('',(5.155,-11.965,0.));
#896=CARTESIAN_POINT('',(-5.155,-11.965,0.));
#897=CARTESIAN_POINT('',(5.155,11.965,0.));
#898=CARTESIAN_POINT('',(5.155,0.,0.));
#899=CARTESIAN_POINT('',(5.155,11.965,0.));
#900=CARTESIAN_POINT('Origin',(0.000608469739580898,30.16,0.));
#901=CARTESIAN_POINT('',(-2.24939153026042,30.16,4.));
#902=CARTESIAN_POINT('Origin',(0.000608469739580898,30.16,4.));
#903=CARTESIAN_POINT('',(-2.24939153026042,30.16,0.));
#904=CARTESIAN_POINT('Origin',(0.000608469739580286,-30.16,1.25));
#905=CARTESIAN_POINT('',(-2.24939153026042,-30.16,2.5));
#906=CARTESIAN_POINT('Origin',(0.000608469739580286,-30.16,2.5));
#907=CARTESIAN_POINT('',(-2.87439153026042,-30.16,1.25));
#908=CARTESIAN_POINT('Origin',(0.000608469739580286,-30.16,0.));
#909=CARTESIAN_POINT('',(-2.24939153026042,-30.16,4.));
#910=CARTESIAN_POINT('Origin',(0.000608469739580286,-30.16,4.));
#911=CARTESIAN_POINT('',(-2.24939153026042,-30.16,0.));
#912=CARTESIAN_POINT('Origin',(0.000608469739580286,-30.16,0.));
#913=CARTESIAN_POINT('',(-4.99939153026042,-30.16,4.));
#914=CARTESIAN_POINT('Origin',(0.000608469739580286,-30.16,4.));
#915=CARTESIAN_POINT('',(-4.99939153026042,-30.16,2.));
#916=CARTESIAN_POINT('',(-4.99939153026042,-30.16,0.));
#917=CARTESIAN_POINT('Origin',(0.000608469739580286,-30.16,2.));
#918=CARTESIAN_POINT('Origin',(0.000608469739580286,-30.16,4.));
#919=CARTESIAN_POINT('Origin',(0.000608469739580898,30.16,0.));
#920=CARTESIAN_POINT('',(-4.99939153026042,30.16,4.));
#921=CARTESIAN_POINT('Origin',(0.000608469739580898,30.16,4.));
#922=CARTESIAN_POINT('',(-4.99939153026042,30.16,2.));
#923=CARTESIAN_POINT('',(-4.99939153026042,30.16,0.));
#924=CARTESIAN_POINT('Origin',(0.000608469739580898,30.16,2.));
#925=CARTESIAN_POINT('Origin',(0.000608469739580841,30.16,4.));
#926=CARTESIAN_POINT('Origin',(-9.50000014156103,-56.0000008493662,1.75));
#927=CARTESIAN_POINT('',(35.0000005215406,-57.0000008493662,3.5));
#928=CARTESIAN_POINT('',(33.0000005215406,-55.0000008493662,0.));
#929=CARTESIAN_POINT('',(-35.0000005215406,-57.0000008493662,3.5));
#930=CARTESIAN_POINT('',(-9.50000014156103,-57.0000008493662,3.5));
#931=CARTESIAN_POINT('',(-35.0000005215406,-57.0000008493662,3.5));
#932=CARTESIAN_POINT('Origin',(34.0000005215406,-28.5000004246831,1.75));
#933=CARTESIAN_POINT('',(35.0000005215406,57.0000008493662,3.5));
#934=CARTESIAN_POINT('',(33.0000005215406,55.0000008493662,0.));
#935=CARTESIAN_POINT('',(35.0000005215406,-28.5000004246831,3.5));
#936=CARTESIAN_POINT('Origin',(25.5000003799796,56.0000008493662,1.75));
#937=CARTESIAN_POINT('',(-35.0000005215406,57.0000008493662,3.5));
#938=CARTESIAN_POINT('',(25.5000003799796,57.0000008493662,3.5));
#939=CARTESIAN_POINT('',(-33.0000005215406,55.0000008493662,0.));
#940=CARTESIAN_POINT('Origin',(-34.0000005215406,28.5000004246831,1.75));
#941=CARTESIAN_POINT('',(-35.0000005215406,28.5000004246831,3.5));
#942=CARTESIAN_POINT('Origin',(-35.0000005215406,57.0000008493662,0.));
#943=CARTESIAN_POINT('',(-35.0000005215406,-57.0000008493662,5.5));
#944=CARTESIAN_POINT('',(-35.0000005215406,-57.0000008493662,0.));
#945=CARTESIAN_POINT('',(-35.0000005215406,57.0000008493662,5.5));
#946=CARTESIAN_POINT('',(-35.0000005215406,-57.0000008493662,5.5));
#947=CARTESIAN_POINT('',(-35.0000005215406,57.0000008493662,0.));
#948=CARTESIAN_POINT('Origin',(-35.0000005215406,-57.0000008493662,0.));
#949=CARTESIAN_POINT('',(35.0000005215406,-57.0000008493662,5.5));
#950=CARTESIAN_POINT('',(35.0000005215406,-57.0000008493662,0.));
#951=CARTESIAN_POINT('',(35.0000005215406,-57.0000008493662,5.5));
#952=CARTESIAN_POINT('Origin',(32.250000461936,26.5000003948808,3.75));
#953=CARTESIAN_POINT('',(33.500000461936,-55.5000007897615,5.5));
#954=CARTESIAN_POINT('',(33.500000461936,55.5000007897615,5.5));
#955=CARTESIAN_POINT('',(33.500000461936,26.5000003948808,5.5));
#956=CARTESIAN_POINT('',(31.000000461936,53.0000007897616,2.));
#957=CARTESIAN_POINT('',(33.500000461936,55.5000007897615,5.5));
#958=CARTESIAN_POINT('',(31.000000461936,-53.0000007897615,2.));
#959=CARTESIAN_POINT('',(31.000000461936,26.5000003948808,2.));
#960=CARTESIAN_POINT('',(33.500000461936,-55.5000007897615,5.5));
#961=CARTESIAN_POINT('Origin',(-15.500000230968,54.2500007897615,3.75));
#962=CARTESIAN_POINT('',(-33.500000461936,55.5000007897615,5.5));
#963=CARTESIAN_POINT('',(-15.500000230968,55.5000007897615,5.5));
#964=CARTESIAN_POINT('',(-31.000000461936,53.0000007897616,2.));
#965=CARTESIAN_POINT('',(-33.500000461936,55.5000007897615,5.5));
#966=CARTESIAN_POINT('',(-15.500000230968,53.0000007897615,2.));
#967=CARTESIAN_POINT('Origin',(-32.250000461936,-26.5000003948808,3.75));
#968=CARTESIAN_POINT('',(-33.500000461936,-55.5000007897615,5.5));
#969=CARTESIAN_POINT('',(-33.500000461936,-26.5000003948808,5.5));
#970=CARTESIAN_POINT('',(-31.000000461936,-53.0000007897615,2.));
#971=CARTESIAN_POINT('',(-33.500000461936,-55.5000007897615,5.5));
#972=CARTESIAN_POINT('',(-31.000000461936,-26.5000003948808,2.));
#973=CARTESIAN_POINT('Origin',(15.500000230968,-54.2500007897615,3.75));
#974=CARTESIAN_POINT('',(15.500000230968,-53.0000007897615,2.));
#975=CARTESIAN_POINT('',(15.500000230968,-55.5000007897615,5.5));
#976=CARTESIAN_POINT('Origin',(0.,0.,5.5));
#977=CARTESIAN_POINT('',(35.0000005215406,57.0000008493662,5.5));
#978=CARTESIAN_POINT('',(35.0000005215406,57.0000008493662,5.5));
#979=CARTESIAN_POINT('',(-35.0000005215406,57.0000008493662,5.5));
#980=CARTESIAN_POINT('Origin',(5.155,-11.965,0.));
#981=CARTESIAN_POINT('',(-5.155,-11.965,2.));
#982=CARTESIAN_POINT('',(-5.155,-11.965,0.));
#983=CARTESIAN_POINT('',(5.155,-11.965,2.));
#984=CARTESIAN_POINT('',(-5.155,-11.965,2.));
#985=CARTESIAN_POINT('',(5.155,-11.965,0.));
#986=CARTESIAN_POINT('Origin',(5.155,11.965,0.));
#987=CARTESIAN_POINT('',(5.155,11.965,2.));
#988=CARTESIAN_POINT('',(5.155,0.,2.));
#989=CARTESIAN_POINT('',(5.155,11.965,0.));
#990=CARTESIAN_POINT('Origin',(-5.155,11.965,0.));
#991=CARTESIAN_POINT('',(-5.155,11.965,2.));
#992=CARTESIAN_POINT('',(5.155,11.965,2.));
#993=CARTESIAN_POINT('',(-5.155,11.965,0.));
#994=CARTESIAN_POINT('Origin',(-5.155,-11.965,0.));
#995=CARTESIAN_POINT('',(-5.155,0.,2.));
#996=CARTESIAN_POINT('Origin',(0.,0.,2.));
#997=CARTESIAN_POINT('',(18.5000003129244,-45.0000006705523,2.));
#998=CARTESIAN_POINT('Origin',(21.0000003129244,-45.0000006705523,2.));
#999=CARTESIAN_POINT('',(-23.5000003129244,45.0000006705523,2.));
#1000=CARTESIAN_POINT('Origin',(-21.0000003129244,45.0000006705523,2.));
#1001=CARTESIAN_POINT('',(18.5000003129244,45.0000006705523,2.));
#1002=CARTESIAN_POINT('Origin',(21.0000003129244,45.0000006705523,2.));
#1003=CARTESIAN_POINT('',(-23.5000003129244,-45.0000006705523,2.));
#1004=CARTESIAN_POINT('Origin',(-21.0000003129244,-45.0000006705523,2.));
#1005=CARTESIAN_POINT('',(-18.5000002384186,0.,2.));
#1006=CARTESIAN_POINT('Origin',(-16.0000002384186,0.,2.));
#1007=CARTESIAN_POINT('',(13.5000002384186,0.,2.));
#1008=CARTESIAN_POINT('Origin',(16.0000002384186,0.,2.));
#1009=CARTESIAN_POINT('Origin',(21.0000003129244,45.0000006705523,0.));
#1010=CARTESIAN_POINT('',(18.5000003129244,45.0000006705523,3.));
#1011=CARTESIAN_POINT('Origin',(21.0000003129244,45.0000006705523,3.));
#1012=CARTESIAN_POINT('',(18.5000003129244,45.0000006705523,0.));
#1013=CARTESIAN_POINT('Origin',(21.0000003129244,45.0000006705523,3.));
#1014=CARTESIAN_POINT('Origin',(-21.0000003129244,-45.0000006705523,0.));
#1015=CARTESIAN_POINT('',(-23.5000003129244,-45.0000006705523,3.));
#1016=CARTESIAN_POINT('Origin',(-21.0000003129244,-45.0000006705523,3.));
#1017=CARTESIAN_POINT('',(-23.5000003129244,-45.0000006705523,0.));
#1018=CARTESIAN_POINT('Origin',(-21.0000003129244,-45.0000006705523,3.));
#1019=CARTESIAN_POINT('Origin',(-16.0000002384186,0.,0.));
#1020=CARTESIAN_POINT('',(-18.5000002384186,-3.06161699786838E-16,3.));
#1021=CARTESIAN_POINT('Origin',(-16.0000002384186,0.,3.));
#1022=CARTESIAN_POINT('',(-18.5000002384186,-3.06161699786838E-16,0.));
#1023=CARTESIAN_POINT('Origin',(-16.0000002384186,0.,3.));
#1024=CARTESIAN_POINT('Origin',(35.0000005215406,57.0000008493662,0.));
#1025=CARTESIAN_POINT('',(35.0000005215406,57.0000008493662,0.));
#1026=CARTESIAN_POINT('Origin',(35.0000005215406,-57.0000008493662,0.));
#1027=CARTESIAN_POINT('Origin',(21.0000003129244,-45.0000006705523,0.));
#1028=CARTESIAN_POINT('',(18.5000003129244,-45.0000006705523,3.));
#1029=CARTESIAN_POINT('Origin',(21.0000003129244,-45.0000006705523,3.));
#1030=CARTESIAN_POINT('',(18.5000003129244,-45.0000006705523,0.));
#1031=CARTESIAN_POINT('Origin',(21.0000003129244,-45.0000006705523,3.));
#1032=CARTESIAN_POINT('Origin',(-21.0000003129244,45.0000006705523,0.));
#1033=CARTESIAN_POINT('',(-23.5000003129244,45.0000006705523,3.));
#1034=CARTESIAN_POINT('Origin',(-21.0000003129244,45.0000006705523,3.));
#1035=CARTESIAN_POINT('',(-23.5000003129244,45.0000006705523,0.));
#1036=CARTESIAN_POINT('Origin',(-21.0000003129244,45.0000006705523,3.));
#1037=CARTESIAN_POINT('Origin',(16.0000002384186,0.,0.));
#1038=CARTESIAN_POINT('',(13.5000002384186,-3.06161699786838E-16,3.));
#1039=CARTESIAN_POINT('Origin',(16.0000002384186,0.,3.));
#1040=CARTESIAN_POINT('',(13.5000002384186,-3.06161699786838E-16,0.));
#1041=CARTESIAN_POINT('Origin',(16.0000002384186,0.,3.));
#1042=UNCERTAINTY_MEASURE_WITH_UNIT(LENGTH_MEASURE(0.01),#1046,
'DISTANCE_ACCURACY_VALUE',
'Maximum model space distance between geometric entities at asserted c
onnectivities');
#1043=UNCERTAINTY_MEASURE_WITH_UNIT(LENGTH_MEASURE(0.01),#1046,
'DISTANCE_ACCURACY_VALUE',
'Maximum model space distance between geometric entities at asserted c
onnectivities');
#1044=(
GEOMETRIC_REPRESENTATION_CONTEXT(3)
GLOBAL_UNCERTAINTY_ASSIGNED_CONTEXT((#1042))
GLOBAL_UNIT_ASSIGNED_CONTEXT((#1046,#1048,#1049))
REPRESENTATION_CONTEXT('','3D')
);
#1045=(
GEOMETRIC_REPRESENTATION_CONTEXT(3)
GLOBAL_UNCERTAINTY_ASSIGNED_CONTEXT((#1043))
GLOBAL_UNIT_ASSIGNED_CONTEXT((#1046,#1048,#1049))
REPRESENTATION_CONTEXT('','3D')
);
#1046=(
LENGTH_UNIT()
NAMED_UNIT(*)
SI_UNIT(.MILLI.,.METRE.)
);
#1047=(
LENGTH_UNIT()
NAMED_UNIT(*)
SI_UNIT($,.METRE.)
);
#1048=(
NAMED_UNIT(*)
PLANE_ANGLE_UNIT()
SI_UNIT($,.RADIAN.)
);
#1049=(
NAMED_UNIT(*)
SI_UNIT($,.STERADIAN.)
SOLID_ANGLE_UNIT()
);
#1050=SHAPE_DEFINITION_REPRESENTATION(#1051,#1052);
#1051=PRODUCT_DEFINITION_SHAPE('',$,#1054);
#1052=SHAPE_REPRESENTATION('',(#632),#1044);
#1053=PRODUCT_DEFINITION_CONTEXT('part definition',#1058,'design');
#1054=PRODUCT_DEFINITION('Light Switch Plate','Light Switch Plate v1',#1055,
#1053);
#1055=PRODUCT_DEFINITION_FORMATION('',$,#1060);
#1056=PRODUCT_RELATED_PRODUCT_CATEGORY('Light Switch Plate v1',
'Light Switch Plate v1',(#1060));
#1057=APPLICATION_PROTOCOL_DEFINITION('international standard',
'automotive_design',2009,#1058);
#1058=APPLICATION_CONTEXT(
'Core Data for Automotive Mechanical Design Process');
#1059=PRODUCT_CONTEXT('part definition',#1058,'mechanical');
#1060=PRODUCT('Light Switch Plate','Light Switch Plate v1',$,(#1059));
#1061=PRESENTATION_STYLE_ASSIGNMENT((#1062));
#1062=SURFACE_STYLE_USAGE(.BOTH.,#1063);
#1063=SURFACE_SIDE_STYLE('',(#1064));
#1064=SURFACE_STYLE_FILL_AREA(#1065);
#1065=FILL_AREA_STYLE('Steel - Satin',(#1066));
#1066=FILL_AREA_STYLE_COLOUR('Steel - Satin',#1067);
#1067=COLOUR_RGB('Steel - Satin',0.627450980392157,0.627450980392157,0.627450980392157);
ENDSEC;
END-ISO-10303-21;
