ISO-10303-21;
HEADER;
/* Generated by software containing ST-Developer
 * from STEP Tools, Inc. (www.steptools.com) 
 */

FILE_DESCRIPTION(
/* description */ (''),
/* implementation_level */ '2;1');

FILE_NAME(
/* name */ 'fridge_drawer_support_v1.step',
/* time_stamp */ '2026-03-17T23:34:46-04:00',
/* author */ (''),
/* organization */ (''),
/* preprocessor_version */ 'ST-DEVELOPER v20.1',
/* originating_system */ 'Autodesk Translation Framework v14.24.0.0',
/* authorisation */ '');

FILE_SCHEMA (('AUTOMOTIVE_DESIGN { 1 0 10303 214 3 1 1 }'));
ENDSEC;

DATA;
#10=MECHANICAL_DESIGN_GEOMETRIC_PRESENTATION_REPRESENTATION('',(#13),#187);
#11=SHAPE_REPRESENTATION_RELATIONSHIP('SRR','None',#194,#12);
#12=ADVANCED_BREP_SHAPE_REPRESENTATION('',(#14),#186);
#13=STYLED_ITEM('',(#203),#14);
#14=MANIFOLD_SOLID_BREP('Body1',#103);
#15=PLANE('',#125);
#16=PLANE('',#126);
#17=FACE_OUTER_BOUND('',#23,.T.);
#18=FACE_OUTER_BOUND('',#24,.T.);
#19=FACE_OUTER_BOUND('',#25,.T.);
#20=FACE_OUTER_BOUND('',#26,.T.);
#21=FACE_OUTER_BOUND('',#27,.T.);
#22=FACE_OUTER_BOUND('',#28,.T.);
#23=EDGE_LOOP('',(#69,#70,#71,#72));
#24=EDGE_LOOP('',(#73,#74,#75,#76));
#25=EDGE_LOOP('',(#77,#78,#79,#80));
#26=EDGE_LOOP('',(#81,#82,#83,#84));
#27=EDGE_LOOP('',(#85,#86,#87,#88));
#28=EDGE_LOOP('',(#89,#90,#91,#92));
#29=ELLIPSE('',#118,2.82842712474619,2.);
#30=ELLIPSE('',#119,2.82842712474619,2.);
#31=ELLIPSE('',#121,2.82842712474619,2.);
#32=ELLIPSE('',#123,2.82842712474619,2.);
#33=LINE('',#161,#41);
#34=LINE('',#165,#42);
#35=LINE('',#169,#43);
#36=LINE('',#172,#44);
#37=LINE('',#175,#45);
#38=LINE('',#178,#46);
#39=LINE('',#180,#47);
#40=LINE('',#181,#48);
#41=VECTOR('',#131,10.);
#42=VECTOR('',#134,10.);
#43=VECTOR('',#139,10.);
#44=VECTOR('',#142,10.);
#45=VECTOR('',#145,10.);
#46=VECTOR('',#148,10.);
#47=VECTOR('',#151,10.);
#48=VECTOR('',#152,10.);
#49=VERTEX_POINT('',#159);
#50=VERTEX_POINT('',#160);
#51=VERTEX_POINT('',#162);
#52=VERTEX_POINT('',#164);
#53=VERTEX_POINT('',#168);
#54=VERTEX_POINT('',#170);
#55=VERTEX_POINT('',#174);
#56=VERTEX_POINT('',#176);
#57=EDGE_CURVE('',#49,#50,#33,.T.);
#58=EDGE_CURVE('',#50,#51,#29,.T.);
#59=EDGE_CURVE('',#51,#52,#34,.T.);
#60=EDGE_CURVE('',#49,#52,#30,.T.);
#61=EDGE_CURVE('',#50,#53,#35,.T.);
#62=EDGE_CURVE('',#53,#54,#31,.T.);
#63=EDGE_CURVE('',#54,#51,#36,.T.);
#64=EDGE_CURVE('',#53,#55,#37,.T.);
#65=EDGE_CURVE('',#55,#56,#32,.T.);
#66=EDGE_CURVE('',#56,#54,#38,.T.);
#67=EDGE_CURVE('',#52,#56,#39,.T.);
#68=EDGE_CURVE('',#55,#49,#40,.T.);
#69=ORIENTED_EDGE('',*,*,#57,.T.);
#70=ORIENTED_EDGE('',*,*,#58,.T.);
#71=ORIENTED_EDGE('',*,*,#59,.T.);
#72=ORIENTED_EDGE('',*,*,#60,.F.);
#73=ORIENTED_EDGE('',*,*,#61,.T.);
#74=ORIENTED_EDGE('',*,*,#62,.T.);
#75=ORIENTED_EDGE('',*,*,#63,.T.);
#76=ORIENTED_EDGE('',*,*,#58,.F.);
#77=ORIENTED_EDGE('',*,*,#64,.T.);
#78=ORIENTED_EDGE('',*,*,#65,.T.);
#79=ORIENTED_EDGE('',*,*,#66,.T.);
#80=ORIENTED_EDGE('',*,*,#62,.F.);
#81=ORIENTED_EDGE('',*,*,#67,.T.);
#82=ORIENTED_EDGE('',*,*,#65,.F.);
#83=ORIENTED_EDGE('',*,*,#68,.T.);
#84=ORIENTED_EDGE('',*,*,#60,.T.);
#85=ORIENTED_EDGE('',*,*,#57,.F.);
#86=ORIENTED_EDGE('',*,*,#68,.F.);
#87=ORIENTED_EDGE('',*,*,#64,.F.);
#88=ORIENTED_EDGE('',*,*,#61,.F.);
#89=ORIENTED_EDGE('',*,*,#66,.F.);
#90=ORIENTED_EDGE('',*,*,#67,.F.);
#91=ORIENTED_EDGE('',*,*,#59,.F.);
#92=ORIENTED_EDGE('',*,*,#63,.F.);
#93=CYLINDRICAL_SURFACE('',#117,2.);
#94=CYLINDRICAL_SURFACE('',#120,2.);
#95=CYLINDRICAL_SURFACE('',#122,2.);
#96=CYLINDRICAL_SURFACE('',#124,2.);
#97=ADVANCED_FACE('',(#17),#93,.T.);
#98=ADVANCED_FACE('',(#18),#94,.T.);
#99=ADVANCED_FACE('',(#19),#95,.T.);
#100=ADVANCED_FACE('',(#20),#96,.T.);
#101=ADVANCED_FACE('',(#21),#15,.T.);
#102=ADVANCED_FACE('',(#22),#16,.F.);
#103=CLOSED_SHELL('',(#97,#98,#99,#100,#101,#102));
#104=DERIVED_UNIT_ELEMENT(#106,1.);
#105=DERIVED_UNIT_ELEMENT(#189,-3.);
#106=(
MASS_UNIT()
NAMED_UNIT(*)
SI_UNIT(.KILO.,.GRAM.)
);
#107=DERIVED_UNIT((#104,#105));
#108=MEASURE_REPRESENTATION_ITEM('density measure',
POSITIVE_RATIO_MEASURE(1060.),#107);
#109=PROPERTY_DEFINITION_REPRESENTATION(#114,#111);
#110=PROPERTY_DEFINITION_REPRESENTATION(#115,#112);
#111=REPRESENTATION('material name',(#113),#186);
#112=REPRESENTATION('density',(#108),#186);
#113=DESCRIPTIVE_REPRESENTATION_ITEM('ABS Plastic','ABS Plastic');
#114=PROPERTY_DEFINITION('material property','material name',#196);
#115=PROPERTY_DEFINITION('material property','density of part',#196);
#116=AXIS2_PLACEMENT_3D('',#157,#127,#128);
#117=AXIS2_PLACEMENT_3D('',#158,#129,#130);
#118=AXIS2_PLACEMENT_3D('',#163,#132,#133);
#119=AXIS2_PLACEMENT_3D('',#166,#135,#136);
#120=AXIS2_PLACEMENT_3D('',#167,#137,#138);
#121=AXIS2_PLACEMENT_3D('',#171,#140,#141);
#122=AXIS2_PLACEMENT_3D('',#173,#143,#144);
#123=AXIS2_PLACEMENT_3D('',#177,#146,#147);
#124=AXIS2_PLACEMENT_3D('',#179,#149,#150);
#125=AXIS2_PLACEMENT_3D('',#182,#153,#154);
#126=AXIS2_PLACEMENT_3D('',#183,#155,#156);
#127=DIRECTION('axis',(0.,0.,1.));
#128=DIRECTION('refdir',(1.,0.,0.));
#129=DIRECTION('center_axis',(0.,1.,0.));
#130=DIRECTION('ref_axis',(0.70710678118654,0.,0.707106781186555));
#131=DIRECTION('',(0.,-1.,0.));
#132=DIRECTION('center_axis',(0.707106781186549,0.707106781186546,0.));
#133=DIRECTION('ref_axis',(0.707106781186546,-0.707106781186549,0.));
#134=DIRECTION('',(0.,1.,0.));
#135=DIRECTION('center_axis',(-0.707106781186549,0.707106781186546,0.));
#136=DIRECTION('ref_axis',(0.707106781186546,0.707106781186549,0.));
#137=DIRECTION('center_axis',(1.,0.,0.));
#138=DIRECTION('ref_axis',(0.,-0.707106781186548,0.707106781186548));
#139=DIRECTION('',(-1.,0.,0.));
#140=DIRECTION('center_axis',(0.707106781186547,-0.707106781186548,-1.96261557335472E-16));
#141=DIRECTION('ref_axis',(-0.707106781186548,-0.707106781186547,-1.96261557335472E-16));
#142=DIRECTION('',(1.,0.,0.));
#143=DIRECTION('center_axis',(0.,-1.,0.));
#144=DIRECTION('ref_axis',(-0.707106781186548,0.,0.707106781186547));
#145=DIRECTION('',(0.,1.,0.));
#146=DIRECTION('center_axis',(-0.707106781186547,-0.707106781186548,-3.14018491736755E-15));
#147=DIRECTION('ref_axis',(-0.707106781186548,0.707106781186547,-3.14018491736755E-15));
#148=DIRECTION('',(0.,-1.,0.));
#149=DIRECTION('center_axis',(-1.,0.,0.));
#150=DIRECTION('ref_axis',(0.,0.707106781186548,0.707106781186547));
#151=DIRECTION('',(-1.,0.,0.));
#152=DIRECTION('',(1.,0.,0.));
#153=DIRECTION('center_axis',(0.,0.,1.));
#154=DIRECTION('ref_axis',(1.,0.,0.));
#155=DIRECTION('center_axis',(0.,0.,1.));
#156=DIRECTION('ref_axis',(1.,0.,0.));
#157=CARTESIAN_POINT('',(0.,0.,0.));
#158=CARTESIAN_POINT('Origin',(226.,4.5,0.));
#159=CARTESIAN_POINT('',(226.,16.,2.));
#160=CARTESIAN_POINT('',(226.,2.,2.));
#161=CARTESIAN_POINT('',(226.,4.5,2.));
#162=CARTESIAN_POINT('',(228.,0.,0.));
#163=CARTESIAN_POINT('Origin',(226.,2.,0.));
#164=CARTESIAN_POINT('',(228.,18.,0.));
#165=CARTESIAN_POINT('',(228.,0.,0.));
#166=CARTESIAN_POINT('Origin',(226.,16.,0.));
#167=CARTESIAN_POINT('Origin',(57.,2.,0.));
#168=CARTESIAN_POINT('',(2.,2.,2.));
#169=CARTESIAN_POINT('',(57.,2.,2.));
#170=CARTESIAN_POINT('',(0.,0.,0.));
#171=CARTESIAN_POINT('Origin',(2.,2.,0.));
#172=CARTESIAN_POINT('',(0.,0.,0.));
#173=CARTESIAN_POINT('Origin',(2.,13.5,0.));
#174=CARTESIAN_POINT('',(1.99999999999999,16.,2.));
#175=CARTESIAN_POINT('',(2.,13.5,2.));
#176=CARTESIAN_POINT('',(0.,18.,0.));
#177=CARTESIAN_POINT('Origin',(2.,16.,0.));
#178=CARTESIAN_POINT('',(0.,18.,0.));
#179=CARTESIAN_POINT('Origin',(171.,16.,0.));
#180=CARTESIAN_POINT('',(228.,18.,0.));
#181=CARTESIAN_POINT('',(171.,16.,2.));
#182=CARTESIAN_POINT('Origin',(114.,9.,2.));
#183=CARTESIAN_POINT('Origin',(114.,9.,0.));
#184=UNCERTAINTY_MEASURE_WITH_UNIT(LENGTH_MEASURE(0.01),#188,
'DISTANCE_ACCURACY_VALUE',
'Maximum model space distance between geometric entities at asserted c
onnectivities');
#185=UNCERTAINTY_MEASURE_WITH_UNIT(LENGTH_MEASURE(0.01),#188,
'DISTANCE_ACCURACY_VALUE',
'Maximum model space distance between geometric entities at asserted c
onnectivities');
#186=(
GEOMETRIC_REPRESENTATION_CONTEXT(3)
GLOBAL_UNCERTAINTY_ASSIGNED_CONTEXT((#184))
GLOBAL_UNIT_ASSIGNED_CONTEXT((#188,#190,#191))
REPRESENTATION_CONTEXT('','3D')
);
#187=(
GEOMETRIC_REPRESENTATION_CONTEXT(3)
GLOBAL_UNCERTAINTY_ASSIGNED_CONTEXT((#185))
GLOBAL_UNIT_ASSIGNED_CONTEXT((#188,#190,#191))
REPRESENTATION_CONTEXT('','3D')
);
#188=(
LENGTH_UNIT()
NAMED_UNIT(*)
SI_UNIT(.MILLI.,.METRE.)
);
#189=(
LENGTH_UNIT()
NAMED_UNIT(*)
SI_UNIT($,.METRE.)
);
#190=(
NAMED_UNIT(*)
PLANE_ANGLE_UNIT()
SI_UNIT($,.RADIAN.)
);
#191=(
NAMED_UNIT(*)
SI_UNIT($,.STERADIAN.)
SOLID_ANGLE_UNIT()
);
#192=SHAPE_DEFINITION_REPRESENTATION(#193,#194);
#193=PRODUCT_DEFINITION_SHAPE('',$,#196);
#194=SHAPE_REPRESENTATION('',(#116),#186);
#195=PRODUCT_DEFINITION_CONTEXT('part definition',#200,'design');
#196=PRODUCT_DEFINITION('fridge_drawer_support',
'fridge_drawer_support v1',#197,#195);
#197=PRODUCT_DEFINITION_FORMATION('',$,#202);
#198=PRODUCT_RELATED_PRODUCT_CATEGORY('fridge_drawer_support v1',
'fridge_drawer_support v1',(#202));
#199=APPLICATION_PROTOCOL_DEFINITION('international standard',
'automotive_design',2009,#200);
#200=APPLICATION_CONTEXT(
'Core Data for Automotive Mechanical Design Process');
#201=PRODUCT_CONTEXT('part definition',#200,'mechanical');
#202=PRODUCT('fridge_drawer_support','fridge_drawer_support v1',$,(#201));
#203=PRESENTATION_STYLE_ASSIGNMENT((#204));
#204=SURFACE_STYLE_USAGE(.BOTH.,#205);
#205=SURFACE_SIDE_STYLE('',(#206));
#206=SURFACE_STYLE_FILL_AREA(#207);
#207=FILL_AREA_STYLE('Plastic - Matte (Gray)',(#208));
#208=FILL_AREA_STYLE_COLOUR('Plastic - Matte (Gray)',#209);
#209=COLOUR_RGB('Plastic - Matte (Gray)',0.701960784313725,0.701960784313725,
0.701960784313725);
ENDSEC;
END-ISO-10303-21;
