ISO-10303-21;
HEADER;
/* Generated by software containing ST-Developer
 * from STEP Tools, Inc. (www.steptools.com) 
 */

FILE_DESCRIPTION(
/* description */ (''),
/* implementation_level */ '2;1');

FILE_NAME(
/* name */ 'popup_key_holder_v7.step',
/* time_stamp */ '2026-03-17T23:35:23-04:00',
/* author */ (''),
/* organization */ (''),
/* preprocessor_version */ 'ST-DEVELOPER v20.1',
/* originating_system */ 'Autodesk Translation Framework v14.24.0.0',
/* authorisation */ '');

FILE_SCHEMA (('AUTOMOTIVE_DESIGN { 1 0 10303 214 3 1 1 }'));
ENDSEC;

DATA;
#10=MECHANICAL_DESIGN_GEOMETRIC_PRESENTATION_REPRESENTATION('',(#40,#41,
#42,#43,#44,#45,#46),#1811);
#11=ITEM_DEFINED_TRANSFORMATION($,$,#1060,#1170);
#12=ITEM_DEFINED_TRANSFORMATION($,$,#1085,#1171);
#13=ITEM_DEFINED_TRANSFORMATION($,$,#1120,#1172);
#14=ITEM_DEFINED_TRANSFORMATION($,$,#1142,#1173);
#15=(
REPRESENTATION_RELATIONSHIP($,$,#1831,#1830)
REPRESENTATION_RELATIONSHIP_WITH_TRANSFORMATION(#11)
SHAPE_REPRESENTATION_RELATIONSHIP()
);
#16=(
REPRESENTATION_RELATIONSHIP($,$,#1832,#1830)
REPRESENTATION_RELATIONSHIP_WITH_TRANSFORMATION(#12)
SHAPE_REPRESENTATION_RELATIONSHIP()
);
#17=(
REPRESENTATION_RELATIONSHIP($,$,#1833,#1830)
REPRESENTATION_RELATIONSHIP_WITH_TRANSFORMATION(#13)
SHAPE_REPRESENTATION_RELATIONSHIP()
);
#18=(
REPRESENTATION_RELATIONSHIP($,$,#1834,#1830)
REPRESENTATION_RELATIONSHIP_WITH_TRANSFORMATION(#14)
SHAPE_REPRESENTATION_RELATIONSHIP()
);
#19=CONTEXT_DEPENDENT_SHAPE_REPRESENTATION(#15,#1826);
#20=CONTEXT_DEPENDENT_SHAPE_REPRESENTATION(#16,#1827);
#21=CONTEXT_DEPENDENT_SHAPE_REPRESENTATION(#17,#1828);
#22=CONTEXT_DEPENDENT_SHAPE_REPRESENTATION(#18,#1829);
#23=NEXT_ASSEMBLY_USAGE_OCCURRENCE('base:1','base:1','base:1',#1836,#1837,
'base:1');
#24=NEXT_ASSEMBLY_USAGE_OCCURRENCE('slider:1','slider:1','slider:1',#1836,
#1838,'slider:1');
#25=NEXT_ASSEMBLY_USAGE_OCCURRENCE('arm(Mirror) (1):1',
'arm(Mirror) (1):1','arm(Mirror) (1):1',#1836,#1839,'arm(Mirror) (1):1');
#26=NEXT_ASSEMBLY_USAGE_OCCURRENCE('arm(Mirror) (1)(Mirror):1',
'arm(Mirror) (1)(Mirror):1','arm(Mirror) (1)(Mirror):1',#1836,#1840,
'arm(Mirror) (1)(Mirror):1');
#27=TOROIDAL_SURFACE('',#1094,6.,3.);
#28=TOROIDAL_SURFACE('',#1117,12.,3.);
#29=(
BOUNDED_SURFACE()
B_SPLINE_SURFACE(2,2,((#1547,#1548,#1549,#1550,#1551,#1552,#1553,#1554,
#1555),(#1556,#1557,#1558,#1559,#1560,#1561,#1562,#1563,#1564),(#1565,#1566,
#1567,#1568,#1569,#1570,#1571,#1572,#1573)),.UNSPECIFIED.,.F.,.T.,.F.)
B_SPLINE_SURFACE_WITH_KNOTS((3,3),(3,2,2,2,3),(0.87001204209532,1.54362269847518),
(-3.14159265358979,-1.5707963267949,0.,1.5707963267949,3.14159265358979),
 .UNSPECIFIED.)
GEOMETRIC_REPRESENTATION_ITEM()
RATIONAL_B_SPLINE_SURFACE(((1.,0.707106781186548,1.,0.707106781186548,1.,
0.707106781186548,1.,0.707106781186548,1.),(0.943815234689413,0.667378152636057,
0.943815234689413,0.667378152636057,0.943815234689413,0.667378152636057,
0.943815234689413,0.667378152636057,0.943815234689413),(1.,0.707106781186548,
1.,0.707106781186548,1.,0.707106781186548,1.,0.707106781186548,1.)))
REPRESENTATION_ITEM('')
SURFACE()
);
#30=SHAPE_REPRESENTATION_RELATIONSHIP('SRR','None',#1831,#35);
#31=SHAPE_REPRESENTATION_RELATIONSHIP('SRR','None',#1832,#36);
#32=SHAPE_REPRESENTATION_RELATIONSHIP('SRR','None',#1833,#37);
#33=SHAPE_REPRESENTATION_RELATIONSHIP('SRR','None',#1834,#38);
#34=SHAPE_REPRESENTATION_RELATIONSHIP('SRR','None',#1830,#39);
#35=ADVANCED_BREP_SHAPE_REPRESENTATION('',(#47,#48,#49),#1807);
#36=ADVANCED_BREP_SHAPE_REPRESENTATION('',(#50),#1808);
#37=ADVANCED_BREP_SHAPE_REPRESENTATION('',(#51),#1809);
#38=ADVANCED_BREP_SHAPE_REPRESENTATION('',(#52),#1810);
#39=ADVANCED_BREP_SHAPE_REPRESENTATION('',(#53),#1806);
#40=STYLED_ITEM('',(#1860),#47);
#41=STYLED_ITEM('',(#1859),#48);
#42=STYLED_ITEM('',(#1859),#49);
#43=STYLED_ITEM('',(#1861),#50);
#44=STYLED_ITEM('',(#1859),#51);
#45=STYLED_ITEM('',(#1859),#52);
#46=STYLED_ITEM('',(#1859),#53);
#47=MANIFOLD_SOLID_BREP('rod',#1007);
#48=MANIFOLD_SOLID_BREP('arm_rod',#1008);
#49=MANIFOLD_SOLID_BREP('arm_rod (1)',#1009);
#50=MANIFOLD_SOLID_BREP('slider',#1010);
#51=MANIFOLD_SOLID_BREP('arm',#1011);
#52=MANIFOLD_SOLID_BREP('arm',#1012);
#53=MANIFOLD_SOLID_BREP('Body10',#1013);
#54=LINE('',#1498,#138);
#55=LINE('',#1503,#139);
#56=LINE('',#1505,#140);
#57=LINE('',#1507,#141);
#58=LINE('',#1508,#142);
#59=LINE('',#1511,#143);
#60=LINE('',#1513,#144);
#61=LINE('',#1514,#145);
#62=LINE('',#1517,#146);
#63=LINE('',#1519,#147);
#64=LINE('',#1520,#148);
#65=LINE('',#1522,#149);
#66=LINE('',#1523,#150);
#67=LINE('',#1528,#151);
#68=LINE('',#1536,#152);
#69=LINE('',#1544,#153);
#70=LINE('',#1585,#154);
#71=LINE('',#1600,#155);
#72=LINE('',#1609,#156);
#73=LINE('',#1615,#157);
#74=LINE('',#1624,#158);
#75=LINE('',#1631,#159);
#76=LINE('',#1638,#160);
#77=LINE('',#1641,#161);
#78=LINE('',#1644,#162);
#79=LINE('',#1646,#163);
#80=LINE('',#1647,#164);
#81=LINE('',#1650,#165);
#82=LINE('',#1654,#166);
#83=LINE('',#1656,#167);
#84=LINE('',#1658,#168);
#85=LINE('',#1660,#169);
#86=LINE('',#1662,#170);
#87=LINE('',#1670,#171);
#88=LINE('',#1671,#172);
#89=LINE('',#1674,#173);
#90=LINE('',#1675,#174);
#91=LINE('',#1677,#175);
#92=LINE('',#1682,#176);
#93=LINE('',#1684,#177);
#94=LINE('',#1686,#178);
#95=LINE('',#1687,#179);
#96=LINE('',#1691,#180);
#97=LINE('',#1693,#181);
#98=LINE('',#1694,#182);
#99=LINE('',#1696,#183);
#100=LINE('',#1699,#184);
#101=LINE('',#1707,#185);
#102=LINE('',#1710,#186);
#103=LINE('',#1713,#187);
#104=LINE('',#1715,#188);
#105=LINE('',#1716,#189);
#106=LINE('',#1719,#190);
#107=LINE('',#1721,#191);
#108=LINE('',#1723,#192);
#109=LINE('',#1725,#193);
#110=LINE('',#1727,#194);
#111=LINE('',#1731,#195);
#112=LINE('',#1737,#196);
#113=LINE('',#1738,#197);
#114=LINE('',#1742,#198);
#115=LINE('',#1745,#199);
#116=LINE('',#1746,#200);
#117=LINE('',#1750,#201);
#118=LINE('',#1753,#202);
#119=LINE('',#1754,#203);
#120=LINE('',#1757,#204);
#121=LINE('',#1759,#205);
#122=LINE('',#1760,#206);
#123=LINE('',#1764,#207);
#124=LINE('',#1766,#208);
#125=LINE('',#1768,#209);
#126=LINE('',#1773,#210);
#127=LINE('',#1775,#211);
#128=LINE('',#1777,#212);
#129=LINE('',#1778,#213);
#130=LINE('',#1781,#214);
#131=LINE('',#1783,#215);
#132=LINE('',#1784,#216);
#133=LINE('',#1787,#217);
#134=LINE('',#1789,#218);
#135=LINE('',#1790,#219);
#136=LINE('',#1792,#220);
#137=LINE('',#1793,#221);
#138=VECTOR('',#1188,5.);
#139=VECTOR('',#1193,10.);
#140=VECTOR('',#1194,10.);
#141=VECTOR('',#1195,10.);
#142=VECTOR('',#1196,10.);
#143=VECTOR('',#1199,10.);
#144=VECTOR('',#1200,10.);
#145=VECTOR('',#1201,10.);
#146=VECTOR('',#1204,10.);
#147=VECTOR('',#1205,10.);
#148=VECTOR('',#1206,10.);
#149=VECTOR('',#1209,10.);
#150=VECTOR('',#1210,10.);
#151=VECTOR('',#1217,2.5);
#152=VECTOR('',#1228,1.5);
#153=VECTOR('',#1239,1.5);
#154=VECTOR('',#1256,20.);
#155=VECTOR('',#1275,10.0000000000001);
#156=VECTOR('',#1286,4.5);
#157=VECTOR('',#1295,4.5);
#158=VECTOR('',#1306,9.45345659007889);
#159=VECTOR('',#1317,4.);
#160=VECTOR('',#1324,10.);
#161=VECTOR('',#1327,10.);
#162=VECTOR('',#1330,10.);
#163=VECTOR('',#1331,10.);
#164=VECTOR('',#1332,10.);
#165=VECTOR('',#1335,10.);
#166=VECTOR('',#1338,10.);
#167=VECTOR('',#1339,10.);
#168=VECTOR('',#1340,10.);
#169=VECTOR('',#1341,10.);
#170=VECTOR('',#1342,10.);
#171=VECTOR('',#1351,10.);
#172=VECTOR('',#1352,10.);
#173=VECTOR('',#1355,10.);
#174=VECTOR('',#1356,10.);
#175=VECTOR('',#1359,10.);
#176=VECTOR('',#1364,10.);
#177=VECTOR('',#1365,10.);
#178=VECTOR('',#1366,10.);
#179=VECTOR('',#1367,10.);
#180=VECTOR('',#1372,2.5);
#181=VECTOR('',#1375,10.);
#182=VECTOR('',#1376,10.);
#183=VECTOR('',#1379,10.);
#184=VECTOR('',#1384,10.);
#185=VECTOR('',#1393,10.);
#186=VECTOR('',#1396,10.);
#187=VECTOR('',#1399,10.);
#188=VECTOR('',#1400,10.);
#189=VECTOR('',#1401,10.);
#190=VECTOR('',#1404,10.);
#191=VECTOR('',#1405,10.);
#192=VECTOR('',#1406,10.);
#193=VECTOR('',#1407,10.);
#194=VECTOR('',#1408,10.);
#195=VECTOR('',#1411,10.);
#196=VECTOR('',#1418,10.);
#197=VECTOR('',#1419,10.);
#198=VECTOR('',#1424,10.);
#199=VECTOR('',#1427,10.);
#200=VECTOR('',#1428,10.);
#201=VECTOR('',#1433,10.);
#202=VECTOR('',#1436,10.);
#203=VECTOR('',#1437,10.);
#204=VECTOR('',#1440,10.);
#205=VECTOR('',#1441,10.);
#206=VECTOR('',#1442,10.);
#207=VECTOR('',#1447,2.5);
#208=VECTOR('',#1450,10.);
#209=VECTOR('',#1453,10.);
#210=VECTOR('',#1458,10.);
#211=VECTOR('',#1459,10.);
#212=VECTOR('',#1460,10.);
#213=VECTOR('',#1461,10.);
#214=VECTOR('',#1464,10.);
#215=VECTOR('',#1465,10.);
#216=VECTOR('',#1466,10.);
#217=VECTOR('',#1469,10.);
#218=VECTOR('',#1470,10.);
#219=VECTOR('',#1471,10.);
#220=VECTOR('',#1474,10.);
#221=VECTOR('',#1475,10.);
#222=CYLINDRICAL_SURFACE('',#1064,5.);
#223=CYLINDRICAL_SURFACE('',#1073,2.5);
#224=CYLINDRICAL_SURFACE('',#1077,1.5);
#225=CYLINDRICAL_SURFACE('',#1082,1.5);
#226=CYLINDRICAL_SURFACE('',#1091,15.);
#227=CYLINDRICAL_SURFACE('',#1099,9.);
#228=CYLINDRICAL_SURFACE('',#1105,4.5);
#229=CYLINDRICAL_SURFACE('',#1109,4.5);
#230=CYLINDRICAL_SURFACE('',#1113,9.45345659007889);
#231=CYLINDRICAL_SURFACE('',#1119,3.);
#232=CYLINDRICAL_SURFACE('',#1121,1.);
#233=CYLINDRICAL_SURFACE('',#1129,1.);
#234=CYLINDRICAL_SURFACE('',#1136,2.5);
#235=CYLINDRICAL_SURFACE('',#1140,4.49999999999842);
#236=CYLINDRICAL_SURFACE('',#1143,6.);
#237=CYLINDRICAL_SURFACE('',#1152,1.);
#238=CYLINDRICAL_SURFACE('',#1155,1.);
#239=CYLINDRICAL_SURFACE('',#1160,2.5);
#240=FACE_BOUND('',#314,.T.);
#241=FACE_BOUND('',#322,.T.);
#242=FACE_BOUND('',#336,.T.);
#243=FACE_BOUND('',#338,.T.);
#244=FACE_BOUND('',#341,.T.);
#245=FACE_BOUND('',#344,.T.);
#246=FACE_BOUND('',#347,.T.);
#247=FACE_BOUND('',#353,.T.);
#248=FACE_BOUND('',#358,.T.);
#249=FACE_BOUND('',#368,.T.);
#250=FACE_BOUND('',#375,.T.);
#251=FACE_OUTER_BOUND('',#313,.T.);
#252=FACE_OUTER_BOUND('',#315,.T.);
#253=FACE_OUTER_BOUND('',#316,.T.);
#254=FACE_OUTER_BOUND('',#317,.T.);
#255=FACE_OUTER_BOUND('',#318,.T.);
#256=FACE_OUTER_BOUND('',#319,.T.);
#257=FACE_OUTER_BOUND('',#320,.T.);
#258=FACE_OUTER_BOUND('',#321,.T.);
#259=FACE_OUTER_BOUND('',#323,.T.);
#260=FACE_OUTER_BOUND('',#324,.T.);
#261=FACE_OUTER_BOUND('',#325,.T.);
#262=FACE_OUTER_BOUND('',#326,.T.);
#263=FACE_OUTER_BOUND('',#327,.T.);
#264=FACE_OUTER_BOUND('',#328,.T.);
#265=FACE_OUTER_BOUND('',#329,.T.);
#266=FACE_OUTER_BOUND('',#330,.T.);
#267=FACE_OUTER_BOUND('',#331,.T.);
#268=FACE_OUTER_BOUND('',#332,.T.);
#269=FACE_OUTER_BOUND('',#333,.T.);
#270=FACE_OUTER_BOUND('',#334,.T.);
#271=FACE_OUTER_BOUND('',#335,.T.);
#272=FACE_OUTER_BOUND('',#337,.T.);
#273=FACE_OUTER_BOUND('',#339,.T.);
#274=FACE_OUTER_BOUND('',#340,.T.);
#275=FACE_OUTER_BOUND('',#342,.T.);
#276=FACE_OUTER_BOUND('',#343,.T.);
#277=FACE_OUTER_BOUND('',#345,.T.);
#278=FACE_OUTER_BOUND('',#346,.T.);
#279=FACE_OUTER_BOUND('',#348,.T.);
#280=FACE_OUTER_BOUND('',#349,.T.);
#281=FACE_OUTER_BOUND('',#350,.T.);
#282=FACE_OUTER_BOUND('',#351,.T.);
#283=FACE_OUTER_BOUND('',#352,.T.);
#284=FACE_OUTER_BOUND('',#354,.T.);
#285=FACE_OUTER_BOUND('',#355,.T.);
#286=FACE_OUTER_BOUND('',#356,.T.);
#287=FACE_OUTER_BOUND('',#357,.T.);
#288=FACE_OUTER_BOUND('',#359,.T.);
#289=FACE_OUTER_BOUND('',#360,.T.);
#290=FACE_OUTER_BOUND('',#361,.T.);
#291=FACE_OUTER_BOUND('',#362,.T.);
#292=FACE_OUTER_BOUND('',#363,.T.);
#293=FACE_OUTER_BOUND('',#364,.T.);
#294=FACE_OUTER_BOUND('',#365,.T.);
#295=FACE_OUTER_BOUND('',#366,.T.);
#296=FACE_OUTER_BOUND('',#367,.T.);
#297=FACE_OUTER_BOUND('',#369,.T.);
#298=FACE_OUTER_BOUND('',#370,.T.);
#299=FACE_OUTER_BOUND('',#371,.T.);
#300=FACE_OUTER_BOUND('',#372,.T.);
#301=FACE_OUTER_BOUND('',#373,.T.);
#302=FACE_OUTER_BOUND('',#374,.T.);
#303=FACE_OUTER_BOUND('',#376,.T.);
#304=FACE_OUTER_BOUND('',#377,.T.);
#305=FACE_OUTER_BOUND('',#378,.T.);
#306=FACE_OUTER_BOUND('',#379,.T.);
#307=FACE_OUTER_BOUND('',#380,.T.);
#308=FACE_OUTER_BOUND('',#381,.T.);
#309=FACE_OUTER_BOUND('',#382,.T.);
#310=FACE_OUTER_BOUND('',#383,.T.);
#311=FACE_OUTER_BOUND('',#384,.T.);
#312=FACE_OUTER_BOUND('',#385,.T.);
#313=EDGE_LOOP('',(#646));
#314=EDGE_LOOP('',(#647));
#315=EDGE_LOOP('',(#648,#649,#650,#651));
#316=EDGE_LOOP('',(#652));
#317=EDGE_LOOP('',(#653,#654,#655,#656));
#318=EDGE_LOOP('',(#657,#658,#659,#660));
#319=EDGE_LOOP('',(#661,#662,#663,#664));
#320=EDGE_LOOP('',(#665,#666,#667,#668));
#321=EDGE_LOOP('',(#669,#670,#671,#672));
#322=EDGE_LOOP('',(#673));
#323=EDGE_LOOP('',(#674,#675,#676,#677));
#324=EDGE_LOOP('',(#678,#679,#680,#681));
#325=EDGE_LOOP('',(#682));
#326=EDGE_LOOP('',(#683,#684,#685,#686));
#327=EDGE_LOOP('',(#687));
#328=EDGE_LOOP('',(#688));
#329=EDGE_LOOP('',(#689,#690,#691,#692));
#330=EDGE_LOOP('',(#693));
#331=EDGE_LOOP('',(#694,#695,#696,#697,#698,#699));
#332=EDGE_LOOP('',(#700,#701,#702,#703,#704,#705));
#333=EDGE_LOOP('',(#706,#707,#708,#709,#710));
#334=EDGE_LOOP('',(#711,#712,#713,#714,#715));
#335=EDGE_LOOP('',(#716));
#336=EDGE_LOOP('',(#717));
#337=EDGE_LOOP('',(#718));
#338=EDGE_LOOP('',(#719));
#339=EDGE_LOOP('',(#720,#721,#722,#723));
#340=EDGE_LOOP('',(#724));
#341=EDGE_LOOP('',(#725));
#342=EDGE_LOOP('',(#726,#727,#728,#729,#730));
#343=EDGE_LOOP('',(#731));
#344=EDGE_LOOP('',(#732));
#345=EDGE_LOOP('',(#733,#734,#735,#736));
#346=EDGE_LOOP('',(#737));
#347=EDGE_LOOP('',(#738));
#348=EDGE_LOOP('',(#739,#740,#741,#742,#743));
#349=EDGE_LOOP('',(#744,#745,#746,#747));
#350=EDGE_LOOP('',(#748,#749,#750,#751));
#351=EDGE_LOOP('',(#752,#753,#754,#755));
#352=EDGE_LOOP('',(#756,#757,#758,#759,#760,#761,#762,#763,#764,#765));
#353=EDGE_LOOP('',(#766));
#354=EDGE_LOOP('',(#767,#768,#769,#770));
#355=EDGE_LOOP('',(#771,#772,#773,#774));
#356=EDGE_LOOP('',(#775,#776,#777,#778));
#357=EDGE_LOOP('',(#779,#780,#781,#782,#783,#784,#785,#786,#787,#788));
#358=EDGE_LOOP('',(#789));
#359=EDGE_LOOP('',(#790,#791,#792,#793));
#360=EDGE_LOOP('',(#794,#795,#796,#797));
#361=EDGE_LOOP('',(#798,#799,#800,#801));
#362=EDGE_LOOP('',(#802,#803,#804,#805));
#363=EDGE_LOOP('',(#806,#807,#808,#809));
#364=EDGE_LOOP('',(#810,#811,#812,#813));
#365=EDGE_LOOP('',(#814,#815,#816,#817));
#366=EDGE_LOOP('',(#818,#819,#820,#821));
#367=EDGE_LOOP('',(#822,#823,#824,#825,#826,#827,#828,#829,#830,#831));
#368=EDGE_LOOP('',(#832));
#369=EDGE_LOOP('',(#833,#834,#835,#836));
#370=EDGE_LOOP('',(#837,#838,#839,#840));
#371=EDGE_LOOP('',(#841,#842,#843,#844));
#372=EDGE_LOOP('',(#845,#846,#847,#848));
#373=EDGE_LOOP('',(#849,#850,#851,#852));
#374=EDGE_LOOP('',(#853,#854,#855,#856,#857,#858,#859,#860,#861,#862));
#375=EDGE_LOOP('',(#863));
#376=EDGE_LOOP('',(#864,#865,#866,#867));
#377=EDGE_LOOP('',(#868,#869,#870,#871));
#378=EDGE_LOOP('',(#872,#873,#874,#875));
#379=EDGE_LOOP('',(#876,#877,#878,#879));
#380=EDGE_LOOP('',(#880,#881,#882,#883));
#381=EDGE_LOOP('',(#884,#885,#886,#887));
#382=EDGE_LOOP('',(#888,#889,#890,#891));
#383=EDGE_LOOP('',(#892,#893,#894,#895));
#384=EDGE_LOOP('',(#896,#897,#898,#899));
#385=EDGE_LOOP('',(#900,#901,#902,#903));
#386=CIRCLE('',#1062,5.);
#387=CIRCLE('',#1063,2.5);
#388=CIRCLE('',#1065,5.);
#389=CIRCLE('',#1072,2.5);
#390=CIRCLE('',#1076,1.5);
#391=CIRCLE('',#1078,1.5);
#392=CIRCLE('',#1081,1.5);
#393=CIRCLE('',#1083,1.5);
#394=CIRCLE('',#1086,4.5);
#395=CIRCLE('',#1087,4.5);
#396=CIRCLE('',#1088,17.);
#397=CIRCLE('',#1089,15.);
#398=CIRCLE('',#1090,15.);
#399=CIRCLE('',#1092,15.);
#400=CIRCLE('',#1093,15.);
#401=CIRCLE('',#1095,6.);
#402=CIRCLE('',#1096,3.);
#403=CIRCLE('',#1097,9.);
#404=CIRCLE('',#1098,9.);
#405=CIRCLE('',#1100,9.);
#406=CIRCLE('',#1102,4.5);
#407=CIRCLE('',#1104,4.5);
#408=CIRCLE('',#1106,4.5);
#409=CIRCLE('',#1108,2.99999999999993);
#410=CIRCLE('',#1111,9.45345659007889);
#411=CIRCLE('',#1112,3.);
#412=CIRCLE('',#1114,9.45345659007889);
#413=CIRCLE('',#1116,12.);
#414=CIRCLE('',#1118,3.);
#415=CIRCLE('',#1122,1.);
#416=CIRCLE('',#1123,1.);
#417=CIRCLE('',#1126,1.);
#418=CIRCLE('',#1127,4.49999999999842);
#419=CIRCLE('',#1128,2.5);
#420=CIRCLE('',#1130,1.);
#421=CIRCLE('',#1134,4.49999999999842);
#422=CIRCLE('',#1135,2.5);
#423=CIRCLE('',#1144,6.);
#424=CIRCLE('',#1145,6.);
#425=CIRCLE('',#1148,1.);
#426=CIRCLE('',#1149,1.);
#427=CIRCLE('',#1150,2.5);
#428=CIRCLE('',#1153,1.);
#429=CIRCLE('',#1156,1.);
#430=CIRCLE('',#1159,2.5);
#431=VERTEX_POINT('',#1491);
#432=VERTEX_POINT('',#1493);
#433=VERTEX_POINT('',#1496);
#434=VERTEX_POINT('',#1501);
#435=VERTEX_POINT('',#1502);
#436=VERTEX_POINT('',#1504);
#437=VERTEX_POINT('',#1506);
#438=VERTEX_POINT('',#1510);
#439=VERTEX_POINT('',#1512);
#440=VERTEX_POINT('',#1516);
#441=VERTEX_POINT('',#1518);
#442=VERTEX_POINT('',#1525);
#443=VERTEX_POINT('',#1531);
#444=VERTEX_POINT('',#1534);
#445=VERTEX_POINT('',#1539);
#446=VERTEX_POINT('',#1542);
#447=VERTEX_POINT('',#1574);
#448=VERTEX_POINT('',#1575);
#449=VERTEX_POINT('',#1578);
#450=VERTEX_POINT('',#1580);
#451=VERTEX_POINT('',#1584);
#452=VERTEX_POINT('',#1586);
#453=VERTEX_POINT('',#1590);
#454=VERTEX_POINT('',#1592);
#455=VERTEX_POINT('',#1594);
#456=VERTEX_POINT('',#1598);
#457=VERTEX_POINT('',#1602);
#458=VERTEX_POINT('',#1605);
#459=VERTEX_POINT('',#1608);
#460=VERTEX_POINT('',#1612);
#461=VERTEX_POINT('',#1617);
#462=VERTEX_POINT('',#1619);
#463=VERTEX_POINT('',#1622);
#464=VERTEX_POINT('',#1626);
#465=VERTEX_POINT('',#1634);
#466=VERTEX_POINT('',#1635);
#467=VERTEX_POINT('',#1637);
#468=VERTEX_POINT('',#1639);
#469=VERTEX_POINT('',#1643);
#470=VERTEX_POINT('',#1645);
#471=VERTEX_POINT('',#1649);
#472=VERTEX_POINT('',#1651);
#473=VERTEX_POINT('',#1653);
#474=VERTEX_POINT('',#1655);
#475=VERTEX_POINT('',#1657);
#476=VERTEX_POINT('',#1659);
#477=VERTEX_POINT('',#1661);
#478=VERTEX_POINT('',#1664);
#479=VERTEX_POINT('',#1667);
#480=VERTEX_POINT('',#1668);
#481=VERTEX_POINT('',#1673);
#482=VERTEX_POINT('',#1679);
#483=VERTEX_POINT('',#1681);
#484=VERTEX_POINT('',#1683);
#485=VERTEX_POINT('',#1685);
#486=VERTEX_POINT('',#1688);
#487=VERTEX_POINT('',#1703);
#488=VERTEX_POINT('',#1704);
#489=VERTEX_POINT('',#1706);
#490=VERTEX_POINT('',#1708);
#491=VERTEX_POINT('',#1712);
#492=VERTEX_POINT('',#1714);
#493=VERTEX_POINT('',#1718);
#494=VERTEX_POINT('',#1720);
#495=VERTEX_POINT('',#1722);
#496=VERTEX_POINT('',#1724);
#497=VERTEX_POINT('',#1726);
#498=VERTEX_POINT('',#1728);
#499=VERTEX_POINT('',#1730);
#500=VERTEX_POINT('',#1733);
#501=VERTEX_POINT('',#1736);
#502=VERTEX_POINT('',#1740);
#503=VERTEX_POINT('',#1744);
#504=VERTEX_POINT('',#1748);
#505=VERTEX_POINT('',#1752);
#506=VERTEX_POINT('',#1756);
#507=VERTEX_POINT('',#1758);
#508=VERTEX_POINT('',#1761);
#509=VERTEX_POINT('',#1771);
#510=VERTEX_POINT('',#1772);
#511=VERTEX_POINT('',#1774);
#512=VERTEX_POINT('',#1776);
#513=VERTEX_POINT('',#1780);
#514=VERTEX_POINT('',#1782);
#515=VERTEX_POINT('',#1786);
#516=VERTEX_POINT('',#1788);
#517=EDGE_CURVE('',#431,#431,#386,.T.);
#518=EDGE_CURVE('',#432,#432,#387,.T.);
#519=EDGE_CURVE('',#433,#433,#388,.T.);
#520=EDGE_CURVE('',#433,#431,#54,.T.);
#521=EDGE_CURVE('',#434,#435,#55,.T.);
#522=EDGE_CURVE('',#436,#434,#56,.T.);
#523=EDGE_CURVE('',#436,#437,#57,.T.);
#524=EDGE_CURVE('',#437,#435,#58,.T.);
#525=EDGE_CURVE('',#438,#434,#59,.T.);
#526=EDGE_CURVE('',#439,#438,#60,.T.);
#527=EDGE_CURVE('',#439,#436,#61,.T.);
#528=EDGE_CURVE('',#440,#438,#62,.T.);
#529=EDGE_CURVE('',#441,#440,#63,.T.);
#530=EDGE_CURVE('',#441,#439,#64,.T.);
#531=EDGE_CURVE('',#435,#440,#65,.T.);
#532=EDGE_CURVE('',#437,#441,#66,.T.);
#533=EDGE_CURVE('',#442,#442,#389,.T.);
#534=EDGE_CURVE('',#432,#442,#67,.T.);
#535=EDGE_CURVE('',#443,#443,#390,.T.);
#536=EDGE_CURVE('',#444,#444,#391,.T.);
#537=EDGE_CURVE('',#444,#443,#68,.T.);
#538=EDGE_CURVE('',#445,#445,#392,.T.);
#539=EDGE_CURVE('',#446,#446,#393,.T.);
#540=EDGE_CURVE('',#446,#445,#69,.T.);
#541=EDGE_CURVE('',#447,#448,#394,.T.);
#542=EDGE_CURVE('',#448,#447,#395,.T.);
#543=EDGE_CURVE('',#447,#449,#396,.T.);
#544=EDGE_CURVE('',#449,#450,#397,.T.);
#545=EDGE_CURVE('',#450,#449,#398,.T.);
#546=EDGE_CURVE('',#450,#451,#70,.T.);
#547=EDGE_CURVE('',#452,#451,#399,.T.);
#548=EDGE_CURVE('',#451,#452,#400,.T.);
#549=EDGE_CURVE('',#453,#453,#401,.T.);
#550=EDGE_CURVE('',#453,#454,#402,.T.);
#551=EDGE_CURVE('',#454,#455,#403,.T.);
#552=EDGE_CURVE('',#455,#454,#404,.T.);
#553=EDGE_CURVE('',#456,#456,#405,.T.);
#554=EDGE_CURVE('',#456,#455,#71,.T.);
#555=EDGE_CURVE('',#457,#457,#406,.T.);
#556=EDGE_CURVE('',#458,#458,#407,.T.);
#557=EDGE_CURVE('',#458,#459,#72,.T.);
#558=EDGE_CURVE('',#459,#459,#408,.T.);
#559=EDGE_CURVE('',#460,#460,#409,.T.);
#560=EDGE_CURVE('',#457,#448,#73,.T.);
#561=EDGE_CURVE('',#461,#461,#410,.T.);
#562=EDGE_CURVE('',#462,#462,#411,.T.);
#563=EDGE_CURVE('',#463,#463,#412,.T.);
#564=EDGE_CURVE('',#463,#461,#74,.T.);
#565=EDGE_CURVE('',#464,#464,#413,.T.);
#566=EDGE_CURVE('',#464,#452,#414,.T.);
#567=EDGE_CURVE('',#462,#460,#75,.T.);
#568=EDGE_CURVE('',#465,#466,#415,.T.);
#569=EDGE_CURVE('',#466,#467,#76,.T.);
#570=EDGE_CURVE('',#467,#468,#416,.T.);
#571=EDGE_CURVE('',#468,#465,#77,.T.);
#572=EDGE_CURVE('',#468,#469,#78,.T.);
#573=EDGE_CURVE('',#469,#470,#79,.T.);
#574=EDGE_CURVE('',#470,#465,#80,.T.);
#575=EDGE_CURVE('',#471,#467,#81,.T.);
#576=EDGE_CURVE('',#472,#471,#417,.T.);
#577=EDGE_CURVE('',#473,#472,#82,.T.);
#578=EDGE_CURVE('',#474,#473,#83,.T.);
#579=EDGE_CURVE('',#475,#474,#84,.T.);
#580=EDGE_CURVE('',#476,#475,#85,.T.);
#581=EDGE_CURVE('',#477,#476,#86,.T.);
#582=EDGE_CURVE('',#469,#477,#418,.T.);
#583=EDGE_CURVE('',#478,#478,#419,.T.);
#584=EDGE_CURVE('',#479,#480,#420,.T.);
#585=EDGE_CURVE('',#480,#472,#87,.T.);
#586=EDGE_CURVE('',#471,#479,#88,.T.);
#587=EDGE_CURVE('',#480,#481,#89,.T.);
#588=EDGE_CURVE('',#473,#481,#90,.T.);
#589=EDGE_CURVE('',#466,#479,#91,.T.);
#590=EDGE_CURVE('',#482,#470,#421,.T.);
#591=EDGE_CURVE('',#483,#482,#92,.T.);
#592=EDGE_CURVE('',#484,#483,#93,.T.);
#593=EDGE_CURVE('',#485,#484,#94,.T.);
#594=EDGE_CURVE('',#481,#485,#95,.T.);
#595=EDGE_CURVE('',#486,#486,#422,.T.);
#596=EDGE_CURVE('',#486,#478,#96,.T.);
#597=EDGE_CURVE('',#483,#476,#97,.T.);
#598=EDGE_CURVE('',#475,#484,#98,.T.);
#599=EDGE_CURVE('',#474,#485,#99,.T.);
#600=EDGE_CURVE('',#477,#482,#100,.T.);
#601=EDGE_CURVE('',#487,#488,#423,.T.);
#602=EDGE_CURVE('',#488,#489,#101,.T.);
#603=EDGE_CURVE('',#489,#490,#424,.T.);
#604=EDGE_CURVE('',#490,#487,#102,.T.);
#605=EDGE_CURVE('',#491,#488,#103,.T.);
#606=EDGE_CURVE('',#492,#491,#104,.T.);
#607=EDGE_CURVE('',#489,#492,#105,.T.);
#608=EDGE_CURVE('',#487,#493,#106,.T.);
#609=EDGE_CURVE('',#493,#494,#107,.T.);
#610=EDGE_CURVE('',#494,#495,#108,.T.);
#611=EDGE_CURVE('',#495,#496,#109,.T.);
#612=EDGE_CURVE('',#496,#497,#110,.T.);
#613=EDGE_CURVE('',#498,#497,#425,.T.);
#614=EDGE_CURVE('',#498,#499,#111,.T.);
#615=EDGE_CURVE('',#491,#499,#426,.T.);
#616=EDGE_CURVE('',#500,#500,#427,.T.);
#617=EDGE_CURVE('',#501,#490,#112,.T.);
#618=EDGE_CURVE('',#501,#493,#113,.T.);
#619=EDGE_CURVE('',#502,#492,#428,.T.);
#620=EDGE_CURVE('',#499,#502,#114,.T.);
#621=EDGE_CURVE('',#503,#498,#115,.T.);
#622=EDGE_CURVE('',#502,#503,#116,.T.);
#623=EDGE_CURVE('',#504,#503,#429,.T.);
#624=EDGE_CURVE('',#497,#504,#117,.T.);
#625=EDGE_CURVE('',#496,#505,#118,.T.);
#626=EDGE_CURVE('',#504,#505,#119,.T.);
#627=EDGE_CURVE('',#505,#506,#120,.T.);
#628=EDGE_CURVE('',#506,#507,#121,.T.);
#629=EDGE_CURVE('',#507,#501,#122,.T.);
#630=EDGE_CURVE('',#508,#508,#430,.T.);
#631=EDGE_CURVE('',#508,#500,#123,.T.);
#632=EDGE_CURVE('',#494,#507,#124,.T.);
#633=EDGE_CURVE('',#495,#506,#125,.T.);
#634=EDGE_CURVE('',#509,#510,#126,.T.);
#635=EDGE_CURVE('',#510,#511,#127,.T.);
#636=EDGE_CURVE('',#512,#511,#128,.T.);
#637=EDGE_CURVE('',#509,#512,#129,.T.);
#638=EDGE_CURVE('',#513,#509,#130,.T.);
#639=EDGE_CURVE('',#514,#512,#131,.T.);
#640=EDGE_CURVE('',#513,#514,#132,.T.);
#641=EDGE_CURVE('',#515,#513,#133,.T.);
#642=EDGE_CURVE('',#516,#514,#134,.T.);
#643=EDGE_CURVE('',#515,#516,#135,.T.);
#644=EDGE_CURVE('',#515,#510,#136,.T.);
#645=EDGE_CURVE('',#511,#516,#137,.T.);
#646=ORIENTED_EDGE('',*,*,#517,.T.);
#647=ORIENTED_EDGE('',*,*,#518,.T.);
#648=ORIENTED_EDGE('',*,*,#519,.F.);
#649=ORIENTED_EDGE('',*,*,#520,.T.);
#650=ORIENTED_EDGE('',*,*,#517,.F.);
#651=ORIENTED_EDGE('',*,*,#520,.F.);
#652=ORIENTED_EDGE('',*,*,#519,.T.);
#653=ORIENTED_EDGE('',*,*,#521,.F.);
#654=ORIENTED_EDGE('',*,*,#522,.F.);
#655=ORIENTED_EDGE('',*,*,#523,.T.);
#656=ORIENTED_EDGE('',*,*,#524,.T.);
#657=ORIENTED_EDGE('',*,*,#525,.F.);
#658=ORIENTED_EDGE('',*,*,#526,.F.);
#659=ORIENTED_EDGE('',*,*,#527,.T.);
#660=ORIENTED_EDGE('',*,*,#522,.T.);
#661=ORIENTED_EDGE('',*,*,#528,.F.);
#662=ORIENTED_EDGE('',*,*,#529,.F.);
#663=ORIENTED_EDGE('',*,*,#530,.T.);
#664=ORIENTED_EDGE('',*,*,#526,.T.);
#665=ORIENTED_EDGE('',*,*,#531,.F.);
#666=ORIENTED_EDGE('',*,*,#524,.F.);
#667=ORIENTED_EDGE('',*,*,#532,.T.);
#668=ORIENTED_EDGE('',*,*,#529,.T.);
#669=ORIENTED_EDGE('',*,*,#521,.T.);
#670=ORIENTED_EDGE('',*,*,#531,.T.);
#671=ORIENTED_EDGE('',*,*,#528,.T.);
#672=ORIENTED_EDGE('',*,*,#525,.T.);
#673=ORIENTED_EDGE('',*,*,#533,.F.);
#674=ORIENTED_EDGE('',*,*,#518,.F.);
#675=ORIENTED_EDGE('',*,*,#534,.T.);
#676=ORIENTED_EDGE('',*,*,#533,.T.);
#677=ORIENTED_EDGE('',*,*,#534,.F.);
#678=ORIENTED_EDGE('',*,*,#527,.F.);
#679=ORIENTED_EDGE('',*,*,#530,.F.);
#680=ORIENTED_EDGE('',*,*,#532,.F.);
#681=ORIENTED_EDGE('',*,*,#523,.F.);
#682=ORIENTED_EDGE('',*,*,#535,.T.);
#683=ORIENTED_EDGE('',*,*,#536,.F.);
#684=ORIENTED_EDGE('',*,*,#537,.T.);
#685=ORIENTED_EDGE('',*,*,#535,.F.);
#686=ORIENTED_EDGE('',*,*,#537,.F.);
#687=ORIENTED_EDGE('',*,*,#536,.T.);
#688=ORIENTED_EDGE('',*,*,#538,.F.);
#689=ORIENTED_EDGE('',*,*,#539,.T.);
#690=ORIENTED_EDGE('',*,*,#540,.T.);
#691=ORIENTED_EDGE('',*,*,#538,.T.);
#692=ORIENTED_EDGE('',*,*,#540,.F.);
#693=ORIENTED_EDGE('',*,*,#539,.F.);
#694=ORIENTED_EDGE('',*,*,#541,.T.);
#695=ORIENTED_EDGE('',*,*,#542,.T.);
#696=ORIENTED_EDGE('',*,*,#543,.T.);
#697=ORIENTED_EDGE('',*,*,#544,.T.);
#698=ORIENTED_EDGE('',*,*,#545,.T.);
#699=ORIENTED_EDGE('',*,*,#543,.F.);
#700=ORIENTED_EDGE('',*,*,#544,.F.);
#701=ORIENTED_EDGE('',*,*,#545,.F.);
#702=ORIENTED_EDGE('',*,*,#546,.T.);
#703=ORIENTED_EDGE('',*,*,#547,.F.);
#704=ORIENTED_EDGE('',*,*,#548,.F.);
#705=ORIENTED_EDGE('',*,*,#546,.F.);
#706=ORIENTED_EDGE('',*,*,#549,.T.);
#707=ORIENTED_EDGE('',*,*,#550,.T.);
#708=ORIENTED_EDGE('',*,*,#551,.T.);
#709=ORIENTED_EDGE('',*,*,#552,.T.);
#710=ORIENTED_EDGE('',*,*,#550,.F.);
#711=ORIENTED_EDGE('',*,*,#553,.T.);
#712=ORIENTED_EDGE('',*,*,#554,.T.);
#713=ORIENTED_EDGE('',*,*,#551,.F.);
#714=ORIENTED_EDGE('',*,*,#552,.F.);
#715=ORIENTED_EDGE('',*,*,#554,.F.);
#716=ORIENTED_EDGE('',*,*,#549,.F.);
#717=ORIENTED_EDGE('',*,*,#555,.F.);
#718=ORIENTED_EDGE('',*,*,#553,.F.);
#719=ORIENTED_EDGE('',*,*,#556,.T.);
#720=ORIENTED_EDGE('',*,*,#556,.F.);
#721=ORIENTED_EDGE('',*,*,#557,.T.);
#722=ORIENTED_EDGE('',*,*,#558,.F.);
#723=ORIENTED_EDGE('',*,*,#557,.F.);
#724=ORIENTED_EDGE('',*,*,#558,.T.);
#725=ORIENTED_EDGE('',*,*,#559,.T.);
#726=ORIENTED_EDGE('',*,*,#555,.T.);
#727=ORIENTED_EDGE('',*,*,#560,.T.);
#728=ORIENTED_EDGE('',*,*,#541,.F.);
#729=ORIENTED_EDGE('',*,*,#542,.F.);
#730=ORIENTED_EDGE('',*,*,#560,.F.);
#731=ORIENTED_EDGE('',*,*,#561,.T.);
#732=ORIENTED_EDGE('',*,*,#562,.T.);
#733=ORIENTED_EDGE('',*,*,#563,.F.);
#734=ORIENTED_EDGE('',*,*,#564,.T.);
#735=ORIENTED_EDGE('',*,*,#561,.F.);
#736=ORIENTED_EDGE('',*,*,#564,.F.);
#737=ORIENTED_EDGE('',*,*,#565,.F.);
#738=ORIENTED_EDGE('',*,*,#563,.T.);
#739=ORIENTED_EDGE('',*,*,#565,.T.);
#740=ORIENTED_EDGE('',*,*,#566,.T.);
#741=ORIENTED_EDGE('',*,*,#547,.T.);
#742=ORIENTED_EDGE('',*,*,#548,.T.);
#743=ORIENTED_EDGE('',*,*,#566,.F.);
#744=ORIENTED_EDGE('',*,*,#562,.F.);
#745=ORIENTED_EDGE('',*,*,#567,.T.);
#746=ORIENTED_EDGE('',*,*,#559,.F.);
#747=ORIENTED_EDGE('',*,*,#567,.F.);
#748=ORIENTED_EDGE('',*,*,#568,.T.);
#749=ORIENTED_EDGE('',*,*,#569,.T.);
#750=ORIENTED_EDGE('',*,*,#570,.T.);
#751=ORIENTED_EDGE('',*,*,#571,.T.);
#752=ORIENTED_EDGE('',*,*,#571,.F.);
#753=ORIENTED_EDGE('',*,*,#572,.T.);
#754=ORIENTED_EDGE('',*,*,#573,.T.);
#755=ORIENTED_EDGE('',*,*,#574,.T.);
#756=ORIENTED_EDGE('',*,*,#570,.F.);
#757=ORIENTED_EDGE('',*,*,#575,.F.);
#758=ORIENTED_EDGE('',*,*,#576,.F.);
#759=ORIENTED_EDGE('',*,*,#577,.F.);
#760=ORIENTED_EDGE('',*,*,#578,.F.);
#761=ORIENTED_EDGE('',*,*,#579,.F.);
#762=ORIENTED_EDGE('',*,*,#580,.F.);
#763=ORIENTED_EDGE('',*,*,#581,.F.);
#764=ORIENTED_EDGE('',*,*,#582,.F.);
#765=ORIENTED_EDGE('',*,*,#572,.F.);
#766=ORIENTED_EDGE('',*,*,#583,.F.);
#767=ORIENTED_EDGE('',*,*,#584,.T.);
#768=ORIENTED_EDGE('',*,*,#585,.T.);
#769=ORIENTED_EDGE('',*,*,#576,.T.);
#770=ORIENTED_EDGE('',*,*,#586,.T.);
#771=ORIENTED_EDGE('',*,*,#585,.F.);
#772=ORIENTED_EDGE('',*,*,#587,.T.);
#773=ORIENTED_EDGE('',*,*,#588,.F.);
#774=ORIENTED_EDGE('',*,*,#577,.T.);
#775=ORIENTED_EDGE('',*,*,#569,.F.);
#776=ORIENTED_EDGE('',*,*,#589,.T.);
#777=ORIENTED_EDGE('',*,*,#586,.F.);
#778=ORIENTED_EDGE('',*,*,#575,.T.);
#779=ORIENTED_EDGE('',*,*,#568,.F.);
#780=ORIENTED_EDGE('',*,*,#574,.F.);
#781=ORIENTED_EDGE('',*,*,#590,.F.);
#782=ORIENTED_EDGE('',*,*,#591,.F.);
#783=ORIENTED_EDGE('',*,*,#592,.F.);
#784=ORIENTED_EDGE('',*,*,#593,.F.);
#785=ORIENTED_EDGE('',*,*,#594,.F.);
#786=ORIENTED_EDGE('',*,*,#587,.F.);
#787=ORIENTED_EDGE('',*,*,#584,.F.);
#788=ORIENTED_EDGE('',*,*,#589,.F.);
#789=ORIENTED_EDGE('',*,*,#595,.F.);
#790=ORIENTED_EDGE('',*,*,#595,.T.);
#791=ORIENTED_EDGE('',*,*,#596,.T.);
#792=ORIENTED_EDGE('',*,*,#583,.T.);
#793=ORIENTED_EDGE('',*,*,#596,.F.);
#794=ORIENTED_EDGE('',*,*,#597,.T.);
#795=ORIENTED_EDGE('',*,*,#580,.T.);
#796=ORIENTED_EDGE('',*,*,#598,.T.);
#797=ORIENTED_EDGE('',*,*,#592,.T.);
#798=ORIENTED_EDGE('',*,*,#598,.F.);
#799=ORIENTED_EDGE('',*,*,#579,.T.);
#800=ORIENTED_EDGE('',*,*,#599,.T.);
#801=ORIENTED_EDGE('',*,*,#593,.T.);
#802=ORIENTED_EDGE('',*,*,#599,.F.);
#803=ORIENTED_EDGE('',*,*,#578,.T.);
#804=ORIENTED_EDGE('',*,*,#588,.T.);
#805=ORIENTED_EDGE('',*,*,#594,.T.);
#806=ORIENTED_EDGE('',*,*,#573,.F.);
#807=ORIENTED_EDGE('',*,*,#582,.T.);
#808=ORIENTED_EDGE('',*,*,#600,.T.);
#809=ORIENTED_EDGE('',*,*,#590,.T.);
#810=ORIENTED_EDGE('',*,*,#600,.F.);
#811=ORIENTED_EDGE('',*,*,#581,.T.);
#812=ORIENTED_EDGE('',*,*,#597,.F.);
#813=ORIENTED_EDGE('',*,*,#591,.T.);
#814=ORIENTED_EDGE('',*,*,#601,.T.);
#815=ORIENTED_EDGE('',*,*,#602,.T.);
#816=ORIENTED_EDGE('',*,*,#603,.T.);
#817=ORIENTED_EDGE('',*,*,#604,.T.);
#818=ORIENTED_EDGE('',*,*,#602,.F.);
#819=ORIENTED_EDGE('',*,*,#605,.F.);
#820=ORIENTED_EDGE('',*,*,#606,.F.);
#821=ORIENTED_EDGE('',*,*,#607,.F.);
#822=ORIENTED_EDGE('',*,*,#601,.F.);
#823=ORIENTED_EDGE('',*,*,#608,.T.);
#824=ORIENTED_EDGE('',*,*,#609,.T.);
#825=ORIENTED_EDGE('',*,*,#610,.T.);
#826=ORIENTED_EDGE('',*,*,#611,.T.);
#827=ORIENTED_EDGE('',*,*,#612,.T.);
#828=ORIENTED_EDGE('',*,*,#613,.F.);
#829=ORIENTED_EDGE('',*,*,#614,.T.);
#830=ORIENTED_EDGE('',*,*,#615,.F.);
#831=ORIENTED_EDGE('',*,*,#605,.T.);
#832=ORIENTED_EDGE('',*,*,#616,.T.);
#833=ORIENTED_EDGE('',*,*,#604,.F.);
#834=ORIENTED_EDGE('',*,*,#617,.F.);
#835=ORIENTED_EDGE('',*,*,#618,.T.);
#836=ORIENTED_EDGE('',*,*,#608,.F.);
#837=ORIENTED_EDGE('',*,*,#619,.T.);
#838=ORIENTED_EDGE('',*,*,#606,.T.);
#839=ORIENTED_EDGE('',*,*,#615,.T.);
#840=ORIENTED_EDGE('',*,*,#620,.T.);
#841=ORIENTED_EDGE('',*,*,#620,.F.);
#842=ORIENTED_EDGE('',*,*,#614,.F.);
#843=ORIENTED_EDGE('',*,*,#621,.F.);
#844=ORIENTED_EDGE('',*,*,#622,.F.);
#845=ORIENTED_EDGE('',*,*,#623,.T.);
#846=ORIENTED_EDGE('',*,*,#621,.T.);
#847=ORIENTED_EDGE('',*,*,#613,.T.);
#848=ORIENTED_EDGE('',*,*,#624,.T.);
#849=ORIENTED_EDGE('',*,*,#624,.F.);
#850=ORIENTED_EDGE('',*,*,#612,.F.);
#851=ORIENTED_EDGE('',*,*,#625,.T.);
#852=ORIENTED_EDGE('',*,*,#626,.F.);
#853=ORIENTED_EDGE('',*,*,#603,.F.);
#854=ORIENTED_EDGE('',*,*,#607,.T.);
#855=ORIENTED_EDGE('',*,*,#619,.F.);
#856=ORIENTED_EDGE('',*,*,#622,.T.);
#857=ORIENTED_EDGE('',*,*,#623,.F.);
#858=ORIENTED_EDGE('',*,*,#626,.T.);
#859=ORIENTED_EDGE('',*,*,#627,.T.);
#860=ORIENTED_EDGE('',*,*,#628,.T.);
#861=ORIENTED_EDGE('',*,*,#629,.T.);
#862=ORIENTED_EDGE('',*,*,#617,.T.);
#863=ORIENTED_EDGE('',*,*,#630,.T.);
#864=ORIENTED_EDGE('',*,*,#630,.F.);
#865=ORIENTED_EDGE('',*,*,#631,.T.);
#866=ORIENTED_EDGE('',*,*,#616,.F.);
#867=ORIENTED_EDGE('',*,*,#631,.F.);
#868=ORIENTED_EDGE('',*,*,#618,.F.);
#869=ORIENTED_EDGE('',*,*,#629,.F.);
#870=ORIENTED_EDGE('',*,*,#632,.F.);
#871=ORIENTED_EDGE('',*,*,#609,.F.);
#872=ORIENTED_EDGE('',*,*,#632,.T.);
#873=ORIENTED_EDGE('',*,*,#628,.F.);
#874=ORIENTED_EDGE('',*,*,#633,.F.);
#875=ORIENTED_EDGE('',*,*,#610,.F.);
#876=ORIENTED_EDGE('',*,*,#633,.T.);
#877=ORIENTED_EDGE('',*,*,#627,.F.);
#878=ORIENTED_EDGE('',*,*,#625,.F.);
#879=ORIENTED_EDGE('',*,*,#611,.F.);
#880=ORIENTED_EDGE('',*,*,#634,.T.);
#881=ORIENTED_EDGE('',*,*,#635,.T.);
#882=ORIENTED_EDGE('',*,*,#636,.F.);
#883=ORIENTED_EDGE('',*,*,#637,.F.);
#884=ORIENTED_EDGE('',*,*,#638,.T.);
#885=ORIENTED_EDGE('',*,*,#637,.T.);
#886=ORIENTED_EDGE('',*,*,#639,.F.);
#887=ORIENTED_EDGE('',*,*,#640,.F.);
#888=ORIENTED_EDGE('',*,*,#641,.T.);
#889=ORIENTED_EDGE('',*,*,#640,.T.);
#890=ORIENTED_EDGE('',*,*,#642,.F.);
#891=ORIENTED_EDGE('',*,*,#643,.F.);
#892=ORIENTED_EDGE('',*,*,#644,.F.);
#893=ORIENTED_EDGE('',*,*,#643,.T.);
#894=ORIENTED_EDGE('',*,*,#645,.F.);
#895=ORIENTED_EDGE('',*,*,#635,.F.);
#896=ORIENTED_EDGE('',*,*,#644,.T.);
#897=ORIENTED_EDGE('',*,*,#634,.F.);
#898=ORIENTED_EDGE('',*,*,#638,.F.);
#899=ORIENTED_EDGE('',*,*,#641,.F.);
#900=ORIENTED_EDGE('',*,*,#645,.T.);
#901=ORIENTED_EDGE('',*,*,#642,.T.);
#902=ORIENTED_EDGE('',*,*,#639,.T.);
#903=ORIENTED_EDGE('',*,*,#636,.T.);
#904=PLANE('',#1061);
#905=PLANE('',#1066);
#906=PLANE('',#1067);
#907=PLANE('',#1068);
#908=PLANE('',#1069);
#909=PLANE('',#1070);
#910=PLANE('',#1071);
#911=PLANE('',#1074);
#912=PLANE('',#1075);
#913=PLANE('',#1079);
#914=PLANE('',#1080);
#915=PLANE('',#1084);
#916=PLANE('',#1101);
#917=PLANE('',#1103);
#918=PLANE('',#1107);
#919=PLANE('',#1110);
#920=PLANE('',#1115);
#921=PLANE('',#1124);
#922=PLANE('',#1125);
#923=PLANE('',#1131);
#924=PLANE('',#1132);
#925=PLANE('',#1133);
#926=PLANE('',#1137);
#927=PLANE('',#1138);
#928=PLANE('',#1139);
#929=PLANE('',#1141);
#930=PLANE('',#1146);
#931=PLANE('',#1147);
#932=PLANE('',#1151);
#933=PLANE('',#1154);
#934=PLANE('',#1157);
#935=PLANE('',#1158);
#936=PLANE('',#1161);
#937=PLANE('',#1162);
#938=PLANE('',#1163);
#939=PLANE('',#1164);
#940=PLANE('',#1165);
#941=PLANE('',#1166);
#942=PLANE('',#1167);
#943=PLANE('',#1168);
#944=PLANE('',#1169);
#945=ADVANCED_FACE('',(#251,#240),#904,.T.);
#946=ADVANCED_FACE('',(#252),#222,.T.);
#947=ADVANCED_FACE('',(#253),#905,.T.);
#948=ADVANCED_FACE('',(#254),#906,.T.);
#949=ADVANCED_FACE('',(#255),#907,.T.);
#950=ADVANCED_FACE('',(#256),#908,.T.);
#951=ADVANCED_FACE('',(#257),#909,.T.);
#952=ADVANCED_FACE('',(#258,#241),#910,.T.);
#953=ADVANCED_FACE('',(#259),#223,.T.);
#954=ADVANCED_FACE('',(#260),#911,.F.);
#955=ADVANCED_FACE('',(#261),#912,.F.);
#956=ADVANCED_FACE('',(#262),#224,.T.);
#957=ADVANCED_FACE('',(#263),#913,.T.);
#958=ADVANCED_FACE('',(#264),#914,.T.);
#959=ADVANCED_FACE('',(#265),#225,.T.);
#960=ADVANCED_FACE('',(#266),#915,.F.);
#961=ADVANCED_FACE('',(#267),#29,.T.);
#962=ADVANCED_FACE('',(#268),#226,.T.);
#963=ADVANCED_FACE('',(#269),#27,.T.);
#964=ADVANCED_FACE('',(#270),#227,.T.);
#965=ADVANCED_FACE('',(#271,#242),#916,.F.);
#966=ADVANCED_FACE('',(#272,#243),#917,.T.);
#967=ADVANCED_FACE('',(#273),#228,.F.);
#968=ADVANCED_FACE('',(#274,#244),#918,.T.);
#969=ADVANCED_FACE('',(#275),#229,.T.);
#970=ADVANCED_FACE('',(#276,#245),#919,.T.);
#971=ADVANCED_FACE('',(#277),#230,.F.);
#972=ADVANCED_FACE('',(#278,#246),#920,.T.);
#973=ADVANCED_FACE('',(#279),#28,.T.);
#974=ADVANCED_FACE('',(#280),#231,.F.);
#975=ADVANCED_FACE('',(#281),#232,.T.);
#976=ADVANCED_FACE('',(#282),#921,.F.);
#977=ADVANCED_FACE('',(#283,#247),#922,.T.);
#978=ADVANCED_FACE('',(#284),#233,.T.);
#979=ADVANCED_FACE('',(#285),#923,.F.);
#980=ADVANCED_FACE('',(#286),#924,.F.);
#981=ADVANCED_FACE('',(#287,#248),#925,.F.);
#982=ADVANCED_FACE('',(#288),#234,.F.);
#983=ADVANCED_FACE('',(#289),#926,.F.);
#984=ADVANCED_FACE('',(#290),#927,.F.);
#985=ADVANCED_FACE('',(#291),#928,.F.);
#986=ADVANCED_FACE('',(#292),#235,.T.);
#987=ADVANCED_FACE('',(#293),#929,.F.);
#988=ADVANCED_FACE('',(#294),#236,.T.);
#989=ADVANCED_FACE('',(#295),#930,.T.);
#990=ADVANCED_FACE('',(#296,#249),#931,.F.);
#991=ADVANCED_FACE('',(#297),#932,.T.);
#992=ADVANCED_FACE('',(#298),#237,.T.);
#993=ADVANCED_FACE('',(#299),#933,.T.);
#994=ADVANCED_FACE('',(#300),#238,.T.);
#995=ADVANCED_FACE('',(#301),#934,.T.);
#996=ADVANCED_FACE('',(#302,#250),#935,.T.);
#997=ADVANCED_FACE('',(#303),#239,.F.);
#998=ADVANCED_FACE('',(#304),#936,.T.);
#999=ADVANCED_FACE('',(#305),#937,.T.);
#1000=ADVANCED_FACE('',(#306),#938,.T.);
#1001=ADVANCED_FACE('',(#307),#939,.T.);
#1002=ADVANCED_FACE('',(#308),#940,.T.);
#1003=ADVANCED_FACE('',(#309),#941,.T.);
#1004=ADVANCED_FACE('',(#310),#942,.T.);
#1005=ADVANCED_FACE('',(#311),#943,.T.);
#1006=ADVANCED_FACE('',(#312),#944,.T.);
#1007=CLOSED_SHELL('',(#945,#946,#947,#948,#949,#950,#951,#952,#953,#954));
#1008=CLOSED_SHELL('',(#955,#956,#957));
#1009=CLOSED_SHELL('',(#958,#959,#960));
#1010=CLOSED_SHELL('',(#961,#962,#963,#964,#965,#966,#967,#968,#969,#970,
#971,#972,#973,#974));
#1011=CLOSED_SHELL('',(#975,#976,#977,#978,#979,#980,#981,#982,#983,#984,
#985,#986,#987));
#1012=CLOSED_SHELL('',(#988,#989,#990,#991,#992,#993,#994,#995,#996,#997,
#998,#999,#1000));
#1013=CLOSED_SHELL('',(#1001,#1002,#1003,#1004,#1005,#1006));
#1014=DERIVED_UNIT_ELEMENT(#1022,1.);
#1015=DERIVED_UNIT_ELEMENT(#1813,-3.);
#1016=DERIVED_UNIT_ELEMENT(#1022,1.);
#1017=DERIVED_UNIT_ELEMENT(#1813,-3.);
#1018=DERIVED_UNIT_ELEMENT(#1022,1.);
#1019=DERIVED_UNIT_ELEMENT(#1813,-3.);
#1020=DERIVED_UNIT_ELEMENT(#1022,1.);
#1021=DERIVED_UNIT_ELEMENT(#1813,-3.);
#1022=(
MASS_UNIT()
NAMED_UNIT(*)
SI_UNIT(.KILO.,.GRAM.)
);
#1023=DERIVED_UNIT((#1014,#1015));
#1024=DERIVED_UNIT((#1016,#1017));
#1025=DERIVED_UNIT((#1018,#1019));
#1026=DERIVED_UNIT((#1020,#1021));
#1027=MEASURE_REPRESENTATION_ITEM('density measure',
POSITIVE_RATIO_MEASURE(7850.),#1023);
#1028=MEASURE_REPRESENTATION_ITEM('density measure',
POSITIVE_RATIO_MEASURE(7850.),#1024);
#1029=MEASURE_REPRESENTATION_ITEM('density measure',
POSITIVE_RATIO_MEASURE(7850.),#1025);
#1030=MEASURE_REPRESENTATION_ITEM('density measure',
POSITIVE_RATIO_MEASURE(7850.),#1026);
#1031=PROPERTY_DEFINITION_REPRESENTATION(#1051,#1039);
#1032=PROPERTY_DEFINITION_REPRESENTATION(#1052,#1040);
#1033=PROPERTY_DEFINITION_REPRESENTATION(#1053,#1041);
#1034=PROPERTY_DEFINITION_REPRESENTATION(#1054,#1042);
#1035=PROPERTY_DEFINITION_REPRESENTATION(#1055,#1043);
#1036=PROPERTY_DEFINITION_REPRESENTATION(#1056,#1044);
#1037=PROPERTY_DEFINITION_REPRESENTATION(#1057,#1045);
#1038=PROPERTY_DEFINITION_REPRESENTATION(#1058,#1046);
#1039=REPRESENTATION('material name',(#1047),#1807);
#1040=REPRESENTATION('density',(#1027),#1807);
#1041=REPRESENTATION('material name',(#1048),#1808);
#1042=REPRESENTATION('density',(#1028),#1808);
#1043=REPRESENTATION('material name',(#1049),#1809);
#1044=REPRESENTATION('density',(#1029),#1809);
#1045=REPRESENTATION('material name',(#1050),#1810);
#1046=REPRESENTATION('density',(#1030),#1810);
#1047=DESCRIPTIVE_REPRESENTATION_ITEM('Steel','Steel');
#1048=DESCRIPTIVE_REPRESENTATION_ITEM('Steel','Steel');
#1049=DESCRIPTIVE_REPRESENTATION_ITEM('Steel','Steel');
#1050=DESCRIPTIVE_REPRESENTATION_ITEM('Steel','Steel');
#1051=PROPERTY_DEFINITION('material property','material name',#1837);
#1052=PROPERTY_DEFINITION('material property','density of part',#1837);
#1053=PROPERTY_DEFINITION('material property','material name',#1838);
#1054=PROPERTY_DEFINITION('material property','density of part',#1838);
#1055=PROPERTY_DEFINITION('material property','material name',#1839);
#1056=PROPERTY_DEFINITION('material property','density of part',#1839);
#1057=PROPERTY_DEFINITION('material property','material name',#1840);
#1058=PROPERTY_DEFINITION('material property','density of part',#1840);
#1059=AXIS2_PLACEMENT_3D('',#1488,#1174,#1175);
#1060=AXIS2_PLACEMENT_3D('',#1489,#1176,#1177);
#1061=AXIS2_PLACEMENT_3D('',#1490,#1178,#1179);
#1062=AXIS2_PLACEMENT_3D('',#1492,#1180,#1181);
#1063=AXIS2_PLACEMENT_3D('',#1494,#1182,#1183);
#1064=AXIS2_PLACEMENT_3D('',#1495,#1184,#1185);
#1065=AXIS2_PLACEMENT_3D('',#1497,#1186,#1187);
#1066=AXIS2_PLACEMENT_3D('',#1499,#1189,#1190);
#1067=AXIS2_PLACEMENT_3D('',#1500,#1191,#1192);
#1068=AXIS2_PLACEMENT_3D('',#1509,#1197,#1198);
#1069=AXIS2_PLACEMENT_3D('',#1515,#1202,#1203);
#1070=AXIS2_PLACEMENT_3D('',#1521,#1207,#1208);
#1071=AXIS2_PLACEMENT_3D('',#1524,#1211,#1212);
#1072=AXIS2_PLACEMENT_3D('',#1526,#1213,#1214);
#1073=AXIS2_PLACEMENT_3D('',#1527,#1215,#1216);
#1074=AXIS2_PLACEMENT_3D('',#1529,#1218,#1219);
#1075=AXIS2_PLACEMENT_3D('',#1530,#1220,#1221);
#1076=AXIS2_PLACEMENT_3D('',#1532,#1222,#1223);
#1077=AXIS2_PLACEMENT_3D('',#1533,#1224,#1225);
#1078=AXIS2_PLACEMENT_3D('',#1535,#1226,#1227);
#1079=AXIS2_PLACEMENT_3D('',#1537,#1229,#1230);
#1080=AXIS2_PLACEMENT_3D('',#1538,#1231,#1232);
#1081=AXIS2_PLACEMENT_3D('',#1540,#1233,#1234);
#1082=AXIS2_PLACEMENT_3D('',#1541,#1235,#1236);
#1083=AXIS2_PLACEMENT_3D('',#1543,#1237,#1238);
#1084=AXIS2_PLACEMENT_3D('',#1545,#1240,#1241);
#1085=AXIS2_PLACEMENT_3D('',#1546,#1242,#1243);
#1086=AXIS2_PLACEMENT_3D('',#1576,#1244,#1245);
#1087=AXIS2_PLACEMENT_3D('',#1577,#1246,#1247);
#1088=AXIS2_PLACEMENT_3D('',#1579,#1248,#1249);
#1089=AXIS2_PLACEMENT_3D('',#1581,#1250,#1251);
#1090=AXIS2_PLACEMENT_3D('',#1582,#1252,#1253);
#1091=AXIS2_PLACEMENT_3D('',#1583,#1254,#1255);
#1092=AXIS2_PLACEMENT_3D('',#1587,#1257,#1258);
#1093=AXIS2_PLACEMENT_3D('',#1588,#1259,#1260);
#1094=AXIS2_PLACEMENT_3D('',#1589,#1261,#1262);
#1095=AXIS2_PLACEMENT_3D('',#1591,#1263,#1264);
#1096=AXIS2_PLACEMENT_3D('',#1593,#1265,#1266);
#1097=AXIS2_PLACEMENT_3D('',#1595,#1267,#1268);
#1098=AXIS2_PLACEMENT_3D('',#1596,#1269,#1270);
#1099=AXIS2_PLACEMENT_3D('',#1597,#1271,#1272);
#1100=AXIS2_PLACEMENT_3D('',#1599,#1273,#1274);
#1101=AXIS2_PLACEMENT_3D('',#1601,#1276,#1277);
#1102=AXIS2_PLACEMENT_3D('',#1603,#1278,#1279);
#1103=AXIS2_PLACEMENT_3D('',#1604,#1280,#1281);
#1104=AXIS2_PLACEMENT_3D('',#1606,#1282,#1283);
#1105=AXIS2_PLACEMENT_3D('',#1607,#1284,#1285);
#1106=AXIS2_PLACEMENT_3D('',#1610,#1287,#1288);
#1107=AXIS2_PLACEMENT_3D('',#1611,#1289,#1290);
#1108=AXIS2_PLACEMENT_3D('',#1613,#1291,#1292);
#1109=AXIS2_PLACEMENT_3D('',#1614,#1293,#1294);
#1110=AXIS2_PLACEMENT_3D('',#1616,#1296,#1297);
#1111=AXIS2_PLACEMENT_3D('',#1618,#1298,#1299);
#1112=AXIS2_PLACEMENT_3D('',#1620,#1300,#1301);
#1113=AXIS2_PLACEMENT_3D('',#1621,#1302,#1303);
#1114=AXIS2_PLACEMENT_3D('',#1623,#1304,#1305);
#1115=AXIS2_PLACEMENT_3D('',#1625,#1307,#1308);
#1116=AXIS2_PLACEMENT_3D('',#1627,#1309,#1310);
#1117=AXIS2_PLACEMENT_3D('',#1628,#1311,#1312);
#1118=AXIS2_PLACEMENT_3D('',#1629,#1313,#1314);
#1119=AXIS2_PLACEMENT_3D('',#1630,#1315,#1316);
#1120=AXIS2_PLACEMENT_3D('',#1632,#1318,#1319);
#1121=AXIS2_PLACEMENT_3D('',#1633,#1320,#1321);
#1122=AXIS2_PLACEMENT_3D('',#1636,#1322,#1323);
#1123=AXIS2_PLACEMENT_3D('',#1640,#1325,#1326);
#1124=AXIS2_PLACEMENT_3D('',#1642,#1328,#1329);
#1125=AXIS2_PLACEMENT_3D('',#1648,#1333,#1334);
#1126=AXIS2_PLACEMENT_3D('',#1652,#1336,#1337);
#1127=AXIS2_PLACEMENT_3D('',#1663,#1343,#1344);
#1128=AXIS2_PLACEMENT_3D('',#1665,#1345,#1346);
#1129=AXIS2_PLACEMENT_3D('',#1666,#1347,#1348);
#1130=AXIS2_PLACEMENT_3D('',#1669,#1349,#1350);
#1131=AXIS2_PLACEMENT_3D('',#1672,#1353,#1354);
#1132=AXIS2_PLACEMENT_3D('',#1676,#1357,#1358);
#1133=AXIS2_PLACEMENT_3D('',#1678,#1360,#1361);
#1134=AXIS2_PLACEMENT_3D('',#1680,#1362,#1363);
#1135=AXIS2_PLACEMENT_3D('',#1689,#1368,#1369);
#1136=AXIS2_PLACEMENT_3D('',#1690,#1370,#1371);
#1137=AXIS2_PLACEMENT_3D('',#1692,#1373,#1374);
#1138=AXIS2_PLACEMENT_3D('',#1695,#1377,#1378);
#1139=AXIS2_PLACEMENT_3D('',#1697,#1380,#1381);
#1140=AXIS2_PLACEMENT_3D('',#1698,#1382,#1383);
#1141=AXIS2_PLACEMENT_3D('',#1700,#1385,#1386);
#1142=AXIS2_PLACEMENT_3D('',#1701,#1387,#1388);
#1143=AXIS2_PLACEMENT_3D('',#1702,#1389,#1390);
#1144=AXIS2_PLACEMENT_3D('',#1705,#1391,#1392);
#1145=AXIS2_PLACEMENT_3D('',#1709,#1394,#1395);
#1146=AXIS2_PLACEMENT_3D('',#1711,#1397,#1398);
#1147=AXIS2_PLACEMENT_3D('',#1717,#1402,#1403);
#1148=AXIS2_PLACEMENT_3D('',#1729,#1409,#1410);
#1149=AXIS2_PLACEMENT_3D('',#1732,#1412,#1413);
#1150=AXIS2_PLACEMENT_3D('',#1734,#1414,#1415);
#1151=AXIS2_PLACEMENT_3D('',#1735,#1416,#1417);
#1152=AXIS2_PLACEMENT_3D('',#1739,#1420,#1421);
#1153=AXIS2_PLACEMENT_3D('',#1741,#1422,#1423);
#1154=AXIS2_PLACEMENT_3D('',#1743,#1425,#1426);
#1155=AXIS2_PLACEMENT_3D('',#1747,#1429,#1430);
#1156=AXIS2_PLACEMENT_3D('',#1749,#1431,#1432);
#1157=AXIS2_PLACEMENT_3D('',#1751,#1434,#1435);
#1158=AXIS2_PLACEMENT_3D('',#1755,#1438,#1439);
#1159=AXIS2_PLACEMENT_3D('',#1762,#1443,#1444);
#1160=AXIS2_PLACEMENT_3D('',#1763,#1445,#1446);
#1161=AXIS2_PLACEMENT_3D('',#1765,#1448,#1449);
#1162=AXIS2_PLACEMENT_3D('',#1767,#1451,#1452);
#1163=AXIS2_PLACEMENT_3D('',#1769,#1454,#1455);
#1164=AXIS2_PLACEMENT_3D('',#1770,#1456,#1457);
#1165=AXIS2_PLACEMENT_3D('',#1779,#1462,#1463);
#1166=AXIS2_PLACEMENT_3D('',#1785,#1467,#1468);
#1167=AXIS2_PLACEMENT_3D('',#1791,#1472,#1473);
#1168=AXIS2_PLACEMENT_3D('',#1794,#1476,#1477);
#1169=AXIS2_PLACEMENT_3D('',#1795,#1478,#1479);
#1170=AXIS2_PLACEMENT_3D('',#1796,#1480,#1481);
#1171=AXIS2_PLACEMENT_3D('',#1797,#1482,#1483);
#1172=AXIS2_PLACEMENT_3D('',#1798,#1484,#1485);
#1173=AXIS2_PLACEMENT_3D('',#1799,#1486,#1487);
#1174=DIRECTION('axis',(0.,0.,1.));
#1175=DIRECTION('refdir',(1.,0.,0.));
#1176=DIRECTION('axis',(0.,0.,1.));
#1177=DIRECTION('refdir',(1.,0.,0.));
#1178=DIRECTION('center_axis',(3.74591540114121E-31,1.45463972819138E-15,
-1.));
#1179=DIRECTION('ref_axis',(-1.,4.99600361081318E-16,3.52146993333522E-31));
#1180=DIRECTION('center_axis',(3.74591540114121E-31,1.45463972819138E-15,
-1.));
#1181=DIRECTION('ref_axis',(1.,-4.99600361081318E-16,-3.52146993333522E-31));
#1182=DIRECTION('center_axis',(-7.00649232162409E-46,-1.77493703674728E-30,
1.));
#1183=DIRECTION('ref_axis',(1.,4.35916588875516E-45,7.00649232162409E-46));
#1184=DIRECTION('center_axis',(-3.74591540114121E-31,-1.45463972819138E-15,
1.));
#1185=DIRECTION('ref_axis',(1.,-4.99600361081318E-16,-3.52146993333522E-31));
#1186=DIRECTION('center_axis',(-3.74591540114121E-31,-1.45463972819138E-15,
1.));
#1187=DIRECTION('ref_axis',(1.,-4.99600361081318E-16,-3.52146993333522E-31));
#1188=DIRECTION('',(3.74591540114121E-31,1.45463972819138E-15,-1.));
#1189=DIRECTION('center_axis',(-3.74591540114121E-31,-1.45463972819138E-15,
1.));
#1190=DIRECTION('ref_axis',(1.,-4.99600361081318E-16,-3.52146993333522E-31));
#1191=DIRECTION('center_axis',(0.,-1.,0.));
#1192=DIRECTION('ref_axis',(1.,0.,0.));
#1193=DIRECTION('',(1.,5.44895744693259E-46,8.75811540203011E-47));
#1194=DIRECTION('',(0.,0.,1.));
#1195=DIRECTION('',(1.,5.44895744693259E-46,8.75811540203011E-47));
#1196=DIRECTION('',(0.,0.,1.));
#1197=DIRECTION('center_axis',(-1.,0.,0.));
#1198=DIRECTION('ref_axis',(0.,-1.,0.));
#1199=DIRECTION('',(5.47382212626882E-46,-1.,-1.97215226305253E-31));
#1200=DIRECTION('',(0.,0.,1.));
#1201=DIRECTION('',(5.47382212626882E-46,-1.,-1.97215226305253E-31));
#1202=DIRECTION('center_axis',(0.,1.,0.));
#1203=DIRECTION('ref_axis',(-1.,0.,0.));
#1204=DIRECTION('',(-1.,-5.44895744693259E-46,-8.75811540203011E-47));
#1205=DIRECTION('',(0.,0.,1.));
#1206=DIRECTION('',(-1.,-5.44895744693259E-46,-8.75811540203011E-47));
#1207=DIRECTION('center_axis',(1.,0.,0.));
#1208=DIRECTION('ref_axis',(0.,1.,0.));
#1209=DIRECTION('',(-5.47382212626882E-46,1.,1.97215226305253E-31));
#1210=DIRECTION('',(-5.47382212626882E-46,1.,1.97215226305253E-31));
#1211=DIRECTION('center_axis',(-8.75811540203011E-47,-1.97215226305253E-31,
1.));
#1212=DIRECTION('ref_axis',(1.,5.44895744693259E-46,8.75811540203011E-47));
#1213=DIRECTION('center_axis',(-8.75811540203011E-47,-1.97215226305253E-31,
1.));
#1214=DIRECTION('ref_axis',(1.,5.44895744693259E-46,8.75811540203011E-47));
#1215=DIRECTION('center_axis',(0.,0.,1.));
#1216=DIRECTION('ref_axis',(1.,0.,0.));
#1217=DIRECTION('',(0.,0.,-1.));
#1218=DIRECTION('center_axis',(-8.75811540203011E-47,-1.97215226305253E-31,
1.));
#1219=DIRECTION('ref_axis',(1.,5.44895744693259E-46,8.75811540203011E-47));
#1220=DIRECTION('center_axis',(4.99600361081318E-16,1.,1.45463972819138E-15));
#1221=DIRECTION('ref_axis',(1.,-4.99600361081318E-16,-3.52146993333522E-31));
#1222=DIRECTION('center_axis',(-4.99600361081318E-16,-1.,-1.45463972819138E-15));
#1223=DIRECTION('ref_axis',(1.,-4.99600361081318E-16,-3.52146993333522E-31));
#1224=DIRECTION('center_axis',(4.99600361081318E-16,1.,1.45463972819138E-15));
#1225=DIRECTION('ref_axis',(1.,-4.99600361081318E-16,-3.52146993333522E-31));
#1226=DIRECTION('center_axis',(4.99600361081318E-16,1.,1.45463972819138E-15));
#1227=DIRECTION('ref_axis',(1.,-4.99600361081318E-16,-3.52146993333522E-31));
#1228=DIRECTION('',(-4.99600361081318E-16,-1.,-1.45463972819138E-15));
#1229=DIRECTION('center_axis',(4.99600361081318E-16,1.,1.45463972819138E-15));
#1230=DIRECTION('ref_axis',(1.,-4.99600361081318E-16,-3.52146993333522E-31));
#1231=DIRECTION('center_axis',(4.99600361081318E-16,-1.,-1.45463972819138E-15));
#1232=DIRECTION('ref_axis',(-1.,-4.99600361081318E-16,-3.52146993333522E-31));
#1233=DIRECTION('center_axis',(-4.99600361081318E-16,1.,1.45463972819138E-15));
#1234=DIRECTION('ref_axis',(-1.,-4.99600361081318E-16,-3.52146993333522E-31));
#1235=DIRECTION('center_axis',(4.99600361081318E-16,-1.,-1.45463972819138E-15));
#1236=DIRECTION('ref_axis',(-1.,-4.99600361081318E-16,-3.52146993333522E-31));
#1237=DIRECTION('center_axis',(4.99600361081318E-16,-1.,-1.45463972819138E-15));
#1238=DIRECTION('ref_axis',(-1.,-4.99600361081318E-16,-3.52146993333522E-31));
#1239=DIRECTION('',(4.99600361081318E-16,-1.,-1.45463972819138E-15));
#1240=DIRECTION('center_axis',(4.99600361081318E-16,-1.,-1.45463972819138E-15));
#1241=DIRECTION('ref_axis',(-1.,-4.99600361081318E-16,-3.52146993333522E-31));
#1242=DIRECTION('axis',(0.,0.,1.));
#1243=DIRECTION('refdir',(1.,0.,0.));
#1244=DIRECTION('center_axis',(0.,-2.44929359829471E-16,-1.));
#1245=DIRECTION('ref_axis',(1.,4.99600361081321E-16,4.66293670342566E-15));
#1246=DIRECTION('center_axis',(0.,-2.44929359829471E-16,-1.));
#1247=DIRECTION('ref_axis',(1.,4.99600361081321E-16,4.66293670342566E-15));
#1248=DIRECTION('center_axis',(1.22464679914734E-16,1.,-4.03258582607954E-17));
#1249=DIRECTION('ref_axis',(1.,-1.22464679914734E-16,0.));
#1250=DIRECTION('center_axis',(0.,2.44929359829471E-16,1.));
#1251=DIRECTION('ref_axis',(1.,0.,0.));
#1252=DIRECTION('center_axis',(0.,2.44929359829471E-16,1.));
#1253=DIRECTION('ref_axis',(1.,0.,0.));
#1254=DIRECTION('center_axis',(0.,2.44929359829471E-16,1.));
#1255=DIRECTION('ref_axis',(1.,0.,0.));
#1256=DIRECTION('',(0.,-2.44929359829471E-16,-1.));
#1257=DIRECTION('center_axis',(4.64346521809335E-15,-1.8298901891536E-15,
-1.));
#1258=DIRECTION('ref_axis',(-1.,-5.53731168459993E-15,-4.62592926927155E-15));
#1259=DIRECTION('center_axis',(4.64346521809335E-15,-1.8298901891536E-15,
-1.));
#1260=DIRECTION('ref_axis',(-1.,-5.53731168459993E-15,-4.62592926927155E-15));
#1261=DIRECTION('center_axis',(1.04362590618025E-15,-3.75250460962215E-16,
-1.));
#1262=DIRECTION('ref_axis',(-1.,0.,-7.89491928622333E-16));
#1263=DIRECTION('center_axis',(-1.04362590618025E-15,3.75250460962215E-16,
1.));
#1264=DIRECTION('ref_axis',(1.,5.03648653671929E-16,1.04362590618025E-15));
#1265=DIRECTION('center_axis',(-1.22464679914736E-16,-1.,3.75250460962214E-16));
#1266=DIRECTION('ref_axis',(1.,-1.22464679914735E-16,9.86864910777917E-16));
#1267=DIRECTION('center_axis',(1.04362590618025E-15,-3.75250460962215E-16,
-1.));
#1268=DIRECTION('ref_axis',(1.,5.03648653671929E-16,1.04854396770154E-15));
#1269=DIRECTION('center_axis',(1.04362590618025E-15,-3.75250460962215E-16,
-1.));
#1270=DIRECTION('ref_axis',(1.,5.03648653671929E-16,1.04854396770154E-15));
#1271=DIRECTION('center_axis',(-1.03973882521029E-15,3.63105583190396E-16,
1.));
#1272=DIRECTION('ref_axis',(1.,4.99600361081324E-16,1.03973882521029E-15));
#1273=DIRECTION('center_axis',(1.04362590618025E-15,-3.75250460962215E-16,
-1.));
#1274=DIRECTION('ref_axis',(1.,4.99600361081324E-16,1.03973882521029E-15));
#1275=DIRECTION('',(1.03973882521029E-15,-3.63105583190396E-16,-1.));
#1276=DIRECTION('center_axis',(-1.04362590618025E-15,3.75250460962215E-16,
1.));
#1277=DIRECTION('ref_axis',(1.,4.99600361081324E-16,1.04362590618025E-15));
#1278=DIRECTION('center_axis',(1.04362590618025E-15,-3.75250460962215E-16,
-1.));
#1279=DIRECTION('ref_axis',(1.,4.99600361081321E-16,4.66293670342566E-15));
#1280=DIRECTION('center_axis',(-1.04362590618025E-15,3.75250460962215E-16,
1.));
#1281=DIRECTION('ref_axis',(1.,4.99600361081324E-16,1.04362590618025E-15));
#1282=DIRECTION('center_axis',(4.66293670342566E-15,-3.75250460962213E-16,
-1.));
#1283=DIRECTION('ref_axis',(1.,4.99600361081325E-16,4.66293670342566E-15));
#1284=DIRECTION('center_axis',(-1.03973882521029E-15,3.63105583190396E-16,
1.));
#1285=DIRECTION('ref_axis',(1.,4.99600361081324E-16,1.03973882521029E-15));
#1286=DIRECTION('',(1.03973882521029E-15,-3.63105583190396E-16,-1.));
#1287=DIRECTION('center_axis',(-1.04362590618025E-15,3.75250460962215E-16,
1.));
#1288=DIRECTION('ref_axis',(1.,4.99600361081321E-16,4.66293670342566E-15));
#1289=DIRECTION('center_axis',(-1.04362590618025E-15,3.75250460962215E-16,
1.));
#1290=DIRECTION('ref_axis',(-1.,-4.9960036108132E-16,-1.04362590618025E-15));
#1291=DIRECTION('center_axis',(1.04362590618025E-15,-3.75250460962215E-16,
-1.));
#1292=DIRECTION('ref_axis',(-1.,-4.99600361081321E-16,-4.64462272172876E-15));
#1293=DIRECTION('center_axis',(-4.66293670342566E-15,1.8298901891536E-15,
1.));
#1294=DIRECTION('ref_axis',(1.,4.99600361081321E-16,4.66293670342566E-15));
#1295=DIRECTION('',(4.66293670342566E-15,-1.8298901891536E-15,-1.));
#1296=DIRECTION('center_axis',(0.,-2.44929359829471E-16,-1.));
#1297=DIRECTION('ref_axis',(-1.,0.,0.));
#1298=DIRECTION('center_axis',(0.,-2.44929359829471E-16,-1.));
#1299=DIRECTION('ref_axis',(-1.,-4.99600361081321E-16,-4.66293670342566E-15));
#1300=DIRECTION('center_axis',(0.,2.44929359829471E-16,1.));
#1301=DIRECTION('ref_axis',(1.,0.,0.));
#1302=DIRECTION('center_axis',(4.66293670342566E-15,-1.8298901891536E-15,
-1.));
#1303=DIRECTION('ref_axis',(-1.,-4.99600361081321E-16,-4.66293670342566E-15));
#1304=DIRECTION('center_axis',(-4.64346521809335E-15,1.8298901891536E-15,
1.));
#1305=DIRECTION('ref_axis',(-1.,-4.99600361081321E-16,-4.64346521809335E-15));
#1306=DIRECTION('',(-4.66293670342566E-15,1.8298901891536E-15,1.));
#1307=DIRECTION('center_axis',(4.64346521809335E-15,-1.8298901891536E-15,
-1.));
#1308=DIRECTION('ref_axis',(-1.,-4.99600361081321E-16,-4.64346521809335E-15));
#1309=DIRECTION('center_axis',(-4.64346521809335E-15,1.8298901891536E-15,
1.));
#1310=DIRECTION('ref_axis',(-1.,-5.53731168459993E-15,-4.64346521809334E-15));
#1311=DIRECTION('center_axis',(4.64346521809335E-15,-1.8298901891536E-15,
-1.));
#1312=DIRECTION('ref_axis',(-1.,0.,-4.61852778244065E-15));
#1313=DIRECTION('center_axis',(-1.22464679914744E-16,-1.,1.8298901891536E-15));
#1314=DIRECTION('ref_axis',(1.,-1.22464679914735E-16,4.58892183511731E-15));
#1315=DIRECTION('center_axis',(0.,1.22464679914735E-16,1.));
#1316=DIRECTION('ref_axis',(1.,0.,0.));
#1317=DIRECTION('',(0.,1.22464679914735E-16,1.));
#1318=DIRECTION('axis',(0.,0.,1.));
#1319=DIRECTION('refdir',(1.,0.,0.));
#1320=DIRECTION('center_axis',(9.23712495241712E-47,1.,0.));
#1321=DIRECTION('ref_axis',(-0.707106781186546,6.53163369252158E-47,0.707106781186549));
#1322=DIRECTION('center_axis',(0.,-1.,0.));
#1323=DIRECTION('ref_axis',(-0.707106781186546,6.53163369252158E-47,0.707106781186549));
#1324=DIRECTION('',(-9.23712495241712E-47,-1.,0.));
#1325=DIRECTION('center_axis',(0.,1.,0.));
#1326=DIRECTION('ref_axis',(-0.707106781186546,6.53163369252158E-47,0.707106781186549));
#1327=DIRECTION('',(9.23712495241712E-47,1.,0.));
#1328=DIRECTION('center_axis',(0.,0.,-1.));
#1329=DIRECTION('ref_axis',(-1.,0.,0.));
#1330=DIRECTION('',(1.,0.,0.));
#1331=DIRECTION('',(0.,1.,0.));
#1332=DIRECTION('',(-1.,0.,0.));
#1333=DIRECTION('center_axis',(0.,-1.,0.));
#1334=DIRECTION('ref_axis',(1.,0.,0.));
#1335=DIRECTION('',(-2.08166817117216E-17,-6.13068078142107E-46,1.));
#1336=DIRECTION('center_axis',(0.,1.,0.));
#1337=DIRECTION('ref_axis',(-0.707106781186548,6.5316336925216E-47,-0.707106781186547));
#1338=DIRECTION('',(-1.,0.,0.));
#1339=DIRECTION('',(-0.548024370934338,0.,0.836462365478581));
#1340=DIRECTION('',(0.399338577724365,0.,0.916803523303156));
#1341=DIRECTION('',(-0.916803523303113,0.,0.399338577724465));
#1342=DIRECTION('',(-0.399338577724464,0.,-0.916803523303114));
#1343=DIRECTION('center_axis',(0.,1.,0.));
#1344=DIRECTION('ref_axis',(0.916803523303113,0.,-0.399338577724464));
#1345=DIRECTION('center_axis',(0.,-1.,0.));
#1346=DIRECTION('ref_axis',(1.,0.,0.));
#1347=DIRECTION('center_axis',(9.23712495241712E-47,1.,0.));
#1348=DIRECTION('ref_axis',(-0.707106781186548,6.5316336925216E-47,-0.707106781186547));
#1349=DIRECTION('center_axis',(0.,-1.,0.));
#1350=DIRECTION('ref_axis',(-0.707106781186548,6.5316336925216E-47,-0.707106781186547));
#1351=DIRECTION('',(-9.23712495241712E-47,-1.,0.));
#1352=DIRECTION('',(9.23712495241712E-47,1.,0.));
#1353=DIRECTION('center_axis',(0.,0.,1.));
#1354=DIRECTION('ref_axis',(1.,0.,0.));
#1355=DIRECTION('',(1.,0.,0.));
#1356=DIRECTION('',(0.,1.,0.));
#1357=DIRECTION('center_axis',(1.,-9.23712495241712E-47,2.08166817117216E-17));
#1358=DIRECTION('ref_axis',(2.08166817117216E-17,6.13068078142107E-46,-1.));
#1359=DIRECTION('',(2.08166817117216E-17,6.13068078142107E-46,-1.));
#1360=DIRECTION('center_axis',(0.,-1.,0.));
#1361=DIRECTION('ref_axis',(1.,0.,0.));
#1362=DIRECTION('center_axis',(0.,-1.,0.));
#1363=DIRECTION('ref_axis',(0.916803523303113,0.,-0.399338577724464));
#1364=DIRECTION('',(0.399338577724464,0.,0.916803523303114));
#1365=DIRECTION('',(0.916803523303113,0.,-0.399338577724465));
#1366=DIRECTION('',(-0.399338577724365,0.,-0.916803523303156));
#1367=DIRECTION('',(0.548024370934338,0.,-0.836462365478581));
#1368=DIRECTION('center_axis',(0.,1.,0.));
#1369=DIRECTION('ref_axis',(1.,0.,0.));
#1370=DIRECTION('center_axis',(0.,-1.,0.));
#1371=DIRECTION('ref_axis',(1.,0.,0.));
#1372=DIRECTION('',(0.,-1.,0.));
#1373=DIRECTION('center_axis',(0.399338577724465,0.,0.916803523303113));
#1374=DIRECTION('ref_axis',(0.916803523303113,0.,-0.399338577724465));
#1375=DIRECTION('',(0.,-1.,0.));
#1376=DIRECTION('',(0.,1.,0.));
#1377=DIRECTION('center_axis',(0.916803523303156,0.,-0.399338577724365));
#1378=DIRECTION('ref_axis',(-0.399338577724365,0.,-0.916803523303156));
#1379=DIRECTION('',(0.,1.,0.));
#1380=DIRECTION('center_axis',(0.836462365478581,0.,0.548024370934338));
#1381=DIRECTION('ref_axis',(0.548024370934338,0.,-0.836462365478581));
#1382=DIRECTION('center_axis',(0.,-1.,0.));
#1383=DIRECTION('ref_axis',(0.916803523303113,0.,-0.399338577724464));
#1384=DIRECTION('',(0.,1.,0.));
#1385=DIRECTION('center_axis',(-0.916803523303114,0.,0.399338577724464));
#1386=DIRECTION('ref_axis',(0.399338577724464,0.,0.916803523303114));
#1387=DIRECTION('axis',(0.,0.,1.));
#1388=DIRECTION('refdir',(1.,0.,0.));
#1389=DIRECTION('center_axis',(0.,-1.,0.));
#1390=DIRECTION('ref_axis',(0.836462365478706,0.,-0.548024370934147));
#1391=DIRECTION('center_axis',(0.,1.,0.));
#1392=DIRECTION('ref_axis',(0.836462365478706,0.,-0.548024370934147));
#1393=DIRECTION('',(0.,1.,0.));
#1394=DIRECTION('center_axis',(0.,-1.,0.));
#1395=DIRECTION('ref_axis',(0.836462365478706,0.,-0.548024370934147));
#1396=DIRECTION('',(0.,-1.,0.));
#1397=DIRECTION('center_axis',(0.,0.,-1.));
#1398=DIRECTION('ref_axis',(-1.,0.,0.));
#1399=DIRECTION('',(1.,0.,0.));
#1400=DIRECTION('',(-9.23712495241712E-47,-1.,0.));
#1401=DIRECTION('',(-1.,0.,0.));
#1402=DIRECTION('center_axis',(0.,1.,0.));
#1403=DIRECTION('ref_axis',(1.,0.,0.));
#1404=DIRECTION('',(-0.399338577724464,0.,0.916803523303114));
#1405=DIRECTION('',(-0.916803523303113,0.,-0.399338577724465));
#1406=DIRECTION('',(0.399338577724365,0.,-0.916803523303156));
#1407=DIRECTION('',(-0.548024370934338,0.,-0.836462365478581));
#1408=DIRECTION('',(-1.,0.,0.));
#1409=DIRECTION('center_axis',(0.,1.,0.));
#1410=DIRECTION('ref_axis',(-0.707106781186546,6.53163369252161E-47,0.707106781186549));
#1411=DIRECTION('',(-2.08166817117216E-17,-6.13068078142107E-46,-1.));
#1412=DIRECTION('center_axis',(0.,1.,0.));
#1413=DIRECTION('ref_axis',(-0.707106781186548,6.53163369252157E-47,-0.707106781186547));
#1414=DIRECTION('center_axis',(0.,1.,0.));
#1415=DIRECTION('ref_axis',(1.,0.,0.));
#1416=DIRECTION('center_axis',(0.916803523303114,0.,0.399338577724464));
#1417=DIRECTION('ref_axis',(0.399338577724464,0.,-0.916803523303114));
#1418=DIRECTION('',(0.399338577724464,0.,-0.916803523303114));
#1419=DIRECTION('',(0.,-1.,0.));
#1420=DIRECTION('center_axis',(9.23712495241712E-47,1.,0.));
#1421=DIRECTION('ref_axis',(-0.707106781186548,6.53163369252157E-47,-0.707106781186547));
#1422=DIRECTION('center_axis',(0.,-1.,0.));
#1423=DIRECTION('ref_axis',(-0.707106781186548,6.53163369252157E-47,-0.707106781186547));
#1424=DIRECTION('',(9.23712495241712E-47,1.,0.));
#1425=DIRECTION('center_axis',(-1.,9.23712495241712E-47,2.08166817117216E-17));
#1426=DIRECTION('ref_axis',(2.08166817117216E-17,6.13068078142107E-46,1.));
#1427=DIRECTION('',(-9.23712495241712E-47,-1.,0.));
#1428=DIRECTION('',(2.08166817117216E-17,6.13068078142107E-46,1.));
#1429=DIRECTION('center_axis',(9.23712495241712E-47,1.,0.));
#1430=DIRECTION('ref_axis',(-0.707106781186546,6.53163369252161E-47,0.707106781186549));
#1431=DIRECTION('center_axis',(0.,-1.,0.));
#1432=DIRECTION('ref_axis',(-0.707106781186546,6.53163369252161E-47,0.707106781186549));
#1433=DIRECTION('',(9.23712495241712E-47,1.,0.));
#1434=DIRECTION('center_axis',(0.,0.,1.));
#1435=DIRECTION('ref_axis',(1.,0.,0.));
#1436=DIRECTION('',(0.,1.,0.));
#1437=DIRECTION('',(1.,0.,0.));
#1438=DIRECTION('center_axis',(0.,1.,0.));
#1439=DIRECTION('ref_axis',(1.,0.,0.));
#1440=DIRECTION('',(0.548024370934338,0.,0.836462365478581));
#1441=DIRECTION('',(-0.399338577724365,0.,0.916803523303156));
#1442=DIRECTION('',(0.916803523303113,0.,0.399338577724465));
#1443=DIRECTION('center_axis',(0.,-1.,0.));
#1444=DIRECTION('ref_axis',(1.,0.,0.));
#1445=DIRECTION('center_axis',(0.,1.,0.));
#1446=DIRECTION('ref_axis',(1.,0.,0.));
#1447=DIRECTION('',(0.,-1.,0.));
#1448=DIRECTION('center_axis',(-0.399338577724465,0.,0.916803523303113));
#1449=DIRECTION('ref_axis',(0.916803523303113,0.,0.399338577724465));
#1450=DIRECTION('',(0.,1.,0.));
#1451=DIRECTION('center_axis',(-0.916803523303156,0.,-0.399338577724365));
#1452=DIRECTION('ref_axis',(-0.399338577724365,0.,0.916803523303156));
#1453=DIRECTION('',(0.,1.,0.));
#1454=DIRECTION('center_axis',(-0.836462365478581,0.,0.548024370934338));
#1455=DIRECTION('ref_axis',(0.548024370934338,0.,0.836462365478581));
#1456=DIRECTION('center_axis',(-0.287445344923439,2.00052446327528E-17,
-0.957797042009342));
#1457=DIRECTION('ref_axis',(-0.957797042009342,-7.62490996132271E-17,0.287445344923439));
#1458=DIRECTION('',(-0.957797042009342,-7.62490996132271E-17,0.287445344923439));
#1459=DIRECTION('',(-1.0449157878825E-16,1.,5.2245789394125E-17));
#1460=DIRECTION('',(-0.957797042009342,-7.62490996132271E-17,0.287445344923439));
#1461=DIRECTION('',(-1.0449157878825E-16,1.,5.2245789394125E-17));
#1462=DIRECTION('center_axis',(0.957797042009342,1.15099534031464E-16,-0.287445344923439));
#1463=DIRECTION('ref_axis',(-0.287445344923439,4.10471861918373E-17,-0.957797042009342));
#1464=DIRECTION('',(-0.287445344923439,4.10471861918373E-17,-0.957797042009342));
#1465=DIRECTION('',(-0.287445344923439,4.10471861918373E-17,-0.957797042009342));
#1466=DIRECTION('',(-1.0449157878825E-16,1.,5.2245789394125E-17));
#1467=DIRECTION('center_axis',(0.287445344923439,-2.00052446327527E-17,
0.957797042009342));
#1468=DIRECTION('ref_axis',(0.957797042009342,7.62490996132271E-17,-0.287445344923439));
#1469=DIRECTION('',(0.957797042009342,7.62490996132271E-17,-0.287445344923439));
#1470=DIRECTION('',(0.957797042009342,7.62490996132271E-17,-0.287445344923439));
#1471=DIRECTION('',(-1.0449157878825E-16,1.,5.2245789394125E-17));
#1472=DIRECTION('center_axis',(-0.957797042009342,-1.15099534031464E-16,
0.287445344923439));
#1473=DIRECTION('ref_axis',(0.287445344923439,-4.10471861918373E-17,0.957797042009342));
#1474=DIRECTION('',(-0.287445344923439,4.10471861918373E-17,-0.957797042009342));
#1475=DIRECTION('',(0.287445344923439,-4.10471861918373E-17,0.957797042009342));
#1476=DIRECTION('center_axis',(6.12323394723753E-17,-1.,-6.12323222557742E-17));
#1477=DIRECTION('ref_axis',(1.,6.12323394723753E-17,0.));
#1478=DIRECTION('center_axis',(-1.0449157878825E-16,1.,5.2245789394125E-17));
#1479=DIRECTION('ref_axis',(0.,-5.2245789394125E-17,1.));
#1480=DIRECTION('',(1.27755185833061E-30,1.45463972819138E-15,1.));
#1481=DIRECTION('',(1.,4.99600361081318E-16,-3.74591540114121E-31));
#1482=DIRECTION('',(-6.12323399573688E-17,-1.20971036836191E-15,-1.));
#1483=DIRECTION('',(1.,4.99600361081318E-16,-6.12323399573697E-17));
#1484=DIRECTION('',(-0.0929376221862673,-1.59521449575315E-16,-0.995671933109678));
#1485=DIRECTION('',(-0.995671933109678,-1.05015262922522E-15,0.0929376221862673));
#1486=DIRECTION('',(-0.0941580338596563,3.09345325041777E-18,0.995557263375482));
#1487=DIRECTION('',(0.995557263375484,6.10814042690786E-17,0.0941580338596565));
#1488=CARTESIAN_POINT('',(0.,0.,0.));
#1489=CARTESIAN_POINT('',(0.,0.,0.));
#1490=CARTESIAN_POINT('Origin',(-2.59459168785142E-44,-1.44328993201271E-14,
53.));
#1491=CARTESIAN_POINT('',(-5.,-7.60796628437434E-15,53.));
#1492=CARTESIAN_POINT('Origin',(-2.59459168785142E-44,-1.44328993201271E-14,
53.));
#1493=CARTESIAN_POINT('',(-2.5,-1.41839495076014E-14,53.));
#1494=CARTESIAN_POINT('Origin',(-3.28429327576129E-44,-1.38777878078145E-14,
53.));
#1495=CARTESIAN_POINT('Origin',(-2.24754924068473E-31,-3.09322988616514E-15,
48.6));
#1496=CARTESIAN_POINT('',(-5.,-1.08081736863953E-14,55.2));
#1497=CARTESIAN_POINT('Origin',(-4.49509848136964E-31,-1.61784669939567E-14,
55.2));
#1498=CARTESIAN_POINT('',(-5.,-1.20755148033223E-15,48.6));
#1499=CARTESIAN_POINT('Origin',(-4.49509848136964E-31,-1.61784669939567E-14,
55.2));
#1500=CARTESIAN_POINT('Origin',(-40.,-40.,0.));
#1501=CARTESIAN_POINT('',(-40.,-40.,-42.6));
#1502=CARTESIAN_POINT('',(40.,-40.,-42.6));
#1503=CARTESIAN_POINT('',(-40.,-40.,-42.6));
#1504=CARTESIAN_POINT('',(-40.,-40.,-45.));
#1505=CARTESIAN_POINT('',(-40.,-40.,0.));
#1506=CARTESIAN_POINT('',(40.,-40.,-45.));
#1507=CARTESIAN_POINT('',(-40.,-40.,-45.));
#1508=CARTESIAN_POINT('',(40.,-40.,0.));
#1509=CARTESIAN_POINT('Origin',(-40.,40.,0.));
#1510=CARTESIAN_POINT('',(-40.,40.,-42.6));
#1511=CARTESIAN_POINT('',(-40.,40.,-42.6));
#1512=CARTESIAN_POINT('',(-40.,40.,-45.));
#1513=CARTESIAN_POINT('',(-40.,40.,0.));
#1514=CARTESIAN_POINT('',(-40.,40.,-45.));
#1515=CARTESIAN_POINT('Origin',(40.,40.,0.));
#1516=CARTESIAN_POINT('',(40.,40.,-42.6));
#1517=CARTESIAN_POINT('',(40.,40.,-42.6));
#1518=CARTESIAN_POINT('',(40.,40.,-45.));
#1519=CARTESIAN_POINT('',(40.,40.,0.));
#1520=CARTESIAN_POINT('',(40.,40.,-45.));
#1521=CARTESIAN_POINT('Origin',(40.,-40.,0.));
#1522=CARTESIAN_POINT('',(40.,-40.,-42.6));
#1523=CARTESIAN_POINT('',(40.,-40.,-45.));
#1524=CARTESIAN_POINT('Origin',(-2.10194769648723E-46,-5.55111512312579E-16,
-42.6));
#1525=CARTESIAN_POINT('',(-2.5,-8.61273212099417E-16,-42.6));
#1526=CARTESIAN_POINT('Origin',(-2.10194769648723E-46,-5.55111512312579E-16,
-42.6));
#1527=CARTESIAN_POINT('Origin',(0.,0.,0.));
#1528=CARTESIAN_POINT('',(-2.5,-3.06161699786838E-16,0.));
#1529=CARTESIAN_POINT('Origin',(0.,-5.55111512312578E-16,-45.));
#1530=CARTESIAN_POINT('Origin',(33.5143973790985,-39.9867448722229,8.65739789762503));
#1531=CARTESIAN_POINT('',(32.0143973790985,-39.9867448722229,8.65739789762503));
#1532=CARTESIAN_POINT('Origin',(33.5143973790985,-39.9867448722229,8.65739789762503));
#1533=CARTESIAN_POINT('Origin',(33.5143973790986,-4.98674487222291,8.65739789762508));
#1534=CARTESIAN_POINT('',(32.0143973790986,40.0132551277771,8.65739789762514));
#1535=CARTESIAN_POINT('Origin',(33.5143973790986,40.0132551277771,8.65739789762514));
#1536=CARTESIAN_POINT('',(32.0143973790986,-4.98674487222291,8.65739789762508));
#1537=CARTESIAN_POINT('Origin',(33.5143973790986,40.0132551277771,8.65739789762514));
#1538=CARTESIAN_POINT('Origin',(-33.5143973790985,-39.9867448722229,8.65739789762503));
#1539=CARTESIAN_POINT('',(-32.0143973790985,-39.9867448722229,8.65739789762503));
#1540=CARTESIAN_POINT('Origin',(-33.5143973790985,-39.9867448722229,8.65739789762503));
#1541=CARTESIAN_POINT('Origin',(-33.5143973790986,-4.98674487222291,8.65739789762508));
#1542=CARTESIAN_POINT('',(-32.0143973790986,40.0132551277771,8.65739789762514));
#1543=CARTESIAN_POINT('Origin',(-33.5143973790986,40.0132551277771,8.65739789762514));
#1544=CARTESIAN_POINT('',(-32.0143973790986,-4.98674487222291,8.65739789762508));
#1545=CARTESIAN_POINT('Origin',(-33.5143973790986,40.0132551277771,8.65739789762514));
#1546=CARTESIAN_POINT('',(0.,0.,0.));
#1547=CARTESIAN_POINT('Ctrl Pts',(15.,3.36670083637769E-15,25.8));
#1548=CARTESIAN_POINT('Ctrl Pts',(15.,-15.,25.8));
#1549=CARTESIAN_POINT('Ctrl Pts',(1.47170846776018E-29,-15.,25.8));
#1550=CARTESIAN_POINT('Ctrl Pts',(-15.,-15.,25.8));
#1551=CARTESIAN_POINT('Ctrl Pts',(-15.,3.36670083637766E-15,25.8));
#1552=CARTESIAN_POINT('Ctrl Pts',(-15.,15.,25.8));
#1553=CARTESIAN_POINT('Ctrl Pts',(-1.38791231366599E-29,15.,25.8));
#1554=CARTESIAN_POINT('Ctrl Pts',(15.,15.,25.8));
#1555=CARTESIAN_POINT('Ctrl Pts',(15.,3.36670083637769E-15,25.8));
#1556=CARTESIAN_POINT('Ctrl Pts',(10.4502930056488,3.52148233367717E-15,
29.6382691398281));
#1557=CARTESIAN_POINT('Ctrl Pts',(10.4502930056488,-10.4502930056488,29.6382691398281));
#1558=CARTESIAN_POINT('Ctrl Pts',(1.04035065253645E-29,-10.4502930056488,
29.6382691398281));
#1559=CARTESIAN_POINT('Ctrl Pts',(-10.4502930056488,-10.4502930056488,29.6382691398281));
#1560=CARTESIAN_POINT('Ctrl Pts',(-10.4502930056488,3.52148233367715E-15,
29.6382691398281));
#1561=CARTESIAN_POINT('Ctrl Pts',(-10.4502930056488,10.4502930056488,29.6382691398281));
#1562=CARTESIAN_POINT('Ctrl Pts',(-9.31801610516075E-30,10.4502930056488,
29.6382691398281));
#1563=CARTESIAN_POINT('Ctrl Pts',(10.4502930056488,10.4502930056488,29.6382691398281));
#1564=CARTESIAN_POINT('Ctrl Pts',(10.4502930056488,3.52148233367717E-15,
29.6382691398281));
#1565=CARTESIAN_POINT('Ctrl Pts',(4.50000000000002,3.52800426942086E-15,
29.8));
#1566=CARTESIAN_POINT('Ctrl Pts',(4.50000000000002,-4.50000000000002,29.8));
#1567=CARTESIAN_POINT('Ctrl Pts',(4.9853027904326E-30,-4.50000000000002,
29.8));
#1568=CARTESIAN_POINT('Ctrl Pts',(-4.50000000000002,-4.50000000000002,29.8));
#1569=CARTESIAN_POINT('Ctrl Pts',(-4.50000000000002,3.52800426942085E-15,
29.8));
#1570=CARTESIAN_POINT('Ctrl Pts',(-4.50000000000002,4.50000000000002,29.8));
#1571=CARTESIAN_POINT('Ctrl Pts',(-3.88938239330378E-30,4.50000000000003,
29.8));
#1572=CARTESIAN_POINT('Ctrl Pts',(4.50000000000002,4.50000000000002,29.8));
#1573=CARTESIAN_POINT('Ctrl Pts',(4.50000000000002,3.52800426942086E-15,
29.8));
#1574=CARTESIAN_POINT('',(4.50000000000002,2.97691320980455E-15,29.8));
#1575=CARTESIAN_POINT('',(-4.49999999999998,-5.01973873373269E-15,29.8));
#1576=CARTESIAN_POINT('Origin',(2.33146835171286E-14,-2.22044604925042E-15,
29.8));
#1577=CARTESIAN_POINT('Origin',(2.33146835171286E-14,-2.22044604925042E-15,
29.8));
#1578=CARTESIAN_POINT('',(15.,1.52973063765666E-15,25.8));
#1579=CARTESIAN_POINT('Origin',(4.03810516778736,2.34819250987766E-15,12.8062760654418));
#1580=CARTESIAN_POINT('',(-15.,4.18829205308395E-15,25.8));
#1581=CARTESIAN_POINT('Origin',(0.,6.02526225180498E-15,25.8));
#1582=CARTESIAN_POINT('Origin',(0.,6.02526225180498E-15,25.8));
#1583=CARTESIAN_POINT('Origin',(0.,7.00497969112286E-15,29.8));
#1584=CARTESIAN_POINT('',(-15.,-5.1190236204359E-15,-12.1999999999998));
#1585=CARTESIAN_POINT('',(-15.,5.16800949240183E-15,29.8));
#1586=CARTESIAN_POINT('',(15.,7.7940651648563E-14,-12.1999999999997));
#1587=CARTESIAN_POINT('Origin',(0.,-3.28205342171485E-15,-12.1999999999998));
#1588=CARTESIAN_POINT('Origin',(0.,-3.28205342171485E-15,-12.1999999999998));
#1589=CARTESIAN_POINT('Origin',(-5.87343415894097E-14,3.22118719973946E-14,
35.9191972230079));
#1590=CARTESIAN_POINT('',(5.99999999999994,3.03513325350195E-14,32.9191972230079));
#1591=CARTESIAN_POINT('Origin',(-5.5603463870869E-14,3.1086120614508E-14,
32.9191972230079));
#1592=CARTESIAN_POINT('',(8.99999999999994,3.1109689878162E-14,35.9191972230079));
#1593=CARTESIAN_POINT('Origin',(5.99999999999994,3.14770839179062E-14,35.9191972230079));
#1594=CARTESIAN_POINT('',(-9.00000000000006,2.87812162335799E-14,35.9191972230079));
#1595=CARTESIAN_POINT('Origin',(-5.87343415894097E-14,3.22118719973946E-14,
35.9191972230079));
#1596=CARTESIAN_POINT('Origin',(-5.87343415894097E-14,3.22118719973946E-14,
35.9191972230079));
#1597=CARTESIAN_POINT('Origin',(-5.55111512312578E-14,3.10862446895044E-14,
32.8191972230079));
#1598=CARTESIAN_POINT('',(-9.00000000000006,2.98706570581475E-14,38.8191972230079));
#1599=CARTESIAN_POINT('Origin',(-6.17495841825196E-14,3.32648781886468E-14,
38.8191972230079));
#1600=CARTESIAN_POINT('',(-9.00000000000006,2.54876593205399E-14,32.8191972230079));
#1601=CARTESIAN_POINT('Origin',(-5.6621374255883E-14,3.1641356201817E-14,
32.9191972230079));
#1602=CARTESIAN_POINT('',(-4.50000000000006,2.83106871279415E-14,32.9191972230079));
#1603=CARTESIAN_POINT('Origin',(2.13093061348327E-15,5.85391068193353E-15,
32.9191972230079));
#1604=CARTESIAN_POINT('Origin',(-6.43929354282591E-14,3.44169137633799E-14,
38.8191972230079));
#1605=CARTESIAN_POINT('',(-4.50000000000006,3.10862446895044E-14,38.8191972230079));
#1606=CARTESIAN_POINT('Origin',(-6.32827124036339E-14,3.38618022510673E-14,
38.8191972230079));
#1607=CARTESIAN_POINT('Origin',(-5.77315972805081E-14,3.21964677141295E-14,
34.8191972230079));
#1608=CARTESIAN_POINT('',(-4.50000000000006,2.83106871279415E-14,35.0075688967701));
#1609=CARTESIAN_POINT('',(-4.50000000000006,2.93971750296473E-14,34.8191972230079));
#1610=CARTESIAN_POINT('Origin',(-5.88418203051333E-14,3.10862446895044E-14,
35.0075688967701));
#1611=CARTESIAN_POINT('Origin',(1.0769163338864E-13,-2.72004641033163E-14,
35.0075688967701));
#1612=CARTESIAN_POINT('',(-3.,3.91979667979179E-15,35.0075688967702));
#1613=CARTESIAN_POINT('Origin',(9.2148511043888E-14,-1.99840144432528E-14,
35.0075688967701));
#1614=CARTESIAN_POINT('Origin',(2.33146835171283E-14,-2.22044604925031E-15,
29.8000000000001));
#1615=CARTESIAN_POINT('',(-4.49999999999998,-5.01973873373257E-15,29.8));
#1616=CARTESIAN_POINT('Origin',(0.,8.81745695386094E-16,4.8));
#1617=CARTESIAN_POINT('',(9.45345659007903,-4.38538094726937E-14,4.80000000000029));
#1618=CARTESIAN_POINT('Origin',(1.36557432028895E-13,-4.77395900588822E-14,
4.8));
#1619=CARTESIAN_POINT('',(-3.,2.20436423846523E-16,4.8));
#1620=CARTESIAN_POINT('Origin',(0.,5.87830463590729E-16,4.8));
#1621=CARTESIAN_POINT('Origin',(1.36557432028894E-13,-4.77395900588817E-14,
4.80000000000024));
#1622=CARTESIAN_POINT('',(9.45345659007912,-8.04516132557656E-14,-15.1999999999997));
#1623=CARTESIAN_POINT('Origin',(2.29816166097407E-13,-8.43373938419536E-14,
-15.1999999999998));
#1624=CARTESIAN_POINT('',(9.45345659007903,-4.41743542684036E-14,4.80000000000029));
#1625=CARTESIAN_POINT('Origin',(2.29816166097407E-13,-8.32271708173285E-14,
-15.1999999999998));
#1626=CARTESIAN_POINT('',(12.,5.91455923850003E-14,-15.1999999999997));
#1627=CARTESIAN_POINT('Origin',(1.393039565428E-14,-8.77172398917564E-15,
-15.1999999999998));
#1628=CARTESIAN_POINT('Origin',(0.,-3.28205342171485E-15,-12.1999999999998));
#1629=CARTESIAN_POINT('Origin',(12.,-4.75162958069167E-15,-12.1999999999997));
#1630=CARTESIAN_POINT('Origin',(0.,2.93915231795365E-16,2.4));
#1631=CARTESIAN_POINT('',(-3.,-7.34788079488415E-17,2.4));
#1632=CARTESIAN_POINT('',(0.,0.,0.));
#1633=CARTESIAN_POINT('Origin',(13.,2.28693143179933E-45,-4.40000000000011));
#1634=CARTESIAN_POINT('',(13.,55.,-3.40000000000011));
#1635=CARTESIAN_POINT('',(12.,55.,-4.40000000000011));
#1636=CARTESIAN_POINT('Origin',(13.,55.,-4.40000000000011));
#1637=CARTESIAN_POINT('',(12.,-25.,-4.40000000000011));
#1638=CARTESIAN_POINT('',(12.,2.3793026813235E-45,-4.40000000000011));
#1639=CARTESIAN_POINT('',(13.,-25.,-3.40000000000011));
#1640=CARTESIAN_POINT('Origin',(13.,-25.,-4.40000000000011));
#1641=CARTESIAN_POINT('',(13.,2.28693143179933E-45,-3.40000000000011));
#1642=CARTESIAN_POINT('Origin',(41.6392287195646,0.,-3.40000000000011));
#1643=CARTESIAN_POINT('',(41.6392287195646,-25.,-3.40000000000011));
#1644=CARTESIAN_POINT('',(15.,-25.,-3.40000000000011));
#1645=CARTESIAN_POINT('',(41.6392287195646,55.,-3.40000000000011));
#1646=CARTESIAN_POINT('',(41.6392287195646,0.,-3.40000000000011));
#1647=CARTESIAN_POINT('',(15.,55.,-3.40000000000011));
#1648=CARTESIAN_POINT('Origin',(30.200796752059,-25.,-40.1845253005049));
#1649=CARTESIAN_POINT('',(12.,-25.,-4.80000000000011));
#1650=CARTESIAN_POINT('',(12.,-25.,-5.80000000000011));
#1651=CARTESIAN_POINT('',(13.,-25.,-5.80000000000011));
#1652=CARTESIAN_POINT('Origin',(13.,-25.,-4.80000000000011));
#1653=CARTESIAN_POINT('',(31.888404697867,-25.,-5.80000000000011));
#1654=CARTESIAN_POINT('',(31.888404697867,-25.,-5.80000000000011));
#1655=CARTESIAN_POINT('',(39.6706359220305,-25.,-17.6782008314099));
#1656=CARTESIAN_POINT('',(39.6706359220305,-25.,-17.6782008314099));
#1657=CARTESIAN_POINT('',(14.2623647845549,-25.,-76.0106380144711));
#1658=CARTESIAN_POINT('',(14.2623647845549,-25.,-76.0106380144711));
#1659=CARTESIAN_POINT('',(16.4626932404824,-25.,-76.9690506010098));
#1660=CARTESIAN_POINT('',(16.4626932404824,-25.,-76.9690506010098));
#1661=CARTESIAN_POINT('',(45.7648445744272,-25.,-9.69702359975799));
#1662=CARTESIAN_POINT('',(45.7648445744272,-25.,-9.69702359975799));
#1663=CARTESIAN_POINT('Origin',(41.6392287195646,-25.,-7.89999999999853));
#1664=CARTESIAN_POINT('',(37.9831946622034,-25.,-8.6573978976252));
#1665=CARTESIAN_POINT('Origin',(40.4831946622034,-25.,-8.6573978976252));
#1666=CARTESIAN_POINT('Origin',(13.,1.05658201020615E-45,-4.80000000000011));
#1667=CARTESIAN_POINT('',(12.,55.,-4.80000000000011));
#1668=CARTESIAN_POINT('',(13.,55.,-5.80000000000011));
#1669=CARTESIAN_POINT('Origin',(13.,55.,-4.80000000000011));
#1670=CARTESIAN_POINT('',(13.,1.05658201020615E-45,-5.80000000000011));
#1671=CARTESIAN_POINT('',(12.,1.14895325973032E-45,-4.80000000000011));
#1672=CARTESIAN_POINT('Origin',(15.,0.,-5.80000000000011));
#1673=CARTESIAN_POINT('',(31.888404697867,55.,-5.80000000000011));
#1674=CARTESIAN_POINT('',(31.888404697867,55.,-5.80000000000011));
#1675=CARTESIAN_POINT('',(31.888404697867,0.,-5.80000000000011));
#1676=CARTESIAN_POINT('Origin',(12.,2.02079277088812E-45,-3.40000000000011));
#1677=CARTESIAN_POINT('',(12.,55.,-5.80000000000011));
#1678=CARTESIAN_POINT('Origin',(30.200796752059,55.,-40.1845253005049));
#1679=CARTESIAN_POINT('',(45.7648445744272,55.,-9.69702359975799));
#1680=CARTESIAN_POINT('Origin',(41.6392287195646,55.,-7.89999999999853));
#1681=CARTESIAN_POINT('',(16.4626932404824,55.,-76.9690506010098));
#1682=CARTESIAN_POINT('',(45.7648445744272,55.,-9.69702359975799));
#1683=CARTESIAN_POINT('',(14.2623647845549,55.,-76.0106380144711));
#1684=CARTESIAN_POINT('',(16.4626932404824,55.,-76.9690506010098));
#1685=CARTESIAN_POINT('',(39.6706359220305,55.,-17.6782008314099));
#1686=CARTESIAN_POINT('',(14.2623647845549,55.,-76.0106380144711));
#1687=CARTESIAN_POINT('',(39.6706359220305,55.,-17.6782008314099));
#1688=CARTESIAN_POINT('',(37.9831946622034,55.,-8.6573978976252));
#1689=CARTESIAN_POINT('Origin',(40.4831946622034,55.,-8.6573978976252));
#1690=CARTESIAN_POINT('Origin',(40.4831946622034,0.,-8.6573978976252));
#1691=CARTESIAN_POINT('',(37.9831946622034,0.,-8.6573978976252));
#1692=CARTESIAN_POINT('Origin',(14.2623647845549,0.,-76.0106380144711));
#1693=CARTESIAN_POINT('',(16.4626932404824,0.,-76.9690506010098));
#1694=CARTESIAN_POINT('',(14.2623647845549,0.,-76.0106380144711));
#1695=CARTESIAN_POINT('Origin',(39.6706359220305,0.,-17.6782008314099));
#1696=CARTESIAN_POINT('',(39.6706359220305,0.,-17.6782008314099));
#1697=CARTESIAN_POINT('Origin',(31.888404697867,0.,-5.80000000000011));
#1698=CARTESIAN_POINT('Origin',(41.6392287195646,0.,-7.89999999999853));
#1699=CARTESIAN_POINT('',(45.7648445744272,0.,-9.69702359975799));
#1700=CARTESIAN_POINT('Origin',(16.4626932404824,0.,-76.9690506010098));
#1701=CARTESIAN_POINT('',(0.,0.,0.));
#1702=CARTESIAN_POINT('Origin',(39.3497437718776,0.,9.40000000000011));
#1703=CARTESIAN_POINT('',(44.8505649116963,-25.,11.7960314663469));
#1704=CARTESIAN_POINT('',(39.3497437718776,-25.,3.40000000000011));
#1705=CARTESIAN_POINT('Origin',(39.3497437718776,-25.,9.40000000000011));
#1706=CARTESIAN_POINT('',(39.3497437718776,55.,3.40000000000011));
#1707=CARTESIAN_POINT('',(39.3497437718776,0.,3.40000000000011));
#1708=CARTESIAN_POINT('',(44.8505649116963,55.,11.7960314663469));
#1709=CARTESIAN_POINT('Origin',(39.3497437718776,55.,9.40000000000011));
#1710=CARTESIAN_POINT('',(44.8505649116963,0.,11.7960314663469));
#1711=CARTESIAN_POINT('Origin',(41.6392287195646,0.,3.40000000000011));
#1712=CARTESIAN_POINT('',(13.,-25.,3.40000000000011));
#1713=CARTESIAN_POINT('',(15.,-25.,3.40000000000011));
#1714=CARTESIAN_POINT('',(13.,55.,3.40000000000011));
#1715=CARTESIAN_POINT('',(13.,2.28693143179933E-45,3.40000000000011));
#1716=CARTESIAN_POINT('',(15.,55.,3.40000000000011));
#1717=CARTESIAN_POINT('Origin',(30.200796752059,-25.,40.1845253005049));
#1718=CARTESIAN_POINT('',(16.4626932404824,-25.,76.9690506010098));
#1719=CARTESIAN_POINT('',(45.7648445744272,-25.,9.69702359975799));
#1720=CARTESIAN_POINT('',(14.2623647845549,-25.,76.0106380144711));
#1721=CARTESIAN_POINT('',(16.4626932404824,-25.,76.9690506010098));
#1722=CARTESIAN_POINT('',(39.6706359220305,-25.,17.6782008314099));
#1723=CARTESIAN_POINT('',(14.2623647845549,-25.,76.0106380144711));
#1724=CARTESIAN_POINT('',(31.888404697867,-25.,5.80000000000011));
#1725=CARTESIAN_POINT('',(39.6706359220305,-25.,17.6782008314099));
#1726=CARTESIAN_POINT('',(13.,-25.,5.80000000000011));
#1727=CARTESIAN_POINT('',(31.888404697867,-25.,5.80000000000011));
#1728=CARTESIAN_POINT('',(12.,-25.,4.80000000000011));
#1729=CARTESIAN_POINT('Origin',(13.,-25.,4.80000000000011));
#1730=CARTESIAN_POINT('',(12.,-25.,4.40000000000011));
#1731=CARTESIAN_POINT('',(12.,-25.,5.80000000000011));
#1732=CARTESIAN_POINT('Origin',(13.,-25.,4.40000000000011));
#1733=CARTESIAN_POINT('',(37.9831946622034,-25.,8.6573978976252));
#1734=CARTESIAN_POINT('Origin',(40.4831946622034,-25.,8.6573978976252));
#1735=CARTESIAN_POINT('Origin',(16.4626932404824,0.,76.9690506010098));
#1736=CARTESIAN_POINT('',(16.4626932404824,55.,76.9690506010098));
#1737=CARTESIAN_POINT('',(45.7648445744272,55.,9.69702359975799));
#1738=CARTESIAN_POINT('',(16.4626932404824,0.,76.9690506010098));
#1739=CARTESIAN_POINT('Origin',(13.,2.28693143179933E-45,4.40000000000011));
#1740=CARTESIAN_POINT('',(12.,55.,4.40000000000011));
#1741=CARTESIAN_POINT('Origin',(13.,55.,4.40000000000011));
#1742=CARTESIAN_POINT('',(12.,2.3793026813235E-45,4.40000000000011));
#1743=CARTESIAN_POINT('Origin',(12.,2.02079277088812E-45,3.40000000000011));
#1744=CARTESIAN_POINT('',(12.,55.,4.80000000000011));
#1745=CARTESIAN_POINT('',(12.,1.14895325973032E-45,4.80000000000011));
#1746=CARTESIAN_POINT('',(12.,55.,5.80000000000011));
#1747=CARTESIAN_POINT('Origin',(13.,1.05658201020615E-45,4.80000000000011));
#1748=CARTESIAN_POINT('',(13.,55.,5.80000000000011));
#1749=CARTESIAN_POINT('Origin',(13.,55.,4.80000000000011));
#1750=CARTESIAN_POINT('',(13.,1.05658201020615E-45,5.80000000000011));
#1751=CARTESIAN_POINT('Origin',(15.,0.,5.80000000000011));
#1752=CARTESIAN_POINT('',(31.888404697867,55.,5.80000000000011));
#1753=CARTESIAN_POINT('',(31.888404697867,0.,5.80000000000011));
#1754=CARTESIAN_POINT('',(31.888404697867,55.,5.80000000000011));
#1755=CARTESIAN_POINT('Origin',(30.200796752059,55.,40.1845253005049));
#1756=CARTESIAN_POINT('',(39.6706359220305,55.,17.6782008314099));
#1757=CARTESIAN_POINT('',(39.6706359220305,55.,17.6782008314099));
#1758=CARTESIAN_POINT('',(14.2623647845549,55.,76.0106380144711));
#1759=CARTESIAN_POINT('',(14.2623647845549,55.,76.0106380144711));
#1760=CARTESIAN_POINT('',(16.4626932404824,55.,76.9690506010098));
#1761=CARTESIAN_POINT('',(37.9831946622034,55.,8.6573978976252));
#1762=CARTESIAN_POINT('Origin',(40.4831946622034,55.,8.6573978976252));
#1763=CARTESIAN_POINT('Origin',(40.4831946622034,0.,8.6573978976252));
#1764=CARTESIAN_POINT('',(37.9831946622034,0.,8.6573978976252));
#1765=CARTESIAN_POINT('Origin',(14.2623647845549,0.,76.0106380144711));
#1766=CARTESIAN_POINT('',(14.2623647845549,0.,76.0106380144711));
#1767=CARTESIAN_POINT('Origin',(39.6706359220305,0.,17.6782008314099));
#1768=CARTESIAN_POINT('',(39.6706359220305,0.,17.6782008314099));
#1769=CARTESIAN_POINT('Origin',(31.888404697867,0.,5.80000000000011));
#1770=CARTESIAN_POINT('Origin',(46.3483178893873,-35.,3.14330583980926));
#1771=CARTESIAN_POINT('',(46.3483178893873,-35.,3.14330583980926));
#1772=CARTESIAN_POINT('',(44.4852112040684,-35.,3.70244448850162));
#1773=CARTESIAN_POINT('',(46.3483178893873,-35.,3.14330583980926));
#1774=CARTESIAN_POINT('',(44.4852112040684,50.,3.70244448850162));
#1775=CARTESIAN_POINT('',(44.4852112040684,-35.,3.70244448850162));
#1776=CARTESIAN_POINT('',(46.3483178893872,50.,3.14330583980926));
#1777=CARTESIAN_POINT('',(46.3483178893872,50.,3.14330583980926));
#1778=CARTESIAN_POINT('',(46.3483178893873,-35.,3.14330583980926));
#1779=CARTESIAN_POINT('Origin',(51.0302185016684,-35.,18.7438735185762));
#1780=CARTESIAN_POINT('',(51.0302185016684,-35.,18.7438735185762));
#1781=CARTESIAN_POINT('',(51.0302185016684,-35.,18.7438735185762));
#1782=CARTESIAN_POINT('',(51.0302185016684,50.,18.7438735185762));
#1783=CARTESIAN_POINT('',(51.0302185016684,50.,18.7438735185762));
#1784=CARTESIAN_POINT('',(51.0302185016684,-35.,18.7438735185762));
#1785=CARTESIAN_POINT('Origin',(49.1671118163496,-35.,19.3030121672685));
#1786=CARTESIAN_POINT('',(49.1671118163496,-35.,19.3030121672685));
#1787=CARTESIAN_POINT('',(49.1671118163496,-35.,19.3030121672685));
#1788=CARTESIAN_POINT('',(49.1671118163495,50.,19.3030121672685));
#1789=CARTESIAN_POINT('',(49.1671118163495,50.,19.3030121672685));
#1790=CARTESIAN_POINT('',(49.1671118163496,-35.,19.3030121672685));
#1791=CARTESIAN_POINT('Origin',(44.4852112040684,-35.,3.70244448850162));
#1792=CARTESIAN_POINT('',(49.1671118163496,-35.,19.3030121672685));
#1793=CARTESIAN_POINT('',(49.1671118163495,50.,19.3030121672685));
#1794=CARTESIAN_POINT('Origin',(41.0162426283547,-35.,40.0760542905564));
#1795=CARTESIAN_POINT('Origin',(41.0162426283547,50.,40.0760542905564));
#1796=CARTESIAN_POINT('',(6.96879728310483,4.98674487222288,1.08404681546876E-13));
#1797=CARTESIAN_POINT('',(6.96879728310481,4.98674487222292,32.8983981836143));
#1798=CARTESIAN_POINT('',(12.9577826168529,-10.,-3.72494205321217));
#1799=CARTESIAN_POINT('',(0.995019735984375,-9.99999999999998,-3.77335547503819));
#1800=UNCERTAINTY_MEASURE_WITH_UNIT(LENGTH_MEASURE(0.01),#1812,
'DISTANCE_ACCURACY_VALUE',
'Maximum model space distance between geometric entities at asserted c
onnectivities');
#1801=UNCERTAINTY_MEASURE_WITH_UNIT(LENGTH_MEASURE(0.01),#1812,
'DISTANCE_ACCURACY_VALUE',
'Maximum model space distance between geometric entities at asserted c
onnectivities');
#1802=UNCERTAINTY_MEASURE_WITH_UNIT(LENGTH_MEASURE(0.01),#1812,
'DISTANCE_ACCURACY_VALUE',
'Maximum model space distance between geometric entities at asserted c
onnectivities');
#1803=UNCERTAINTY_MEASURE_WITH_UNIT(LENGTH_MEASURE(0.01),#1812,
'DISTANCE_ACCURACY_VALUE',
'Maximum model space distance between geometric entities at asserted c
onnectivities');
#1804=UNCERTAINTY_MEASURE_WITH_UNIT(LENGTH_MEASURE(0.01),#1812,
'DISTANCE_ACCURACY_VALUE',
'Maximum model space distance between geometric entities at asserted c
onnectivities');
#1805=UNCERTAINTY_MEASURE_WITH_UNIT(LENGTH_MEASURE(0.01),#1812,
'DISTANCE_ACCURACY_VALUE',
'Maximum model space distance between geometric entities at asserted c
onnectivities');
#1806=(
GEOMETRIC_REPRESENTATION_CONTEXT(3)
GLOBAL_UNCERTAINTY_ASSIGNED_CONTEXT((#1800))
GLOBAL_UNIT_ASSIGNED_CONTEXT((#1812,#1814,#1815))
REPRESENTATION_CONTEXT('','3D')
);
#1807=(
GEOMETRIC_REPRESENTATION_CONTEXT(3)
GLOBAL_UNCERTAINTY_ASSIGNED_CONTEXT((#1801))
GLOBAL_UNIT_ASSIGNED_CONTEXT((#1812,#1814,#1815))
REPRESENTATION_CONTEXT('','3D')
);
#1808=(
GEOMETRIC_REPRESENTATION_CONTEXT(3)
GLOBAL_UNCERTAINTY_ASSIGNED_CONTEXT((#1802))
GLOBAL_UNIT_ASSIGNED_CONTEXT((#1812,#1814,#1815))
REPRESENTATION_CONTEXT('','3D')
);
#1809=(
GEOMETRIC_REPRESENTATION_CONTEXT(3)
GLOBAL_UNCERTAINTY_ASSIGNED_CONTEXT((#1803))
GLOBAL_UNIT_ASSIGNED_CONTEXT((#1812,#1814,#1815))
REPRESENTATION_CONTEXT('','3D')
);
#1810=(
GEOMETRIC_REPRESENTATION_CONTEXT(3)
GLOBAL_UNCERTAINTY_ASSIGNED_CONTEXT((#1804))
GLOBAL_UNIT_ASSIGNED_CONTEXT((#1812,#1814,#1815))
REPRESENTATION_CONTEXT('','3D')
);
#1811=(
GEOMETRIC_REPRESENTATION_CONTEXT(3)
GLOBAL_UNCERTAINTY_ASSIGNED_CONTEXT((#1805))
GLOBAL_UNIT_ASSIGNED_CONTEXT((#1812,#1814,#1815))
REPRESENTATION_CONTEXT('','3D')
);
#1812=(
LENGTH_UNIT()
NAMED_UNIT(*)
SI_UNIT(.MILLI.,.METRE.)
);
#1813=(
LENGTH_UNIT()
NAMED_UNIT(*)
SI_UNIT($,.METRE.)
);
#1814=(
NAMED_UNIT(*)
PLANE_ANGLE_UNIT()
SI_UNIT($,.RADIAN.)
);
#1815=(
NAMED_UNIT(*)
SI_UNIT($,.STERADIAN.)
SOLID_ANGLE_UNIT()
);
#1816=SHAPE_DEFINITION_REPRESENTATION(#1821,#1830);
#1817=SHAPE_DEFINITION_REPRESENTATION(#1822,#1831);
#1818=SHAPE_DEFINITION_REPRESENTATION(#1823,#1832);
#1819=SHAPE_DEFINITION_REPRESENTATION(#1824,#1833);
#1820=SHAPE_DEFINITION_REPRESENTATION(#1825,#1834);
#1821=PRODUCT_DEFINITION_SHAPE('',$,#1836);
#1822=PRODUCT_DEFINITION_SHAPE('',$,#1837);
#1823=PRODUCT_DEFINITION_SHAPE('',$,#1838);
#1824=PRODUCT_DEFINITION_SHAPE('',$,#1839);
#1825=PRODUCT_DEFINITION_SHAPE('',$,#1840);
#1826=PRODUCT_DEFINITION_SHAPE($,$,#23);
#1827=PRODUCT_DEFINITION_SHAPE($,$,#24);
#1828=PRODUCT_DEFINITION_SHAPE($,$,#25);
#1829=PRODUCT_DEFINITION_SHAPE($,$,#26);
#1830=SHAPE_REPRESENTATION('',(#1059,#1170,#1171,#1172,#1173),#1806);
#1831=SHAPE_REPRESENTATION('',(#1060),#1807);
#1832=SHAPE_REPRESENTATION('',(#1085),#1808);
#1833=SHAPE_REPRESENTATION('',(#1120),#1809);
#1834=SHAPE_REPRESENTATION('',(#1142),#1810);
#1835=PRODUCT_DEFINITION_CONTEXT('part definition',#1852,'design');
#1836=PRODUCT_DEFINITION('popup_key_holder','popup_key_holder v7',#1841,
#1835);
#1837=PRODUCT_DEFINITION('base','base',#1842,#1835);
#1838=PRODUCT_DEFINITION('slider','slider',#1843,#1835);
#1839=PRODUCT_DEFINITION('arm(Mirror) (1)','arm(Mirror) (1)',#1844,#1835);
#1840=PRODUCT_DEFINITION('arm(Mirror) (1)(Mirror)',
'arm(Mirror) (1)(Mirror)',#1845,#1835);
#1841=PRODUCT_DEFINITION_FORMATION('',$,#1854);
#1842=PRODUCT_DEFINITION_FORMATION('',$,#1855);
#1843=PRODUCT_DEFINITION_FORMATION('',$,#1856);
#1844=PRODUCT_DEFINITION_FORMATION('',$,#1857);
#1845=PRODUCT_DEFINITION_FORMATION('',$,#1858);
#1846=PRODUCT_RELATED_PRODUCT_CATEGORY('popup_key_holder v7',
'popup_key_holder v7',(#1854));
#1847=PRODUCT_RELATED_PRODUCT_CATEGORY('base','base',(#1855));
#1848=PRODUCT_RELATED_PRODUCT_CATEGORY('slider','slider',(#1856));
#1849=PRODUCT_RELATED_PRODUCT_CATEGORY('arm(Mirror) (1)',
'arm(Mirror) (1)',(#1857));
#1850=PRODUCT_RELATED_PRODUCT_CATEGORY('arm(Mirror) (1)(Mirror)',
'arm(Mirror) (1)(Mirror)',(#1858));
#1851=APPLICATION_PROTOCOL_DEFINITION('international standard',
'automotive_design',2009,#1852);
#1852=APPLICATION_CONTEXT(
'Core Data for Automotive Mechanical Design Process');
#1853=PRODUCT_CONTEXT('part definition',#1852,'mechanical');
#1854=PRODUCT('popup_key_holder','popup_key_holder v7',$,(#1853));
#1855=PRODUCT('base','base',$,(#1853));
#1856=PRODUCT('slider','slider',$,(#1853));
#1857=PRODUCT('arm(Mirror) (1)','arm(Mirror) (1)',$,(#1853));
#1858=PRODUCT('arm(Mirror) (1)(Mirror)','arm(Mirror) (1)(Mirror)',$,(#1853));
#1859=PRESENTATION_STYLE_ASSIGNMENT((#1862));
#1860=PRESENTATION_STYLE_ASSIGNMENT((#1863));
#1861=PRESENTATION_STYLE_ASSIGNMENT((#1864));
#1862=SURFACE_STYLE_USAGE(.BOTH.,#1865);
#1863=SURFACE_STYLE_USAGE(.BOTH.,#1866);
#1864=SURFACE_STYLE_USAGE(.BOTH.,#1867);
#1865=SURFACE_SIDE_STYLE('',(#1868));
#1866=SURFACE_SIDE_STYLE('',(#1869));
#1867=SURFACE_SIDE_STYLE('',(#1870));
#1868=SURFACE_STYLE_FILL_AREA(#1871);
#1869=SURFACE_STYLE_FILL_AREA(#1872);
#1870=SURFACE_STYLE_FILL_AREA(#1873);
#1871=FILL_AREA_STYLE('Steel - Satin',(#1874));
#1872=FILL_AREA_STYLE('Plastic - Matte (White)',(#1875));
#1873=FILL_AREA_STYLE('Plastic - Matte (White) (1)',(#1876));
#1874=FILL_AREA_STYLE_COLOUR('Steel - Satin',#1877);
#1875=FILL_AREA_STYLE_COLOUR('Plastic - Matte (White)',#1878);
#1876=FILL_AREA_STYLE_COLOUR('Plastic - Matte (White) (1)',#1879);
#1877=COLOUR_RGB('Steel - Satin',0.627450980392157,0.627450980392157,0.627450980392157);
#1878=COLOUR_RGB('Plastic - Matte (White)',0.988235294117647,0.682352941176471,
0.733333333333333);
#1879=COLOUR_RGB('Plastic - Matte (White) (1)',0.454901960784314,0.819607843137255,
0.917647058823529);
ENDSEC;
END-ISO-10303-21;
