<svg xmlns="http://www.w3.org/2000/svg" viewBox="0 0 512 512"><defs><linearGradient id="g" x1="0" y1="0" x2="1" y2="1"><stop offset="0" stop-color="#5AC4F2"></stop><stop offset="1" stop-color="#1E9FE0"></stop></linearGradient></defs><rect width="512" height="512" rx="120" fill="url(#g)"></rect><path d="M360 0 L512 0 L512 151 Z" fill="#0A1622"></path><line x1="168" y1="196" x2="262" y2="154" stroke="#0A1622" stroke-width="17" stroke-linecap="round"></line><line x1="262" y1="154" x2="344" y2="226" stroke="#0A1622" stroke-width="17" stroke-linecap="round"></line><line x1="168" y1="196" x2="244" y2="258" stroke="#0A1622" stroke-width="17" stroke-linecap="round"></line><line x1="262" y1="154" x2="244" y2="258" stroke="#0A1622" stroke-width="17" stroke-linecap="round"></line><line x1="344" y1="226" x2="244" y2="258" stroke="#0A1622" stroke-width="17" stroke-linecap="round"></line><line x1="168" y1="196" x2="152" y2="300" stroke="#0A1622" stroke-width="17" stroke-linecap="round"></line><line x1="152" y1="300" x2="244" y2="258" stroke="#0A1622" stroke-width="17" stroke-linecap="round"></line><line x1="244" y1="258" x2="346" y2="324" stroke="#0A1622" stroke-width="17" stroke-linecap="round"></line><line x1="344" y1="226" x2="346" y2="324" stroke="#0A1622" stroke-width="17" stroke-linecap="round"></line><line x1="152" y1="300" x2="236" y2="360" stroke="#0A1622" stroke-width="17" stroke-linecap="round"></line><line x1="244" y1="258" x2="236" y2="360" stroke="#0A1622" stroke-width="17" stroke-linecap="round"></line><line x1="236" y1="360" x2="346" y2="324" stroke="#0A1622" stroke-width="17" stroke-linecap="round"></line><circle cx="168" cy="196" r="25" fill="#0A1622"></circle><circle cx="262" cy="154" r="21" fill="#0A1622"></circle><circle cx="344" cy="226" r="25" fill="#0A1622"></circle><circle cx="244" cy="258" r="33" fill="#0A1622"></circle><circle cx="152" cy="300" r="21" fill="#0A1622"></circle><circle cx="346" cy="324" r="23" fill="#0A1622"></circle><circle cx="236" cy="360" r="25" fill="#0A1622"></circle></svg>