  0
SECTION
  2
HEADER
  9
$ACADVER
  1
AC1014
  9
$HANDSEED
  5
FFFF
  9
$MEASUREMENT
 70
     1
  0
ENDSEC
  0
SECTION
  2
TABLES
  0
TABLE
  2
VPORT
  5
8
330
0
100
AcDbSymbolTable
 70
     4
  0
VPORT
  5
2E
330
8
100
AcDbSymbolTableRecord
100
AcDbViewportTableRecord
  2
*ACTIVE
 70
     0
 10
0.0
 20
0.0
 11
1.0
 21
1.0
 12
210.0
 22
148.5
 13
0.0
 23
0.0
 14
10.0
 24
10.0
 15
10.0
 25
10.0
 16
0.0
 26
0.0
 36
1.0
 17
0.0
 27
0.0
 37
0.0
 40
341.0
 41
1.24
 42
50.0
 43
0.0
 44
0.0
 50
0.0
 51
0.0
 71
     0
 72
   100
 73
     1
 74
     3
 75
     0
 76
     0
 77
     0
 78
     0
  0
ENDTAB
  0
TABLE
  2
LTYPE
  5
5
330
0
100
AcDbSymbolTable
 70
     1
  0
LTYPE
  5
14
330
5
100
AcDbSymbolTableRecord
100
AcDbLinetypeTableRecord
  2
BYBLOCK
 70
     0
  3

 72
    65
 73
     0
 40
0.0
  0
LTYPE
  5
15
330
5
100
AcDbSymbolTableRecord
100
AcDbLinetypeTableRecord
  2
BYLAYER
 70
     0
  3

 72
    65
 73
     0
 40
0.0
  0
LTYPE
  5
16
330
5
100
AcDbSymbolTableRecord
100
AcDbLinetypeTableRecord
  2
CONTINUOUS
 70
     0
  3
Solid line
 72
    65
 73
     0
 40
0.0
  0
ENDTAB
  0
TABLE
  2
LAYER
  5
2
100
AcDbSymbolTable
 70
2
  0
LAYER
  5
50
100
AcDbSymbolTableRecord
100
AcDbLayerTableRecord
  2
0
 70
0
  6
CONTINUOUS
  0
LAYER
  5
51
100
AcDbSymbolTableRecord
100
AcDbLayerTableRecord
  2
Layer_1
 70
0
  6
CONTINUOUS
  0
ENDTAB
  0
TABLE
  2
STYLE
  5
3
330
0
100
AcDbSymbolTable
 70
     1
  0
STYLE
  5
11
330
3
100
AcDbSymbolTableRecord
100
AcDbTextStyleTableRecord
  2
STANDARD
 70
     0
 40
0.0
 41
1.0
 50
0.0
 71
     0
 42
2.5
  3
txt
  4

  0
ENDTAB
  0
TABLE
  2
VIEW
  5
6
330
0
100
AcDbSymbolTable
 70
     0
  0
ENDTAB
  0
TABLE
  2
UCS
  5
7
330
0
100
AcDbSymbolTable
 70
     0
  0
ENDTAB
  0
TABLE
  2
APPID
  5
9
330
0
100
AcDbSymbolTable
 70
     2
  0
APPID
  5
12
330
9
100
AcDbSymbolTableRecord
100
AcDbRegAppTableRecord
  2
ACAD
 70
     0
  0
ENDTAB
  0
TABLE
  2
DIMSTYLE
  5
A
330
0
100
AcDbSymbolTable
 70
     1
  0
DIMSTYLE
105
27
330
A
100
AcDbSymbolTableRecord
100
AcDbDimStyleTableRecord
  2
ISO-25
 70
     0
  3

  4

  5

  6

  7

 40
1.0
 41
2.5
 42
0.625
 43
3.75
 44
1.25
 45
0.0
 46
0.0
 47
0.0
 48
0.0
140
2.5
141
2.5
142
0.0
143
0.03937007874016
144
1.0
145
0.0
146
1.0
147
0.625
 71
     0
 72
     0
 73
     0
 74
     0
 75
     0
 76
     0
 77
     1
 78
     8
170
     0
171
     3
172
     1
173
     0
174
     0
175
     0
176
     0
177
     0
178
     0
270
     2
271
     2
272
     2
273
     2
274
     3
340
11
275
     0
280
     0
281
     0
282
     0
283
     0
284
     8
285
     0
286
     0
287
     3
288
     0
  0
ENDTAB
  0
TABLE
  2
BLOCK_RECORD
  5
1
330
0
100
AcDbSymbolTable
 70
     1
  0
BLOCK_RECORD
  5
1F
330
1
100
AcDbSymbolTableRecord
100
AcDbBlockTableRecord
  2
*MODEL_SPACE
  0
BLOCK_RECORD
  5
1B
330
1
100
AcDbSymbolTableRecord
100
AcDbBlockTableRecord
  2
*PAPER_SPACE
  0
ENDTAB
  0
ENDSEC
  0
SECTION
  2
BLOCKS
  0
BLOCK
  5
20
330
1F
100
AcDbEntity
  8
0
100
AcDbBlockBegin
  2
*MODEL_SPACE
 70
     0
 10
0.0
 20
0.0
 30
0.0
  3
*MODEL_SPACE
  1

  0
ENDBLK
  5
21
330
1F
100
AcDbEntity
  8
0
100
AcDbBlockEnd
  0
BLOCK
  5
1C
330
1B
100
AcDbEntity
 67
     1
  8
0
100
AcDbBlockBegin
  2
*PAPER_SPACE
  1

  0
ENDBLK
  5
1D
330
1B
100
AcDbEntity
 67
     1
  8
0
100
AcDbBlockEnd
  0
ENDSEC
  0
SECTION
  2
ENTITIES
  0
LWPOLYLINE
  5
100
100
AcDbEntity
  8
Layer_1
 62
7
100
AcDbPolyline
 90
4
 70
1
 10
132.066501
 20
8.066500
 30
0.0
 10
140.066501
 20
8.066500
 30
0.0
 10
140.066501
 20
0.066500
 30
0.0
 10
132.066501
 20
0.066500
 30
0.0
  0
LWPOLYLINE
  5
101
100
AcDbEntity
  8
Layer_1
 62
7
100
AcDbPolyline
 90
4
 70
1
 10
0.066500
 20
253.066510
 30
0.0
 10
8.066500
 20
253.066510
 30
0.0
 10
8.066500
 20
245.066510
 30
0.0
 10
0.066500
 20
245.066510
 30
0.0
  0
LWPOLYLINE
  5
102
100
AcDbEntity
  8
Layer_1
 62
7
100
AcDbPolyline
 90
4
 70
1
 10
0.066500
 20
8.066500
 30
0.0
 10
8.066500
 20
8.066500
 30
0.0
 10
8.066500
 20
0.066500
 30
0.0
 10
0.066500
 20
0.066500
 30
0.0
  0
LWPOLYLINE
  5
103
100
AcDbEntity
  8
Layer_1
 62
7
100
AcDbPolyline
 90
4
 70
1
 10
132.066501
 20
253.066510
 30
0.0
 10
140.066501
 20
253.066510
 30
0.0
 10
140.066501
 20
245.066510
 30
0.0
 10
132.066501
 20
245.066510
 30
0.0
  0
SPLINE
  5
104
100
AcDbEntity
  8
Layer_1
 62
7
100
AcDbSpline
 70
0
 71
3
 72
25
 73
21
 74
19
 40
0.000000
 40
0.000000
 40
0.000000
 40
0.000000
 40
4.278025
 40
8.429166
 40
12.707191
 40
16.985215
 40
21.136355
 40
25.414379
 40
27.556219
 40
29.680333
 40
31.822172
 40
33.964012
 40
36.088126
 40
38.229965
 40
40.371805
 40
42.495920
 40
44.637760
 40
46.779600
 40
48.903715
 40
51.045555
 40
51.045555
 40
51.045555
 40
51.045555
 10
57.315870
 20
126.566535
 30
0.0
 10
57.090986
 20
125.124181
 30
0.0
 10
56.647889
 20
122.282251
 30
0.0
 10
53.390530
 20
119.153621
 30
0.0
 10
49.141303
 20
117.993997
 30
0.0
 10
44.847979
 20
119.154555
 30
0.0
 10
41.720297
 20
122.278603
 30
0.0
 10
40.759895
 20
125.857482
 30
0.0
 10
41.140754
 20
128.707644
 30
0.0
 10
41.966644
 20
130.704547
 30
0.0
 10
43.281545
 20
132.418846
 30
0.0
 10
44.996108
 20
133.733629
 30
0.0
 10
46.991841
 20
134.560255
 30
0.0
 10
49.133844
 20
134.843050
 30
0.0
 10
51.276061
 20
134.560260
 30
0.0
 10
53.271155
 20
133.733612
 30
0.0
 10
54.988078
 20
132.418915
 30
0.0
 10
56.294195
 20
130.704294
 30
0.0
 10
57.152692
 20
128.708587
 30
0.0
 10
57.261327
 20
127.282527
 30
0.0
 10
57.315870
 20
126.566535
 30
0.0
 11
57.315870
 21
126.566535
 31
0.0
 11
56.198786
 21
122.436932
 31
0.0
 11
53.263484
 21
119.501634
 31
0.0
 11
49.133880
 21
118.384555
 31
0.0
 11
45.004276
 21
119.501635
 31
0.0
 11
42.068976
 21
122.436933
 31
0.0
 11
40.951893
 21
126.566535
 31
0.0
 11
41.232211
 21
128.689951
 31
0.0
 11
42.045074
 21
130.652378
 31
0.0
 11
43.348340
 21
132.352076
 31
0.0
 11
45.048037
 21
133.655342
 31
0.0
 11
47.010463
 21
134.468206
 31
0.0
 11
49.133880
 21
134.748525
 31
0.0
 11
51.257296
 21
134.468207
 31
0.0
 11
53.219723
 21
133.655343
 31
0.0
 11
54.919421
 21
132.352077
 31
0.0
 11
56.222688
 21
130.652379
 31
0.0
 11
57.035551
 21
128.689952
 31
0.0
 11
57.315870
 21
126.566535
 31
0.0
  0
LWPOLYLINE
  5
105
100
AcDbEntity
  8
Layer_1
 62
7
100
AcDbPolyline
 90
1
 70
1
 10
57.315870
 20
126.566535
 30
0.0
  0
LWPOLYLINE
  5
106
100
AcDbEntity
  8
Layer_1
 62
7
100
AcDbPolyline
 90
1
 70
1
 10
99.181110
 20
126.566535
 30
0.0
  0
LWPOLYLINE
  5
107
100
AcDbEntity
  8
Layer_1
 62
7
100
AcDbPolyline
 90
4
 70
1
 10
20.128666
 20
144.190840
 30
0.0
 10
20.128666
 20
253.066510
 30
0.0
 10
120.004331
 20
253.066510
 30
0.0
 10
120.004331
 20
144.190840
 30
0.0
  0
LWPOLYLINE
  5
108
100
AcDbEntity
  8
Layer_1
 62
7
100
AcDbPolyline
 90
4
 70
1
 10
20.128666
 20
0.066510
 30
0.0
 10
20.128666
 20
108.942180
 30
0.0
 10
120.004331
 20
108.942180
 30
0.0
 10
120.004331
 20
0.066510
 30
0.0
  0
SPLINE
  5
109
100
AcDbEntity
  8
Layer_1
 62
7
100
AcDbSpline
 70
0
 71
3
 72
22
 73
18
 74
16
 40
0.000000
 40
0.000000
 40
0.000000
 40
0.000000
 40
1.944558
 40
3.831440
 40
5.775998
 40
7.720552
 40
9.607431
 40
11.551986
 40
13.496543
 40
15.383426
 40
17.327983
 40
18.301548
 40
19.267056
 40
20.240621
 40
21.214185
 40
22.179693
 40
23.153258
 40
23.153258
 40
23.153258
 40
23.153258
 10
99.181110
 20
126.566535
 30
0.0
 10
99.078890
 20
125.910922
 30
0.0
 10
98.877484
 20
124.619141
 30
0.0
 10
97.396851
 20
123.196997
 30
0.0
 10
95.465435
 20
122.670052
 30
0.0
 10
93.513737
 20
123.197004
 30
0.0
 10
92.092759
 20
124.619134
 30
0.0
 10
91.565348
 20
126.566575
 30
0.0
 10
92.092952
 20
128.513789
 30
0.0
 10
93.512965
 20
129.936596
 30
0.0
 10
95.139690
 20
130.372865
 30
0.0
 10
96.435310
 20
130.199785
 30
0.0
 10
97.342718
 20
129.824373
 30
0.0
 10
98.122991
 20
129.226692
 30
0.0
 10
98.716721
 20
128.447342
 30
0.0
 10
99.106937
 20
127.540195
 30
0.0
 10
99.156317
 20
126.891986
 30
0.0
 10
99.181110
 20
126.566535
 30
0.0
 11
99.181110
 21
126.566535
 31
0.0
 11
98.673343
 21
124.689443
 31
0.0
 11
97.339114
 21
123.355217
 31
0.0
 11
95.462020
 21
122.847455
 31
0.0
 11
93.584930
 21
123.355220
 31
0.0
 11
92.250704
 21
124.689445
 31
0.0
 11
91.742940
 21
126.566535
 31
0.0
 11
92.250701
 21
128.443629
 31
0.0
 11
93.584927
 21
129.777858
 31
0.0
 11
95.462020
 21
130.285625
 31
0.0
 11
96.427210
 21
130.158208
 31
0.0
 11
97.319224
 21
129.788725
 31
0.0
 11
98.091815
 21
129.196330
 31
0.0
 11
98.684209
 21
128.423739
 31
0.0
 11
99.053693
 21
127.531726
 31
0.0
 11
99.181110
 21
126.566535
 31
0.0
  0
LWPOLYLINE
  5
10a
100
AcDbEntity
  8
Layer_1
 62
7
100
AcDbPolyline
 90
12
 70
1
 10
8.066501
 20
253.066510
 30
0.0
 10
0.066501
 20
253.066540
 30
0.0
 10
0.066501
 20
245.066510
 30
0.0
 10
0.066501
 20
8.066510
 30
0.0
 10
0.066501
 20
0.066540
 30
0.0
 10
8.066501
 20
0.066510
 30
0.0
 10
132.066501
 20
0.066510
 30
0.0
 10
140.066501
 20
0.066570
 30
0.0
 10
140.066501
 20
8.066510
 30
0.0
 10
140.066501
 20
245.066510
 30
0.0
 10
140.066491
 20
253.066570
 30
0.0
 10
132.066501
 20
253.066510
 30
0.0
  0
ENDSEC
  0
SECTION
  2
OBJECTS
  0
DICTIONARY
  5
C
330
0
100
AcDbDictionary
  3
ACAD_GROUP
350
D
  3
ACAD_MLINESTYLE
350
17
  0
DICTIONARY
  5
D
330
C
100
AcDbDictionary
  0
DICTIONARY
  5
1A
330
C
100
AcDbDictionary
  0
DICTIONARY
  5
17
330
C
100
AcDbDictionary
  3
STANDARD
350
18
  0
DICTIONARY
  5
19
330
C
100
AcDbDictionary
  0
ENDSEC
  0
EOF
