  0
SECTION
  2
HEADER
  9
$ACADVER
  1
AC1014
  9
$HANDSEED
  5
FFFF
  9
$MEASUREMENT
 70
     1
  0
ENDSEC
  0
SECTION
  2
TABLES
  0
TABLE
  2
VPORT
  5
8
330
0
100
AcDbSymbolTable
 70
     4
  0
VPORT
  5
2E
330
8
100
AcDbSymbolTableRecord
100
AcDbViewportTableRecord
  2
*ACTIVE
 70
     0
 10
0.0
 20
0.0
 11
1.0
 21
1.0
 12
210.0
 22
148.5
 13
0.0
 23
0.0
 14
10.0
 24
10.0
 15
10.0
 25
10.0
 16
0.0
 26
0.0
 36
1.0
 17
0.0
 27
0.0
 37
0.0
 40
341.0
 41
1.24
 42
50.0
 43
0.0
 44
0.0
 50
0.0
 51
0.0
 71
     0
 72
   100
 73
     1
 74
     3
 75
     0
 76
     0
 77
     0
 78
     0
  0
ENDTAB
  0
TABLE
  2
LTYPE
  5
5
330
0
100
AcDbSymbolTable
 70
     1
  0
LTYPE
  5
14
330
5
100
AcDbSymbolTableRecord
100
AcDbLinetypeTableRecord
  2
BYBLOCK
 70
     0
  3

 72
    65
 73
     0
 40
0.0
  0
LTYPE
  5
15
330
5
100
AcDbSymbolTableRecord
100
AcDbLinetypeTableRecord
  2
BYLAYER
 70
     0
  3

 72
    65
 73
     0
 40
0.0
  0
LTYPE
  5
16
330
5
100
AcDbSymbolTableRecord
100
AcDbLinetypeTableRecord
  2
CONTINUOUS
 70
     0
  3
Solid line
 72
    65
 73
     0
 40
0.0
  0
ENDTAB
  0
TABLE
  2
LAYER
  5
2
100
AcDbSymbolTable
 70
4
  0
LAYER
  5
50
100
AcDbSymbolTableRecord
100
AcDbLayerTableRecord
  2
0
 70
0
  6
CONTINUOUS
  0
LAYER
  5
51
100
AcDbSymbolTableRecord
100
AcDbLayerTableRecord
  2
Through
 70
0
  6
CONTINUOUS
  0
LAYER
  5
52
100
AcDbSymbolTableRecord
100
AcDbLayerTableRecord
  2
Inside
 70
0
  6
CONTINUOUS
  0
LAYER
  5
53
100
AcDbSymbolTableRecord
100
AcDbLayerTableRecord
  2
Outside
 70
0
  6
CONTINUOUS
  0
ENDTAB
  0
TABLE
  2
STYLE
  5
3
330
0
100
AcDbSymbolTable
 70
     1
  0
STYLE
  5
11
330
3
100
AcDbSymbolTableRecord
100
AcDbTextStyleTableRecord
  2
STANDARD
 70
     0
 40
0.0
 41
1.0
 50
0.0
 71
     0
 42
2.5
  3
txt
  4

  0
ENDTAB
  0
TABLE
  2
VIEW
  5
6
330
0
100
AcDbSymbolTable
 70
     0
  0
ENDTAB
  0
TABLE
  2
UCS
  5
7
330
0
100
AcDbSymbolTable
 70
     0
  0
ENDTAB
  0
TABLE
  2
APPID
  5
9
330
0
100
AcDbSymbolTable
 70
     2
  0
APPID
  5
12
330
9
100
AcDbSymbolTableRecord
100
AcDbRegAppTableRecord
  2
ACAD
 70
     0
  0
ENDTAB
  0
TABLE
  2
DIMSTYLE
  5
A
330
0
100
AcDbSymbolTable
 70
     1
  0
DIMSTYLE
105
27
330
A
100
AcDbSymbolTableRecord
100
AcDbDimStyleTableRecord
  2
ISO-25
 70
     0
  3

  4

  5

  6

  7

 40
1.0
 41
2.5
 42
0.625
 43
3.75
 44
1.25
 45
0.0
 46
0.0
 47
0.0
 48
0.0
140
2.5
141
2.5
142
0.0
143
0.03937007874016
144
1.0
145
0.0
146
1.0
147
0.625
 71
     0
 72
     0
 73
     0
 74
     0
 75
     0
 76
     0
 77
     1
 78
     8
170
     0
171
     3
172
     1
173
     0
174
     0
175
     0
176
     0
177
     0
178
     0
270
     2
271
     2
272
     2
273
     2
274
     3
340
11
275
     0
280
     0
281
     0
282
     0
283
     0
284
     8
285
     0
286
     0
287
     3
288
     0
  0
ENDTAB
  0
TABLE
  2
BLOCK_RECORD
  5
1
330
0
100
AcDbSymbolTable
 70
     1
  0
BLOCK_RECORD
  5
1F
330
1
100
AcDbSymbolTableRecord
100
AcDbBlockTableRecord
  2
*MODEL_SPACE
  0
BLOCK_RECORD
  5
1B
330
1
100
AcDbSymbolTableRecord
100
AcDbBlockTableRecord
  2
*PAPER_SPACE
  0
ENDTAB
  0
ENDSEC
  0
SECTION
  2
BLOCKS
  0
BLOCK
  5
20
330
1F
100
AcDbEntity
  8
0
100
AcDbBlockBegin
  2
*MODEL_SPACE
 70
     0
 10
0.0
 20
0.0
 30
0.0
  3
*MODEL_SPACE
  1

  0
ENDBLK
  5
21
330
1F
100
AcDbEntity
  8
0
100
AcDbBlockEnd
  0
BLOCK
  5
1C
330
1B
100
AcDbEntity
 67
     1
  8
0
100
AcDbBlockBegin
  2
*PAPER_SPACE
  1

  0
ENDBLK
  5
1D
330
1B
100
AcDbEntity
 67
     1
  8
0
100
AcDbBlockEnd
  0
ENDSEC
  0
SECTION
  2
ENTITIES
  0
SPLINE
  5
100
100
AcDbEntity
  8
Through
 62
7
100
AcDbSpline
 70
8
 71
3
 72
8
 73
4
 74
0
 40
0
 40
0
 40
0
 40
0
 40
1
 40
1
 40
1
 40
1
 10
425.316589
 20
51.566648
 30
0.0
 10
425.316589
 20
46.222980
 30
0.0
 10
422.465776
 20
41.285228
 30
0.0
 10
417.838025
 20
38.613394
 30
0.0
  0
SPLINE
  5
101
100
AcDbEntity
  8
Through
 62
7
100
AcDbSpline
 70
8
 71
3
 72
8
 73
4
 74
0
 40
0
 40
0
 40
0
 40
0
 40
1
 40
1
 40
1
 40
1
 10
417.838025
 20
38.613394
 30
0.0
 10
413.210273
 20
35.941561
 30
0.0
 10
407.508647
 20
35.941561
 30
0.0
 10
402.880896
 20
38.613394
 30
0.0
  0
SPLINE
  5
102
100
AcDbEntity
  8
Through
 62
7
100
AcDbSpline
 70
8
 71
3
 72
8
 73
4
 74
0
 40
0
 40
0
 40
0
 40
0
 40
1
 40
1
 40
1
 40
1
 10
402.880896
 20
38.613394
 30
0.0
 10
398.253144
 20
41.285228
 30
0.0
 10
395.402331
 20
46.222980
 30
0.0
 10
395.402331
 20
51.566648
 30
0.0
  0
SPLINE
  5
103
100
AcDbEntity
  8
Through
 62
7
100
AcDbSpline
 70
8
 71
3
 72
8
 73
4
 74
0
 40
0
 40
0
 40
0
 40
0
 40
1
 40
1
 40
1
 40
1
 10
395.402331
 20
51.566648
 30
0.0
 10
395.402331
 20
56.910316
 30
0.0
 10
398.253144
 20
61.848068
 30
0.0
 10
402.880896
 20
64.519902
 30
0.0
  0
SPLINE
  5
104
100
AcDbEntity
  8
Through
 62
7
100
AcDbSpline
 70
8
 71
3
 72
8
 73
4
 74
0
 40
0
 40
0
 40
0
 40
0
 40
1
 40
1
 40
1
 40
1
 10
402.880896
 20
64.519902
 30
0.0
 10
407.508647
 20
67.191735
 30
0.0
 10
413.210273
 20
67.191735
 30
0.0
 10
417.838025
 20
64.519902
 30
0.0
  0
SPLINE
  5
105
100
AcDbEntity
  8
Through
 62
7
100
AcDbSpline
 70
8
 71
3
 72
8
 73
4
 74
0
 40
0
 40
0
 40
0
 40
0
 40
1
 40
1
 40
1
 40
1
 10
417.838025
 20
64.519902
 30
0.0
 10
422.465776
 20
61.848068
 30
0.0
 10
425.316589
 20
56.910316
 30
0.0
 10
425.316589
 20
51.566648
 30
0.0
  0
SPLINE
  5
106
100
AcDbEntity
  8
Through
 62
7
100
AcDbSpline
 70
8
 71
3
 72
8
 73
4
 74
0
 40
0
 40
0
 40
0
 40
0
 40
1
 40
1
 40
1
 40
1
 10
425.316589
 20
114.008363
 30
0.0
 10
425.316589
 20
108.664695
 30
0.0
 10
422.465776
 20
103.726943
 30
0.0
 10
417.838025
 20
101.055109
 30
0.0
  0
SPLINE
  5
107
100
AcDbEntity
  8
Through
 62
7
100
AcDbSpline
 70
8
 71
3
 72
8
 73
4
 74
0
 40
0
 40
0
 40
0
 40
0
 40
1
 40
1
 40
1
 40
1
 10
417.838025
 20
101.055109
 30
0.0
 10
413.210273
 20
98.383276
 30
0.0
 10
407.508647
 20
98.383276
 30
0.0
 10
402.880896
 20
101.055109
 30
0.0
  0
SPLINE
  5
108
100
AcDbEntity
  8
Through
 62
7
100
AcDbSpline
 70
8
 71
3
 72
8
 73
4
 74
0
 40
0
 40
0
 40
0
 40
0
 40
1
 40
1
 40
1
 40
1
 10
402.880896
 20
101.055109
 30
0.0
 10
398.253144
 20
103.726943
 30
0.0
 10
395.402331
 20
108.664695
 30
0.0
 10
395.402331
 20
114.008363
 30
0.0
  0
SPLINE
  5
109
100
AcDbEntity
  8
Through
 62
7
100
AcDbSpline
 70
8
 71
3
 72
8
 73
4
 74
0
 40
0
 40
0
 40
0
 40
0
 40
1
 40
1
 40
1
 40
1
 10
395.402331
 20
114.008363
 30
0.0
 10
395.402331
 20
119.352031
 30
0.0
 10
398.253144
 20
124.289783
 30
0.0
 10
402.880896
 20
126.961617
 30
0.0
  0
SPLINE
  5
10a
100
AcDbEntity
  8
Through
 62
7
100
AcDbSpline
 70
8
 71
3
 72
8
 73
4
 74
0
 40
0
 40
0
 40
0
 40
0
 40
1
 40
1
 40
1
 40
1
 10
402.880896
 20
126.961617
 30
0.0
 10
407.508647
 20
129.633450
 30
0.0
 10
413.210273
 20
129.633450
 30
0.0
 10
417.838025
 20
126.961617
 30
0.0
  0
SPLINE
  5
10b
100
AcDbEntity
  8
Through
 62
7
100
AcDbSpline
 70
8
 71
3
 72
8
 73
4
 74
0
 40
0
 40
0
 40
0
 40
0
 40
1
 40
1
 40
1
 40
1
 10
417.838025
 20
126.961617
 30
0.0
 10
422.465776
 20
124.289783
 30
0.0
 10
425.316589
 20
119.352031
 30
0.0
 10
425.316589
 20
114.008363
 30
0.0
  0
LWPOLYLINE
  5
10c
100
AcDbEntity
  8
Through
 62
7
100
AcDbPolyline
 90
1
 70
1
 10
425.316589
 20
51.566648
 30
0.0
  0
LWPOLYLINE
  5
10d
100
AcDbEntity
  8
Through
 62
7
100
AcDbPolyline
 90
1
 70
1
 10
425.316589
 20
114.008363
 30
0.0
  0
SPLINE
  5
10e
100
AcDbEntity
  8
Through
 62
7
100
AcDbSpline
 70
8
 71
3
 72
8
 73
4
 74
0
 40
0
 40
0
 40
0
 40
0
 40
1
 40
1
 40
1
 40
1
 10
303.103750
 20
69.928119
 30
0.0
 10
303.103750
 20
58.086220
 30
0.0
 10
296.786172
 20
47.143854
 30
0.0
 10
286.530787
 20
41.222904
 30
0.0
  0
SPLINE
  5
10f
100
AcDbEntity
  8
Through
 62
7
100
AcDbSpline
 70
8
 71
3
 72
8
 73
4
 74
0
 40
0
 40
0
 40
0
 40
0
 40
1
 40
1
 40
1
 40
1
 10
286.530787
 20
41.222904
 30
0.0
 10
276.275401
 20
35.301955
 30
0.0
 10
263.640245
 20
35.301955
 30
0.0
 10
253.384860
 20
41.222904
 30
0.0
  0
SPLINE
  5
110
100
AcDbEntity
  8
Through
 62
7
100
AcDbSpline
 70
8
 71
3
 72
8
 73
4
 74
0
 40
0
 40
0
 40
0
 40
0
 40
1
 40
1
 40
1
 40
1
 10
253.384860
 20
41.222904
 30
0.0
 10
243.129474
 20
47.143854
 30
0.0
 10
236.811896
 20
58.086220
 30
0.0
 10
236.811896
 20
69.928119
 30
0.0
  0
SPLINE
  5
111
100
AcDbEntity
  8
Through
 62
7
100
AcDbSpline
 70
8
 71
3
 72
8
 73
4
 74
0
 40
0
 40
0
 40
0
 40
0
 40
1
 40
1
 40
1
 40
1
 10
236.811896
 20
69.928119
 30
0.0
 10
236.811896
 20
81.770018
 30
0.0
 10
243.129474
 20
92.712384
 30
0.0
 10
253.384860
 20
98.633334
 30
0.0
  0
SPLINE
  5
112
100
AcDbEntity
  8
Through
 62
7
100
AcDbSpline
 70
8
 71
3
 72
8
 73
4
 74
0
 40
0
 40
0
 40
0
 40
0
 40
1
 40
1
 40
1
 40
1
 10
253.384860
 20
98.633334
 30
0.0
 10
263.640245
 20
104.554283
 30
0.0
 10
276.275401
 20
104.554283
 30
0.0
 10
286.530787
 20
98.633334
 30
0.0
  0
SPLINE
  5
113
100
AcDbEntity
  8
Through
 62
7
100
AcDbSpline
 70
8
 71
3
 72
8
 73
4
 74
0
 40
0
 40
0
 40
0
 40
0
 40
1
 40
1
 40
1
 40
1
 10
286.530787
 20
98.633334
 30
0.0
 10
296.786172
 20
92.712384
 30
0.0
 10
303.103750
 20
81.770018
 30
0.0
 10
303.103750
 20
69.928119
 30
0.0
  0
LWPOLYLINE
  5
114
100
AcDbEntity
  8
Through
 62
7
100
AcDbPolyline
 90
4
 70
1
 10
45.529870
 20
-0.139834
 30
0.0
 10
45.529870
 20
113.612076
 30
0.0
 10
144.432137
 20
113.612076
 30
0.0
 10
144.432137
 20
-0.139834
 30
0.0
  0
SPLINE
  5
115
100
AcDbEntity
  8
Through
 62
7
100
AcDbSpline
 70
8
 71
3
 72
8
 73
4
 74
0
 40
0
 40
0
 40
0
 40
0
 40
1
 40
1
 40
1
 40
1
 10
295.453961
 20
69.928119
 30
0.0
 10
295.453961
 20
60.819226
 30
0.0
 10
290.594425
 20
52.402261
 30
0.0
 10
282.705892
 20
47.847814
 30
0.0
  0
SPLINE
  5
116
100
AcDbEntity
  8
Through
 62
7
100
AcDbSpline
 70
8
 71
3
 72
8
 73
4
 74
0
 40
0
 40
0
 40
0
 40
0
 40
1
 40
1
 40
1
 40
1
 10
282.705892
 20
47.847814
 30
0.0
 10
274.817359
 20
43.293367
 30
0.0
 10
265.098287
 20
43.293367
 30
0.0
 10
257.209754
 20
47.847814
 30
0.0
  0
SPLINE
  5
117
100
AcDbEntity
  8
Through
 62
7
100
AcDbSpline
 70
8
 71
3
 72
8
 73
4
 74
0
 40
0
 40
0
 40
0
 40
0
 40
1
 40
1
 40
1
 40
1
 10
257.209754
 20
47.847814
 30
0.0
 10
249.321221
 20
52.402261
 30
0.0
 10
244.461685
 20
60.819226
 30
0.0
 10
244.461685
 20
69.928119
 30
0.0
  0
SPLINE
  5
118
100
AcDbEntity
  8
Through
 62
7
100
AcDbSpline
 70
8
 71
3
 72
8
 73
4
 74
0
 40
0
 40
0
 40
0
 40
0
 40
1
 40
1
 40
1
 40
1
 10
244.461685
 20
69.928119
 30
0.0
 10
244.461685
 20
79.037012
 30
0.0
 10
249.321221
 20
87.453977
 30
0.0
 10
257.209754
 20
92.008424
 30
0.0
  0
SPLINE
  5
119
100
AcDbEntity
  8
Through
 62
7
100
AcDbSpline
 70
8
 71
3
 72
8
 73
4
 74
0
 40
0
 40
0
 40
0
 40
0
 40
1
 40
1
 40
1
 40
1
 10
257.209754
 20
92.008424
 30
0.0
 10
265.098287
 20
96.562871
 30
0.0
 10
274.817359
 20
96.562871
 30
0.0
 10
282.705892
 20
92.008424
 30
0.0
  0
SPLINE
  5
11a
100
AcDbEntity
  8
Through
 62
7
100
AcDbSpline
 70
8
 71
3
 72
8
 73
4
 74
0
 40
0
 40
0
 40
0
 40
0
 40
1
 40
1
 40
1
 40
1
 10
282.705892
 20
92.008424
 30
0.0
 10
290.594425
 20
87.453977
 30
0.0
 10
295.453961
 20
79.037012
 30
0.0
 10
295.453961
 20
69.928119
 30
0.0
  0
LWPOLYLINE
  5
11b
100
AcDbEntity
  8
Through
 62
7
100
AcDbPolyline
 90
1
 70
1
 10
303.103750
 20
69.928119
 30
0.0
  0
SPLINE
  5
11c
100
AcDbEntity
  8
Through
 62
7
100
AcDbSpline
 70
8
 71
3
 72
8
 73
4
 74
0
 40
0
 40
0
 40
0
 40
0
 40
1
 40
1
 40
1
 40
1
 10
273.565892
 20
69.928118
 30
0.0
 10
273.565892
 20
67.935437
 30
0.0
 10
271.950504
 20
66.320049
 30
0.0
 10
269.957823
 20
66.320049
 30
0.0
  0
SPLINE
  5
11d
100
AcDbEntity
  8
Through
 62
7
100
AcDbSpline
 70
8
 71
3
 72
8
 73
4
 74
0
 40
0
 40
0
 40
0
 40
0
 40
1
 40
1
 40
1
 40
1
 10
269.957823
 20
66.320049
 30
0.0
 10
267.965142
 20
66.320049
 30
0.0
 10
266.349754
 20
67.935437
 30
0.0
 10
266.349754
 20
69.928118
 30
0.0
  0
SPLINE
  5
11e
100
AcDbEntity
  8
Through
 62
7
100
AcDbSpline
 70
8
 71
3
 72
8
 73
4
 74
0
 40
0
 40
0
 40
0
 40
0
 40
1
 40
1
 40
1
 40
1
 10
266.349754
 20
69.928118
 30
0.0
 10
266.349754
 20
71.920799
 30
0.0
 10
267.965142
 20
73.536187
 30
0.0
 10
269.957823
 20
73.536187
 30
0.0
  0
SPLINE
  5
11f
100
AcDbEntity
  8
Through
 62
7
100
AcDbSpline
 70
8
 71
3
 72
8
 73
4
 74
0
 40
0
 40
0
 40
0
 40
0
 40
1
 40
1
 40
1
 40
1
 10
269.957823
 20
73.536187
 30
0.0
 10
271.950504
 20
73.536187
 30
0.0
 10
273.565892
 20
71.920799
 30
0.0
 10
273.565892
 20
69.928118
 30
0.0
  0
LWPOLYLINE
  5
120
100
AcDbEntity
  8
Through
 62
7
100
AcDbPolyline
 90
1
 70
1
 10
295.453961
 20
69.928119
 30
0.0
  0
LWPOLYLINE
  5
121
100
AcDbEntity
  8
Through
 62
7
100
AcDbPolyline
 90
1
 70
1
 10
273.565892
 20
69.928118
 30
0.0
  0
SPLINE
  5
122
100
AcDbEntity
  8
Through
 62
7
100
AcDbSpline
 70
8
 71
3
 72
8
 73
4
 74
0
 40
0
 40
0
 40
0
 40
0
 40
1
 40
1
 40
1
 40
1
 10
302.043870
 20
19.527998
 30
0.0
 10
302.043870
 20
17.404369
 30
0.0
 10
300.910928
 20
15.442055
 30
0.0
 10
299.071812
 20
14.380241
 30
0.0
  0
SPLINE
  5
123
100
AcDbEntity
  8
Through
 62
7
100
AcDbSpline
 70
8
 71
3
 72
8
 73
4
 74
0
 40
0
 40
0
 40
0
 40
0
 40
1
 40
1
 40
1
 40
1
 10
299.071812
 20
14.380241
 30
0.0
 10
297.232695
 20
13.318427
 30
0.0
 10
294.966811
 20
13.318427
 30
0.0
 10
293.127694
 20
14.380241
 30
0.0
  0
SPLINE
  5
124
100
AcDbEntity
  8
Through
 62
7
100
AcDbSpline
 70
8
 71
3
 72
8
 73
4
 74
0
 40
0
 40
0
 40
0
 40
0
 40
1
 40
1
 40
1
 40
1
 10
293.127694
 20
14.380241
 30
0.0
 10
291.288578
 20
15.442055
 30
0.0
 10
290.155636
 20
17.404369
 30
0.0
 10
290.155636
 20
19.527998
 30
0.0
  0
SPLINE
  5
125
100
AcDbEntity
  8
Through
 62
7
100
AcDbSpline
 70
8
 71
3
 72
8
 73
4
 74
0
 40
0
 40
0
 40
0
 40
0
 40
1
 40
1
 40
1
 40
1
 10
290.155636
 20
19.527998
 30
0.0
 10
290.155636
 20
21.651626
 30
0.0
 10
291.288578
 20
23.613940
 30
0.0
 10
293.127694
 20
24.675754
 30
0.0
  0
SPLINE
  5
126
100
AcDbEntity
  8
Through
 62
7
100
AcDbSpline
 70
8
 71
3
 72
8
 73
4
 74
0
 40
0
 40
0
 40
0
 40
0
 40
1
 40
1
 40
1
 40
1
 10
293.127694
 20
24.675754
 30
0.0
 10
294.966811
 20
25.737568
 30
0.0
 10
297.232695
 20
25.737568
 30
0.0
 10
299.071812
 20
24.675754
 30
0.0
  0
SPLINE
  5
127
100
AcDbEntity
  8
Through
 62
7
100
AcDbSpline
 70
8
 71
3
 72
8
 73
4
 74
0
 40
0
 40
0
 40
0
 40
0
 40
1
 40
1
 40
1
 40
1
 10
299.071812
 20
24.675754
 30
0.0
 10
300.910928
 20
23.613940
 30
0.0
 10
302.043870
 20
21.651626
 30
0.0
 10
302.043870
 20
19.527998
 30
0.0
  0
LWPOLYLINE
  5
128
100
AcDbEntity
  8
Through
 62
7
100
AcDbPolyline
 90
4
 70
1
 10
239.570313
 20
128.834425
 30
0.0
 10
300.345345
 20
128.834425
 30
0.0
 10
300.345345
 20
114.559394
 30
0.0
 10
239.570313
 20
114.559394
 30
0.0
  0
SPLINE
  5
129
100
AcDbEntity
  8
Through
 62
1
100
AcDbSpline
 70
8
 71
3
 72
8
 73
4
 74
0
 40
0
 40
0
 40
0
 40
0
 40
1
 40
1
 40
1
 40
1
 10
246.657833
 20
19.527998
 30
0.0
 10
246.657833
 20
17.830986
 30
0.0
 10
245.752488
 20
16.262883
 30
0.0
 10
244.282833
 20
15.414377
 30
0.0
  0
SPLINE
  5
12a
100
AcDbEntity
  8
Through
 62
1
100
AcDbSpline
 70
8
 71
3
 72
8
 73
4
 74
0
 40
0
 40
0
 40
0
 40
0
 40
1
 40
1
 40
1
 40
1
 10
244.282833
 20
15.414377
 30
0.0
 10
242.813178
 20
14.565871
 30
0.0
 10
241.002488
 20
14.565871
 30
0.0
 10
239.532833
 20
15.414377
 30
0.0
  0
SPLINE
  5
12b
100
AcDbEntity
  8
Through
 62
1
100
AcDbSpline
 70
8
 71
3
 72
8
 73
4
 74
0
 40
0
 40
0
 40
0
 40
0
 40
1
 40
1
 40
1
 40
1
 10
239.532833
 20
15.414377
 30
0.0
 10
238.063178
 20
16.262883
 30
0.0
 10
237.157833
 20
17.830986
 30
0.0
 10
237.157833
 20
19.527998
 30
0.0
  0
SPLINE
  5
12c
100
AcDbEntity
  8
Through
 62
1
100
AcDbSpline
 70
8
 71
3
 72
8
 73
4
 74
0
 40
0
 40
0
 40
0
 40
0
 40
1
 40
1
 40
1
 40
1
 10
237.157833
 20
19.527998
 30
0.0
 10
237.157833
 20
21.225009
 30
0.0
 10
238.063178
 20
22.793112
 30
0.0
 10
239.532833
 20
23.641618
 30
0.0
  0
SPLINE
  5
12d
100
AcDbEntity
  8
Through
 62
1
100
AcDbSpline
 70
8
 71
3
 72
8
 73
4
 74
0
 40
0
 40
0
 40
0
 40
0
 40
1
 40
1
 40
1
 40
1
 10
239.532833
 20
23.641618
 30
0.0
 10
241.002488
 20
24.490124
 30
0.0
 10
242.813178
 20
24.490124
 30
0.0
 10
244.282833
 20
23.641618
 30
0.0
  0
SPLINE
  5
12e
100
AcDbEntity
  8
Through
 62
1
100
AcDbSpline
 70
8
 71
3
 72
8
 73
4
 74
0
 40
0
 40
0
 40
0
 40
0
 40
1
 40
1
 40
1
 40
1
 10
244.282833
 20
23.641618
 30
0.0
 10
245.752488
 20
22.793112
 30
0.0
 10
246.657833
 20
21.225009
 30
0.0
 10
246.657833
 20
19.527998
 30
0.0
  0
LWPOLYLINE
  5
12f
100
AcDbEntity
  8
Through
 62
7
100
AcDbPolyline
 90
1
 70
1
 10
302.043870
 20
19.527998
 30
0.0
  0
LWPOLYLINE
  5
130
100
AcDbEntity
  8
Through
 62
1
100
AcDbPolyline
 90
1
 70
1
 10
246.657833
 20
19.527998
 30
0.0
  0
LWPOLYLINE
  5
131
100
AcDbEntity
  8
Inside
 62
7
100
AcDbPolyline
 90
4
 70
1
 10
81.626000
 20
90.463860
 30
0.0
 10
131.579339
 20
90.463860
 30
0.0
 10
131.579339
 20
63.510523
 30
0.0
 10
81.626000
 20
63.510523
 30
0.0
  0
LWPOLYLINE
  5
132
100
AcDbEntity
  8
Inside
 62
7
100
AcDbPolyline
 90
4
 70
1
 10
54.741490
 20
57.171320
 30
0.0
 10
154.681538
 20
57.171320
 30
0.0
 10
154.681538
 20
-42.768721
 30
0.0
 10
54.741490
 20
-42.768721
 30
0.0
  0
LWPOLYLINE
  5
133
100
AcDbEntity
  8
Outside
 62
7
100
AcDbPolyline
 90
4
 70
1
 10
470.211500
 20
165.411820
 30
0.0
 10
0.163180
 20
165.350820
 30
0.0
 10
0.172180
 20
0.194220
 30
0.0
 10
469.898750
 20
0.163180
 30
0.0
  0
LWPOLYLINE
  5
134
100
AcDbEntity
  8
Outside
 62
1
100
AcDbPolyline
 90
4
 70
1
 10
0.163190
 20
165.350820
 30
0.0
 10
5.163190
 20
165.350820
 30
0.0
 10
5.163190
 20
160.350820
 30
0.0
 10
0.163190
 20
160.350820
 30
0.0
  0
LWPOLYLINE
  5
135
100
AcDbEntity
  8
Outside
 62
1
100
AcDbPolyline
 90
4
 70
1
 10
464.898720
 20
5.163182
 30
0.0
 10
469.898720
 20
5.163182
 30
0.0
 10
469.898720
 20
0.163182
 30
0.0
 10
464.898720
 20
0.163182
 30
0.0
  0
LWPOLYLINE
  5
136
100
AcDbEntity
  8
Outside
 62
1
100
AcDbPolyline
 90
4
 70
1
 10
0.172170
 20
5.194218
 30
0.0
 10
5.172170
 20
5.194218
 30
0.0
 10
5.172170
 20
0.194218
 30
0.0
 10
0.172170
 20
0.194218
 30
0.0
  0
LWPOLYLINE
  5
137
100
AcDbEntity
  8
Outside
 62
1
100
AcDbPolyline
 90
4
 70
1
 10
465.211530
 20
165.411820
 30
0.0
 10
470.211530
 20
165.411820
 30
0.0
 10
470.211530
 20
160.411820
 30
0.0
 10
465.211530
 20
160.411820
 30
0.0
  0
ENDSEC
  0
SECTION
  2
OBJECTS
  0
DICTIONARY
  5
C
330
0
100
AcDbDictionary
  3
ACAD_GROUP
350
D
  3
ACAD_MLINESTYLE
350
17
  0
DICTIONARY
  5
D
330
C
100
AcDbDictionary
  0
DICTIONARY
  5
1A
330
C
100
AcDbDictionary
  0
DICTIONARY
  5
17
330
C
100
AcDbDictionary
  3
STANDARD
350
18
  0
DICTIONARY
  5
19
330
C
100
AcDbDictionary
  0
ENDSEC
  0
EOF
