  0
SECTION
  2
HEADER
  9
$ACADVER
  1
AC1014
  9
$HANDSEED
  5
FFFF
  9
$MEASUREMENT
 70
     1
  0
ENDSEC
  0
SECTION
  2
TABLES
  0
TABLE
  2
VPORT
  5
8
330
0
100
AcDbSymbolTable
 70
     4
  0
VPORT
  5
2E
330
8
100
AcDbSymbolTableRecord
100
AcDbViewportTableRecord
  2
*ACTIVE
 70
     0
 10
0.0
 20
0.0
 11
1.0
 21
1.0
 12
210.0
 22
148.5
 13
0.0
 23
0.0
 14
10.0
 24
10.0
 15
10.0
 25
10.0
 16
0.0
 26
0.0
 36
1.0
 17
0.0
 27
0.0
 37
0.0
 40
341.0
 41
1.24
 42
50.0
 43
0.0
 44
0.0
 50
0.0
 51
0.0
 71
     0
 72
   100
 73
     1
 74
     3
 75
     0
 76
     0
 77
     0
 78
     0
  0
ENDTAB
  0
TABLE
  2
LTYPE
  5
5
330
0
100
AcDbSymbolTable
 70
     1
  0
LTYPE
  5
14
330
5
100
AcDbSymbolTableRecord
100
AcDbLinetypeTableRecord
  2
BYBLOCK
 70
     0
  3

 72
    65
 73
     0
 40
0.0
  0
LTYPE
  5
15
330
5
100
AcDbSymbolTableRecord
100
AcDbLinetypeTableRecord
  2
BYLAYER
 70
     0
  3

 72
    65
 73
     0
 40
0.0
  0
LTYPE
  5
16
330
5
100
AcDbSymbolTableRecord
100
AcDbLinetypeTableRecord
  2
CONTINUOUS
 70
     0
  3
Solid line
 72
    65
 73
     0
 40
0.0
  0
ENDTAB
  0
TABLE
  2
LAYER
  5
2
100
AcDbSymbolTable
 70
4
  0
LAYER
  5
50
100
AcDbSymbolTableRecord
100
AcDbLayerTableRecord
  2
0
 70
0
  6
CONTINUOUS
  0
LAYER
  5
51
100
AcDbSymbolTableRecord
100
AcDbLayerTableRecord
  2
Through
 70
0
  6
CONTINUOUS
  0
LAYER
  5
52
100
AcDbSymbolTableRecord
100
AcDbLayerTableRecord
  2
Inside
 70
0
  6
CONTINUOUS
  0
LAYER
  5
53
100
AcDbSymbolTableRecord
100
AcDbLayerTableRecord
  2
Outside
 70
0
  6
CONTINUOUS
  0
ENDTAB
  0
TABLE
  2
STYLE
  5
3
330
0
100
AcDbSymbolTable
 70
     1
  0
STYLE
  5
11
330
3
100
AcDbSymbolTableRecord
100
AcDbTextStyleTableRecord
  2
STANDARD
 70
     0
 40
0.0
 41
1.0
 50
0.0
 71
     0
 42
2.5
  3
txt
  4

  0
ENDTAB
  0
TABLE
  2
VIEW
  5
6
330
0
100
AcDbSymbolTable
 70
     0
  0
ENDTAB
  0
TABLE
  2
UCS
  5
7
330
0
100
AcDbSymbolTable
 70
     0
  0
ENDTAB
  0
TABLE
  2
APPID
  5
9
330
0
100
AcDbSymbolTable
 70
     2
  0
APPID
  5
12
330
9
100
AcDbSymbolTableRecord
100
AcDbRegAppTableRecord
  2
ACAD
 70
     0
  0
ENDTAB
  0
TABLE
  2
DIMSTYLE
  5
A
330
0
100
AcDbSymbolTable
 70
     1
  0
DIMSTYLE
105
27
330
A
100
AcDbSymbolTableRecord
100
AcDbDimStyleTableRecord
  2
ISO-25
 70
     0
  3

  4

  5

  6

  7

 40
1.0
 41
2.5
 42
0.625
 43
3.75
 44
1.25
 45
0.0
 46
0.0
 47
0.0
 48
0.0
140
2.5
141
2.5
142
0.0
143
0.03937007874016
144
1.0
145
0.0
146
1.0
147
0.625
 71
     0
 72
     0
 73
     0
 74
     0
 75
     0
 76
     0
 77
     1
 78
     8
170
     0
171
     3
172
     1
173
     0
174
     0
175
     0
176
     0
177
     0
178
     0
270
     2
271
     2
272
     2
273
     2
274
     3
340
11
275
     0
280
     0
281
     0
282
     0
283
     0
284
     8
285
     0
286
     0
287
     3
288
     0
  0
ENDTAB
  0
TABLE
  2
BLOCK_RECORD
  5
1
330
0
100
AcDbSymbolTable
 70
     1
  0
BLOCK_RECORD
  5
1F
330
1
100
AcDbSymbolTableRecord
100
AcDbBlockTableRecord
  2
*MODEL_SPACE
  0
BLOCK_RECORD
  5
1B
330
1
100
AcDbSymbolTableRecord
100
AcDbBlockTableRecord
  2
*PAPER_SPACE
  0
ENDTAB
  0
ENDSEC
  0
SECTION
  2
BLOCKS
  0
BLOCK
  5
20
330
1F
100
AcDbEntity
  8
0
100
AcDbBlockBegin
  2
*MODEL_SPACE
 70
     0
 10
0.0
 20
0.0
 30
0.0
  3
*MODEL_SPACE
  1

  0
ENDBLK
  5
21
330
1F
100
AcDbEntity
  8
0
100
AcDbBlockEnd
  0
BLOCK
  5
1C
330
1B
100
AcDbEntity
 67
     1
  8
0
100
AcDbBlockBegin
  2
*PAPER_SPACE
  1

  0
ENDBLK
  5
1D
330
1B
100
AcDbEntity
 67
     1
  8
0
100
AcDbBlockEnd
  0
ENDSEC
  0
SECTION
  2
ENTITIES
  0
LWPOLYLINE
  5
100
100
AcDbEntity
  8
Through
 62
7
100
AcDbPolyline
 90
4
 70
1
 10
0.180380
 20
314.882160
 30
0.0
 10
8.079076
 20
314.882160
 30
0.0
 10
8.079076
 20
306.983465
 30
0.0
 10
0.180380
 20
306.983465
 30
0.0
  0
LWPOLYLINE
  5
101
100
AcDbEntity
  8
Through
 62
7
100
AcDbPolyline
 90
4
 70
1
 10
6.571230
 20
8.075566
 30
0.0
 10
14.469926
 20
8.075566
 30
0.0
 10
14.469926
 20
0.176870
 30
0.0
 10
6.571230
 20
0.176870
 30
0.0
  0
LWPOLYLINE
  5
102
100
AcDbEntity
  8
Through
 62
7
100
AcDbPolyline
 90
4
 70
1
 10
275.031720
 20
8.252000
 30
0.0
 10
282.930416
 20
8.252000
 30
0.0
 10
282.930416
 20
0.353305
 30
0.0
 10
275.031720
 20
0.353305
 30
0.0
  0
SPLINE
  5
103
100
AcDbEntity
  8
Through
 62
7
100
AcDbSpline
 70
8
 71
3
 72
8
 73
4
 74
0
 40
0
 40
0
 40
0
 40
0
 40
1
 40
1
 40
1
 40
1
 10
231.277987
 20
212.202004
 30
0.0
 10
231.277987
 20
200.360105
 30
0.0
 10
224.960409
 20
189.417739
 30
0.0
 10
214.705024
 20
183.496789
 30
0.0
  0
SPLINE
  5
104
100
AcDbEntity
  8
Through
 62
7
100
AcDbSpline
 70
8
 71
3
 72
8
 73
4
 74
0
 40
0
 40
0
 40
0
 40
0
 40
1
 40
1
 40
1
 40
1
 10
214.705024
 20
183.496789
 30
0.0
 10
204.449638
 20
177.575840
 30
0.0
 10
191.814482
 20
177.575840
 30
0.0
 10
181.559097
 20
183.496789
 30
0.0
  0
SPLINE
  5
105
100
AcDbEntity
  8
Through
 62
7
100
AcDbSpline
 70
8
 71
3
 72
8
 73
4
 74
0
 40
0
 40
0
 40
0
 40
0
 40
1
 40
1
 40
1
 40
1
 10
181.559097
 20
183.496789
 30
0.0
 10
171.303711
 20
189.417739
 30
0.0
 10
164.986133
 20
200.360105
 30
0.0
 10
164.986133
 20
212.202004
 30
0.0
  0
SPLINE
  5
106
100
AcDbEntity
  8
Through
 62
7
100
AcDbSpline
 70
8
 71
3
 72
8
 73
4
 74
0
 40
0
 40
0
 40
0
 40
0
 40
1
 40
1
 40
1
 40
1
 10
164.986133
 20
212.202004
 30
0.0
 10
164.986133
 20
224.043903
 30
0.0
 10
171.303711
 20
234.986269
 30
0.0
 10
181.559097
 20
240.907219
 30
0.0
  0
SPLINE
  5
107
100
AcDbEntity
  8
Through
 62
7
100
AcDbSpline
 70
8
 71
3
 72
8
 73
4
 74
0
 40
0
 40
0
 40
0
 40
0
 40
1
 40
1
 40
1
 40
1
 10
181.559097
 20
240.907219
 30
0.0
 10
191.814482
 20
246.828168
 30
0.0
 10
204.449638
 20
246.828168
 30
0.0
 10
214.705024
 20
240.907219
 30
0.0
  0
SPLINE
  5
108
100
AcDbEntity
  8
Through
 62
7
100
AcDbSpline
 70
8
 71
3
 72
8
 73
4
 74
0
 40
0
 40
0
 40
0
 40
0
 40
1
 40
1
 40
1
 40
1
 10
214.705024
 20
240.907219
 30
0.0
 10
224.960409
 20
234.986269
 30
0.0
 10
231.277987
 20
224.043903
 30
0.0
 10
231.277987
 20
212.202004
 30
0.0
  0
LWPOLYLINE
  5
109
100
AcDbEntity
  8
Through
 62
7
100
AcDbPolyline
 90
4
 70
1
 10
281.927690
 20
314.998190
 30
0.0
 10
289.826386
 20
314.998190
 30
0.0
 10
289.826386
 20
307.099495
 30
0.0
 10
281.927690
 20
307.099495
 30
0.0
  0
SPLINE
  5
10a
100
AcDbEntity
  8
Through
 62
7
100
AcDbSpline
 70
8
 71
3
 72
8
 73
4
 74
0
 40
0
 40
0
 40
0
 40
0
 40
1
 40
1
 40
1
 40
1
 10
223.628198
 20
212.202004
 30
0.0
 10
223.628198
 20
203.093111
 30
0.0
 10
218.768662
 20
194.676146
 30
0.0
 10
210.880129
 20
190.121699
 30
0.0
  0
SPLINE
  5
10b
100
AcDbEntity
  8
Through
 62
7
100
AcDbSpline
 70
8
 71
3
 72
8
 73
4
 74
0
 40
0
 40
0
 40
0
 40
0
 40
1
 40
1
 40
1
 40
1
 10
210.880129
 20
190.121699
 30
0.0
 10
202.991596
 20
185.567252
 30
0.0
 10
193.272524
 20
185.567252
 30
0.0
 10
185.383991
 20
190.121699
 30
0.0
  0
SPLINE
  5
10c
100
AcDbEntity
  8
Through
 62
7
100
AcDbSpline
 70
8
 71
3
 72
8
 73
4
 74
0
 40
0
 40
0
 40
0
 40
0
 40
1
 40
1
 40
1
 40
1
 10
185.383991
 20
190.121699
 30
0.0
 10
177.495458
 20
194.676146
 30
0.0
 10
172.635922
 20
203.093111
 30
0.0
 10
172.635922
 20
212.202004
 30
0.0
  0
SPLINE
  5
10d
100
AcDbEntity
  8
Through
 62
7
100
AcDbSpline
 70
8
 71
3
 72
8
 73
4
 74
0
 40
0
 40
0
 40
0
 40
0
 40
1
 40
1
 40
1
 40
1
 10
172.635922
 20
212.202004
 30
0.0
 10
172.635922
 20
221.310898
 30
0.0
 10
177.495458
 20
229.727862
 30
0.0
 10
185.383991
 20
234.282309
 30
0.0
  0
SPLINE
  5
10e
100
AcDbEntity
  8
Through
 62
7
100
AcDbSpline
 70
8
 71
3
 72
8
 73
4
 74
0
 40
0
 40
0
 40
0
 40
0
 40
1
 40
1
 40
1
 40
1
 10
185.383991
 20
234.282309
 30
0.0
 10
193.272524
 20
238.836756
 30
0.0
 10
202.991596
 20
238.836756
 30
0.0
 10
210.880129
 20
234.282309
 30
0.0
  0
SPLINE
  5
10f
100
AcDbEntity
  8
Through
 62
7
100
AcDbSpline
 70
8
 71
3
 72
8
 73
4
 74
0
 40
0
 40
0
 40
0
 40
0
 40
1
 40
1
 40
1
 40
1
 10
210.880129
 20
234.282309
 30
0.0
 10
218.768662
 20
229.727862
 30
0.0
 10
223.628198
 20
221.310898
 30
0.0
 10
223.628198
 20
212.202004
 30
0.0
  0
LWPOLYLINE
  5
110
100
AcDbEntity
  8
Through
 62
7
100
AcDbPolyline
 90
1
 70
1
 10
231.277987
 20
212.202004
 30
0.0
  0
SPLINE
  5
111
100
AcDbEntity
  8
Through
 62
7
100
AcDbSpline
 70
8
 71
3
 72
8
 73
4
 74
0
 40
0
 40
0
 40
0
 40
0
 40
1
 40
1
 40
1
 40
1
 10
201.740139
 20
212.202000
 30
0.0
 10
201.740139
 20
210.912961
 30
0.0
 10
201.052445
 20
209.721840
 30
0.0
 10
199.936105
 20
209.077320
 30
0.0
  0
SPLINE
  5
112
100
AcDbEntity
  8
Through
 62
7
100
AcDbSpline
 70
8
 71
3
 72
8
 73
4
 74
0
 40
0
 40
0
 40
0
 40
0
 40
1
 40
1
 40
1
 40
1
 10
199.936105
 20
209.077320
 30
0.0
 10
198.819764
 20
208.432801
 30
0.0
 10
197.444376
 20
208.432801
 30
0.0
 10
196.328035
 20
209.077320
 30
0.0
  0
SPLINE
  5
113
100
AcDbEntity
  8
Through
 62
7
100
AcDbSpline
 70
8
 71
3
 72
8
 73
4
 74
0
 40
0
 40
0
 40
0
 40
0
 40
1
 40
1
 40
1
 40
1
 10
196.328035
 20
209.077320
 30
0.0
 10
195.211695
 20
209.721840
 30
0.0
 10
194.524001
 20
210.912961
 30
0.0
 10
194.524001
 20
212.202000
 30
0.0
  0
SPLINE
  5
114
100
AcDbEntity
  8
Through
 62
7
100
AcDbSpline
 70
8
 71
3
 72
8
 73
4
 74
0
 40
0
 40
0
 40
0
 40
0
 40
1
 40
1
 40
1
 40
1
 10
194.524001
 20
212.202000
 30
0.0
 10
194.524001
 20
213.491039
 30
0.0
 10
195.211695
 20
214.682160
 30
0.0
 10
196.328035
 20
215.326680
 30
0.0
  0
SPLINE
  5
115
100
AcDbEntity
  8
Through
 62
7
100
AcDbSpline
 70
8
 71
3
 72
8
 73
4
 74
0
 40
0
 40
0
 40
0
 40
0
 40
1
 40
1
 40
1
 40
1
 10
196.328035
 20
215.326680
 30
0.0
 10
197.444376
 20
215.971199
 30
0.0
 10
198.819764
 20
215.971199
 30
0.0
 10
199.936105
 20
215.326680
 30
0.0
  0
SPLINE
  5
116
100
AcDbEntity
  8
Through
 62
7
100
AcDbSpline
 70
8
 71
3
 72
8
 73
4
 74
0
 40
0
 40
0
 40
0
 40
0
 40
1
 40
1
 40
1
 40
1
 10
199.936105
 20
215.326680
 30
0.0
 10
201.052445
 20
214.682160
 30
0.0
 10
201.740139
 20
213.491039
 30
0.0
 10
201.740139
 20
212.202000
 30
0.0
  0
LWPOLYLINE
  5
117
100
AcDbEntity
  8
Through
 62
7
100
AcDbPolyline
 90
1
 70
1
 10
223.628198
 20
212.202004
 30
0.0
  0
SPLINE
  5
118
100
AcDbEntity
  8
Through
 62
7
100
AcDbSpline
 70
8
 71
3
 72
8
 73
4
 74
0
 40
0
 40
0
 40
0
 40
0
 40
1
 40
1
 40
1
 40
1
 10
254.064827
 20
60.891996
 30
0.0
 10
254.064827
 20
58.768367
 30
0.0
 10
252.931885
 20
56.806054
 30
0.0
 10
251.092769
 20
55.744240
 30
0.0
  0
SPLINE
  5
119
100
AcDbEntity
  8
Through
 62
7
100
AcDbSpline
 70
8
 71
3
 72
8
 73
4
 74
0
 40
0
 40
0
 40
0
 40
0
 40
1
 40
1
 40
1
 40
1
 10
251.092769
 20
55.744240
 30
0.0
 10
249.253652
 20
54.682425
 30
0.0
 10
246.987768
 20
54.682425
 30
0.0
 10
245.148651
 20
55.744240
 30
0.0
  0
SPLINE
  5
11a
100
AcDbEntity
  8
Through
 62
7
100
AcDbSpline
 70
8
 71
3
 72
8
 73
4
 74
0
 40
0
 40
0
 40
0
 40
0
 40
1
 40
1
 40
1
 40
1
 10
245.148651
 20
55.744240
 30
0.0
 10
243.309535
 20
56.806054
 30
0.0
 10
242.176593
 20
58.768367
 30
0.0
 10
242.176593
 20
60.891996
 30
0.0
  0
SPLINE
  5
11b
100
AcDbEntity
  8
Through
 62
7
100
AcDbSpline
 70
8
 71
3
 72
8
 73
4
 74
0
 40
0
 40
0
 40
0
 40
0
 40
1
 40
1
 40
1
 40
1
 10
242.176593
 20
60.891996
 30
0.0
 10
242.176593
 20
63.015625
 30
0.0
 10
243.309535
 20
64.977938
 30
0.0
 10
245.148651
 20
66.039752
 30
0.0
  0
SPLINE
  5
11c
100
AcDbEntity
  8
Through
 62
7
100
AcDbSpline
 70
8
 71
3
 72
8
 73
4
 74
0
 40
0
 40
0
 40
0
 40
0
 40
1
 40
1
 40
1
 40
1
 10
245.148651
 20
66.039752
 30
0.0
 10
246.987768
 20
67.101567
 30
0.0
 10
249.253652
 20
67.101567
 30
0.0
 10
251.092769
 20
66.039752
 30
0.0
  0
SPLINE
  5
11d
100
AcDbEntity
  8
Through
 62
7
100
AcDbSpline
 70
8
 71
3
 72
8
 73
4
 74
0
 40
0
 40
0
 40
0
 40
0
 40
1
 40
1
 40
1
 40
1
 10
251.092769
 20
66.039752
 30
0.0
 10
252.931885
 20
64.977938
 30
0.0
 10
254.064827
 20
63.015625
 30
0.0
 10
254.064827
 20
60.891996
 30
0.0
  0
LWPOLYLINE
  5
11e
100
AcDbEntity
  8
Through
 62
7
100
AcDbPolyline
 90
1
 70
1
 10
201.740139
 20
212.202000
 30
0.0
  0
SPLINE
  5
11f
100
AcDbEntity
  8
Through
 62
7
100
AcDbSpline
 70
8
 71
3
 72
8
 73
4
 74
0
 40
0
 40
0
 40
0
 40
0
 40
1
 40
1
 40
1
 40
1
 10
123.917714
 20
60.891996
 30
0.0
 10
123.917714
 20
55.548328
 30
0.0
 10
121.066901
 20
50.610576
 30
0.0
 10
116.439149
 20
47.938742
 30
0.0
  0
SPLINE
  5
120
100
AcDbEntity
  8
Through
 62
7
100
AcDbSpline
 70
8
 71
3
 72
8
 73
4
 74
0
 40
0
 40
0
 40
0
 40
0
 40
1
 40
1
 40
1
 40
1
 10
116.439149
 20
47.938742
 30
0.0
 10
111.811398
 20
45.266909
 30
0.0
 10
106.109772
 20
45.266909
 30
0.0
 10
101.482020
 20
47.938742
 30
0.0
  0
SPLINE
  5
121
100
AcDbEntity
  8
Through
 62
7
100
AcDbSpline
 70
8
 71
3
 72
8
 73
4
 74
0
 40
0
 40
0
 40
0
 40
0
 40
1
 40
1
 40
1
 40
1
 10
101.482020
 20
47.938742
 30
0.0
 10
96.854269
 20
50.610576
 30
0.0
 10
94.003456
 20
55.548328
 30
0.0
 10
94.003456
 20
60.891996
 30
0.0
  0
SPLINE
  5
122
100
AcDbEntity
  8
Through
 62
7
100
AcDbSpline
 70
8
 71
3
 72
8
 73
4
 74
0
 40
0
 40
0
 40
0
 40
0
 40
1
 40
1
 40
1
 40
1
 10
94.003456
 20
60.891996
 30
0.0
 10
94.003456
 20
66.235664
 30
0.0
 10
96.854269
 20
71.173416
 30
0.0
 10
101.482020
 20
73.845250
 30
0.0
  0
SPLINE
  5
123
100
AcDbEntity
  8
Through
 62
7
100
AcDbSpline
 70
8
 71
3
 72
8
 73
4
 74
0
 40
0
 40
0
 40
0
 40
0
 40
1
 40
1
 40
1
 40
1
 10
101.482020
 20
73.845250
 30
0.0
 10
106.109772
 20
76.517083
 30
0.0
 10
111.811398
 20
76.517083
 30
0.0
 10
116.439149
 20
73.845250
 30
0.0
  0
SPLINE
  5
124
100
AcDbEntity
  8
Through
 62
7
100
AcDbSpline
 70
8
 71
3
 72
8
 73
4
 74
0
 40
0
 40
0
 40
0
 40
0
 40
1
 40
1
 40
1
 40
1
 10
116.439149
 20
73.845250
 30
0.0
 10
121.066901
 20
71.173416
 30
0.0
 10
123.917714
 20
66.235664
 30
0.0
 10
123.917714
 20
60.891996
 30
0.0
  0
LWPOLYLINE
  5
125
100
AcDbEntity
  8
Through
 62
7
100
AcDbPolyline
 90
1
 70
1
 10
254.064827
 20
60.891996
 30
0.0
  0
SPLINE
  5
126
100
AcDbEntity
  8
Through
 62
7
100
AcDbSpline
 70
8
 71
3
 72
8
 73
4
 74
0
 40
0
 40
0
 40
0
 40
0
 40
1
 40
1
 40
1
 40
1
 10
193.358680
 20
60.891996
 30
0.0
 10
193.358679
 20
52.493725
 30
0.0
 10
186.550536
 20
45.685582
 30
0.0
 10
178.152265
 20
45.685582
 30
0.0
  0
SPLINE
  5
127
100
AcDbEntity
  8
Through
 62
7
100
AcDbSpline
 70
8
 71
3
 72
8
 73
4
 74
0
 40
0
 40
0
 40
0
 40
0
 40
1
 40
1
 40
1
 40
1
 10
178.152265
 20
45.685582
 30
0.0
 10
169.753994
 20
45.685582
 30
0.0
 10
162.945850
 20
52.493725
 30
0.0
 10
162.945850
 20
60.891996
 30
0.0
  0
SPLINE
  5
128
100
AcDbEntity
  8
Through
 62
7
100
AcDbSpline
 70
8
 71
3
 72
8
 73
4
 74
0
 40
0
 40
0
 40
0
 40
0
 40
1
 40
1
 40
1
 40
1
 10
162.945850
 20
60.891996
 30
0.0
 10
162.945850
 20
69.290267
 30
0.0
 10
169.753994
 20
76.098410
 30
0.0
 10
178.152265
 20
76.098410
 30
0.0
  0
SPLINE
  5
129
100
AcDbEntity
  8
Through
 62
7
100
AcDbSpline
 70
8
 71
3
 72
8
 73
4
 74
0
 40
0
 40
0
 40
0
 40
0
 40
1
 40
1
 40
1
 40
1
 10
178.152265
 20
76.098410
 30
0.0
 10
186.550536
 20
76.098410
 30
0.0
 10
193.358679
 20
69.290267
 30
0.0
 10
193.358680
 20
60.891996
 30
0.0
  0
LWPOLYLINE
  5
12a
100
AcDbEntity
  8
Through
 62
7
100
AcDbPolyline
 90
1
 70
1
 10
123.917714
 20
60.891996
 30
0.0
  0
LWPOLYLINE
  5
12b
100
AcDbEntity
  8
Through
 62
7
100
AcDbPolyline
 90
1
 70
1
 10
193.358680
 20
60.891996
 30
0.0
  0
LWPOLYLINE
  5
12c
100
AcDbEntity
  8
Through
 62
7
100
AcDbPolyline
 90
4
 70
1
 10
167.453720
 20
275.586450
 30
0.0
 10
228.228752
 20
275.586450
 30
0.0
 10
228.228752
 20
261.311419
 30
0.0
 10
167.453720
 20
261.311419
 30
0.0
  0
LWPOLYLINE
  5
12d
100
AcDbEntity
  8
Through
 62
7
100
AcDbPolyline
 90
4
 70
1
 10
0.170750
 20
260.866720
 30
0.0
 10
113.922660
 20
260.866720
 30
0.0
 10
113.922660
 20
161.964460
 30
0.0
 10
0.170750
 20
161.964460
 30
0.0
  0
LWPOLYLINE
  5
12e
100
AcDbEntity
  8
Inside
 62
7
100
AcDbPolyline
 90
4
 70
1
 10
81.629580
 20
90.639240
 30
0.0
 10
131.582919
 20
90.639240
 30
0.0
 10
131.582919
 20
63.685903
 30
0.0
 10
81.629580
 20
63.685903
 30
0.0
  0
LWPOLYLINE
  5
12f
100
AcDbEntity
  8
Inside
 62
7
100
AcDbPolyline
 90
4
 70
1
 10
54.745070
 20
57.346700
 30
0.0
 10
154.685118
 20
57.346700
 30
0.0
 10
154.685118
 20
-42.593342
 30
0.0
 10
54.745070
 20
-42.593342
 30
0.0
  0
LWPOLYLINE
  5
130
100
AcDbEntity
  8
Outside
 62
7
100
AcDbPolyline
 90
4
 70
1
 10
289.826380
 20
314.998200
 30
0.0
 10
0.180370
 20
314.882160
 30
0.0
 10
6.571230
 20
0.176871
 30
0.0
 10
282.930400
 20
0.353305
 30
0.0
  0
ENDSEC
  0
SECTION
  2
OBJECTS
  0
DICTIONARY
  5
C
330
0
100
AcDbDictionary
  3
ACAD_GROUP
350
D
  3
ACAD_MLINESTYLE
350
17
  0
DICTIONARY
  5
D
330
C
100
AcDbDictionary
  0
DICTIONARY
  5
1A
330
C
100
AcDbDictionary
  0
DICTIONARY
  5
17
330
C
100
AcDbDictionary
  3
STANDARD
350
18
  0
DICTIONARY
  5
19
330
C
100
AcDbDictionary
  0
ENDSEC
  0
EOF
